<svg width="56" height="63" viewBox="0 0 56 63" fill="none" xmlns="http://www.w3.org/2000/svg">
<path d="M54.25 34.8927C54.25 30.1971 50.3742 26.3213 45.6786 26.3213H45.4107V18.982C45.4107 9.42478 37.5572 1.57129 28 1.57129C18.3255 1.57129 10.5893 9.43157 10.5893 18.982V26.3213H10.3214C5.51532 26.3213 1.75 30.0866 1.75 34.8927V52.5713C1.75 57.2516 5.50008 61.1427 10.3214 61.1427H45.6786C50.3742 61.1427 54.25 57.2669 54.25 52.5713V34.8927ZM35.3393 26.3213H20.6607V18.982C20.6607 14.9366 23.8685 11.6427 28 11.6427C32.0332 11.6427 35.3393 14.9488 35.3393 18.982V26.3213Z" fill="#FFEEE4" stroke="white" stroke-width="3"/>
</svg>
