<svg width="41" height="43" viewBox="0 0 41 43" fill="none" xmlns="http://www.w3.org/2000/svg">
<mask id="mask0_26486_100825" style="mask-type:alpha" maskUnits="userSpaceOnUse" x="20" y="0" width="21" height="43">
<path d="M20.4004 0.0185547H40.9462V42.5009H20.4004V0.0185547Z" fill="#D9D9D9"/>
</mask>
<g mask="url(#mask0_26486_100825)">
<path d="M31.5012 20.942V34.0167H9.61133V20.942C9.61133 14.8913 14.5118 9.98633 20.557 9.98633C23.6842 9.98633 26.505 11.2995 28.4995 13.4058C30.3606 15.3676 31.5017 18.0213 31.5017 20.942H31.5012Z" fill="#E11E27"/>
<path d="M21.7483 20.4707H19.3672V33.3892H21.7483V20.4707Z" fill="#C10C1A"/>
<path d="M21.748 25.0556L28.4771 26.9307V20.6221L21.748 22.3468V25.0556Z" fill="#C10C1A"/>
<g style="mix-blend-mode:multiply" opacity="0.2">
<path d="M31.5019 20.9415V34.0162H14.7773C19.2407 32.5163 27.9601 27.7568 28.5003 13.4053C30.3614 15.367 31.5025 18.0207 31.5025 20.9415H31.5019Z" fill="#3D3A3C"/>
</g>
<path d="M36.4772 42H4.63867C4.63867 39.9023 5.48426 38.2668 6.85082 36.8915C7.44689 36.2916 8.14346 35.7908 8.91181 35.4172C9.90349 34.9372 11.0153 34.667 12.1894 34.667H28.9273C30.1024 34.667 31.2143 34.9372 32.2049 35.4183C34.7333 36.6459 36.4772 38.9862 36.4772 42Z" fill="#433A3B"/>
<path d="M32.2032 32.6035H8.91016V35.4306H32.2032V32.6035Z" fill="#ABA1A2"/>
<g style="mix-blend-mode:multiply" opacity="0.2">
<path d="M36.5 42H18.2009C21.4094 38.908 18.9256 35.4306 18.9256 35.4306C19.2388 35.1962 19.4376 34.9356 19.5546 34.667C19.8763 33.9269 19.5727 33.1204 19.2861 32.6035H32.204V35.4183C34.7324 36.6459 36.5 38.9862 36.5 42Z" fill="#3D3A3C"/>
</g>
<path d="M20.5572 8.49947L19.2656 0.724609H21.8483L20.5572 8.49947Z" fill="white"/>
<path d="M27.9824 10.5271L30.7272 3.14453L32.9637 4.44382L27.9824 10.5271Z" fill="white"/>
<path d="M32.2165 15.9731L38.6923 11.4897L39.7828 13.8351L32.2165 15.9731Z" fill="white"/>
</g>
<mask id="mask1_26486_100825" style="mask-type:alpha" maskUnits="userSpaceOnUse" x="0" y="0" width="21" height="42">
<path d="M0 0H20.5458V42H0L0 0Z" fill="#D9D9D9"/>
</mask>
<g mask="url(#mask1_26486_100825)">
<path d="M31.7512 20.9527V34.0275H9.86133V20.9527C9.86133 14.902 14.7618 9.99707 20.807 9.99707C23.9342 9.99707 26.755 11.3103 28.7495 13.4165C30.6106 15.3783 31.7512 18.032 31.7512 20.9527Z" fill="#0C6CB0"/>
<path d="M21.9963 20.4805H19.6152V33.399H21.9963V20.4805Z" fill="#045689"/>
<path d="M19.6158 25.0654L12.8867 26.9404V20.6318L19.6158 22.3566V25.0654Z" fill="#045689"/>
<g style="mix-blend-mode:multiply" opacity="0.2">
<path d="M31.7519 20.9522V34.027H15.0273C19.4907 32.527 28.2101 27.7676 28.7503 13.416C30.6114 15.3778 31.7525 18.0315 31.7525 20.9522H31.7519Z" fill="#3D3A3C"/>
</g>
<path d="M36.7253 42.2749H4.88672C4.88672 40.1772 5.73164 38.2775 7.09819 36.9023C7.69427 36.3024 8.39084 35.8015 9.15919 35.428C10.1509 34.948 11.2627 34.6777 12.4368 34.6777H29.1747C30.3498 34.6777 31.4617 34.948 32.4523 35.4291C34.9807 36.6566 36.7253 39.2611 36.7253 42.2749Z" fill="#433A3B"/>
<path d="M32.4532 32.6143H9.16016V35.4413H32.4532V32.6143Z" fill="#ABA1A2"/>
<g style="mix-blend-mode:multiply" opacity="0.2">
<path d="M36.7268 42.2749H18.4277C21.6362 39.1829 19.1754 35.4413 19.1754 35.4413C19.4885 35.2069 19.6874 34.9463 19.8044 34.6777C20.1261 33.9376 19.8225 33.1312 19.5359 32.6143H32.4538V35.429C34.9822 36.6566 36.7268 39.2611 36.7268 42.2749Z" fill="#3D3A3C"/>
</g>
<path opacity="0.5" d="M17.0328 16.5807C18.6482 15.3521 19.3281 13.5176 18.5513 12.4832C17.7745 11.4488 15.8353 11.6063 14.2199 12.8349C12.6045 14.0636 11.9246 15.8981 12.7014 16.9325C13.4781 17.9669 15.4174 17.8094 17.0328 16.5807Z" fill="white"/>
<path d="M20.8067 8.51021L19.5156 0.735352H22.0983L20.8067 8.51021Z" fill="white"/>
<path d="M13.2483 10.5213L8.26758 4.43796L10.504 3.13867L13.2483 10.5213Z" fill="white"/>
<path d="M7.70741 16.0662L0.371094 13.3045L1.66267 11.0537L7.70741 16.0662Z" fill="white"/>
<path d="M7.55367 23.7852L-0.171875 25.0845V22.4854L7.55367 23.7852Z" fill="white"/>
</g>
</svg>
