<svg width="24" height="24" viewBox="0 0 24 24" fill="none" xmlns="http://www.w3.org/2000/svg">
<circle cx="12" cy="12" r="12" fill="white"/>
<circle cx="12.0004" cy="12.0004" r="9.6" fill="#DBFFF2"/>
<path d="M10.6403 9.80678C11.5998 10.1258 12.5806 10.3385 13.4761 10.7639C15.7149 11.8487 17.0582 13.6353 17.0795 16.2089C17.1435 19.7609 13.9452 22.4409 10.4271 21.8879C9.55293 21.739 8.7427 21.5263 7.97512 21.0796C6.12012 20.0587 5.48047 18.3571 5.48047 16.3578C5.48047 15.9537 5.67236 15.5283 5.86426 15.188C6.14144 14.6988 6.61052 14.4861 7.18621 14.5712C7.71926 14.6775 8.12437 15.0816 8.2523 15.6559C8.29495 15.9111 8.31627 16.1664 8.42288 16.4003C8.97724 17.6127 10.4271 18.2508 11.6851 17.8467C12.474 17.6127 13.199 16.6981 13.2203 15.7835C13.2203 14.7839 12.9218 14.0182 11.9836 13.6566C11.2374 13.3588 10.4911 13.1036 9.76615 12.8696C9.08385 12.6356 8.42288 12.4442 7.78322 12.1464C6.24805 11.4871 5.52311 10.1471 5.75765 8.48806C6.12012 5.87191 8.10305 3.80876 10.7256 3.44717C12.3248 3.23448 13.7746 3.74495 14.8621 5.02112C15.523 5.74429 15.7576 6.63761 15.4377 7.61601C15.0753 8.65822 14.1371 8.89218 13.3269 8.10521C12.9005 7.70109 12.4527 7.33951 11.8344 7.25443C9.83011 6.99919 8.4442 8.99853 10.6403 9.80678Z" fill="dark-green"/>
<path fill-rule="evenodd" clip-rule="evenodd" d="M5.842 15.1943C6.12031 14.7038 6.5913 14.4906 7.16934 14.5759C7.70456 14.6825 8.11133 15.0877 8.23978 15.6634C8.2481 15.7131 8.2556 15.7628 8.26308 15.8123C8.29414 16.0179 8.32479 16.2207 8.41105 16.4097C8.96768 17.6252 10.4235 18.2649 11.6866 17.8598C12.4787 17.6252 13.2066 16.7083 13.228 15.7913C13.228 14.7891 12.9283 14.0214 11.9863 13.6589C11.237 13.3604 10.4877 13.1045 9.75981 12.8699C9.59649 12.814 9.43439 12.7605 9.27351 12.7074C8.75952 12.5378 8.25794 12.3723 7.76879 12.1449C6.22735 11.4839 5.49946 10.1405 5.73495 8.47717C6.0989 5.8543 8.08992 3.78586 10.7232 3.42335C12.3289 3.21011 13.7847 3.72189 14.8765 5.00134C15.5402 5.72636 15.7757 6.62197 15.4545 7.60288C15.0906 8.64777 14.1486 8.88233 13.3351 8.09334C12.9069 7.68818 12.4573 7.32567 11.8365 7.24037C9.82403 6.98448 8.43246 8.98895 10.6376 9.79927C10.9472 9.90206 11.259 9.99385 11.5695 10.0852C12.2251 10.2782 12.8747 10.4694 13.4849 10.7589C15.7329 11.8464 17.0816 13.6376 17.103 16.2178C17.1673 19.779 13.9559 22.4658 10.4235 21.9114C9.54572 21.7621 8.73218 21.5489 7.96147 21.1011C6.0989 20.0775 5.45664 18.3716 5.45664 16.3671C5.45664 15.9619 5.64932 15.5355 5.842 15.1943ZM7.4024 22.0904C5.07139 20.8035 4.32031 18.6329 4.32031 16.3671C4.32031 15.6497 4.64446 15.004 4.85255 14.6355L4.85313 14.6345L4.85371 14.6334C5.09761 14.2036 5.45441 13.8514 5.91632 13.6378C6.37386 13.4262 6.86525 13.3824 7.33522 13.4517L7.3634 13.4559L7.39134 13.4614C8.39695 13.6618 9.12905 14.4308 9.34884 15.416L9.35549 15.4458L9.36053 15.4759C9.3705 15.5355 9.37983 15.5973 9.38744 15.6477C9.38938 15.6605 9.39121 15.6726 9.3929 15.6837C9.4022 15.7448 9.40954 15.7901 9.41722 15.83C9.43216 15.9078 9.44291 15.9337 9.44469 15.9377C9.76252 16.6301 10.6255 17.0068 11.3395 16.7777L11.3517 16.7738L11.364 16.7702C11.4802 16.7358 11.6708 16.6186 11.8417 16.3938C12.0061 16.1775 12.0847 15.9497 12.0917 15.7756C12.0901 15.3826 12.028 15.1522 11.957 15.0186C11.9023 14.9156 11.8132 14.8099 11.5782 14.7195L11.572 14.7171L11.5657 14.7146C10.8498 14.4293 10.1274 14.1823 9.41128 13.9515L9.40147 13.9484L9.39172 13.945C9.25441 13.898 9.10953 13.8503 8.95938 13.8008C8.43937 13.6294 7.85612 13.4372 7.30501 13.1824C6.33924 12.7647 5.56995 12.1056 5.09033 11.2354C4.60946 10.3628 4.46304 9.3568 4.60963 8.31943C5.04129 5.21347 7.41142 2.73221 10.5682 2.29763L10.5709 2.29726L10.5736 2.2969C12.5388 2.03591 14.3769 2.67473 15.7284 4.24906C16.6395 5.25359 16.9897 6.56607 16.5345 7.95644L16.5311 7.96659L16.5276 7.97667C16.2575 8.75236 15.6892 9.43698 14.8253 9.64157C14.4283 9.73558 14.0412 9.71116 13.6808 9.60121C13.7779 9.64265 13.875 9.68621 13.9719 9.73214L13.9759 9.73402L13.9798 9.73593C16.5553 10.9819 18.2119 13.1303 18.2393 16.203C18.3133 20.4993 14.4435 23.6926 10.2473 23.034L10.2401 23.0329L10.233 23.0316C9.30101 22.8731 8.33889 22.6319 7.4024 22.0904ZM13.2943 9.44661C13.0219 9.31107 12.7708 9.12801 12.5497 8.91457C12.1498 8.53677 11.9259 8.40119 11.687 8.36687C11.3867 8.32979 11.1307 8.37893 10.9427 8.46059C10.8449 8.50307 10.7753 8.54948 10.7277 8.58937C10.7877 8.62796 10.8788 8.67616 11.014 8.72689C11.3013 8.82186 11.5726 8.90162 11.8617 8.9866C12.0379 9.03841 12.2208 9.09216 12.4179 9.15248C12.7008 9.23907 12.9958 9.33447 13.2943 9.44661Z" fill="#040065"/>
<path fill-rule="evenodd" clip-rule="evenodd" d="M5.842 15.1943C6.12031 14.7038 6.5913 14.4906 7.16934 14.5759C7.70456 14.6825 8.11133 15.0877 8.23978 15.6634C8.2481 15.7131 8.2556 15.7628 8.26308 15.8123C8.29414 16.0179 8.32479 16.2207 8.41105 16.4097C8.96768 17.6252 10.4235 18.2649 11.6866 17.8598C12.4787 17.6252 13.2066 16.7083 13.228 15.7913C13.228 14.7891 12.9283 14.0214 11.9863 13.6589C11.237 13.3604 10.4877 13.1045 9.75981 12.8699C9.59649 12.814 9.43439 12.7605 9.27351 12.7074C8.75952 12.5378 8.25794 12.3723 7.76879 12.1449C6.22735 11.4839 5.49946 10.1405 5.73495 8.47717C6.0989 5.8543 8.08992 3.78586 10.7232 3.42335C12.3289 3.21011 13.7847 3.72189 14.8765 5.00134C15.5402 5.72636 15.7757 6.62197 15.4545 7.60288C15.0906 8.64777 14.1486 8.88233 13.3351 8.09334C12.9069 7.68818 12.4573 7.32567 11.8365 7.24037C9.82403 6.98448 8.43246 8.98895 10.6376 9.79927C10.9472 9.90206 11.259 9.99385 11.5695 10.0852C12.2251 10.2782 12.8747 10.4694 13.4849 10.7589C15.7329 11.8464 17.0816 13.6376 17.103 16.2178C17.1673 19.779 13.9559 22.4658 10.4235 21.9114C9.54572 21.7621 8.73218 21.5489 7.96147 21.1011C6.0989 20.0775 5.45664 18.3716 5.45664 16.3671C5.45664 15.9619 5.64932 15.5355 5.842 15.1943ZM7.4024 22.0904C5.07139 20.8035 4.32031 18.6329 4.32031 16.3671C4.32031 15.6497 4.64446 15.004 4.85255 14.6355L4.85313 14.6345L4.85371 14.6334C5.09761 14.2036 5.45441 13.8514 5.91632 13.6378C6.37386 13.4262 6.86525 13.3824 7.33522 13.4517L7.3634 13.4559L7.39134 13.4614C8.39695 13.6618 9.12905 14.4308 9.34884 15.416L9.35549 15.4458L9.36053 15.4759C9.3705 15.5355 9.37983 15.5973 9.38744 15.6477C9.38938 15.6605 9.39121 15.6726 9.3929 15.6837C9.4022 15.7448 9.40954 15.7901 9.41722 15.83C9.43216 15.9078 9.44291 15.9337 9.44469 15.9377C9.76252 16.6301 10.6255 17.0068 11.3395 16.7777L11.3517 16.7738L11.364 16.7702C11.4802 16.7358 11.6708 16.6186 11.8417 16.3938C12.0061 16.1775 12.0847 15.9497 12.0917 15.7756C12.0901 15.3826 12.028 15.1522 11.957 15.0186C11.9023 14.9156 11.8132 14.8099 11.5782 14.7195L11.572 14.7171L11.5657 14.7146C10.8498 14.4293 10.1274 14.1823 9.41128 13.9515L9.40147 13.9484L9.39172 13.945C9.25441 13.898 9.10953 13.8503 8.95938 13.8008C8.43937 13.6294 7.85612 13.4372 7.30501 13.1824C6.33924 12.7647 5.56995 12.1056 5.09033 11.2354C4.60946 10.3628 4.46304 9.3568 4.60963 8.31943C5.04129 5.21347 7.41142 2.73221 10.5682 2.29763L10.5709 2.29726L10.5736 2.2969C12.5388 2.03591 14.3769 2.67473 15.7284 4.24906C16.6395 5.25359 16.9897 6.56607 16.5345 7.95644L16.5311 7.96659L16.5276 7.97667C16.2575 8.75236 15.6892 9.43698 14.8253 9.64157C14.4283 9.73558 14.0412 9.71116 13.6808 9.60121C13.7779 9.64265 13.875 9.68621 13.9719 9.73214L13.9759 9.73402L13.9798 9.73593C16.5553 10.9819 18.2119 13.1303 18.2393 16.203C18.3133 20.4993 14.4435 23.6926 10.2473 23.034L10.2401 23.0329L10.233 23.0316C9.30101 22.8731 8.33889 22.6319 7.4024 22.0904ZM13.2943 9.44661C13.0219 9.31107 12.7708 9.12801 12.5497 8.91457C12.1498 8.53677 11.9259 8.40119 11.687 8.36687C11.3867 8.32979 11.1307 8.37893 10.9427 8.46059C10.8449 8.50307 10.7753 8.54948 10.7277 8.58937C10.7877 8.62796 10.8788 8.67616 11.014 8.72689C11.3013 8.82186 11.5726 8.90162 11.8617 8.9866C12.0379 9.03841 12.2208 9.09216 12.4179 9.15248C12.7008 9.23907 12.9958 9.33447 13.2943 9.44661Z" fill="#040065" fill-opacity="0.4" style="mix-blend-mode:multiply"/>
<path d="M13.0398 8.36635C13.9992 8.68539 14.98 8.89809 15.8756 9.32348C18.1143 10.4082 19.4576 12.1949 19.4789 14.7685C19.5429 18.3205 16.3446 21.0005 12.8265 20.4475C11.9523 20.2986 11.1421 20.0859 10.3745 19.6392C8.51954 18.6183 7.87988 16.9167 7.87988 14.9174C7.87988 14.5133 8.07178 14.0879 8.26368 13.7475C8.54086 13.2583 9.00994 13.0457 9.58563 13.1307C10.1187 13.2371 10.5238 13.6412 10.6517 14.2155C10.6944 14.4707 10.7157 14.7259 10.8223 14.9599C11.3767 16.1723 12.8265 16.8104 14.0845 16.4062C14.8734 16.1723 15.5984 15.2577 15.6197 14.3431C15.6197 13.3434 15.3212 12.5777 14.383 12.2161C13.6368 11.9184 12.8905 11.6631 12.1656 11.4292C11.4833 11.1952 10.8223 11.0038 10.1826 10.706C8.64747 10.0466 7.92253 8.70666 8.15707 7.04763C8.51954 4.43148 10.5025 2.36833 13.125 2.00674C14.7242 1.79405 16.1741 2.30452 17.2615 3.58069C17.9224 4.30386 18.157 5.19718 17.8372 6.17558C17.4747 7.21779 16.5365 7.45176 15.7263 6.66478C15.2999 6.26066 14.8521 5.89908 14.2338 5.814C12.2295 5.55876 10.8436 7.5581 13.0398 8.36635Z" fill="#C9E773"/>
<path fill-rule="evenodd" clip-rule="evenodd" d="M8.24141 13.7538C8.51972 13.2634 8.99072 13.0501 9.56876 13.1354C10.104 13.2421 10.5107 13.6472 10.6392 14.223C10.6475 14.2727 10.655 14.3223 10.6625 14.3719C10.6936 14.5774 10.7242 14.7803 10.8105 14.9693C11.3671 16.1848 12.8229 16.8245 14.086 16.4194C14.8781 16.1848 15.606 15.2679 15.6274 14.3509C15.6274 13.3487 15.3277 12.581 14.3857 12.2185C13.6364 11.92 12.8871 11.6641 12.1592 11.4295C11.9959 11.3736 11.8338 11.3201 11.6729 11.267C11.1589 11.0974 10.6574 10.9319 10.1682 10.7045C8.62677 10.0434 7.89887 8.70003 8.13437 7.03674C8.49832 4.41388 10.4893 2.34543 13.1226 1.98292C14.7283 1.76968 16.1841 2.28146 17.2759 3.56091C17.9396 4.28593 18.1751 5.18154 17.854 6.16245C17.49 7.20734 16.548 7.4419 15.7345 6.65291C15.3063 6.24775 14.8567 5.88524 14.2359 5.79994C12.2234 5.54405 10.8319 7.54852 13.037 8.35884C13.3466 8.46163 13.6584 8.55342 13.9689 8.64481C14.6245 8.83779 15.2742 9.029 15.8844 9.31842C18.1323 10.406 19.481 12.1972 19.5024 14.7774C19.5667 18.3385 16.3553 21.0254 12.8229 20.4709C11.9451 20.3217 11.1316 20.1084 10.3609 19.6606C8.49832 18.6371 7.85605 16.9311 7.85605 14.9267C7.85605 14.5215 8.04873 14.095 8.24141 13.7538ZM9.80181 20.65C7.47081 19.3631 6.71973 17.1925 6.71973 14.9267C6.71973 14.2092 7.04387 13.5635 7.25197 13.1951L7.25254 13.194L7.25312 13.193C7.49702 12.7632 7.85383 12.4109 8.31573 12.1973C8.77328 11.9857 9.26466 11.9419 9.73464 12.0113L9.76282 12.0154L9.79076 12.021C10.7964 12.2213 11.5285 12.9904 11.7483 13.9755L11.7549 14.0053L11.7599 14.0354C11.7699 14.095 11.7792 14.1569 11.7869 14.2072C11.7888 14.2201 11.7906 14.2322 11.7923 14.2433C11.8016 14.3043 11.809 14.3496 11.8166 14.3896C11.8316 14.4673 11.8423 14.4933 11.8441 14.4973C12.1619 15.1897 13.0249 15.5663 13.7389 15.3373L13.7511 15.3334L13.7634 15.3298C13.8796 15.2954 14.0703 15.1781 14.2411 14.9534C14.4055 14.7371 14.4841 14.5093 14.4911 14.3352C14.4895 13.9422 14.4275 13.7118 14.3564 13.5781C14.3017 13.4751 14.2126 13.3695 13.9776 13.279L13.9714 13.2766L13.9652 13.2741C13.2492 12.9889 12.5268 12.7418 11.8107 12.5111L11.8009 12.5079L11.7911 12.5046C11.6538 12.4576 11.5089 12.4098 11.3588 12.3603C10.8388 12.189 10.2555 11.9967 9.70443 11.742C8.73866 11.3243 7.96936 10.6652 7.48974 9.79494C7.00887 8.9224 6.86245 7.91637 7.00904 6.879C7.4407 3.77304 9.81083 1.29178 12.9676 0.857199L12.9703 0.856829L12.973 0.856472C14.9382 0.59548 16.7763 1.2343 18.1278 2.80863C19.0389 3.81316 19.3891 5.12564 18.9339 6.51601L18.9306 6.52616L18.9271 6.53624C18.6569 7.31193 18.0886 7.99655 17.2247 8.20114C16.8277 8.29515 16.4406 8.27073 16.0802 8.16078C16.1773 8.20222 16.2745 8.24578 16.3713 8.29171L16.3753 8.29359L16.3792 8.2955C18.9547 9.54151 20.6113 11.6899 20.6387 14.7626C20.7127 19.0589 16.8429 22.2521 12.6467 21.5935L12.6395 21.5924L12.6324 21.5912C11.7004 21.4327 10.7383 21.1915 9.80181 20.65ZM15.6937 8.00618C15.4213 7.87064 15.1702 7.68758 14.9491 7.47414C14.5492 7.09634 14.3254 6.96076 14.0864 6.92644C13.7861 6.88936 13.5301 6.9385 13.3421 7.02016C13.2443 7.06264 13.1747 7.10905 13.1271 7.14894C13.1871 7.18753 13.2782 7.23573 13.4134 7.28646C13.7007 7.38143 13.972 7.46119 14.2611 7.54617C14.4373 7.59798 14.6202 7.65173 14.8173 7.71205C15.1002 7.79865 15.3952 7.89404 15.6937 8.00618Z" fill="#040065"/>
<path fill-rule="evenodd" clip-rule="evenodd" d="M8.24141 13.7538C8.51972 13.2634 8.99072 13.0501 9.56876 13.1354C10.104 13.2421 10.5107 13.6472 10.6392 14.223C10.6475 14.2727 10.655 14.3223 10.6625 14.3719C10.6936 14.5774 10.7242 14.7803 10.8105 14.9693C11.3671 16.1848 12.8229 16.8245 14.086 16.4194C14.8781 16.1848 15.606 15.2679 15.6274 14.3509C15.6274 13.3487 15.3277 12.581 14.3857 12.2185C13.6364 11.92 12.8871 11.6641 12.1592 11.4295C11.9959 11.3736 11.8338 11.3201 11.6729 11.267C11.1589 11.0974 10.6574 10.9319 10.1682 10.7045C8.62677 10.0434 7.89887 8.70003 8.13437 7.03674C8.49832 4.41388 10.4893 2.34543 13.1226 1.98292C14.7283 1.76968 16.1841 2.28146 17.2759 3.56091C17.9396 4.28593 18.1751 5.18154 17.854 6.16245C17.49 7.20734 16.548 7.4419 15.7345 6.65291C15.3063 6.24775 14.8567 5.88524 14.2359 5.79994C12.2234 5.54405 10.8319 7.54852 13.037 8.35884C13.3466 8.46163 13.6584 8.55342 13.9689 8.64481C14.6245 8.83779 15.2742 9.029 15.8844 9.31842C18.1323 10.406 19.481 12.1972 19.5024 14.7774C19.5667 18.3385 16.3553 21.0254 12.8229 20.4709C11.9451 20.3217 11.1316 20.1084 10.3609 19.6606C8.49832 18.6371 7.85605 16.9311 7.85605 14.9267C7.85605 14.5215 8.04873 14.095 8.24141 13.7538ZM9.80181 20.65C7.47081 19.3631 6.71973 17.1925 6.71973 14.9267C6.71973 14.2092 7.04387 13.5635 7.25197 13.1951L7.25254 13.194L7.25312 13.193C7.49702 12.7632 7.85383 12.4109 8.31573 12.1973C8.77328 11.9857 9.26466 11.9419 9.73464 12.0113L9.76282 12.0154L9.79076 12.021C10.7964 12.2213 11.5285 12.9904 11.7483 13.9755L11.7549 14.0053L11.7599 14.0354C11.7699 14.095 11.7792 14.1569 11.7869 14.2072C11.7888 14.2201 11.7906 14.2322 11.7923 14.2433C11.8016 14.3043 11.809 14.3496 11.8166 14.3896C11.8316 14.4673 11.8423 14.4933 11.8441 14.4973C12.1619 15.1897 13.0249 15.5663 13.7389 15.3373L13.7511 15.3334L13.7634 15.3298C13.8796 15.2954 14.0703 15.1781 14.2411 14.9534C14.4055 14.7371 14.4841 14.5093 14.4911 14.3352C14.4895 13.9422 14.4275 13.7118 14.3564 13.5781C14.3017 13.4751 14.2126 13.3695 13.9776 13.279L13.9714 13.2766L13.9652 13.2741C13.2492 12.9889 12.5268 12.7418 11.8107 12.5111L11.8009 12.5079L11.7911 12.5046C11.6538 12.4576 11.5089 12.4098 11.3588 12.3603C10.8388 12.189 10.2555 11.9967 9.70443 11.742C8.73866 11.3243 7.96936 10.6652 7.48974 9.79494C7.00887 8.9224 6.86245 7.91637 7.00904 6.879C7.4407 3.77304 9.81083 1.29178 12.9676 0.857199L12.9703 0.856829L12.973 0.856472C14.9382 0.59548 16.7763 1.2343 18.1278 2.80863C19.0389 3.81316 19.3891 5.12564 18.9339 6.51601L18.9306 6.52616L18.9271 6.53624C18.6569 7.31193 18.0886 7.99655 17.2247 8.20114C16.8277 8.29515 16.4406 8.27073 16.0802 8.16078C16.1773 8.20222 16.2745 8.24578 16.3713 8.29171L16.3753 8.29359L16.3792 8.2955C18.9547 9.54151 20.6113 11.6899 20.6387 14.7626C20.7127 19.0589 16.8429 22.2521 12.6467 21.5935L12.6395 21.5924L12.6324 21.5912C11.7004 21.4327 10.7383 21.1915 9.80181 20.65ZM15.6937 8.00618C15.4213 7.87064 15.1702 7.68758 14.9491 7.47414C14.5492 7.09634 14.3254 6.96076 14.0864 6.92644C13.7861 6.88936 13.5301 6.9385 13.3421 7.02016C13.2443 7.06264 13.1747 7.10905 13.1271 7.14894C13.1871 7.18753 13.2782 7.23573 13.4134 7.28646C13.7007 7.38143 13.972 7.46119 14.2611 7.54617C14.4373 7.59798 14.6202 7.65173 14.8173 7.71205C15.1002 7.79865 15.3952 7.89404 15.6937 8.00618Z" fill="#040065" fill-opacity="0.4" style="mix-blend-mode:multiply"/>
</svg>
