<svg width="73" height="73" viewBox="0 0 73 73" fill="none" xmlns="http://www.w3.org/2000/svg">
<mask id="mask0_26486_99262" style="mask-type:alpha" maskUnits="userSpaceOnUse" x="36" y="0" width="37" height="72">
<rect x="36.3828" y="0.5" width="36.1167" height="71.1692" fill="#D9D9D9"/>
</mask>
<g mask="url(#mask0_26486_99262)">
<path d="M54.1733 35.6046V56.5235H19.1074V35.6046C19.1074 25.9239 26.9576 18.0762 36.6416 18.0762C41.651 18.0762 46.1698 20.1772 49.3649 23.5471C52.3462 26.6859 54.1741 30.9316 54.1741 35.6046H54.1733Z" fill="#E11E27"/>
<path d="M38.5468 34.8516H34.7324V55.5205H38.5468V34.8516Z" fill="#C10C1A"/>
<path d="M38.5547 42.1823L49.3342 45.1823V35.0889L38.5547 37.8483V42.1823Z" fill="#C10C1A"/>
<g style="mix-blend-mode:multiply" opacity="0.2">
<path d="M54.1763 35.6063V56.5252H27.3848C34.5347 54.1253 48.5025 46.5105 49.3679 23.5488C52.3492 26.6876 54.1771 30.9333 54.1771 35.6063H54.1763Z" fill="#3D3A3C"/>
</g>
<path d="M62.1455 69.7244H11.1426C11.1426 66.3682 12.4961 63.3288 14.6852 61.1284C15.6401 60.1687 16.7559 59.3673 17.9868 58.7697C19.5754 58.0017 21.3565 57.5693 23.2372 57.5693H50.05C51.9325 57.5693 53.7136 58.0017 55.3005 58.7714C59.3508 60.7355 62.1455 64.9025 62.1455 69.7244Z" fill="#433A3B"/>
<path d="M55.2981 54.2656H17.9844V58.7888H55.2981V54.2656Z" fill="#ABA1A2"/>
<g style="mix-blend-mode:multiply" opacity="0.2">
<path d="M62.1379 69.7221H32.8242C37.964 64.7752 34.0218 58.7888 34.0218 58.7888C34.5236 58.4138 34.8421 57.9968 35.0295 57.567C35.5449 56.3829 35.0585 55.0927 34.5994 54.2656H55.2929V58.7691C59.3432 60.7332 62.1379 64.9002 62.1379 69.7221Z" fill="#3D3A3C"/>
</g>
<path d="M35.7995 15.6942L33.7305 3.25488H37.8676L35.7995 15.6942Z" fill="#FF5757"/>
<path d="M48.5312 18.9377L52.9282 7.12598L56.5109 9.20477L48.5312 18.9377Z" fill="#FF5757"/>
</g>
<mask id="mask1_26486_99262" style="mask-type:alpha" maskUnits="userSpaceOnUse" x="0" y="1" width="37" height="72">
<rect x="0.5" y="1.33105" width="36.1167" height="71.1692" fill="#D9D9D9"/>
</mask>
<g mask="url(#mask1_26486_99262)">
<path d="M54.5639 35.6193V56.5381H19.498V35.6193C19.498 25.9385 27.3482 18.0908 37.0323 18.0908C42.0417 18.0908 46.5604 20.1919 49.7555 23.5618C52.7368 26.7005 54.5639 30.9463 54.5639 35.6193Z" fill="#0C6CB0"/>
<path d="M38.9393 34.8613H35.125V55.5302H38.9393V34.8613Z" fill="#045689"/>
<path d="M35.1291 42.1911L24.3496 45.1911V35.0977L35.1291 37.8571V42.1911Z" fill="#045689"/>
<g style="mix-blend-mode:multiply" opacity="0.2">
<path d="M54.5689 35.621V56.5398H27.7773C34.9273 54.14 48.8951 46.5252 49.7605 23.5635C52.7418 26.7022 54.5697 30.948 54.5697 35.621H54.5689Z" fill="#3D3A3C"/>
</g>
<path d="M62.5381 69.7391H11.5352C11.5352 66.3829 12.8887 63.3435 15.0778 61.1431C16.0326 60.1833 17.1485 59.382 18.3793 58.7843C19.9679 58.0164 21.749 57.584 23.6298 57.584H50.4426C52.3251 57.584 54.1062 58.0164 55.6931 58.7861C59.7434 60.7501 62.5381 64.9171 62.5381 69.7391Z" fill="#433A3B"/>
<path d="M55.6907 54.2803H18.377V58.8034H55.6907V54.2803Z" fill="#ABA1A2"/>
<g style="mix-blend-mode:multiply" opacity="0.2">
<path d="M62.5364 69.7368H33.2227C38.3624 64.7898 34.4203 58.8034 34.4203 58.8034C34.922 58.4284 35.2406 58.0115 35.428 57.5817C35.9433 56.3976 35.4569 55.1073 34.9978 54.2803H55.6913V58.7837C59.7416 60.7478 62.5364 64.9148 62.5364 69.7368Z" fill="#3D3A3C"/>
</g>
<path opacity="0.5" d="M30.9924 28.6223C33.5802 26.6565 34.6692 23.7214 33.4249 22.0665C32.1806 20.4115 29.0741 20.6635 26.4863 22.6292C23.8986 24.5949 22.8095 27.5301 24.0538 29.185C25.2981 30.84 28.4047 30.588 30.9924 28.6223Z" fill="white"/>
<path d="M35.9197 15.7167L33.8516 3.27734H37.9887L35.9197 15.7167Z" fill="#FF5757"/>
<path d="M24.9202 18.9377L16.9414 9.20477L20.5241 7.12598L24.9202 18.9377Z" fill="#FF5757"/>
<path d="M16.0413 27.8098L4.28906 23.3911L6.35807 19.79L16.0413 27.8098Z" fill="#FF5757"/>
<path d="M15.7976 40.1578L3.42188 42.2366V38.0781L15.7976 40.1578Z" fill="#FF5757"/>
</g>
</svg>
