<svg width="44" height="40" viewBox="0 0 44 40" fill="none" xmlns="http://www.w3.org/2000/svg">
<g clip-path="url(#clip0_26486_99488)">
<path d="M6.6709 3.0183L7.54287 4.54827L10.0259 7.31223L16.7335 8.12047L20.6084 1.86855L20.739 -0.00292969C20.739 -0.00292969 12.4203 0.0426052 6.6709 3.0183Z" fill="#6F4C28"/>
<path d="M7.0166 3.22967L7.84427 4.69817L10.2061 7.34829L16.585 8.12238L20.271 2.13001L20.3946 0.335938C20.3946 0.335938 12.4839 0.376919 7.0166 3.22967Z" fill="#463113"/>
<g style="mix-blend-mode:multiply" opacity="0.13">
<path d="M17.0623 1.56641C15.7171 2.12193 14.8101 3.55627 14.9057 4.98151C14.9454 5.5598 15.0969 6.24283 14.6656 6.64125C14.1853 7.08294 13.4159 6.79607 12.8051 6.55018C12.1336 6.27925 11.4272 6.08801 10.779 5.76699C10.3617 5.5598 9.12835 4.84036 9.41746 4.28938C9.54802 4.04122 10.3431 3.77029 10.5948 3.63824C11.0005 3.4265 11.4109 3.22387 11.8282 3.0349C13.4789 2.2813 15.2368 1.71212 17.0623 1.56641Z" fill="#553318"/>
</g>
<g style="mix-blend-mode:multiply" opacity="0.13">
<path d="M13.5022 4.16475C13.6235 4.12604 13.7633 4.08962 13.8753 4.15109C13.9569 4.19435 14.0058 4.28086 14.0501 4.36282C14.3276 4.88875 14.5864 5.42606 14.8218 5.97248C14.9198 6.1956 15.0083 6.47108 14.8591 6.66461C14.7519 6.80576 14.556 6.84675 14.3765 6.85585C13.8193 6.87862 13.2831 6.66233 12.7678 6.45059C12.2036 6.21609 11.0192 5.95654 10.6602 5.50347C11.3806 4.85005 12.5836 4.46528 13.5045 4.16703L13.5022 4.16475Z" fill="#553318"/>
</g>
<g style="mix-blend-mode:multiply" opacity="0.13">
<path d="M14.0784 5.17191C14.146 5.15142 14.23 5.13321 14.2836 5.17874C14.3069 5.19924 14.3209 5.22656 14.3326 5.25388C14.554 5.74338 14.6869 6.27386 14.7219 6.80889C14.7242 6.85215 14.7242 6.90224 14.6963 6.93639C14.6636 6.97281 14.6077 6.97509 14.5587 6.97509C14.0947 6.97509 13.6168 6.97509 13.1925 6.79295C13.0316 6.72465 12.8824 6.63358 12.7355 6.54251C12.5163 6.40591 12.2645 6.28069 12.0967 6.09855C12.6166 5.64775 13.4256 5.37682 14.0808 5.17191H14.0784Z" fill="#553318"/>
</g>
<path d="M25.4114 10.1107C25.6749 10.0788 26.5305 10.9736 26.7404 11.1511C30.6456 14.457 33.3384 19.0378 34.5251 23.9327C35.1197 26.3825 35.3412 28.9211 35.143 31.4323C34.9984 33.2765 34.9192 37.5613 32.3056 37.5954C30.8251 37.6159 30.4777 36.0427 28.9226 36.7735C27.9667 37.2221 27.2626 38.0622 26.3184 38.5335C24.7983 39.2939 23.0963 39.69 21.406 39.8676C16.9389 40.3389 12.3389 39.5102 8.33808 37.5158L8.67614 37.3427C7.22597 38.3308 5.57296 38.8499 3.84534 38.4629C2.21098 38.0963 1.2201 37.1538 2.08741 35.5532C2.44412 34.8952 2.9314 34.2828 3.08061 33.5542L3.1389 33.4404C1.21311 30.1642 1.18746 26.0797 2.21331 22.4369C3.23915 18.7942 5.22323 15.4906 7.184 12.2326L25.4091 10.1084L25.4114 10.1107Z" fill="#594021"/>
<path d="M18.9514 39.6848C15.333 39.6848 11.7309 38.847 8.52977 37.2578L8.36424 37.1758L8.20803 37.2737C7.14022 37.9408 6.06308 38.28 5.00459 38.28C4.64088 38.28 4.27717 38.2391 3.92046 38.1594C3.0275 37.959 2.41433 37.5902 2.19284 37.1189C2.01331 36.7341 2.07393 36.2583 2.37469 35.7028C2.47261 35.5229 2.57986 35.3476 2.68711 35.17C2.97155 34.7033 3.26531 34.2206 3.38888 33.6605L3.50779 33.4329L3.42152 33.2849C1.71022 30.3729 1.39314 26.5503 2.52857 22.5227C3.53576 18.946 5.48487 15.6834 7.38502 12.5301C9.11964 12.3275 24.5213 10.5334 25.4096 10.4287C25.6008 10.5107 26.123 11.007 26.2979 11.1755C26.3982 11.2711 26.4821 11.3508 26.5311 11.3918C30.2824 14.5678 33.0102 19.0484 34.2132 24.0072C34.8101 26.4683 35.0153 28.9591 34.8241 31.4111C34.8124 31.5523 34.8031 31.7071 34.7915 31.8733C34.6632 33.7539 34.4207 37.2555 32.3038 37.2851C31.7582 37.2851 31.4015 37.0461 31.0215 36.7911C30.6391 36.5338 30.2428 36.2697 29.6925 36.2697C29.4058 36.2697 29.1073 36.3425 28.7856 36.4951C28.261 36.741 27.8134 37.0939 27.3797 37.4331C26.981 37.7473 26.6033 38.0433 26.1743 38.2573C24.8384 38.9266 23.225 39.3638 21.3738 39.5596C20.5765 39.6438 19.7605 39.6871 18.9491 39.6871L18.9514 39.6848Z" fill="#6F4C28"/>
<path d="M2.52917 22.5231C1.46602 26.2911 1.67819 29.8815 3.10971 32.7115C3.15634 32.5157 3.15634 32.288 3.12603 32.0968C2.31701 27.072 3.10038 20.6676 6.4507 16.6423C6.55795 16.5148 6.68385 16.3759 6.85172 16.36C7.19444 16.3304 7.32967 16.7789 7.34599 17.1136C7.36697 17.578 7.38096 18.0698 7.15248 18.4796C7.86591 16.6901 8.57934 14.9029 9.29277 13.1133C9.39535 12.8538 9.49094 12.5305 9.30209 12.321C9.17153 12.1731 8.95237 12.1457 8.75186 12.1275C8.37417 12.0934 7.98015 12.0615 7.6211 12.1844C6.93798 12.4189 6.77478 13.53 6.44371 14.1037C5.92612 15.003 5.39921 15.8932 4.91427 16.8085C3.94437 18.6367 3.08872 20.5332 2.52684 22.5231H2.52917Z" fill="#7E5730"/>
<path d="M27.8716 37.0552C31.124 33.228 31.3268 26.3545 30.1215 19.9614C29.2961 15.5741 27.3773 12.578 26.1067 10.9933C25.8782 10.7793 25.5518 10.4879 25.4096 10.4287C25.1927 10.4538 24.0993 10.5813 22.5488 10.7611C21.8727 10.9774 21.0054 11.2142 19.8933 11.4669C17.8276 11.9359 15.3423 11.9587 13.2533 11.8448C11.6935 12.027 10.2643 11.7993 9.57889 13.393C9.07062 14.5747 8.67661 15.8041 8.40616 17.0608C8.67194 15.8269 9.84234 14.2422 10.6397 13.2678C11.127 12.6713 12.1109 12.3548 12.6471 13.1016C12.9549 13.5319 12.9782 14.0897 12.9922 14.6156C12.9992 14.1876 13.0061 13.7459 13.1647 13.3475C13.3465 12.8899 13.8851 12.7419 14.3164 12.6144C15.27 12.3321 15.5288 12.4254 16.0604 13.0925C17.0559 14.3447 17.5712 16.4143 17.9745 17.9215C18.0608 17.0495 17.6015 16.2276 17.3543 15.3852C17.2214 14.9344 17.1468 14.4699 17.0746 14.0055C16.7738 12.1044 18.7089 12.6189 19.6299 13.5C20.236 14.0806 20.6417 15.0004 20.9774 15.7426C22.318 18.7047 22.5908 22.0765 21.9124 25.2343C20.5438 31.6046 12.0852 37.1895 9.1056 35.6163C6.12598 34.043 4.27246 28.8521 4.27246 28.8521C4.27246 28.8521 4.51493 30.6621 5.40089 32.784C5.87884 33.9292 7.36399 35.8052 8.65562 37.317C11.8264 38.8652 15.3842 39.6871 18.9561 39.6848C19.7651 39.6848 20.5811 39.6415 21.3808 39.5573C23.2296 39.3615 24.8453 38.9244 26.1813 38.255C26.6103 38.041 26.988 37.745 27.3866 37.4308C27.5475 37.3056 27.7107 37.1781 27.8786 37.0552H27.8716Z" fill="#5F401F"/>
<path d="M22.1143 13.6243C22.2659 14.5715 22.5876 15.4935 23.0609 16.3359C23.322 16.7981 23.6158 17.2307 24.0238 17.5836C24.0914 17.3832 24.1614 17.1829 24.215 16.9802C24.5437 15.7599 24.4272 14.5214 24.2267 13.2965C24.1917 13.0802 24.0215 12.5748 24.3945 12.5383C24.651 12.5133 24.9074 12.6317 25.094 12.807C25.9123 13.5742 26.255 15.1657 26.5418 16.2016C26.8029 17.1442 26.9615 18.0002 27.0314 18.9792C27.0804 19.6691 27.2366 20.3567 27.2809 21.0442C27.3159 21.6089 27.2343 22.1052 27.4837 22.6584C27.5024 22.6994 27.5257 22.7427 27.5677 22.7586C27.6096 22.7745 27.6563 22.7586 27.6982 22.7427C28.1552 22.54 28.337 22.0073 28.4443 21.5269C28.5422 21.0943 28.6191 20.6412 28.5119 20.2087C28.4303 19.8763 28.2438 19.5757 28.1272 19.2524C27.8847 18.5717 27.9757 17.8454 28.006 17.1419C28.0386 16.3473 27.8311 15.8487 27.6143 15.1088C27.2809 13.9613 26.8379 12.8548 26.3063 11.7802C26.1525 11.4683 25.9869 11.1495 25.7188 10.9219C25.3108 10.5735 24.5997 10.6304 24.0868 10.6282C23.3337 10.6259 22.59 10.783 21.8556 10.9378C20.93 11.1313 20.1116 11.4022 19.1767 11.4842C18.0576 11.5821 16.9595 11.8644 15.8287 11.9418C13.4996 12.1012 11.1611 11.9737 8.82963 11.8986C8.67809 11.894 8.51722 11.8917 8.39365 11.9783C8.30039 12.0443 8.2491 12.149 8.1978 12.2515C7.95999 12.7432 7.72218 13.235 7.48438 13.7291C7.64058 13.4399 7.81078 13.1348 8.09755 12.9618C8.39365 12.7819 8.76202 12.7751 9.11174 12.7728C10.3661 12.766 11.6204 12.7592 12.8747 12.7546C12.8794 13.3602 12.912 13.9658 12.9703 14.5715C12.9913 14.0911 13.0496 13.6107 13.1405 13.1394C13.1638 13.0164 13.1941 12.8844 13.2851 12.7956C13.348 12.7341 13.4366 12.7 13.5206 12.6704C14.255 12.4199 15.05 12.4222 15.8264 12.4291C15.936 12.4291 16.0525 12.4313 16.1435 12.4905C16.2157 12.5338 16.2624 12.6066 16.309 12.6749C16.5631 13.0665 16.7753 13.4832 16.9455 13.9158C16.9665 13.4581 16.9105 12.996 16.7799 12.5543C17.561 12.3038 18.2977 12.2287 19.1184 12.149C19.4448 12.1171 19.7852 12.0875 20.093 12.1968C20.4007 12.3084 20.6642 12.6066 20.6152 12.9231C20.5732 12.6271 20.5313 12.3312 20.4893 12.0352C20.8437 12.0602 21.2051 12.0921 21.5222 12.2446C22.1726 12.5611 22.0164 13.0506 22.1074 13.6243H22.1143Z" fill="#553318"/>
<path d="M27.6384 18.8159C27.6547 19.3737 27.6687 19.9451 27.4962 20.4801C27.2934 20.3208 27.1815 20.0794 27.1068 19.8358C26.897 19.1437 26.9646 18.3992 27.1068 17.6889C27.2304 17.0696 27.3656 16.4298 27.5312 15.8242C27.7317 16.7577 27.6104 17.8596 27.6361 18.8136L27.6384 18.8159Z" fill="#351B00"/>
<path d="M23.8241 11.9484C24.4769 12.0804 25.1297 12.2125 25.7825 12.3468C25.4445 11.8004 25.0644 11.279 24.6424 10.7895C24.5911 10.7303 24.5375 10.6688 24.4629 10.6347C24.372 10.5914 24.2647 10.5983 24.1645 10.6074C23.6795 10.6438 23.1923 10.6802 22.7143 10.7736C22.3506 10.8441 21.9939 10.9466 21.6395 11.0468C21.1732 11.1811 20.6906 11.2904 20.2383 11.4566C20.5251 11.707 21.4483 11.5636 21.8493 11.6069C22.5138 11.682 23.1713 11.814 23.8264 11.9484H23.8241Z" fill="#351B00"/>
<path d="M0.34375 7.03437C0.348413 7.14821 0.402037 7.25977 0.476644 7.34629C0.980241 7.93141 1.92215 8.25698 2.61693 8.56889C3.75236 9.07661 4.92276 9.51374 6.10481 9.90762C10.8074 11.4808 16.9485 11.0983 16.9485 11.0983C17.8461 11.0983 18.858 10.7637 19.7369 10.6089C20.3827 10.495 21.0285 10.363 21.6767 10.2673C21.9588 10.2264 22.2666 10.2628 22.516 10.1216C22.8797 9.91444 23.1175 9.38624 23.325 9.04701C24.1574 7.67641 25.2275 6.46063 26.2907 5.25396C26.4562 5.06499 26.6264 4.87375 26.8432 4.7417C27.3771 4.4184 29.0115 4.60509 28.9322 3.68984C28.9043 3.36882 28.5778 3.16164 28.2748 3.03187C27.5683 2.73134 26.771 2.45813 26.0156 2.30559C25.6658 2.23501 23.7797 1.82975 23.5395 2.13483C23.7843 1.82292 24.0618 1.53833 24.3089 1.23097C24.3159 1.22186 24.5024 0.975974 23.2644 0.932716C22.0008 0.889458 18.2564 0.889458 15.0763 2.33519C14.5074 2.59473 13.4769 2.95674 13.1155 3.49405C12.6469 4.18845 14.0108 5.96203 14.3372 6.58813C14.3372 6.58813 12.3765 5.3974 11.5931 5.22664C10.8097 5.05589 10.3737 5.09915 10.3737 5.09915C10.1919 5.11736 10.1289 3.42347 10.01 3.3028C9.64631 2.92714 8.16117 3.5669 7.71353 3.68529C7.17496 3.82873 6.62706 3.95395 6.09782 4.1247C4.24896 4.72348 2.25322 5.44066 0.670156 6.5722C0.539593 6.66554 0.402037 6.76799 0.357739 6.92054C0.346081 6.95696 0.34375 6.99567 0.34375 7.0321L0.34375 7.03437Z" fill="#6F4C28"/>
<path d="M17.8149 4.93663C17.8149 4.93663 17.2391 2.75552 17.1295 2.40262C17.0222 2.04973 17.0572 1.87442 17.0572 1.87442C17.0572 1.87442 18.8221 1.38264 20.7316 1.24148C22.6411 1.10033 23.7579 1.27564 23.7579 1.27564C23.7579 1.27564 22.5338 2.78739 22.2447 4.12611L21.9556 5.46256C21.9556 5.46256 20.4425 7.92599 20.2979 8.90954C20.1534 9.89536 20.1907 10.7378 20.1184 10.633C20.0462 10.5283 17.7776 11.0542 17.7776 11.0542C17.7776 11.0542 16.5886 10.8425 17.8126 4.93208L17.8149 4.93663Z" fill="#5F401F"/>
<path d="M3.55633 5.42703C2.78694 5.75488 1.88933 6.14192 1.75643 6.21023C1.55126 6.31723 1.34609 6.43107 1.20154 6.60638C1.05699 6.78169 0.982384 7.03213 1.07797 7.23703C1.15958 7.41462 1.34376 7.5239 1.52562 7.60814C2.63073 8.12268 3.98065 8.10902 5.17903 8.19099C5.94142 8.24335 6.73878 8.35491 7.50584 8.32987C7.32398 8.33442 6.43569 7.41007 6.25384 7.23476C5.57538 6.58133 5.13007 5.75943 4.69175 4.95119C4.69175 4.94891 4.16484 5.16976 3.55866 5.42703H3.55633Z" fill="#5F401F"/>
<path d="M8.8252 5.86816C8.8252 5.86816 8.88581 6.3736 9.28683 7.47782C9.68784 8.58203 9.97927 8.97136 9.97927 8.97136C9.97927 8.97136 12.1662 9.07836 12.1662 8.97136C12.1662 8.86435 11.6206 6.08901 11.6206 6.08901L8.82753 5.86816H8.8252Z" fill="#7E5730"/>
<path d="M16.2352 3.71314C16.2352 3.71314 15.6547 3.79965 15.0322 3.84291C14.4073 3.88617 13.3162 3.90894 13.2043 3.69037C13.153 3.59019 13.2486 3.4035 13.3675 3.23047C13.2696 3.31471 13.1787 3.40122 13.1157 3.49457C12.6564 4.17532 13.955 5.89198 14.3141 6.54768C14.5379 6.64785 15.0019 6.82088 15.6127 6.86642C16.4824 6.93244 16.9277 6.82316 16.9277 6.82316L16.8391 5.86465L16.2376 3.71086L16.2352 3.71314Z" fill="#7E5730"/>
<path d="M25.5357 4.81001C24.3583 4.96027 23.2322 5.19705 22.2134 6.03261C20.8075 7.18464 20.3109 8.88309 19.9658 10.5656C20.5347 10.4631 21.1059 10.3493 21.6795 10.2673C21.9616 10.2264 22.2693 10.2628 22.5188 10.1216C22.8825 9.91445 23.1203 9.38625 23.3278 9.04701C24.1601 7.67642 25.2303 6.46064 26.2911 5.25397C26.4566 5.065 26.6268 4.87375 26.8437 4.7417C26.9975 4.64836 27.24 4.59827 27.5058 4.55273C26.839 4.66885 26.1792 4.72577 25.5357 4.81001Z" fill="#503516"/>
<path d="M17.9954 8.58924C18.0467 8.19536 18.1469 7.80604 18.2495 7.42355C18.3521 7.04333 18.5713 6.66767 18.7321 6.30567C18.7811 6.19411 18.8604 6.0188 18.7788 5.90269C18.6902 5.77747 18.457 5.80251 18.3241 5.77746C18.1702 5.74787 18.0234 5.67729 17.8672 5.67501C18.0047 5.70916 18.1376 5.75242 18.2682 5.80706C18.3171 5.82755 18.3638 5.85032 18.4011 5.88675C18.4594 5.94594 18.478 6.03701 18.457 6.11898C18.4104 6.31477 18.1376 6.44 17.9767 6.5379C17.7692 6.66539 17.5454 6.77012 17.3169 6.86119C16.5662 7.15717 15.7082 7.15034 14.9342 6.94999C14.0599 6.72459 13.2672 6.28062 12.5118 5.80479C11.8217 5.36993 10.931 5.22649 10.115 5.28797C9.76997 5.31529 8.79075 5.35855 8.82572 5.86626C8.85137 6.23054 9.42724 6.34665 9.70935 6.41267C10.2036 6.52651 10.7002 6.6153 11.1945 6.73825C11.3181 6.76785 11.444 6.802 11.5419 6.87713C11.8077 7.08431 11.5908 7.32337 11.3763 7.45542C10.8984 7.7514 10.2596 7.8584 9.71401 7.95175C8.3128 8.19081 6.88361 8.16804 5.4684 8.11567C4.66871 8.08608 3.86668 8.02688 3.07865 7.888C2.44915 7.77644 1.44429 7.66033 0.996645 7.15717C0.915044 7.0661 0.847431 6.96137 0.819454 6.84526C0.758835 6.56749 1.01996 6.38991 1.22979 6.2533C1.5562 6.04384 1.8826 5.83438 2.20901 5.62265C1.80567 5.83211 1.40465 6.04157 1.00131 6.25103C0.800802 6.35576 0.593301 6.46504 0.460407 6.64718C0.0454058 7.21409 0.868415 7.72863 1.29041 7.96086C1.65412 8.16121 2.04348 8.30464 2.42117 8.47768C3.61955 9.02409 4.85523 9.48855 6.1049 9.90519C7.66931 10.4288 9.39227 10.7339 10.994 10.9115C12.8195 10.9935 14.5961 11.0732 15.8971 11.1324C16.5569 11.121 16.9462 11.0959 16.9462 11.0959L17.9254 10.9252C17.8975 10.463 17.8672 9.52725 17.9907 8.58696L17.9954 8.58924Z" fill="#5F401F"/>
<path d="M17.443 1.85474C17.443 1.82514 17.443 1.79327 17.443 1.76367C16.2562 2.10974 15.1371 2.55598 14.0344 3.08646C13.9388 3.13199 13.8432 3.1798 13.7756 3.25949C13.3396 3.78314 14.7711 3.65336 14.953 3.6397C15.4332 3.601 15.9112 3.55546 16.3915 3.5031C16.4824 3.49399 16.8648 5.54989 16.979 5.64551C17.0373 5.69332 17.1189 5.70243 17.1958 5.70926L18.6647 5.82082C18.217 5.78667 17.9232 4.48893 17.8183 4.14286C17.5945 3.40065 17.4686 2.62883 17.4453 1.85474H17.443Z" fill="#463113"/>
<path d="M7.76046 37.2925C7.63922 37.1901 7.52964 37.0717 7.42006 36.9578C7.16593 36.6915 6.92812 36.4114 6.69031 36.1314C6.47582 35.8787 6.26599 35.6214 6.05149 35.3687C5.97688 35.2799 5.83466 35.0476 5.7111 35.0181C5.22382 34.8997 4.82281 35.7079 4.43345 35.9743C4.15367 36.1655 3.81794 36.3932 3.47055 36.4387C2.99727 36.5002 3.0369 35.931 3.13016 35.6123C3.19544 35.3869 3.30968 35.1797 3.40527 34.9657C3.59179 34.5468 3.7037 34.096 3.73401 33.6406C3.60578 34.0277 3.47522 34.417 3.26772 34.7699C3.11384 35.034 2.92033 35.2753 2.76878 35.5417C2.61957 35.8012 2.43538 36.145 2.4074 36.4433C2.38176 36.7028 2.41673 36.9647 2.52864 37.1855C2.61724 37.3585 2.75946 37.4974 2.91566 37.6181C3.56381 38.119 4.42879 38.2897 5.25413 38.2487C5.63649 38.2305 6.01419 38.1691 6.38955 38.0871C6.90248 37.9459 7.42006 37.7296 7.93299 37.4359C7.88869 37.3859 7.81408 37.3403 7.75813 37.2948L7.76046 37.2925Z" fill="#7E5730"/>
<path d="M4.85511 34.4192C4.86443 34.5103 4.86443 34.6059 4.92039 34.6788C4.98101 34.7607 5.10458 34.7903 5.19783 34.7448C5.29109 34.6992 5.34005 34.5854 5.30975 34.4875C5.28876 34.426 5.24213 34.3759 5.19783 34.3304L5.01598 34.1437C4.94604 34.0709 4.87143 33.9821 4.7805 33.9502C4.72455 34.0822 4.84345 34.278 4.85744 34.4192H4.85511Z" fill="#7E5730"/>
<path d="M21.1593 21.3712C21.3015 23.484 21.0287 25.6241 20.3503 27.6345C21.2596 24.9343 21.9124 22.4936 21.5323 19.609C21.3528 18.252 20.9914 16.9179 20.4435 15.6566C19.7511 14.0583 19.448 13.5733 17.7297 13.3047C17.6318 14.5569 17.8999 15.8319 18.4898 16.9475C18.4315 16.606 18.4525 16.2508 18.5527 15.9161C20.0589 16.5354 20.7187 18.2611 20.9775 19.8389C21.0614 20.3466 21.1197 20.8589 21.1546 21.3712H21.1593Z" fill="#7E5730"/>
<path d="M13.6982 13.897C13.6982 14.7804 13.4464 15.6501 13.4277 16.5426C13.7192 16.5084 13.6819 15.9666 13.9733 15.921C14.0642 15.9074 14.1505 15.9529 14.2344 15.9893C14.4419 16.0827 14.6634 16.1419 14.8756 16.2238C15.9854 16.6496 16.7314 17.6559 17.4122 18.6121C16.475 17.2962 16.7641 15.0877 15.8501 13.6466C15.2066 12.6311 13.7005 12.383 13.7028 13.897H13.6982Z" fill="#7E5730"/>
<path d="M11.3387 13.2471C10.3572 13.7639 9.6414 14.7383 9.45489 15.813C9.43157 15.9405 9.41991 16.0771 9.47587 16.1954C9.56446 16.3799 9.79062 16.4527 9.99579 16.4778C10.6976 16.5688 11.3993 16.3412 12.0685 16.1158C12.206 16.0702 12.3482 16.0224 12.4578 15.9291C12.7073 15.7196 12.7236 15.3553 12.7236 15.0343L12.7189 14.2192C12.7189 13.962 12.7073 13.6819 12.5324 13.4907C12.2503 13.1833 11.7397 13.2926 11.3387 13.4292V13.2471Z" fill="#7E5730"/>
<path d="M12.7453 17.4598C14.1838 17.6852 15.5384 18.5936 16.0863 19.9118C16.4243 20.7246 16.4453 21.633 16.3614 22.5073C16.1212 25.0026 15.0511 27.4137 13.3491 29.2897C12.9085 29.7746 12.4095 30.2368 11.7894 30.4645C11.1692 30.6944 10.4021 30.6421 9.9242 30.1936C9.37863 29.679 9.30169 28.7683 8.65354 28.3813C7.81422 27.8804 6.7021 28.6294 5.75786 28.3585C3.7458 27.7848 4.43125 25.6469 4.65507 24.1989C5.26126 20.2806 8.27818 16.7585 12.7476 17.4598H12.7453Z" fill="#7E5730"/>
<path d="M11.1874 17.7628C7.70654 17.7833 5.45201 21.8222 5.35641 24.7569C5.34009 25.251 5.53361 25.9089 6.03954 25.893C6.18409 25.8885 6.31931 25.8202 6.44754 25.7519C7.17496 25.358 7.8744 24.8412 8.70207 24.741C9.3409 24.6636 9.98438 24.8434 10.6279 24.8298C11.8216 24.8025 12.908 24.0989 13.6844 23.211C14.4865 22.2935 15.039 21.0367 14.68 19.8847C14.2533 18.5095 12.6562 17.7537 11.1874 17.7628Z" fill="#906439"/>
<path d="M14.8543 22.7468C14.5233 23.1338 14.2505 23.5687 14.0523 24.0354C13.9451 24.2881 13.8565 24.5636 13.9054 24.8323C13.9544 25.1009 14.1782 25.3582 14.4603 25.3628C14.845 25.3673 15.0712 24.9552 15.2041 24.6023C15.4092 24.0605 15.6121 23.4662 15.4232 22.9198C15.3999 22.8515 15.3673 22.7809 15.3066 22.74C15.2227 22.683 15.0968 22.6967 15.0292 22.7741L14.8543 22.7468Z" fill="#906439"/>
<path d="M22.2739 35.4276C22.9337 35.0725 23.5213 34.5966 23.9992 33.95C25.2419 32.2652 26.1255 30.3323 26.5778 28.3037C25.918 30.157 25.3188 32.033 24.7756 33.9227C24.6124 34.4896 24.4795 35.1658 24.8712 35.6098C25.1556 35.9308 25.6336 36.0173 26.0672 35.99C26.748 35.9444 27.4102 35.6576 27.8998 35.1954C27.6969 36.1994 26.9159 37.0191 26.0066 37.529C23.5726 38.8951 18.7697 40.1792 16.5712 37.7727C16.4592 37.652 16.3543 37.5199 16.2144 37.4312C15.9766 37.2809 15.6735 37.2718 15.3914 37.3082C14.1185 37.4676 11.8802 38.779 11.1901 36.9781C11.1202 36.7937 11.1015 36.5569 11.2531 36.4226C11.3463 36.3406 11.4769 36.3201 11.6005 36.3019C13.9179 35.9672 16.1538 34.7514 18.0143 33.4013C17.2846 34.1048 16.5572 34.8106 15.8274 35.5141C15.7505 35.5893 15.6689 35.6712 15.6549 35.7782C15.6432 35.8693 15.6875 35.9558 15.7295 36.0355C15.9323 36.4134 16.2424 36.8142 16.6807 36.8301C18.5039 36.9029 20.6676 36.2882 22.2693 35.4253L22.2739 35.4276Z" fill="#553318"/>
<path d="M32.1071 36.6249C32.205 36.6978 32.3146 36.7706 32.4358 36.7797C32.634 36.7957 32.8042 36.6545 32.9371 36.5111C33.802 35.589 34.1518 34.3186 34.3616 33.0846C34.4991 32.2786 34.5877 31.4408 34.3639 30.653C34.2893 30.3889 34.0282 30.077 33.7904 30.2227C33.7111 30.2705 33.6668 30.357 33.6295 30.4413C33.2565 31.2632 33.0793 32.1602 32.6666 32.9639C31.9066 34.4483 30.3585 35.3385 32.1024 36.6249H32.1071Z" fill="#7E5730"/>
<g style="mix-blend-mode:overlay" opacity="0.2">
<path d="M8.41312 30.3938C8.46908 30.3551 8.52736 30.3164 8.58332 30.2777C9.20582 29.8702 9.88894 29.5514 10.6047 29.3397C11.092 29.194 11.6142 29.0984 12.1108 29.2054C12.6098 29.3124 13.0784 29.6653 13.1903 30.1502C13.3418 30.8059 12.8266 31.5003 13.0434 32.1378C13.2859 32.855 14.2791 33.0143 15.0275 32.8254C16.6759 32.4087 18.0607 30.9357 18.9933 29.622C22.0266 25.3531 23.5444 20.2236 20.7419 15.4744C20.5298 15.1146 20.278 14.7504 19.8979 14.5637C19.5179 14.3793 18.9747 14.4498 18.7742 14.8164C18.6809 14.9871 18.6739 15.1875 18.6693 15.3787C18.6553 15.9866 18.6389 16.5968 18.625 17.2047C18.618 17.4597 18.611 17.7238 18.5014 17.956C18.3918 18.1882 18.1517 18.3818 17.8905 18.359C17.5688 18.3317 17.3683 18.0129 17.2214 17.7306C16.8018 16.9246 16.55 16.0754 16.1466 15.2786C15.9741 14.9393 15.7479 14.5614 15.3679 14.5022C14.8969 14.4271 14.5286 14.8801 14.3047 15.2922C13.99 15.8773 13.7405 16.4966 13.5587 17.1341C13.4794 17.4141 13.4071 17.7078 13.2136 17.9264C13.0201 18.145 12.6564 18.2543 12.4209 18.0744C12.2344 17.931 12.1994 17.6737 12.1831 17.4415C12.1085 16.4556 12.0852 15.463 12.1085 14.4749C11.873 14.2631 11.493 14.4316 11.2459 14.632C10.0778 15.5768 9.51124 17.0294 8.74419 18.3066C8.57399 18.5912 8.37815 18.8804 8.07506 19.0284C7.7743 19.1741 7.34065 19.1126 7.19376 18.8166C7.13081 18.6891 7.12848 18.5434 7.13081 18.4045C7.14947 17.5599 7.5225 16.7038 7.34531 15.8728C5.84851 17.0931 4.8926 18.8622 4.33072 20.6608C3.73619 22.5596 2.90386 32.5408 7.13548 31.1269C7.6041 30.9698 8.00511 30.6693 8.41079 30.3916L8.41312 30.3938Z" fill="white"/>
</g>
<g style="mix-blend-mode:overlay" opacity="0.2">
<path d="M10.5881 18.6095C8.29393 19.2493 6.72951 21.0434 6.11867 23.3201C6.01841 23.6912 6.04639 24.2285 6.43575 24.2923C6.62693 24.3241 6.80878 24.208 6.96266 24.0919C7.81131 23.4567 8.56205 22.6485 9.56924 22.3001C10.3619 22.0269 11.2339 22.0702 12.0499 21.8766C12.8683 21.6808 13.7099 21.1071 13.7402 20.2852C13.7566 19.864 13.5514 19.461 13.2879 19.1286C12.7004 18.3864 11.7865 18.3295 10.9075 18.5276C10.7979 18.5526 10.6907 18.5799 10.5858 18.6095H10.5881Z" fill="white"/>
</g>
<g style="mix-blend-mode:overlay" opacity="0.2">
<path d="M31.0928 16.6631C31.3026 17.0979 31.5008 17.5396 31.6826 17.9881C33.1165 21.5057 33.6924 25.3579 33.3473 29.1282C33.1585 31.1932 32.6922 33.2355 31.9414 35.1752C31.7129 35.7649 31.4588 36.3569 31.4238 36.9852C31.4238 37.0057 31.4238 37.0239 31.4238 37.0444C31.6756 37.1833 31.9508 37.2858 32.3028 37.2858C34.4221 37.2562 34.6623 33.7568 34.7905 31.874C34.8021 31.7078 34.8138 31.5529 34.8231 31.4118C35.0143 28.9597 34.8091 26.469 34.2123 24.0078C33.5758 21.385 32.508 18.8966 31.0928 16.6631Z" fill="white"/>
</g>
<path d="M4.0926 31.2245C4.37005 32.1352 4.80137 33.014 5.45418 33.8496C6.20724 34.8126 7.12351 35.6368 8.03745 36.4564C5.60806 32.9981 3.52839 28.7406 3.75687 24.4648C3.6333 26.7871 3.44212 29.0912 4.0926 31.2245Z" fill="#553318"/>
<path d="M16.7218 11.1096C16.6169 10.9115 16.3511 10.2922 16.3511 9.12882C16.3511 8.35701 16.4444 7.59886 16.533 7.05699C16.0014 7.12757 15.4488 7.08204 14.9336 6.94999C14.0593 6.72459 13.2666 6.28062 12.5112 5.80479C11.8211 5.36993 10.9304 5.22649 10.1144 5.28797C9.76938 5.31529 8.79016 5.35855 8.82513 5.86626C8.85078 6.23054 9.42665 6.34665 9.70876 6.41267C10.203 6.52651 10.6996 6.6153 11.1939 6.73825C11.3175 6.76785 11.4434 6.802 11.5413 6.87713C11.6789 6.98414 11.6858 7.10025 11.6322 7.20498C11.7092 7.67399 11.9959 9.30413 12.3107 10.0919C12.4855 10.529 12.6231 10.8091 12.7187 10.9866C13.9077 11.039 15.0129 11.0891 15.8988 11.1301C16.2649 11.1232 16.5423 11.1141 16.7218 11.105V11.1096Z" fill="#503516"/>
<path d="M18.3003 5.89849C18.27 5.80742 18.1697 5.76644 18.0695 5.74367C18.0532 5.73912 18.0345 5.73684 18.0182 5.73457C17.6638 5.67082 17.3047 5.6526 16.9457 5.62756C16.7242 5.61162 16.5004 5.59341 16.2789 5.5752C16.2276 5.89394 16.174 6.34473 16.167 6.89798C16.5494 6.89343 16.927 6.82968 17.2674 6.68169C17.5682 6.54964 17.855 6.39027 18.1208 6.2013C18.2257 6.12844 18.3376 6.01688 18.3003 5.89849Z" fill="#503516"/>
<path d="M24.3095 1.25377C24.3095 1.25377 24.2978 1.18774 24.1999 1.13082C24.1043 1.07618 23.9434 1.0352 23.7382 1.0056C23.3256 0.946409 22.731 0.976007 22.0153 1.03292C21.2995 1.08301 20.4672 1.1627 19.5812 1.26743C18.6953 1.37444 17.7557 1.53381 16.8441 1.7888C16.3848 1.90947 15.9395 2.0529 15.4988 2.21683C15.1305 2.35343 14.7667 2.49914 14.4077 2.65624C14.1209 2.78374 13.636 2.94538 13.5241 3.26868C13.3119 3.87885 14.923 3.68988 15.1981 3.65573C15.6037 3.60564 16.0164 3.53051 16.4244 3.50546C16.3218 3.6876 16.1656 3.73541 15.9605 3.75818C15.669 3.78778 15.3776 3.81737 15.0862 3.84925C14.7225 3.88568 14.3564 3.92438 13.9927 3.89478C13.7246 3.87202 13.0205 3.84014 12.9226 3.53278C12.8829 3.40529 12.9296 3.26185 13.0112 3.15484C13.2396 2.85659 13.7735 2.64258 14.1069 2.48093C14.5173 2.28285 14.9486 2.10299 15.3893 1.93224C15.8276 1.76148 16.2915 1.60211 16.7578 1.47461C17.6951 1.22645 18.6533 1.08074 19.5486 0.98739C20.4462 0.894044 21.2879 0.873553 22.006 0.850786C22.7241 0.825742 23.3326 0.859893 23.7476 0.946409C23.9551 0.98739 24.1136 1.05342 24.2069 1.11944C24.3025 1.18774 24.3095 1.25832 24.3071 1.25605L24.3095 1.25377Z" fill="#98693C"/>
<path d="M21.5898 6.1646C21.8859 5.86635 22.3009 5.71608 22.7043 5.58631C23.8887 5.20609 25.1057 4.96476 26.3344 4.76213C26.6748 4.70521 27.0198 4.64829 27.3276 4.50031C27.3835 4.47298 27.4418 4.43883 27.4582 4.37964C27.5328 4.08822 26.5839 4.24076 26.451 4.25214C25.973 4.29085 25.4974 4.35004 25.0264 4.43428C24.3293 4.55495 23.6439 4.7553 22.9981 5.03762C22.4082 5.29489 21.872 5.56127 21.5922 6.16688L21.5898 6.1646Z" fill="#98693C"/>
<path d="M27.6545 3.13056C27.123 2.95753 26.5774 2.81637 26.0318 2.67749C25.0829 2.43388 24.2249 2.50446 23.2644 2.57959C22.7794 3.36279 22.3341 4.34179 22.2129 5.40274C22.481 5.24793 22.7608 5.11132 23.0452 4.99749C24.6703 4.33951 26.3582 4.40781 28.0486 4.01166C29.0301 3.78171 28.0975 3.27627 27.6522 3.13056H27.6545Z" fill="#463113"/>
<g style="mix-blend-mode:multiply" opacity="0.13">
<path d="M18.7319 6.38551C18.564 6.77484 18.5034 7.20969 18.5594 7.63089C18.585 7.81531 18.6503 8.02021 18.8228 8.0999C18.9651 8.16592 19.1352 8.12039 19.2751 8.05209C19.5806 7.89955 19.8114 7.64 20.0119 7.36907C21.0401 5.99619 21.5064 4.24766 22.6977 3.00684C22.3643 3.51455 22.1825 4.11788 22.1848 4.72122C22.4599 4.33873 22.6698 3.90842 22.798 3.45763C22.6348 4.15887 22.4599 4.88514 22.0006 5.4475C21.7721 5.72754 21.483 5.95521 21.2196 6.20565C20.5155 6.87729 19.9886 7.75383 19.865 8.70779C19.8417 8.8831 19.893 9.12898 20.0748 9.12443C20.1611 9.12443 20.2287 9.06068 20.287 8.99921C20.5714 8.6964 20.7906 8.3344 20.9258 7.94508C20.7929 8.28431 20.674 8.70551 20.9165 8.981C21.11 9.19956 21.469 9.21322 21.7372 9.09256C22.0053 8.97189 22.2081 8.74422 22.4016 8.52565C22.1475 8.80341 22.0053 9.17452 22.0076 9.5479C22.0076 9.66629 22.0239 9.79151 21.975 9.90308C21.891 10.0966 21.6532 10.1695 21.4457 10.2173C20.329 10.4791 19.2029 10.7068 18.0698 10.8957C17.9532 10.9162 17.8203 10.9299 17.7294 10.8548C17.6688 10.8047 17.6454 10.725 17.6268 10.6498C17.4869 10.0192 17.6874 9.36804 17.8832 8.75105C18.212 7.71968 18.5431 6.68832 18.8718 5.65696L18.7272 6.38779L18.7319 6.38551Z" fill="#553318"/>
</g>
<g style="mix-blend-mode:multiply" opacity="0.13">
<path d="M17.5712 9.28801C17.8534 8.77119 18.0679 8.21795 18.2077 7.64648C18.1681 8.08817 18.1308 8.52758 18.0912 8.96927C18.0679 9.22199 18.0469 9.48153 18.1098 9.72742C18.1984 10.0689 18.4455 10.3535 18.723 10.5812C18.5551 10.7793 18.259 10.8089 17.9956 10.8248L16.7459 10.8954C16.6993 10.8977 16.648 10.8999 16.6107 10.8749C16.5594 10.843 16.5431 10.7816 16.5314 10.7224C16.4218 10.1987 16.3332 9.65001 16.3402 9.11498C16.4545 9.32444 16.4778 9.6614 16.7273 9.78206C17.1119 9.96876 17.415 9.5726 17.5712 9.28574V9.28801Z" fill="#553318"/>
</g>
<g style="mix-blend-mode:multiply" opacity="0.13">
<path d="M9.95586 10.1931C10.4571 10.0929 11.2195 9.81288 11.5576 9.41218C11.9213 8.98187 11.7931 8.0689 11.7348 7.5498C11.7931 8.07345 12.6067 8.80884 12.9914 9.14124C13.5044 9.58293 14.1152 9.91761 14.7727 10.1089C15.1294 10.2113 15.5934 10.2364 15.7892 9.92672C15.8638 9.80833 15.8801 9.66262 15.8918 9.52374C15.9384 9.02058 15.9874 8.51742 16.034 8.01654C15.9734 8.58572 15.9151 9.16629 16.0457 9.72409C16.1762 10.2819 16.5329 10.8215 17.0808 11.0264C16.6891 11.04 16.2998 11.0537 15.9081 11.0674C14.4976 11.1175 13.1383 11.1766 11.7464 10.99C11.392 10.9421 11.0423 10.8738 10.6926 10.8033C10.0375 10.6735 9.37999 10.5437 8.72485 10.4139C8.30052 10.3297 7.27467 10.3092 6.99023 9.9973C7.99743 10.1248 8.93235 10.3957 9.9582 10.1885L9.95586 10.1931Z" fill="#553318"/>
</g>
<g style="mix-blend-mode:multiply" opacity="0.13">
<path d="M2.44251 6.83217C4.36364 7.28296 6.36637 7.73375 8.29916 7.32394C8.43205 7.29662 8.57893 7.25336 8.64888 7.13725C8.68618 7.0735 8.69318 6.99609 8.70017 6.92324C8.73048 6.55896 8.76079 6.1924 8.78877 5.82812C8.88203 6.50204 9.02891 7.16912 9.22475 7.82255C7.92146 8.01835 6.61584 8.21642 5.29623 8.23008C3.97894 8.24374 2.64068 8.07071 1.43531 7.55161C1.05994 7.38997 0.460757 6.88453 0.964354 6.48155C1.2791 6.23111 2.05315 6.73882 2.44251 6.82989V6.83217Z" fill="#553318"/>
</g>
<g style="mix-blend-mode:multiply" opacity="0.13">
<path d="M10.4466 6.65947C10.4769 7.06473 10.5258 7.46771 10.5911 7.86842C10.7753 7.79328 10.9665 7.73409 11.1343 7.62708C11.2766 7.53601 11.3978 7.40624 11.4491 7.24914C11.5027 7.09205 11.4771 6.90536 11.3605 6.78469C11.2416 6.65947 11.0504 6.62304 10.8755 6.62076C10.7007 6.61849 10.5212 6.64581 10.3486 6.61621L10.4489 6.66175L10.4466 6.65947Z" fill="#553318"/>
</g>
<path d="M1.22937 6.25591C1.22937 6.25591 1.17342 6.28779 1.08249 6.36064C0.998556 6.43122 0.854005 6.55872 0.816702 6.74314C0.786393 6.92755 0.97291 7.10741 1.2317 7.23719C1.4905 7.37379 1.81224 7.46941 2.17595 7.56048C2.52334 7.64017 2.93134 7.69253 3.35334 7.74262C3.78 7.78133 4.2323 7.8132 4.70093 7.83142C5.16956 7.85418 5.65683 7.85418 6.1511 7.86101C6.64538 7.86557 7.14897 7.86101 7.65024 7.8428C8.1515 7.83597 8.65277 7.80637 9.14937 7.78133C9.63665 7.75173 10.1123 7.71758 10.5413 7.61285C10.7791 7.55593 11.1521 7.49218 11.1731 7.19848C11.2011 6.83876 10.814 6.8251 10.5389 6.75907C10.0074 6.63841 9.36154 6.46993 8.9442 6.10793C8.79033 5.9736 8.77401 5.72999 8.87193 5.55468C8.96985 5.37937 9.16103 5.26553 9.35921 5.21089C9.55738 5.15853 9.76488 5.15625 9.97238 5.15625C9.75556 5.16536 9.54106 5.23138 9.35687 5.34294C9.20766 5.43401 9.06777 5.57745 9.07477 5.7482C9.09109 6.28096 10.2405 6.35381 10.6112 6.40163C10.8024 6.42895 11.0076 6.45854 11.222 6.52002C11.3293 6.55189 11.4365 6.58376 11.5601 6.6589C11.672 6.73175 11.8189 6.83876 11.8585 7.06643C11.8865 7.26451 11.7863 7.43754 11.707 7.53316C11.665 7.59236 11.6184 7.647 11.5671 7.69026C11.5158 7.73807 11.4645 7.7836 11.4062 7.82003C11.1847 7.97713 10.9376 8.0682 10.6951 8.14333C10.2055 8.27993 9.6996 8.35279 9.19134 8.38466C8.69241 8.41654 8.18181 8.45297 7.66889 8.46663C6.64771 8.48484 5.62419 8.46663 4.66596 8.37783C4.18801 8.34141 3.72404 8.2731 3.28806 8.20025C2.84974 8.12056 2.4464 8.02949 2.06404 7.89744C1.70266 7.77222 1.36693 7.62423 1.10347 7.43526C0.970579 7.34192 0.851674 7.23719 0.767741 7.11424C0.683808 6.98902 0.65583 6.83193 0.695465 6.71126C0.786393 6.46993 0.968247 6.39252 1.06384 6.33105C1.16875 6.27413 1.22937 6.25364 1.22937 6.25364V6.25591Z" fill="#98693C"/>
<g style="mix-blend-mode:multiply" opacity="0.13">
<path d="M14.0249 5.29446C14.2697 5.45838 14.5425 5.57222 14.8176 5.66556C15.2466 5.81355 15.6919 5.91828 16.1396 5.9752C16.1769 5.97975 16.2165 5.98658 16.2398 6.01618C16.2585 6.03895 16.2608 6.07082 16.2655 6.09814C16.2911 6.33265 16.3098 6.59675 16.1699 6.77889C15.9787 7.02933 15.6196 6.98607 15.3235 6.92005C15.0158 6.85174 14.708 6.78344 14.4026 6.71514C14.2767 6.68782 14.1462 6.65822 14.0342 6.58537C13.9107 6.50568 13.8174 6.37591 13.7381 6.24613C13.2602 5.47204 13.027 4.48166 12.8965 3.57324C13.2182 4.2426 13.3814 4.86188 14.0249 5.2899V5.29446Z" fill="#553318"/>
</g>
<path d="M12.8223 5.87581C12.8223 5.87581 12.9482 5.93956 13.1673 6.03746C13.3865 6.13764 13.7036 6.26969 14.0836 6.40401C14.2748 6.46776 14.4823 6.53151 14.7038 6.58843C14.9229 6.64535 15.1584 6.68633 15.3985 6.71593C15.4545 6.72048 15.5268 6.73186 15.5711 6.73414L15.7692 6.74325C15.8998 6.74325 16.0047 6.74325 16.1353 6.73642C16.3871 6.72503 16.6412 6.68861 16.8883 6.62486C17.1378 6.57022 17.3826 6.49281 17.6111 6.39263C17.8326 6.29473 18.0751 6.17634 18.2056 6.06023C18.2383 6.03291 18.2966 5.97143 18.3315 5.93728C18.3502 5.91907 18.3642 5.90085 18.3642 5.90541C18.3735 5.89175 18.3362 5.95777 18.3642 6.03291C18.3688 6.04884 18.3782 6.06478 18.3898 6.07844C18.3945 6.08527 18.3968 6.08982 18.4038 6.09438C18.4201 6.10576 18.4131 6.09893 18.4131 6.09893C18.4178 6.09665 18.3875 6.08299 18.3758 6.07389C18.3339 6.0534 18.2849 6.03291 18.2336 6.01241C18.0214 5.93728 17.8116 5.8667 17.6158 5.80751C17.2357 5.69595 16.8977 5.63448 16.6599 5.60488C16.4221 5.57528 16.2798 5.57528 16.2798 5.57528C16.2798 5.57528 16.4104 5.52292 16.6575 5.47966C16.9023 5.43868 17.2591 5.4068 17.6927 5.45461C17.9025 5.47738 18.131 5.50926 18.3735 5.5639C18.4364 5.57983 18.5017 5.59577 18.5717 5.61854C18.6136 5.63675 18.6439 5.64358 18.6976 5.67546C18.7232 5.69139 18.7442 5.7005 18.7792 5.73693C18.7955 5.75287 18.8095 5.7688 18.8235 5.78474C18.8421 5.81206 18.8561 5.84166 18.8678 5.87126C18.9167 6.00331 18.8584 6.13536 18.8328 6.17179C18.8002 6.2287 18.7745 6.2583 18.7512 6.2879C18.6999 6.3471 18.6766 6.38125 18.6183 6.44272C18.4947 6.57022 18.3805 6.65218 18.2569 6.73414C18.1334 6.81383 18.0075 6.88441 17.8722 6.94588C17.6064 7.06882 17.3267 7.16672 17.0376 7.2373C16.7485 7.30333 16.45 7.33748 16.1586 7.34203C16.0164 7.35114 15.8508 7.33748 15.7156 7.32382L15.5174 7.29877C15.4312 7.28739 15.3752 7.27373 15.303 7.26007C14.7597 7.15078 14.2958 6.93905 13.9274 6.72959C13.5567 6.51785 13.2792 6.30156 13.0974 6.14219C12.9132 5.98054 12.8223 5.87581 12.8223 5.87581Z" fill="#98693C"/>
<g style="mix-blend-mode:multiply" opacity="0.13">
<path d="M11.4971 10.4284C11.6463 10.433 11.8049 10.4353 11.9377 10.367C12.2385 10.2053 12.2292 9.78639 12.1779 9.45626C12.3224 9.80005 12.6885 10.0004 13.0429 10.1325C13.663 10.367 14.3275 10.4762 14.9896 10.5332C15.5469 10.581 16.1437 10.581 16.617 10.2895C17.0903 9.99812 17.3468 9.4722 17.5776 8.97587C17.827 8.44084 18.0742 7.90808 18.3236 7.37305C18.1465 7.89442 17.9972 8.42718 17.876 8.96221C17.827 9.1785 17.7827 9.40845 17.855 9.62019C17.9972 10.0391 18.5615 10.1985 18.9881 10.055C19.4148 9.91161 19.7272 9.55644 19.9906 9.19899C20.3497 8.71405 20.6621 8.19723 20.9256 7.65536C20.844 7.965 20.7624 8.27236 20.6784 8.58199C20.6411 8.72543 20.6015 8.87569 20.6248 9.0214C20.6691 9.30144 20.9326 9.5109 21.2123 9.58604C21.4921 9.66117 21.7905 9.63157 22.0796 9.60425C22.3594 9.57693 22.7348 9.62019 22.7861 9.89112C22.8304 10.1256 22.5786 10.3009 22.3548 10.3988C21.3312 10.8496 20.2098 11.034 19.1024 11.2139C18.1744 11.3642 17.2465 11.5167 16.3139 11.6351C14.3601 11.8855 12.3061 11.9812 10.4922 11.2321C10.2241 11.1206 9.126 10.7335 9.65291 10.4034C9.99797 10.1871 11.0844 10.4148 11.4971 10.4284Z" fill="#553318"/>
</g>
<path d="M1.58203 6.01253C1.58203 6.01253 2.0833 5.75981 2.85501 5.41147C3.6244 5.06313 4.6689 4.63283 5.73438 4.25489C6.79986 3.87695 7.88632 3.55138 8.707 3.33737C9.52768 3.12108 10.0826 3.00041 10.0826 3.00041C10.1688 2.97992 10.2551 3.03456 10.2761 3.1188C10.2947 3.20304 10.2411 3.28728 10.1548 3.30777H10.1502C10.1502 3.30777 9.59762 3.41022 8.77461 3.59691C7.95161 3.78133 6.86048 4.06592 5.788 4.40516C4.71319 4.74439 3.65704 5.13599 2.876 5.45701C2.09495 5.77575 1.58203 6.01253 1.58203 6.01253Z" fill="#98693C"/>
<path d="M9.98242 3.17964L10.2342 5.15129L10.3741 5.1012L10.2785 3.11816L9.98242 3.17964Z" fill="#98693C"/>
<path d="M21.8777 5.51175C21.7961 5.54362 21.7145 5.57777 21.6492 5.63469C21.5583 5.71438 21.514 5.82821 21.472 5.9375C21.113 6.88234 20.7516 7.82947 20.3926 8.77431C20.9265 7.73384 21.507 6.35869 22.5002 5.61875C22.6355 5.51858 22.7963 5.38425 22.745 5.23171C22.372 5.1839 22.1878 5.3888 21.8801 5.51175H21.8777Z" fill="#98693C"/>
<path d="M7.18902 12.2351C7.18902 12.2351 4.92983 11.3973 6.62947 10.0358C12.2903 11.0558 15.3818 11.3108 19.1285 10.6323C22.8728 9.95154 23.4837 9.6123 23.4837 9.6123C23.4837 9.6123 25.0807 9.63507 25.4141 10.1132C25.7475 10.5913 21.3923 11.568 16.4286 12.1645C11.4649 12.761 7.35922 12.226 7.19136 12.2374L7.18902 12.2351Z" fill="#A37734"/>
<path d="M11.4579 12.191L10.854 12.1819C10.8657 12.0157 10.8797 11.8518 10.8913 11.6856C10.847 11.8176 10.8051 11.9497 10.7608 12.0817C10.7514 12.1136 10.7375 12.1478 10.7118 12.1683C10.6792 12.1933 10.6349 12.1933 10.5952 12.191C10.4926 12.1865 10.3924 12.1751 10.2921 12.1569C10.2618 12.1523 10.2269 12.1432 10.2082 12.1204C10.1849 12.0954 10.1872 12.0567 10.1896 12.0225C10.2059 11.7903 10.2478 11.5626 10.3178 11.3395C10.2152 11.5672 10.045 11.9383 9.77922 11.9633C9.45048 11.9952 9.07978 11.9315 8.74871 11.911C8.30573 11.8837 7.86275 11.8472 7.41977 11.8085C7.31019 11.7994 7.22626 11.7926 7.17263 11.788C6.90685 11.6788 6.303 11.3532 6.23771 10.9616C6.19575 10.7043 6.41024 10.4379 6.6364 10.2376C7.41511 10.3765 8.19382 10.5108 8.97253 10.6337C9.33391 10.6907 9.69295 10.7453 10.0543 10.7954C10.1896 10.8136 10.467 10.7977 10.5812 10.866C10.7048 10.9411 10.6209 11.2348 10.6069 11.3896C10.6162 11.2667 10.6768 11.0481 10.7771 10.9616C10.9053 10.8523 11.1058 10.932 11.269 10.9525C11.3949 10.9661 11.9172 10.9479 11.9871 11.0572C12.0268 11.1187 11.9288 11.3418 11.9195 11.4169C11.9009 11.5558 11.8985 11.6947 11.9148 11.8336C11.9661 11.6605 12.0198 11.4875 12.0734 11.3145C12.1573 11.0481 12.2576 11.0572 12.5164 11.0777C12.7705 11.1005 13.027 11.1141 13.2811 11.1346C13.5562 11.1574 13.5002 11.2985 13.5072 11.5376C13.5072 11.4534 13.5562 11.2644 13.6215 11.2052C13.7101 11.1232 13.8476 11.1642 13.9689 11.1688C14.2836 11.1801 14.6007 11.187 14.9154 11.187C16.3237 11.187 17.6526 11.064 19.0981 10.8022C22.1896 10.2399 23.1805 9.90518 23.4603 9.78906C23.9732 9.805 24.5677 9.89607 24.8731 10.0281C24.5211 10.1966 24.1294 10.2991 23.7517 10.3992C22.9474 10.6155 22.1313 10.7863 21.313 10.9434C20.7791 11.0458 20.2452 11.1392 19.7113 11.228C19.4175 11.2758 19.1214 11.3236 18.8253 11.3691C18.7694 11.3782 18.0536 11.5126 18.0536 11.5126C18.0186 11.4534 17.9953 11.3896 17.986 11.3213C18.007 11.4169 17.9394 11.5148 17.8531 11.5626C17.7668 11.6105 17.6642 11.6218 17.564 11.6309C16.7946 11.7084 16.0299 11.8154 15.2698 11.9497C15.2325 11.8267 15.2045 11.7015 15.1882 11.574C15.1836 11.7357 15.1626 11.9292 15.0157 12.0043C14.9621 12.0316 14.9015 12.0385 14.8408 12.043C14.2533 12.0954 13.6634 12.1159 13.0736 12.1068C13.0176 11.9816 12.985 11.8905 12.9943 11.7516C12.985 11.9246 12.8381 12.0681 12.6726 12.1295C12.507 12.191 12.3252 12.191 12.1457 12.1887C11.9172 12.1865 11.6887 12.1819 11.4602 12.1796L11.4579 12.191Z" fill="#B58948"/>
<path d="M23.1899 10.9435C22.9964 10.7568 22.7912 10.5792 22.642 10.3561C22.5604 10.2309 22.4951 10.0943 22.3972 9.98045C22.3902 9.97134 22.3785 9.96223 22.3692 9.95312C22.2014 9.99638 22.0102 10.0419 21.791 10.092C21.8353 10.2764 21.9752 10.5064 22.0405 10.6088C22.185 10.8319 22.3995 11.0255 22.663 11.0869C22.7166 11.1006 22.7726 11.1052 22.8285 11.1074C22.9614 11.0778 23.092 11.0482 23.2155 11.0186C23.2319 10.9959 23.2109 10.964 23.1899 10.9435Z" fill="#97602C"/>
<path d="M6.70127 10.4026C5.89691 10.7805 6.47512 11.7117 6.86914 11.2609C6.75023 11.3975 7.20487 11.7436 7.30745 11.7914C7.32144 11.4954 7.50096 11.2131 7.76908 11.072C7.65018 11.2313 7.56158 11.4294 7.60821 11.6207C7.64318 11.7618 7.83437 11.9872 7.99757 11.9736C8.09083 11.9644 8.17243 11.9121 8.24937 11.8597C8.41257 11.7504 8.57577 11.6412 8.73897 11.5319C8.76695 11.6662 8.79493 11.8005 8.82058 11.9348C8.76928 11.796 8.85788 11.6389 8.98611 11.5592C9.11201 11.4795 9.26822 11.459 9.41743 11.4431C9.60162 11.4203 9.78347 11.3998 9.96766 11.377C9.63659 11.2996 9.28454 11.3042 8.9558 11.3953C8.90684 11.2518 8.90451 11.097 8.94648 10.9513L8.53381 11.3998C8.4965 10.8967 8.79726 10.5233 8.11414 10.5119C7.81804 10.5073 7.24683 10.6417 7.16756 10.9923C7.21653 10.7714 7.26549 10.5506 7.31445 10.3275C7.05565 10.4777 6.84815 10.71 6.73391 10.9832C6.70826 10.7555 6.76422 10.5187 6.88779 10.3252C6.82018 10.3502 6.75723 10.3753 6.69894 10.4026H6.70127Z" fill="#C4A16E"/>
<g style="mix-blend-mode:overlay" opacity="0.2">
<path d="M9.5904 8.39971C9.82354 8.38605 10.059 8.36101 10.2619 8.254C10.6419 8.05137 10.7398 7.37518 10.9007 7.00862C11.1571 6.42123 11.4136 5.83383 11.6887 5.25554C11.6561 5.24643 11.6211 5.23505 11.5908 5.22822C10.8074 5.05746 10.3714 5.10072 10.3714 5.10072C10.1896 5.11893 10.1266 3.42504 10.0077 3.30437C9.64402 2.92871 8.15887 3.56847 7.71123 3.68686C7.17266 3.8303 6.62477 3.95552 6.09552 4.12627C5.25386 4.39948 4.38189 4.69774 3.53324 5.04835C3.49127 5.26464 3.4493 5.47866 3.40734 5.67901C3.23714 6.47131 3.17652 7.3046 3.05762 8.10829C5.19791 8.42248 7.37084 8.52038 9.53211 8.40426C9.55076 8.40426 9.56941 8.40426 9.58806 8.40199L9.5904 8.39971Z" fill="white"/>
</g>
<path d="M22.4717 14.2242C22.4717 14.6454 22.4763 15.0689 22.5579 15.4832C22.7211 16.3188 23.2038 17.0906 23.8915 17.6143C24.2949 15.3762 23.2434 13.0221 23.8636 10.8319C23.9032 10.6884 23.1035 10.9343 23.0102 11.0413C22.8517 11.2212 22.8191 11.4989 22.7584 11.7221C22.53 12.5485 22.4763 13.3704 22.4763 14.2242H22.4717Z" fill="#A37734"/>
<path d="M25.9272 13.2593C26.601 14.9145 26.4378 16.7655 26.2979 18.5413C26.2443 19.2152 26.1977 19.9005 26.3166 20.5676C26.4355 21.2347 26.7362 21.895 27.2725 22.323C27.5709 21.5443 27.8717 20.7133 27.7085 19.8983C27.6339 19.534 27.4707 19.1902 27.3844 18.8282C27.1209 17.7263 27.5989 16.5811 27.5266 15.4518C27.4637 14.4933 27.0114 13.6054 26.5497 12.7561C26.4052 12.4898 24.997 10.1561 24.5283 10.591C24.2952 10.8073 25.8037 12.9519 25.9296 13.2593H25.9272Z" fill="#A37734"/>
<path d="M23.8614 10.8292C23.8918 10.7176 23.4208 10.8405 23.162 10.9498C23.1084 11.4484 23.2623 12.1474 23.2786 12.5754C23.3066 13.3632 23.3345 14.1509 23.3648 14.9387C23.3742 15.1914 23.5514 16.3798 22.9638 16.1317C22.796 16.0611 22.6234 15.5875 22.5488 15.4373C22.5512 15.4509 22.5535 15.4669 22.5558 15.4805C22.719 16.3161 23.2016 17.0879 23.8894 17.6116C24.2928 15.3735 23.2413 13.0194 23.8614 10.8292Z" fill="#97602C"/>
<path d="M23.8358 10.9436C23.8218 10.9322 23.8078 10.9185 23.7938 10.9071C23.7379 10.8662 23.6772 10.8366 23.612 10.8115C23.3811 10.8616 23.0641 10.9754 23.0081 11.0415C22.9498 11.1075 22.9125 11.1872 22.8799 11.2737C22.9941 11.3374 23.134 11.3875 23.2436 11.4103C23.4045 11.4445 23.5677 11.4558 23.7332 11.4604C23.7588 11.2874 23.7915 11.1166 23.8358 10.9459V10.9436Z" fill="#784C1E"/>
<path d="M27.5246 21.1893C27.443 21.3191 27.2868 21.467 27.1562 21.3828C27.1096 21.3532 27.0863 21.3008 27.0653 21.2507C26.0441 18.8374 27.2378 15.9664 26.3286 13.5121C26.1141 12.9316 25.7877 12.4011 25.4239 11.9002C25.34 11.7841 24.8621 11.0601 24.5566 10.8848C24.8038 11.5359 25.8273 13.0112 25.9275 13.2594C26.6013 14.9146 26.4381 16.7656 26.2982 18.5414C26.2446 19.2153 26.198 19.9006 26.3169 20.5677C26.4358 21.2348 26.7366 21.8951 27.2728 22.3231C27.4477 21.8632 27.6249 21.3851 27.7065 20.9024C27.6458 20.998 27.5852 21.0937 27.5246 21.1893Z" fill="#97602C"/>
<path d="M24.7982 10.5726C24.7725 10.5771 24.7469 10.5794 24.7236 10.5885C24.6326 10.625 24.5697 10.7024 24.5254 10.7866C24.558 10.905 24.6303 11.0644 24.7259 11.2465C24.7352 11.2465 24.7422 11.2465 24.7492 11.242C24.9287 11.1873 25.0943 11.0507 25.2225 10.8959C25.0686 10.7388 24.9241 10.6227 24.7982 10.5703V10.5726Z" fill="#784C1E"/>
<path d="M22.2549 8.74675C21.9822 9.00175 21.9961 9.42978 22.0917 9.78722C22.2503 10.3815 22.6163 10.9666 23.1992 11.1965C23.859 11.4561 24.6494 11.1829 25.139 10.6774C25.9014 9.88968 25.9526 8.62609 24.7776 8.214C23.9569 7.92713 22.8821 8.16163 22.2549 8.74675Z" fill="#A37734"/>
<path d="M22.4201 8.72333C22.2173 8.88498 22.229 9.15591 22.2989 9.37903C22.4155 9.75469 22.6883 10.1235 23.1219 10.2692C23.6139 10.4332 24.1991 10.2601 24.5628 9.94138C25.1293 9.44506 25.1666 8.64592 24.2946 8.38637C23.6838 8.20423 22.8864 8.35222 22.4201 8.72333Z" fill="#B58948"/>
<path d="M22.5883 14.1629C22.5883 14.657 22.642 15.1738 22.9194 15.5859C23.0943 15.4379 23.1059 15.1806 23.1059 14.9552C23.1059 14.4134 23.1059 13.8715 23.1059 13.3296C23.1059 13.0223 23.1152 12.6534 22.9147 12.4053C22.537 12.617 22.5907 13.7668 22.5883 14.1606V14.1629Z" fill="#B58948"/>
<path d="M27.1748 20.9448C27.2354 20.9835 27.31 20.9152 27.345 20.8515C27.6528 20.3096 27.5548 19.5765 27.1142 19.128C27.0885 19.1007 27.0606 19.0756 27.0256 19.062C26.6456 18.9162 27.1002 20.7467 27.1771 20.9425L27.1748 20.9448Z" fill="#B58948"/>
<path d="M26.6243 14.0721C26.7036 14.3203 26.7759 14.5707 26.8015 14.8303C26.8155 14.9646 26.8132 15.1012 26.8132 15.2378C26.8132 15.6567 26.8132 16.0734 26.8109 16.4923C26.8109 16.5879 26.8109 16.6858 26.8575 16.7701C26.9041 16.8543 27.0067 16.9158 27.0976 16.8816C27.1816 16.8497 27.2189 16.7541 27.2398 16.6676C27.5173 15.5793 27.1886 14.4341 26.7596 13.3959C26.6546 13.1409 26.5078 12.8154 26.2163 12.7402C26.1534 13.0886 26.5124 13.7078 26.6267 14.0744L26.6243 14.0721Z" fill="#B58948"/>
<path d="M25.9762 31.7594C25.5845 32.6109 25.1392 33.4988 25.2348 34.4277C25.2488 34.5666 25.2768 34.71 25.3514 34.8307C25.4236 34.9445 25.5332 35.0311 25.6498 35.1016C26.4192 35.5547 27.4777 35.2155 28.0652 34.5529C28.6527 33.8904 28.8696 32.9911 28.9931 32.1214C29.2379 30.382 29.182 28.6152 28.9768 26.8712C28.9535 26.6663 28.9232 26.4546 28.8066 26.2816C28.0116 25.0999 27.4474 27.7592 27.3704 28.0278C26.9974 29.3028 26.5311 30.5527 25.9762 31.7617V31.7594Z" fill="#694725"/>
<path d="M24.6446 8.70586C24.6982 8.67399 24.0851 8.4577 24.0105 8.45315C23.5348 8.43038 22.5836 8.60113 22.4251 9.13844C22.3621 9.35246 22.5836 9.58013 22.7328 9.70763C22.8261 9.78504 22.917 9.86472 23.0103 9.94213C23.1082 10.0264 23.2131 10.1129 23.3413 10.1425C23.4789 10.1744 23.6211 10.1357 23.7563 10.097C23.9149 10.0514 24.0734 10.0059 24.2319 9.96262C23.9941 9.96718 23.7563 9.97401 23.5185 9.97856C23.4952 9.97856 23.4719 9.97856 23.4509 9.97173C23.4043 9.95579 23.3786 9.90798 23.3576 9.86472C23.325 9.79642 23.29 9.72812 23.2854 9.65299C23.269 9.36384 23.6747 9.12934 23.8962 9.02916C24.1433 8.9176 24.4091 8.84247 24.6423 8.70586H24.6446Z" fill="#C4A16E"/>
<path d="M27.1583 19.7728C27.1397 19.9914 27.1863 20.2145 27.2912 20.4103C27.3308 20.4831 27.3961 20.5605 27.4801 20.5469C27.5733 20.5309 27.6036 20.4148 27.6036 20.3215C27.6013 20.1098 27.543 19.9003 27.4358 19.7159C27.3681 19.6999 27.2935 19.6863 27.2329 19.7204C27.1723 19.7546 27.163 19.8616 27.2283 19.8821L27.1583 19.7728Z" fill="#C4A16E"/>
<path d="M26.866 14.2308C26.866 14.5564 26.866 14.8842 26.8684 15.2098C26.8684 15.2735 26.8684 15.3418 26.9103 15.3897C26.9873 15.483 27.1598 15.4306 27.2134 15.3214C27.267 15.2121 27.2391 15.0846 27.1994 14.9707C27.1178 14.7362 26.9919 14.5177 26.8311 14.3264L26.8637 14.2285L26.866 14.2308Z" fill="#C4A16E"/>
<path d="M24.5587 8.94764C24.4188 9.03416 24.2836 9.12523 24.1484 9.21857C24.0901 9.25955 24.0271 9.32103 24.0528 9.38477C24.1647 9.40071 24.2789 9.41437 24.3908 9.43031C24.4654 9.43942 24.5424 9.4508 24.6146 9.43031C24.7895 9.37794 24.8571 9.17531 24.8968 9.00001C24.9014 8.97724 24.9061 8.95219 24.8921 8.93626C24.8828 8.92487 24.8664 8.92032 24.8525 8.91804C24.7312 8.89072 24.6007 8.90438 24.4887 8.95675L24.5587 8.94764Z" fill="#C4A16E"/>
<g style="mix-blend-mode:overlay" opacity="0.2">
<path d="M5.73168 8.47479C6.40548 8.52032 7.15388 8.61822 7.82534 8.46568C7.99787 8.42698 8.58074 8.29037 8.53178 8.01034C8.46883 7.65061 7.0886 7.78949 6.80183 7.80998C6.23994 7.84869 5.11151 7.75534 4.70117 8.1219C4.94831 8.39966 5.3703 8.44975 5.72935 8.47479H5.73168Z" fill="white"/>
</g>
<g style="mix-blend-mode:overlay" opacity="0.2">
<path d="M8.00909 7.8898C7.73863 7.88525 7.46585 7.95582 7.23271 8.09243C7.18841 8.14935 7.21639 8.23586 7.27467 8.2814C7.33063 8.32693 7.40757 8.33832 7.47984 8.34742C7.84355 8.39068 8.21425 8.37247 8.57097 8.29506C8.65957 8.27684 8.76681 8.22448 8.75282 8.13796C8.74583 8.0856 8.69454 8.05145 8.64791 8.02868C8.42409 7.91257 8.16296 7.86248 7.91116 7.88525L8.01142 7.8898H8.00909Z" fill="white"/>
</g>
<g style="mix-blend-mode:overlay" opacity="0.2">
<path d="M16.4352 6.67099C16.2953 6.70286 16.1484 6.73473 16.0341 6.81897C15.9176 6.90321 15.8406 7.05803 15.8966 7.1878C15.9572 7.33124 16.1367 7.3836 16.2953 7.39726C17.1719 7.48378 18.2514 6.95102 18.5311 6.09725C18.1231 5.81949 16.9178 6.55715 16.4352 6.66871V6.67099Z" fill="white"/>
</g>
<g style="mix-blend-mode:overlay" opacity="0.2">
<path d="M18.1121 6.26523C17.7927 6.39728 17.4732 6.52933 17.1538 6.66138C16.9976 6.72513 16.8088 6.87767 16.8997 7.01883C16.9463 7.09168 17.0466 7.1099 17.1352 7.1099C17.6598 7.1099 18.1587 6.7183 18.2683 6.21514C18.1983 6.18099 18.1097 6.19465 18.0538 6.24474L18.1144 6.26523H18.1121Z" fill="white"/>
</g>
<g style="mix-blend-mode:overlay" opacity="0.2">
<path d="M13.3952 2.90344C13.1901 3.00362 12.9569 3.13567 12.9219 3.35651C12.894 3.53865 13.0175 3.71623 13.1807 3.81186C13.3439 3.90748 13.5351 3.93252 13.7216 3.95074C14.5283 4.03498 15.3653 4.03498 16.13 3.7686C16.2093 3.74128 16.2932 3.70713 16.3422 3.6411C16.3912 3.57508 16.3888 3.46352 16.3142 3.42481C16.2699 3.39977 16.214 3.4066 16.165 3.41343C15.4283 3.51816 14.6822 3.55686 13.9385 3.52726C13.8032 3.52271 13.6307 3.48173 13.6144 3.35196C13.6051 3.2791 13.6563 3.2108 13.7076 3.15843C13.9524 2.91255 14.3022 2.80099 14.6239 2.66438C15.0016 2.50273 14.9946 2.29783 14.6286 2.30693C14.2928 2.31604 13.6983 2.76 13.3929 2.90799L13.3952 2.90344Z" fill="white"/>
</g>
<g style="mix-blend-mode:overlay" opacity="0.2">
<path d="M13.7779 3.09504C13.6613 3.1383 13.6496 3.31133 13.7289 3.40696C13.8082 3.50258 13.9364 3.53901 14.06 3.56405C14.5472 3.66651 15.0532 3.69155 15.5498 3.63918C14.8527 4.03078 13.9737 3.84864 13.209 3.60276C13.2346 3.32955 13.4911 3.09504 13.7732 3.08594L13.7802 3.09732L13.7779 3.09504Z" fill="white"/>
</g>
<g style="mix-blend-mode:overlay" opacity="0.2">
<path d="M25.1017 4.49074C25.2066 4.4657 25.3722 4.48847 25.3559 4.5932C24.6028 4.87096 23.8497 5.14644 23.0967 5.42193C22.7959 5.53349 22.3996 5.7088 22.0918 5.6405C22.2853 4.98024 24.4839 4.63873 25.1017 4.49074Z" fill="white"/>
</g>
<g style="mix-blend-mode:overlay" opacity="0.2">
<path d="M21.5186 5.62534C21.6258 5.5707 23.5842 5.93498 23.4094 5.28155C23.2462 4.67822 21.7307 5.51833 21.5186 5.62534Z" fill="white"/>
</g>
<g style="mix-blend-mode:multiply" opacity="0.13">
<path d="M18.6827 9.73941C19.6223 9.48897 20.5502 9.14746 21.5224 9.08371C21.6227 9.07688 21.7276 9.0746 21.8139 9.12469C21.9631 9.20893 21.9911 9.41839 21.9211 9.56865C21.8512 9.71892 21.7066 9.8282 21.5644 9.92155C20.1492 10.8459 18.3703 11.0121 16.6753 11.1555C15.7637 11.2307 14.8498 11.3081 13.9358 11.2512C12.1779 11.1419 10.4852 10.6251 8.72266 10.5363C8.97679 9.95797 10.1822 10.2835 10.6834 10.3063C11.5997 10.3473 12.5183 10.3769 13.4369 10.3678C15.2018 10.3496 16.9737 10.1948 18.6804 9.74168L18.6827 9.73941Z" fill="#553318"/>
</g>
<g style="mix-blend-mode:multiply" opacity="0.13">
<path d="M19.5502 10.5456C20.1703 10.4568 20.8534 10.3111 21.2195 9.8125C19.7903 9.99919 18.3634 10.1859 16.9342 10.3749C15.5867 10.5524 14.2274 10.7482 12.8682 10.7961C15.111 10.8917 17.3259 10.8666 19.5525 10.5479L19.5502 10.5456Z" fill="#553318"/>
</g>
<g style="mix-blend-mode:multiply" opacity="0.13">
<path d="M24.4022 12.0437C24.619 12.0368 24.8872 11.9958 24.9594 11.7955C25.041 11.5701 24.7822 11.3515 24.5398 11.3265C24.2973 11.3014 24.0525 11.388 23.8077 11.3766C23.5699 11.3652 23.3484 11.2605 23.1129 11.2354C22.8891 11.2104 22.6653 11.2582 22.4461 11.3037C20.3828 11.7272 18.2798 11.8683 16.2188 12.2326C16.6944 12.4193 17.3355 12.2873 17.8368 12.2691C18.5735 12.244 19.3103 12.219 20.047 12.1939C21.4995 12.1438 22.952 12.096 24.4045 12.0459L24.4022 12.0437Z" fill="#553318"/>
</g>
<g style="mix-blend-mode:multiply" opacity="0.13">
<path d="M23.5301 11.6636C23.4811 11.5042 23.3669 11.3654 23.2177 11.2834C22.9239 11.1195 22.5578 11.19 22.2291 11.2652C21.166 11.5088 20.1051 11.7569 19.042 11.996C19.4453 11.9732 23.4834 11.5202 23.5301 11.6636Z" fill="#553318"/>
</g>
<g style="mix-blend-mode:overlay" opacity="0.2">
<path d="M2.11492 37.2057C2.16621 37.3719 2.28512 37.5404 2.46231 37.5609C2.53925 37.57 2.61852 37.5495 2.69313 37.5267C3.35526 37.3264 3.95678 36.9371 4.39976 36.418C4.82176 35.9239 5.12718 35.2432 5.0176 34.5897C4.73549 32.8822 3.31796 33.9136 2.79571 34.8379C2.41335 35.5164 1.87012 36.4111 2.11492 37.2057Z" fill="white"/>
</g>
<g style="mix-blend-mode:overlay" opacity="0.2">
<path d="M3.1479 34.7451C2.58834 35.1117 2.27126 35.8061 2.36919 36.4572C2.37851 36.5187 2.3925 36.5824 2.42747 36.6348C2.56503 36.8283 2.88211 36.7168 3.04997 36.5483C3.3484 36.2478 3.49762 35.8311 3.52559 35.4145C3.53492 35.2619 3.52559 35.0957 3.42534 34.9773C3.32509 34.859 3.10826 34.8294 3.01967 34.9569L3.1479 34.7451Z" fill="white"/>
</g>
<g style="mix-blend-mode:overlay" opacity="0.2">
<path d="M32.8724 34.6462C32.574 34.9923 32.2569 35.393 32.3082 35.8438C32.3315 36.0373 32.4481 36.2377 32.6416 36.2809C32.8538 36.3287 33.0566 36.1694 33.1965 36.0054C33.5439 35.5979 33.8214 34.9923 33.798 34.4504C33.7561 33.4874 33.2478 34.2136 32.8748 34.6462H32.8724Z" fill="white"/>
</g>
</g>
<circle cx="33" cy="29" r="11" fill="white"/>
<circle cx="33.0002" cy="29.0002" r="8.8" fill="#FEC94A"/>
<path d="M32.2071 34.5114C33.6526 34.6265 35.0063 34.7186 36.406 34.8337C36.7731 34.8568 37.1402 34.8798 37.5302 34.9949C38.5857 35.3173 38.861 36.5607 38.035 37.3206C37.7368 37.5508 37.3926 37.735 37.0484 37.8271C36.2683 37.9883 35.5111 38.1265 34.7539 38.2186C33.8591 38.3107 32.9872 38.4028 32.1153 38.4488C29.4767 38.4719 28.1 37.2975 27.6181 34.6725C27.5264 34.189 27.4805 33.6824 27.4805 33.1758C27.4805 30.2285 27.4805 27.2811 27.8935 24.3568C28.0541 23.3436 28.2376 22.3305 28.513 21.3404C28.7195 20.5575 29.2243 20.0048 30.0503 19.8667C31.1516 19.7055 32.0694 20.3733 32.2071 21.4555C32.3218 22.0772 32.3677 22.7219 32.3677 23.3436C32.3218 25.9917 32.253 28.6397 32.2071 31.2647C32.1841 32.3239 32.2071 33.36 32.2071 34.5114Z" fill="#8B5556"/>
<path fill-rule="evenodd" clip-rule="evenodd" d="M27.8938 24.3569C28.0544 23.3437 28.238 22.3306 28.5133 21.3405C28.7198 20.5576 29.2246 20.0049 30.0506 19.8668C31.1519 19.7056 32.0697 20.3734 32.2074 21.4556C32.3221 22.0773 32.368 22.722 32.368 23.3437C32.3448 24.6823 32.3158 26.0209 32.2868 27.3566C32.2584 28.6631 32.2301 29.9667 32.2074 31.2648C32.1923 31.9635 32.1971 32.6523 32.2021 33.3707C32.2047 33.7413 32.2074 34.1197 32.2074 34.5115C32.861 34.5635 33.4959 34.6109 34.1247 34.6578C34.8866 34.7146 35.6395 34.7708 36.4063 34.8338C36.7734 34.8569 37.1405 34.8799 37.5306 34.995C38.586 35.3174 38.8614 36.5608 38.0354 37.3207C37.7371 37.5509 37.3929 37.7351 37.0487 37.8272C36.2686 37.9884 35.5114 38.1266 34.7543 38.2187C34.7106 38.2232 34.6669 38.2277 34.6233 38.2322C33.7743 38.3197 32.9449 38.4052 32.1156 38.449C29.477 38.472 28.1003 37.2976 27.6185 34.6727C27.5267 34.1891 27.4808 33.6825 27.4808 33.1759C27.4808 30.2286 27.4808 27.2812 27.8938 24.3569ZM26.8434 34.8173C27.1033 36.2312 27.6264 37.3781 28.5501 38.1567C29.4773 38.9381 30.6906 39.2498 32.1225 39.2373L32.1399 39.2372L32.1572 39.2363C33.0068 39.1914 33.8542 39.104 34.6983 39.017C34.7439 39.0123 34.7894 39.0076 34.835 39.003L34.8422 39.0022L34.8495 39.0013C35.6369 38.9055 36.4177 38.7627 37.2083 38.5993L37.2306 38.5947L37.2526 38.5889C37.7166 38.4647 38.1534 38.2255 38.5171 37.9448L38.5441 37.924L38.5691 37.9009C39.8304 36.7406 39.4162 34.7466 37.7609 34.241L37.7573 34.2399L37.7538 34.2389C37.2779 34.0984 36.8353 34.0707 36.4808 34.0486L36.4632 34.0475C35.7018 33.9849 34.9418 33.9281 34.1763 33.871C33.7838 33.8417 33.3898 33.8123 32.9934 33.782C32.9925 33.6359 32.9915 33.492 32.9905 33.3497C32.9854 32.6391 32.9807 31.97 32.9956 31.2818L32.9957 31.2802L32.9957 31.2786C33.0184 29.982 33.0466 28.6796 33.075 27.3724L33.0759 27.33C33.1046 26.0091 33.1333 24.6834 33.1563 23.3574L33.1564 23.3506V23.3437C33.1564 22.6917 33.1089 22.0051 32.9865 21.3331C32.7797 19.8026 31.4424 18.8663 29.9364 19.0867L29.9285 19.0879L29.9205 19.0892C28.7404 19.2866 28.0251 20.1066 27.7524 21.134C27.4656 22.1665 27.2768 23.2133 27.1151 24.2335L27.1141 24.24L27.1131 24.2466C26.6924 27.2259 26.6924 30.2196 26.6924 33.1492V33.1759C26.6924 33.7285 26.7423 34.2836 26.8434 34.8173Z" fill="#040065"/>
<path fill-rule="evenodd" clip-rule="evenodd" d="M27.8938 24.3569C28.0544 23.3437 28.238 22.3306 28.5133 21.3405C28.7198 20.5576 29.2246 20.0049 30.0506 19.8668C31.1519 19.7056 32.0697 20.3734 32.2074 21.4556C32.3221 22.0773 32.368 22.722 32.368 23.3437C32.3448 24.6823 32.3158 26.0209 32.2868 27.3566C32.2584 28.6631 32.2301 29.9667 32.2074 31.2648C32.1923 31.9635 32.1971 32.6523 32.2021 33.3707C32.2047 33.7413 32.2074 34.1197 32.2074 34.5115C32.861 34.5635 33.4959 34.6109 34.1247 34.6578C34.8866 34.7146 35.6395 34.7708 36.4063 34.8338C36.7734 34.8569 37.1405 34.8799 37.5306 34.995C38.586 35.3174 38.8614 36.5608 38.0354 37.3207C37.7371 37.5509 37.3929 37.7351 37.0487 37.8272C36.2686 37.9884 35.5114 38.1266 34.7543 38.2187C34.7106 38.2232 34.6669 38.2277 34.6233 38.2322C33.7743 38.3197 32.9449 38.4052 32.1156 38.449C29.477 38.472 28.1003 37.2976 27.6185 34.6727C27.5267 34.1891 27.4808 33.6825 27.4808 33.1759C27.4808 30.2286 27.4808 27.2812 27.8938 24.3569ZM26.8434 34.8173C27.1033 36.2312 27.6264 37.3781 28.5501 38.1567C29.4773 38.9381 30.6906 39.2498 32.1225 39.2373L32.1399 39.2372L32.1572 39.2363C33.0068 39.1914 33.8542 39.104 34.6983 39.017C34.7439 39.0123 34.7894 39.0076 34.835 39.003L34.8422 39.0022L34.8495 39.0013C35.6369 38.9055 36.4177 38.7627 37.2083 38.5993L37.2306 38.5947L37.2526 38.5889C37.7166 38.4647 38.1534 38.2255 38.5171 37.9448L38.5441 37.924L38.5691 37.9009C39.8304 36.7406 39.4162 34.7466 37.7609 34.241L37.7573 34.2399L37.7538 34.2389C37.2779 34.0984 36.8353 34.0707 36.4808 34.0486L36.4632 34.0475C35.7018 33.9849 34.9418 33.9281 34.1763 33.871C33.7838 33.8417 33.3898 33.8123 32.9934 33.782C32.9925 33.6359 32.9915 33.492 32.9905 33.3497C32.9854 32.6391 32.9807 31.97 32.9956 31.2818L32.9957 31.2802L32.9957 31.2786C33.0184 29.982 33.0466 28.6796 33.075 27.3724L33.0759 27.33C33.1046 26.0091 33.1333 24.6834 33.1563 23.3574L33.1564 23.3506V23.3437C33.1564 22.6917 33.1089 22.0051 32.9865 21.3331C32.7797 19.8026 31.4424 18.8663 29.9364 19.0867L29.9285 19.0879L29.9205 19.0892C28.7404 19.2866 28.0251 20.1066 27.7524 21.134C27.4656 22.1665 27.2768 23.2133 27.1151 24.2335L27.1141 24.24L27.1131 24.2466C26.6924 27.2259 26.6924 30.2196 26.6924 33.1492V33.1759C26.6924 33.7285 26.7423 34.2836 26.8434 34.8173Z" fill="#040065" fill-opacity="0.8" style="mix-blend-mode:multiply"/>
<path d="M34.4073 33.192C35.8528 33.3072 37.2065 33.3993 38.6062 33.5144C38.9733 33.5374 39.3404 33.5604 39.7304 33.6756C40.7859 33.9979 41.0612 35.2414 40.2352 36.0012C39.9369 36.2315 39.5928 36.4157 39.2486 36.5078C38.4685 36.669 37.7113 36.8071 36.9541 36.8992C36.0593 36.9914 35.1874 37.0835 34.3155 37.1295C31.6769 37.1525 30.3002 35.9782 29.8183 33.3532C29.7266 32.8697 29.6807 32.3631 29.6807 31.8565C29.6807 28.9091 29.6807 25.9618 30.0937 23.0375C30.2543 22.0243 30.4378 21.0111 30.7132 20.021C30.9197 19.2381 31.4245 18.6855 32.2505 18.5473C33.3518 18.3862 34.2696 19.0539 34.4073 20.1361C34.522 20.7579 34.5679 21.4026 34.5679 22.0243C34.522 24.6723 34.4532 27.3203 34.4073 29.9453C34.3843 31.0045 34.4073 32.0407 34.4073 33.192Z" fill="#FF5757"/>
<path fill-rule="evenodd" clip-rule="evenodd" d="M30.094 23.0376C30.2546 22.0244 30.4382 21.0113 30.7135 20.0211C30.92 19.2382 31.4248 18.6856 32.2508 18.5474C33.3521 18.3863 34.2699 19.054 34.4076 20.1363C34.5223 20.758 34.5682 21.4027 34.5682 22.0244C34.545 23.363 34.5159 24.7016 34.487 26.0372C34.4586 27.3437 34.4303 28.6474 34.4076 29.9454C34.3925 30.6442 34.3973 31.333 34.4023 32.0514C34.4049 32.4219 34.4076 32.8004 34.4076 33.1921C35.0612 33.2442 35.6961 33.2915 36.3249 33.3384C37.0868 33.3953 37.8397 33.4514 38.6065 33.5145C38.9736 33.5375 39.3407 33.5606 39.7308 33.6757C40.7862 33.9981 41.0616 35.2415 40.2356 36.0013C39.9373 36.2316 39.5931 36.4158 39.2489 36.5079C38.4688 36.6691 37.7116 36.8073 36.9545 36.8994C36.9108 36.9039 36.8671 36.9084 36.8235 36.9128C35.9745 37.0003 35.1451 37.0858 34.3158 37.1296C31.6772 37.1526 30.3005 35.9783 29.8187 33.3533C29.7269 32.8698 29.681 32.3632 29.681 31.8566C29.681 28.9093 29.681 25.9619 30.094 23.0376ZM29.0436 33.498C29.3035 34.9119 29.8266 36.0587 30.7503 36.8373C31.6775 37.6187 32.8908 37.9305 34.3227 37.918L34.3401 37.9178L34.3574 37.9169C35.207 37.8721 36.0544 37.7847 36.8985 37.6977C36.944 37.693 36.9896 37.6883 37.0352 37.6836L37.0424 37.6829L37.0497 37.682C37.8371 37.5862 38.6179 37.4434 39.4085 37.28L39.4308 37.2754L39.4527 37.2695C39.9168 37.1453 40.3536 36.9062 40.7173 36.6254L40.7443 36.6046L40.7693 36.5816C42.0306 35.4213 41.6164 33.4272 39.9611 32.9217L39.9575 32.9206L39.954 32.9195C39.4781 32.7791 39.0355 32.7514 38.681 32.7292L38.6634 32.7281C37.902 32.6655 37.142 32.6088 36.3765 32.5517C35.984 32.5224 35.59 32.493 35.1935 32.4626C35.1927 32.3166 35.1917 32.1726 35.1907 32.0303C35.1856 31.3197 35.1809 30.6506 35.1958 29.9625L35.1959 29.9609L35.1959 29.9592C35.2185 28.6627 35.2468 27.3603 35.2752 26.0531L35.2761 26.0107C35.3048 24.6898 35.3335 23.3641 35.3565 22.0381L35.3566 22.0312V22.0244C35.3566 21.3724 35.3091 20.6858 35.1867 20.0137C34.9799 18.4833 33.6426 17.547 32.1366 17.7673L32.1287 17.7685L32.1207 17.7698C30.9406 17.9672 30.2253 18.7873 29.9526 19.8147C29.6658 20.8472 29.477 21.8939 29.3153 22.9141L29.3143 22.9207L29.3133 22.9273C28.8926 25.9066 28.8926 28.9003 28.8926 31.8299V31.8566C28.8926 32.4091 28.9425 32.9642 29.0436 33.498Z" fill="#040065"/>
<path fill-rule="evenodd" clip-rule="evenodd" d="M30.094 23.0376C30.2546 22.0244 30.4382 21.0113 30.7135 20.0211C30.92 19.2382 31.4248 18.6856 32.2508 18.5474C33.3521 18.3863 34.2699 19.054 34.4076 20.1363C34.5223 20.758 34.5682 21.4027 34.5682 22.0244C34.545 23.363 34.5159 24.7016 34.487 26.0372C34.4586 27.3437 34.4303 28.6474 34.4076 29.9454C34.3925 30.6442 34.3973 31.333 34.4023 32.0514C34.4049 32.4219 34.4076 32.8004 34.4076 33.1921C35.0612 33.2442 35.6961 33.2915 36.3249 33.3384C37.0868 33.3953 37.8397 33.4514 38.6065 33.5145C38.9736 33.5375 39.3407 33.5606 39.7308 33.6757C40.7862 33.9981 41.0616 35.2415 40.2356 36.0013C39.9373 36.2316 39.5931 36.4158 39.2489 36.5079C38.4688 36.6691 37.7116 36.8073 36.9545 36.8994C36.9108 36.9039 36.8671 36.9084 36.8235 36.9128C35.9745 37.0003 35.1451 37.0858 34.3158 37.1296C31.6772 37.1526 30.3005 35.9783 29.8187 33.3533C29.7269 32.8698 29.681 32.3632 29.681 31.8566C29.681 28.9093 29.681 25.9619 30.094 23.0376ZM29.0436 33.498C29.3035 34.9119 29.8266 36.0587 30.7503 36.8373C31.6775 37.6187 32.8908 37.9305 34.3227 37.918L34.3401 37.9178L34.3574 37.9169C35.207 37.8721 36.0544 37.7847 36.8985 37.6977C36.944 37.693 36.9896 37.6883 37.0352 37.6836L37.0424 37.6829L37.0497 37.682C37.8371 37.5862 38.6179 37.4434 39.4085 37.28L39.4308 37.2754L39.4527 37.2695C39.9168 37.1453 40.3536 36.9062 40.7173 36.6254L40.7443 36.6046L40.7693 36.5816C42.0306 35.4213 41.6164 33.4272 39.9611 32.9217L39.9575 32.9206L39.954 32.9195C39.4781 32.7791 39.0355 32.7514 38.681 32.7292L38.6634 32.7281C37.902 32.6655 37.142 32.6088 36.3765 32.5517C35.984 32.5224 35.59 32.493 35.1935 32.4626C35.1927 32.3166 35.1917 32.1726 35.1907 32.0303C35.1856 31.3197 35.1809 30.6506 35.1958 29.9625L35.1959 29.9609L35.1959 29.9592C35.2185 28.6627 35.2468 27.3603 35.2752 26.0531L35.2761 26.0107C35.3048 24.6898 35.3335 23.3641 35.3565 22.0381L35.3566 22.0312V22.0244C35.3566 21.3724 35.3091 20.6858 35.1867 20.0137C34.9799 18.4833 33.6426 17.547 32.1366 17.7673L32.1287 17.7685L32.1207 17.7698C30.9406 17.9672 30.2253 18.7873 29.9526 19.8147C29.6658 20.8472 29.477 21.8939 29.3153 22.9141L29.3143 22.9207L29.3133 22.9273C28.8926 25.9066 28.8926 28.9003 28.8926 31.8299V31.8566C28.8926 32.4091 28.9425 32.9642 29.0436 33.498Z" fill="#040065" fill-opacity="0.8" style="mix-blend-mode:multiply"/>
<defs>
<clipPath id="clip0_26486_99488">
<rect width="40" height="40" fill="white"/>
</clipPath>
</defs>
</svg>
