<svg width="133" height="122" viewBox="0 0 133 122" fill="none" xmlns="http://www.w3.org/2000/svg">
<path d="M5.89358 112.33L29.1869 109.553L25.9148 5.08301L0.115234 15.1478L5.89358 112.33Z" fill="url(#paint0_radial_27192_50539)"/>
<g style="mix-blend-mode:multiply" opacity="0.5">
<path d="M5.89358 112.33L29.1869 109.553L25.9148 5.08301L0.115234 15.1478L5.89358 112.33Z" fill="#904470"/>
</g>
<path d="M29.19 109.553L105.878 109.809L110.857 3.99219L25.918 5.08296L29.19 109.553Z" fill="url(#paint1_linear_27192_50539)"/>
<path d="M35.8566 102.615L99.3389 103.041L102.816 12.3457L33.7812 13.2299L35.8566 102.615Z" fill="#28071B"/>
<path d="M35.86 102.613L96.7062 103.076L99.8025 15.4795L33.8809 16.3224L35.86 102.613Z" fill="#28071B"/>
<path d="M35.8324 101.548L97.9004 101.994L101.085 14.6416L33.8574 15.501L35.8324 101.548Z" fill="url(#paint2_linear_27192_50539)"/>
<path d="M33.8457 15.4404L35.0089 15.4238L36.896 101.533L35.8248 101.545L33.8457 15.4404Z" fill="#5E2C4C"/>
<path d="M5.89258 112.33L24.9431 112.776H86.4337L105.685 109.81L29.1859 109.554L5.89258 112.33Z" fill="#6B5566"/>
<path opacity="0.5" d="M68.6453 23.8227L71.0219 19.6455L66.3691 19.6951L68.6453 23.8227Z" fill="#904470"/>
<g style="mix-blend-mode:multiply" opacity="0.5">
<path d="M48.0962 56.2136C48.2636 67.9187 56.9164 77.0663 67.4271 76.9258C77.9377 76.7812 86.7329 67.394 87.0801 55.6848C87.4358 43.6532 78.7913 33.7826 67.7576 33.9313C56.724 34.0801 47.9247 44.1904 48.0962 56.2136V56.2136Z" fill="#904470"/>
</g>
<path d="M49.666 56.1914C49.8125 67.8965 58.4486 77.0482 68.9592 76.9036C79.4699 76.759 88.2817 67.3718 88.6499 55.6584C89.0265 43.6269 80.3988 33.7562 69.3693 33.905C58.3356 34.0537 49.5196 44.164 49.6702 56.1872L49.666 56.1914Z" fill="url(#paint3_linear_27192_50539)"/>
<g opacity="0.7">
<path d="M60.6914 56.0435C60.6914 61.5966 64.7542 65.9885 69.7669 65.9224C74.7795 65.8522 78.9344 61.3486 79.0474 55.7956C79.1645 50.1724 75.1017 45.6151 69.9761 45.6854C64.8505 45.7556 60.6914 50.4244 60.6914 56.0435V56.0435Z" fill="#3B102B"/>
</g>
<path opacity="0.7" d="M64.6956 47.5842C66.1977 46.4108 68.0178 45.7043 69.976 45.6795C75.1016 45.6093 79.1645 50.1665 79.0473 55.7898C78.9636 59.7934 77.2565 50.307 74.1351 52.001L64.6914 47.5842H64.6956Z" fill="#3B102B"/>
<path d="M63.8106 55.9976C63.7939 61.0011 67.4425 64.9634 71.9614 64.9014C76.4803 64.8394 80.2293 60.7738 80.3423 55.7704C80.4552 50.709 76.8066 46.6145 72.1957 46.6765C67.5847 46.7385 63.8315 50.9363 63.8148 55.9935L63.8106 55.9976Z" fill="#AC718B"/>
<g opacity="0.14">
<g style="mix-blend-mode:overlay">
<path d="M34.291 20.6173L103.924 96.9711L108.665 92.1825L39.0401 14.9238L34.291 20.6173Z" fill="white"/>
</g>
<g style="mix-blend-mode:overlay">
<path d="M40.5781 14.698L110.086 91.9938L111.755 90.3122L42.2518 12.6982L40.5781 14.698Z" fill="white"/>
</g>
</g>
<circle cx="99.1965" cy="88.0578" r="33.0266" fill="white"/>
<circle cx="99.1947" cy="88.0589" r="26.4213" fill="#FEC94A"/>
<path d="M96.8221 104.606C101.162 104.951 105.227 105.228 109.429 105.574C110.531 105.643 111.633 105.712 112.804 106.057C115.973 107.025 116.8 110.759 114.32 113.04C113.424 113.731 112.391 114.284 111.358 114.561C109.016 115.045 106.742 115.46 104.469 115.736C101.782 116.013 99.1643 116.289 96.5465 116.428C88.6242 116.497 84.4909 112.971 83.0442 105.09C82.7686 103.638 82.6309 102.117 82.6309 100.596C82.6309 91.7467 82.6309 82.8975 83.8709 74.1174C84.3531 71.0755 84.9042 68.0336 85.7309 65.0608C86.3509 62.7102 87.8665 61.051 90.3465 60.6362C93.6532 60.1523 96.4088 62.1572 96.8221 65.4065C97.1666 67.2731 97.3043 69.2089 97.3043 71.0755C97.1665 79.0259 96.9599 86.9764 96.8221 94.8577C96.7532 98.0379 96.8221 101.149 96.8221 104.606Z" fill="#8B5556"/>
<path fill-rule="evenodd" clip-rule="evenodd" d="M83.8689 74.1177C84.3511 71.0758 84.9022 68.0339 85.7289 65.0611C86.3489 62.7105 87.8644 61.0513 90.3445 60.6365C93.6512 60.1525 96.4068 62.1574 96.8201 65.4068C97.1645 67.2734 97.3023 69.2091 97.3023 71.0758C97.2327 75.0948 97.1454 79.1138 97.0584 83.1239C96.9732 87.0466 96.8882 90.9608 96.8201 94.858C96.7746 96.956 96.7892 99.0239 96.8043 101.181C96.8121 102.293 96.8201 103.43 96.8201 104.606C98.7826 104.762 100.689 104.904 102.577 105.045C104.864 105.216 107.125 105.384 109.427 105.574C110.529 105.643 111.631 105.712 112.802 106.058C115.971 107.026 116.798 110.759 114.318 113.04C113.422 113.732 112.389 114.285 111.356 114.561C109.014 115.045 106.74 115.46 104.467 115.737C104.336 115.75 104.205 115.764 104.074 115.777C101.524 116.04 99.0345 116.296 96.5445 116.428C88.6222 116.497 84.4889 112.971 83.0422 105.09C82.7666 103.638 82.6288 102.117 82.6288 100.596C82.6288 91.7469 82.6288 82.8977 83.8689 74.1177ZM80.7152 105.524C81.4955 109.769 83.066 113.213 85.8395 115.55C88.6231 117.896 92.266 118.832 96.5652 118.795L96.6173 118.794L96.6694 118.792C99.2203 118.657 101.764 118.395 104.299 118.134C104.436 118.119 104.572 118.105 104.709 118.091L104.731 118.089L104.753 118.086C107.117 117.799 109.461 117.37 111.835 116.879L111.902 116.866L111.968 116.848C113.361 116.475 114.673 115.757 115.765 114.914L115.845 114.852L115.921 114.782C119.708 111.299 118.464 105.312 113.494 103.794L113.483 103.791L113.473 103.787C112.044 103.366 110.715 103.283 109.651 103.216L109.598 103.213C107.312 103.025 105.03 102.855 102.732 102.683C101.553 102.595 100.37 102.507 99.1798 102.416C99.1772 101.977 99.1742 101.545 99.1712 101.118C99.1561 98.9842 99.1419 96.9752 99.1867 94.9092L99.1868 94.9043L99.1869 94.8994C99.2549 91.0067 99.3398 87.0963 99.425 83.1715L99.4278 83.0442C99.5139 79.0783 99.6001 75.098 99.6691 71.1168L99.6694 71.0963V71.0758C99.6694 69.118 99.5268 67.0567 99.1592 65.0388C98.5384 60.4439 94.5231 57.6326 90.0017 58.2943L89.9778 58.2978L89.954 58.3018C86.4107 58.8944 84.2631 61.3565 83.4443 64.4413C82.5832 67.5413 82.0165 70.6841 81.5309 73.7471L81.5278 73.7668L81.525 73.7867C80.2617 82.7316 80.2617 91.7201 80.2617 100.516V100.596C80.2617 102.255 80.4116 103.922 80.7152 105.524Z" fill="#040065"/>
<path fill-rule="evenodd" clip-rule="evenodd" d="M83.8689 74.1177C84.3511 71.0758 84.9022 68.0339 85.7289 65.0611C86.3489 62.7105 87.8644 61.0513 90.3445 60.6365C93.6512 60.1525 96.4068 62.1574 96.8201 65.4068C97.1645 67.2734 97.3023 69.2091 97.3023 71.0758C97.2327 75.0948 97.1454 79.1138 97.0584 83.1239C96.9732 87.0466 96.8882 90.9608 96.8201 94.858C96.7746 96.956 96.7892 99.0239 96.8043 101.181C96.8121 102.293 96.8201 103.43 96.8201 104.606C98.7826 104.762 100.689 104.904 102.577 105.045C104.864 105.216 107.125 105.384 109.427 105.574C110.529 105.643 111.631 105.712 112.802 106.058C115.971 107.026 116.798 110.759 114.318 113.04C113.422 113.732 112.389 114.285 111.356 114.561C109.014 115.045 106.74 115.46 104.467 115.737C104.336 115.75 104.205 115.764 104.074 115.777C101.524 116.04 99.0345 116.296 96.5445 116.428C88.6222 116.497 84.4889 112.971 83.0422 105.09C82.7666 103.638 82.6288 102.117 82.6288 100.596C82.6288 91.7469 82.6288 82.8977 83.8689 74.1177ZM80.7152 105.524C81.4955 109.769 83.066 113.213 85.8395 115.55C88.6231 117.896 92.266 118.832 96.5652 118.795L96.6173 118.794L96.6694 118.792C99.2203 118.657 101.764 118.395 104.299 118.134C104.436 118.119 104.572 118.105 104.709 118.091L104.731 118.089L104.753 118.086C107.117 117.799 109.461 117.37 111.835 116.879L111.902 116.866L111.968 116.848C113.361 116.475 114.673 115.757 115.765 114.914L115.845 114.852L115.921 114.782C119.708 111.299 118.464 105.312 113.494 103.794L113.483 103.791L113.473 103.787C112.044 103.366 110.715 103.283 109.651 103.216L109.598 103.213C107.312 103.025 105.03 102.855 102.732 102.683C101.553 102.595 100.37 102.507 99.1798 102.416C99.1772 101.977 99.1742 101.545 99.1712 101.118C99.1561 98.9842 99.1419 96.9752 99.1867 94.9092L99.1868 94.9043L99.1869 94.8994C99.2549 91.0067 99.3398 87.0963 99.425 83.1715L99.4278 83.0442C99.5139 79.0783 99.6001 75.098 99.6691 71.1168L99.6694 71.0963V71.0758C99.6694 69.118 99.5268 67.0567 99.1592 65.0388C98.5384 60.4439 94.5231 57.6326 90.0017 58.2943L89.9778 58.2978L89.954 58.3018C86.4107 58.8944 84.2631 61.3565 83.4443 64.4413C82.5832 67.5413 82.0165 70.6841 81.5309 73.7471L81.5278 73.7668L81.525 73.7867C80.2617 82.7316 80.2617 91.7201 80.2617 100.516V100.596C80.2617 102.255 80.4116 103.922 80.7152 105.524Z" fill="#040065" fill-opacity="0.8" style="mix-blend-mode:multiply"/>
<path d="M103.424 100.645C107.764 100.99 111.828 101.267 116.03 101.613C117.133 101.682 118.235 101.751 119.406 102.097C122.575 103.064 123.402 106.798 120.922 109.079C120.026 109.77 118.993 110.324 117.959 110.6C115.617 111.084 113.344 111.499 111.07 111.775C108.384 112.052 105.766 112.328 103.148 112.467C95.2258 112.536 91.0924 109.01 89.6458 101.129C89.3702 99.6768 89.2324 98.1559 89.2324 96.6349C89.2324 87.7857 89.2324 78.9365 90.4724 70.1565C90.9547 67.1146 91.5058 64.0727 92.3325 61.0999C92.9525 58.7493 94.468 57.0901 96.948 56.6753C100.255 56.1913 103.01 58.1962 103.424 61.4455C103.768 63.3122 103.906 65.2479 103.906 67.1146C103.768 75.065 103.561 83.0155 103.424 90.8968C103.355 94.077 103.424 97.188 103.424 100.645Z" fill="#FF5757"/>
<path fill-rule="evenodd" clip-rule="evenodd" d="M90.4704 70.1567C90.9526 67.1148 91.5038 64.0729 92.3304 61.1001C92.9504 58.7496 94.466 57.0904 96.946 56.6756C100.253 56.1916 103.008 58.1965 103.422 61.4458C103.766 63.3124 103.904 65.2482 103.904 67.1148C103.834 71.1339 103.747 75.1529 103.66 79.163C103.575 83.0857 103.49 86.9998 103.422 90.897C103.376 92.9951 103.391 95.063 103.406 97.22C103.414 98.3325 103.422 99.4687 103.422 100.645C105.384 100.801 107.29 100.943 109.178 101.084C111.466 101.255 113.726 101.423 116.028 101.613C117.131 101.682 118.233 101.751 119.404 102.097C122.573 103.065 123.4 106.798 120.92 109.079C120.024 109.771 118.991 110.324 117.957 110.6C115.615 111.084 113.342 111.499 111.068 111.776C110.937 111.789 110.806 111.803 110.675 111.816C108.126 112.079 105.636 112.335 103.146 112.467C95.2238 112.536 91.0904 109.01 89.6437 101.129C89.3682 99.6771 89.2304 98.1561 89.2304 96.6352C89.2304 87.786 89.2304 78.9368 90.4704 70.1567ZM87.3168 101.563C88.0971 105.808 89.6675 109.252 92.441 111.589C95.2247 113.935 98.8676 114.872 103.167 114.834L103.219 114.834L103.271 114.831C105.822 114.696 108.366 114.434 110.9 114.173C111.037 114.158 111.174 114.144 111.311 114.13L111.333 114.128L111.354 114.125C113.719 113.838 116.063 113.409 118.436 112.918L118.503 112.905L118.569 112.887C119.963 112.514 121.274 111.796 122.366 110.953L122.447 110.891L122.522 110.821C126.309 107.338 125.065 101.351 120.095 99.8329L120.085 99.8297L120.074 99.8265C118.645 99.4048 117.316 99.3217 116.252 99.2551L116.199 99.2518C113.913 99.0639 111.632 98.8936 109.333 98.7221C108.155 98.6342 106.972 98.5459 105.781 98.4547C105.779 98.0161 105.776 97.584 105.773 97.1568C105.758 95.0233 105.743 93.0143 105.788 90.9483L105.788 90.9434L105.788 90.9384C105.856 87.0457 105.941 83.1354 106.027 79.2106L106.029 79.0832C106.115 75.1174 106.202 71.1371 106.271 67.1558L106.271 67.1353V67.1148C106.271 65.1571 106.128 63.0957 105.761 61.0779C105.14 56.483 101.125 53.6717 96.6033 54.3334L96.5794 54.3369L96.5555 54.3409C93.0123 54.9335 90.8647 57.3956 90.0458 60.4804C89.1848 63.5803 88.6181 66.7231 88.1325 69.7861L88.1294 69.8059L88.1266 69.8257C86.8633 78.7706 86.8633 87.7591 86.8633 96.5549V96.6352C86.8633 98.2941 87.0131 99.9607 87.3168 101.563Z" fill="#040065"/>
<path fill-rule="evenodd" clip-rule="evenodd" d="M90.4704 70.1567C90.9526 67.1148 91.5038 64.0729 92.3304 61.1001C92.9504 58.7496 94.466 57.0904 96.946 56.6756C100.253 56.1916 103.008 58.1965 103.422 61.4458C103.766 63.3124 103.904 65.2482 103.904 67.1148C103.834 71.1339 103.747 75.1529 103.66 79.163C103.575 83.0857 103.49 86.9998 103.422 90.897C103.376 92.9951 103.391 95.063 103.406 97.22C103.414 98.3325 103.422 99.4687 103.422 100.645C105.384 100.801 107.29 100.943 109.178 101.084C111.466 101.255 113.726 101.423 116.028 101.613C117.131 101.682 118.233 101.751 119.404 102.097C122.573 103.065 123.4 106.798 120.92 109.079C120.024 109.771 118.991 110.324 117.957 110.6C115.615 111.084 113.342 111.499 111.068 111.776C110.937 111.789 110.806 111.803 110.675 111.816C108.126 112.079 105.636 112.335 103.146 112.467C95.2238 112.536 91.0904 109.01 89.6437 101.129C89.3682 99.6771 89.2304 98.1561 89.2304 96.6352C89.2304 87.786 89.2304 78.9368 90.4704 70.1567ZM87.3168 101.563C88.0971 105.808 89.6675 109.252 92.441 111.589C95.2247 113.935 98.8676 114.872 103.167 114.834L103.219 114.834L103.271 114.831C105.822 114.696 108.366 114.434 110.9 114.173C111.037 114.158 111.174 114.144 111.311 114.13L111.333 114.128L111.354 114.125C113.719 113.838 116.063 113.409 118.436 112.918L118.503 112.905L118.569 112.887C119.963 112.514 121.274 111.796 122.366 110.953L122.447 110.891L122.522 110.821C126.309 107.338 125.065 101.351 120.095 99.8329L120.085 99.8297L120.074 99.8265C118.645 99.4048 117.316 99.3217 116.252 99.2551L116.199 99.2518C113.913 99.0639 111.632 98.8936 109.333 98.7221C108.155 98.6342 106.972 98.5459 105.781 98.4547C105.779 98.0161 105.776 97.584 105.773 97.1568C105.758 95.0233 105.743 93.0143 105.788 90.9483L105.788 90.9434L105.788 90.9384C105.856 87.0457 105.941 83.1354 106.027 79.2106L106.029 79.0832C106.115 75.1174 106.202 71.1371 106.271 67.1558L106.271 67.1353V67.1148C106.271 65.1571 106.128 63.0957 105.761 61.0779C105.14 56.483 101.125 53.6717 96.6033 54.3334L96.5794 54.3369L96.5555 54.3409C93.0123 54.9335 90.8647 57.3956 90.0458 60.4804C89.1848 63.5803 88.6181 66.7231 88.1325 69.7861L88.1294 69.8059L88.1266 69.8257C86.8633 78.7706 86.8633 87.7591 86.8633 96.5549V96.6352C86.8633 98.2941 87.0131 99.9607 87.3168 101.563Z" fill="#040065" fill-opacity="0.8" style="mix-blend-mode:multiply"/>
<defs>
<radialGradient id="paint0_radial_27192_50539" cx="0" cy="0" r="1" gradientUnits="userSpaceOnUse" gradientTransform="translate(14.651 58.7042) scale(39.7538 39.2553)">
<stop stop-color="#DFB6C9"/>
<stop offset="0.99" stop-color="#BB96BB"/>
</radialGradient>
<linearGradient id="paint1_linear_27192_50539" x1="154.611" y1="-18.5297" x2="20.3493" y2="99.3931" gradientUnits="userSpaceOnUse">
<stop stop-color="#FCF0E1"/>
<stop offset="1" stop-color="#E8C1C0"/>
</linearGradient>
<linearGradient id="paint2_linear_27192_50539" x1="157.864" y1="-20.0275" x2="19.89" y2="101.156" gradientUnits="userSpaceOnUse">
<stop stop-color="#FCF0E1"/>
<stop offset="1" stop-color="#E8C1C0"/>
</linearGradient>
<linearGradient id="paint3_linear_27192_50539" x1="79.6038" y1="41.7717" x2="34.2561" y2="102.426" gradientUnits="userSpaceOnUse">
<stop stop-color="#FCF0E1"/>
<stop offset="1" stop-color="#E8C1C0"/>
</linearGradient>
</defs>
</svg>
