<svg width="29" height="29" viewBox="0 0 29 29" fill="none" xmlns="http://www.w3.org/2000/svg">
<circle cx="14.5" cy="14.5" r="14.5" fill="#FFEBEB"/>
<path d="M13.2158 4.922C13.4918 4.117 14.0668 3.703 14.8488 3.749C15.5848 3.772 16.1828 4.209 16.4128 5.037C16.5738 5.658 16.6428 6.325 16.6658 6.923C16.8498 10.672 16.1828 14.329 15.9758 17.917C15.9298 18.699 15.5158 19.251 14.8488 19.366C14.2738 19.481 13.5838 19.228 13.3078 18.538C11.9048 15.134 11.9048 8.602 13.2158 4.922ZM13.1008 22.402C13.1008 21.459 13.8598 20.677 14.8488 20.654C15.8148 20.654 16.5968 21.413 16.6198 22.31C16.6888 23.299 15.8608 24.15 14.8718 24.15C13.9288 24.15 13.1468 23.391 13.1008 22.402Z" fill="#FF5757"/>
</svg>
