<svg width="84" height="75" viewBox="0 0 84 75" fill="none" xmlns="http://www.w3.org/2000/svg">
<g filter="url(#filter0_d_27303_79690)">
<circle cx="65.5" cy="19.5" r="14.5" fill="#FFEBEB"/>
<path d="M60.6248 21.677C60.4872 22.1785 60.1368 22.3791 59.6864 22.2358C59.4863 22.1785 59.2986 22.1068 59.0984 22.0352C58.3853 21.8633 57.8348 22.68 58.06 23.5397C58.1851 23.9696 58.3978 24.3134 58.673 24.5284C59.7365 25.4167 61.2879 25.2018 62.1637 24.0699C62.7016 23.3534 63.0394 22.4794 63.1646 21.505C63.3772 20.0149 63.4148 17.0202 62.6641 15.5873C61.7258 13.6243 59.774 13.3664 58.5604 14.9855C57.9224 15.8739 57.6471 16.9056 57.6972 18.1092C57.7847 20.0435 59.0233 21.5767 60.6248 21.677ZM60.8124 16.8339C61.1878 17.8656 60.9 19.6567 60.287 19.7283C59.6239 19.7999 59.1485 18.4244 59.2611 17.4214C59.3737 16.5617 60.3996 15.5444 60.8124 16.8339Z" fill="#F94E4E"/>
<path d="M66.8071 21.677C66.6694 22.1785 66.3191 22.3791 65.8687 22.2358C65.6685 22.1785 65.4809 22.1068 65.2807 22.0352C64.5676 21.8633 64.0171 22.68 64.2423 23.5397C64.3674 23.9696 64.5801 24.3134 64.8553 24.5284C65.9188 25.4167 67.4702 25.2018 68.3459 24.0699C68.8839 23.3534 69.2217 22.4794 69.3468 21.505C69.5595 20.0149 69.5971 17.0202 68.8464 15.5873C67.9081 13.6243 65.9563 13.3664 64.7427 14.9855C64.1047 15.8739 63.8294 16.9056 63.8794 18.1092C63.967 20.0435 65.2056 21.5767 66.8071 21.677ZM66.9947 16.8339C67.3701 17.8656 67.0823 19.6567 66.4693 19.7283C65.8062 19.7999 65.3307 18.4244 65.4433 17.4214C65.5559 16.5617 66.5819 15.5444 66.9947 16.8339Z" fill="#F94E4E"/>
<path d="M73.5524 20.0435C73.6524 20.0149 73.74 20.0005 74.9161 19.9576C75.2414 19.9289 75.4916 19.714 75.5291 19.3271C75.6167 18.711 75.0037 18.5963 74.5658 18.5534C74.2905 18.496 73.9902 18.4817 73.7025 18.4387C73.7025 18.2381 73.7025 18.0662 73.6775 17.9229C73.6274 17.6363 73.5774 17.3354 73.4773 17.0775C73.3772 16.8053 73.1395 16.6477 72.8517 16.662C72.5515 16.6763 72.3388 16.8769 72.2137 17.1921C72.1636 17.3784 72.1386 17.579 72.1261 17.7939C72.1011 17.9945 72.0885 18.1522 72.0635 18.3528C71.8759 18.3528 71.7382 18.3671 71.5881 18.3671C71.3504 18.3814 71.0877 18.3671 70.8374 18.3957C70.4871 18.4387 70.2244 18.754 70.1868 19.1265C70.1368 19.5277 70.337 19.8859 70.7373 20.0149C70.8499 20.0579 70.9625 20.0865 71.0751 20.0865C71.4255 20.1295 71.7507 20.1295 72.1011 20.1438C72.1136 20.502 72.1136 20.8459 72.1261 21.1468C72.1511 21.4764 72.3137 21.677 72.564 21.7916C72.8142 21.8919 73.1145 21.7916 73.2646 21.505C73.3647 21.3474 73.4272 21.1325 73.4648 20.9319C73.5148 20.631 73.5273 20.3301 73.5524 20.0435Z" fill="#F94E4E"/>
</g>
<defs>
<filter id="filter0_d_27303_79690" x="41" y="0" width="49" height="49" filterUnits="userSpaceOnUse" color-interpolation-filters="sRGB">
<feFlood flood-opacity="0" result="BackgroundImageFix"/>
<feColorMatrix in="SourceAlpha" type="matrix" values="0 0 0 0 0 0 0 0 0 0 0 0 0 0 0 0 0 0 127 0" result="hardAlpha"/>
<feOffset dy="5"/>
<feGaussianBlur stdDeviation="5"/>
<feColorMatrix type="matrix" values="0 0 0 0 0 0 0 0 0 0 0 0 0 0 0 0 0 0 0.15 0"/>
<feBlend mode="normal" in2="BackgroundImageFix" result="effect1_dropShadow_27303_79690"/>
<feBlend mode="normal" in="SourceGraphic" in2="effect1_dropShadow_27303_79690" result="shape"/>
</filter>
</defs>
</svg>
