<svg width="87" height="168" viewBox="0 0 87 168" fill="none" xmlns="http://www.w3.org/2000/svg">
<path d="M77.5617 157.612L78.3823 164H72.3647H59.2706L58.2559 157.612H71.447H77.5617Z" fill="#934622"/>
<path d="M41.1116 30.4226C41.2881 27.3918 41.4645 24.3785 41.6145 21.3301C42.4263 25.0393 43.2557 28.8103 44.0586 32.449C41.3763 32.5812 38.7116 32.731 36.0469 32.8191C36.1086 32.3785 36.1969 31.9468 36.2675 31.5063C37.8822 31.3301 39.6292 31.0305 41.1204 30.4138L41.1116 30.4226Z" fill="#B56843"/>
<path d="M50.0679 41.9647C48.9297 44.0352 46.812 47.2863 44.6326 46.3259C43.1503 45.6739 42.012 44.2731 41.6855 42.6783C42.1444 42.1321 42.7532 41.7797 43.4414 41.5682C44.2797 41.3127 45.2503 41.2598 46.2385 41.3303C47.5708 41.4096 48.9297 41.7092 50.0767 41.9647H50.0679Z" fill="white"/>
<path d="M46.9885 42.9074C46.9885 44.0264 46.0797 44.925 44.9591 44.925C43.8385 44.925 42.9297 44.0176 42.9297 42.9074C42.9297 42.3964 43.1238 41.9295 43.4326 41.5682C44.2709 41.3127 45.2415 41.2598 46.2297 41.3303C46.6885 41.7004 46.9797 42.2731 46.9797 42.9074H46.9885Z" fill="#512B21"/>
<path d="M7 42.4667C11.0588 41.9205 15.2765 42.2905 19.1676 43.6209C19.8471 45.1451 20.2618 46.828 20.2794 48.4227C16.8471 48.7046 13.4235 48.687 9.99118 48.405C8.85294 46.5108 7.84706 44.5196 7 42.4755L7 42.4667Z" fill="#512B21"/>
<path d="M36.6379 63.8147C34.979 67.3918 33.4261 71.4271 31.7673 75.0042C31.3702 72.4491 30.6114 70.5372 30.1967 67.9998C28.5996 66.7134 26.8349 65.383 25.2202 64.0967C25.4849 63.0482 25.7408 62.0262 25.9879 61.0042C25.529 60.8279 25.0702 60.6517 24.5938 60.502C28.7408 61.0218 32.8261 62.1583 36.6467 63.8147H36.6379Z" fill="#C57029"/>
<path d="M64.0005 45.2948C67.1417 52.2728 68.8888 60.2111 69.8329 67.797C67.7329 70.2816 65.7741 72.9248 63.6917 75.4094C59.6505 76.59 55.7417 78.308 52.1152 80.4666C56.1123 75.4975 60.2594 70.3873 64.2388 65.4182C63.127 56.6693 61.4241 46.9424 58.8917 37.1362C60.0299 38.8984 61.6623 40.6517 62.8005 42.4314C63.4094 40.3345 64.027 38.2199 64.6358 36.1318C65.1123 38.6428 65.5535 41.1451 65.9064 43.6296C65.2094 44.1759 64.7064 44.7221 64.0094 45.286L64.0005 45.2948Z" fill="#934622"/>
<path d="M67.5815 79.8857C70.7933 85.1633 73.1315 91.269 75.1168 97.1104C74.0668 102.168 72.8668 107.207 71.5168 112.203C72.1697 105.577 72.1962 98.7668 69.4874 92.899C68.0227 89.736 66.1433 86.617 63.7256 84.106C60.4697 84.7844 57.2139 85.454 53.9668 86.1148C57.5668 83.736 61.2639 81.5157 65.0403 79.4893C65.0844 79.5509 65.1021 79.6214 65.1462 79.6831C65.8874 79.595 66.8491 79.965 67.5903 79.8769L67.5815 79.8857Z" fill="#934622"/>
<path d="M50.5713 157.612H74.0684C74.2184 157.33 74.3684 157.04 74.5184 156.749C74.589 156.625 74.6507 156.502 74.7125 156.37C74.7125 156.361 74.7213 156.352 74.7302 156.344C75.189 155.445 75.6213 154.537 76.036 153.621C76.2478 153.172 76.4419 152.714 76.636 152.255C77.1743 151.013 77.6772 149.753 78.1537 148.485C78.2596 148.194 78.3654 147.894 78.4713 147.603C79.186 145.621 79.8213 143.603 80.4037 141.586C80.4919 141.286 80.5802 140.987 80.6596 140.678C80.7831 140.229 80.9066 139.78 81.0213 139.33C81.1272 138.934 81.2243 138.537 81.3213 138.15C81.4713 137.524 81.6213 136.899 81.7625 136.273C81.8419 135.929 81.9213 135.595 81.9919 135.251C78.7625 129.515 74.439 124.088 69.2331 120.026C69.189 120.185 69.136 120.344 69.0831 120.493C69.0125 120.74 68.9419 120.987 68.8537 121.233C68.6684 121.806 68.4743 122.37 68.2537 122.943L68.2184 123.048C68.2096 123.101 68.1831 123.163 68.1566 123.216C68.1125 123.339 68.086 123.41 68.086 123.41L68.0684 123.436C63.9213 134.696 56.6066 145.692 51.1978 156.335C51.1978 156.335 51.1978 156.344 51.189 156.352C51.1272 156.476 51.0654 156.608 50.9949 156.731L50.5625 157.603L50.5713 157.612Z" fill="#ED9D6D"/>
<path d="M69.2418 120.035C69.1095 120.458 68.0948 123.418 68.0948 123.418L48.3301 157.797C49.4683 160.379 59.5095 156.969 58.2477 157.612H74.0683C77.8007 150.634 80.2889 142.978 82.0007 135.26C78.7713 129.524 74.4477 124.097 69.2418 120.035Z" fill="#934622"/>
<path d="M71.9947 136.502C71.933 142.326 71.3859 148.37 69.5947 153.885C66.8859 153.797 63.7888 153.145 61.0977 153.057C61.8653 150.528 63.5682 148.299 65.8359 146.907C66.8153 142.978 68.9594 139.233 71.9947 136.502Z" fill="#C57029"/>
<path d="M41.6156 21.3302C41.4656 24.3874 41.2892 27.3918 41.1127 30.4227C39.6304 31.0306 37.8833 31.339 36.2598 31.5152C37.1951 26.3698 38.6421 21.3302 40.5656 16.4932C40.8921 18.0879 41.2451 19.7002 41.6156 21.339V21.3302Z" fill="#E68E35"/>
<path d="M10.0001 48.3965C10.0619 48.4934 10.1237 48.5991 10.1854 48.696C11.1648 50.2996 12.2413 51.8414 13.4237 53.304C14.3148 54.4229 15.2854 55.4978 16.3001 56.5022C16.3001 56.9868 16.3796 57.3921 16.4237 57.815C16.4501 58.0441 16.4766 58.2819 16.4766 58.5374C19.2031 58.9075 21.9737 59.5859 24.5766 60.5022C28.7325 61.022 32.809 62.1586 36.6384 63.815C36.4354 64.2467 36.2413 64.6872 36.0384 65.1278C35.8354 65.5771 35.6413 66.0264 35.4472 66.4758C35.3766 66.6344 35.3148 66.7929 35.2443 66.9427C34.5207 68.6255 33.806 70.3524 33.0825 72.0352C33.0472 72.1145 33.0119 72.2026 32.9678 72.2819C32.7913 72.696 32.606 73.1189 32.4207 73.533C32.4031 73.5683 32.3943 73.6035 32.3766 73.6388C32.1825 74.1057 31.9707 74.5551 31.759 74.9956C31.7325 74.8018 31.6972 74.6167 31.6619 74.4317C31.6354 74.3084 31.6178 74.185 31.5913 74.0705C31.5296 73.7709 31.4678 73.4714 31.406 73.1806C31.3443 72.8987 31.2737 72.6079 31.1943 72.326C31.0972 71.9559 31.0001 71.5859 30.9031 71.2247C30.859 71.0308 30.806 70.8458 30.7619 70.652C30.7178 70.511 30.6825 70.37 30.6472 70.2291C30.5766 69.9471 30.506 69.6564 30.4443 69.3656C30.409 69.2247 30.3825 69.0661 30.3472 68.9163C30.2854 68.6167 30.2237 68.3172 30.1707 68C29.5707 67.5154 28.9531 67.022 28.3266 66.5286C28.0001 66.2731 27.6737 66.0176 27.3384 65.7621C27.2413 65.6828 27.1531 65.6211 27.056 65.5507L26.4296 65.0661C26.3678 65.0132 26.3148 64.9692 26.2531 64.9251C25.8913 64.6432 25.5384 64.37 25.1943 64.0881C24.8413 65.5507 24.4707 67.0396 24.1178 68.4934C23.9943 69.0308 23.8619 69.5683 23.7384 70.0881C24.7001 70.9604 25.4854 72.185 26.4648 73.0573C26.4207 73.1454 26.3854 73.2335 26.3413 73.3216C29.4825 77.3128 33.0207 80.978 36.8413 84.3084C39.6207 82.0793 43.7854 81.9295 46.406 84.3965C48.2237 82.9604 50.1207 81.6476 52.106 80.467C52.609 79.8502 53.1031 79.2159 53.606 78.5903C53.8354 78.3084 54.0648 78.0176 54.2943 77.7357C55.9354 75.7004 57.5854 73.6564 59.2354 71.6123C60.9119 69.5419 62.5707 67.4714 64.2119 65.4273C64.0443 64.0881 63.859 62.7225 63.656 61.3392C63.5943 60.8634 63.5237 60.3877 63.4443 59.9031C63.409 59.6652 63.3737 59.4273 63.3295 59.1806C63.2943 58.9339 63.259 58.696 63.2237 58.4581C63.1443 57.9383 63.0648 57.4185 62.9766 56.8987C62.9148 56.5198 62.8531 56.1322 62.7825 55.7533C62.756 55.5771 62.7207 55.4009 62.6943 55.2159C62.6148 54.7665 62.5443 54.3172 62.4648 53.8678C62.3854 53.4185 62.306 52.9692 62.2178 52.511C62.0766 51.6916 61.9178 50.8722 61.759 50.0441C61.7501 50 61.7413 49.9471 61.7325 49.9031C61.5031 48.7048 61.256 47.4978 61.0001 46.2996C60.7443 45.0925 60.4795 43.8767 60.1972 42.652C60.0648 42.0617 59.9237 41.4626 59.7825 40.8634C59.6148 40.1762 59.4472 39.4802 59.2707 38.7841C59.1384 38.2467 58.9972 37.7093 58.856 37.163C58.9972 37.3745 59.1384 37.5947 59.2972 37.8062C60.3825 39.348 61.759 40.8811 62.756 42.4493C63.3648 40.3524 63.9825 38.2467 64.5913 36.141C63.1001 28.6696 61.0972 21.1101 58.8472 14C58.459 15.4449 58.0266 16.8899 57.5501 18.3348C55.9884 23.0925 53.9854 27.815 51.5678 32.1322C51.3913 32.1322 51.206 32.1322 51.0207 32.141C48.7001 32.2026 46.3619 32.3348 44.0148 32.4582C41.3237 32.5815 38.6678 32.7401 36.0031 32.8282C35.6325 32.8458 35.2619 32.8458 34.8913 32.8722C32.8354 36.2907 30.9119 39.6211 28.8648 43.0396C26.8001 43.1101 23.6678 43.3568 21.5766 43.5242C20.306 43.6388 19.4148 43.7181 19.4148 43.7181C19.3178 43.674 19.2119 43.6564 19.1325 43.63C19.8031 45.1542 20.2266 46.837 20.2443 48.4229C16.8207 48.7048 13.3884 48.6872 9.96484 48.4053L10.0001 48.3965ZM46.856 41.3833C47.156 41.4097 47.4384 41.4537 47.7295 41.4978C48.5501 41.6211 49.3531 41.7974 50.0678 41.9648C50.0325 42.0264 49.9972 42.0881 49.9619 42.1586C49.9354 42.2203 49.9001 42.2731 49.8648 42.3348C49.8031 42.4493 49.7325 42.5639 49.6619 42.6784C49.5913 42.8018 49.5207 42.9251 49.4413 43.0396C49.2825 43.304 49.106 43.5595 48.9296 43.815C48.8854 43.8767 48.8413 43.9383 48.7972 44C48.7178 44.1145 48.6384 44.2115 48.5678 44.3172L48.4266 44.4934C48.3296 44.6079 48.2413 44.7225 48.1443 44.837C48.1266 44.8634 48.1001 44.8811 48.0825 44.9075C47.8354 45.1894 47.5707 45.4537 47.306 45.6828C47.2795 45.7092 47.2443 45.7269 47.2266 45.7533C47.1207 45.8326 47.0237 45.9119 46.9178 45.9824C46.856 46.0176 46.8031 46.0529 46.759 46.0881C46.706 46.1233 46.6443 46.1498 46.6001 46.185C46.5384 46.2203 46.4943 46.2467 46.4325 46.2731C46.2737 46.3524 46.0972 46.4141 45.9296 46.4493C45.8854 46.4582 45.8325 46.4758 45.7795 46.4758C45.4001 46.5374 45.0207 46.5022 44.6325 46.3348C44.5354 46.2907 44.4472 46.2467 44.359 46.2026C44.2795 46.1674 44.209 46.1233 44.1384 46.0793C44.059 46.0352 43.9795 45.9824 43.9001 45.9383C43.8207 45.8855 43.7413 45.8238 43.6619 45.7709C43.5913 45.7181 43.5207 45.6652 43.459 45.6123C43.3796 45.5507 43.3178 45.489 43.2472 45.4273C43.2031 45.3921 43.1678 45.348 43.1237 45.3128C43.0795 45.2775 43.0443 45.2335 43.009 45.1982C42.956 45.1454 42.9031 45.0925 42.859 45.0396C42.7354 44.8987 42.6207 44.7489 42.5148 44.5991C42.4619 44.5198 42.409 44.4493 42.3648 44.37C42.3031 44.2731 42.2413 44.1762 42.1884 44.0705C42.1266 43.9648 42.0737 43.8678 42.0295 43.7533C41.9854 43.6564 41.9413 43.5595 41.906 43.4537C41.8619 43.3392 41.8178 43.2247 41.7825 43.1013C41.7384 42.9692 41.7031 42.837 41.6766 42.7048C41.7384 42.6432 41.7913 42.5815 41.8531 42.5198C41.8884 42.4758 41.9237 42.4405 41.9678 42.4141C41.9943 42.3877 42.0295 42.3524 42.056 42.3348C42.1266 42.2731 42.1972 42.2203 42.2678 42.1762C42.3648 42.0969 42.4707 42.0352 42.5854 41.9736C42.5854 41.9736 42.6031 41.9648 42.6119 41.9559C42.7266 41.8943 42.8325 41.8414 42.9472 41.7885C42.9472 41.7885 42.9913 41.7621 43.0178 41.7621C43.0795 41.7357 43.1325 41.7093 43.1854 41.6916C43.2648 41.6564 43.3531 41.63 43.4413 41.6035C43.5913 41.5507 43.759 41.5066 43.9178 41.4802C44.0678 41.4449 44.2178 41.4185 44.3766 41.4009C44.5354 41.3833 44.6943 41.3656 44.8443 41.3568C44.9237 41.3568 45.0031 41.348 45.0825 41.348C45.1266 41.348 45.1619 41.348 45.206 41.348C45.2413 41.348 45.2854 41.348 45.3119 41.348H45.5943C45.7266 41.348 45.859 41.348 46.0001 41.3656C46.0707 41.3656 46.1501 41.3656 46.2295 41.3744C46.3884 41.3833 46.5648 41.4009 46.7325 41.4185C46.7678 41.4185 46.7943 41.4185 46.8295 41.4185H46.856V41.3833Z" fill="#E68E35"/>
<path d="M64.5469 164H58.1498L54.3027 155.921L62.5086 157.613L64.5469 164Z" fill="#C57029"/>
<path d="M24.5597 163.771L24.4891 164H60.8156L60.6567 163.648L58.442 158.74L57.9303 157.612H57.9126L56.0861 156.74H56.0773L55.2744 156.361H55.2656L55.2214 156.344L54.3303 155.929C60.1273 144.203 64.9979 133.621 68.8891 121.251C68.9773 121.004 69.0479 120.758 69.1185 120.511C69.1714 120.352 69.2244 120.194 69.2685 120.044C70.0714 117.454 70.8214 114.837 71.5361 112.211C72.1891 105.586 72.2156 98.7753 69.5067 92.9162C68.042 89.7533 66.1714 86.6343 63.745 84.1233C62.9156 84.2995 62.0861 84.4669 61.2567 84.6431C60.4538 84.8105 59.6597 84.9779 58.8656 85.1365C57.242 85.4713 55.6097 85.8061 53.9861 86.1321C52.3008 87.2246 50.6597 88.3612 49.0273 89.533C49.4597 91.6475 49.3097 93.9207 48.6567 95.8325C47.4391 99.4361 43.0714 104.361 38.7656 102.423C37.442 101.833 36.3744 100.546 35.5626 99.0572C34.6361 97.3568 34.045 95.4185 33.7891 93.9383C33.7538 93.7621 33.7273 93.5682 33.7097 93.3744C33.6656 92.9779 33.6391 92.5638 33.6391 92.1497H33.6126C32.9067 91.5154 32.2361 90.8458 31.592 90.1409C31.4508 89.9911 31.3097 89.8325 31.1685 89.674C30.9214 89.392 30.6744 89.1101 30.445 88.8193C30.3126 88.6607 30.1803 88.5021 30.0567 88.3436C29.9597 88.229 29.8714 88.1145 29.7832 87.9999C29.7567 87.9735 29.7391 87.9471 29.7214 87.9207C29.6244 87.8061 29.545 87.6916 29.4567 87.577C29.4303 87.5506 29.4038 87.5154 29.3861 87.4801C29.3067 87.3744 29.2273 87.2775 29.1567 87.1806C29.0773 87.0748 29.0067 86.9779 28.9361 86.8722C28.7597 86.6255 28.5832 86.3876 28.4244 86.1321C28.3626 86.0528 28.3185 85.9735 28.2656 85.8942C28.142 85.718 28.0273 85.533 27.9126 85.3392C27.6744 84.9691 27.445 84.5903 27.2244 84.2114C27.0656 83.9383 26.9067 83.6651 26.7567 83.392C26.6156 83.1189 26.4567 82.837 26.3244 82.555C25.7067 81.3568 25.1773 80.1233 24.7185 78.8546C24.5685 78.4493 24.4273 78.0352 24.295 77.6211C24.2685 77.6651 24.2509 77.7092 24.2244 77.7444C23.0067 78.1762 21.4979 78.5462 20.2979 78.9867C16.9361 83.7004 14.395 89.1806 13.2832 94.8634C17.0773 113.656 21.6038 135.762 29.9685 155.912L29.1303 156.326H29.0861L28.3361 156.714H28.3273L26.5626 157.595L24.6038 163.762L24.5597 163.771Z" fill="#E68E35"/>
<path style="mix-blend-mode:overlay" opacity="0.6" d="M10.0001 48.3965C10.0619 48.4934 10.1237 48.5991 10.1854 48.696C11.1648 50.2996 12.2413 51.8414 13.4237 53.304C14.3148 54.4229 15.2854 55.4978 16.3001 56.5022C16.3001 56.9868 16.3796 57.3921 16.4237 57.815C16.4501 58.0441 16.4766 58.2819 16.4766 58.5374C19.2031 58.9075 21.9737 59.5859 24.5766 60.5022C28.7325 61.022 32.809 62.1586 36.6384 63.815C36.4354 64.2467 36.2413 64.6872 36.0384 65.1278C35.8354 65.5771 35.6413 66.0264 35.4472 66.4758C35.3766 66.6344 35.3148 66.7929 35.2443 66.9427C34.5207 68.6255 33.806 70.3524 33.0825 72.0352C33.0472 72.1145 33.0119 72.2026 32.9678 72.2819C32.7913 72.696 32.606 73.1189 32.4207 73.533C32.4031 73.5683 32.3943 73.6035 32.3766 73.6388C32.1825 74.1057 31.9707 74.5551 31.759 74.9956C31.7325 74.8018 31.6972 74.6167 31.6619 74.4317C31.6354 74.3084 31.6178 74.185 31.5913 74.0705C31.5296 73.7709 31.4678 73.4714 31.406 73.1806C31.3443 72.8987 31.2737 72.6079 31.1943 72.326C31.0972 71.9559 31.0001 71.5859 30.9031 71.2247C30.859 71.0308 30.806 70.8458 30.7619 70.652C30.7178 70.511 30.6825 70.37 30.6472 70.2291C30.5766 69.9471 30.506 69.6564 30.4443 69.3656C30.409 69.2247 30.3825 69.0661 30.3472 68.9163C30.2854 68.6167 30.2237 68.3172 30.1707 68C29.5707 67.5154 28.9531 67.022 28.3266 66.5286C28.0001 66.2731 27.6737 66.0176 27.3384 65.7621C27.2413 65.6828 27.1531 65.6211 27.056 65.5507L26.4296 65.0661C26.3678 65.0132 26.3148 64.9692 26.2531 64.9251C25.8913 64.6432 25.5384 64.37 25.1943 64.0881C24.8413 65.5507 24.4707 67.0396 24.1178 68.4934C23.9943 69.0308 23.8619 69.5683 23.7384 70.0881C24.7001 70.9604 25.4854 72.185 26.4648 73.0573C26.4207 73.1454 26.3854 73.2335 26.3413 73.3216C29.4825 77.3128 33.0207 80.978 36.8413 84.3084C39.6207 82.0793 43.7854 81.9295 46.406 84.3965C48.2237 82.9604 50.1207 81.6476 52.106 80.467C52.609 79.8502 53.1031 79.2159 53.606 78.5903C53.8354 78.3084 54.0648 78.0176 54.2943 77.7357C55.9354 75.7004 57.5854 73.6564 59.2354 71.6123C60.9119 69.5419 62.5707 67.4714 64.2119 65.4273C64.0443 64.0881 63.859 62.7225 63.656 61.3392C63.5943 60.8634 63.5237 60.3877 63.4443 59.9031C63.409 59.6652 63.3737 59.4273 63.3295 59.1806C63.2943 58.9339 63.259 58.696 63.2237 58.4581C63.1443 57.9383 63.0648 57.4185 62.9766 56.8987C62.9148 56.5198 62.8531 56.1322 62.7825 55.7533C62.756 55.5771 62.7207 55.4009 62.6943 55.2159C62.6148 54.7665 62.5443 54.3172 62.4648 53.8678C62.3854 53.4185 62.306 52.9692 62.2178 52.511C62.0766 51.6916 61.9178 50.8722 61.759 50.0441C61.7501 50 61.7413 49.9471 61.7325 49.9031C61.5031 48.7048 61.256 47.4978 61.0001 46.2996C60.7443 45.0925 60.4795 43.8767 60.1972 42.652C60.0648 42.0617 59.9237 41.4626 59.7825 40.8634C59.6148 40.1762 59.4472 39.4802 59.2707 38.7841C59.1384 38.2467 58.9972 37.7093 58.856 37.163C58.9972 37.3745 59.1384 37.5947 59.2972 37.8062C60.3825 39.348 61.759 40.8811 62.756 42.4493C63.3648 40.3524 63.9825 38.2467 64.5913 36.141C63.1001 28.6696 61.0972 21.1101 58.8472 14C58.459 15.4449 58.0266 16.8899 57.5501 18.3348C55.9884 23.0925 53.9854 27.815 51.5678 32.1322C51.3913 32.1322 51.206 32.1322 51.0207 32.141C48.7001 32.2026 46.3619 32.3348 44.0148 32.4582C41.3237 32.5815 38.6678 32.7401 36.0031 32.8282C35.6325 32.8458 35.2619 32.8458 34.8913 32.8722C32.8354 36.2907 30.9119 39.6211 28.8648 43.0396C26.8001 43.1101 23.6678 43.3568 21.5766 43.5242C20.306 43.6388 19.4148 43.7181 19.4148 43.7181C19.3178 43.674 19.2119 43.6564 19.1325 43.63C19.8031 45.1542 20.2266 46.837 20.2443 48.4229C16.8207 48.7048 13.3884 48.6872 9.96484 48.4053L10.0001 48.3965ZM46.856 41.3833C47.156 41.4097 47.4384 41.4537 47.7295 41.4978C48.5501 41.6211 49.3531 41.7974 50.0678 41.9648C50.0325 42.0264 49.9972 42.0881 49.9619 42.1586C49.9354 42.2203 49.9001 42.2731 49.8648 42.3348C49.8031 42.4493 49.7325 42.5639 49.6619 42.6784C49.5913 42.8018 49.5207 42.9251 49.4413 43.0396C49.2825 43.304 49.106 43.5595 48.9296 43.815C48.8854 43.8767 48.8413 43.9383 48.7972 44C48.7178 44.1145 48.6384 44.2115 48.5678 44.3172L48.4266 44.4934C48.3296 44.6079 48.2413 44.7225 48.1443 44.837C48.1266 44.8634 48.1001 44.8811 48.0825 44.9075C47.8354 45.1894 47.5707 45.4537 47.306 45.6828C47.2795 45.7092 47.2443 45.7269 47.2266 45.7533C47.1207 45.8326 47.0237 45.9119 46.9178 45.9824C46.856 46.0176 46.8031 46.0529 46.759 46.0881C46.706 46.1233 46.6443 46.1498 46.6001 46.185C46.5384 46.2203 46.4943 46.2467 46.4325 46.2731C46.2737 46.3524 46.0972 46.4141 45.9296 46.4493C45.8854 46.4582 45.8325 46.4758 45.7795 46.4758C45.4001 46.5374 45.0207 46.5022 44.6325 46.3348C44.5354 46.2907 44.4472 46.2467 44.359 46.2026C44.2795 46.1674 44.209 46.1233 44.1384 46.0793C44.059 46.0352 43.9795 45.9824 43.9001 45.9383C43.8207 45.8855 43.7413 45.8238 43.6619 45.7709C43.5913 45.7181 43.5207 45.6652 43.459 45.6123C43.3796 45.5507 43.3178 45.489 43.2472 45.4273C43.2031 45.3921 43.1678 45.348 43.1237 45.3128C43.0795 45.2775 43.0443 45.2335 43.009 45.1982C42.956 45.1454 42.9031 45.0925 42.859 45.0396C42.7354 44.8987 42.6207 44.7489 42.5148 44.5991C42.4619 44.5198 42.409 44.4493 42.3648 44.37C42.3031 44.2731 42.2413 44.1762 42.1884 44.0705C42.1266 43.9648 42.0737 43.8678 42.0295 43.7533C41.9854 43.6564 41.9413 43.5595 41.906 43.4537C41.8619 43.3392 41.8178 43.2247 41.7825 43.1013C41.7384 42.9692 41.7031 42.837 41.6766 42.7048C41.7384 42.6432 41.7913 42.5815 41.8531 42.5198C41.8884 42.4758 41.9237 42.4405 41.9678 42.4141C41.9943 42.3877 42.0295 42.3524 42.056 42.3348C42.1266 42.2731 42.1972 42.2203 42.2678 42.1762C42.3648 42.0969 42.4707 42.0352 42.5854 41.9736C42.5854 41.9736 42.6031 41.9648 42.6119 41.9559C42.7266 41.8943 42.8325 41.8414 42.9472 41.7885C42.9472 41.7885 42.9913 41.7621 43.0178 41.7621C43.0795 41.7357 43.1325 41.7093 43.1854 41.6916C43.2648 41.6564 43.3531 41.63 43.4413 41.6035C43.5913 41.5507 43.759 41.5066 43.9178 41.4802C44.0678 41.4449 44.2178 41.4185 44.3766 41.4009C44.5354 41.3833 44.6943 41.3656 44.8443 41.3568C44.9237 41.3568 45.0031 41.348 45.0825 41.348C45.1266 41.348 45.1619 41.348 45.206 41.348C45.2413 41.348 45.2854 41.348 45.3119 41.348H45.5943C45.7266 41.348 45.859 41.348 46.0001 41.3656C46.0707 41.3656 46.1501 41.3656 46.2295 41.3744C46.3884 41.3833 46.5648 41.4009 46.7325 41.4185C46.7678 41.4185 46.7943 41.4185 46.8295 41.4185H46.856V41.3833Z" fill="url(#paint0_linear_27462_79700)"/>
<path style="mix-blend-mode:overlay" opacity="0.6" d="M24.5597 163.771L24.4891 164H60.8156L60.6567 163.648L58.442 158.74L57.9303 157.612H57.9126L56.0861 156.74H56.0773L55.2744 156.361H55.2656L55.2214 156.344L54.3303 155.929C60.1273 144.203 64.9979 133.621 68.8891 121.251C68.9773 121.004 69.0479 120.758 69.1185 120.511C69.1714 120.352 69.2244 120.194 69.2685 120.044C70.0714 117.454 70.8214 114.837 71.5361 112.211C72.1891 105.586 72.2156 98.7753 69.5067 92.9162C68.042 89.7533 66.1714 86.6343 63.745 84.1233C62.9156 84.2995 62.0861 84.4669 61.2567 84.6431C60.4538 84.8105 59.6597 84.9779 58.8656 85.1365C57.242 85.4713 55.6097 85.8061 53.9861 86.1321C52.3008 87.2246 50.6597 88.3612 49.0273 89.533C49.4597 91.6475 49.3097 93.9207 48.6567 95.8325C47.4391 99.4361 43.0714 104.361 38.7656 102.423C37.442 101.833 36.3744 100.546 35.5626 99.0572C34.6361 97.3568 34.045 95.4185 33.7891 93.9383C33.7538 93.7621 33.7273 93.5682 33.7097 93.3744C33.6656 92.9779 33.6391 92.5638 33.6391 92.1497H33.6126C32.9067 91.5154 32.2361 90.8458 31.592 90.1409C31.4508 89.9911 31.3097 89.8325 31.1685 89.674C30.9214 89.392 30.6744 89.1101 30.445 88.8193C30.3126 88.6607 30.1803 88.5021 30.0567 88.3436C29.9597 88.229 29.8714 88.1145 29.7832 87.9999C29.7567 87.9735 29.7391 87.9471 29.7214 87.9207C29.6244 87.8061 29.545 87.6916 29.4567 87.577C29.4303 87.5506 29.4038 87.5154 29.3861 87.4801C29.3067 87.3744 29.2273 87.2775 29.1567 87.1806C29.0773 87.0748 29.0067 86.9779 28.9361 86.8722C28.7597 86.6255 28.5832 86.3876 28.4244 86.1321C28.3626 86.0528 28.3185 85.9735 28.2656 85.8942C28.142 85.718 28.0273 85.533 27.9126 85.3392C27.6744 84.9691 27.445 84.5903 27.2244 84.2114C27.0656 83.9383 26.9067 83.6651 26.7567 83.392C26.6156 83.1189 26.4567 82.837 26.3244 82.555C25.7067 81.3568 25.1773 80.1233 24.7185 78.8546C24.5685 78.4493 24.4273 78.0352 24.295 77.6211C24.2685 77.6651 24.2509 77.7092 24.2244 77.7444C23.0067 78.1762 21.4979 78.5462 20.2979 78.9867C16.9361 83.7004 14.395 89.1806 13.2832 94.8634C17.0773 113.656 21.6038 135.762 29.9685 155.912L29.1303 156.326H29.0861L28.3361 156.714H28.3273L26.5626 157.595L24.6038 163.762L24.5597 163.771Z" fill="url(#paint1_linear_27462_79700)"/>
<path d="M24.6818 78.8541C26.42 83.9378 29.5435 89.5854 33.673 93.3652C33.8759 93.559 34.0877 93.7352 34.2906 93.9202H34.3171C34.3171 94.5017 34.3612 95.1008 34.4759 95.6383C34.6612 96.6339 35.0141 97.8409 35.5347 99.0392C36.4082 101.066 37.7759 103.048 39.6024 103.815C44.0318 105.691 48.5318 100.942 49.7935 97.4709C50.473 95.6207 50.6318 93.4356 50.173 91.4004C51.8671 90.2638 53.5524 89.1713 55.2818 88.1229C57.2406 86.9158 59.2171 85.7528 61.22 84.6339C63.0288 83.6295 64.8377 82.6603 66.6818 81.7352C66.2847 81.1185 65.8082 80.4048 65.3494 79.7176C65.1112 79.7176 64.873 79.7176 64.6347 79.7088C63.1082 79.6823 61.5906 79.6295 60.0818 79.5414C57.77 80.44 55.5288 81.4885 53.3847 82.6867C51.4435 83.7616 49.5906 84.9511 47.7994 86.2462C47.7024 86.3255 47.6053 86.3872 47.4994 86.4665C44.7994 84.0964 40.4935 84.2374 37.6347 86.3872C37.0965 85.9555 36.5759 85.5149 36.0553 85.0656C32.72 82.211 29.6141 79.1185 26.8082 75.7969C26.1288 77.2682 25.2994 77.418 24.6465 78.8718L24.6818 78.8541ZM47.5524 96.7925C46.6965 99.4621 43.52 103.136 40.4406 101.691C39.3024 101.154 38.42 99.885 37.8024 98.4929C37.8024 98.4841 37.8024 98.4753 37.8024 98.4753C37.3259 97.4092 37.0082 96.2726 36.8671 95.3652C36.4877 93.1361 37.0435 90.2991 38.6671 88.6163C40.7318 86.4489 44.323 86.2638 46.3082 88.6163L46.3259 88.6339C48.0994 90.7572 48.4171 94.1845 47.5612 96.7925H47.5524Z" fill="#934622"/>
<path d="M25.458 98.4668C28.4933 105.929 32.9404 113.938 38.6845 119.568C39.5933 119.048 40.511 118.484 41.4198 117.868C41.8963 117.55 43.1492 118.194 43.1492 118.194C43.1492 118.194 44.3227 115.797 45.0463 115.225C48.3992 112.599 51.6022 109.612 54.3904 106.81C52.8816 108.687 51.5933 110.934 50.0845 112.828C49.2728 123.489 47.1198 137.577 46.3169 148.264C44.5522 148.678 42.5316 151.797 42.5316 151.797L41.111 163.991H40.4051L40.5639 154.995L34.8551 147.031C34.8551 147.031 32.6492 123.674 31.061 113.665C29.2257 109.454 25.9963 104.705 25.4492 98.4668H25.458Z" fill="#C57029"/>
<path d="M33.6036 92.1405C33.6036 92.5546 33.6301 92.9599 33.6742 93.3651C33.6918 93.559 33.7183 93.744 33.7536 93.929C34.0095 95.4004 34.6095 97.3475 35.5271 99.0392C36.3389 100.537 37.4065 101.823 38.7301 102.414C43.0359 104.361 47.4036 99.4268 48.6212 95.8233C49.2742 93.9114 49.4242 91.6383 48.9918 89.5237C48.9565 89.3299 48.9124 89.1361 48.8683 88.9422C48.7183 88.255 48.4889 87.5942 48.1977 86.9687C48.1359 86.8453 48.083 86.722 48.0212 86.5986C48.0124 86.5722 48.0036 86.5546 47.9859 86.537C47.9242 86.4312 47.8712 86.3343 47.8183 86.2286C47.7477 86.1052 47.6771 85.9907 47.6065 85.8762C47.5977 85.8497 47.5801 85.8233 47.5624 85.7969C47.5006 85.7088 47.4477 85.6207 47.3859 85.5414C47.3242 85.4444 47.2624 85.3563 47.1918 85.2682C47.0859 85.1273 46.9801 85.0039 46.8742 84.8718C46.7242 84.6955 46.5742 84.537 46.4153 84.3872C43.7948 81.9202 39.6301 82.07 36.8506 84.2991C36.6565 84.4753 36.4624 84.6427 36.2683 84.8453C36.2065 84.907 36.1448 84.9687 36.0918 85.0392C36.0742 85.048 36.0653 85.0656 36.0477 85.0832C35.9595 85.1801 35.8889 85.277 35.8006 85.3651C35.783 85.374 35.7742 85.3916 35.7653 85.4092C35.6771 85.5149 35.5977 85.6207 35.5183 85.7264C35.5006 85.744 35.483 85.7704 35.4742 85.7881C35.4036 85.885 35.3418 85.9819 35.2712 86.0788C35.2624 86.1052 35.2448 86.1229 35.2271 86.1493C35.1565 86.2638 35.0948 86.3607 35.033 86.4753C34.5301 87.3299 34.1683 88.2726 33.9389 89.2506C33.8948 89.4092 33.8595 89.559 33.833 89.7176C33.8242 89.7704 33.8065 89.8321 33.7977 89.8762C33.7801 89.9643 33.7712 90.0524 33.7536 90.1317C33.7271 90.2991 33.7006 90.4753 33.6742 90.6427C33.6565 90.7836 33.6477 90.9422 33.6301 91.0832C33.6036 91.4268 33.5859 91.7792 33.5859 92.1229L33.6036 92.1405ZM37.8212 86.6427C39.833 84.396 43.3271 84.2022 45.2418 86.6691C45.5859 87.1185 45.8859 87.6207 46.1154 88.1581C46.1771 88.3079 46.2389 88.4665 46.2918 88.6251L46.3095 88.6867C46.3536 88.8013 46.3889 88.9158 46.4242 89.0392C46.4683 89.1625 46.5036 89.2858 46.5389 89.4092C46.583 89.5678 46.6183 89.7264 46.6536 89.885C46.6801 90.0259 46.7153 90.1757 46.733 90.3167C46.7859 90.6163 46.8212 90.9246 46.8477 91.233C46.8565 91.3652 46.8653 91.5061 46.8742 91.6383C46.8742 91.7792 46.883 91.929 46.883 92.07C46.883 93.1273 46.733 94.1845 46.4418 95.1273C45.6124 97.9026 42.533 101.718 39.5418 100.211C39.2948 100.088 39.0565 99.9202 38.8359 99.7264C38.783 99.6823 38.7301 99.6383 38.6859 99.5854C38.3595 99.277 38.0683 98.907 37.8036 98.4929C37.8036 98.4841 37.8036 98.4753 37.8036 98.4753C37.5742 98.114 37.3624 97.7176 37.1683 97.3035C37.0801 97.1096 37.0006 96.9246 36.9212 96.7308C36.8242 96.5017 36.7448 96.2638 36.6653 96.0436C36.6389 95.9466 36.6036 95.8497 36.5683 95.7616C36.3918 95.2242 36.2595 94.6867 36.1712 94.2022C36.1448 94.1052 36.1271 94.0171 36.1183 93.9202C36.1006 93.8233 36.083 93.7352 36.0742 93.6471C35.7036 91.3387 36.2506 88.396 37.8212 86.6427Z" fill="url(#paint2_linear_27462_79700)"/>
<path d="M36.2686 84.8631C34.4598 86.6957 33.5862 89.5327 33.6039 92.1495H33.5862C29.2804 88.2464 26.0333 83.1627 24.2598 77.6208C24.8951 76.1142 25.698 74.8543 26.3598 73.3213C29.5009 77.3125 33.0392 80.9777 36.8686 84.3169C36.6745 84.4931 36.4715 84.6693 36.2774 84.8631H36.2686Z" fill="#512B21"/>
<path d="M46.4238 84.4057C48.2327 82.9696 50.1385 81.6568 52.1238 80.4762C55.7503 78.3176 59.6591 76.5908 63.7003 75.4189C63.4797 75.7009 63.2415 75.9652 63.0209 76.2295C63.6121 77.2339 64.415 78.4938 65.0326 79.4982C61.2562 81.5247 57.5591 83.7537 53.9591 86.1238C52.2738 87.2163 50.6415 88.3441 49.0003 89.5247C48.6915 87.7978 47.9944 86.1678 46.8827 84.8815C46.7327 84.7053 46.5738 84.5555 46.4238 84.4057Z" fill="#512B21"/>
<path d="M37.8213 86.6516C39.8331 84.4049 43.3272 84.2111 45.2507 86.6693C46.9802 88.8719 47.2802 92.4226 46.4507 95.1274C45.6213 97.8939 42.5419 101.718 39.5507 100.211C37.5831 99.2331 36.4096 95.8058 36.0743 93.6472C35.7037 91.3389 36.2507 88.3873 37.8213 86.6428V86.6516Z" fill="#FFDF94"/>
<path d="M40.4421 40.6692C40.8921 39.7882 43.2039 40.1847 43.2039 40.1847L52.4421 42.2992L41.3509 42.4578C41.3509 42.4578 40.0009 41.5503 40.4421 40.6692Z" fill="#B56843"/>
<path d="M30.4731 56.5288C25.9477 57.8091 21.2264 58.4649 16.211 58.1917H16.1932C16.1754 57.8247 16.1398 57.4656 16.1754 57.0362C20.1128 57.692 24.9589 57.4344 30.4642 56.5288H30.4731Z" fill="#B56843"/>
<path d="M42.6638 151.612L42.655 151.224L44.1197 146.722L42.5314 146.511L43.9432 144.035L45.3373 122.476L40.3079 127.48L36.7344 123.057L39.4785 146.476L41.3226 150.396L39.1167 149.498L42.1608 155.013L42.6638 151.612Z" fill="#934622"/>
<path d="M58.7495 35.2334C57.9554 33.577 52.123 32.6255 52.123 32.6255C52.3083 32.6255 52.4848 32.6167 52.6701 32.6079C55.0789 28.2907 57.0819 23.577 58.6436 18.8193C58.6613 19.1541 59.5348 36.8634 58.7495 35.2334Z" fill="#C57029"/>
<path d="M77.5 155.5H77.0331L80.3383 147.788L80.3814 147.687L80.4133 147.582L83.9133 136.082L84.1839 135.194L83.6791 134.413L78.1791 125.913L78.064 125.736L77.9142 125.586L71.7149 119.386L74.9403 106.485L74.9437 106.472L74.9468 106.458L76.9468 97.9581L77.0805 97.3901L76.8877 96.8393L73.3877 86.8393L73.337 86.6943L73.2647 86.5588L69.2647 79.0588L68.7 78H67.5H66.2361L65.3701 76.2681L71.5439 68.7714L72.1402 68.0473L71.9647 67.1258L69.9647 56.6258L69.9432 56.513L69.909 56.4035L67.409 48.4035L67.3923 48.3501L67.3727 48.2978L66.3988 45.7009L67.2 45.1L68.2158 44.3382L67.9585 43.0948L64.9585 28.5948L64.9471 28.5394L64.9325 28.4847L60.9325 13.4847L59.3803 7.66407L57.143 13.2572L56.143 15.7572L56.1389 15.7676L56.1349 15.778L50.5971 30.0838L45.5872 30.3969L42.4538 16.0726L40.8271 8.63622L38.5884 15.9118L36.5884 22.4118L36.5763 22.4512L36.5659 22.491L34.2962 31.1159L34.1056 31.2111L33.5847 31.4716L33.285 31.971L27.7984 41.1154L19.7215 41.9656L17.1325 41.1026L16.9209 41.0321L16.699 41.0099L11.699 40.5099L11.5998 40.5H11.5H7.5H4.0722L5.75887 43.4841L12.2589 54.9841L12.393 55.2214L12.5858 55.4142L15.0858 57.9142L15.3307 58.1592L15.6438 58.3075L23.7014 62.1242L22.0476 69.5661L21.8344 70.5254L22.4636 71.2804L24.1671 73.3246L23.0128 75.9217L19.7978 77.1273L19.1559 77.368L18.7967 77.9518L14.7967 84.4518L14.6672 84.6622L14.5928 84.8977L11.5928 94.3977L11.4312 94.9097L11.5476 95.4339L18.5476 126.934L18.5678 127.025L18.5963 127.113L27.5379 154.879L25.7122 155.662L24.8608 156.027L24.5884 156.912L22.5884 163.412L21.7921 166H24.5H78.5H80.8312L80.4767 163.696L79.4767 157.196L79.2158 155.5H77.5Z" stroke="white" stroke-width="4"/>
<defs>
<linearGradient id="paint0_linear_27462_79700" x1="37.0707" y1="35.2599" x2="41.6543" y2="164.467" gradientUnits="userSpaceOnUse">
<stop offset="0.02" stop-color="white"/>
<stop offset="0.99" stop-color="white" stop-opacity="0"/>
</linearGradient>
<linearGradient id="paint1_linear_27462_79700" x1="40.2656" y1="35.1453" x2="44.8579" y2="164.353" gradientUnits="userSpaceOnUse">
<stop offset="0.02" stop-color="white"/>
<stop offset="0.99" stop-color="white" stop-opacity="0"/>
</linearGradient>
<linearGradient id="paint2_linear_27462_79700" x1="39.4006" y1="35.1801" x2="43.9842" y2="164.388" gradientUnits="userSpaceOnUse">
<stop stop-color="#FFCA2C"/>
<stop offset="1" stop-color="#CB6F2C"/>
</linearGradient>
</defs>
</svg>
