<svg width="257" height="500" viewBox="0 0 257 500" fill="none" xmlns="http://www.w3.org/2000/svg">
<path d="M229.75 468.922L232.201 488H214.228H175.12L172.09 468.922H211.487H229.75Z" fill="#882537"/>
<path d="M120.88 89.0489C121.408 79.9968 121.935 70.9973 122.383 61.8926C124.807 72.9709 127.284 84.2334 129.682 95.1012C121.671 95.4959 113.712 95.9432 105.754 96.2064C105.938 94.8906 106.202 93.6012 106.413 92.2855C111.235 91.7592 116.453 90.8646 120.907 89.0226L120.88 89.0489Z" fill="#8B5556"/>
<path d="M19 125.021C31.1224 123.389 43.7191 124.495 55.3407 128.468C57.3699 133.02 58.6085 138.046 58.6612 142.809C48.4099 143.651 38.1849 143.599 27.9336 142.757C24.5341 137.099 21.5299 131.152 19 125.047L19 125.021Z" fill="#5A1319"/>
<path d="M189.247 133.467C198.629 154.308 203.847 178.017 206.667 200.674C200.395 208.095 194.544 215.989 188.325 223.409C176.255 226.936 164.581 232.067 153.75 238.514C165.688 223.673 178.074 208.41 189.959 193.569C186.638 167.439 181.552 138.388 173.989 109.1C177.389 114.363 182.264 119.6 185.663 124.915C187.482 118.652 189.326 112.337 191.145 106.101C192.568 113.6 193.886 121.073 194.94 128.494C192.858 130.125 191.356 131.757 189.274 133.441L189.247 133.467Z" fill="#882537"/>
<path d="M199.944 236.779C209.536 252.541 216.52 270.777 222.449 288.223C219.313 303.328 215.729 318.379 211.697 333.3C213.647 313.511 213.726 293.17 205.636 275.645C201.261 266.198 195.648 256.883 188.428 249.383C178.703 251.41 168.979 253.409 159.281 255.383C170.033 248.278 181.075 241.647 192.354 235.595C192.486 235.779 192.539 235.989 192.67 236.174C194.884 235.911 197.757 237.016 199.97 236.753L199.944 236.779Z" fill="#882537"/>
<path d="M204.902 356.691C204.506 357.954 201.476 366.796 201.476 366.796L142.445 469.474C145.845 477.184 175.834 467.001 172.066 468.922H219.317C230.464 448.081 237.896 425.214 243.008 402.162C233.363 385.032 220.45 368.822 204.902 356.691Z" fill="#882537"/>
<path d="M213.116 405.872C212.932 423.266 211.298 441.317 205.948 457.79C197.858 457.527 188.608 455.58 180.57 455.317C182.863 447.764 187.949 441.107 194.722 436.949C197.647 425.213 204.051 414.029 213.116 405.872Z" fill="#CF4F66"/>
<path d="M122.379 61.8928C121.931 71.0239 121.404 79.997 120.877 89.0491C116.45 90.8648 111.232 91.7858 106.383 92.3121C109.176 76.9446 113.498 61.8928 119.243 47.4463C120.218 52.2092 121.272 57.0247 122.379 61.9191V61.8928Z" fill="#CF4F66"/>
<path d="M27.9609 142.731C28.1454 143.02 28.3298 143.336 28.5143 143.625C31.4395 148.415 34.6545 153.02 38.1858 157.388C40.8475 160.73 43.7463 163.94 46.7769 166.94C46.7769 168.387 47.0141 169.598 47.1458 170.861C47.2249 171.545 47.3039 172.255 47.3039 173.019C55.447 174.124 63.7218 176.15 71.4959 178.887C83.9082 180.439 96.0832 183.834 107.52 188.781C106.914 190.07 106.335 191.386 105.728 192.702C105.122 194.044 104.543 195.386 103.963 196.728C103.752 197.201 103.567 197.675 103.357 198.122C101.196 203.148 99.0611 208.306 96.9002 213.332C96.7948 213.569 96.6894 213.832 96.5576 214.069C96.0305 215.305 95.4771 216.569 94.9237 217.805C94.871 217.911 94.8446 218.016 94.7919 218.121C94.2122 219.516 93.5797 220.858 92.9472 222.174C92.8682 221.595 92.7628 221.042 92.6574 220.489C92.5783 220.121 92.5256 219.753 92.4465 219.411C92.2621 218.516 92.0776 217.621 91.8931 216.753C91.7086 215.911 91.4978 215.042 91.2606 214.2C90.9708 213.095 90.6809 211.99 90.391 210.911C90.2592 210.332 90.1011 209.78 89.9694 209.201C89.8376 208.78 89.7322 208.359 89.6268 207.938C89.4159 207.095 89.2051 206.227 89.0206 205.359C88.9152 204.938 88.8362 204.464 88.7308 204.017C88.5463 203.122 88.3618 202.227 88.2037 201.28C86.4117 199.833 84.567 198.359 82.6959 196.886C81.7209 196.122 80.7458 195.359 79.7444 194.596C79.4545 194.359 79.191 194.175 78.9011 193.965L77.0301 192.517C76.8456 192.359 76.6875 192.228 76.503 192.096C75.4225 191.254 74.3684 190.439 73.3406 189.596C72.2865 193.965 71.1797 198.412 70.1256 202.754C69.7566 204.359 69.3614 205.964 68.9924 207.516C71.8649 210.122 74.2103 213.779 77.1355 216.384C77.0037 216.648 76.8983 216.911 76.7665 217.174C86.1482 229.094 96.7157 240.041 108.127 249.988C116.428 243.33 128.866 242.883 136.693 250.251C142.122 245.962 147.788 242.041 153.717 238.515C155.219 236.673 156.695 234.778 158.197 232.91C158.882 232.068 159.567 231.199 160.253 230.357C165.154 224.279 170.082 218.174 175.01 212.069C180.017 205.885 184.972 199.701 189.873 193.596C189.373 189.596 188.819 185.518 188.213 181.386C188.029 179.965 187.818 178.544 187.581 177.097C187.475 176.387 187.37 175.676 187.238 174.939C187.133 174.203 187.027 173.492 186.922 172.782C186.685 171.229 186.447 169.677 186.184 168.124C185.999 166.993 185.815 165.835 185.604 164.703C185.525 164.177 185.42 163.651 185.341 163.098C185.103 161.756 184.893 160.414 184.655 159.072C184.418 157.73 184.181 156.388 183.918 155.02C183.496 152.572 183.022 150.125 182.547 147.652C182.521 147.52 182.495 147.362 182.468 147.231C181.783 143.652 181.045 140.047 180.281 136.468C179.517 132.863 178.726 129.232 177.883 125.574C177.487 123.811 177.066 122.021 176.644 120.232C176.143 118.18 175.643 116.101 175.116 114.022C174.72 112.417 174.299 110.812 173.877 109.18C174.299 109.812 174.72 110.47 175.195 111.101C178.436 115.706 182.547 120.285 185.525 124.969C187.343 118.706 189.188 112.417 191.007 106.128C186.553 83.8132 180.571 61.2356 173.851 40C172.691 44.3155 171.4 48.6311 169.977 52.9466C165.312 67.1563 159.33 81.2607 152.11 94.1547C151.583 94.1547 151.029 94.1547 150.476 94.181C143.545 94.3652 136.561 94.7599 129.551 95.1283C121.514 95.4967 113.582 95.9704 105.623 96.2335C104.516 96.2862 103.409 96.2862 102.303 96.3651C96.1623 106.575 90.4174 116.522 84.3035 126.732C78.1369 126.942 68.7816 127.679 62.5359 128.179C58.7411 128.521 56.0795 128.758 56.0795 128.758C55.7896 128.626 55.4734 128.574 55.2362 128.495C57.239 133.047 58.5039 138.073 58.5566 142.81C48.3317 143.652 38.0804 143.599 27.8555 142.757L27.9609 142.731ZM138.037 121.785C138.933 121.864 139.776 121.995 140.646 122.127C143.097 122.495 145.495 123.021 147.63 123.521C147.524 123.706 147.419 123.89 147.313 124.1C147.234 124.285 147.129 124.442 147.023 124.627C146.839 124.969 146.628 125.311 146.417 125.653C146.207 126.021 145.996 126.39 145.759 126.732C145.284 127.521 144.757 128.284 144.23 129.047C144.098 129.232 143.967 129.416 143.835 129.6C143.598 129.942 143.36 130.232 143.15 130.547L142.728 131.074C142.438 131.416 142.175 131.758 141.885 132.1C141.832 132.179 141.753 132.231 141.7 132.31C140.962 133.152 140.172 133.942 139.381 134.626C139.302 134.705 139.197 134.758 139.144 134.837C138.828 135.073 138.538 135.31 138.222 135.521C138.037 135.626 137.879 135.731 137.747 135.836C137.589 135.942 137.405 136.021 137.273 136.126C137.088 136.231 136.957 136.31 136.772 136.389C136.298 136.626 135.771 136.81 135.27 136.915C135.138 136.942 134.98 136.994 134.822 136.994C133.689 137.179 132.556 137.073 131.396 136.573C131.106 136.442 130.843 136.31 130.579 136.179C130.342 136.073 130.131 135.942 129.92 135.81C129.683 135.679 129.446 135.521 129.209 135.389C128.972 135.231 128.735 135.047 128.497 134.889C128.287 134.731 128.076 134.573 127.891 134.416C127.654 134.231 127.47 134.047 127.259 133.863C127.127 133.758 127.022 133.626 126.89 133.521C126.758 133.416 126.653 133.284 126.547 133.179C126.389 133.021 126.231 132.863 126.099 132.705C125.73 132.284 125.388 131.837 125.071 131.389C124.913 131.153 124.755 130.942 124.623 130.705C124.439 130.416 124.255 130.126 124.096 129.811C123.912 129.495 123.754 129.205 123.622 128.863C123.49 128.574 123.359 128.284 123.253 127.969C123.121 127.626 122.99 127.284 122.884 126.916C122.752 126.521 122.647 126.127 122.568 125.732C122.752 125.548 122.911 125.363 123.095 125.179C123.2 125.048 123.306 124.942 123.438 124.863C123.517 124.784 123.622 124.679 123.701 124.627C123.912 124.442 124.123 124.285 124.334 124.153C124.623 123.916 124.94 123.732 125.282 123.548C125.282 123.548 125.335 123.521 125.361 123.495C125.704 123.311 126.02 123.153 126.363 122.995C126.363 122.995 126.495 122.916 126.574 122.916C126.758 122.837 126.916 122.758 127.074 122.706C127.311 122.6 127.575 122.521 127.839 122.443C128.287 122.285 128.787 122.153 129.262 122.074C129.71 121.969 130.158 121.89 130.632 121.837C131.106 121.785 131.581 121.732 132.029 121.706C132.266 121.706 132.503 121.679 132.74 121.679C132.872 121.679 132.977 121.679 133.109 121.679C133.215 121.679 133.346 121.679 133.425 121.679H134.269C134.664 121.679 135.059 121.679 135.481 121.732C135.692 121.732 135.929 121.732 136.166 121.758C136.64 121.785 137.167 121.837 137.668 121.89C137.774 121.89 137.853 121.89 137.958 121.89H138.037V121.785Z" fill="#F88B7C"/>
<path d="M190.881 488H171.775L160.285 463.87L184.793 468.922L190.881 488Z" fill="#882537"/>
<path d="M71.4408 487.315L71.2299 487.999H179.725L179.251 486.947L172.636 472.29L171.108 468.922H171.055L165.6 466.317H165.573L163.175 465.185H163.149L163.017 465.132L160.356 463.896C177.669 428.871 192.216 397.268 203.838 360.323C204.101 359.586 204.312 358.849 204.523 358.112C204.681 357.639 204.839 357.165 204.971 356.718C207.369 348.981 209.609 341.166 211.744 333.324C213.694 313.536 213.773 293.195 205.683 275.696C201.308 266.249 195.721 256.934 188.474 249.435C185.997 249.961 183.52 250.461 181.043 250.987C178.645 251.487 176.273 251.987 173.901 252.461C169.052 253.461 164.177 254.461 159.328 255.434C154.294 258.697 149.393 262.092 144.517 265.592C145.809 271.907 145.361 278.696 143.411 284.406C139.774 295.169 126.729 309.878 113.869 304.089C109.916 302.326 106.727 298.484 104.303 294.037C101.536 288.959 99.7702 283.169 99.006 278.749C98.9005 278.222 98.8215 277.643 98.7688 277.065C98.637 275.88 98.5579 274.644 98.5579 273.407H98.4789C96.3707 271.512 94.3678 269.512 92.4441 267.407C92.0224 266.96 91.6008 266.486 91.1791 266.013C90.4412 265.17 89.7034 264.328 89.0182 263.46C88.6229 262.986 88.2276 262.513 87.8587 262.039C87.5688 261.697 87.3052 261.355 87.0417 261.013C86.9627 260.934 86.91 260.855 86.8572 260.776C86.5674 260.434 86.3302 260.092 86.0667 259.75C85.9876 259.671 85.9085 259.566 85.8558 259.46C85.6187 259.145 85.3815 258.855 85.1707 258.566C84.9335 258.25 84.7227 257.96 84.5118 257.645C83.9848 256.908 83.4577 256.197 82.9834 255.434C82.7989 255.197 82.6671 254.961 82.509 254.724C82.1401 254.197 81.7975 253.645 81.4549 253.066C80.7434 251.961 80.0582 250.829 79.3994 249.698C78.925 248.882 78.4507 248.066 78.0027 247.25C77.581 246.435 77.1067 245.593 76.7114 244.751C74.8667 241.172 73.2855 237.488 71.9151 233.699C71.4671 232.488 71.0455 231.251 70.6502 230.015C70.5711 230.146 70.5184 230.278 70.4394 230.383C66.8027 231.672 62.2963 232.778 58.7123 234.093C48.6718 248.171 41.0822 264.539 37.7617 281.512C49.0935 337.64 62.6125 403.662 87.5951 463.843L85.0916 465.08H84.9598L82.7198 466.238H82.6935L77.4229 468.869L71.5725 487.289L71.4408 487.315Z" fill="#F88B7C"/>
<path style="mix-blend-mode:overlay" opacity="0.6" d="M27.9609 142.731C28.1454 143.02 28.3298 143.336 28.5143 143.625C31.4395 148.415 34.6545 153.02 38.1858 157.388C40.8475 160.73 43.7463 163.94 46.7769 166.94C46.7769 168.387 47.0141 169.598 47.1458 170.861C47.2249 171.545 47.3039 172.255 47.3039 173.019C55.447 174.124 63.7218 176.15 71.4959 178.887C83.9082 180.439 96.0832 183.834 107.52 188.781C106.914 190.07 106.335 191.386 105.728 192.702C105.122 194.044 104.543 195.386 103.963 196.728C103.752 197.201 103.567 197.675 103.357 198.122C101.196 203.148 99.0611 208.306 96.9002 213.332C96.7948 213.569 96.6893 213.832 96.5576 214.069C96.0305 215.305 95.4771 216.569 94.9237 217.805C94.871 217.911 94.8446 218.016 94.7919 218.121C94.2122 219.516 93.5797 220.858 92.9472 222.174C92.8682 221.595 92.7628 221.042 92.6573 220.489C92.5783 220.121 92.5256 219.753 92.4465 219.411C92.2621 218.516 92.0776 217.621 91.8931 216.753C91.7086 215.911 91.4978 215.042 91.2606 214.2C90.9708 213.095 90.6809 211.99 90.391 210.911C90.2592 210.332 90.1011 209.78 89.9693 209.201C89.8376 208.78 89.7322 208.359 89.6268 207.938C89.4159 207.095 89.2051 206.227 89.0206 205.359C88.9152 204.938 88.8362 204.464 88.7308 204.017C88.5463 203.122 88.3618 202.227 88.2037 201.28C86.4117 199.833 84.567 198.359 82.6959 196.886C81.7209 196.122 80.7458 195.359 79.7444 194.596C79.4545 194.359 79.191 194.175 78.9011 193.965L77.0301 192.517C76.8456 192.359 76.6875 192.228 76.503 192.096C75.4225 191.254 74.3684 190.439 73.3406 189.596C72.2865 193.965 71.1797 198.412 70.1256 202.754C69.7566 204.359 69.3613 205.964 68.9924 207.516C71.8649 210.122 74.2103 213.779 77.1355 216.384C77.0037 216.648 76.8983 216.911 76.7665 217.174C86.1482 229.094 96.7157 240.041 108.127 249.988C116.428 243.33 128.866 242.883 136.693 250.251C142.122 245.962 147.788 242.041 153.717 238.515C155.219 236.673 156.695 234.778 158.197 232.91C158.882 232.068 159.567 231.199 160.253 230.357C165.154 224.279 170.082 218.174 175.01 212.069C180.017 205.885 184.972 199.701 189.873 193.596C189.373 189.596 188.819 185.518 188.213 181.386C188.029 179.965 187.818 178.544 187.581 177.097C187.475 176.387 187.37 175.676 187.238 174.939C187.133 174.203 187.027 173.492 186.922 172.782C186.685 171.229 186.447 169.677 186.184 168.124C185.999 166.993 185.815 165.835 185.604 164.703C185.525 164.177 185.42 163.651 185.341 163.098C185.103 161.756 184.893 160.414 184.655 159.072C184.418 157.73 184.181 156.388 183.918 155.02C183.496 152.572 183.022 150.125 182.547 147.652C182.521 147.52 182.495 147.362 182.468 147.231C181.783 143.652 181.045 140.047 180.281 136.468C179.517 132.863 178.726 129.232 177.883 125.574C177.487 123.811 177.066 122.021 176.644 120.232C176.143 118.18 175.643 116.101 175.116 114.022C174.72 112.417 174.299 110.812 173.877 109.18C174.299 109.812 174.72 110.47 175.195 111.101C178.436 115.706 182.547 120.285 185.525 124.969C187.343 118.706 189.188 112.417 191.007 106.128C186.553 83.8132 180.571 61.2356 173.851 40C172.691 44.3155 171.4 48.6311 169.977 52.9466C165.312 67.1563 159.33 81.2607 152.11 94.1547C151.583 94.1547 151.029 94.1547 150.476 94.181C143.545 94.3652 136.561 94.7599 129.551 95.1283C121.514 95.4967 113.582 95.9704 105.623 96.2335C104.516 96.2862 103.409 96.2862 102.303 96.3651C96.1623 106.575 90.4173 116.522 84.3035 126.732C78.1369 126.942 68.7816 127.679 62.5359 128.179C58.7411 128.521 56.0795 128.758 56.0795 128.758C55.7896 128.626 55.4734 128.574 55.2362 128.495C57.239 133.047 58.5039 138.073 58.5566 142.81C48.3317 143.652 38.0804 143.599 27.8555 142.757L27.9609 142.731ZM138.037 121.785C138.933 121.864 139.776 121.995 140.646 122.127C143.097 122.495 145.495 123.021 147.63 123.521C147.524 123.706 147.419 123.89 147.313 124.1C147.234 124.285 147.129 124.442 147.023 124.627C146.839 124.969 146.628 125.311 146.417 125.653C146.207 126.021 145.996 126.39 145.759 126.732C145.284 127.521 144.757 128.284 144.23 129.047C144.098 129.232 143.967 129.416 143.835 129.6C143.598 129.942 143.36 130.232 143.15 130.547L142.728 131.074C142.438 131.416 142.175 131.758 141.885 132.1C141.832 132.179 141.753 132.231 141.7 132.31C140.962 133.152 140.172 133.942 139.381 134.626C139.302 134.705 139.197 134.758 139.144 134.837C138.828 135.073 138.538 135.31 138.222 135.521C138.037 135.626 137.879 135.731 137.747 135.836C137.589 135.942 137.405 136.021 137.273 136.126C137.088 136.231 136.957 136.31 136.772 136.389C136.298 136.626 135.771 136.81 135.27 136.915C135.138 136.942 134.98 136.994 134.822 136.994C133.689 137.179 132.556 137.073 131.396 136.573C131.106 136.442 130.843 136.31 130.579 136.179C130.342 136.073 130.131 135.942 129.92 135.81C129.683 135.679 129.446 135.521 129.209 135.389C128.972 135.231 128.735 135.047 128.497 134.889C128.287 134.731 128.076 134.573 127.891 134.416C127.654 134.231 127.47 134.047 127.259 133.863C127.127 133.758 127.022 133.626 126.89 133.521C126.758 133.416 126.653 133.284 126.547 133.179C126.389 133.021 126.231 132.863 126.099 132.705C125.73 132.284 125.388 131.837 125.071 131.389C124.913 131.153 124.755 130.942 124.623 130.705C124.439 130.416 124.255 130.126 124.096 129.811C123.912 129.495 123.754 129.205 123.622 128.863C123.49 128.574 123.359 128.284 123.253 127.969C123.121 127.626 122.99 127.284 122.884 126.916C122.752 126.521 122.647 126.127 122.568 125.732C122.752 125.548 122.911 125.363 123.095 125.179C123.2 125.048 123.306 124.942 123.438 124.863C123.517 124.784 123.622 124.679 123.701 124.627C123.912 124.442 124.123 124.285 124.334 124.153C124.623 123.916 124.94 123.732 125.282 123.548C125.282 123.548 125.335 123.521 125.361 123.495C125.704 123.311 126.02 123.153 126.363 122.995C126.363 122.995 126.495 122.916 126.574 122.916C126.758 122.837 126.916 122.758 127.074 122.706C127.311 122.6 127.575 122.521 127.839 122.443C128.287 122.285 128.787 122.153 129.262 122.074C129.71 121.969 130.158 121.89 130.632 121.837C131.106 121.785 131.581 121.732 132.029 121.706C132.266 121.706 132.503 121.679 132.74 121.679C132.872 121.679 132.977 121.679 133.109 121.679C133.215 121.679 133.346 121.679 133.425 121.679H134.269C134.664 121.679 135.059 121.679 135.481 121.732C135.692 121.732 135.929 121.732 136.166 121.758C136.64 121.785 137.167 121.837 137.668 121.89C137.774 121.89 137.853 121.89 137.958 121.89H138.037V121.785Z" fill="url(#paint0_linear_26486_101172)"/>
<path d="M107.519 188.78C102.564 199.463 97.9262 211.515 92.9718 222.199C91.7859 214.568 89.5196 208.858 88.281 201.279C83.5111 197.437 78.2405 193.464 73.4179 189.622C74.2085 186.491 74.9728 183.438 75.7106 180.386C74.3403 179.859 72.9699 179.333 71.5469 178.886C83.9328 180.438 96.1342 183.833 107.545 188.78H107.519Z" fill="#FBC3B8"/>
<path style="mix-blend-mode:overlay" opacity="0.6" d="M71.4408 487.315L71.2299 487.999H179.725L179.251 486.947L172.636 472.29L171.108 468.922H171.055L165.6 466.317H165.573L163.175 465.185H163.149L163.017 465.132L160.356 463.896C177.669 428.871 192.216 397.268 203.838 360.323C204.101 359.586 204.312 358.849 204.523 358.112C204.681 357.639 204.839 357.165 204.971 356.718C207.369 348.981 209.609 341.166 211.744 333.324C213.694 313.536 213.773 293.195 205.683 275.696C201.308 266.249 195.721 256.934 188.474 249.435C185.997 249.961 183.52 250.461 181.043 250.987C178.645 251.487 176.273 251.987 173.901 252.461C169.052 253.461 164.177 254.461 159.328 255.434C154.294 258.697 149.393 262.092 144.517 265.592C145.809 271.907 145.361 278.696 143.411 284.406C139.774 295.169 126.729 309.878 113.869 304.089C109.916 302.326 106.727 298.484 104.303 294.037C101.536 288.959 99.7702 283.169 99.006 278.749C98.9005 278.222 98.8215 277.643 98.7688 277.065C98.637 275.88 98.5579 274.644 98.5579 273.407H98.4789C96.3707 271.512 94.3678 269.512 92.4441 267.407C92.0224 266.96 91.6008 266.486 91.1791 266.013C90.4412 265.17 89.7034 264.328 89.0182 263.46C88.6229 262.986 88.2276 262.513 87.8587 262.039C87.5688 261.697 87.3052 261.355 87.0417 261.013C86.9627 260.934 86.91 260.855 86.8572 260.776C86.5674 260.434 86.3302 260.092 86.0667 259.75C85.9876 259.671 85.9085 259.566 85.8558 259.46C85.6187 259.145 85.3815 258.855 85.1707 258.566C84.9335 258.25 84.7227 257.96 84.5118 257.645C83.9848 256.908 83.4577 256.197 82.9834 255.434C82.7989 255.197 82.6671 254.961 82.509 254.724C82.1401 254.197 81.7975 253.645 81.4549 253.066C80.7434 251.961 80.0582 250.829 79.3994 249.698C78.925 248.882 78.4507 248.066 78.0027 247.25C77.581 246.435 77.1067 245.593 76.7114 244.751C74.8667 241.172 73.2855 237.488 71.9151 233.699C71.4671 232.488 71.0455 231.251 70.6502 230.015C70.5711 230.146 70.5184 230.278 70.4394 230.383C66.8027 231.672 62.2963 232.778 58.7123 234.093C48.6718 248.171 41.0822 264.539 37.7617 281.512C49.0935 337.64 62.6125 403.662 87.5951 463.843L85.0916 465.08H84.9598L82.7198 466.238H82.6935L77.4229 468.869L71.5725 487.289L71.4408 487.315Z" fill="url(#paint1_linear_26486_101172)"/>
<path d="M71.8164 233.697C77.0079 248.881 86.3368 265.748 98.67 277.037C99.2761 277.616 99.9086 278.142 100.515 278.695H100.594C100.594 280.432 100.726 282.221 101.068 283.826C101.622 286.8 102.676 290.405 104.23 293.983C106.839 300.036 110.924 305.956 116.379 308.246C129.608 313.851 143.048 299.667 146.817 289.299C148.846 283.773 149.32 277.248 147.95 271.169C153.01 267.774 158.043 264.511 163.208 261.38C169.059 257.775 174.962 254.301 180.944 250.96C186.346 247.96 191.749 245.065 197.256 242.302C196.07 240.46 194.647 238.329 193.277 236.276C192.566 236.276 191.854 236.276 191.142 236.25C186.583 236.171 182.051 236.013 177.544 235.75C170.64 238.434 163.946 241.565 157.542 245.144C151.745 248.354 146.211 251.907 140.861 255.775C140.571 256.012 140.281 256.196 139.965 256.433C131.901 249.354 119.041 249.775 110.502 256.196C108.895 254.907 107.34 253.591 105.785 252.249C95.8239 243.723 86.5476 234.487 78.1674 224.566C76.1382 228.961 73.6611 229.408 71.7109 233.75L71.8164 233.697ZM140.123 287.273C137.567 295.246 128.08 306.22 118.883 301.904C115.483 300.299 112.848 296.51 111.003 292.352C111.003 292.326 111.003 292.299 111.003 292.299C109.58 289.115 108.631 285.721 108.21 283.01C107.077 276.353 108.737 267.88 113.586 262.854C119.752 256.38 130.478 255.828 136.407 262.854L136.46 262.906C141.757 269.248 142.706 279.484 140.15 287.273H140.123Z" fill="#882537"/>
<path d="M74.1279 292.274C83.1933 314.563 96.4752 338.482 113.631 355.297C116.345 353.744 119.086 352.06 121.8 350.218C123.223 349.271 126.966 351.192 126.966 351.192C126.966 351.192 130.471 344.035 132.631 342.324C142.646 334.482 152.212 325.562 160.539 317.194C156.033 322.799 152.185 329.509 147.679 335.167C145.255 367.007 138.824 409.083 136.426 441.003C131.156 442.239 125.121 451.555 125.121 451.555L120.878 487.973H118.77L119.244 461.107L102.194 437.319C102.194 437.319 95.6056 367.559 90.862 337.666C85.3806 325.088 75.7354 310.905 74.1016 292.274H74.1279Z" fill="#882537"/>
<path d="M98.4551 273.38C98.4551 274.617 98.5341 275.827 98.6659 277.038C98.7186 277.617 98.7976 278.169 98.9031 278.722C99.6673 283.116 101.459 288.932 104.2 293.984C106.624 298.457 109.813 302.299 113.766 304.062C126.626 309.878 139.671 295.142 143.308 284.379C145.258 278.669 145.706 271.88 144.415 265.565C144.309 264.986 144.177 264.407 144.046 263.828C143.598 261.775 142.912 259.802 142.043 257.933C141.858 257.565 141.7 257.197 141.516 256.828C141.489 256.749 141.463 256.697 141.41 256.644C141.226 256.328 141.068 256.039 140.91 255.723C140.699 255.355 140.488 255.013 140.277 254.67C140.251 254.592 140.198 254.513 140.145 254.434C139.961 254.171 139.803 253.907 139.618 253.671C139.434 253.381 139.249 253.118 139.039 252.855C138.722 252.434 138.406 252.065 138.09 251.671C137.642 251.144 137.194 250.671 136.72 250.223C128.893 242.855 116.454 243.303 108.153 249.96C107.573 250.487 106.993 250.987 106.414 251.592C106.229 251.776 106.045 251.96 105.887 252.171C105.834 252.197 105.808 252.25 105.755 252.302C105.491 252.592 105.28 252.881 105.017 253.144C104.964 253.171 104.938 253.223 104.912 253.276C104.648 253.592 104.411 253.907 104.174 254.223C104.121 254.276 104.068 254.355 104.042 254.407C103.831 254.697 103.647 254.986 103.436 255.276C103.409 255.355 103.357 255.407 103.304 255.486C103.093 255.828 102.909 256.118 102.724 256.46C101.222 259.012 100.142 261.828 99.4565 264.749C99.3247 265.223 99.2193 265.67 99.1402 266.144C99.1139 266.301 99.0612 266.486 99.0348 266.617C98.9821 266.88 98.9558 267.143 98.9031 267.38C98.824 267.88 98.7449 268.407 98.6659 268.906C98.6132 269.328 98.5868 269.801 98.5341 270.222C98.4551 271.248 98.4023 272.301 98.4023 273.327L98.4551 273.38ZM111.052 256.96C117.06 250.25 127.496 249.671 133.215 257.039C134.242 258.381 135.138 259.881 135.824 261.486C136.008 261.933 136.192 262.407 136.351 262.881L136.403 263.065C136.535 263.407 136.64 263.749 136.746 264.117C136.878 264.486 136.983 264.854 137.088 265.222C137.22 265.696 137.326 266.17 137.431 266.643C137.51 267.064 137.616 267.512 137.668 267.933C137.826 268.828 137.932 269.749 138.011 270.67C138.037 271.064 138.064 271.485 138.09 271.88C138.09 272.301 138.116 272.748 138.116 273.169C138.116 276.327 137.668 279.485 136.799 282.3C134.321 290.589 125.124 301.984 116.191 297.484C115.453 297.115 114.741 296.615 114.082 296.036C113.924 295.905 113.766 295.773 113.634 295.615C112.659 294.694 111.79 293.589 110.999 292.352C110.999 292.326 110.999 292.3 110.999 292.3C110.314 291.221 109.681 290.037 109.102 288.8C108.838 288.221 108.601 287.669 108.364 287.09C108.074 286.405 107.837 285.695 107.6 285.037C107.52 284.748 107.415 284.458 107.31 284.195C106.783 282.59 106.387 280.985 106.124 279.537C106.045 279.248 105.992 278.985 105.966 278.695C105.913 278.406 105.86 278.143 105.834 277.88C104.727 270.985 106.361 262.196 111.052 256.96Z" fill="url(#paint2_linear_26486_101172)"/>
<path d="M106.409 251.645C101.007 257.118 98.398 265.591 98.4507 273.406H98.398C85.5378 261.749 75.8399 246.566 70.543 230.014C72.4404 225.514 74.8385 221.752 76.815 217.173C86.1966 229.093 96.7641 240.04 108.201 250.013C107.622 250.539 107.015 251.066 106.436 251.645H106.409Z" fill="#5A1319"/>
<path d="M136.75 250.278C142.152 245.989 147.845 242.068 153.774 238.542C164.605 232.095 176.279 226.937 188.349 223.438C187.69 224.28 186.979 225.069 186.32 225.858C188.086 228.858 190.484 232.621 192.328 235.621C181.049 241.673 170.007 248.331 159.255 255.409C154.222 258.672 149.347 262.041 144.445 265.567C143.523 260.409 141.441 255.541 138.12 251.699C137.672 251.173 137.198 250.725 136.75 250.278Z" fill="#5A1319"/>
<path d="M111.047 256.986C117.055 250.276 127.491 249.697 133.236 257.039C138.401 263.617 139.297 274.222 136.82 282.3C134.343 290.563 125.145 301.984 116.212 297.484C110.335 294.563 106.83 284.327 105.829 277.88C104.722 270.985 106.356 262.17 111.047 256.96V256.986Z" fill="#FFDF94"/>
<path d="M147.416 125.092C142.535 133.97 133.455 147.911 124.11 143.793C117.753 140.997 112.873 134.99 111.473 128.152C113.44 125.809 116.051 124.298 119.002 123.392C122.596 122.296 126.758 122.069 130.996 122.372C136.709 122.712 142.535 123.996 147.454 125.092H147.416Z" fill="white"/>
<path d="M134.209 129.134C134.209 133.932 130.312 137.786 125.507 137.786C120.702 137.786 116.805 133.894 116.805 129.134C116.805 126.943 117.637 124.941 118.961 123.392C122.556 122.296 126.717 122.069 130.955 122.372C132.922 123.958 134.171 126.414 134.171 129.134H134.209Z" fill="#5A1319"/>
<path d="M106.419 126.729C107.224 122.564 117.219 121.444 117.219 121.444L157.792 119.154L112.292 133.014C112.292 133.014 105.651 130.883 106.419 126.729Z" fill="#8B5556"/>
<path d="M125.518 451.002L125.491 449.844L129.866 436.397L125.122 435.766L129.339 428.371L133.503 363.98L118.482 378.927L107.809 365.717L116.004 435.66L121.512 447.37L114.924 444.686L124.016 461.159L125.518 451.002Z" fill="#CF4F66"/>
<path d="M173.565 103.417C171.193 98.4699 153.773 95.628 153.773 95.628C154.327 95.628 154.854 95.6017 155.407 95.5754C162.602 82.6814 168.584 68.6032 173.248 54.3936C173.301 55.3935 175.91 108.285 173.565 103.417Z" fill="#882537"/>
<path d="M140.689 200.601L114.578 214.72L113.085 213.227L101.138 207.254L92.178 204.266L77.2447 201.28L66.7914 199.787L47.378 172.906L92.178 181.866L140.689 200.601Z" fill="#CF4F66"/>
<rect x="96.5618" y="335.68" width="65.8933" height="57.8933" rx="28.9467" fill="white"/>
<rect x="96.5618" y="335.68" width="65.8933" height="57.8933" rx="28.9467" stroke="white" stroke-width="11.9467"/>
<path d="M140.369 349.695C150.904 356.882 151.884 371.337 143.309 379.83C139.471 383.669 134.489 385.629 129.508 385.629C124.444 385.629 119.463 383.669 115.624 379.83C108.683 372.97 108.029 362.19 113.583 354.514C114.563 353.125 116.441 352.962 117.666 354.187C118.564 355.085 118.564 356.474 117.829 357.535C113.746 363.17 114.236 371.092 119.218 376.155C125.506 382.444 136.286 381.709 141.513 373.787C144.534 369.214 144.616 363.252 141.676 358.515C139.471 354.922 135.959 352.554 132.039 351.9V354.269C132.039 355.82 130.569 357.045 128.936 356.8C127.711 356.637 126.813 355.412 126.813 354.105V348.307C126.813 347.245 127.711 346.347 128.773 346.347C132.856 346.429 137.021 347.409 140.369 349.695ZM128.119 367.335L121.586 360.802C120.851 359.985 120.851 358.76 121.586 358.025C122.403 357.209 123.628 357.209 124.363 358.025L130.814 364.559C131.631 365.294 131.631 366.519 130.814 367.335C130.488 367.662 129.998 367.907 129.426 367.907C128.936 367.907 128.446 367.662 128.119 367.335Z" fill="#FF5757"/>
<path d="M63.7994 190.826L50.3594 172.906L72.7594 177.386L63.7994 190.826Z" fill="white"/>
<path d="M86.2017 195.307L72.7617 177.387L93.6684 181.867L86.2017 195.307Z" fill="white"/>
<path d="M72.7604 183.36L84.707 202.773L66.787 199.787L72.7604 183.36Z" fill="white"/>
<path d="M95.1583 187.242L102.625 208.148L86.1983 203.668L95.1583 187.242Z" fill="white"/>
<path d="M114.574 199.786L114.574 214.72L102.628 208.746L114.574 199.786Z" fill="white"/>
<path d="M104.048 202.6L93.668 181.866L114.378 190.182L104.048 202.6Z" fill="white"/>
<path d="M116.068 207.253L114.574 190.826L136.974 199.786L116.068 207.253Z" fill="white"/>
<path d="M229.559 462.613H228.164L238.036 439.58L238.165 439.279L238.26 438.966L248.713 404.619L249.521 401.965L248.014 399.635L231.587 374.248L231.243 373.717L230.796 373.27L212.281 354.754L221.914 316.222L221.924 316.182L221.933 316.141L227.907 290.755L228.306 289.058L227.73 287.413L217.277 257.547L217.125 257.114L216.909 256.709L204.963 234.309L203.276 231.147H199.692H195.917L193.331 225.974L211.77 203.584L213.551 201.421L213.027 198.669L207.053 167.309L206.989 166.972L206.887 166.645L199.42 142.752L199.37 142.592L199.312 142.436L196.403 134.68L198.796 132.885L201.83 130.61L201.062 126.896L192.102 83.5898L192.067 83.4242L192.024 83.2609L180.077 38.4609L175.441 21.0767L168.759 37.7816L165.773 45.2482L165.76 45.2792L165.748 45.3103L149.209 88.0369L134.246 88.9721L124.888 46.1902L120.029 23.9802L113.343 45.71L107.37 65.1233L107.333 65.2409L107.302 65.3598L100.523 91.1193L99.9542 91.4039L98.3984 92.1819L97.5034 93.6734L81.1166 120.985L56.9936 123.524L49.2611 120.947L48.6293 120.736L47.9666 120.67L33.0332 119.176L32.7368 119.147H32.4389H20.4922H10.2545L15.292 128.059L34.7054 162.406L35.106 163.115L35.6817 163.69L41.3989 169.408V174.4V176.26L42.4549 177.791L70.3176 218.192L66.9718 224.884L57.2215 228.54L55.3046 229.259L54.2316 231.003L42.285 250.416L41.8983 251.044L41.6761 251.748L32.7161 280.121L32.2332 281.65L32.5811 283.216L53.4878 377.296L53.548 377.567L53.6331 377.831L80.3388 460.759L74.8858 463.096L72.3432 464.186L71.5297 466.83L65.5563 486.243L63.1779 493.973H71.2655H232.546H239.508L238.449 487.092L235.463 467.678L234.683 462.613H229.559Z" stroke="white" stroke-width="11.9467"/>
<defs>
<linearGradient id="paint0_linear_26486_101172" x1="108.812" y1="103.496" x2="122.501" y2="489.396" gradientUnits="userSpaceOnUse">
<stop offset="0.02" stop-color="white"/>
<stop offset="0.99" stop-color="white" stop-opacity="0"/>
</linearGradient>
<linearGradient id="paint1_linear_26486_101172" x1="118.349" y1="103.154" x2="132.065" y2="489.053" gradientUnits="userSpaceOnUse">
<stop offset="0.02" stop-color="white"/>
<stop offset="0.99" stop-color="white" stop-opacity="0"/>
</linearGradient>
<linearGradient id="paint2_linear_26486_101172" x1="115.769" y1="103.258" x2="129.459" y2="489.158" gradientUnits="userSpaceOnUse">
<stop stop-color="#FFCA2C"/>
<stop offset="1" stop-color="#CB6F2C"/>
</linearGradient>
</defs>
</svg>
