<svg width="53" height="52" viewBox="0 0 53 52" fill="none" xmlns="http://www.w3.org/2000/svg">
<path d="M12.9883 10.7454L13.0587 3.25824L16.5616 2.20605L20.5988 9.00262L12.9883 10.7454Z" fill="#C62828"/>
<path opacity="0.59" d="M15.2206 8.32044C15.2206 8.32044 14.144 3.49012 15.3614 3.01075C17.5269 2.16169 19.2163 7.74356 19.2163 7.74356L15.2206 8.32044Z" fill="#37474F"/>
<path d="M8.52596 13.3293C8.48869 12.6671 7.57775 7.38585 8.96072 4.44054C9.59424 3.09585 12.1946 2.2021 14.5216 1.69429C15.0971 1.56835 16.5836 1.4871 17.507 2.5271C18.3392 3.46554 19.569 5.52117 20.7822 8.62085L19.9085 10.4652C19.9085 10.4652 18.7036 7.3371 17.4987 4.75335C16.5008 2.61242 15.2338 3.32335 15.1054 3.82304C14.8735 4.74117 16.0578 9.71773 16.0578 9.71773C14.3353 10.4368 8.52596 13.3293 8.52596 13.3293Z" fill="#F44336"/>
<path d="M17.5391 7.05648L18.2637 3.60336L21.1166 1.98242L24.5491 1.99055L27.4062 4.26148L28.197 8.68961L24.7479 7.54805L24.28 4.37523L21.1166 4.29805L20.6942 6.82086L17.5391 7.05648Z" fill="#455A64"/>
<path d="M14.5169 1.69781C12.1899 2.20156 9.85044 2.92875 8.95606 4.44406C8.44262 5.31344 8.1445 7.5925 8.20247 9.70906C8.6538 9.01031 10.4964 7.80375 11.8711 7.21875C13.2416 6.63375 13.399 6.05281 13.4197 5.79688C13.5232 4.635 13.4238 3.67625 13.7716 2.85563C14.2105 1.81563 14.8357 1.68563 15.2001 1.63281C14.9227 1.63281 14.6784 1.66125 14.5169 1.69781Z" fill="#FF7555"/>
<path d="M16.393 1.81145C16.1694 1.73426 15.9458 1.68551 15.7305 1.66113C15.9541 1.71801 16.1735 1.79113 16.393 1.81145Z" fill="#FF7555"/>
<path d="M43.2602 30.4276C43.7115 33.308 44.5976 33.5233 46.1421 33.4461C48.4815 33.3323 48.7382 32.8042 49.2599 28.8717C49.9059 23.9886 48.0385 17.1839 46.4278 12.5201C45.5748 10.0501 45.6617 8.35608 43.7612 6.47108C42.7178 5.43515 38.6558 3.91171 37.4757 5.89421C36.6642 7.25921 37.0699 8.64452 37.8442 9.7414C40.0926 12.9345 42.1629 23.4605 43.2602 30.4276Z" fill="#C62828"/>
<path opacity="0.59" d="M38.5312 10.9321C38.9619 11.7974 39.4049 12.9186 39.7652 14.1821C43.4338 14.0724 47.4088 15.7989 47.4088 15.6933C47.4088 15.6039 47.0982 13.2599 46.0879 10.9361C45.649 9.92862 44.3116 7.16612 42.6553 7.43424C40.5726 7.77549 38.5312 10.9321 38.5312 10.9321Z" fill="#37474F"/>
<path d="M35.5886 15.9212C36.6693 13.6544 40.665 7.88562 42.963 7.69874C44.1017 7.6053 45.3811 9.91687 45.849 11.1803C47.1616 14.7269 48.5901 20.2925 49.0083 26.1019C49.2692 29.7256 48.5943 32.61 47.203 33.8084C52.5361 32.8294 50.4534 21.4097 50.0021 19.0453C48.4825 11.1275 46.4908 8.14155 44.9629 6.54499C43.7953 5.32624 38.7106 2.74655 36.0275 2.86843C33.9613 2.96187 29.4397 6.75218 28.2058 8.85249C27.8414 9.46999 35.5886 15.9212 35.5886 15.9212Z" fill="#F44336"/>
<path d="M28.4287 50.2656C35.4263 49.7213 39.8526 45.8619 40.3164 42.2016C41.9147 29.5509 38.7554 11.2575 26.172 7.71094C24.7684 7.31688 22.3005 6.79688 20.1557 6.79688C17.6589 6.79688 13.8081 7.31281 11.0422 9.17344C5.9989 12.5697 4.6532 17.4041 4.32195 19.8009C3.10046 28.5881 19.6257 50.9522 28.4287 50.2656Z" fill="#FF7555"/>
<path d="M40.318 42.2012C41.1502 35.62 40.6948 27.5153 38.2932 20.7472C37.0427 19.1628 35.6515 18.4194 34.5004 18.785C33.1174 19.2237 31.9042 21.0316 32.3431 22.8516C32.3431 22.8516 35.6929 36.0384 33.4155 44.3787C31.9084 49.8997 27.9375 50.2775 27.9375 50.2775C28.1031 50.2775 28.2688 50.2775 28.4302 50.2653C35.432 49.7209 39.8542 45.8616 40.318 42.2012Z" fill="#C62828"/>
<path d="M7.70948 48.9044C9.8212 49.5585 15.3738 50.375 25.2078 50.375C34.0397 50.375 33.9776 47.2916 34.7064 43.6719C36.2053 36.205 34.1515 11.8788 18.7691 11.3547C5.3162 10.8916 3.9705 18.6428 2.95605 27.0603C1.89605 35.8638 2.14448 39.1585 2.65792 42.7457C3.32456 47.4338 6.25612 48.4535 7.70948 48.9044Z" fill="#F44336"/>
<path d="M37.2854 24.2983C36.9293 22.462 36.4241 20.443 35.5919 18.4727L34.5898 18.5173C35.3393 20.187 35.9604 22.1492 36.4076 24.4608C37.8361 31.8667 38.0017 36.8311 37.9272 39.5245C37.8816 41.1414 38.7884 41.1495 38.834 39.423C38.9044 36.6564 38.7139 31.7083 37.2854 24.2983Z" fill="#37474F"/>
<path d="M38.3136 38.679C38.0705 38.7616 37.865 38.9261 37.7339 39.1433C37.6027 39.3605 37.5543 39.6163 37.5973 39.8653L38.1356 42.9284C38.1559 43.0689 38.2102 43.2026 38.2939 43.3183C38.3776 43.4341 38.4883 43.5285 38.6167 43.5937C38.7452 43.6589 38.8877 43.693 39.0323 43.6932C39.177 43.6933 39.3195 43.6596 39.4482 43.5946L40.9471 42.8431C41.4357 42.5993 41.593 41.9859 41.2825 41.5431L39.5558 39.0812C39.4216 38.8906 39.2277 38.7483 39.0035 38.6757C38.7793 38.6031 38.5371 38.6043 38.3136 38.679Z" fill="#E2A610"/>
<path d="M39.018 42.9931C38.9435 42.859 38.546 40.7709 38.4259 39.8203C38.2934 38.7519 38.7613 38.6909 38.8317 38.634C38.6616 38.6078 38.4875 38.6216 38.3238 38.6744C38.1602 38.7273 38.0118 38.8176 37.8908 38.9379C37.7698 39.0582 37.6797 39.205 37.6281 39.3662C37.5764 39.5274 37.5646 39.6984 37.5937 39.865L38.1319 42.9281C38.1941 43.3465 38.5294 43.639 38.9145 43.6878C39.0884 43.7081 39.2706 43.6837 39.4445 43.5944L39.7923 43.4197C39.7758 43.4156 39.2623 43.4319 39.018 42.9931Z" fill="#FFCA28"/>
<path d="M49.6669 37.4275L45.7995 37.7647C45.4434 37.7972 45.1246 37.5372 45.0956 37.1838L44.8016 33.9622C44.7685 33.6128 45.0335 33.3 45.3937 33.2716L49.2611 32.9344C49.6172 32.9019 49.936 33.1619 49.965 33.5153L50.259 36.7369C50.288 37.0863 50.023 37.395 49.6669 37.4275Z" fill="#546E7A"/>
<path d="M48.6144 37.5501L44.954 37.8711C44.598 37.9036 44.2791 37.6436 44.2501 37.2901L43.952 34.0036C43.9189 33.6542 44.1839 33.3414 44.5441 33.3129L48.2044 32.992C48.5605 32.9595 48.8794 33.2195 48.9083 33.5729L49.2065 36.8595C49.2355 37.2089 48.9705 37.5176 48.6144 37.5501Z" fill="#37474F"/>
<path d="M46.0769 41.2585L44.9548 35.4572C44.9341 35.3597 45.0045 35.2663 45.108 35.2582L48.0603 34.9657C48.1431 34.9575 48.2217 35.0104 48.2424 35.0916L49.6999 40.446C49.7952 40.7954 49.5757 41.1569 49.2155 41.2382L46.8636 41.7663C46.5034 41.8435 46.1431 41.616 46.0769 41.2585Z" fill="#A06841"/>
<path opacity="0.65" d="M20.4835 23.8914L14.0945 23.7045C13.5355 23.7045 13.0801 23.2577 13.0801 22.7092L13.167 19.4836C13.167 18.9433 13.6059 18.5005 14.1566 18.4883L20.4752 18.6548C20.6091 18.6512 20.7424 18.6736 20.8674 18.7207C20.9924 18.7678 21.1067 18.8388 21.2037 18.9294C21.3007 19.02 21.3784 19.1285 21.4325 19.2487C21.4865 19.369 21.5158 19.4985 21.5187 19.6298L21.5063 22.8758C21.5104 23.4323 21.0549 23.8914 20.4835 23.8914Z" fill="#FFF59D"/>
<path d="M36.0273 2.86439C34.4621 2.91314 31.4353 5.14751 29.5762 7.12595C30.5368 7.04876 32.81 8.09282 34.6981 9.52282C35.0749 9.8072 36.0024 9.75439 36.607 9.11657C37.1577 8.53564 37.6752 8.08876 38.2301 7.51189C41.4846 4.12782 44.0435 5.80564 44.0435 5.80564C41.3521 4.0872 38.0727 2.80345 36.0273 2.86439Z" fill="#FF7555"/>
<path d="M35.7212 18.7805C33.6799 13.7755 29.56 8.9614 20.5583 8.16515C14.3059 7.61265 10.0949 10.4605 8.3807 11.4923C7.99977 11.7198 7.57328 12.0042 7.28344 12.3942C6.91492 12.8898 6.86523 13.2961 6.86523 13.2961C6.86523 13.2961 12.2895 8.32765 20.4755 9.03859C25.1544 9.44484 31.2991 10.9764 34.682 18.7358C34.9677 18.6667 35.3527 18.7073 35.7212 18.7805Z" fill="#546E7A"/>
<path d="M28.7165 46.4145C28.7165 46.4145 22.0998 46.8655 14.6591 46.4673C10.7379 46.2561 7.8643 45.7036 7.28047 44.9602C6.56 44.042 5.70703 43.1523 5.70703 38.4317C5.70703 35.2508 6.90367 32.6873 9.22242 32.6305C10.9946 32.5858 29.5984 32.3867 28.1948 32.3867C26.7911 32.3867 25.5241 35.4052 25.6524 38.6592C25.9671 46.6339 28.7165 46.4145 28.7165 46.4145Z" fill="#FF7555"/>
<path d="M22.2222 38.4314C22.3671 38.3908 23.6839 38.5045 24.7356 37.7855C25.1331 37.5133 25.4478 37.2858 25.7003 37.0258C25.9446 34.5883 26.9218 32.6017 28.015 32.4067C28.0522 32.3986 28.0895 32.3905 28.1226 32.3864C26.4995 32.4189 13.2288 31.9395 9.08402 32.0005C7.16277 32.0289 5.68042 34.247 5.81292 36.8552C6.09035 37.3386 6.53753 37.8586 7.22074 37.9602C8.5623 38.1592 22.0773 38.4761 22.2222 38.4314Z" fill="#FF7555"/>
<path opacity="0.45" d="M22.2222 38.4314C22.3671 38.3908 23.6839 38.5045 24.7356 37.7855C25.1331 37.5133 25.4478 37.2858 25.7003 37.0258C25.9446 34.5883 26.9218 32.6017 28.015 32.4067C28.0522 32.3986 28.0895 32.3905 28.1226 32.3864C26.4995 32.4189 13.2288 31.9395 9.08402 32.0005C7.16277 32.0289 5.68042 34.247 5.81292 36.8552C6.09035 37.3386 6.53753 37.8586 7.22074 37.9602C8.5623 38.1592 22.0773 38.4761 22.2222 38.4314Z" fill="#FFF59D"/>
<path d="M30.8152 36.4406C30.6744 34.3199 30.1651 33.3124 29.7014 32.8331C29.2749 32.3862 28.6082 32.3496 27.66 32.3943C27.0721 32.4228 25.9996 32.9753 25.5483 36.2374V36.2334C25.1922 37.0256 24.2606 37.8137 22.7161 37.8137L7.91339 37.3424C6.43105 37.249 5.88862 35.8596 5.81823 35.7337C5.81823 35.7337 5.60292 36.7128 5.80581 37.3343C6.06253 38.1143 7.00659 38.5774 7.91339 38.5774L22.7161 39.0487C23.8962 39.0487 24.7947 38.5896 25.3744 38.1631C25.3496 38.6668 25.3371 39.2153 25.3371 39.8084C25.3371 46.0484 27.1714 46.5196 28.3432 46.4668C29.515 46.4099 30.662 45.9712 30.8483 44.9515C31.1133 43.5256 31.0843 40.5274 30.8152 36.4406Z" fill="#C62828"/>
</svg>
