<svg width="24" height="25" viewBox="0 0 24 25" fill="none" xmlns="http://www.w3.org/2000/svg">
<circle cx="12" cy="13" r="12" fill="white"/>
<circle cx="12.0004" cy="13.0004" r="9.6" fill="#FEC94A"/>
<path d="M11.1368 19.0138C12.7137 19.1394 14.1905 19.2399 15.7174 19.3655C16.1179 19.3906 16.5183 19.4157 16.9439 19.5413C18.0953 19.893 18.3956 21.2495 17.4945 22.0784C17.1691 22.3296 16.7937 22.5305 16.4182 22.631C15.5672 22.8069 14.7412 22.9576 13.9152 23.0581C12.939 23.1585 11.9878 23.259 11.0366 23.3093C8.15813 23.3344 6.65629 22.0533 6.13065 19.1896C6.03053 18.6621 5.98047 18.1095 5.98047 17.5569C5.98047 14.3416 5.98047 11.1263 6.43102 7.9361C6.60623 6.83084 6.80648 5.72558 7.10685 4.64544C7.33212 3.79138 7.88279 3.18851 8.78389 3.03779C9.98536 2.86196 10.9866 3.59042 11.1368 4.77104C11.2619 5.44927 11.312 6.15261 11.312 6.83084C11.2619 9.71959 11.1868 12.6083 11.1368 15.472C11.1117 16.6275 11.1368 17.7578 11.1368 19.0138Z" fill="#8B5556"/>
<path fill-rule="evenodd" clip-rule="evenodd" d="M6.43075 7.9356C6.60596 6.83034 6.80621 5.72508 7.10657 4.64494C7.33185 3.79088 7.88252 3.18801 8.78362 3.03729C9.98509 2.86145 10.9863 3.58992 11.1365 4.77054C11.2617 5.44876 11.3117 6.15211 11.3117 6.83034C11.2864 8.29063 11.2547 9.75092 11.2231 11.208C11.1921 12.6332 11.1613 14.0554 11.1365 15.4715C11.12 16.2338 11.1253 16.9851 11.1308 17.7688C11.1336 18.1731 11.1365 18.5859 11.1365 19.0133C11.8496 19.0701 12.5421 19.1218 13.2281 19.1729C14.0592 19.2349 14.8806 19.2962 15.7171 19.365C16.1176 19.3901 16.5181 19.4152 16.9436 19.5408C18.095 19.8925 18.3954 21.2489 17.4943 22.0779C17.1689 22.3291 16.7934 22.53 16.418 22.6305C15.5669 22.8064 14.7409 22.9571 13.9149 23.0576C13.8672 23.0625 13.8196 23.0674 13.772 23.0723C12.8458 23.1677 11.9411 23.261 11.0364 23.3087C8.15786 23.3339 6.65602 22.0528 6.13038 19.1891C6.03026 18.6616 5.9802 18.109 5.9802 17.5564C5.9802 14.3411 5.9802 11.1258 6.43075 7.9356ZM5.2849 19.347C5.5684 20.8894 6.13902 22.1405 7.14676 22.9899C8.15818 23.8423 9.48181 24.1824 11.0439 24.1688L11.0628 24.1686L11.0817 24.1676C12.0086 24.1187 12.933 24.0234 13.8538 23.9285C13.9035 23.9234 13.9533 23.9182 14.003 23.9131L14.0109 23.9123L14.0187 23.9113C14.8778 23.8068 15.7295 23.651 16.592 23.4728L16.6163 23.4678L16.6403 23.4614C17.1466 23.3259 17.6231 23.065 18.0198 22.7587L18.0492 22.736L18.0766 22.7109C19.4525 21.4451 19.0006 19.2698 17.1948 18.7183L17.191 18.7171L17.1871 18.7159C16.6679 18.5627 16.1851 18.5325 15.7984 18.5083L15.7792 18.5071C14.9486 18.4388 14.1195 18.377 13.2844 18.3146C12.8562 18.2827 12.4263 18.2506 11.9939 18.2175C11.9929 18.0581 11.9918 17.9011 11.9907 17.7459C11.9853 16.9707 11.9801 16.2407 11.9964 15.4901L11.9964 15.4883L11.9964 15.4865C12.0212 14.0721 12.052 12.6513 12.083 11.2252L12.084 11.179C12.1153 9.73802 12.1466 8.2918 12.1717 6.84524L12.1718 6.83779V6.83034C12.1718 6.11901 12.12 5.37003 11.9864 4.63686C11.7608 2.96732 10.3019 1.94584 8.65908 2.18627L8.65039 2.18754L8.64174 2.18899C7.35433 2.40432 6.574 3.29891 6.27648 4.41975C5.96361 5.54609 5.7577 6.68802 5.58128 7.80093L5.58014 7.80812L5.57912 7.81532C5.12011 11.0654 5.12011 14.3313 5.12012 17.5272V17.5564C5.12012 18.1591 5.17456 18.7647 5.2849 19.347Z" fill="#040065"/>
<path fill-rule="evenodd" clip-rule="evenodd" d="M6.43075 7.9356C6.60596 6.83034 6.80621 5.72508 7.10657 4.64494C7.33185 3.79088 7.88252 3.18801 8.78362 3.03729C9.98509 2.86145 10.9863 3.58992 11.1365 4.77054C11.2617 5.44876 11.3117 6.15211 11.3117 6.83034C11.2864 8.29063 11.2547 9.75092 11.2231 11.208C11.1921 12.6332 11.1613 14.0554 11.1365 15.4715C11.12 16.2338 11.1253 16.9851 11.1308 17.7688C11.1336 18.1731 11.1365 18.5859 11.1365 19.0133C11.8496 19.0701 12.5421 19.1218 13.2281 19.1729C14.0592 19.2349 14.8806 19.2962 15.7171 19.365C16.1176 19.3901 16.5181 19.4152 16.9436 19.5408C18.095 19.8925 18.3954 21.2489 17.4943 22.0779C17.1689 22.3291 16.7934 22.53 16.418 22.6305C15.5669 22.8064 14.7409 22.9571 13.9149 23.0576C13.8672 23.0625 13.8196 23.0674 13.772 23.0723C12.8458 23.1677 11.9411 23.261 11.0364 23.3087C8.15786 23.3339 6.65602 22.0528 6.13038 19.1891C6.03026 18.6616 5.9802 18.109 5.9802 17.5564C5.9802 14.3411 5.9802 11.1258 6.43075 7.9356ZM5.2849 19.347C5.5684 20.8894 6.13902 22.1405 7.14676 22.9899C8.15818 23.8423 9.48181 24.1824 11.0439 24.1688L11.0628 24.1686L11.0817 24.1676C12.0086 24.1187 12.933 24.0234 13.8538 23.9285C13.9035 23.9234 13.9533 23.9182 14.003 23.9131L14.0109 23.9123L14.0187 23.9113C14.8778 23.8068 15.7295 23.651 16.592 23.4728L16.6163 23.4678L16.6403 23.4614C17.1466 23.3259 17.6231 23.065 18.0198 22.7587L18.0492 22.736L18.0766 22.7109C19.4525 21.4451 19.0006 19.2698 17.1948 18.7183L17.191 18.7171L17.1871 18.7159C16.6679 18.5627 16.1851 18.5325 15.7984 18.5083L15.7792 18.5071C14.9486 18.4388 14.1195 18.377 13.2844 18.3146C12.8562 18.2827 12.4263 18.2506 11.9939 18.2175C11.9929 18.0581 11.9918 17.9011 11.9907 17.7459C11.9853 16.9707 11.9801 16.2407 11.9964 15.4901L11.9964 15.4883L11.9964 15.4865C12.0212 14.0721 12.052 12.6513 12.083 11.2252L12.084 11.179C12.1153 9.73802 12.1466 8.2918 12.1717 6.84524L12.1718 6.83779V6.83034C12.1718 6.11901 12.12 5.37003 11.9864 4.63686C11.7608 2.96732 10.3019 1.94584 8.65908 2.18627L8.65039 2.18754L8.64174 2.18899C7.35433 2.40432 6.574 3.29891 6.27648 4.41975C5.96361 5.54609 5.7577 6.68802 5.58128 7.80093L5.58014 7.80812L5.57912 7.81532C5.12011 11.0654 5.12011 14.3313 5.12012 17.5272V17.5564C5.12012 18.1591 5.17456 18.7647 5.2849 19.347Z" fill="#040065" fill-opacity="0.8" style="mix-blend-mode:multiply"/>
<path d="M13.5362 17.5734C15.1131 17.699 16.5899 17.7995 18.1168 17.9251C18.5173 17.9502 18.9178 17.9753 19.3433 18.1009C20.4947 18.4526 20.7951 19.809 19.894 20.638C19.5686 20.8892 19.1931 21.0901 18.8176 21.1906C17.9666 21.3664 17.1406 21.5171 16.3146 21.6176C15.3384 21.7181 14.3872 21.8186 13.4361 21.8688C10.5575 21.8939 9.05571 20.6128 8.53007 17.7492C8.42994 17.2217 8.37988 16.6691 8.37988 16.1165C8.37988 12.9012 8.37988 9.68585 8.83043 6.49567C9.00565 5.39041 9.20589 4.28515 9.50626 3.20501C9.73153 2.35095 10.2822 1.74808 11.1833 1.59736C12.3848 1.42153 13.386 2.14999 13.5362 3.33061C13.6613 4.00884 13.7114 4.71218 13.7114 5.39041C13.6613 8.27916 13.5862 11.1679 13.5362 14.0315C13.5112 15.187 13.5362 16.3174 13.5362 17.5734Z" fill="#FF5757"/>
<path fill-rule="evenodd" clip-rule="evenodd" d="M8.83016 6.49517C9.00538 5.38991 9.20562 4.28465 9.50599 3.20451C9.73126 2.35045 10.2819 1.74758 11.183 1.59686C12.3845 1.42102 13.3857 2.14949 13.5359 3.33011C13.6611 4.00833 13.7111 4.71168 13.7111 5.38991C13.6858 6.8502 13.6541 8.31049 13.6225 9.76753C13.5915 11.1928 13.5607 12.615 13.5359 14.031C13.5194 14.7933 13.5247 15.5447 13.5302 16.3284C13.533 16.7327 13.5359 17.1455 13.5359 17.5729C14.249 17.6297 14.9416 17.6813 15.6276 17.7325C16.4586 17.7945 17.2801 17.8557 18.1165 17.9246C18.517 17.9497 18.9175 17.9748 19.343 18.1004C20.4944 18.4521 20.7948 19.8085 19.8937 20.6375C19.5683 20.8887 19.1928 21.0896 18.8174 21.1901C17.9663 21.3659 17.1403 21.5166 16.3143 21.6171C16.2666 21.622 16.219 21.6269 16.1715 21.6318C15.2452 21.7273 14.3405 21.8205 13.4358 21.8683C10.5573 21.8934 9.05544 20.6123 8.5298 17.7487C8.42967 17.2212 8.37961 16.6686 8.37961 16.1159C8.37961 12.9006 8.37961 9.68535 8.83016 6.49517ZM7.68432 17.9065C7.96782 19.449 8.53843 20.7001 9.54618 21.5494C10.5576 22.4019 11.8812 22.742 13.4433 22.7284L13.4622 22.7282L13.4812 22.7272C14.408 22.6782 15.3324 22.583 16.2532 22.488C16.303 22.4829 16.3527 22.4778 16.4024 22.4727L16.4103 22.4719L16.4182 22.4709C17.2772 22.3664 18.1289 22.2106 18.9914 22.0324L19.0157 22.0274L19.0397 22.0209C19.546 21.8854 20.0225 21.6246 20.4192 21.3183L20.4486 21.2956L20.476 21.2704C21.852 20.0047 21.4 17.8294 19.5942 17.2778L19.5904 17.2766L19.5865 17.2755C19.0674 17.1223 18.5845 17.0921 18.1978 17.0679L18.1786 17.0667C17.348 16.9984 16.5189 16.9365 15.6838 16.8742C15.2556 16.8423 14.8258 16.8102 14.3933 16.7771C14.3924 16.6177 14.3913 16.4607 14.3902 16.3055C14.3847 15.5303 14.3795 14.8003 14.3958 14.0497L14.3958 14.0479L14.3959 14.0461C14.4206 12.6317 14.4514 11.2109 14.4824 9.78482L14.4834 9.73855C14.5147 8.29759 14.546 6.85137 14.5711 5.40481L14.5712 5.39736V5.38991C14.5712 4.67858 14.5194 3.9296 14.3858 3.19643C14.1602 1.52689 12.7013 0.505414 11.0585 0.745844L11.0498 0.747115L11.0412 0.748563C9.75374 0.963895 8.97342 1.85848 8.67589 2.97932C8.36302 4.10566 8.15712 5.24759 7.98069 6.3605L7.97955 6.36769L7.97853 6.37489C7.51952 9.62497 7.51953 12.8909 7.51953 16.0868V16.1159C7.51953 16.7187 7.57397 17.3243 7.68432 17.9065Z" fill="#040065"/>
<path fill-rule="evenodd" clip-rule="evenodd" d="M8.83016 6.49517C9.00538 5.38991 9.20562 4.28465 9.50599 3.20451C9.73126 2.35045 10.2819 1.74758 11.183 1.59686C12.3845 1.42102 13.3857 2.14949 13.5359 3.33011C13.6611 4.00833 13.7111 4.71168 13.7111 5.38991C13.6858 6.8502 13.6541 8.31049 13.6225 9.76753C13.5915 11.1928 13.5607 12.615 13.5359 14.031C13.5194 14.7933 13.5247 15.5447 13.5302 16.3284C13.533 16.7327 13.5359 17.1455 13.5359 17.5729C14.249 17.6297 14.9416 17.6813 15.6276 17.7325C16.4586 17.7945 17.2801 17.8557 18.1165 17.9246C18.517 17.9497 18.9175 17.9748 19.343 18.1004C20.4944 18.4521 20.7948 19.8085 19.8937 20.6375C19.5683 20.8887 19.1928 21.0896 18.8174 21.1901C17.9663 21.3659 17.1403 21.5166 16.3143 21.6171C16.2666 21.622 16.219 21.6269 16.1715 21.6318C15.2452 21.7273 14.3405 21.8205 13.4358 21.8683C10.5573 21.8934 9.05544 20.6123 8.5298 17.7487C8.42967 17.2212 8.37961 16.6686 8.37961 16.1159C8.37961 12.9006 8.37961 9.68535 8.83016 6.49517ZM7.68432 17.9065C7.96782 19.449 8.53843 20.7001 9.54618 21.5494C10.5576 22.4019 11.8812 22.742 13.4433 22.7284L13.4622 22.7282L13.4812 22.7272C14.408 22.6782 15.3324 22.583 16.2532 22.488C16.303 22.4829 16.3527 22.4778 16.4024 22.4727L16.4103 22.4719L16.4182 22.4709C17.2772 22.3664 18.1289 22.2106 18.9914 22.0324L19.0157 22.0274L19.0397 22.0209C19.546 21.8854 20.0225 21.6246 20.4192 21.3183L20.4486 21.2956L20.476 21.2704C21.852 20.0047 21.4 17.8294 19.5942 17.2778L19.5904 17.2766L19.5865 17.2755C19.0674 17.1223 18.5845 17.0921 18.1978 17.0679L18.1786 17.0667C17.348 16.9984 16.5189 16.9365 15.6838 16.8742C15.2556 16.8423 14.8258 16.8102 14.3933 16.7771C14.3924 16.6177 14.3913 16.4607 14.3902 16.3055C14.3847 15.5303 14.3795 14.8003 14.3958 14.0497L14.3958 14.0479L14.3959 14.0461C14.4206 12.6317 14.4514 11.2109 14.4824 9.78482L14.4834 9.73855C14.5147 8.29759 14.546 6.85137 14.5711 5.40481L14.5712 5.39736V5.38991C14.5712 4.67858 14.5194 3.9296 14.3858 3.19643C14.1602 1.52689 12.7013 0.505414 11.0585 0.745844L11.0498 0.747115L11.0412 0.748563C9.75374 0.963895 8.97342 1.85848 8.67589 2.97932C8.36302 4.10566 8.15712 5.24759 7.98069 6.3605L7.97955 6.36769L7.97853 6.37489C7.51952 9.62497 7.51953 12.8909 7.51953 16.0868V16.1159C7.51953 16.7187 7.57397 17.3243 7.68432 17.9065Z" fill="#040065" fill-opacity="0.8" style="mix-blend-mode:multiply"/>
</svg>
