<svg width="65" height="47" viewBox="0 0 65 47" fill="none" xmlns="http://www.w3.org/2000/svg">
<path opacity="0.3" d="M32.3493 47C50.02 47 64.345 46.3212 64.345 45.4839C64.345 44.6466 50.02 43.9678 32.3493 43.9678C14.6785 43.9678 0.353516 44.6466 0.353516 45.4839C0.353516 46.3212 14.6785 47 32.3493 47Z" fill="#9DC2C9"/>
<path d="M49.2063 40.6658L50.1593 42.5583H10.7676L11.7206 40.6658L12.1953 39.7232L12.3173 39.4807C13.9781 36.1819 14.8421 32.5551 14.8421 28.8796V16.5013C14.8421 16.4538 14.8421 16.405 14.8409 16.3575C14.8311 14.6838 14.642 13.0219 14.2795 11.3957C14.1819 10.9595 14.0721 10.5256 13.9501 10.0953C13.8622 9.77905 13.7658 9.46523 13.6621 9.15259C13.2972 8.04113 12.8481 6.95463 12.3173 5.90142L10.7676 2.82617H50.1605L48.6108 5.90142C48.08 6.95463 47.6309 8.04113 47.2661 9.15259C47.1623 9.46523 47.0659 9.77905 46.9781 10.0953C46.856 10.5256 46.7462 10.9595 46.6486 11.3957C46.2862 13.0219 46.097 14.6838 46.0873 16.3575C46.086 16.405 46.086 16.4538 46.086 16.5013V28.8796C46.086 32.5539 46.95 36.1807 48.6108 39.4807L48.7328 39.7232L49.2063 40.6658Z" fill="#7DBB2E"/>
<path d="M50.1605 0H10.7676V2.8268H50.1605V0Z" fill="#6EA31B"/>
<g style="mix-blend-mode:multiply" opacity="0.3">
<path d="M13.2557 0H12.2148V2.8268H13.2557V0Z" fill="#6EA31B"/>
</g>
<g style="mix-blend-mode:multiply" opacity="0.3">
<path d="M15.2264 0H14.1855V2.8268H15.2264V0Z" fill="#6EA31B"/>
</g>
<g style="mix-blend-mode:multiply" opacity="0.3">
<path d="M17.1932 0H16.1523V2.8268H17.1932V0Z" fill="#6EA31B"/>
</g>
<g style="mix-blend-mode:multiply" opacity="0.3">
<path d="M19.1639 0H18.123V2.8268H19.1639V0Z" fill="#6EA31B"/>
</g>
<g style="mix-blend-mode:multiply" opacity="0.3">
<path d="M21.1346 0H20.0938V2.8268H21.1346V0Z" fill="#6EA31B"/>
</g>
<g style="mix-blend-mode:multiply" opacity="0.3">
<path d="M23.1034 0H22.0625V2.8268H23.1034V0Z" fill="#6EA31B"/>
</g>
<g style="mix-blend-mode:multiply" opacity="0.3">
<path d="M25.0741 0H24.0332V2.8268H25.0741V0Z" fill="#6EA31B"/>
</g>
<g style="mix-blend-mode:multiply" opacity="0.3">
<path d="M27.0448 0H26.0039V2.8268H27.0448V0Z" fill="#6EA31B"/>
</g>
<g style="mix-blend-mode:multiply" opacity="0.3">
<path d="M29.0136 0H27.9727V2.8268H29.0136V0Z" fill="#6EA31B"/>
</g>
<g style="mix-blend-mode:multiply" opacity="0.3">
<path d="M30.9823 0H29.9414V2.8268H30.9823V0Z" fill="#6EA31B"/>
</g>
<g style="mix-blend-mode:multiply" opacity="0.3">
<path d="M32.9511 0H31.9102V2.8268H32.9511V0Z" fill="#6EA31B"/>
</g>
<g style="mix-blend-mode:multiply" opacity="0.3">
<path d="M34.9218 0H33.8809V2.8268H34.9218V0Z" fill="#6EA31B"/>
</g>
<g style="mix-blend-mode:multiply" opacity="0.3">
<path d="M36.8905 0H35.8496V2.8268H36.8905V0Z" fill="#6EA31B"/>
</g>
<g style="mix-blend-mode:multiply" opacity="0.3">
<path d="M38.8632 0H37.8223V2.8268H38.8632V0Z" fill="#6EA31B"/>
</g>
<g style="mix-blend-mode:multiply" opacity="0.3">
<path d="M40.8319 0H39.791V2.8268H40.8319V0Z" fill="#6EA31B"/>
</g>
<g style="mix-blend-mode:multiply" opacity="0.3">
<path d="M42.8007 0H41.7598V2.8268H42.8007V0Z" fill="#6EA31B"/>
</g>
<g style="mix-blend-mode:multiply" opacity="0.3">
<path d="M44.7694 0H43.7285V2.8268H44.7694V0Z" fill="#6EA31B"/>
</g>
<g style="mix-blend-mode:multiply" opacity="0.3">
<path d="M46.7401 0H45.6992V2.8268H46.7401V0Z" fill="#6EA31B"/>
</g>
<g style="mix-blend-mode:multiply" opacity="0.3">
<path d="M48.7108 0H47.6699V2.8268H48.7108V0Z" fill="#6EA31B"/>
</g>
<path d="M50.1605 42.5576H10.7676V45.3844H50.1605V42.5576Z" fill="#6EA31B"/>
<g style="mix-blend-mode:multiply" opacity="0.3">
<path d="M13.2557 42.5576H12.2148V45.3844H13.2557V42.5576Z" fill="#6EA31B"/>
</g>
<g style="mix-blend-mode:multiply" opacity="0.3">
<path d="M15.2264 42.5576H14.1855V45.3844H15.2264V42.5576Z" fill="#6EA31B"/>
</g>
<g style="mix-blend-mode:multiply" opacity="0.3">
<path d="M17.1932 42.5576H16.1523V45.3844H17.1932V42.5576Z" fill="#6EA31B"/>
</g>
<g style="mix-blend-mode:multiply" opacity="0.3">
<path d="M19.1639 42.5576H18.123V45.3844H19.1639V42.5576Z" fill="#6EA31B"/>
</g>
<g style="mix-blend-mode:multiply" opacity="0.3">
<path d="M21.1346 42.5576H20.0938V45.3844H21.1346V42.5576Z" fill="#6EA31B"/>
</g>
<g style="mix-blend-mode:multiply" opacity="0.3">
<path d="M23.1034 42.5576H22.0625V45.3844H23.1034V42.5576Z" fill="#6EA31B"/>
</g>
<g style="mix-blend-mode:multiply" opacity="0.3">
<path d="M25.0741 42.5576H24.0332V45.3844H25.0741V42.5576Z" fill="#6EA31B"/>
</g>
<g style="mix-blend-mode:multiply" opacity="0.3">
<path d="M27.0448 42.5576H26.0039V45.3844H27.0448V42.5576Z" fill="#6EA31B"/>
</g>
<g style="mix-blend-mode:multiply" opacity="0.3">
<path d="M29.0136 42.5576H27.9727V45.3844H29.0136V42.5576Z" fill="#6EA31B"/>
</g>
<g style="mix-blend-mode:multiply" opacity="0.3">
<path d="M30.9823 42.5576H29.9414V45.3844H30.9823V42.5576Z" fill="#6EA31B"/>
</g>
<g style="mix-blend-mode:multiply" opacity="0.3">
<path d="M32.9511 42.5576H31.9102V45.3844H32.9511V42.5576Z" fill="#6EA31B"/>
</g>
<g style="mix-blend-mode:multiply" opacity="0.3">
<path d="M34.9218 42.5576H33.8809V45.3844H34.9218V42.5576Z" fill="#6EA31B"/>
</g>
<g style="mix-blend-mode:multiply" opacity="0.3">
<path d="M36.8905 42.5576H35.8496V45.3844H36.8905V42.5576Z" fill="#6EA31B"/>
</g>
<g style="mix-blend-mode:multiply" opacity="0.3">
<path d="M38.8632 42.5576H37.8223V45.3844H38.8632V42.5576Z" fill="#6EA31B"/>
</g>
<g style="mix-blend-mode:multiply" opacity="0.3">
<path d="M40.8319 42.5576H39.791V45.3844H40.8319V42.5576Z" fill="#6EA31B"/>
</g>
<g style="mix-blend-mode:multiply" opacity="0.3">
<path d="M42.8007 42.5576H41.7598V45.3844H42.8007V42.5576Z" fill="#6EA31B"/>
</g>
<g style="mix-blend-mode:multiply" opacity="0.3">
<path d="M44.7694 42.5576H43.7285V45.3844H44.7694V42.5576Z" fill="#6EA31B"/>
</g>
<g style="mix-blend-mode:multiply" opacity="0.3">
<path d="M46.7401 42.5576H45.6992V45.3844H46.7401V42.5576Z" fill="#6EA31B"/>
</g>
<g style="mix-blend-mode:multiply" opacity="0.3">
<path d="M48.7108 42.5576H47.6699V45.3844H48.7108V42.5576Z" fill="#6EA31B"/>
</g>
<path d="M46.6471 11.3965C46.2847 13.0227 46.0956 14.6845 46.0858 16.3582H14.8406C14.8309 14.6845 14.6417 13.0227 14.2793 11.3965H46.6471Z" fill="#FAD92D"/>
<path d="M47.2661 9.15332C47.1624 9.46596 47.066 9.77978 46.9781 10.096H13.9501C13.8622 9.77978 13.7658 9.46596 13.6621 9.15332H47.2661Z" fill="#FAD92D"/>
<path d="M49.2044 40.6663H11.7188L12.1934 39.7236H48.731L49.2044 40.6663Z" fill="#FAD92D"/>
<g style="mix-blend-mode:screen" opacity="0.5">
<g style="mix-blend-mode:screen">
<path d="M21.3625 28.8817C21.3625 28.8817 21.3625 16.3941 21.3612 16.3394C21.3503 14.586 21.1514 12.8291 20.7694 11.1161C20.6657 10.6549 19.2538 6.42065 18.6986 5.31989L18.3386 4.60546C18.1983 4.3273 17.9091 4.15137 17.5906 4.15137H14.2849C13.6686 4.15137 13.2659 4.78139 13.5368 5.31989C14.0921 6.42184 15.5051 10.6561 15.6076 11.1161C15.9896 12.8279 16.1885 14.5848 16.1995 16.3394C16.2007 16.3941 16.2007 28.8817 16.2007 28.8817C16.2007 32.7368 15.2794 36.6049 13.5356 40.0665C13.2635 40.6061 13.6674 41.2362 14.2836 41.2362H17.5881C17.9066 41.2362 18.1958 41.0602 18.3362 40.7821L18.6962 40.0676C20.4399 36.6061 21.3612 32.7379 21.3612 28.8829L21.3625 28.8817Z" fill="#7DBB2E"/>
</g>
</g>
<g style="mix-blend-mode:multiply" opacity="0.5">
<g style="mix-blend-mode:multiply">
<path d="M39.8359 28.8817C39.8359 28.8817 39.8359 16.3941 39.8372 16.3394C39.8481 14.586 40.047 12.8291 40.429 11.1161C40.5327 10.6549 41.9446 6.42065 42.4998 5.31989L42.8598 4.60546C43.0001 4.3273 43.2893 4.15137 43.6078 4.15137H46.9135C47.5298 4.15137 47.9325 4.78139 47.6616 5.31989C47.1063 6.42184 45.6933 10.6561 45.5908 11.1161C45.2088 12.8279 45.0099 14.5848 44.9989 16.3394C44.9977 16.3941 44.9977 28.8817 44.9977 28.8817C44.9977 32.7368 45.919 36.6049 47.6628 40.0665C47.9349 40.6061 47.531 41.2362 46.9148 41.2362H43.6103C43.2918 41.2362 43.0026 41.0602 42.8622 40.7821L42.5022 40.0676C40.7585 36.6061 39.8372 32.7379 39.8372 28.8829L39.8359 28.8817Z" fill="#7DBB2E"/>
</g>
</g>
<path d="M33.5051 33.5212C32.9852 34.874 30.5484 36.6 27.7795 35.5908C25.0107 34.5816 22.9595 31.2198 23.4793 29.8671C23.9991 28.5143 26.5495 30.3509 29.3183 31.3601C32.0871 32.3693 34.0249 32.1684 33.5051 33.5212Z" fill="#FAD92D"/>
<path d="M28.5017 26.9272C27.2375 27.6832 25.5096 27.6547 23.9635 25.2011C22.4174 22.7464 22.9226 18.8676 24.1868 18.1115C25.451 17.3555 25.3412 21.591 26.8873 24.0457C28.4334 26.5004 29.7671 26.1723 28.5029 26.9272H28.5017Z" fill="#FAD92D"/>
<path d="M31.754 29.7611C32.8254 30.7608 35.7895 31.2839 37.8347 29.2036C39.8786 27.1233 40.2288 23.2278 39.1574 22.2281C38.086 21.2284 37.3648 24.3369 35.3197 26.4172C33.2757 28.4975 30.6826 28.7614 31.754 29.7599V29.7611Z" fill="#FAD92D"/>
<g style="mix-blend-mode:screen" opacity="0.5">
<g style="mix-blend-mode:screen">
<path d="M23.1763 40.0667C24.9201 36.6051 25.8414 32.737 25.8414 28.8819C25.8414 28.8819 25.8414 16.3943 25.8401 16.3396C25.8292 14.5862 25.6303 12.8293 25.2483 11.1163C25.1641 10.7419 23.7608 6.74063 22.9383 4.65917C22.8175 4.35247 22.5137 4.15039 22.1769 4.15039H21.9548C21.3385 4.15039 20.9358 4.78042 21.2068 5.31891C21.762 6.42086 23.1751 10.6551 23.2776 11.1152C23.6595 12.8269 23.8584 14.5839 23.8694 16.3384C23.8706 16.3931 23.8706 28.8807 23.8706 28.8807C23.8706 32.7358 22.9493 36.6039 21.2055 40.0655C20.9334 40.6052 21.3373 41.2352 21.9536 41.2352H21.9731C22.3709 41.2352 22.7321 41.0093 22.8981 40.6563L23.1751 40.0655L23.1763 40.0667Z" fill="#7DBB2E"/>
</g>
</g>
<path d="M30.5007 23.5313C30.2884 23.5397 30.092 23.6657 30.0175 23.8606C29.743 24.581 31.4343 24.965 33.7455 23.9533C36.4423 22.7729 38.2678 19.2911 37.6601 17.9728C37.0524 16.6545 35.7016 21.4891 33.0048 22.6683C31.4062 23.3673 30.7607 23.5218 30.5007 23.5313Z" fill="#FAD92D"/>
<path d="M12.3215 43.0114C11.8017 44.3642 9.36476 46.0903 6.59595 45.081C3.82715 44.0718 1.77586 40.7101 2.2957 39.3573C2.81554 38.0045 5.36592 39.8411 8.13472 40.8503C10.9035 41.8596 12.8413 41.6587 12.3215 43.0114Z" fill="#FAD92D"/>
<path d="M13.5314 44.5091C14.6028 45.5089 17.5668 46.0319 19.612 43.9516C21.656 41.8714 22.0062 37.9759 20.9348 36.9762C19.8634 35.9764 19.1422 39.085 17.097 41.1653C15.053 43.2455 12.46 43.5094 13.5314 44.508V44.5091Z" fill="#FAD92D"/>
<path d="M57.1379 42.7139H38.1992V44.4946H57.1379V42.7139Z" fill="#891216"/>
<path d="M55.3938 10.8242H39.9439L38.1574 13.0911C37.5131 13.909 37.1641 14.9111 37.1641 15.9417V42.2732C37.1641 42.9461 37.7242 43.4929 38.4161 43.4929H56.9216C57.6122 43.4929 58.1736 42.9473 58.1736 42.2732V15.9417C58.1736 14.9111 57.8246 13.909 57.1803 13.0911L55.3938 10.8242Z" fill="#B7181D"/>
<path d="M58.1731 22.5879C56.2426 24.7882 53.7117 26.3407 50.5329 26.821C47.8752 27.2227 45.1649 27.0468 42.4803 27.1871C40.7146 27.2798 38.85 27.5354 37.166 28.1678V32.5399C37.9958 32.3058 38.8439 32.1322 39.703 32.03C43.3223 31.5973 46.9856 32.2428 50.6013 32.3937C53.2358 32.5031 55.7972 32.2261 58.1743 31.4534V22.5879H58.1731Z" fill="#E7AE67"/>
<path d="M58.1724 34.4383C56.5799 34.7533 54.747 34.8865 52.6616 34.7771C50.0014 34.638 47.3216 34.2339 44.6492 33.9747C42.1123 33.7287 39.3545 33.6122 37.1641 34.0104V35.8018C38.5979 35.7115 40.0976 35.7103 41.6156 35.8113C45.2313 36.0514 48.8311 36.7813 52.4102 37.2818C54.3748 37.5564 56.3102 37.7275 58.1724 37.7691V34.4359V34.4383Z" fill="#E7AE67"/>
<g style="mix-blend-mode:multiply" opacity="0.5">
<g style="mix-blend-mode:multiply">
<path d="M57.1804 13.0911L55.3939 10.8242H51.6367L53.4232 13.0911C54.0675 13.909 54.4165 14.9111 54.4165 15.9417V42.2732C54.4165 42.9461 53.8564 43.4929 53.1645 43.4929H56.9217C57.6124 43.4929 58.1737 42.9473 58.1737 42.2732V15.9417C58.1737 14.9111 57.8247 13.909 57.1804 13.0911Z" fill="#B7181D"/>
</g>
</g>
<g style="mix-blend-mode:screen" opacity="0.2">
<g style="mix-blend-mode:screen">
<path d="M41.9799 42.2732V15.9417C41.9799 14.9111 42.3289 13.909 42.9732 13.0911L44.7597 10.8242H42.3228L40.5363 13.0911C39.892 13.909 39.543 14.9111 39.543 15.9417V42.2732C39.543 42.9461 40.1031 43.4929 40.795 43.4929H43.2319C42.5412 43.4929 41.9799 42.9473 41.9799 42.2732Z" fill="white"/>
</g>
</g>
<path d="M56.824 45.3842H38.5137C38.2257 45.3842 37.9902 45.1548 37.9902 44.8742C37.9902 44.5937 38.2257 44.3643 38.5137 44.3643H56.824C57.112 44.3643 57.3475 44.5937 57.3475 44.8742C57.3475 45.1548 57.112 45.3842 56.824 45.3842Z" fill="#CAC5BC"/>
<g style="mix-blend-mode:screen" opacity="0.2">
<g style="mix-blend-mode:screen">
<path d="M39.9439 10.8242L38.1574 13.0911C37.806 13.5381 37.5449 14.0409 37.3789 14.5711H57.9589C57.7917 14.0397 57.5318 13.5369 57.1803 13.0911L55.3939 10.8242H39.9439Z" fill="white"/>
</g>
</g>
<path d="M55.0786 10.9435H40.2607C39.8678 10.9435 39.5469 10.6309 39.5469 10.2481C39.5469 9.86537 39.8678 9.55273 40.2607 9.55273H55.0786C55.4715 9.55273 55.7924 9.86537 55.7924 10.2481C55.7924 10.6309 55.4715 10.9435 55.0786 10.9435Z" fill="#CAC5BC"/>
<path d="M44.8601 9.85575H42.6502C42.3757 9.85575 42.1523 9.63702 42.1523 9.37074C42.1523 9.10328 42.3769 8.88574 42.6502 8.88574H44.8601C45.1347 8.88574 45.358 9.10447 45.358 9.37074C45.358 9.63821 45.1335 9.85575 44.8601 9.85575Z" fill="#CAC5BC"/>
<path d="M51.2918 22.3768C51.7646 20.4254 50.524 18.4701 48.5208 18.0095C46.5177 17.549 44.5105 18.7575 44.0377 20.7089C43.5649 22.6603 44.8055 24.6156 46.8087 25.0761C48.8119 25.5367 50.8191 24.3281 51.2918 22.3768Z" fill="#E7AE67"/>
<path d="M49.4652 43.2987C49.1126 44.7026 47.8642 45.8676 44.9929 45.1829C42.1216 44.4982 39.6774 41.3956 40.0301 39.9929C40.3827 38.589 43.3639 41.6737 46.2352 42.3584C49.1065 43.0431 49.8167 41.896 49.4652 43.2987Z" fill="#FAD92D"/>
</svg>
