<svg width="67" height="64" viewBox="0 0 67 64" fill="none" xmlns="http://www.w3.org/2000/svg">
<path d="M32.4654 1.60059C29.8334 1.60055 25.5993 10.1685 22.7413 16.4628C21.9443 18.2179 20.348 19.4856 18.446 19.7989C11.3766 20.9636 6.60449 21.3699 4.10178 22.4733C1.53911 23.6031 1.47968 25.6885 1.62899 26.1824C5.75989 36.8296 15.8108 36.8733 20.3199 35.5642L34.6563 33.3196C34.6986 33.313 34.7414 33.3102 34.7843 33.3113C35.5187 33.3301 35.7453 34.3091 35.0904 34.642C29.4615 37.5038 20.2499 42.1363 17.5563 43.7824C13.6291 46.1824 12.8291 52.8733 12.7563 57.6005C12.7104 60.5887 14.7197 61.7153 16.3664 62.0206C17.1424 62.1645 17.9227 61.9325 18.6333 61.589L31.6779 55.2831C32.4535 54.9081 33.3536 54.8946 34.1371 55.253C37.972 57.0068 44.4498 60.0598 47.1563 61.6733C49.1242 62.8464 50.6859 62.2986 51.7174 61.3986C52.6839 60.5554 52.85 59.1815 52.7516 57.9027L51.4472 40.946C51.0109 39.9278 73.1927 24.6551 60.6836 21.9642C49.7633 19.615 45.5414 19.374 44.4255 19.3103L44.4004 19.3089C44.2147 19.2983 44.0445 19.1553 43.9633 18.988C36.8123 4.25722 35.5005 1.60063 32.4654 1.60059Z" fill="url(#paint0_linear_26571_103967)" stroke="url(#paint1_linear_26571_103967)" stroke-width="0.145455"/>
<path d="M32.9018 27.8552C30.5662 27.8552 26.8424 25.9418 23.9069 22.6677C22.2399 20.8084 19.8283 19.5813 17.3623 19.9747C10.8867 21.0078 6.47441 21.4273 4.10178 22.4734C1.53911 23.6032 1.47968 25.6886 1.62899 26.1825C5.75989 36.8298 15.8108 36.8734 20.3199 35.5643L34.6563 33.3197C34.6986 33.3131 34.7414 33.3103 34.7843 33.3114C35.5187 33.3302 35.7453 34.3092 35.0904 34.6422C29.4615 37.5039 20.2499 42.1364 17.5563 43.7825C13.6291 46.1825 12.8291 52.8734 12.7563 57.6007C12.7104 60.5889 14.7197 61.7154 16.3664 62.0208C17.1424 62.1647 17.9227 61.9326 18.6333 61.5892L31.6779 55.2832C32.4535 54.9083 33.3536 54.8948 34.1371 55.2531C37.972 57.007 44.4498 60.0599 47.1563 61.6734C49.1242 62.8466 50.6859 62.2987 51.7174 61.3988C52.6839 60.5555 52.85 59.1816 52.7516 57.9028L51.4472 40.9461C51.0109 39.9279 73.1927 24.6552 60.6836 21.9643C53.4802 20.4147 49.1914 19.7824 46.7861 19.5132C46.2936 19.4581 42.2058 20.408 41.8087 20.7043C37.884 23.6325 35.4879 27.8553 32.9018 27.8552Z" fill="url(#paint2_linear_26571_103967)" stroke="url(#paint3_linear_26571_103967)" stroke-width="0.145455"/>
<g filter="url(#filter0_f_26571_103967)">
<path d="M34.0911 18.5459C31.0366 18.5459 26.2366 18.9095 21.4836 19.2729C12.728 20.8649 6.94765 21.2182 4.10178 22.4729C1.53911 23.6027 1.47968 25.6881 1.62899 26.182C5.75989 36.8293 15.8108 36.8729 20.3199 35.5638L34.6563 33.3192C34.6986 33.3126 34.7414 33.3098 34.7843 33.3109C35.5187 33.3298 35.7453 34.3087 35.0904 34.6417C29.4615 37.5035 20.2499 42.1359 17.5563 43.782C13.6291 46.182 12.8291 52.8729 12.7563 57.6002C12.7107 60.5657 14.6894 61.6977 16.3289 62.0132C17.1279 62.1669 17.9311 61.9222 18.6598 61.5603C21.6972 60.0515 30.1388 55.876 32.9018 54.6911C36.2943 53.2363 44.4184 47.1277 44.4184 47.1277L48.782 43.4914L51.4472 40.9456C51.0109 39.9275 73.1927 24.6547 60.6836 21.9638C51.2019 19.9242 46.7701 19.4737 45.0364 19.3488C44.6648 19.322 43.5232 19.2277 43.1518 19.1979C36.6748 18.6786 37.0098 18.5459 34.0911 18.5459Z" fill="url(#paint4_linear_26571_103967)"/>
<path d="M34.0911 18.5459C31.0366 18.5459 26.2366 18.9095 21.4836 19.2729C12.728 20.8649 6.94765 21.2182 4.10178 22.4729C1.53911 23.6027 1.47968 25.6881 1.62899 26.182C5.75989 36.8293 15.8108 36.8729 20.3199 35.5638L34.6563 33.3192C34.6986 33.3126 34.7414 33.3098 34.7843 33.3109C35.5187 33.3298 35.7453 34.3087 35.0904 34.6417C29.4615 37.5035 20.2499 42.1359 17.5563 43.782C13.6291 46.182 12.8291 52.8729 12.7563 57.6002C12.7107 60.5657 14.6894 61.6977 16.3289 62.0132C17.1279 62.1669 17.9311 61.9222 18.6598 61.5603C21.6972 60.0515 30.1388 55.876 32.9018 54.6911C36.2943 53.2363 44.4184 47.1277 44.4184 47.1277L48.782 43.4914L51.4472 40.9456C51.0109 39.9275 73.1927 24.6547 60.6836 21.9638C51.2019 19.9242 46.7701 19.4737 45.0364 19.3488C44.6648 19.322 43.5232 19.2277 43.1518 19.1979C36.6748 18.6786 37.0098 18.5459 34.0911 18.5459Z" stroke="url(#paint5_linear_26571_103967)" stroke-width="0.145455"/>
</g>
<path d="M34.0911 18.5459C31.0366 18.5459 26.2366 18.9095 21.4836 19.2729C12.728 20.8649 6.94765 21.2182 4.10178 22.4729C1.53911 23.6027 1.47968 25.6881 1.62899 26.182C5.75989 36.8293 15.8108 36.8729 20.3199 35.5638L34.6563 33.3192C34.6986 33.3126 34.7414 33.3098 34.7843 33.3109C35.5187 33.3298 35.7453 34.3087 35.0904 34.6417C29.4615 37.5035 20.2499 42.1359 17.5563 43.782C13.6291 46.182 12.8291 52.8729 12.7563 57.6002C12.7107 60.5657 14.6894 61.6977 16.3289 62.0132C17.1279 62.1669 17.9311 61.9222 18.6598 61.5603C21.6972 60.0515 30.1388 55.876 32.9018 54.6911C36.2943 53.2363 44.4184 47.1277 44.4184 47.1277L48.782 43.4914L51.4472 40.9456C51.0109 39.9275 73.1927 24.6547 60.6836 21.9638C51.2019 19.9242 46.7701 19.4737 45.0364 19.3488C44.6648 19.322 43.5232 19.2277 43.1518 19.1979C36.6748 18.6786 37.0098 18.5459 34.0911 18.5459Z" fill="url(#paint6_linear_26571_103967)"/>
<path d="M34.0911 18.5459C31.0366 18.5459 26.2366 18.9095 21.4836 19.2729C12.728 20.8649 6.94765 21.2182 4.10178 22.4729C1.53911 23.6027 1.47968 25.6881 1.62899 26.182C5.75989 36.8293 15.8108 36.8729 20.3199 35.5638L34.6563 33.3192C34.6986 33.3126 34.7414 33.3098 34.7843 33.3109C35.5187 33.3298 35.7453 34.3087 35.0904 34.6417C29.4615 37.5035 20.2499 42.1359 17.5563 43.782C13.6291 46.182 12.8291 52.8729 12.7563 57.6002C12.7107 60.5657 14.6894 61.6977 16.3289 62.0132C17.1279 62.1669 17.9311 61.9222 18.6598 61.5603C21.6972 60.0515 30.1388 55.876 32.9018 54.6911C36.2943 53.2363 44.4184 47.1277 44.4184 47.1277L48.782 43.4914L51.4472 40.9456C51.0109 39.9275 73.1927 24.6547 60.6836 21.9638C51.2019 19.9242 46.7701 19.4737 45.0364 19.3488C44.6648 19.322 43.5232 19.2277 43.1518 19.1979C36.6748 18.6786 37.0098 18.5459 34.0911 18.5459Z" stroke="url(#paint7_linear_26571_103967)" stroke-width="0.581818"/>
<path d="M34.0911 18.5459C31.0366 18.5459 26.2366 18.9095 21.4836 19.2729C12.728 20.8649 6.94765 21.2182 4.10178 22.4729C1.53911 23.6027 1.47968 25.6881 1.62899 26.182C5.75989 36.8293 15.8108 36.8729 20.3199 35.5638L34.6563 33.3192C34.6986 33.3126 34.7414 33.3098 34.7843 33.3109C35.5187 33.3298 35.7453 34.3087 35.0904 34.6417C29.4615 37.5035 20.2499 42.1359 17.5563 43.782C13.6291 46.182 12.8291 52.8729 12.7563 57.6002C12.7107 60.5657 14.6894 61.6977 16.3289 62.0132C17.1279 62.1669 17.9311 61.9222 18.6598 61.5603C21.6972 60.0515 30.1388 55.876 32.9018 54.6911C36.2943 53.2363 44.4184 47.1277 44.4184 47.1277L48.782 43.4914L51.4472 40.9456C51.0109 39.9275 73.1927 24.6547 60.6836 21.9638C51.2019 19.9242 46.7701 19.4737 45.0364 19.3488C44.6648 19.322 43.5232 19.2277 43.1518 19.1979C36.6748 18.6786 37.0098 18.5459 34.0911 18.5459Z" stroke="url(#paint8_linear_26571_103967)" stroke-opacity="0.2" stroke-width="0.581818"/>
<defs>
<filter id="filter0_f_26571_103967" x="0.0552202" y="17.0191" width="65.9843" height="46.5683" filterUnits="userSpaceOnUse" color-interpolation-filters="sRGB">
<feFlood flood-opacity="0" result="BackgroundImageFix"/>
<feBlend mode="normal" in="SourceGraphic" in2="BackgroundImageFix" result="shape"/>
<feGaussianBlur stdDeviation="0.727273" result="effect1_foregroundBlur_26571_103967"/>
</filter>
<linearGradient id="paint0_linear_26571_103967" x1="33.0474" y1="1.60059" x2="33.0474" y2="62.3427" gradientUnits="userSpaceOnUse">
<stop stop-color="#F2AE2A"/>
<stop offset="1" stop-color="#E1781C"/>
</linearGradient>
<linearGradient id="paint1_linear_26571_103967" x1="33.0474" y1="1.60059" x2="33.0474" y2="62.3427" gradientUnits="userSpaceOnUse">
<stop stop-color="#EADFB5"/>
<stop offset="1" stop-color="#FFD157"/>
</linearGradient>
<linearGradient id="paint2_linear_26571_103967" x1="40.9275" y1="46.9098" x2="50.0184" y2="62.328" gradientUnits="userSpaceOnUse">
<stop stop-color="#F9AB2C"/>
<stop offset="1" stop-color="#E1781C"/>
</linearGradient>
<linearGradient id="paint3_linear_26571_103967" x1="33.0474" y1="1.60071" x2="33.0474" y2="62.3429" gradientUnits="userSpaceOnUse">
<stop stop-color="#EADFB5"/>
<stop offset="1" stop-color="#FFD157"/>
</linearGradient>
<linearGradient id="paint4_linear_26571_103967" x1="58.9639" y1="35.855" x2="5.87294" y2="24.8004" gradientUnits="userSpaceOnUse">
<stop stop-color="#FCC540"/>
<stop offset="1" stop-color="#FFD764"/>
</linearGradient>
<linearGradient id="paint5_linear_26571_103967" x1="33.0474" y1="1.60045" x2="33.0474" y2="62.3426" gradientUnits="userSpaceOnUse">
<stop stop-color="#EADFB5"/>
<stop offset="1" stop-color="#FFD157"/>
</linearGradient>
<linearGradient id="paint6_linear_26571_103967" x1="58.9639" y1="35.855" x2="5.87294" y2="24.8004" gradientUnits="userSpaceOnUse">
<stop stop-color="#FCC540"/>
<stop offset="1" stop-color="#FFD764"/>
</linearGradient>
<linearGradient id="paint7_linear_26571_103967" x1="33.0474" y1="1.60045" x2="33.0474" y2="62.3426" gradientUnits="userSpaceOnUse">
<stop stop-color="#EADFB5"/>
<stop offset="1" stop-color="#FFD157"/>
</linearGradient>
<linearGradient id="paint8_linear_26571_103967" x1="18.8184" y1="45.5277" x2="59.8366" y2="22.1823" gradientUnits="userSpaceOnUse">
<stop stop-color="#F5F9F2"/>
<stop offset="0.47" stop-color="#FBD85D"/>
<stop offset="0.96" stop-color="#F5F9F2"/>
</linearGradient>
</defs>
</svg>
