<svg width="22" height="22" viewBox="0 0 22 22" fill="none" xmlns="http://www.w3.org/2000/svg">
<path d="M1.45935 9.57986L1.46766 9.60735L1.47805 9.63412C2.14418 11.3511 3.31886 12.258 4.53208 12.6558C5.68538 13.034 6.84081 12.9443 7.59487 12.7354L8.16513 12.6462C7.33796 13.0745 6.6184 13.4574 6.26574 13.6729C5.47003 14.1592 5.06706 15.0246 4.85178 15.813C4.6311 16.6212 4.56757 17.4953 4.55692 18.1877C4.54702 18.8313 4.77944 19.3404 5.16429 19.6897C5.52467 20.0169 5.9593 20.1513 6.29392 20.1973C6.67084 20.2491 6.99733 20.1358 7.21884 20.0287L10.9826 18.2093C12.0675 18.705 13.8724 19.5564 14.5978 19.9889C15.0466 20.2565 15.5091 20.339 15.9455 20.2467C16.3641 20.1581 16.6809 19.9255 16.8956 19.7006C17.31 19.2664 17.34 18.7035 17.3127 18.3487L16.9587 13.747C17.088 13.6244 17.2685 13.4643 17.4939 13.2643L17.5352 13.2276C18.0447 12.7756 18.7313 12.1639 19.3135 11.5292C19.6052 11.2112 19.8842 10.873 20.1063 10.5325C20.323 10.2004 20.5177 9.81804 20.5866 9.41661C20.6604 8.98733 20.59 8.51332 20.2447 8.11802C19.9273 7.75467 19.4591 7.55405 18.9441 7.44325C16.4935 6.91608 15.2144 6.75932 14.6103 6.70662C13.7034 4.83901 13.1225 3.65395 12.6669 2.94018C12.4245 2.56044 12.1745 2.24247 11.8739 2.02429C11.54 1.78197 11.1961 1.69922 10.85 1.69922C10.5466 1.69921 10.2962 1.82401 10.1213 1.94264C9.94105 2.06493 9.77928 2.22261 9.63754 2.38359C9.35373 2.70592 9.07281 3.13116 8.80999 3.57966C8.28071 4.48287 7.7546 5.6031 7.3519 6.49665C7.2782 6.66018 7.1342 6.76907 6.97282 6.79623C6.32443 6.90533 5.76271 6.98816 5.25409 7.06316C4.93624 7.11002 4.63914 7.15383 4.35459 7.19908C3.66309 7.30906 3.03552 7.42824 2.57018 7.6334C2.04139 7.86653 1.71765 8.22833 1.55173 8.60799C1.40358 8.947 1.37857 9.31263 1.45935 9.57986Z" fill="url(#paint0_linear_27407_79340)" stroke="#5A1319" stroke-width="1.5"/>
<path d="M10.9727 9.83355C10.2699 9.83354 9.12024 9.21754 8.27328 8.17591C7.92866 7.75209 7.3995 7.48705 6.86045 7.57541C4.89781 7.89711 3.57112 8.01201 2.87274 8.31991C2.15199 8.63767 2.13528 9.22418 2.17727 9.36309C3.33909 12.3576 6.1659 12.3699 7.43409 12.0017L11.4662 11.3704C11.4781 11.3686 11.4901 11.3678 11.5022 11.3681C11.7088 11.3734 11.7725 11.6487 11.5883 11.7424C10.0052 12.5472 7.4144 13.8501 6.65683 14.3131C5.55229 14.9881 5.32729 16.8699 5.30683 18.1995C5.29321 19.0852 5.92161 19.3893 6.39601 19.4545C6.56704 19.478 6.73699 19.4289 6.89242 19.3538L10.705 17.5107C10.8747 17.4287 11.0714 17.4257 11.2429 17.5039C12.3096 17.9905 14.2021 18.8801 14.9818 19.3449C15.5948 19.7103 16.0677 19.482 16.353 19.1831C16.5467 18.9801 16.5864 18.6862 16.5649 18.4065L16.1886 13.5154C16.0659 13.229 22.3046 8.93355 18.7864 8.17673C16.5806 7.70223 15.3465 7.53354 14.7099 7.46951C14.602 7.45867 13.704 7.66171 13.615 7.72353C12.4289 8.54708 11.7298 9.83356 10.9727 9.83355Z" fill="url(#paint1_linear_27407_79340)" stroke="white" stroke-width="0.0318182"/>
<g filter="url(#filter0_f_27407_79340)">
<path d="M11.3072 7.21484C10.4482 7.21483 9.09815 7.31712 7.76138 7.41933C5.29886 7.86706 3.67314 7.96643 2.87274 8.31931C2.15199 8.63708 2.13528 9.22359 2.17727 9.3625C3.33909 12.357 6.1659 12.3693 7.43409 12.0011L11.4662 11.3698C11.4781 11.368 11.4901 11.3672 11.5022 11.3675C11.7088 11.3728 11.7725 11.6481 11.5883 11.7418C10.0052 12.5467 7.4144 13.8495 6.65683 14.3125C5.55229 14.9875 5.32729 16.8693 5.30683 18.1989C5.29328 19.0795 5.91441 19.3852 6.38781 19.4528C6.56402 19.4779 6.73805 19.4265 6.89744 19.3473C7.68382 18.9564 10.1733 17.7235 10.9727 17.3807C11.9269 16.9715 14.2118 15.2535 14.2118 15.2535L15.4391 14.2308L16.1886 13.5148C16.0659 13.2284 22.3046 8.93295 18.7864 8.17613C16.0043 7.57766 14.768 7.46568 14.3265 7.43657C14.2452 7.43121 13.9968 7.40948 13.9156 7.40301C12.0318 7.25297 12.137 7.21486 11.3072 7.21484Z" fill="url(#paint2_linear_27407_79340)"/>
<path d="M11.3072 7.21484C10.4482 7.21483 9.09815 7.31712 7.76138 7.41933C5.29886 7.86706 3.67314 7.96643 2.87274 8.31931C2.15199 8.63708 2.13528 9.22359 2.17727 9.3625C3.33909 12.357 6.1659 12.3693 7.43409 12.0011L11.4662 11.3698C11.4781 11.368 11.4901 11.3672 11.5022 11.3675C11.7088 11.3728 11.7725 11.6481 11.5883 11.7418C10.0052 12.5467 7.4144 13.8495 6.65683 14.3125C5.55229 14.9875 5.32729 16.8693 5.30683 18.1989C5.29328 19.0795 5.91441 19.3852 6.38781 19.4528C6.56402 19.4779 6.73805 19.4265 6.89744 19.3473C7.68382 18.9564 10.1733 17.7235 10.9727 17.3807C11.9269 16.9715 14.2118 15.2535 14.2118 15.2535L15.4391 14.2308L16.1886 13.5148C16.0659 13.2284 22.3046 8.93295 18.7864 8.17613C16.0043 7.57766 14.768 7.46568 14.3265 7.43657C14.2452 7.43121 13.9968 7.40948 13.9156 7.40301C12.0318 7.25297 12.137 7.21486 11.3072 7.21484Z" stroke="white" stroke-width="0.0318182"/>
</g>
<path d="M11.3072 7.21484C10.4482 7.21483 9.09815 7.31712 7.76138 7.41933C5.29886 7.86706 3.67314 7.96643 2.87274 8.31931C2.15199 8.63708 2.13528 9.22359 2.17727 9.3625C3.33909 12.357 6.1659 12.3693 7.43409 12.0011L11.4662 11.3698C11.4781 11.368 11.4901 11.3672 11.5022 11.3675C11.7088 11.3728 11.7725 11.6481 11.5883 11.7418C10.0052 12.5467 7.4144 13.8495 6.65683 14.3125C5.55229 14.9875 5.32729 16.8693 5.30683 18.1989C5.29328 19.0795 5.91441 19.3852 6.38781 19.4528C6.56402 19.4779 6.73805 19.4265 6.89744 19.3473C7.68382 18.9564 10.1733 17.7235 10.9727 17.3807C11.9269 16.9715 14.2118 15.2535 14.2118 15.2535L15.4391 14.2308L16.1886 13.5148C16.0659 13.2284 22.3046 8.93295 18.7864 8.17613C16.0043 7.57766 14.768 7.46568 14.3265 7.43657C14.2452 7.43121 13.9968 7.40948 13.9156 7.40301C12.0318 7.25297 12.137 7.21486 11.3072 7.21484Z" fill="url(#paint3_linear_27407_79340)"/>
<defs>
<filter id="filter0_f_27407_79340" x="1.83026" y="6.88104" width="18.3668" height="12.9127" filterUnits="userSpaceOnUse" color-interpolation-filters="sRGB">
<feFlood flood-opacity="0" result="BackgroundImageFix"/>
<feBlend mode="normal" in="SourceGraphic" in2="BackgroundImageFix" result="shape"/>
<feGaussianBlur stdDeviation="0.159091" result="effect1_foregroundBlur_27407_79340"/>
</filter>
<linearGradient id="paint0_linear_27407_79340" x1="11.0137" y1="2.44922" x2="11.0137" y2="19.5329" gradientUnits="userSpaceOnUse">
<stop stop-color="#F2AE2A"/>
<stop offset="1" stop-color="#E1781C"/>
</linearGradient>
<linearGradient id="paint1_linear_27407_79340" x1="13.23" y1="15.1926" x2="15.7868" y2="19.529" gradientUnits="userSpaceOnUse">
<stop stop-color="#F9AB2C"/>
<stop offset="1" stop-color="#E1781C"/>
</linearGradient>
<linearGradient id="paint2_linear_27407_79340" x1="18.3027" y1="12.083" x2="3.37088" y2="8.97393" gradientUnits="userSpaceOnUse">
<stop stop-color="#FCC540"/>
<stop offset="1" stop-color="#FFD764"/>
</linearGradient>
<linearGradient id="paint3_linear_27407_79340" x1="18.3027" y1="12.083" x2="3.37088" y2="8.97393" gradientUnits="userSpaceOnUse">
<stop stop-color="#FCC540"/>
<stop offset="1" stop-color="#FFD764"/>
</linearGradient>
</defs>
</svg>
