<svg width="54" height="53" viewBox="0 0 54 53" fill="none" xmlns="http://www.w3.org/2000/svg">
<path d="M2.78708 52.2528L14.0222 50.9136L12.444 0.524414L0 5.379L2.78708 52.2528Z" fill="url(#paint0_radial_26486_100427)"/>
<g style="mix-blend-mode:multiply" opacity="0.5">
<path d="M2.78708 52.2528L14.0222 50.9136L12.444 0.524414L0 5.379L2.78708 52.2528Z" fill="#904470"/>
</g>
<path d="M14.0255 50.9153L51.0143 51.0389L53.4159 0L12.4473 0.526112L14.0255 50.9153Z" fill="url(#paint1_linear_26486_100427)"/>
<path d="M17.2393 47.5691L47.8588 47.7744L49.5359 4.0293L16.2383 4.45577L17.2393 47.5691Z" fill="#28071B"/>
<path d="M17.2397 47.5692L46.5878 47.7924L48.0812 5.54199L16.2852 5.94853L17.2397 47.5692Z" fill="#28071B"/>
<path d="M17.226 47.0553L47.1634 47.2705L48.6992 5.1377L16.2734 5.55221L17.226 47.0553Z" fill="url(#paint2_linear_26486_100427)"/>
<path d="M16.2695 5.52164L16.8306 5.51367L17.7408 47.0467L17.2241 47.0526L16.2695 5.52164Z" fill="#5E2C4C"/>
<path d="M2.78711 52.2552L11.9758 52.4704H41.6347L50.9202 51.0396L14.0222 50.916L2.78711 52.2552Z" fill="#6B5566"/>
<path opacity="0.5" d="M33.051 9.56555L34.1973 7.55078L31.9531 7.5747L33.051 9.56555Z" fill="#904470"/>
<g style="mix-blend-mode:multiply" opacity="0.5">
<path d="M23.1457 25.1906C23.2264 30.8364 27.4 35.2485 32.4696 35.1808C37.5392 35.111 41.7814 30.5833 41.9489 24.9355C42.1205 19.1324 37.9509 14.3714 32.629 14.4432C27.3072 14.5149 23.063 19.3914 23.1457 25.1906Z" fill="#904470"/>
</g>
<path d="M23.8984 25.1789C23.9691 30.8247 28.1346 35.2389 33.2042 35.1691C38.2738 35.0994 42.524 30.5716 42.7016 24.9219C42.8833 19.1187 38.7218 14.3578 33.4019 14.4295C28.0801 14.5013 23.8278 19.3778 23.9005 25.177L23.8984 25.1789Z" fill="url(#paint3_linear_26486_100427)"/>
<g opacity="0.7">
<path d="M29.2168 25.1078C29.2168 27.7862 31.1764 29.9046 33.5942 29.8727C36.0119 29.8388 38.016 27.6666 38.0705 24.9882C38.127 22.2759 36.1673 20.0778 33.6951 20.1117C31.2228 20.1456 29.2168 22.3975 29.2168 25.1078Z" fill="#3B102B"/>
</g>
<path opacity="0.7" d="M31.1505 21.0285C31.875 20.4625 32.7529 20.1217 33.6974 20.1098C36.1696 20.0759 38.1292 22.274 38.0727 24.9863C38.0324 26.9173 37.209 22.3418 35.7034 23.1588L31.1484 21.0285H31.1505Z" fill="#3B102B"/>
<path d="M30.7227 25.0851C30.7146 27.4984 32.4744 29.4096 34.6541 29.3797C36.8337 29.3498 38.6419 27.3888 38.6964 24.9755C38.7509 22.5342 36.9911 20.5593 34.7671 20.5892C32.5431 20.6191 30.7328 22.6438 30.7247 25.0831L30.7227 25.0851Z" fill="#AC718B"/>
<g opacity="0.14">
<g style="mix-blend-mode:overlay">
<path d="M16.4883 8.02056L50.0745 44.8484L52.3611 42.5387L18.7789 5.27441L16.4883 8.02056Z" fill="white"/>
</g>
<g style="mix-blend-mode:overlay">
<path d="M19.5215 5.16571L53.0471 42.448L53.8524 41.6369L20.3287 4.20117L19.5215 5.16571Z" fill="white"/>
</g>
</g>
<defs>
<radialGradient id="paint0_radial_26486_100427" cx="0" cy="0" r="1" gradientUnits="userSpaceOnUse" gradientTransform="translate(7.01109 26.3876) scale(19.1745 18.9341)">
<stop stop-color="#DFB6C9"/>
<stop offset="0.99" stop-color="#BB96BB"/>
</radialGradient>
<linearGradient id="paint1_linear_26486_100427" x1="74.5198" y1="-10.863" x2="9.7613" y2="46.0149" gradientUnits="userSpaceOnUse">
<stop stop-color="#FCF0E1"/>
<stop offset="1" stop-color="#E8C1C0"/>
</linearGradient>
<linearGradient id="paint2_linear_26486_100427" x1="76.0856" y1="-11.5843" x2="9.53649" y2="46.8664" gradientUnits="userSpaceOnUse">
<stop stop-color="#FCF0E1"/>
<stop offset="1" stop-color="#E8C1C0"/>
</linearGradient>
<linearGradient id="paint3_linear_26486_100427" x1="38.3384" y1="18.2239" x2="16.4657" y2="47.4796" gradientUnits="userSpaceOnUse">
<stop stop-color="#FCF0E1"/>
<stop offset="1" stop-color="#E8C1C0"/>
</linearGradient>
</defs>
</svg>
