<svg width="24" height="22" viewBox="0 0 24 22" fill="none" xmlns="http://www.w3.org/2000/svg">
<path opacity="0.8" fill-rule="evenodd" clip-rule="evenodd" d="M0.959961 18.0545V18.9872C5.08247 21.3997 8.92319 22.2309 12.0001 18.9872C15.0768 22.2309 18.8976 21.3997 23.0402 18.9872V13.6351C20.4059 12.0943 3.59445 12.0943 0.960146 13.6351V18.0545H0.959961ZM6.65088 14.6689C8.52099 14.6689 10.0293 15.4798 10.0293 16.453C10.0293 17.4262 8.52099 18.2371 6.65088 18.2371C4.78077 18.2371 3.27247 17.4465 3.27247 16.453C3.27247 15.4595 4.78058 14.6689 6.65088 14.6689ZM17.3491 14.6689C19.1991 14.6689 20.7273 15.4798 20.7273 16.453C20.7273 17.4262 19.1991 18.2371 17.3491 18.2371C15.4991 18.2371 13.9707 17.4465 13.9707 16.453C13.9707 15.4595 15.479 14.6689 17.3491 14.6689Z" fill="#5A1319"/>
<path opacity="0.8" fill-rule="evenodd" clip-rule="evenodd" d="M0.685121 8.64062H23.3151C24.2286 8.64062 24.2286 11.5207 23.3151 11.5207H0.685121C-0.228374 11.5207 -0.228374 8.64062 0.685121 8.64062Z" fill="#5A1319"/>
<path opacity="0.8" fill-rule="evenodd" clip-rule="evenodd" d="M12.0002 0C17.7076 0 22.4154 3.77992 23.0402 8.6401H0.959961C1.5848 3.77992 6.29258 0 12.0002 0Z" fill="#5A1319"/>
<path fill-rule="evenodd" clip-rule="evenodd" d="M22.9569 8.10501C22.9986 8.29773 23.0194 8.46886 23.0402 8.64H0.959961C1.2933 5.9221 3.05114 3.54646 5.28001 1.91992C6.57152 4.65921 9.87542 8.01945 22.9569 8.10501Z" fill="#5A1319"/>
</svg>
