<svg width="26" height="16" viewBox="0 0 26 16" fill="none" xmlns="http://www.w3.org/2000/svg">
<g opacity="0.8">
<path d="M14.7246 11.4252C14.336 12.1651 13.7833 12.6041 12.9438 12.6041C12.1039 12.6041 11.5542 12.1609 11.1721 11.4368C11.0815 11.768 11.0144 12.0797 10.9114 12.3793C10.2625 14.2673 8.27663 16.1651 5.45596 15.9886C3.09008 15.8407 1.06146 14.0835 0.56691 11.7488C0.332246 10.6409 0.42842 9.56673 0.884925 8.52635C1.50428 7.11409 2.19759 5.74115 2.98066 4.41096C3.76544 3.0782 4.93919 2.49817 6.44463 2.52894C7.71883 2.55502 8.90668 2.9021 9.98896 3.58258C10.4805 3.89162 10.8917 4.28016 11.1208 4.83028C11.1324 4.85849 11.1516 4.88371 11.1802 4.93286C11.6773 4.44729 12.2869 4.29299 12.9451 4.29299C13.6034 4.29299 14.2138 4.44644 14.7015 4.92474C14.7267 4.89781 14.7421 4.88841 14.7476 4.87516C15.0451 4.15663 15.6312 3.72492 16.2796 3.36843C17.4285 2.73711 18.6583 2.43106 19.9731 2.54946C21.1464 2.65547 22.1026 3.14232 22.7519 4.16946C23.5029 5.35774 24.1342 6.60843 24.716 7.88476C24.9297 8.35409 25.1656 8.82769 25.281 9.3248C26.0145 12.4763 24.0419 15.1824 21.3755 15.8304C19.025 16.4015 16.8964 15.4957 15.5427 13.5423C15.1417 12.964 14.9126 12.2989 14.7733 11.6073C14.763 11.5573 14.7472 11.5082 14.725 11.4248L14.7246 11.4252ZM9.48501 10.6323C9.49697 8.41863 7.64616 6.99483 5.92059 6.96491C3.8676 6.92901 2.19118 8.54644 2.16382 10.5716C2.13604 12.6152 3.73808 14.2583 5.76714 14.2895C7.81329 14.3211 9.53074 12.6058 9.48543 10.6323H9.48501ZM23.7269 10.6114C23.7465 8.80418 22.2505 7.01065 20.1394 6.96619C18.0402 6.92217 16.4253 8.67424 16.3929 10.5588C16.3574 12.6289 18.1052 14.2352 19.9539 14.2972C21.9098 14.3626 23.7649 12.7332 23.7264 10.6114H23.7269ZM12.9507 11.7381C13.4923 11.7437 13.9633 11.282 13.9671 10.7319C13.971 10.1596 13.5606 9.70565 12.9349 9.6877C12.4104 9.67274 11.9287 10.1446 11.9253 10.7255C11.9218 11.2778 12.3805 11.7321 12.9507 11.7381Z" fill="#5A1319"/>
<path d="M21.184 2.35693C18.9771 1.6897 16.9883 2.08978 15.19 3.49563C15.1798 3.46956 15.1695 3.45631 15.1699 3.44306C15.1721 2.98997 15.1699 2.53689 15.1802 2.0838C15.1896 1.68543 15.3392 1.34818 15.6115 1.04726C16.5647 -0.00723411 18.3907 -0.325249 19.5952 0.36934C19.9432 0.569809 20.2312 0.840806 20.4574 1.16737C20.6967 1.51317 20.9092 1.87692 21.1323 2.23383C21.1511 2.26375 21.1605 2.29966 21.184 2.35693Z" fill="#5A1319"/>
<path d="M10.7015 3.49028C8.90283 2.09212 6.91909 1.69246 4.71777 2.355C4.72461 2.32208 4.72376 2.30199 4.73231 2.28703C5.00159 1.80189 5.27473 1.31931 5.64831 0.903839C6.11465 0.385782 6.69083 0.0797358 7.39012 0.0314352C8.31639 -0.0326807 9.18922 0.113504 9.93082 0.727307C10.0454 0.822198 10.1505 0.929058 10.2574 1.03335C10.5181 1.28896 10.6917 1.59159 10.6994 1.96261C10.7096 2.46699 10.7019 2.97179 10.7019 3.49028H10.7015Z" fill="#5A1319"/>
<path d="M3.00531 11.171C3.01514 11.0864 3.01899 11.0009 3.03523 10.9179C3.08866 10.647 3.27203 10.4828 3.51097 10.4854C3.79137 10.4884 3.98842 10.6461 4.04014 10.9184C4.06622 11.0539 4.07562 11.1928 4.09956 11.3291C4.21967 12.0041 4.65309 12.4063 5.35366 12.4999C5.48018 12.517 5.60799 12.5328 5.73024 12.567C5.98114 12.6375 6.088 12.7841 6.08629 13.0304C6.08458 13.2924 5.97088 13.483 5.72169 13.5223C5.49044 13.5587 5.24253 13.56 5.01214 13.5189C3.87472 13.318 3.0207 12.305 3.00488 11.171H3.00531Z" fill="#5A1319"/>
<path d="M17.2061 11.2079C17.2484 10.9331 17.2843 10.6826 17.5497 10.5407C17.8288 10.3911 18.1524 10.5214 18.243 10.8249C18.2776 10.9412 18.2969 11.0643 18.3088 11.1853C18.3777 11.879 18.8581 12.3902 19.5463 12.4949C19.6356 12.5086 19.7258 12.5193 19.816 12.5296C20.1302 12.5646 20.3315 12.7578 20.3366 13.0309C20.3417 13.3062 20.1169 13.5541 19.8164 13.5815C19.6861 13.5935 19.5506 13.5759 19.4198 13.555C18.4922 13.4058 17.8156 12.9138 17.442 12.0474C17.3279 11.7828 17.283 11.4887 17.2065 11.2079H17.2061Z" fill="#5A1319"/>
</g>
</svg>
