<svg width="14" height="14" viewBox="0 0 14 14" fill="none" xmlns="http://www.w3.org/2000/svg">
<path d="M7.5625 7.59375L8.80469 8.55469C9.0625 8.74219 9.10938 9.09375 8.92188 9.35156C8.80469 9.49219 8.64062 9.5625 8.47656 9.5625C8.35938 9.5625 8.24219 9.53906 8.14844 9.46875L6.64844 8.34375C6.50781 8.22656 6.4375 8.0625 6.4375 7.875V5.0625C6.4375 4.75781 6.67188 4.5 7 4.5C7.30469 4.5 7.5625 4.75781 7.5625 5.0625V7.59375ZM6.97656 1.5C10.3047 1.5 12.9531 4.19531 12.9531 7.5C12.9531 10.8281 10.2812 13.5 6.97656 13.5C3.64844 13.5 0.976562 10.8281 0.976562 7.5C0.976562 4.19531 3.64844 1.5 6.97656 1.5ZM7 12.375C9.67188 12.375 11.875 10.1953 11.875 7.5C11.875 4.82812 9.67188 2.625 7 2.625C4.30469 2.625 2.125 4.82812 2.125 7.5C2.125 10.1953 4.30469 12.375 7 12.375Z" fill="#5A1319"/>
</svg>
