<svg width="24" height="24" viewBox="0 0 24 24" fill="none" xmlns="http://www.w3.org/2000/svg">
<path d="M23.625 14.8125C23.625 16.0781 21.1875 20.8594 19.5938 20.8594C19.4062 20.8594 19.2188 20.8125 19.0312 20.6719L17.4844 19.7812C16.9688 20.1562 16.4531 20.4844 15.8906 20.7188V22.5C15.8906 23.0156 15.5625 23.4844 15.0469 23.625C14.0156 23.9062 12.9844 24 11.9531 24C10.9219 24 9.89062 23.9062 8.85938 23.5781C8.39062 23.4375 8.01562 22.9688 8.01562 22.4531V20.6719C7.45312 20.4375 6.9375 20.1094 6.42188 19.7344L4.875 20.625C4.6875 20.7656 4.5 20.8125 4.3125 20.8125C2.67188 20.8125 0.328125 15.7969 0.328125 14.8125C0.328125 14.4375 0.5625 14.0625 0.9375 13.8281L2.48438 12.9375C2.4375 12.6562 2.4375 12.3281 2.4375 12C2.4375 11.7188 2.4375 11.3906 2.48438 11.1094L0.9375 10.2188C0.5625 9.98438 0.328125 9.60938 0.328125 9.23438C0.328125 7.96875 2.76562 3.1875 4.3125 3.1875C4.5 3.1875 4.6875 3.23438 4.875 3.375L6.42188 4.26562C6.9375 3.89062 7.45312 3.5625 8.01562 3.32812V1.54688C8.01562 1.03125 8.39062 0.5625 8.85938 0.421875C9.89062 0.140625 10.9219 0 12 0C13.0312 0 14.0625 0.140625 15.0938 0.421875C15.5625 0.5625 15.9375 1.03125 15.9375 1.54688V3.32812C16.5 3.5625 17.0156 3.89062 17.5312 4.26562L19.0781 3.375C19.2656 3.23438 19.4531 3.1875 19.6406 3.1875C21.2812 3.1875 23.625 8.20312 23.625 9.23438C23.625 9.60938 23.3906 9.98438 23.0156 10.2188L21.4688 11.1094C21.5156 11.3906 21.5156 11.7188 21.5156 12C21.5156 12.3281 21.5156 12.6562 21.4688 12.8906L23.0156 13.7812C23.3906 14.0156 23.625 14.3906 23.625 14.8125ZM19.4531 18.2812C20.1562 17.4375 20.7656 16.4062 21.1406 15.3281L19.125 14.1562C19.2188 12.9844 19.2656 12.4688 19.2656 12C19.2656 11.5312 19.2188 11.0625 19.125 9.89062L21.1406 8.71875C20.7656 7.64062 20.1562 6.60938 19.4531 5.76562L17.3906 6.9375C15.4219 5.48438 15.8906 5.76562 13.6875 4.78125V2.4375C13.2656 2.34375 12.7031 2.25 12 2.25C11.4844 2.25 10.875 2.29688 10.2656 2.4375V4.78125C8.0625 5.76562 8.53125 5.48438 6.5625 6.9375L4.5 5.71875C3.79688 6.60938 3.1875 7.64062 2.8125 8.71875L4.82812 9.89062C4.73438 11.0625 4.6875 11.5312 4.6875 12C4.6875 12.5156 4.73438 12.9844 4.82812 14.1562L2.8125 15.2812C3.1875 16.4062 3.79688 17.3906 4.5 18.2812L6.5625 17.0625C8.53125 18.5156 8.0625 18.2344 10.2656 19.2188V21.5625C10.6406 21.6562 11.25 21.75 11.9531 21.75C12.4688 21.75 13.0781 21.7031 13.6875 21.5625V19.2188C15.8906 18.2344 15.4219 18.5156 17.3906 17.0625L19.4531 18.2812ZM12 7.5C14.4375 7.5 16.5 9.51562 16.5 12C16.5 14.4375 14.4375 16.5 12 16.5C9.51562 16.5 7.5 14.4375 7.5 12C7.5 9.51562 9.51562 7.5 12 7.5ZM12 14.25C13.2188 14.25 14.25 13.2656 14.25 12C14.25 10.7812 13.2188 9.75 12 9.75C10.7344 9.75 9.75 10.7812 9.75 12C9.75 13.2656 10.7344 14.25 12 14.25Z" fill="#5A1319"/>
</svg>
