<svg width="23" height="20" viewBox="0 0 23 20" fill="none" xmlns="http://www.w3.org/2000/svg">
<path opacity="0.8" d="M6.15836 3.40978C6.21175 2.55812 6.25771 1.70591 6.32114 0.854536C6.3658 0.254965 6.93279 -0.106512 7.60464 0.0280623C8.45965 0.199568 9.30917 0.392337 10.1668 0.552932C10.9532 0.700376 11.7548 0.730033 12.5448 0.59322C13.4522 0.435983 14.3512 0.240696 15.2506 0.0510043C15.7901 -0.0625868 16.2066 0.0330983 16.4836 0.358204C16.6169 0.514602 16.6707 0.692543 16.6826 0.881395C16.7687 2.2498 16.8532 3.61821 16.9383 4.98662C16.9577 5.29858 16.9758 5.61026 16.9988 5.92193C17.005 6.00559 16.9904 6.05763 16.8797 6.08672C15.8855 6.34664 14.9059 6.6516 13.8797 6.81304C12.8143 6.9809 11.7428 7.03378 10.6603 6.97951C9.28004 6.9104 7.96418 6.60068 6.66192 6.22997C6.49331 6.18185 6.32502 6.12981 6.15253 6.09484C6.02599 6.0691 5.99331 6.0179 6.00108 5.90906C6.05415 5.15058 6.09978 4.39181 6.14768 3.63332C6.15253 3.5589 6.15544 3.4842 6.15933 3.40978H6.15868H6.15836Z" fill="#5A1319"/>
<path opacity="0.8" d="M5.06998 4.00048C5.06998 4.15933 5.07481 4.30053 5.06929 4.44029C5.04721 4.99555 5.02134 5.55081 4.99788 6.10607C4.98615 6.38656 5.05204 6.55257 5.24489 6.63414C6.57718 7.20084 7.89016 7.86677 9.27696 8.15585C10.887 8.49168 12.4925 8.46353 14.097 8.0614C15.1177 7.80524 16.0961 7.34729 17.0834 6.92846C17.2918 6.83974 17.5012 6.75435 17.7089 6.66228C17.9427 6.55924 18.0148 6.39944 17.9997 6.05551C17.97 5.39101 17.9434 4.72603 17.9134 4.01049C18.1125 4.07155 18.2888 4.11878 18.4623 4.17984C19.5441 4.55955 20.6077 5.01225 21.5857 5.7774C22.0279 6.12324 22.443 6.52013 22.7472 7.10019C23.0829 7.73988 23.086 8.42394 22.7462 9.06316C22.3746 9.762 21.8544 10.1999 21.308 10.582C20.3231 11.2713 19.2737 11.6997 18.2029 12.045C17.0537 12.4162 15.8895 12.6518 14.7165 12.8011C13.0199 13.0167 11.3202 13.053 9.61849 12.9295C8.44108 12.8441 7.26955 12.6785 6.10905 12.3938C4.53838 12.0083 2.99599 11.4869 1.56814 10.4589C1.12795 10.1422 0.716392 9.76724 0.381076 9.25015C-0.118449 8.47975 -0.128108 7.65974 0.359342 6.87694C0.749855 6.25013 1.25317 5.83321 1.78064 5.47449C2.76969 4.80093 3.82152 4.37685 4.89198 4.03482C4.94648 4.01717 5.0034 4.01288 5.07033 4L5.06998 4.00048Z" fill="#5A1319"/>
<path opacity="0.8" d="M13.0002 16.9954C12.9794 15.3827 14.3341 14.0114 15.9595 14.0001C17.6482 13.9884 18.9792 15.3048 18.9998 17.0062C19.0191 18.6027 17.6813 19.9776 16.0871 19.9997C14.3657 20.0236 13.0226 18.7164 13.0002 16.9951V16.9954Z" fill="#5A1319"/>
<path opacity="0.8" d="M9.99972 17.0013C9.97547 18.7102 8.63371 20.0218 6.93189 19.9997C5.30864 19.9789 3.97518 18.6023 4.00035 16.9737C4.02644 15.2802 5.3682 13.9827 7.07524 14.0002C8.67976 14.0167 10.0224 15.3945 9.99972 17.001V17.0013Z" fill="#5A1319"/>
<path d="M13 14.6253C12.8845 14.7561 12.785 14.8687 12.6701 14.9992C11.874 14.3009 11.0757 14.303 10.2836 15C10.1779 14.8801 10.0861 14.7827 10.0054 14.6777C9.99052 14.6584 10.0085 14.5938 10.0332 14.5753C10.8799 13.9423 11.6594 13.775 12.6111 14.3611C12.739 14.4398 12.8592 14.5289 13 14.625V14.6253Z" fill="#5A1319"/>
<path d="M13 14.9251C12.8845 15.0559 12.785 15.1685 12.6701 15.299C11.874 14.6007 11.0757 14.6028 10.2836 15.2998C10.1779 15.1799 10.0861 15.0825 10.0054 14.9775C9.99052 14.9582 10.0085 14.8936 10.0332 14.8751C10.8799 14.2421 11.6594 14.0748 12.6111 14.6609C12.739 14.7396 12.8592 14.8287 13 14.9248V14.9251Z" fill="#5A1319"/>
<path d="M13 15.3255C12.8845 15.4563 12.785 15.5689 12.6701 15.6994C11.874 15.0011 11.0757 15.0032 10.2836 15.7002C10.1779 15.5803 10.0861 15.4829 10.0054 15.3779C9.99052 15.3586 10.0085 15.294 10.0332 15.2755C10.8799 14.6425 11.6594 14.4752 12.6111 15.0613C12.739 15.14 12.8592 15.2291 13 15.3252V15.3255Z" fill="#5A1319"/>
</svg>
