<svg width="22" height="22" viewBox="0 0 22 22" fill="none" xmlns="http://www.w3.org/2000/svg">
<path d="M21.5 11C21.5 16.799 16.799 21.5 11 21.5C5.20101 21.5 0.5 16.799 0.5 11C0.5 5.20101 5.20101 0.5 11 0.5C16.799 0.5 21.5 5.20101 21.5 11ZM11 7.83333C11.9512 7.83333 12.7222 7.06226 12.7222 6.11111C12.7222 5.15997 11.9512 4.38889 11 4.38889C10.0488 4.38889 9.27778 5.15997 9.27778 6.11111C9.27778 7.06226 10.0488 7.83333 11 7.83333ZM11.2222 17.6111C12.0506 17.6111 12.7222 16.9395 12.7222 16.1111V10.7778C12.7222 9.94935 12.0507 9.27778 11.2222 9.27778H10.7778C9.94935 9.27778 9.27778 9.94935 9.27778 10.7778V16.1111C9.27778 16.9395 9.94935 17.6111 10.7778 17.6111H11.2222Z" fill="#FFE4A4" stroke="#8B5556"/>
</svg>
