<svg width="17" height="17" viewBox="0 0 17 17" fill="none" xmlns="http://www.w3.org/2000/svg">
<path d="M6.46875 0.5C10.0625 0.5 12.9688 3.4375 12.9688 7C12.9688 10.5938 10.0312 13.5 6.46875 13.5C2.90625 13.5 0 10.5938 0 7C0 3.4375 2.90625 0.5 6.46875 0.5ZM6.46875 11C8.6875 11 10.4688 9.21875 10.4688 7C10.4688 4.8125 8.65625 3 6.46875 3C4.25 3 2.46875 4.8125 2.46875 7C2.46875 9.21875 4.25 11 6.46875 11Z" fill="#8B5556"/>
<path d="M15.625 14.375C16.0938 14.875 16.0938 15.6562 15.625 16.1562C15.125 16.625 14.3438 16.625 13.8438 16.1562L10.125 12.4062C10.8125 11.9375 11.4062 11.3438 11.875 10.625L15.625 14.375Z" fill="#8B5556"/>
</svg>
