<svg width="20" height="16" viewBox="0 0 20 16" fill="none" xmlns="http://www.w3.org/2000/svg">
<path d="M9.96875 10C8.1875 10 6.71875 8.5625 6.75 6.75C6.75 4.96875 8.1875 3.5 9.96875 3.5C11.75 3.5 13.2188 4.96875 13.2188 6.75C13.2188 8.5625 11.7812 10 9.96875 10ZM9.96875 5C9.03125 5 8.21875 5.8125 8.21875 6.75C8.21875 7.71875 9.03125 8.5 9.96875 8.5C10.9375 8.5 11.7188 7.71875 11.7188 6.75C11.7188 5.8125 10.9375 5 9.96875 5ZM16 5C14.5938 5 13.5 3.90625 13.5 2.5C13.5 1.125 14.5938 0 16 0C17.375 0 18.5 1.125 18.5 2.5C18.5 3.90625 17.375 5 16 5ZM11.5312 11C14 11 16 12.875 16 15.1875C16 15.6562 15.5938 16 15.0938 16H4.875C4.375 16 4 15.6562 4 15.1875C4 12.875 5.96875 11 8.4375 11H11.5312ZM5.5625 14.5H14.4062C14.0625 13.375 12.9062 12.5 11.5312 12.5H8.40625C7.03125 12.5 5.875 13.375 5.5625 14.5ZM17.2188 6C18.75 6 20 7.3125 20 8.9375C20 9.25 19.75 9.5 19.4375 9.5H13.1875C13.8438 8.78125 14.2188 7.8125 14.2188 6.75C14.2188 6.59375 14.1875 6.4375 14.1875 6.28125C14.5312 6.125 14.9062 6 15.3125 6H17.2188ZM5.71875 6.75C5.71875 7.8125 6.125 8.78125 6.78125 9.5H0.53125C0.21875 9.5 0 9.25 0 8.9375C0 7.3125 1.21875 6 2.75 6H4.65625C5.0625 6 5.4375 6.09375 5.78125 6.28125C5.75 6.4375 5.71875 6.59375 5.71875 6.75ZM4 5C2.59375 5 1.5 3.90625 1.5 2.5C1.5 1.125 2.59375 0 4 0C5.375 0 6.5 1.125 6.5 2.5C6.5 3.90625 5.375 5 4 5Z" fill="#5A1319"/>
</svg>
