<svg width="124" height="73" viewBox="0 0 124 73" fill="none" xmlns="http://www.w3.org/2000/svg">
<path d="M-9.57617 155.056C2.96048 164.322 18.3763 169.963 33.955 170.673H33.9582C36.8706 170.808 39.7893 170.768 42.6954 170.548C46.3842 167.497 49.8389 164.216 53.1134 160.763C53.8407 159.996 54.5585 159.221 55.2685 158.438C56.693 156.868 58.0844 155.265 59.4473 153.633C62.57 149.899 65.5378 146.02 68.4138 142.057C69.6708 140.325 70.9072 138.578 72.1294 136.82C73.5778 134.744 75.0055 132.651 76.4206 130.549C76.6119 130.266 76.8032 129.985 76.9914 129.702C79.6097 125.807 82.1948 121.889 84.7942 117.998C85.4661 116.991 86.1413 115.984 86.818 114.982C89.3225 111.264 91.9187 107.422 93.612 103.31C94.5813 100.951 95.2548 98.5048 95.443 95.9418C95.6596 92.9899 95.2137 90.0569 94.5639 87.1556C94.2397 85.7104 93.8666 84.27 93.4966 82.8407C92.7725 80.0374 92.0689 77.223 91.4174 74.3976C89.4743 65.9734 88.0054 57.4449 87.9295 48.8183C81.6825 45.0647 75.2205 41.3317 68.7964 37.8896C67.2391 39.583 67.228 40.9285 64.9259 40.9365C60.5826 45.5248 55.6701 49.5709 50.3449 52.9719C45.4213 56.1199 40.1435 58.7177 34.6412 60.6893C33.1234 61.2332 31.5881 61.7297 30.0386 62.1771C26.7452 63.1274 23.3015 63.899 20.2752 65.4358C19.374 65.8912 18.5107 66.4177 17.698 67.0359C13.4686 70.2519 11.323 75.4474 9.47466 80.4295C9.45569 80.4785 9.4383 80.5307 9.41775 80.5797C7.78129 85.0005 6.22706 89.4608 4.75346 93.9543C3.41268 98.0542 2.13987 102.182 0.941388 106.334C-0.3488 110.792 -1.55202 115.277 -2.66987 119.782C-3.02088 121.194 -3.3624 122.607 -3.69601 124.022C-4.36324 126.854 -4.99569 129.692 -5.59493 132.538C-6.86456 138.58 -7.97767 144.645 -8.92634 150.723C-9.15244 152.168 -9.36746 153.613 -9.57459 155.056H-9.57617Z" fill="url(#paint0_linear_28963_359715)"/>
<path d="M91.4144 74.3976C83.7065 74.6727 75.9321 73.0268 69.0116 69.6179C62.0911 66.209 56.0496 61.0499 51.5687 54.7744C51.145 54.1831 50.7355 53.5823 50.3418 52.9719C55.6654 49.571 60.5795 45.5249 64.9212 40.9365C66.0154 39.3048 66.9324 37.9371 67.7325 36.7734C67.9649 37.8486 68.2448 38.4826 68.7918 37.8881C75.2143 41.3302 81.6779 45.0632 87.9249 48.8168C87.9454 51.0209 88.0529 53.2186 88.2411 55.4132C88.785 61.7961 89.9677 68.1253 91.4128 74.396L91.4144 74.3976Z" fill="url(#paint1_linear_28963_359715)"/>
<path style="mix-blend-mode:multiply" opacity="0.46" d="M88.2411 55.4148C82.791 52.7885 76.7954 51.3007 70.7492 51.0888C64.1876 50.8596 57.577 52.134 51.5687 54.7744C51.145 54.1831 50.7355 53.5823 50.3418 52.9719C55.6654 49.571 60.5795 45.5249 64.9212 40.9365C66.0154 39.3048 66.9324 37.9371 67.7325 36.7734C67.9649 37.8486 68.2448 38.4826 68.7918 37.8881C75.2143 41.3302 81.6779 45.0632 87.9249 48.8168C87.9454 51.0209 88.0529 53.2186 88.2411 55.4132V55.4148Z" fill="url(#paint2_linear_28963_359715)"/>
<path d="M59.8843 28.9026C63.7343 38.5679 75.2512 47.3905 80.4325 49.9251C84.6335 51.9805 89.1302 53.4288 93.7486 54.1783C96.0839 54.5561 98.6848 54.7032 100.604 53.3229C102.282 52.1165 103.046 50.0231 103.556 48.0198C107.615 32.1439 100.677 17.2988 95.8436 11.2747C88.5183 10.8036 80.2079 14.7279 74.7563 19.642C69.3062 24.5561 58.251 24.7964 59.8859 28.901L59.8843 28.9026Z" fill="url(#paint3_linear_28963_359715)"/>
<path d="M90.2272 34.7118C90.2209 34.6169 90.2272 34.5189 90.2336 34.424C90.3885 32.1583 90.5434 29.8926 90.6984 27.6268C90.7664 26.645 90.7348 25.6947 90.6399 24.7081C90.5909 24.1942 90.6067 23.4274 90.3173 22.9736C90.1782 22.7554 90.4517 22.5009 90.6652 22.6258C91.6281 23.1886 92.4645 24.1436 93.2756 24.9073C94.1753 25.7548 95.0686 26.6054 95.9762 27.445C97.7881 29.121 99.657 30.7495 101.23 32.6595C101.586 33.0912 101.545 33.9513 100.86 34.062C98.1881 34.4952 95.4781 34.7924 92.7839 35.0312C92.3523 35.0691 90.5498 35.4138 90.3205 35.0454C90.2573 34.9458 90.2336 34.8304 90.2256 34.7118H90.2272Z" fill="url(#paint4_linear_28963_359715)"/>
<path d="M101.834 21.7849C100.5 23.3296 98.514 24.476 96.3795 24.8855C95.2189 25.1084 94.0015 25.1258 92.9184 25.6001C91.3563 26.2847 90.3507 27.79 89.2471 29.0881C86.1734 32.7009 81.7099 35.0678 77.0171 35.7113H77.014C76.4179 35.792 75.8202 35.8457 75.221 35.871C74.4289 35.9042 73.6336 35.8884 72.8414 35.8173C72.19 35.7604 71.5386 35.6702 70.8856 35.569C70.5804 35.5232 70.2753 35.4726 69.9701 35.4236C68.6278 35.2038 67.287 34.9809 65.962 34.9429C65.8545 34.9398 65.7454 34.9366 65.6379 34.9366C65.1683 34.9334 64.7019 34.9556 64.237 35.0109C63.8022 35.0615 63.3706 35.1437 62.9405 35.2623C62.55 34.8386 62.2242 34.4164 61.9602 33.9911C61.8811 33.8646 61.8068 33.735 61.7373 33.6069C61.4005 32.9823 61.1934 32.3499 61.0938 31.6985C61.3515 31.3728 61.6139 31.0518 61.8843 30.734C62.0393 30.549 62.1974 30.3672 62.3586 30.1854C66.5122 25.4721 71.8706 21.7675 77.6085 18.9863C80.075 17.791 82.6111 16.7585 85.1947 15.851C86.1686 15.5079 87.1505 15.1822 88.1371 14.8723C91.2567 13.8936 94.4299 13.0698 97.6143 12.333C97.9827 12.8279 98.3337 13.3449 98.6658 13.8809C98.7701 14.0501 98.8745 14.2224 98.9741 14.3964C99.2555 14.8786 99.5227 15.3751 99.7725 15.8826C99.8627 16.0676 99.9528 16.251 100.038 16.4376C100.106 16.5846 100.173 16.7317 100.237 16.8819C100.437 17.3309 100.622 17.7894 100.796 18.2527C100.863 18.4361 100.93 18.6195 100.995 18.8061C101.131 19.1998 101.259 19.5966 101.377 19.9982C101.433 20.1864 101.486 20.3745 101.537 20.5643C101.648 20.969 101.749 21.3754 101.839 21.7865L101.834 21.7849Z" fill="url(#paint5_linear_28963_359715)"/>
<path style="mix-blend-mode:lighten" opacity="0.73" d="M78.6375 17.7168C77.7458 17.6235 76.7971 17.5887 75.9338 17.8717C75.4975 18.014 73.8278 18.9611 74.7148 19.5351C74.9488 19.6869 75.2508 19.6663 75.5291 19.6442C78.9095 19.377 82.3294 19.6252 85.6356 20.3794C85.9644 20.4537 86.8973 20.5296 86.57 19.9098C86.4925 19.7612 86.3534 19.6568 86.2127 19.5651C85.2814 18.9516 84.0434 18.6829 82.9666 18.4362C81.5405 18.1089 80.0938 17.8686 78.6375 17.7152V17.7168Z" fill="url(#paint6_linear_28963_359715)"/>
<path d="M83.2555 23.9347C83.2555 24.0106 83.2602 24.0833 83.2697 24.1561C83.344 24.6984 83.6476 25.1806 84.0002 25.6012C84.4334 26.1198 84.9457 26.5688 85.5149 26.9309C85.8817 27.1649 86.3007 27.3673 86.7324 27.3167C87.1909 27.2614 87.5719 26.9104 87.749 26.4803C87.7901 26.3791 87.8233 26.2748 87.8407 26.1672C88.1048 24.6351 85.5671 21.7654 83.8769 22.7331C83.4673 22.9702 83.2555 23.4556 83.2539 23.9331L83.2555 23.9347Z" fill="url(#paint7_linear_28963_359715)"/>
<path d="M87.3993 25.7121C87.3851 25.7247 87.3693 25.7358 87.3519 25.7469C87.2033 25.8417 87.0072 25.818 86.8412 25.7564C86.4032 25.5903 85.7882 24.8915 86.0254 24.3919C86.2309 23.957 86.857 24.0582 87.1511 24.3381C87.4452 24.618 87.8104 25.3832 87.3993 25.7137V25.7121Z" fill="url(#paint8_linear_28963_359715)"/>
<path style="mix-blend-mode:multiply" d="M83.2539 23.9347C83.5306 23.5853 83.9528 23.3513 84.4002 23.3212C84.9346 23.288 85.4517 23.5299 85.888 23.8383C86.7845 24.4723 87.447 25.4257 87.749 26.4803C87.7901 26.3791 87.8233 26.2748 87.8407 26.1672C88.1048 24.6351 85.5671 21.7654 83.8769 22.7331C83.4673 22.9702 83.2555 23.4556 83.2539 23.9331V23.9347Z" fill="url(#paint9_linear_28963_359715)"/>
<path d="M92.0192 19.9185C92.5362 20.5478 93.1703 21.0807 93.8786 21.4807C94.3434 21.7431 94.9427 21.9439 95.3886 21.6514C95.7554 21.4095 95.8487 20.9384 95.8091 20.483C95.7997 20.3502 95.7759 20.2158 95.7443 20.0893C95.4866 19.0458 94.7751 17.9342 93.9071 17.2828C93.0833 16.663 91.7314 16.6978 91.3725 17.8141C91.3694 17.8204 91.3662 17.8283 91.3646 17.8346C91.1417 18.5604 91.537 19.3304 92.0192 19.917V19.9185Z" fill="url(#paint10_linear_28963_359715)"/>
<path d="M95.4228 20.257C95.4085 20.2697 95.3927 20.2807 95.3753 20.2918C95.2267 20.3867 95.0306 20.3629 94.8646 20.3013C94.4267 20.1353 93.8116 19.4364 94.0488 18.9368C94.2543 18.502 94.8805 18.6032 95.1745 18.883C95.4686 19.1629 95.8339 19.9281 95.4228 20.2586V20.257Z" fill="url(#paint11_linear_28963_359715)"/>
<path style="mix-blend-mode:multiply" d="M91.3727 17.816C91.7648 17.5789 92.2628 17.4998 92.7198 17.5804C93.3854 17.6974 93.972 18.1006 94.4574 18.5702C95.0219 19.1173 95.482 19.7703 95.8077 20.4849C95.7982 20.3521 95.7745 20.2177 95.7429 20.0912C95.4852 19.0477 94.7737 17.9362 93.9056 17.2848C93.0819 16.665 91.73 16.6998 91.3711 17.816H91.3727Z" fill="url(#paint12_linear_28963_359715)"/>
<path d="M79.97 38.52C80.6151 39.339 81.2918 40.1328 82.0002 40.898C84.7687 43.8895 88.0226 46.4493 91.6687 48.2834C92.0466 48.4731 92.4751 48.6613 92.8814 48.5411C93.3415 48.4051 93.6024 47.9292 93.8064 47.4944C94.2127 46.6359 94.5985 45.7678 94.9685 44.8919C95.0112 44.7907 95.0554 44.6879 95.0965 44.5852C95.4428 43.7503 95.7732 42.9092 96.0879 42.0601C96.3045 41.4767 96.2302 41.1431 95.9994 40.9518C95.5756 40.6055 94.627 40.7273 93.9487 40.6482C92.1889 40.4442 90.437 40.1565 88.7025 39.7896C85.6715 39.1446 82.7559 38.1864 79.8246 37.1935C78.5881 36.7745 79.7408 38.2275 79.97 38.5184V38.52Z" fill="url(#paint13_linear_28963_359715)"/>
<path style="mix-blend-mode:lighten" opacity="0.73" d="M90.4939 17.4493C90.3753 17.7465 90.2188 18.0359 89.9595 18.0912C89.2195 18.2493 89.5832 16.9038 89.6338 16.5781C89.7492 15.8397 89.9168 15.1092 90.1334 14.393C90.4101 13.4791 90.7658 12.5889 91.1975 11.7367C91.4773 11.1849 91.9707 9.83779 92.8165 10.105C93.3684 10.2789 93.985 10.9541 93.8095 11.5707C93.7399 11.8126 93.5866 12.0213 93.4395 12.2253C92.7375 13.1977 92.0987 14.2159 91.5248 15.2689C91.2323 15.8081 90.9556 16.3567 90.6979 16.9133C90.6346 17.0492 90.5729 17.25 90.4955 17.4461L90.4939 17.4493Z" fill="url(#paint14_linear_28963_359715)"/>
<path style="mix-blend-mode:multiply" opacity="0.36" d="M100.232 16.8803C80.245 21.9035 76.9484 29.9308 65.9581 34.9429C65.8506 34.9398 65.7415 34.9366 65.634 34.9366C65.1644 34.9334 64.6979 34.9556 64.2331 35.0109C63.7983 35.0615 63.3667 35.1437 62.9366 35.2623C62.5461 34.8386 62.2203 34.4164 61.9563 33.9911C61.8772 33.8646 61.8029 33.735 61.7334 33.6069C61.3966 32.9823 61.1895 32.3499 61.0898 31.6985C61.3476 31.3728 61.61 31.0518 61.8804 30.734C62.0353 30.549 62.1935 30.3672 62.3547 30.1854C66.5083 25.4721 71.8667 21.7675 77.6046 18.9863C80.0711 17.791 82.6072 16.7585 85.1908 15.851C86.1647 15.5079 87.1466 15.1822 88.1332 14.8723C91.2527 13.8936 94.426 13.0698 97.6104 12.333C97.9788 12.8279 98.3298 13.3449 98.6618 13.8809C98.7662 14.0501 98.8706 14.2224 98.9702 14.3964C99.2516 14.8786 99.5188 15.3751 99.7686 15.8826C99.8587 16.0676 99.9489 16.251 100.034 16.4376C100.102 16.5846 100.169 16.7317 100.233 16.8819L100.232 16.8803Z" fill="url(#paint15_linear_28963_359715)"/>
<path d="M74.8379 20.4495C78.3669 20.5649 82.4035 20.723 85.5562 19.2083C88.1888 17.0627 90.9115 14.8397 94.1607 13.8515C96.9229 13.0103 99.7499 12.3921 102.525 11.5936C103.209 11.396 103.396 10.5074 102.843 10.0584C101.518 8.98006 99.908 8.25275 98.2257 8.00293C89.5359 8.5326 81.1497 12.8854 74.8379 20.451V20.4495Z" fill="url(#paint16_linear_28963_359715)"/>
<path d="M68.0156 3.74761C68.1057 2.45901 69.0101 1.26527 70.2244 0.825717C71.4387 0.387749 72.8965 0.729269 73.7899 1.66054C71.9099 2.40683 70.0284 3.15312 68.0156 3.74603V3.74761Z" fill="url(#paint17_linear_28963_359715)"/>
<path style="mix-blend-mode:multiply" d="M80.1168 37.9846C81.2047 38.7482 82.3304 39.4677 83.4862 40.1238C85.4958 41.2685 87.5876 42.2805 89.7316 43.1437C90.8115 43.5801 91.9072 43.9754 93.0187 44.3201C93.6607 44.5193 94.3137 44.7249 94.9714 44.894C95.0141 44.7928 95.0584 44.6901 95.0995 44.5873C94.935 44.5446 94.7706 44.5003 94.6062 44.4561C93.988 44.2853 93.3745 44.1035 92.7626 43.9074C90.5348 43.1943 88.3339 42.3753 86.2278 41.3539C84.1344 40.3388 82.1154 39.172 80.1722 37.8913C80.1121 37.8518 80.0599 37.9466 80.1153 37.9846H80.1168Z" fill="url(#paint18_linear_28963_359715)"/>
<path d="M102.076 6.82906C102.022 7.14054 101.897 7.43305 101.719 7.69235C101.622 7.83307 101.512 7.96272 101.388 8.07814C101.361 8.10502 101.333 8.13032 101.306 8.15562C100.38 8.97147 99.1795 9.1454 98.0205 9.33987C93.7373 10.0561 89.4778 11.2356 85.7194 13.4112C81.324 15.9552 70.8428 28.386 61.1553 32.0652C57.9298 28.8998 56.2301 25.7929 54.7217 21.7342C54.4087 20.8915 54.4419 19.9602 54.8039 19.138C56.0957 16.213 57.6231 13.4492 59.4603 10.9732C59.9568 10.3028 60.4754 9.65451 61.0193 9.02997C63.5491 6.11598 66.6022 3.71427 70.3273 2.08098C75.0169 0.0255328 90.4217 -1.28047 99.8246 3.74431C101.028 4.38783 102.323 5.39499 102.078 6.83064L102.076 6.82906Z" fill="url(#paint19_linear_28963_359715)"/>
<path style="mix-blend-mode:multiply" opacity="0.23" d="M101.39 8.07812C101.363 8.105 101.335 8.1303 101.308 8.1556C100.381 8.97145 99.1814 9.14538 98.0225 9.33986C93.7392 10.0561 89.4797 11.2356 85.7214 13.4112C81.3259 15.9552 70.8447 28.3859 61.1572 32.0652C57.9318 28.8998 56.2321 25.7929 54.7237 21.7342C54.4106 20.8915 54.4438 19.9602 54.8059 19.138C56.0977 16.213 57.625 13.4492 59.4623 10.9731C59.9587 10.3028 60.4774 9.6545 61.0213 9.02996C60.89 10.1668 60.8948 11.3131 61.0861 12.4467C61.5857 15.4192 63.608 18.2747 66.5172 19.0637C69.6668 19.9159 72.9033 18.2668 75.7114 16.6051C80.2808 13.8998 84.8818 10.9526 90.1043 10.0008C93.0499 9.46476 96.0951 9.58651 99.0075 8.89872C99.8139 8.70899 100.623 8.43546 101.39 8.07812Z" fill="url(#paint20_linear_28963_359715)"/>
<path d="M50.7373 52.3371C57.321 63.0823 68.5406 70.3839 80.7674 72.9991C82.592 73.3896 84.4356 73.6663 86.2949 73.8244C88.2081 73.9857 90.1228 73.9066 92.0328 74.0316C92.4534 74.0584 92.6131 74.7446 92.1387 74.8189C88.8563 75.3407 85.2704 74.9122 82.0086 74.4126C78.5933 73.8893 75.2651 72.9738 72.0618 71.6741C66.161 69.2819 60.828 65.6406 56.3724 61.0949C53.9074 58.5825 51.7666 55.8029 49.8693 52.8415C49.5214 52.2976 50.3973 51.7837 50.7357 52.3355L50.7373 52.3371Z" fill="url(#paint21_linear_28963_359715)"/>
<path style="mix-blend-mode:multiply" opacity="0.32" d="M20.2695 65.436C30.2005 75.8523 41.33 85.2046 53.9441 92.1062C66.144 98.7816 79.7558 102.881 93.6063 103.308C94.5755 100.949 95.2491 98.5034 95.4372 95.9404C95.6538 92.9884 95.208 90.0555 94.5581 87.1541C83.1915 88.1328 71.583 86.2149 61.1524 81.5981C50.7502 76.9955 41.5482 69.7208 34.6371 60.6895C33.1192 61.2334 31.584 61.7298 30.0345 62.1773C26.741 63.1275 23.2974 63.8991 20.2711 65.436H20.2695Z" fill="url(#paint22_linear_28963_359715)"/>
<path d="M63.4045 130.196C62.5649 136.354 61.5008 140.623 60.9079 142.647C60.7277 143.27 60.5901 143.68 60.5174 143.866C57.9971 143.746 56.4017 143.914 49.3547 143.507C46.1593 143.322 41.846 143.022 35.814 142.521C29.1955 141.7 22.5833 140.734 15.9964 139.784C12.1211 139.224 8.25208 138.669 4.39258 138.152C4.8179 134.402 5.24322 130.65 5.66854 126.899C6.23774 121.884 6.80535 116.869 7.37456 111.854C7.87893 107.387 8.38647 102.92 8.89243 98.452C8.93038 98.12 8.96674 97.7848 9.00627 97.4512C9.47269 93.3324 9.96443 89.1361 11.2641 85.2276C11.3795 84.8797 11.4997 84.5351 11.6309 84.192C11.9614 83.305 12.3424 82.4353 12.7772 81.5863C15.2738 76.7212 20.0456 72.6403 25.5115 72.5692C31.9008 72.4901 37.343 78.024 38.9715 84.1999C39.7289 87.0696 39.8285 90.0279 39.5028 92.9782C39.1312 96.3713 38.1952 99.7549 37.0584 102.979C36.8781 103.488 36.6947 103.995 36.505 104.503C35.0361 108.453 33.3396 112.333 32.0542 116.33C31.5703 117.83 31.1466 119.348 30.8146 120.891C30.8003 120.95 30.7877 121.007 30.7766 121.065C30.862 121.089 30.9474 121.111 31.0343 121.135C31.1672 121.171 31.3 121.209 31.4344 121.244C33.2368 121.74 35.044 122.237 36.8528 122.735C38.7597 123.26 40.6681 123.785 42.5765 124.311C46.0992 125.28 49.6266 126.251 53.1494 127.222C53.1905 127.235 53.2332 127.244 53.279 127.257C55.9732 128.005 60.7861 129.473 63.4061 130.194L63.4045 130.196Z" fill="url(#paint23_linear_28963_359715)"/>
<path style="mix-blend-mode:multiply" opacity="0.83" d="M68.2586 5.42187C68.2333 5.327 68.1574 5.25585 68.0641 5.22739C67.7621 5.15941 67.672 5.50725 67.4522 5.7539C67.2641 5.96894 66.7075 6.83697 66.415 7.3034C64.7896 9.84424 63.5421 12.6223 62.7342 15.5283C61.9278 18.3443 61.474 20.9721 61.327 23.8102C61.2811 24.7826 61.2748 25.7566 61.3333 26.729C61.3586 27.091 61.3902 27.4547 61.4424 27.8136C61.4772 27.9701 61.4709 28.1488 61.5578 28.2864C61.6986 28.4777 62.0211 28.3259 61.9531 28.0903C61.6337 26.1835 61.7697 23.7359 62.0053 21.6156C62.5334 17.3767 63.8489 12.774 66.0624 8.97779C66.5968 8.07024 67.1566 7.17691 67.7574 6.31204C67.8839 6.12863 68.004 5.9389 68.1384 5.76023C68.2159 5.6622 68.2997 5.5531 68.2586 5.42187Z" fill="url(#paint24_linear_28963_359715)"/>
<path style="mix-blend-mode:multiply" opacity="0.83" d="M75.6182 19.4374C75.5391 19.292 75.4601 19.1465 75.3826 19.001C73.9454 16.3195 72.8892 13.747 72.0085 10.8109C71.4598 8.96414 71.0266 7.08261 70.6772 5.18844C70.6408 4.9829 70.5918 4.66351 70.5887 4.63663C70.5823 4.55916 70.5776 4.47694 70.5175 4.4216C70.3863 4.28246 70.1286 4.38524 70.1349 4.57971C70.9254 9.88593 72.6741 15.053 75.2624 19.7521C75.3557 19.9244 75.6403 19.8912 75.6862 19.6967C75.713 19.6019 75.6672 19.5165 75.6182 19.4374Z" fill="url(#paint25_linear_28963_359715)"/>
<path d="M67.7984 42.267C61.7538 42.0424 58.9695 36.5876 60.6328 35.133C64.4322 31.811 68.8056 37.307 69.6357 39.6882C69.9313 40.5356 70.1558 42.3539 67.7984 42.267Z" fill="url(#paint26_linear_28963_359715)"/>
<path style="mix-blend-mode:multiply" opacity="0.82" d="M67.5432 39.5131C67.3519 39.2728 67.1527 39.0372 66.9566 38.8001C66.117 37.8182 64.6023 35.777 63.2853 35.6094C62.6892 35.6141 62.5437 35.9224 62.3935 36.441C62.2828 36.9786 62.2623 37.532 62.2686 38.0807C62.2718 38.2056 62.2528 38.3494 62.354 38.4427C62.5184 38.6182 62.841 38.4854 62.8331 38.2451C62.8742 37.4751 62.9943 36.5375 63.1856 36.3399C63.1967 36.3367 63.2094 36.3335 63.2204 36.3304C63.222 36.3304 63.2236 36.3304 63.2252 36.3304C63.26 36.3304 63.2868 36.3335 63.3026 36.3335C63.3675 36.3478 63.4544 36.3762 63.4987 36.392C64.0821 36.6687 64.2592 36.8869 64.7794 37.3486C64.8521 37.415 64.9296 37.4877 65.0087 37.5652C64.9265 37.698 64.868 37.8561 64.7921 37.9826C64.6023 38.3747 64.4537 38.789 64.4158 39.2254C64.4078 39.3598 64.3667 39.5084 64.4205 39.6365C64.5249 39.9147 64.9597 39.8246 64.9533 39.529C64.9786 39.2728 65.2348 38.5914 65.3913 38.2989C65.4308 38.2261 65.4704 38.155 65.5115 38.0838C65.9969 38.6072 66.4807 39.1827 66.6894 39.4641C66.7779 39.578 67.14 40.057 67.0309 39.9147C67.0942 40.008 67.1606 40.1076 67.2776 40.1345C67.4815 40.1962 67.7013 40.027 67.6981 39.8136C67.6776 39.578 67.5495 39.5463 67.5432 39.5084V39.5131Z" fill="url(#paint27_linear_28963_359715)"/>
<path style="mix-blend-mode:multiply" opacity="0.83" d="M93.4876 8.53219C93.4259 8.43574 93.3074 8.39463 93.2172 8.32822C92.8283 8.07366 92.4235 7.83966 92.0108 7.62621C90.259 6.71707 88.3616 6.07988 86.3331 5.51384C83.2784 4.66162 80.1177 4.26318 76.9586 4.04973C75.5008 3.95803 74.0383 3.89162 72.579 3.97384C72.3244 3.977 72.3054 4.37228 72.579 4.3786C75.5594 4.30587 78.7595 4.59205 81.5091 4.98101C84.8405 5.44743 88.5798 6.54315 91.2487 7.77325C91.7926 8.02623 92.3191 8.31557 92.8267 8.63654C93.0164 8.72508 93.2093 9.00178 93.4259 8.83892C93.5224 8.77251 93.5461 8.6318 93.4876 8.5306V8.53219Z" fill="url(#paint28_linear_28963_359715)"/>
<defs>
<linearGradient id="paint0_linear_28963_359715" x1="50.8682" y1="168.333" x2="34.0815" y2="73.0252" gradientUnits="userSpaceOnUse">
<stop stop-color="#454347"/>
<stop offset="1" stop-color="#626163"/>
</linearGradient>
<linearGradient id="paint1_linear_28963_359715" x1="69.1776" y1="68.1475" x2="83.7365" y2="29.9414" gradientUnits="userSpaceOnUse">
<stop stop-color="#FFC493"/>
<stop offset="1" stop-color="#FFB073"/>
</linearGradient>
<linearGradient id="paint2_linear_28963_359715" x1="50.3434" y1="46.0941" x2="88.2411" y2="46.0941" gradientUnits="userSpaceOnUse">
<stop stop-color="#FFC493"/>
<stop offset="1" stop-color="#FFB073"/>
</linearGradient>
<linearGradient id="paint3_linear_28963_359715" x1="114.747" y1="48.4783" x2="80.3297" y2="25.5332" gradientUnits="userSpaceOnUse">
<stop stop-color="#FFC493"/>
<stop offset="1" stop-color="#FFB073"/>
</linearGradient>
<linearGradient id="paint4_linear_28963_359715" x1="98.9692" y1="33.7394" x2="85.5203" y2="25.9777" gradientUnits="userSpaceOnUse">
<stop stop-color="#FF9762"/>
<stop offset="1" stop-color="#FFB073"/>
</linearGradient>
<linearGradient id="paint5_linear_28963_359715" x1="74.7751" y1="22.9391" x2="114.116" y2="29.0896" gradientUnits="userSpaceOnUse">
<stop stop-color="#454347"/>
<stop offset="1" stop-color="#626163"/>
</linearGradient>
<linearGradient id="paint6_linear_28963_359715" x1="80.4668" y1="20.2918" x2="80.6488" y2="18.7066" gradientUnits="userSpaceOnUse">
<stop stop-color="#FFF4EF"/>
<stop offset="1" stop-color="#F6DFD7"/>
</linearGradient>
<linearGradient id="paint7_linear_28963_359715" x1="88.1459" y1="26.1862" x2="83.7456" y2="23.9568" gradientUnits="userSpaceOnUse">
<stop stop-color="#FFF4EF"/>
<stop offset="1" stop-color="#F6DFD7"/>
</linearGradient>
<linearGradient id="paint8_linear_28963_359715" x1="88.3512" y1="25.4575" x2="86.0459" y2="24.6891" gradientUnits="userSpaceOnUse">
<stop stop-color="#363636"/>
<stop offset="1" stop-color="#131313"/>
</linearGradient>
<linearGradient id="paint9_linear_28963_359715" x1="87.8581" y1="24.5102" x2="83.2523" y2="24.5102" gradientUnits="userSpaceOnUse">
<stop stop-color="#FFF4EF"/>
<stop offset="1" stop-color="#D7C2BB"/>
</linearGradient>
<linearGradient id="paint10_linear_28963_359715" x1="96.1459" y1="20.3359" x2="91.2429" y2="18.2188" gradientUnits="userSpaceOnUse">
<stop stop-color="#FFF4EF"/>
<stop offset="1" stop-color="#F6DFD7"/>
</linearGradient>
<linearGradient id="paint11_linear_28963_359715" x1="96.3746" y1="20.0009" x2="94.0693" y2="19.2324" gradientUnits="userSpaceOnUse">
<stop stop-color="#363636"/>
<stop offset="1" stop-color="#131313"/>
</linearGradient>
<linearGradient id="paint12_linear_28963_359715" x1="93.4597" y1="19.3655" x2="94.3167" y2="17.786" gradientUnits="userSpaceOnUse">
<stop stop-color="#FFF4EF"/>
<stop offset="1" stop-color="#D7C2BB"/>
</linearGradient>
<linearGradient id="paint13_linear_28963_359715" x1="91.9359" y1="47.9798" x2="86.6407" y2="37.0891" gradientUnits="userSpaceOnUse">
<stop stop-color="#FFF4EF"/>
<stop offset="1" stop-color="#F6DFD7"/>
</linearGradient>
<linearGradient id="paint14_linear_28963_359715" x1="92.1119" y1="14.4419" x2="90.2151" y2="13.757" gradientUnits="userSpaceOnUse">
<stop stop-color="#FFF4EF"/>
<stop offset="1" stop-color="#F6DFD7"/>
</linearGradient>
<linearGradient id="paint15_linear_28963_359715" x1="74.0502" y1="22.8253" x2="111.012" y2="28.6042" gradientUnits="userSpaceOnUse">
<stop stop-color="#454347"/>
<stop offset="1" stop-color="#626163"/>
</linearGradient>
<linearGradient id="paint16_linear_28963_359715" x1="97.9759" y1="25.4727" x2="86.8844" y2="13.0562" gradientUnits="userSpaceOnUse">
<stop stop-color="#363636"/>
<stop offset="1" stop-color="#131313"/>
</linearGradient>
<linearGradient id="paint17_linear_28963_359715" x1="73.7203" y1="3.49147" x2="70.6245" y2="2.42106" gradientUnits="userSpaceOnUse">
<stop stop-color="#363636"/>
<stop offset="1" stop-color="#131313"/>
</linearGradient>
<linearGradient id="paint18_linear_28963_359715" x1="86.9504" y1="49.5314" x2="87.6113" y2="41.0488" gradientUnits="userSpaceOnUse">
<stop stop-color="#FFF4EF"/>
<stop offset="1" stop-color="#F6DFD7"/>
</linearGradient>
<linearGradient id="paint19_linear_28963_359715" x1="80.067" y1="3.46604" x2="75.2714" y2="30.6675" gradientUnits="userSpaceOnUse">
<stop stop-color="#363636"/>
<stop offset="1" stop-color="#131313"/>
</linearGradient>
<linearGradient id="paint20_linear_28963_359715" x1="87.282" y1="0.578904" x2="62.3525" y2="33.0898" gradientUnits="userSpaceOnUse">
<stop stop-color="#363636"/>
<stop offset="1" stop-color="#131313"/>
</linearGradient>
<linearGradient id="paint21_linear_28963_359715" x1="74.2643" y1="55.7128" x2="65.2393" y2="78.095" gradientUnits="userSpaceOnUse">
<stop stop-color="#363636"/>
<stop offset="1" stop-color="#131313"/>
</linearGradient>
<linearGradient id="paint22_linear_28963_359715" x1="95.4926" y1="81.9997" x2="20.2695" y2="81.9997" gradientUnits="userSpaceOnUse">
<stop stop-color="#454347"/>
<stop offset="1" stop-color="#626163"/>
</linearGradient>
<linearGradient id="paint23_linear_28963_359715" x1="16.2636" y1="152.136" x2="46.8565" y2="92.9909" gradientUnits="userSpaceOnUse">
<stop stop-color="#454347"/>
<stop offset="1" stop-color="#626163"/>
</linearGradient>
<linearGradient id="paint24_linear_28963_359715" x1="61.2922" y1="16.7964" x2="68.2712" y2="16.7964" gradientUnits="userSpaceOnUse">
<stop stop-color="#454347"/>
<stop offset="1" stop-color="#626163"/>
</linearGradient>
<linearGradient id="paint25_linear_28963_359715" x1="70.1349" y1="12.1106" x2="75.6941" y2="12.1106" gradientUnits="userSpaceOnUse">
<stop stop-color="#454347"/>
<stop offset="1" stop-color="#626163"/>
</linearGradient>
<linearGradient id="paint26_linear_28963_359715" x1="101.122" y1="61.9139" x2="70.0341" y2="41.5365" gradientUnits="userSpaceOnUse">
<stop stop-color="#FFC493"/>
<stop offset="1" stop-color="#FFB073"/>
</linearGradient>
<linearGradient id="paint27_linear_28963_359715" x1="62.2686" y1="37.8814" x2="67.6981" y2="37.8814" gradientUnits="userSpaceOnUse">
<stop stop-color="#FFC493"/>
<stop offset="1" stop-color="#FFB073"/>
</linearGradient>
<linearGradient id="paint28_linear_28963_359715" x1="72.3813" y1="6.41349" x2="93.5192" y2="6.41349" gradientUnits="userSpaceOnUse">
<stop stop-color="#454347"/>
<stop offset="1" stop-color="#626163"/>
</linearGradient>
</defs>
</svg>
