<svg width="2000" height="2000" viewBox="0 0 2000 2000" fill="none" xmlns="http://www.w3.org/2000/svg">
<path d="M827.629 1720.73C830.919 1727.06 836.779 1732 843.579 1734.19C847.789 1735.53 852.279 1735.84 856.499 1737.13C865.629 1739.92 871.119 1750.74 874.609 1759C877.059 1764.78 878.639 1770.96 881.889 1776.33C891.359 1792.01 914.919 1793.51 931.169 1793.58C942.829 1793.63 955.669 1793.34 967.579 1790.56C975.409 1788.72 982.839 1785.81 989.279 1781.21C990.759 1780.14 992.259 1778.9 992.849 1777.16C993.819 1774.33 991.949 1771.18 989.419 1769.57C986.889 1767.96 983.849 1767.44 980.959 1766.64C974.809 1764.94 968.679 1760.22 962.849 1757.41C956.209 1754.22 949.509 1751.04 943.809 1746.3C929.909 1734.74 924.179 1716.19 920.519 1698.49C917.789 1685.32 915.689 1671.68 910.759 1659.3C909.069 1655.04 907.039 1650.92 904.519 1647.03C886.519 1646.15 867.259 1646.09 850.079 1640.64C841.819 1649.29 834.279 1658.83 829.469 1669.77C823.959 1682.32 821.129 1708.21 827.639 1720.74L827.629 1720.73Z" fill="url(#paint0_linear_26486_106250)"/>
<path d="M626.65 1740.3C630.22 1746.27 635.93 1750.79 642.28 1753.61C645.98 1755.25 650.03 1756.36 654.06 1755.98C656.04 1755.8 657.98 1755.27 659.96 1755.27C666.91 1755.27 673.62 1770.93 677.07 1776.24C682.47 1784.53 688.27 1792.77 696.99 1797.88C711.33 1806.27 730.47 1810.01 748.56 1808.38C759.79 1807.39 770.62 1804.32 779.64 1799.02C784.47 1796.19 788.82 1792.26 791.23 1787.2C792.31 1784.94 792.89 1782.01 791.28 1780.1C790.34 1778.96 788.85 1778.47 787.44 1778.02C772.34 1773.24 756.4 1770.27 744.37 1759.37C734.02 1749.99 727.02 1737.14 723.22 1723.79C719.29 1709.98 718.41 1695.61 718.45 1681.2C718.46 1675 718.65 1668.8 718.84 1662.63C695.03 1660.35 668.48 1653.44 646.28 1644.53C635.92 1661.56 628.49 1680.37 624.43 1699.9C621.98 1711.67 620.2 1729.51 626.64 1740.31L626.65 1740.3Z" fill="url(#paint1_linear_26486_106250)"/>
<path style="mix-blend-mode:multiply" opacity="0.32" d="M827.631 1720.73C830.921 1727.06 836.781 1732 843.581 1734.19C847.791 1735.53 852.281 1735.84 856.501 1737.13C865.631 1739.92 871.121 1750.74 874.611 1759C877.061 1764.78 878.641 1770.96 881.891 1776.33C891.361 1792.01 914.921 1793.51 931.171 1793.58C942.831 1793.63 955.671 1793.34 967.581 1790.56C956.641 1788.66 945.511 1787.53 934.631 1785.29C917.591 1781.81 900.171 1774.93 889.851 1760.93C882.821 1751.39 879.631 1739.26 871.641 1730.5C862.791 1720.79 847.801 1714.33 846.841 1701.22C846.021 1690.09 856.311 1681.5 866.101 1676.12C876.081 1670.65 886.611 1666.44 897.511 1663.21C901.521 1662.02 906.441 1661.1 910.751 1659.28C909.061 1655.02 907.031 1650.9 904.511 1647.01C886.511 1646.13 867.251 1646.07 850.071 1640.62C841.811 1649.27 834.271 1658.81 829.461 1669.75C823.951 1682.3 821.121 1708.19 827.631 1720.72V1720.73Z" fill="url(#paint2_linear_26486_106250)"/>
<path style="mix-blend-mode:multiply" opacity="0.43" d="M626.65 1740.3C630.22 1746.27 635.93 1750.79 642.28 1753.61C645.98 1755.25 650.03 1756.36 654.06 1755.98C656.04 1755.8 657.98 1755.27 659.96 1755.27C666.91 1755.27 673.62 1770.93 677.07 1776.24C682.47 1784.53 688.27 1792.77 696.99 1797.88C711.33 1806.27 730.47 1810.01 748.56 1808.38C744.78 1807.33 741.06 1806.15 737.4 1804.76C719.4 1797.96 702.6 1786.02 693.81 1768.9C689.21 1759.95 686.44 1749.25 678.14 1743.56C671.44 1738.96 662.47 1738.71 655.79 1734.07C644.55 1726.26 644.66 1708.23 653.21 1697.54C661.76 1686.84 675.97 1682.34 689.6 1680.93C696.72 1680.19 708.79 1681.92 718.45 1681.2C718.46 1675 718.65 1668.8 718.84 1662.63C695.03 1660.35 668.48 1653.44 646.28 1644.53C635.92 1661.56 628.49 1680.37 624.43 1699.9C621.98 1711.67 620.2 1729.51 626.64 1740.31L626.65 1740.3Z" fill="url(#paint3_linear_26486_106250)"/>
<path d="M1370.01 915.578C1386.23 909.198 1403.71 906.008 1421.14 906.238C1423.26 906.268 1425.43 906.358 1427.39 907.158C1429.35 907.958 1431.09 909.618 1431.41 911.718C1431.97 915.338 1428.4 918.138 1425.22 919.958C1413.4 926.718 1400.81 932.138 1387.77 936.078C1393.94 935.618 1399.96 935.808 1405.9 937.508C1409.41 938.508 1413.26 941.228 1412.7 944.838C1412.25 947.788 1409.13 949.438 1406.38 950.578C1393.85 955.778 1380.96 960.108 1367.84 963.538C1374.69 963.368 1381.64 964.608 1388.26 966.388C1389.97 966.848 1391.81 967.488 1392.72 968.998C1393.9 970.948 1392.95 973.618 1391.21 975.098C1389.48 976.578 1387.17 977.158 1384.95 977.688C1368.48 981.658 1352.01 985.628 1335.53 989.608C1331.71 975.548 1332.17 960.228 1338.1 946.918C1344.04 933.608 1356.42 920.918 1369.98 915.588L1370.01 915.578Z" fill="url(#paint4_linear_26486_106250)"/>
<path d="M1281.32 965.159C1284.38 987.719 1287.96 1011.43 1291.02 1033.99C1295.86 1033.17 1300.74 1032.58 1305.63 1032.22C1323.96 1030.88 1342.51 1032.81 1360.15 1037.92C1363.57 1038.91 1367.08 1040.04 1370.63 1039.68C1373.5 1039.38 1376.42 1037.79 1377.75 1035.33C1378.06 1034.75 1378.29 1034.12 1378.4 1033.45C1378.95 1030.21 1376.87 1027.17 1374.9 1024.54C1366.94 1013.95 1358.79 1003.49 1350.47 993.179C1345.68 987.259 1340.61 980.759 1340.46 973.139C1340.33 966.179 1344.41 959.889 1348.51 954.249C1367.12 928.669 1389.55 905.759 1405.33 878.339C1406.69 875.989 1408.01 873.539 1408.4 870.849C1408.81 868.169 1408.12 865.159 1406.02 863.439C1403.7 861.529 1400.33 861.649 1397.37 862.199C1381.88 865.089 1369.76 876.759 1358.6 887.889C1345.04 901.429 1331.49 914.979 1317.95 928.509C1307.65 938.809 1297.34 949.099 1287.04 959.399C1285.13 961.319 1283.21 963.229 1281.31 965.129L1281.32 965.159Z" fill="url(#paint5_linear_26486_106250)"/>
<path style="mix-blend-mode:multiply" opacity="0.51" d="M1281.32 965.159C1284.38 987.719 1287.96 1011.43 1291.02 1033.99C1295.86 1033.17 1300.74 1032.58 1305.63 1032.22C1323.96 1030.88 1342.51 1032.81 1360.15 1037.92C1363.57 1038.91 1367.08 1040.04 1370.63 1039.68C1373.5 1039.38 1376.42 1037.79 1377.75 1035.33C1375.52 1035.09 1373.18 1035.06 1371.04 1034.47C1360.71 1031.63 1350.56 1027.58 1341.45 1021.9C1328.14 1013.59 1316.89 1001.16 1312.53 986.079C1308.86 973.409 1310.23 959.799 1313.13 946.919C1314.52 940.739 1316.27 934.649 1317.96 928.539C1307.66 938.839 1297.35 949.129 1287.05 959.429C1285.14 961.349 1283.22 963.259 1281.32 965.159Z" fill="url(#paint6_linear_26486_106250)"/>
<path d="M1281.32 965.16C1284.39 987.72 1287.96 1011.43 1291.03 1034C1295.87 1033.17 1300.75 1032.59 1305.64 1032.23C1299.44 1007.96 1293.25 983.7 1287.05 959.42C1285.14 961.34 1283.22 963.24 1281.32 965.15V965.16Z" fill="url(#paint7_linear_26486_106250)"/>
<path d="M1047.6 1089.46C1050.52 1089.5 1053.45 1089.53 1056.37 1089.54C1120 1089.8 1183.27 1082.29 1245.35 1068.61C1264.36 1064.44 1283.24 1059.68 1302 1054.39C1301.16 1051.13 1300.33 1047.89 1299.52 1044.63C1292.26 1015.78 1286.01 987.059 1281.66 957.529C1268.09 962.939 1254.36 966.459 1240.29 969.049C1234.17 970.189 1227.99 971.139 1221.72 971.989C1220.99 972.089 1220.25 972.189 1219.51 972.289C1219.69 970.869 1219.89 969.439 1220.07 968.019C1220.1 967.819 1220.12 967.609 1220.15 967.409C1220.62 963.829 1221.07 960.259 1221.54 956.679C1222.31 950.789 1223.07 944.899 1223.84 939.009C1226.39 919.439 1228.92 899.869 1231.48 880.299C1231.97 876.589 1232.44 872.869 1232.93 869.159C1235.91 846.209 1238.9 823.249 1241.89 800.299C1241.89 800.269 1241.9 800.239 1241.9 800.209C1241.87 800.219 1241.84 800.219 1241.81 800.229C1210.36 807.929 1175.54 826.139 1153.42 849.769C1131.27 873.419 1114.54 901.639 1100.26 930.719C1086.07 959.629 1074.21 989.689 1064.72 1020.49C1062.07 1029.07 1059.62 1037.7 1057.34 1046.38C1054.08 1058.74 1051.21 1071.2 1048.7 1083.74C1048.32 1085.65 1047.96 1087.55 1047.59 1089.45L1047.6 1089.46Z" fill="url(#paint8_linear_26486_106250)"/>
<path style="mix-blend-mode:multiply" opacity="0.32" d="M1144.37 933.979C1171 938.639 1197.22 940.55 1223.84 939.03C1226.39 919.46 1228.92 899.89 1231.48 880.32C1216.09 879.18 1200.73 877.5 1185.46 875.27C1168.64 892.78 1152.59 911.129 1144.37 933.979Z" fill="url(#paint9_linear_26486_106250)"/>
<path style="mix-blend-mode:multiply" opacity="0.32" d="M1048.71 1083.75C1048.96 1083.9 1049.21 1084.03 1049.46 1084.15C1116.95 1065.05 1177.8 1023.34 1220.14 967.429C1220.61 963.849 1221.06 960.279 1221.53 956.699C1179.19 973.909 1134.98 986.389 1089.54 991.429C1081.02 1000.98 1072.68 1010.6 1064.72 1020.51C1058.31 1041.31 1052.97 1062.43 1048.71 1083.75Z" fill="url(#paint10_linear_26486_106250)"/>
<path style="mix-blend-mode:multiply" opacity="0.32" d="M1240.29 969.059C1241.97 1002.24 1243.66 1035.44 1245.35 1068.62C1264.36 1064.45 1283.24 1059.69 1302 1054.4C1293.7 1022.25 1286.5 990.399 1281.66 957.539C1268.09 962.949 1254.36 966.469 1240.29 969.059Z" fill="url(#paint11_linear_26486_106250)"/>
<path style="mix-blend-mode:multiply" opacity="0.43" d="M1056.37 1089.55C1120 1089.81 1183.27 1082.3 1245.35 1068.62C1264.36 1064.45 1283.24 1059.69 1302 1054.4C1301.16 1051.14 1300.33 1047.9 1299.52 1044.64C1257.22 1046.82 1214.73 1045.24 1172.71 1039.91C1166.1 1039.08 1158.75 1037.7 1154.94 1032.23C1149.86 1024.93 1153.98 1015.01 1158.17 1007.16C1179.14 967.9 1200.1 928.63 1221.07 889.37C1223.99 883.89 1228.41 876.92 1232.93 869.18C1235.91 846.23 1238.9 823.27 1241.89 800.32C1241.87 800.3 1241.84 800.28 1241.81 800.25C1210.36 807.95 1175.54 826.16 1153.42 849.79C1131.27 873.44 1114.54 901.66 1100.26 930.74C1086.07 959.65 1074.21 989.71 1064.72 1020.51C1062.07 1029.09 1059.62 1037.72 1057.34 1046.4C1055.59 1060.61 1055.04 1075.25 1056.37 1089.55Z" fill="url(#paint12_linear_26486_106250)"/>
<path d="M580.52 1170.32C659.81 1228.92 757.31 1264.6 855.84 1269.09H855.859C874.28 1269.94 892.74 1269.69 911.12 1268.3C934.449 1249 956.3 1228.25 977.01 1206.41C981.61 1201.56 986.15 1196.66 990.64 1191.71C999.65 1181.78 1008.45 1171.64 1017.07 1161.32C1036.82 1137.7 1055.59 1113.17 1073.78 1088.1C1081.73 1077.15 1089.55 1066.1 1097.28 1054.98C1106.44 1041.85 1115.47 1028.61 1124.42 1015.32C1125.63 1013.53 1126.84 1011.75 1128.03 1009.96C1144.59 985.329 1160.94 960.549 1177.38 935.939C1181.63 929.569 1185.9 923.199 1190.18 916.859C1206.02 893.349 1222.44 869.049 1233.15 843.039C1239.28 828.119 1243.54 812.649 1244.73 796.439C1246.1 777.769 1243.28 759.219 1239.17 740.869C1237.12 731.729 1234.76 722.619 1232.42 713.579C1227.84 695.849 1223.39 678.049 1219.27 660.179C1206.98 606.899 1197.69 552.959 1197.21 498.399C1157.7 474.659 1116.83 451.049 1076.2 429.279C1066.35 439.989 1066.28 448.499 1051.72 448.549C1024.25 477.569 993.18 503.159 959.5 524.669C928.359 544.579 894.979 561.009 860.18 573.479C850.579 576.919 840.87 580.059 831.07 582.889C810.24 588.899 788.46 593.779 769.32 603.499C763.62 606.379 758.16 609.709 753.02 613.619C726.27 633.959 712.7 666.819 701.01 698.329C700.89 698.639 700.78 698.969 700.65 699.279C690.3 727.239 680.47 755.449 671.15 783.869C662.67 809.799 654.619 835.909 647.039 862.169C638.879 890.359 631.27 918.729 624.2 947.219C621.98 956.149 619.82 965.089 617.71 974.039C613.49 991.949 609.49 1009.9 605.7 1027.9C597.67 1066.11 590.63 1104.47 584.63 1142.91C583.2 1152.05 581.84 1161.19 580.53 1170.32H580.52Z" fill="url(#paint13_linear_26486_106250)"/>
<path d="M1219.25 660.179C1170.5 661.919 1121.33 651.509 1077.56 629.949C1033.79 608.389 995.58 575.759 967.24 536.069C964.56 532.329 961.97 528.529 959.48 524.669C993.15 503.159 1024.23 477.569 1051.69 448.549C1058.61 438.229 1064.41 429.579 1069.47 422.219C1070.94 429.019 1072.71 433.029 1076.17 429.269C1116.79 451.039 1157.67 474.649 1197.18 498.389C1197.31 512.329 1197.99 526.229 1199.18 540.109C1202.62 580.479 1210.1 620.509 1219.24 660.169L1219.25 660.179Z" fill="url(#paint14_linear_26486_106250)"/>
<path style="mix-blend-mode:multiply" opacity="0.46" d="M1199.18 540.119C1164.71 523.509 1126.79 514.099 1088.55 512.759C1047.05 511.309 1005.24 519.369 967.24 536.069C964.56 532.329 961.97 528.529 959.48 524.669C993.15 503.159 1024.23 477.569 1051.69 448.549C1058.61 438.229 1064.41 429.579 1069.47 422.219C1070.94 429.019 1072.71 433.029 1076.17 429.269C1116.79 451.039 1157.67 474.649 1197.18 498.389C1197.31 512.329 1197.99 526.229 1199.18 540.109V540.119Z" fill="url(#paint15_linear_26486_106250)"/>
<path d="M1019.83 372.44C1044.18 433.57 1117.02 489.37 1149.79 505.4C1176.36 518.4 1204.8 527.56 1234.01 532.3C1248.78 534.69 1265.23 535.62 1277.37 526.89C1287.98 519.26 1292.81 506.02 1296.04 493.35C1321.71 392.94 1277.83 299.05 1247.26 260.95C1200.93 257.97 1148.37 282.79 1113.89 313.87C1079.42 344.95 1009.5 346.47 1019.84 372.43L1019.83 372.44Z" fill="url(#paint16_linear_26486_106250)"/>
<path d="M1211.76 409.18C1211.72 408.58 1211.76 407.96 1211.8 407.36C1212.78 393.03 1213.76 378.7 1214.74 364.37C1215.17 358.16 1214.97 352.15 1214.37 345.91C1214.06 342.66 1214.16 337.81 1212.33 334.94C1211.45 333.56 1213.18 331.95 1214.53 332.74C1220.62 336.3 1225.91 342.34 1231.04 347.17C1236.73 352.53 1242.38 357.91 1248.12 363.22C1259.58 373.82 1271.4 384.12 1281.35 396.2C1283.6 398.93 1283.34 404.37 1279.01 405.07C1262.11 407.81 1244.97 409.69 1227.93 411.2C1225.2 411.44 1213.8 413.62 1212.35 411.29C1211.95 410.66 1211.8 409.93 1211.75 409.18H1211.76Z" fill="url(#paint17_linear_26486_106250)"/>
<path d="M1285.16 327.419C1276.72 337.189 1264.16 344.439 1250.66 347.029C1243.32 348.439 1235.62 348.549 1228.77 351.549C1218.89 355.879 1212.53 365.399 1205.55 373.609C1186.11 396.459 1157.88 411.429 1128.2 415.499H1128.18C1124.41 416.009 1120.63 416.349 1116.84 416.509C1111.83 416.719 1106.8 416.619 1101.79 416.169C1097.67 415.809 1093.55 415.239 1089.42 414.599C1087.49 414.309 1085.56 413.989 1083.63 413.679C1075.14 412.289 1066.66 410.879 1058.28 410.639C1057.6 410.619 1056.91 410.599 1056.23 410.599C1053.26 410.579 1050.31 410.719 1047.37 411.069C1044.62 411.389 1041.89 411.909 1039.17 412.659C1036.7 409.979 1034.64 407.309 1032.97 404.619C1032.47 403.819 1032 402.999 1031.56 402.189C1029.43 398.239 1028.12 394.239 1027.49 390.119C1029.12 388.059 1030.78 386.029 1032.49 384.019C1033.47 382.849 1034.47 381.699 1035.49 380.549C1061.76 350.739 1095.65 327.309 1131.94 309.719C1147.54 302.159 1163.58 295.629 1179.92 289.889C1186.08 287.719 1192.29 285.659 1198.53 283.699C1218.26 277.509 1238.33 272.299 1258.47 267.639C1260.8 270.769 1263.02 274.039 1265.12 277.429C1265.78 278.499 1266.44 279.589 1267.07 280.689C1268.85 283.739 1270.54 286.879 1272.12 290.089C1272.69 291.259 1273.26 292.419 1273.8 293.599C1274.23 294.529 1274.65 295.459 1275.06 296.409C1276.32 299.249 1277.49 302.149 1278.59 305.079C1279.02 306.239 1279.44 307.399 1279.85 308.579C1280.71 311.069 1281.52 313.579 1282.27 316.119C1282.62 317.309 1282.96 318.499 1283.28 319.699C1283.98 322.259 1284.62 324.829 1285.19 327.429L1285.16 327.419Z" fill="url(#paint18_linear_26486_106250)"/>
<path style="mix-blend-mode:lighten" opacity="0.73" d="M1138.44 301.69C1132.8 301.1 1126.8 300.88 1121.34 302.67C1118.58 303.57 1108.02 309.56 1113.63 313.19C1115.11 314.15 1117.02 314.02 1118.78 313.88C1140.16 312.19 1161.79 313.76 1182.7 318.53C1184.78 319 1190.68 319.48 1188.61 315.56C1188.12 314.62 1187.24 313.96 1186.35 313.38C1180.46 309.5 1172.63 307.8 1165.82 306.24C1156.8 304.17 1147.65 302.65 1138.44 301.68V301.69Z" fill="url(#paint19_linear_26486_106250)"/>
<path d="M1167.65 341.019C1167.65 341.499 1167.68 341.959 1167.74 342.419C1168.21 345.849 1170.13 348.899 1172.36 351.559C1175.1 354.839 1178.34 357.679 1181.94 359.969C1184.26 361.449 1186.91 362.729 1189.64 362.409C1192.54 362.059 1194.95 359.839 1196.07 357.119C1196.33 356.479 1196.54 355.819 1196.65 355.139C1198.32 345.449 1182.27 327.299 1171.58 333.419C1168.99 334.919 1167.65 337.989 1167.64 341.009L1167.65 341.019Z" fill="url(#paint20_linear_26486_106250)"/>
<path d="M1193.86 352.258C1193.77 352.338 1193.67 352.408 1193.56 352.478C1192.62 353.078 1191.38 352.928 1190.33 352.538C1187.56 351.488 1183.67 347.068 1185.17 343.908C1186.47 341.158 1190.43 341.798 1192.29 343.568C1194.15 345.338 1196.46 350.178 1193.86 352.268V352.258Z" fill="url(#paint21_linear_26486_106250)"/>
<path style="mix-blend-mode:multiply" d="M1167.65 341.019C1169.4 338.809 1172.07 337.329 1174.9 337.139C1178.28 336.929 1181.55 338.459 1184.31 340.409C1189.98 344.419 1194.17 350.449 1196.08 357.119C1196.34 356.479 1196.55 355.819 1196.66 355.139C1198.33 345.449 1182.28 327.299 1171.59 333.419C1169 334.919 1167.66 337.989 1167.65 341.009V341.019Z" fill="url(#paint22_linear_26486_106250)"/>
<path d="M1223.08 315.619C1226.35 319.599 1230.36 322.969 1234.84 325.499C1237.78 327.159 1241.57 328.429 1244.39 326.579C1246.71 325.049 1247.3 322.069 1247.05 319.189C1246.99 318.349 1246.84 317.499 1246.64 316.699C1245.01 310.099 1240.51 303.069 1235.02 298.949C1229.81 295.029 1221.26 295.249 1218.99 302.309C1218.97 302.349 1218.95 302.399 1218.94 302.439C1217.53 307.029 1220.03 311.899 1223.08 315.609V315.619Z" fill="url(#paint23_linear_26486_106250)"/>
<path d="M1244.6 317.758C1244.51 317.838 1244.41 317.908 1244.3 317.978C1243.36 318.578 1242.12 318.428 1241.07 318.038C1238.3 316.988 1234.41 312.568 1235.91 309.408C1237.21 306.658 1241.17 307.298 1243.03 309.068C1244.89 310.838 1247.2 315.678 1244.6 317.768V317.758Z" fill="url(#paint24_linear_26486_106250)"/>
<path style="mix-blend-mode:multiply" d="M1218.99 302.319C1221.47 300.819 1224.62 300.319 1227.51 300.829C1231.72 301.569 1235.43 304.119 1238.5 307.089C1242.07 310.549 1244.98 314.679 1247.04 319.199C1246.98 318.359 1246.83 317.509 1246.63 316.709C1245 310.109 1240.5 303.079 1235.01 298.959C1229.8 295.039 1221.25 295.259 1218.98 302.319H1218.99Z" fill="url(#paint25_linear_26486_106250)"/>
<path d="M1146.88 433.269C1150.96 438.449 1155.24 443.469 1159.72 448.309C1177.23 467.229 1197.81 483.419 1220.87 495.019C1223.26 496.219 1225.97 497.409 1228.54 496.649C1231.45 495.789 1233.1 492.779 1234.39 490.029C1236.96 484.599 1239.4 479.109 1241.74 473.569C1242.01 472.929 1242.29 472.279 1242.55 471.629C1244.74 466.349 1246.83 461.029 1248.82 455.659C1250.19 451.969 1249.72 449.859 1248.26 448.649C1245.58 446.459 1239.58 447.229 1235.29 446.729C1224.16 445.439 1213.08 443.619 1202.11 441.299C1182.94 437.219 1164.5 431.159 1145.96 424.879C1138.14 422.229 1145.43 431.419 1146.88 433.259V433.269Z" fill="url(#paint26_linear_26486_106250)"/>
<path style="mix-blend-mode:lighten" opacity="0.73" d="M1213.43 299.999C1212.68 301.879 1211.69 303.709 1210.05 304.059C1205.37 305.059 1207.67 296.549 1207.99 294.489C1208.72 289.819 1209.78 285.199 1211.15 280.669C1212.9 274.889 1215.15 269.259 1217.88 263.869C1219.65 260.379 1222.77 251.859 1228.12 253.549C1231.61 254.649 1235.51 258.919 1234.4 262.819C1233.96 264.349 1232.99 265.669 1232.06 266.959C1227.62 273.109 1223.58 279.549 1219.95 286.209C1218.1 289.619 1216.35 293.089 1214.72 296.609C1214.32 297.469 1213.93 298.739 1213.44 299.979L1213.43 299.999Z" fill="url(#paint27_linear_26486_106250)"/>
<path style="mix-blend-mode:multiply" opacity="0.36" d="M1275.02 296.399C1148.61 328.169 1127.76 378.939 1058.25 410.639C1057.57 410.619 1056.88 410.599 1056.2 410.599C1053.23 410.579 1050.28 410.719 1047.34 411.069C1044.59 411.389 1041.86 411.909 1039.14 412.659C1036.67 409.979 1034.61 407.309 1032.94 404.619C1032.44 403.819 1031.97 402.999 1031.53 402.189C1029.4 398.239 1028.09 394.239 1027.46 390.119C1029.09 388.059 1030.75 386.029 1032.46 384.019C1033.44 382.849 1034.44 381.699 1035.46 380.549C1061.73 350.739 1095.62 327.309 1131.91 309.719C1147.51 302.159 1163.55 295.629 1179.89 289.889C1186.05 287.719 1192.26 285.659 1198.5 283.699C1218.23 277.509 1238.3 272.299 1258.44 267.639C1260.77 270.769 1262.99 274.039 1265.09 277.429C1265.75 278.499 1266.41 279.589 1267.04 280.689C1268.82 283.739 1270.51 286.879 1272.09 290.089C1272.66 291.259 1273.23 292.419 1273.77 293.599C1274.2 294.529 1274.62 295.459 1275.03 296.409L1275.02 296.399Z" fill="url(#paint28_linear_26486_106250)"/>
<path d="M1114.42 318.97C1136.74 319.7 1162.27 320.7 1182.21 311.12C1198.86 297.55 1216.08 283.49 1236.63 277.24C1254.1 271.92 1271.98 268.01 1289.53 262.96C1293.86 261.71 1295.04 256.09 1291.54 253.25C1283.16 246.43 1272.98 241.83 1262.34 240.25C1207.38 243.6 1154.34 271.13 1114.42 318.98V318.97Z" fill="url(#paint29_linear_26486_106250)"/>
<path d="M1071.27 213.339C1071.84 205.189 1077.56 197.639 1085.24 194.859C1092.92 192.089 1102.14 194.249 1107.79 200.139C1095.9 204.859 1084 209.579 1071.27 213.329V213.339Z" fill="url(#paint30_linear_26486_106250)"/>
<path style="mix-blend-mode:multiply" d="M1147.79 429.878C1154.67 434.708 1161.79 439.258 1169.1 443.408C1181.81 450.648 1195.04 457.048 1208.6 462.508C1215.43 465.268 1222.36 467.768 1229.39 469.948C1233.45 471.208 1237.58 472.508 1241.74 473.578C1242.01 472.938 1242.29 472.288 1242.55 471.638C1241.51 471.368 1240.47 471.088 1239.43 470.808C1235.52 469.728 1231.64 468.578 1227.77 467.338C1213.68 462.828 1199.76 457.648 1186.44 451.188C1173.2 444.768 1160.43 437.388 1148.14 429.288C1147.76 429.038 1147.43 429.638 1147.78 429.878H1147.79Z" fill="url(#paint31_linear_26486_106250)"/>
<path d="M1286.69 232.829C1286.35 234.799 1285.56 236.649 1284.43 238.289C1283.82 239.179 1283.12 239.999 1282.34 240.729C1282.17 240.899 1281.99 241.059 1281.82 241.219C1275.96 246.379 1268.37 247.479 1261.04 248.709C1233.95 253.239 1207.01 260.699 1183.24 274.459C1155.44 290.549 1089.15 369.169 1027.88 392.439C1007.48 372.419 996.729 352.769 987.189 327.099C985.209 321.769 985.419 315.879 987.709 310.679C995.879 292.179 1005.54 274.699 1017.16 259.039C1020.3 254.799 1023.58 250.699 1027.02 246.749C1043.02 228.319 1062.33 213.129 1085.89 202.799C1115.55 189.799 1212.98 181.539 1272.45 213.319C1280.06 217.389 1288.25 223.759 1286.7 232.839L1286.69 232.829Z" fill="url(#paint32_linear_26486_106250)"/>
<path style="mix-blend-mode:multiply" opacity="0.23" d="M1282.35 240.729C1282.18 240.899 1282 241.059 1281.83 241.219C1275.97 246.379 1268.38 247.479 1261.05 248.709C1233.96 253.239 1207.02 260.699 1183.25 274.459C1155.45 290.549 1089.16 369.169 1027.89 392.439C1007.49 372.419 996.741 352.769 987.201 327.099C985.221 321.769 985.431 315.879 987.721 310.679C995.891 292.179 1005.55 274.699 1017.17 259.039C1020.31 254.799 1023.59 250.699 1027.03 246.749C1026.2 253.939 1026.23 261.189 1027.44 268.359C1030.6 287.159 1043.39 305.219 1061.79 310.209C1081.71 315.599 1102.18 305.169 1119.94 294.659C1148.84 277.549 1177.94 258.909 1210.97 252.889C1229.6 249.499 1248.86 250.269 1267.28 245.919C1272.38 244.719 1277.5 242.989 1282.35 240.729Z" fill="url(#paint33_linear_26486_106250)"/>
<path d="M961.989 520.659C1003.63 588.619 1074.59 634.799 1151.92 651.339C1163.46 653.809 1175.12 655.559 1186.88 656.559C1198.98 657.579 1211.09 657.079 1223.17 657.869C1225.83 658.039 1226.84 662.379 1223.84 662.849C1203.08 666.149 1180.4 663.439 1159.77 660.279C1138.17 656.969 1117.12 651.179 1096.86 642.959C1059.54 627.829 1025.81 604.799 997.629 576.049C982.039 560.159 968.499 542.579 956.499 523.849C954.299 520.409 959.839 517.159 961.979 520.649L961.989 520.659Z" fill="url(#paint34_linear_26486_106250)"/>
<path style="mix-blend-mode:multiply" opacity="0.43" d="M831.501 984.56C848.241 1007.18 873.131 1023.65 900.501 1030.23C939.891 1039.69 981.601 1028.97 1021.63 1035.26C1043.78 1038.75 1064.78 1047.35 1086.54 1052.77C1090.04 1053.64 1093.64 1054.41 1097.28 1054.97C1106.44 1041.84 1115.47 1028.6 1124.42 1015.31C1049.12 1004.46 974.821 985.22 904.421 956.23C896.261 952.87 888.151 949.38 880.111 945.75C868.641 940.58 867.021 941.38 867.021 929.56C867.021 909.45 872.291 888.1 874.381 868.04C876.511 847.51 878.331 826.94 879.831 806.36C881.161 788.05 886.311 764.47 882.451 746.6C869.551 765.03 856.891 784.93 845.881 804.65C828.261 836.21 810.231 869.15 808.031 905.23C806.311 933.33 814.791 961.94 831.531 984.57L831.501 984.56Z" fill="url(#paint35_linear_26486_106250)"/>
<path d="M1088.45 1026.61C1116.36 1021.92 1144.27 1017.23 1172.18 1012.54C1175.32 1012.01 1178.59 1011.49 1181.63 1012.42C1184.67 1013.35 1187.39 1016.19 1187.04 1019.35C1186.73 1022.19 1184.22 1024.21 1181.85 1025.79C1173.5 1031.37 1164.29 1035.66 1154.64 1038.44C1132.19 1044.93 1109 1037.73 1088.45 1026.6V1026.61Z" fill="url(#paint36_linear_26486_106250)"/>
<path d="M1237.29 1069.97C1237.08 1072.23 1235.2 1074.03 1233.1 1074.84C1230.99 1075.65 1228.66 1075.66 1226.4 1075.65C1213.71 1075.62 1201.01 1075.57 1188.32 1075.54C1201.23 1081.16 1213.53 1088.18 1225.47 1095.62C1227.63 1096.97 1230.06 1099.06 1229.45 1101.54C1228.8 1104.19 1225.38 1104.79 1222.65 1104.8C1205.29 1104.86 1187.91 1102.47 1171.22 1097.7C1179.37 1101.09 1186.39 1107.55 1193.28 1113.06C1195.91 1115.16 1198.68 1118.32 1197.46 1121.46C1197.43 1121.52 1197.41 1121.59 1197.38 1121.65C1195.9 1125.02 1191.02 1124.96 1187.34 1124.26C1145.78 1116.46 1105.84 1101.61 1064.3 1093.81C1043.42 1089.89 1046.35 1088.24 1038 1085.35C1037.86 1085.3 1037.73 1085.26 1037.59 1085.21C1037.42 1085.16 1037.27 1085.1 1037.11 1085.04C1036.44 1084.81 1041.05 1065 1044.7 1049.96C1046.41 1042.88 1047.92 1036.86 1048.56 1034.44C1048.63 1034.17 1048.71 1033.89 1048.79 1033.62C1049.44 1031.38 1049.8 1029.27 1050.62 1027.62C1051.21 1026.43 1052.03 1025.5 1053.36 1024.92C1053.44 1024.88 1053.53 1024.84 1053.62 1024.81C1054.12 1024.62 1055.01 1024.57 1056.11 1024.61C1056.52 1024.63 1056.94 1024.66 1057.39 1024.69C1060.45 1024.91 1064.35 1025.51 1066.09 1025.43C1068.39 1025.33 1070.71 1025.25 1073.01 1025.17C1076.97 1025.04 1080.93 1024.94 1084.89 1024.85C1088.84 1024.78 1092.78 1024.73 1096.72 1024.72C1138.49 1024.53 1180.24 1027.57 1221.59 1033.45C1223.8 1033.77 1226.09 1034.09 1228.02 1035.19C1229.97 1036.3 1231.52 1038.38 1231.33 1040.61C1231.04 1043.93 1227.39 1045.74 1224.22 1046.73C1216.3 1049.18 1208.05 1050.56 1199.76 1050.83C1209.88 1053.67 1219.8 1058.46 1229.64 1062.16C1231.48 1062.85 1233.35 1063.58 1234.87 1064.84C1236.38 1066.1 1237.5 1068 1237.31 1069.97H1237.29Z" fill="url(#paint37_linear_26486_106250)"/>
<path style="mix-blend-mode:multiply" opacity="0.51" d="M1197.39 1121.65C1195.91 1125.02 1191.03 1124.96 1187.35 1124.26C1145.79 1116.46 1105.85 1101.61 1064.31 1093.81C1055.5 1091.1 1046.73 1088.28 1038.01 1085.35C1037.87 1085.3 1037.74 1085.26 1037.6 1085.21C1038.89 1074.38 1047.37 1065.79 1052.42 1056.02C1056.65 1047.82 1058.53 1038.41 1057.76 1029.22C1057.64 1027.74 1057.46 1026.21 1057.37 1024.69C1060.43 1024.91 1064.33 1025.51 1066.07 1025.43C1068.37 1025.33 1070.69 1025.25 1072.99 1025.17C1076.95 1025.04 1080.91 1024.94 1084.87 1024.85C1088.15 1051.36 1103.28 1075.95 1124.2 1092.71C1144.96 1109.34 1170.92 1118.65 1197.4 1121.64L1197.39 1121.65Z" fill="url(#paint38_linear_26486_106250)"/>
<path style="mix-blend-mode:multiply" opacity="0.32" d="M769.301 603.499C832.111 669.379 902.501 728.529 982.281 772.179C1059.44 814.399 1145.53 840.329 1233.13 843.029C1239.26 828.109 1243.52 812.639 1244.71 796.429C1246.08 777.759 1243.26 759.209 1239.15 740.859C1167.26 747.049 1093.84 734.919 1027.87 705.719C962.081 676.609 903.881 630.599 860.171 573.479C850.571 576.919 840.861 580.059 831.061 582.889C810.231 588.899 788.451 593.779 769.311 603.499H769.301Z" fill="url(#paint39_linear_26486_106250)"/>
<path style="mix-blend-mode:multiply" opacity="0.32" d="M671.141 783.879C804.791 891.339 961.601 968.659 1128.02 1009.96C1144.58 985.329 1160.93 960.549 1177.37 935.939C1002.94 895.619 838.191 813.889 700.641 699.289C690.291 727.249 680.461 755.459 671.141 783.879Z" fill="url(#paint40_linear_26486_106250)"/>
<path style="mix-blend-mode:multiply" opacity="0.32" d="M624.18 947.23C742.7 1039.45 874.32 1116.26 1017.05 1161.31C1036.8 1137.69 1055.57 1113.16 1073.76 1088.09C916.65 1047.05 769.26 969.09 647.02 862.17C638.86 890.36 631.25 918.73 624.18 947.22V947.23Z" fill="url(#paint41_linear_26486_106250)"/>
<path style="mix-blend-mode:multiply" opacity="0.32" d="M584.621 1142.91C665.991 1201.6 758.591 1244.64 855.841 1269.09H855.861C874.281 1269.94 892.741 1269.69 911.121 1268.3C934.451 1249 956.301 1228.25 977.011 1206.41C842.151 1175.11 714.331 1113.73 605.691 1027.91C597.661 1066.12 590.621 1104.48 584.621 1142.92V1142.91Z" fill="url(#paint42_linear_26486_106250)"/>
<path d="M671.141 783.869C671.141 783.869 671.121 783.889 671.121 783.909C671.121 783.889 671.141 783.859 671.141 783.859V783.879V783.869Z" fill="#F24336"/>
<path style="mix-blend-mode:multiply" opacity="0.69" d="M1172.73 1003.34C1179.25 1001.5 1185.51 997.179 1191.24 993.669C1197.12 990.069 1202.85 986.179 1208.32 981.969C1208.64 981.719 1208.97 981.459 1209.28 981.209C1207.76 983.129 1206.25 985.049 1204.74 986.979C1201.64 990.979 1197.97 995.009 1195.73 999.549C1194.96 1001.11 1196.87 1002.7 1198.18 1001.43C1202.22 997.519 1205.3 992.399 1208.75 987.969C1211.89 983.959 1215.09 980.009 1218.33 976.089C1219.46 974.719 1220.58 973.359 1221.71 971.999C1220.98 972.099 1220.24 972.199 1219.5 972.299C1219.68 970.879 1219.88 969.449 1220.06 968.029C1215.66 971.889 1211.13 975.589 1206.38 979.069C1200.86 983.109 1195.24 986.969 1189.39 990.509C1183.63 994.009 1176.99 996.639 1171.58 1000.61C1170.28 1001.56 1171 1003.83 1172.73 1003.34Z" fill="url(#paint43_linear_26486_106250)"/>
<path d="M1072.98 1025.18C1071.75 1031.46 1070.65 1037.76 1069.66 1044.09C1069.31 1046.28 1068.98 1048.47 1068.67 1050.66C1068.62 1050.97 1068.59 1051.26 1068.55 1051.55C1067.62 1058.06 1066.82 1064.6 1066.15 1071.15C1066.06 1071.95 1065.98 1072.74 1065.9 1073.54C1065.76 1074.89 1065.64 1076.25 1065.52 1077.6C1065.02 1083 1064.62 1088.41 1064.29 1093.83C1061.72 1093.66 1058.68 1093.52 1055.31 1093.39C1054.93 1093.37 1054.54 1093.36 1054.15 1093.34C1052.7 1093.29 1051.19 1093.23 1049.62 1093.19C1048.61 1093.16 1047.58 1093.13 1046.54 1093.1C1044.74 1093.05 1042.9 1092.99 1041.02 1092.94C1014.9 1092.27 981.381 1091.81 974.691 1089.56C977.281 1078.87 997.151 1005.01 1017.58 1011.91C1025.26 1014.5 1037.15 1017.63 1047.97 1020.2C1049.81 1020.64 1051.62 1021.06 1053.38 1021.46C1057.6 1022.41 1061.51 1023.26 1064.72 1023.89C1065.83 1024.12 1066.86 1024.31 1067.79 1024.48C1068.1 1024.54 1068.4 1024.59 1068.68 1024.64C1068.71 1024.64 1068.74 1024.66 1068.76 1024.66C1070.84 1025.02 1072.31 1025.21 1072.95 1025.19L1072.98 1025.18Z" fill="#FFAB67"/>
<g style="mix-blend-mode:multiply" opacity="0.88">
<path d="M1069.67 1044.08C1069.32 1046.27 1068.99 1048.46 1068.68 1050.65C1068.63 1050.96 1068.6 1051.25 1068.56 1051.54C1067.63 1058.05 1066.83 1064.59 1066.16 1071.14C1066.07 1071.94 1065.99 1072.73 1065.91 1073.53C1065.77 1074.88 1065.65 1076.24 1065.53 1077.59C1063.33 1078.98 1061.15 1079.91 1059.44 1080.45C1058.96 1083.26 1056.73 1088.76 1055.33 1093.38C1054.95 1093.36 1054.56 1093.35 1054.17 1093.33C1052.72 1093.28 1051.21 1093.22 1049.64 1093.18C1048.63 1093.15 1047.6 1093.12 1046.56 1093.09C1048.82 1069.39 1051.09 1045.69 1053.36 1021.98C1053.37 1021.81 1053.4 1021.63 1053.42 1021.45C1057.64 1022.4 1061.55 1023.25 1064.76 1023.88C1065.87 1024.11 1066.9 1024.3 1067.83 1024.47C1068.14 1024.53 1068.44 1024.58 1068.72 1024.63C1068.75 1024.63 1068.78 1024.65 1068.8 1024.65C1069.28 1024.75 1069.74 1024.84 1070.19 1024.93C1068.79 1033.03 1067.57 1041.94 1067.57 1041.94C1067.57 1041.94 1068.5 1042.75 1069.67 1044.08Z" fill="#FFAB67"/>
</g>
<g style="mix-blend-mode:multiply" opacity="0.65">
<path d="M1030.66 1066.78C1031.71 1071.23 1034.06 1075.36 1037.34 1078.54C1037.61 1075.78 1038.44 1073.07 1039.76 1070.64C1036.65 1067.94 1034.42 1064.25 1033.47 1060.24C1032.74 1062.32 1031.68 1064.27 1030.65 1066.78H1030.66Z" fill="#FFAB67"/>
</g>
<path d="M1069.31 1024.12C1068.51 1027.19 1067.73 1030.28 1066.97 1033.37C1066.88 1033.73 1066.79 1034.1 1066.7 1034.47C1066.5 1035.26 1066.32 1036.05 1066.13 1036.85C1065.87 1037.93 1065.6 1039.01 1065.36 1040.09C1064.99 1041.61 1064.63 1043.13 1064.28 1044.65C1063.02 1050.03 1061.84 1055.43 1060.72 1060.84C1060.31 1062.79 1059.91 1064.73 1059.52 1066.69C1058.92 1069.67 1058.33 1072.67 1057.78 1075.66C1057.46 1077.33 1057.15 1078.99 1056.86 1080.66C1056.65 1081.77 1056.45 1082.87 1056.26 1083.98C1056.18 1084.39 1056.11 1084.81 1056.03 1085.22C1055.96 1085.59 1055.89 1085.96 1055.83 1086.33C1055.37 1088.94 1054.93 1091.55 1054.5 1094.17C1054.45 1094.49 1054.39 1094.81 1054.34 1095.12C1053.76 1095.12 1053.2 1095.12 1052.64 1095.1H1052.6C1051.56 1095.1 1050.54 1095.07 1049.56 1095.03C1049.18 1095.01 1048.79 1095.01 1048.42 1094.98C1046.95 1094.92 1045.53 1094.84 1044.1 1094.73C1043.72 1094.71 1043.35 1094.68 1042.96 1094.65C1041.33 1094.52 1039.69 1094.37 1037.99 1094.21C1037.62 1094.17 1037.25 1094.13 1036.87 1094.1C1036.22 1094.03 1035.55 1093.96 1034.88 1093.89C1034.08 1093.81 1033.28 1093.72 1032.44 1093.63C1032.83 1091.47 1033.22 1089.3 1033.61 1087.14C1033.68 1086.77 1033.75 1086.4 1033.81 1086.03C1034.37 1082.88 1034.94 1079.75 1035.52 1076.61C1035.55 1076.45 1035.57 1076.3 1035.6 1076.15C1035.64 1075.93 1035.68 1075.71 1035.72 1075.5C1036.1 1073.38 1036.49 1071.27 1036.89 1069.16C1038.45 1060.7 1040.03 1052.28 1041.69 1043.87C1042.16 1041.45 1042.64 1039.02 1043.14 1036.6C1043.14 1036.58 1043.14 1036.56 1043.14 1036.55C1043.22 1036.18 1043.29 1035.81 1043.37 1035.44C1043.97 1032.48 1044.58 1029.52 1045.21 1026.55C1045.29 1026.18 1045.36 1025.81 1045.44 1025.44C1045.82 1023.59 1046.22 1021.73 1046.63 1019.88C1046.72 1019.46 1046.81 1019.05 1046.9 1018.62C1048.7 1018.94 1050.36 1019.27 1051.97 1019.62C1052.35 1019.7 1052.71 1019.79 1053.08 1019.87C1054.56 1020.21 1056.02 1020.57 1057.53 1020.96C1057.89 1021.05 1058.25 1021.15 1058.62 1021.25C1060.07 1021.63 1061.58 1022.03 1063.22 1022.48C1063.57 1022.58 1063.93 1022.68 1064.3 1022.78C1065.84 1023.19 1067.49 1023.64 1069.3 1024.13L1069.31 1024.12Z" fill="url(#paint44_linear_26486_106250)"/>
<g style="mix-blend-mode:multiply" opacity="0.51">
<path d="M1053.09 1019.87C1052.27 1023.73 1051.47 1027.59 1050.66 1031.46C1050.58 1031.83 1050.5 1032.2 1050.43 1032.57C1047.05 1048.79 1043.74 1065.11 1040.51 1081.39C1040.43 1081.77 1040.37 1082.13 1040.29 1082.5C1039.64 1085.78 1038.99 1089.08 1038.35 1092.36C1038.27 1092.74 1038.2 1093.1 1038.13 1093.47C1038.08 1093.72 1038.02 1093.97 1037.98 1094.21C1037.61 1094.17 1037.24 1094.13 1036.86 1094.1C1037.26 1092.03 1037.67 1089.94 1038.09 1087.86C1038.16 1087.49 1038.23 1087.12 1038.31 1086.75C1038.93 1083.62 1039.55 1080.47 1040.17 1077.32C1042.83 1063.96 1045.54 1050.57 1048.3 1037.25C1048.38 1036.88 1048.45 1036.51 1048.53 1036.14C1049.14 1033.22 1049.75 1030.29 1050.35 1027.37C1050.43 1027 1050.51 1026.63 1050.58 1026.26C1051.05 1024.04 1051.51 1021.82 1051.98 1019.61C1052.36 1019.69 1052.72 1019.78 1053.09 1019.86V1019.87Z" fill="#C15300"/>
<path d="M1051.08 1026.35L1050.9 1027.46L1050.35 1027.37L1045.22 1026.54C1045.3 1026.17 1045.37 1025.8 1045.45 1025.43L1050.58 1026.26L1051.08 1026.34V1026.35Z" fill="#C15300"/>
<path d="M1055.33 1033.59C1053.55 1033.41 1051.78 1033.03 1050.08 1032.47L1050.43 1031.4C1052.06 1031.93 1053.74 1032.29 1055.44 1032.47L1055.32 1033.59H1055.33Z" fill="#C15300"/>
<path d="M1062.54 1027.11C1060.74 1026.82 1058.94 1026.41 1057.19 1025.9L1057.5 1024.82C1059.21 1025.32 1060.96 1025.71 1062.72 1026L1062.54 1027.11Z" fill="#C15300"/>
<path d="M1048.64 1036.16L1048.49 1037.27L1048.3 1037.25L1043.14 1036.55C1043.22 1036.18 1043.29 1035.81 1043.37 1035.44L1048.53 1036.14L1048.64 1036.16Z" fill="#C15300"/>
<path d="M1066.97 1033.37C1066.88 1033.73 1066.79 1034.1 1066.7 1034.47C1065.08 1034.15 1063.45 1033.75 1061.87 1033.27C1061.84 1033.27 1061.81 1033.26 1061.78 1033.25L1062.1 1032.17H1062.12C1063.71 1032.64 1065.34 1033.04 1066.98 1033.36L1066.97 1033.37Z" fill="#C15300"/>
<path d="M1055.31 1036.81L1055.05 1037.91L1059.78 1039.06L1060.05 1037.96L1055.31 1036.81Z" fill="#C15300"/>
<path d="M1040.34 1076.21L1040.17 1077.32L1035.52 1076.61C1035.59 1076.23 1035.66 1075.87 1035.72 1075.5L1040.34 1076.21Z" fill="#C15300"/>
<path d="M1040.4 1081.45L1040.2 1082.56L1045.53 1083.52L1045.73 1082.41L1040.4 1081.45Z" fill="#C15300"/>
<path d="M1038.64 1086.8L1038.46 1087.92L1038.08 1087.86L1033.6 1087.15C1033.67 1086.78 1033.74 1086.41 1033.8 1086.04L1038.3 1086.75L1038.64 1086.8Z" fill="#C15300"/>
<path d="M1038.27 1092.37L1038.12 1093.49L1043.43 1094.18L1043.57 1093.06L1038.27 1092.37Z" fill="#C15300"/>
<path d="M1044.99 1087.84L1044.85 1088.96L1049.77 1089.59L1049.91 1088.47L1044.99 1087.84Z" fill="#C15300"/>
<path d="M1046.78 1078.28L1046.56 1079.39L1051.01 1080.26L1051.22 1079.15L1046.78 1078.28Z" fill="#C15300"/>
<path d="M1056.02 1085.2C1055.95 1085.57 1055.88 1085.94 1055.82 1086.31L1051.23 1085.46L1050.82 1085.38L1051.03 1084.27L1051.43 1084.35L1056.02 1085.2Z" fill="#C15300"/>
<path d="M1054.49 1094.15C1054.44 1094.47 1054.38 1094.79 1054.33 1095.1C1053.75 1095.1 1053.19 1095.1 1052.63 1095.09H1052.59C1051.59 1094.96 1050.6 1094.8 1049.61 1094.62C1049.55 1094.6 1049.48 1094.6 1049.42 1094.58L1049.63 1093.47C1049.68 1093.47 1049.74 1093.49 1049.8 1093.5C1051.35 1093.79 1052.91 1094 1054.48 1094.14L1054.49 1094.15Z" fill="#C15300"/>
<path d="M1058.63 1021.25L1057.9 1024.93L1057.68 1026.04L1055.54 1036.88L1055.32 1037.99L1047.31 1078.44L1047.09 1079.55L1045.44 1087.91L1045.21 1089.02L1044.08 1094.75C1043.7 1094.73 1043.33 1094.7 1042.94 1094.67L1043.05 1094.13L1043.27 1093.02L1045.18 1083.41L1045.4 1082.3L1055.04 1033.59L1055.27 1032.48L1057.54 1021C1057.9 1021.09 1058.26 1021.19 1058.63 1021.29V1021.25Z" fill="#C15300"/>
<path d="M1064.31 1022.78C1063.57 1025.91 1062.84 1029.04 1062.12 1032.18C1062.04 1032.54 1061.95 1032.9 1061.87 1033.27C1058.01 1050.18 1054.52 1067.27 1051.44 1084.35C1051.37 1084.72 1051.3 1085.09 1051.24 1085.46C1050.76 1088.14 1050.29 1090.83 1049.82 1093.51C1049.76 1093.88 1049.69 1094.25 1049.63 1094.62C1049.61 1094.75 1049.58 1094.88 1049.56 1095.02C1049.18 1095 1048.79 1095 1048.42 1094.97C1048.74 1093.15 1049.04 1091.34 1049.37 1089.52C1049.44 1089.14 1049.5 1088.78 1049.57 1088.41C1050.05 1085.7 1050.54 1083.01 1051.04 1080.3C1051.11 1079.93 1051.18 1079.56 1051.25 1079.19C1053.73 1065.75 1056.47 1052.32 1059.44 1038.98C1059.52 1038.61 1059.61 1038.24 1059.69 1037.87C1060.5 1034.25 1061.32 1030.64 1062.17 1027.04C1062.25 1026.67 1062.34 1026.3 1062.43 1025.93C1062.7 1024.77 1062.97 1023.62 1063.26 1022.46C1063.61 1022.56 1063.97 1022.66 1064.34 1022.76L1064.31 1022.78Z" fill="#C15300"/>
</g>
<g style="mix-blend-mode:multiply" opacity="0.35">
<path d="M1060.72 1060.83C1060.19 1060.97 1059.67 1061.15 1059.16 1061.38C1059.28 1063.15 1059.39 1064.91 1059.51 1066.68C1058.35 1072.42 1057.26 1078.19 1056.24 1083.96C1051.75 1083.13 1046.98 1083.81 1042.94 1085.95C1039.56 1087.75 1036.75 1090.56 1034.87 1093.89C1034.07 1093.81 1033.27 1093.72 1032.43 1093.63C1032.82 1091.47 1033.21 1089.3 1033.6 1087.14C1033.67 1086.77 1033.74 1086.4 1033.8 1086.03C1034.36 1082.88 1034.94 1079.75 1035.51 1076.61C1035.58 1076.23 1035.65 1075.87 1035.71 1075.5C1038.09 1062.44 1040.52 1049.51 1043.14 1036.55C1043.22 1036.18 1043.29 1035.81 1043.37 1035.44C1043.97 1032.48 1044.58 1029.52 1045.21 1026.55C1045.29 1026.18 1045.36 1025.81 1045.44 1025.44C1045.82 1023.59 1046.22 1021.73 1046.63 1019.88C1047.55 1023.12 1049.46 1026.18 1051.88 1028.53C1055.85 1032.39 1060.95 1034.76 1066.12 1036.84C1064.18 1044.8 1062.38 1052.8 1060.71 1060.83H1060.72Z" fill="#E17400"/>
</g>
<g style="mix-blend-mode:multiply">
<path d="M1057.77 1075.65C1057.45 1077.32 1057.14 1078.98 1056.85 1080.65C1053.36 1081.53 1049.68 1081.65 1046.14 1080.97C1042.31 1080.23 1038.68 1078.56 1035.61 1076.17C1035.65 1075.95 1035.69 1075.73 1035.73 1075.52C1036.11 1073.4 1036.5 1071.29 1036.9 1069.18C1037.84 1069.64 1038.74 1070.14 1039.56 1070.78C1040.51 1071.52 1041.31 1072.44 1042.23 1073.22C1044.32 1074.97 1046.99 1075.96 1049.69 1076.29C1052.4 1076.62 1055.13 1076.31 1057.78 1075.67L1057.77 1075.65Z" fill="#E17400"/>
</g>
<g style="mix-blend-mode:multiply">
<path d="M1065.35 1040.08C1064.98 1041.6 1064.62 1043.12 1064.27 1044.64C1057.62 1040.37 1048.6 1040.06 1041.68 1043.87C1042.15 1041.45 1042.63 1039.02 1043.13 1036.6C1046.63 1034.88 1050.66 1034.22 1054.53 1034.78C1058.57 1035.36 1062.39 1037.26 1065.35 1040.08Z" fill="#E17400"/>
</g>
<path d="M1071.91 1058.21C1071.91 1069.83 1062.49 1079.25 1050.87 1079.25C1047.65 1079.25 1044.59 1078.52 1041.85 1077.22C1040.47 1076.57 1039.17 1075.76 1037.98 1074.83C1037.5 1074.46 1037.03 1074.07 1036.59 1073.66C1034.24 1071.49 1032.4 1068.8 1031.24 1065.77C1030.33 1063.42 1029.83 1060.88 1029.83 1058.22C1029.83 1046.6 1039.26 1037.18 1050.87 1037.18C1055.4 1037.18 1059.59 1038.61 1063.02 1041.04C1064.75 1042.26 1066.28 1043.74 1067.57 1045.42C1068.04 1046.03 1068.47 1046.66 1068.87 1047.32C1069.09 1047.67 1069.3 1048.04 1069.49 1048.42C1071.04 1051.34 1071.91 1054.68 1071.91 1058.22V1058.21Z" fill="url(#paint45_linear_26486_106250)"/>
<path opacity="0.52" d="M1065.7 1073.13C1068.67 1069.51 1070.44 1064.88 1070.44 1059.83C1070.44 1056.29 1069.56 1052.95 1068.02 1050.03C1067.82 1049.65 1067.61 1049.29 1067.4 1048.93C1067 1048.27 1066.56 1047.64 1066.1 1047.03C1064.81 1045.35 1063.28 1043.87 1061.55 1042.65C1058.11 1040.21 1053.93 1038.79 1049.4 1038.79C1043.63 1038.79 1038.39 1041.11 1034.59 1044.89C1038.45 1040.18 1044.31 1037.18 1050.87 1037.18C1055.4 1037.18 1059.59 1038.61 1063.02 1041.04C1064.75 1042.26 1066.28 1043.74 1067.57 1045.42C1068.04 1046.03 1068.47 1046.66 1068.87 1047.32C1069.09 1047.67 1069.3 1048.04 1069.49 1048.42C1071.04 1051.34 1071.91 1054.68 1071.91 1058.22C1071.91 1064.05 1069.53 1069.33 1065.7 1073.13Z" fill="url(#paint46_linear_26486_106250)"/>
<path opacity="0.54" d="M1067.56 1045.41L1036.58 1073.66C1034.23 1071.49 1032.39 1068.8 1031.23 1065.77C1041.62 1057.26 1052.22 1049.01 1063.01 1041.04C1064.74 1042.26 1066.27 1043.74 1067.56 1045.42V1045.41Z" fill="url(#paint47_linear_26486_106250)"/>
<path opacity="0.54" d="M1069.49 1048.41L1041.85 1077.22C1040.47 1076.57 1039.17 1075.76 1037.98 1074.83C1048.05 1065.4 1058.34 1056.22 1068.87 1047.31C1069.09 1047.66 1069.3 1048.03 1069.49 1048.41Z" fill="url(#paint48_linear_26486_106250)"/>
<path d="M1066.95 1058.21C1066.95 1062.55 1065.24 1066.47 1062.45 1069.36C1059.53 1072.4 1055.42 1074.29 1050.87 1074.29C1041.99 1074.29 1034.8 1067.09 1034.8 1058.21C1034.8 1052.17 1038.13 1046.9 1043.06 1044.16C1045.38 1042.87 1048.04 1042.14 1050.87 1042.14C1059.76 1042.14 1066.95 1049.33 1066.95 1058.21Z" fill="url(#paint49_linear_26486_106250)"/>
<path style="mix-blend-mode:multiply" opacity="0.2" d="M1062.44 1069.36C1059.52 1072.4 1055.41 1074.29 1050.86 1074.29C1041.98 1074.29 1034.79 1067.09 1034.79 1058.21C1034.79 1052.17 1038.12 1046.9 1043.05 1044.16C1042.1 1047.87 1041.83 1051.76 1042.58 1055.5C1043.6 1060.63 1046.65 1065.47 1051.21 1068.05C1054.58 1069.96 1058.76 1070.46 1062.44 1069.36Z" fill="url(#paint50_linear_26486_106250)"/>
<path d="M1050.87 1074.29C1059.75 1074.29 1066.95 1067.09 1066.95 1058.21C1066.95 1049.33 1059.75 1042.13 1050.87 1042.13C1041.99 1042.13 1034.79 1049.33 1034.79 1058.21C1034.79 1067.09 1041.99 1074.29 1050.87 1074.29Z" stroke="#F59B13" stroke-width="1.13" stroke-miterlimit="10"/>
<path d="M1050.87 1059.35C1051.5 1059.35 1052.01 1058.84 1052.01 1058.21C1052.01 1057.58 1051.5 1057.07 1050.87 1057.07C1050.24 1057.07 1049.73 1057.58 1049.73 1058.21C1049.73 1058.84 1050.24 1059.35 1050.87 1059.35Z" fill="#FFFAF4"/>
<path d="M1048.57 1059.87L1059.94 1052.14" stroke="#FFF3EE" stroke-width="1.5" stroke-linecap="round" stroke-linejoin="round"/>
<path d="M1052.53 1060.41L1047.17 1053.29" stroke="#FFF3EE" stroke-width="1.5" stroke-linecap="round" stroke-linejoin="round"/>
<path d="M1053.62 1045.92L1052.95 1049.11" stroke="#FFF3EE" stroke-width="1.5" stroke-linecap="round" stroke-linejoin="round"/>
<path d="M1049.1 1067.33L1048.42 1070.51" stroke="#FFF3EE" stroke-width="1.5" stroke-linecap="round" stroke-linejoin="round"/>
<path d="M1063.31 1060.82L1060.12 1060.14" stroke="#FFF3EE" stroke-width="1.5" stroke-linecap="round" stroke-linejoin="round"/>
<path d="M1041.91 1056.3L1038.73 1055.62" stroke="#FFF3EE" stroke-width="1.5" stroke-linecap="round" stroke-linejoin="round"/>
<path d="M1042.1 1013.08C1036.79 1052.03 1030.06 1079.03 1026.31 1091.83C1025.17 1095.77 1024.3 1098.36 1023.84 1099.54C1007.9 1098.78 997.811 1099.84 953.241 1097.27C933.031 1096.1 905.751 1094.2 867.601 1091.03C825.741 1085.84 783.921 1079.73 742.261 1073.72C717.751 1070.18 693.281 1066.67 668.871 1063.4C671.561 1039.68 674.251 1015.95 676.941 992.229C680.541 960.509 684.131 928.789 687.731 897.069C690.921 868.819 694.131 840.569 697.331 812.309C697.571 810.209 697.801 808.089 698.051 805.979C701.001 779.929 704.111 753.389 712.331 728.669C713.061 726.469 713.821 724.289 714.651 722.119C716.741 716.509 719.151 711.009 721.901 705.639C737.691 674.869 767.871 649.059 802.441 648.609C842.851 648.109 877.271 683.109 887.571 722.169C892.361 740.319 892.991 759.029 890.931 777.689C888.581 799.149 882.661 820.549 875.471 840.939C874.331 844.159 873.171 847.369 871.971 850.579C862.681 875.559 851.951 900.099 843.821 925.379C840.761 934.869 838.081 944.469 835.981 954.229C835.891 954.599 835.811 954.959 835.741 955.329C836.281 955.479 836.821 955.619 837.371 955.769C838.211 955.999 839.051 956.239 839.901 956.459C851.301 959.599 862.731 962.739 874.171 965.889C886.231 969.209 898.301 972.529 910.371 975.859C932.651 981.989 954.961 988.129 977.241 994.269C977.501 994.349 977.771 994.409 978.061 994.489C995.101 999.219 1025.54 1008.51 1042.11 1013.07L1042.1 1013.08Z" fill="url(#paint51_linear_26486_106250)"/>
<path style="mix-blend-mode:multiply" opacity="0.32" d="M697.328 812.31C752.648 835.93 811.878 848.43 871.968 850.59C873.168 847.38 874.328 844.18 875.468 840.95C882.648 820.55 888.568 799.16 890.928 777.7C828.958 773.31 767.858 756.54 712.328 728.67C704.108 753.39 700.998 779.93 698.048 805.98C697.808 808.09 697.568 810.2 697.328 812.31Z" fill="url(#paint52_linear_26486_106250)"/>
<path style="mix-blend-mode:multiply" opacity="0.32" d="M837.369 955.779C836.819 955.629 836.279 955.489 835.739 955.329C837.879 945.189 840.649 935.229 843.829 925.379C790.609 926.249 737.239 916.579 687.739 897.059C684.149 928.779 680.559 960.499 676.949 992.219C731.679 987.509 784.809 972.139 837.369 955.779Z" fill="url(#paint53_linear_26486_106250)"/>
<path style="mix-blend-mode:multiply" opacity="0.32" d="M742.27 1073.72C783.94 1079.73 825.749 1085.84 867.609 1091.03H867.62C889.02 1055.92 903.49 1016.4 910.37 975.859C898.29 972.529 886.219 969.209 874.159 965.889C835.899 1008.15 791.27 1044.62 742.27 1073.71V1073.72Z" fill="url(#paint54_linear_26486_106250)"/>
<path style="mix-blend-mode:multiply" opacity="0.32" d="M1042.1 1013.08C1035.15 1063.99 1025.78 1094.51 1023.85 1099.54C1007.91 1098.78 997.82 1099.84 953.25 1097.27C954.92 1091.58 956.53 1085.87 958.08 1080.15C965.79 1051.84 972.17 1023.17 977.23 994.279C977.49 994.359 977.76 994.419 978.05 994.499C995.09 999.229 1025.53 1008.52 1042.1 1013.08Z" fill="url(#paint55_linear_26486_106250)"/>
<path style="mix-blend-mode:multiply" opacity="0.69" d="M768.17 981.449C783.1 979.499 797.79 973.799 811.78 968.379C814.93 967.159 818.05 965.889 821.16 964.579C817.05 967.159 812.94 969.729 808.73 972.089C798.01 978.099 786.72 983.189 776.33 989.729C775.52 990.239 776.04 991.579 776.99 991.289C788.87 987.799 800.02 981.619 810.73 975.519C820.65 969.869 831.03 964.119 839.68 956.569C839.75 956.539 839.83 956.509 839.9 956.469C839.06 956.249 838.22 956.009 837.37 955.779C836.82 955.629 836.28 955.489 835.74 955.329C835.82 954.959 835.89 954.599 835.98 954.229C834.56 954.969 833.17 955.679 831.82 956.299C824.65 959.579 817.38 962.619 810.02 965.459C796.18 970.799 781.7 974.389 767.97 979.929C767.25 980.219 767.25 981.539 768.17 981.429V981.449Z" fill="url(#paint56_linear_26486_106250)"/>
<path style="mix-blend-mode:multiply" opacity="0.69" d="M825.148 1275.84C823.048 1276.35 821.158 1277.66 819.158 1278.51C817.838 1279.27 816.248 1279.78 815.158 1280.86C813.858 1282.41 815.868 1284.67 817.578 1283.62C819.708 1282.37 821.948 1281.31 824.178 1280.24C824.968 1279.77 826.038 1279.6 826.618 1278.85C827.618 1277.71 826.638 1275.79 825.138 1275.83L825.148 1275.84Z" fill="url(#paint57_linear_26486_106250)"/>
<path style="mix-blend-mode:multiply" opacity="0.83" d="M1072.8 223.929C1072.64 223.329 1072.16 222.879 1071.57 222.699C1069.66 222.269 1069.09 224.469 1067.7 226.029C1066.51 227.389 1062.99 232.879 1061.14 235.829C1050.86 251.899 1042.97 269.469 1037.86 287.849C1032.76 305.659 1029.89 322.279 1028.96 340.229C1028.67 346.379 1028.63 352.539 1029 358.689C1029.16 360.979 1029.36 363.279 1029.69 365.549C1029.91 366.539 1029.87 367.669 1030.42 368.539C1031.31 369.749 1033.35 368.789 1032.92 367.299C1030.9 355.239 1031.76 339.759 1033.25 326.349C1036.59 299.539 1044.91 270.429 1058.91 246.419C1062.29 240.679 1065.83 235.029 1069.63 229.559C1070.43 228.399 1071.19 227.199 1072.04 226.069C1072.53 225.449 1073.06 224.759 1072.8 223.929Z" fill="url(#paint58_linear_26486_106250)"/>
<path style="mix-blend-mode:multiply" opacity="0.83" d="M1119.34 312.569C1118.84 311.649 1118.34 310.729 1117.85 309.809C1108.76 292.849 1102.08 276.579 1096.51 258.009C1093.04 246.329 1090.3 234.429 1088.09 222.449C1087.86 221.149 1087.55 219.129 1087.53 218.959C1087.49 218.469 1087.46 217.949 1087.08 217.599C1086.25 216.719 1084.62 217.369 1084.66 218.599C1089.66 252.159 1100.72 284.839 1117.09 314.559C1117.68 315.649 1119.48 315.439 1119.77 314.209C1119.94 313.609 1119.65 313.069 1119.34 312.569Z" fill="url(#paint59_linear_26486_106250)"/>
<path style="mix-blend-mode:multiply" opacity="0.43" d="M1026.31 1091.83C1025.17 1095.77 1024.3 1098.36 1023.84 1099.54C1007.9 1098.78 997.811 1099.84 953.241 1097.27C933.031 1096.1 905.751 1094.2 867.601 1091.03C825.741 1085.84 783.921 1079.73 742.261 1073.72C717.751 1070.18 693.281 1066.67 668.871 1063.4C671.561 1039.68 674.251 1015.95 676.941 992.229C680.541 960.509 684.131 928.789 687.731 897.069C690.921 868.819 694.131 840.569 697.331 812.309C697.571 810.209 697.801 808.089 698.051 805.979C701.001 779.929 704.111 753.389 712.331 728.669C713.061 726.469 713.821 724.289 714.651 722.119C704.951 821.959 705.701 924.339 720.121 1022.89C798.531 1045.55 877.951 1064.67 958.091 1080.15C970.221 1082.5 1002.83 1087.91 1026.32 1091.83H1026.31Z" fill="url(#paint60_linear_26486_106250)"/>
<path style="mix-blend-mode:multiply" opacity="0.43" d="M580.52 1170.32C659.81 1228.92 757.31 1264.6 855.84 1269.09H855.859C874.28 1269.94 892.74 1269.69 911.12 1268.3C934.449 1249 956.3 1228.25 977.01 1206.41C981.61 1201.56 986.15 1196.66 990.64 1191.71C897.84 1250.25 642.37 1231.68 616.34 1032.52C613.82 1013.2 616.66 993.549 617.7 974.059C613.48 991.969 609.48 1009.92 605.69 1027.92C597.66 1066.13 590.62 1104.49 584.62 1142.93C583.19 1152.07 581.83 1161.21 580.52 1170.34V1170.32Z" fill="url(#paint61_linear_26486_106250)"/>
<path d="M925.311 1628.31C922.081 1636.53 918.191 1644.49 913.701 1652.11C912.651 1653.9 911.561 1655.67 910.431 1657.42C887.521 1660.71 864.151 1657.33 843.301 1648.13C843.831 1636.64 846.551 1625.79 850.581 1615.44C856.011 1613.95 860.681 1613.86 864.931 1614.62C865.921 1614.79 866.881 1615.02 867.831 1615.27C872.851 1616.65 877.531 1619.04 882.351 1621.04C895.891 1626.64 910.701 1629.15 925.321 1628.32L925.311 1628.31Z" fill="url(#paint62_linear_26486_106250)"/>
<path d="M1004.51 1460.22C994.278 1511.64 969.878 1558.78 945.768 1605.12C940.058 1616.1 933.958 1627.53 924.098 1634.74C923.738 1635 923.378 1635.25 923.008 1635.51C912.508 1642.66 896.498 1643.16 888.508 1631.63C874.288 1632.34 857.868 1632.13 848.708 1621C841.378 1612.1 841.428 1599.25 842.378 1587.67C845.418 1550.77 853.948 1514.35 867.768 1480.97C835.748 1454.82 807.278 1424.14 783.428 1390.08L756.168 1243.12L919.178 1259.22C925.948 1269.97 932.428 1280.95 938.568 1292.14C967.528 1344.77 989.638 1401.99 1004.5 1460.22H1004.51Z" fill="url(#paint63_linear_26486_106250)"/>
<path d="M735.271 1650.61C733.241 1656.49 730.591 1662.17 727.401 1667.55C725.141 1671.35 722.611 1674.98 719.831 1678.44C694.471 1677.6 669.711 1670.21 648.301 1657.59C645.741 1656.09 643.231 1654.51 640.781 1652.86C644.351 1643.17 648.421 1634.89 652.931 1626.83C664.231 1626.16 669.311 1626.83 673.621 1628.6C677.921 1630.38 681.671 1633.17 685.571 1635.65C700.231 1644.99 717.681 1650.24 735.281 1650.61H735.271Z" fill="url(#paint64_linear_26486_106250)"/>
<path style="mix-blend-mode:multiply" opacity="0.56" d="M924.098 1634.74C923.738 1635 923.378 1635.25 923.008 1635.51C912.508 1642.66 896.498 1643.16 888.508 1631.63C874.288 1632.34 857.868 1632.13 848.708 1621C841.378 1612.1 841.428 1599.25 842.378 1587.67C845.418 1550.77 853.948 1514.35 867.768 1480.97C835.748 1454.82 807.278 1424.14 783.428 1390.08L756.168 1243.12L919.178 1259.22C925.948 1269.97 932.428 1280.95 938.568 1292.14C917.188 1314.27 898.178 1338.97 888.188 1368.1C875.988 1403.67 880.028 1447.23 907.588 1474.01C898.298 1495.04 888.918 1516.3 884.688 1538.96C880.458 1561.61 881.778 1586.15 892.958 1606.19C899.908 1618.66 911.188 1628.93 924.088 1634.74H924.098Z" fill="url(#paint65_linear_26486_106250)"/>
<path d="M797.45 1529.01C780.79 1563.61 774.66 1603.38 753.98 1635.46C752.78 1637.33 751.52 1639.17 750.21 1640.99C745.33 1647.76 739.39 1654.28 731.51 1657.05C725.07 1659.31 717.91 1658.82 711.35 1656.92C704.79 1655.02 698.7 1651.79 692.66 1648.58C686.24 1650.26 679.87 1647.81 675.44 1643.35C664.05 1644.25 651.93 1635.9 648.17 1624.27C645.06 1614.63 647.37 1604.17 649.7 1594.31C657.86 1559.74 666.01 1525.17 674.16 1490.6C627.21 1438.83 592.27 1369.61 569.5 1303.44C566.8 1265.66 569.7 1231.27 578.48 1196.17L601.19 1181.32L609.68 1184.69L778.26 1251.46C794.24 1329.99 805.39 1409.5 811.63 1489.39C812.24 1501.77 803.92 1515.57 797.44 1529.01H797.45Z" fill="url(#paint66_linear_26486_106250)"/>
<path style="mix-blend-mode:multiply" opacity="0.69" d="M718.579 1438.53C713.729 1426.54 708.719 1414.62 703.429 1402.81C698.819 1392.16 694.699 1381.73 689.489 1369.02C684.969 1358.31 679.049 1344.05 674.759 1330.33C671.159 1319.19 667.589 1307.97 665.769 1296.37C664.589 1289.5 664.299 1280.88 664.299 1272.69C664.269 1260.48 664.929 1248.27 666.229 1236.13C666.919 1229.87 667.209 1226.94 668.129 1221.37C668.179 1220.32 668.809 1219.25 668.339 1218.26C667.779 1217.23 666.029 1217.4 665.749 1218.6C663.029 1232.68 661.889 1247.04 661.259 1261.35C660.929 1273.07 660.669 1284.89 662.499 1296.51C664.079 1306.73 666.939 1316.69 669.949 1326.56C674.449 1341.68 680.089 1356.42 685.919 1371.07C691.309 1384.61 696.529 1398.23 702.379 1411.58C706.049 1419.88 708.769 1426.66 712.439 1435.79C716.139 1444.96 719.979 1454.1 723.019 1463.52C723.789 1465.92 724.389 1468.38 724.849 1470.86C725.069 1472.73 725.199 1474.6 725.469 1476.45C725.769 1479.35 726.359 1482.27 726.289 1485.18C726.279 1485.26 726.269 1485.34 726.249 1485.42C725.839 1487.88 725.369 1490.34 724.819 1492.77C721.019 1509.32 716.389 1525.67 711.039 1541.79C706.679 1555.58 702.469 1569.43 698.229 1583.26C693.919 1597.1 689.829 1611.03 686.889 1625.23C686.109 1628.9 685.439 1632.59 684.729 1636.28C684.559 1637.12 684.409 1637.97 684.249 1638.81C684.039 1639.59 684.099 1640.51 684.819 1640.99C685.469 1641.55 686.529 1641.46 687.129 1640.85C687.529 1640.48 687.629 1639.93 687.689 1639.41C687.689 1639.39 687.689 1639.38 687.689 1639.36C687.769 1638.87 687.839 1638.38 687.919 1637.89C688.469 1634.44 689.129 1631.01 689.809 1627.58C692.369 1614.78 696.069 1602.24 699.889 1589.77C704.349 1575.46 708.729 1561.13 713.409 1546.89C717.829 1533.85 722.339 1520.83 725.959 1507.54C727.969 1499.98 730.299 1492.45 731.519 1484.71C730.759 1470.54 725.429 1454.46 718.549 1438.5L718.579 1438.53Z" fill="url(#paint67_linear_26486_106250)"/>
<path d="M759.191 1434.73C734.681 1450.22 703.981 1455.6 676.211 1449.08C675.981 1449.03 675.801 1448.84 675.771 1448.61C672.101 1423.06 664.711 1398.05 654.091 1374.35C650.661 1366.69 646.901 1359.17 642.801 1351.8C642.061 1350.48 641.321 1349.16 640.571 1347.85C640.401 1347.55 640.531 1347.17 640.851 1347.03C640.891 1347.02 640.921 1347 640.961 1346.98C645.941 1344.9 651.001 1343 656.131 1341.28C679.991 1333.29 705.331 1329.35 731.571 1330.42C731.801 1330.42 732.011 1330.58 732.081 1330.8C735.971 1341.63 741.631 1351.83 748.921 1360.89C751.881 1364.57 755.121 1368.07 758.621 1371.34C758.851 1371.55 758.881 1371.9 758.681 1372.13C756.691 1374.48 754.001 1376.27 750.481 1377.61C750.261 1377.7 750.111 1377.9 750.111 1378.14V1378.18C750.111 1378.18 750.111 1378.22 750.111 1378.23C750.821 1382.7 751.551 1387.16 752.271 1391.63C754.301 1404.21 756.371 1416.72 758.531 1429.01C758.731 1430.18 758.941 1431.34 759.151 1432.51C759.251 1433.06 759.351 1433.6 759.441 1434.15C759.491 1434.38 759.381 1434.61 759.181 1434.74L759.191 1434.73Z" fill="url(#paint68_linear_26486_106250)"/>
<path style="mix-blend-mode:multiply" opacity="0.14" d="M759.191 1434.73C734.681 1450.22 703.981 1455.6 676.211 1449.08C675.981 1449.03 675.801 1448.84 675.771 1448.61C672.101 1423.06 664.711 1398.05 654.091 1374.35C650.661 1366.69 646.901 1359.17 642.801 1351.8C642.061 1350.48 641.321 1349.16 640.571 1347.85C640.401 1347.55 640.531 1347.17 640.851 1347.03C640.891 1347.02 640.921 1347 640.961 1346.98C645.941 1344.9 651.001 1343 656.131 1341.28C666.261 1351.06 678.691 1358.48 692.171 1362.58C710.601 1368.18 730.851 1367.51 748.931 1360.89C751.891 1364.57 755.131 1368.07 758.631 1371.34C758.861 1371.55 758.891 1371.9 758.691 1372.13C756.701 1374.48 754.011 1376.27 750.491 1377.61C750.271 1377.7 750.121 1377.9 750.121 1378.14V1378.18C750.121 1378.18 750.121 1378.22 750.121 1378.23C750.831 1382.7 751.561 1387.16 752.281 1391.63C745.611 1392.34 739.001 1393.59 732.531 1395.39C725.281 1397.4 717.951 1400.28 712.881 1405.83C707.821 1411.39 705.741 1420.26 709.821 1426.56C714.371 1433.58 724.101 1434.77 732.441 1434.22C741.321 1433.63 750.111 1431.86 758.541 1429C758.741 1430.17 758.951 1431.33 759.161 1432.5C759.261 1433.05 759.361 1433.59 759.451 1434.14C759.501 1434.37 759.391 1434.6 759.191 1434.73Z" fill="url(#paint69_linear_26486_106250)"/>
<path style="mix-blend-mode:multiply" opacity="0.62" d="M759.191 1434.73C734.681 1450.22 703.981 1455.6 676.211 1449.08C675.981 1449.03 675.801 1448.84 675.771 1448.61C672.101 1423.06 664.711 1398.05 654.091 1374.35C650.981 1366.5 647.261 1358.92 642.801 1351.8C642.061 1350.48 641.321 1349.16 640.571 1347.85C640.401 1347.55 640.531 1347.17 640.851 1347.03C640.891 1347.02 640.921 1347 640.961 1346.98C653.541 1360.32 665.591 1374.43 672.281 1391.39C697.741 1393.31 725.281 1388.88 750.121 1378.14C750.171 1378.12 750.231 1378.09 750.281 1378.07C750.231 1378.11 750.171 1378.14 750.121 1378.18C727.121 1393.7 701.131 1399.66 676.211 1396.47C678.271 1409.91 681.071 1424.68 691.771 1433.07C701.391 1440.61 714.791 1440.78 726.931 1439.35C737.851 1438.07 748.651 1435.77 759.161 1432.49C759.261 1433.04 759.361 1433.58 759.451 1434.13C759.501 1434.36 759.391 1434.59 759.191 1434.72V1434.73Z" fill="url(#paint70_linear_26486_106250)"/>
<path style="mix-blend-mode:multiply" opacity="0.56" d="M753.98 1635.45C752.78 1637.32 751.52 1639.16 750.21 1640.98C745.33 1647.75 739.39 1654.27 731.51 1657.04C725.07 1659.3 717.91 1658.81 711.35 1656.91C704.79 1655.01 698.7 1651.78 692.66 1648.57C686.24 1650.25 679.87 1647.8 675.44 1643.34C664.05 1644.24 651.93 1635.89 648.17 1624.26C645.06 1614.62 647.37 1604.16 649.7 1594.3C657.86 1559.73 666.01 1525.16 674.16 1490.59C627.21 1438.82 592.27 1369.6 569.5 1303.43C566.8 1265.65 569.7 1231.26 578.48 1196.16L601.19 1181.31L609.68 1184.68C598.65 1285.81 629.07 1401.47 696.05 1478.25C687.08 1513.93 684.87 1542.34 697.45 1576.92C707 1603.19 728.2 1626.35 753.97 1635.44L753.98 1635.45Z" fill="url(#paint71_linear_26486_106250)"/>
<path d="M1069.88 456.958C1031.65 455.538 1014.04 421.038 1024.56 411.838C1048.59 390.828 1076.25 425.588 1081.5 440.648C1083.37 446.008 1084.79 457.508 1069.88 456.958Z" fill="url(#paint72_linear_26486_106250)"/>
<path style="mix-blend-mode:multiply" opacity="0.82" d="M1068.28 439.549C1067.07 438.029 1065.81 436.539 1064.57 435.039C1059.26 428.829 1049.68 415.919 1041.35 414.859C1037.58 414.889 1036.66 416.839 1035.71 420.119C1035.01 423.519 1034.88 427.019 1034.92 430.489C1034.94 431.279 1034.82 432.189 1035.46 432.779C1036.5 433.889 1038.54 433.049 1038.49 431.529C1038.75 426.659 1039.51 420.729 1040.72 419.479C1040.79 419.459 1040.87 419.439 1040.94 419.419C1040.95 419.419 1040.96 419.419 1040.97 419.419C1041.19 419.419 1041.36 419.439 1041.46 419.439C1041.87 419.529 1042.42 419.709 1042.7 419.809C1046.39 421.559 1047.51 422.939 1050.8 425.859C1051.26 426.279 1051.75 426.739 1052.25 427.229C1051.73 428.069 1051.36 429.069 1050.88 429.869C1049.68 432.349 1048.74 434.969 1048.5 437.729C1048.45 438.579 1048.19 439.519 1048.53 440.329C1049.19 442.089 1051.94 441.519 1051.9 439.649C1052.06 438.029 1053.68 433.719 1054.67 431.869C1054.92 431.409 1055.17 430.959 1055.43 430.509C1058.5 433.819 1061.56 437.459 1062.88 439.239C1063.44 439.959 1065.73 442.989 1065.04 442.089C1065.44 442.679 1065.86 443.309 1066.6 443.479C1067.89 443.869 1069.28 442.799 1069.26 441.449C1069.13 439.959 1068.32 439.759 1068.28 439.519V439.549Z" fill="url(#paint73_linear_26486_106250)"/>
<path style="mix-blend-mode:multiply" opacity="0.83" d="M1232.37 243.599C1231.98 242.989 1231.23 242.729 1230.66 242.309C1228.2 240.699 1225.64 239.219 1223.03 237.869C1211.95 232.119 1199.95 228.089 1187.12 224.509C1167.8 219.119 1147.81 216.599 1127.83 215.249C1118.61 214.669 1109.36 214.249 1100.13 214.769C1098.52 214.789 1098.4 217.289 1100.13 217.329C1118.98 216.869 1139.22 218.679 1156.61 221.139C1177.68 224.089 1201.33 231.019 1218.21 238.799C1221.65 240.399 1224.98 242.229 1228.19 244.259C1229.39 244.819 1230.61 246.569 1231.98 245.539C1232.59 245.119 1232.74 244.229 1232.37 243.589V243.599Z" fill="url(#paint74_linear_26486_106250)"/>
<path style="mix-blend-mode:multiply" opacity="0.69" d="M938.311 1457.8C935.571 1451.87 931.641 1446.55 928.001 1441.15C923.161 1434.24 918.241 1427.4 913.341 1420.53C903.541 1406.74 894.671 1392.33 885.951 1377.85C867.501 1347.64 850.661 1316.46 835.671 1284.38C831.761 1276.09 827.871 1267.67 824.821 1260.02C823.221 1256.18 821.881 1252.2 820.321 1248.36C819.951 1247.82 819.141 1247.68 818.581 1248.01C818.061 1248.3 817.801 1248.96 817.961 1249.54C824.921 1269.11 834.101 1287.79 843.241 1306.41C850.071 1319.99 857.071 1333.49 864.431 1346.79C872.471 1361.05 880.871 1375.11 889.331 1389.13C896.471 1400.85 903.781 1412.48 911.761 1423.65C919.521 1434.83 929.841 1448.05 935.461 1458.8C936.071 1460.27 936.841 1462.51 936.261 1463.91C935.111 1468.88 933.801 1473.81 932.621 1478.78C929.791 1491 925.341 1502.73 920.721 1514.36C916.711 1524.7 912.721 1535.05 908.441 1545.28C899.861 1565.35 888.241 1589.66 883.771 1612.83C882.521 1618.19 881.551 1623.61 881.371 1629.12C881.371 1629.69 881.231 1630.28 881.311 1630.82C879.331 1630.34 877.321 1629.84 875.271 1629.31C868.331 1627.48 861.591 1625.02 854.901 1622.45C854.251 1622.22 853.521 1621.86 852.861 1622.28C851.791 1622.87 852.001 1624.61 853.201 1624.9C872.551 1632.67 893.321 1638.63 914.371 1637.18C915.681 1637.23 916.411 1635.48 915.451 1634.57C914.581 1633.75 913.301 1634.33 912.241 1634.29C902.281 1634.83 893.451 1633.58 884.141 1631.48C884.171 1631.44 884.211 1631.4 884.231 1631.36C884.601 1630.59 884.461 1629.68 884.591 1628.85C884.821 1625.92 884.941 1624.27 885.301 1622.16C886.251 1621.98 887.251 1620.82 888.081 1620.15C894.381 1614.47 899.901 1607.89 904.141 1600.53C907.171 1595.22 909.861 1589.72 912.381 1584.14C913.391 1581.84 914.351 1579.52 915.221 1577.17C915.491 1576.16 916.201 1575.18 916.151 1574.13C916.001 1572.49 913.531 1572.32 913.121 1573.92C910.771 1580.47 908.451 1585.52 905.151 1592.12C900.621 1601.32 895.941 1608.53 888.721 1615.34C887.891 1616.14 887.041 1616.92 886.191 1617.69C887.941 1609.33 889.861 1600.98 892.551 1592.87C897.151 1579.08 902.291 1567.8 907.871 1554.74C912.671 1543.74 917.061 1532.58 921.401 1521.39C925.211 1511.32 929.461 1501.4 932.491 1491.06C934.441 1484.74 935.861 1478.27 937.451 1471.85C938.141 1468.73 939.251 1465.66 939.521 1462.47C939.461 1460.86 938.991 1459.3 938.341 1457.83L938.311 1457.8Z" fill="url(#paint75_linear_26486_106250)"/>
<path d="M930.15 1271.14C929.94 1272.76 929.72 1274.4 929.5 1276.05C808.03 1285.76 683.79 1257.48 578.49 1196.16C577.77 1175.98 580.34 1157.19 585.44 1139.1C591.28 1143.05 597.19 1146.92 603.17 1150.67C700.9 1212.27 816.41 1248.58 931.53 1249.83C931.73 1256.86 931.06 1263.91 930.15 1271.13V1271.14Z" fill="url(#paint76_linear_26486_106250)"/>
<path style="mix-blend-mode:multiply" opacity="0.19" d="M930.15 1271.14C929.94 1272.76 929.72 1274.4 929.5 1276.05C808.03 1285.76 683.79 1257.48 578.49 1196.16C577.77 1175.98 580.34 1157.19 585.44 1139.1C591.28 1143.05 597.19 1146.92 603.17 1150.67C603.08 1152.93 603.27 1155.2 603.71 1157.4C605.33 1165.35 609.87 1172.4 614.96 1178.73C636.97 1206.19 669.42 1223.17 702.18 1236.04C774.33 1264.4 852.83 1276.45 930.16 1271.13L930.15 1271.14Z" fill="url(#paint77_linear_26486_106250)"/>
<path d="M630.411 1163.43C620.711 1180.3 613.921 1199.35 610.551 1219.17C610.551 1219.17 619.671 1224.57 620.521 1225.07C624.541 1205.63 631.941 1187.1 642.351 1171C639.381 1168.13 636.001 1165.83 630.421 1163.43H630.411Z" fill="#101010"/>
<path d="M765.152 1217.46C761.852 1234.49 755.222 1251.02 745.772 1265.82C745.772 1265.82 736.242 1263.36 735.352 1263.13C744.132 1248.14 750.012 1231.55 752.372 1214.56C756.132 1214.65 759.842 1215.38 765.152 1217.46Z" fill="#101010"/>
<path d="M907.069 1243.25C907.379 1258.1 904.569 1272.48 898.859 1285.33C898.859 1285.33 889.709 1283.09 888.859 1282.88C893.929 1269.87 896.049 1255.42 894.889 1240.59C898.329 1240.71 901.839 1241.38 907.069 1243.24V1243.25Z" fill="#101010"/>
<g style="mix-blend-mode:multiply" opacity="0.21">
<path d="M834.769 1257.22C834.769 1260.41 833.179 1263.23 830.739 1264.93C829.219 1265.99 827.369 1266.61 825.369 1266.61C820.179 1266.61 815.969 1262.4 815.969 1257.21C815.969 1253.8 817.789 1250.81 820.499 1249.17C821.919 1248.31 823.579 1247.82 825.359 1247.82C830.549 1247.82 834.759 1252.02 834.759 1257.22H834.769Z" fill="#B8B8B8"/>
</g>
<path d="M835.71 1255.93C835.71 1259.12 834.12 1261.94 831.68 1263.64C830.16 1264.7 828.31 1265.32 826.31 1265.32C821.12 1265.32 816.91 1261.11 816.91 1255.92C816.91 1252.51 818.73 1249.52 821.44 1247.88C822.86 1247.02 824.52 1246.53 826.3 1246.53C831.49 1246.53 835.7 1250.73 835.7 1255.93H835.71Z" fill="url(#paint78_linear_26486_106250)"/>
<path style="mix-blend-mode:multiply" opacity="0.27" d="M831.68 1263.64C830.16 1264.7 828.31 1265.32 826.31 1265.32C821.12 1265.32 816.91 1261.11 816.91 1255.92C816.91 1252.51 818.73 1249.52 821.44 1247.88C820.95 1251.23 821.59 1254.74 823.4 1257.61C825.27 1260.57 828.31 1262.69 831.67 1263.64H831.68Z" fill="url(#paint79_linear_26486_106250)"/>
<g style="mix-blend-mode:multiply" opacity="0.21">
<path d="M718.801 1377.6C718.801 1379.95 717.631 1382.03 715.831 1383.28C714.711 1384.06 713.351 1384.52 711.881 1384.52C708.061 1384.52 704.961 1381.42 704.961 1377.6C704.961 1375.09 706.301 1372.89 708.301 1371.68C709.351 1371.05 710.571 1370.68 711.881 1370.68C715.701 1370.68 718.801 1373.77 718.801 1377.6Z" fill="#B8B8B8"/>
</g>
<path d="M719.492 1376.65C719.492 1379 718.322 1381.08 716.522 1382.33C715.402 1383.11 714.042 1383.57 712.572 1383.57C708.752 1383.57 705.652 1380.47 705.652 1376.65C705.652 1374.14 706.992 1371.94 708.992 1370.73C710.042 1370.1 711.262 1369.73 712.572 1369.73C716.392 1369.73 719.492 1372.82 719.492 1376.65Z" fill="url(#paint80_linear_26486_106250)"/>
<path style="mix-blend-mode:multiply" opacity="0.27" d="M716.53 1382.33C715.41 1383.11 714.05 1383.57 712.58 1383.57C708.76 1383.57 705.66 1380.47 705.66 1376.65C705.66 1374.14 707 1371.94 709 1370.73C708.64 1373.19 709.11 1375.78 710.44 1377.89C711.82 1380.07 714.05 1381.63 716.53 1382.33Z" fill="url(#paint81_linear_26486_106250)"/>
<path style="mix-blend-mode:multiply" opacity="0.69" d="M719.97 1460.78C706.77 1466.37 693.19 1476.53 682.79 1484.36C680.69 1486.01 678.62 1487.47 677.69 1488.34C676.69 1489.24 677.3 1491.01 678.68 1491C681.39 1490.62 683.92 1489.34 686.51 1488.51C690.26 1487.15 694.06 1485.92 697.87 1484.75C701.12 1483.74 704.39 1482.77 707.68 1481.89C708.84 1481.58 710.01 1481.29 711.18 1481.02C711.92 1480.93 712.66 1480.38 712.71 1479.59C712.87 1478.81 712.3 1478.03 711.55 1477.82C710.38 1477.66 709.21 1478.27 708.06 1478.47C705.3 1479.19 702.57 1480 699.84 1480.83C695.48 1482.11 690.26 1483.9 685.86 1485.48C691.89 1481.04 699.65 1475.75 705.76 1471.79C710.21 1468.96 714.82 1466.37 719.67 1464.28C720.56 1463.89 720.38 1463.97 720.81 1463.8C721.2 1463.69 721.54 1463.43 721.75 1463.08C722.47 1461.94 721.28 1460.37 719.98 1460.78H719.97Z" fill="url(#paint82_linear_26486_106250)"/>
<path style="mix-blend-mode:multiply" opacity="0.69" d="M915.92 1467.93C905.21 1468.93 896.02 1470.95 885.27 1474.2C882.05 1475.19 878.85 1476.27 875.73 1477.54C874.3 1477.88 873.3 1479.34 874.45 1480.59C875.05 1481.22 876.01 1481.15 876.81 1481.25C878.73 1481.42 878.58 1481.4 880.79 1481.52C885.23 1481.74 889.66 1482.01 894.09 1482.41C899.14 1482.9 901.6 1483.19 906.42 1484.06C908.04 1484.31 909.9 1485.08 910.31 1482.56C910.19 1480.17 906.93 1480.51 904.44 1479.91C897.52 1478.83 890.53 1478.26 883.53 1478.04C890.86 1475.5 898.5 1473.91 906.1 1472.36C909.03 1471.79 911.33 1471.46 913.4 1471.21C914.52 1470.96 915.84 1471.16 916.84 1470.57C917.96 1469.8 917.31 1467.87 915.94 1467.93H915.92Z" fill="url(#paint83_linear_26486_106250)"/>
<g style="mix-blend-mode:multiply" opacity="0.48">
<path d="M814.558 1238.35C813.958 1237.25 812.158 1237.47 811.868 1238.7C810.708 1243.64 808.808 1248.37 807.338 1253.22C805.488 1259.19 803.848 1263.39 801.308 1268.72C801.258 1268.81 801.218 1268.91 801.168 1268.99C801.088 1269.1 801.058 1269.15 801.068 1269.15C801.048 1269.18 801.028 1269.2 801.008 1269.23C800.508 1270.04 800.978 1271.18 801.898 1271.42C802.598 1271.62 803.428 1271.23 803.668 1270.53C803.708 1270.46 803.728 1270.37 803.748 1270.29C803.748 1270.31 803.768 1270.26 803.818 1270.06C804.038 1269.47 806.798 1263.61 807.848 1260.65C809.678 1255.63 811.288 1250.52 813.048 1245.48C813.598 1243.72 814.158 1241.95 814.578 1240.16C814.698 1239.56 814.918 1238.9 814.568 1238.34L814.558 1238.35Z" fill="#524F52"/>
</g>
<path style="mix-blend-mode:multiply" opacity="0.69" d="M723.961 1653.27C723.511 1652.99 722.951 1653.07 722.451 1653C721.741 1652.96 720.781 1652.81 720.381 1652.76C709.251 1651.75 693.231 1647.27 680.321 1642.45C672.351 1639.55 665.741 1636.45 657.811 1632.36C656.911 1632 656.051 1631.17 655.031 1631.37C653.901 1631.65 653.671 1633.31 654.701 1633.87C668.661 1641.34 683.381 1647.35 698.671 1651.47C704.921 1653.19 711.241 1654.65 717.671 1655.53C719.121 1655.74 720.571 1655.85 722.031 1655.98C722.791 1656.05 723.681 1656.29 724.271 1655.65C724.971 1654.98 724.801 1653.74 723.961 1653.26V1653.27Z" fill="url(#paint84_linear_26486_106250)"/>
<path style="mix-blend-mode:multiply" opacity="0.69" d="M746.899 1593.71C741.919 1602.77 735.599 1612.7 729.849 1619.75C723.839 1626.94 716.849 1633.51 709.939 1638.28C707.879 1639.7 705.759 1641.03 703.589 1642.27C702.669 1642.8 701.739 1643.32 700.799 1643.82C700.309 1644.11 699.979 1644.71 700.099 1645.27C700.359 1646.76 701.889 1646.77 702.919 1645.97C704.569 1645.05 706.199 1644.1 707.799 1643.11C717.399 1637.08 725.779 1629.18 733.029 1620.49C739.309 1612.41 745.229 1603.84 749.799 1594.7C750.089 1593.05 747.719 1592.22 746.889 1593.7L746.899 1593.71Z" fill="url(#paint85_linear_26486_106250)"/>
<path style="mix-blend-mode:multiply" opacity="0.69" d="M672.73 1607.59C673 1604.82 673.68 1601.06 674.44 1597.36C674.33 1595.94 672.13 1595.79 671.8 1597.18C670.53 1601.07 670.09 1605.2 669.54 1609.24C668.74 1615.45 668.41 1621.74 669.06 1627.97C669.25 1629.79 669.51 1631.61 669.85 1633.41C669.96 1633.81 670.22 1634.15 670.58 1634.35C671.44 1634.88 672.64 1634.38 672.9 1633.41C673.05 1632.32 672.56 1631.22 672.49 1630.13C671.55 1624.43 671.81 1614.79 672.74 1607.59H672.73Z" fill="url(#paint86_linear_26486_106250)"/>
<path style="mix-blend-mode:multiply" opacity="0.69" d="M930.858 1595.74C930.288 1594.9 928.898 1595.01 928.418 1595.89C920.978 1608.62 912.358 1617.49 899.908 1624.22C899.178 1624.66 898.198 1624.97 897.968 1625.89C897.538 1627.28 899.198 1628.56 900.438 1627.79C907.198 1623.82 913.588 1619.11 919.038 1613.45C922.878 1609.43 926.288 1605 929.268 1600.31C929.768 1599.51 930.228 1598.68 930.698 1597.86C931.128 1597.25 931.418 1596.37 930.858 1595.74Z" fill="url(#paint87_linear_26486_106250)"/>
<defs>
<linearGradient id="paint0_linear_26486_106250" x1="903.339" y1="1642.19" x2="911.919" y2="1803.41" gradientUnits="userSpaceOnUse">
<stop stop-color="#454347"/>
<stop offset="1" stop-color="#626163"/>
</linearGradient>
<linearGradient id="paint1_linear_26486_106250" x1="707.24" y1="1628.06" x2="707.24" y2="1808.42" gradientUnits="userSpaceOnUse">
<stop stop-color="#454347"/>
<stop offset="1" stop-color="#626163"/>
</linearGradient>
<linearGradient id="paint2_linear_26486_106250" x1="967.581" y1="1717.11" x2="823.871" y2="1717.11" gradientUnits="userSpaceOnUse">
<stop stop-color="#454347"/>
<stop offset="1" stop-color="#626163"/>
</linearGradient>
<linearGradient id="paint3_linear_26486_106250" x1="748.56" y1="1726.64" x2="622.21" y2="1726.64" gradientUnits="userSpaceOnUse">
<stop stop-color="#454347"/>
<stop offset="1" stop-color="#626163"/>
</linearGradient>
<linearGradient id="paint4_linear_26486_106250" x1="1395.85" y1="958.358" x2="1364.27" y2="936.198" gradientUnits="userSpaceOnUse">
<stop stop-color="#363636"/>
<stop offset="1" stop-color="#131313"/>
</linearGradient>
<linearGradient id="paint5_linear_26486_106250" x1="1408.53" y1="950.809" x2="1281.32" y2="950.809" gradientUnits="userSpaceOnUse">
<stop stop-color="#363636"/>
<stop offset="1" stop-color="#131313"/>
</linearGradient>
<linearGradient id="paint6_linear_26486_106250" x1="1377.76" y1="984.149" x2="1281.32" y2="984.149" gradientUnits="userSpaceOnUse">
<stop stop-color="#363636"/>
<stop offset="1" stop-color="#131313"/>
</linearGradient>
<linearGradient id="paint7_linear_26486_106250" x1="1305.64" y1="996.71" x2="1281.32" y2="996.71" gradientUnits="userSpaceOnUse">
<stop stop-color="#FFC493"/>
<stop offset="1" stop-color="#FFB073"/>
</linearGradient>
<linearGradient id="paint8_linear_26486_106250" x1="1064.26" y1="1042.43" x2="1276.61" y2="920.269" gradientUnits="userSpaceOnUse">
<stop stop-color="#454347"/>
<stop offset="1" stop-color="#626163"/>
</linearGradient>
<linearGradient id="paint9_linear_26486_106250" x1="1042.96" y1="1056.29" x2="1175.39" y2="934.13" gradientUnits="userSpaceOnUse">
<stop stop-color="#454347"/>
<stop offset="1" stop-color="#626163"/>
</linearGradient>
<linearGradient id="paint10_linear_26486_106250" x1="1057.8" y1="1072.37" x2="1190.23" y2="950.209" gradientUnits="userSpaceOnUse">
<stop stop-color="#454347"/>
<stop offset="1" stop-color="#626163"/>
</linearGradient>
<linearGradient id="paint11_linear_26486_106250" x1="1125.65" y1="1145.93" x2="1258.08" y2="1023.77" gradientUnits="userSpaceOnUse">
<stop stop-color="#454347"/>
<stop offset="1" stop-color="#626163"/>
</linearGradient>
<linearGradient id="paint12_linear_26486_106250" x1="1301.99" y1="944.9" x2="1055.63" y2="944.9" gradientUnits="userSpaceOnUse">
<stop stop-color="#454347"/>
<stop offset="1" stop-color="#626163"/>
</linearGradient>
<linearGradient id="paint13_linear_26486_106250" x1="962.81" y1="1254.29" x2="856.64" y2="651.499" gradientUnits="userSpaceOnUse">
<stop stop-color="#454347"/>
<stop offset="1" stop-color="#626163"/>
</linearGradient>
<linearGradient id="paint14_linear_26486_106250" x1="1078.61" y1="620.649" x2="1170.69" y2="379.009" gradientUnits="userSpaceOnUse">
<stop stop-color="#FFC493"/>
<stop offset="1" stop-color="#FFB073"/>
</linearGradient>
<linearGradient id="paint15_linear_26486_106250" x1="959.49" y1="481.169" x2="1199.18" y2="481.169" gradientUnits="userSpaceOnUse">
<stop stop-color="#FFC493"/>
<stop offset="1" stop-color="#FFB073"/>
</linearGradient>
<linearGradient id="paint16_linear_26486_106250" x1="1366.82" y1="496.25" x2="1149.14" y2="351.13" gradientUnits="userSpaceOnUse">
<stop stop-color="#FFC493"/>
<stop offset="1" stop-color="#FFB073"/>
</linearGradient>
<linearGradient id="paint17_linear_26486_106250" x1="1267.05" y1="403.03" x2="1181.99" y2="353.94" gradientUnits="userSpaceOnUse">
<stop stop-color="#FF9762"/>
<stop offset="1" stop-color="#FFB073"/>
</linearGradient>
<linearGradient id="paint18_linear_26486_106250" x1="1114.02" y1="334.719" x2="1362.84" y2="373.619" gradientUnits="userSpaceOnUse">
<stop stop-color="#454347"/>
<stop offset="1" stop-color="#626163"/>
</linearGradient>
<linearGradient id="paint19_linear_26486_106250" x1="1150.01" y1="317.976" x2="1151.16" y2="307.95" gradientUnits="userSpaceOnUse">
<stop stop-color="#FFF4EF"/>
<stop offset="1" stop-color="#F6DFD7"/>
</linearGradient>
<linearGradient id="paint20_linear_26486_106250" x1="1198.58" y1="355.259" x2="1170.75" y2="341.159" gradientUnits="userSpaceOnUse">
<stop stop-color="#FFF4EF"/>
<stop offset="1" stop-color="#F6DFD7"/>
</linearGradient>
<linearGradient id="paint21_linear_26486_106250" x1="1199.88" y1="350.648" x2="1185.3" y2="345.788" gradientUnits="userSpaceOnUse">
<stop stop-color="#363636"/>
<stop offset="1" stop-color="#131313"/>
</linearGradient>
<linearGradient id="paint22_linear_26486_106250" x1="1196.77" y1="344.659" x2="1167.64" y2="344.659" gradientUnits="userSpaceOnUse">
<stop stop-color="#FFF4EF"/>
<stop offset="1" stop-color="#D7C2BB"/>
</linearGradient>
<linearGradient id="paint23_linear_26486_106250" x1="1249.18" y1="318.259" x2="1218.17" y2="304.869" gradientUnits="userSpaceOnUse">
<stop stop-color="#FFF4EF"/>
<stop offset="1" stop-color="#F6DFD7"/>
</linearGradient>
<linearGradient id="paint24_linear_26486_106250" x1="1250.62" y1="316.138" x2="1236.04" y2="311.278" gradientUnits="userSpaceOnUse">
<stop stop-color="#363636"/>
<stop offset="1" stop-color="#131313"/>
</linearGradient>
<linearGradient id="paint25_linear_26486_106250" x1="1232.19" y1="312.119" x2="1237.61" y2="302.129" gradientUnits="userSpaceOnUse">
<stop stop-color="#FFF4EF"/>
<stop offset="1" stop-color="#D7C2BB"/>
</linearGradient>
<linearGradient id="paint26_linear_26486_106250" x1="1222.56" y1="493.099" x2="1189.07" y2="424.219" gradientUnits="userSpaceOnUse">
<stop stop-color="#FFF4EF"/>
<stop offset="1" stop-color="#F6DFD7"/>
</linearGradient>
<linearGradient id="paint27_linear_26486_106250" x1="1223.66" y1="280.979" x2="1211.67" y2="276.647" gradientUnits="userSpaceOnUse">
<stop stop-color="#FFF4EF"/>
<stop offset="1" stop-color="#F6DFD7"/>
</linearGradient>
<linearGradient id="paint28_linear_26486_106250" x1="1109.43" y1="333.999" x2="1343.2" y2="370.549" gradientUnits="userSpaceOnUse">
<stop stop-color="#454347"/>
<stop offset="1" stop-color="#626163"/>
</linearGradient>
<linearGradient id="paint29_linear_26486_106250" x1="1260.76" y1="350.74" x2="1190.61" y2="272.21" gradientUnits="userSpaceOnUse">
<stop stop-color="#363636"/>
<stop offset="1" stop-color="#131313"/>
</linearGradient>
<linearGradient id="paint30_linear_26486_106250" x1="1107.35" y1="211.719" x2="1087.77" y2="204.949" gradientUnits="userSpaceOnUse">
<stop stop-color="#363636"/>
<stop offset="1" stop-color="#131313"/>
</linearGradient>
<linearGradient id="paint31_linear_26486_106250" x1="1191.01" y1="502.908" x2="1195.19" y2="449.258" gradientUnits="userSpaceOnUse">
<stop stop-color="#FFF4EF"/>
<stop offset="1" stop-color="#F6DFD7"/>
</linearGradient>
<linearGradient id="paint32_linear_26486_106250" x1="1147.49" y1="211.559" x2="1117.16" y2="383.599" gradientUnits="userSpaceOnUse">
<stop stop-color="#363636"/>
<stop offset="1" stop-color="#131313"/>
</linearGradient>
<linearGradient id="paint33_linear_26486_106250" x1="1193.12" y1="193.299" x2="1035.45" y2="398.919" gradientUnits="userSpaceOnUse">
<stop stop-color="#363636"/>
<stop offset="1" stop-color="#131313"/>
</linearGradient>
<linearGradient id="paint34_linear_26486_106250" x1="1110.79" y1="542.009" x2="1053.71" y2="683.569" gradientUnits="userSpaceOnUse">
<stop stop-color="#363636"/>
<stop offset="1" stop-color="#131313"/>
</linearGradient>
<linearGradient id="paint35_linear_26486_106250" x1="1124.4" y1="900.78" x2="807.781" y2="900.78" gradientUnits="userSpaceOnUse">
<stop stop-color="#454347"/>
<stop offset="1" stop-color="#626163"/>
</linearGradient>
<linearGradient id="paint36_linear_26486_106250" x1="1128.92" y1="1008.05" x2="1148.33" y2="1038.5" gradientUnits="userSpaceOnUse">
<stop stop-color="#363636"/>
<stop offset="1" stop-color="#131313"/>
</linearGradient>
<linearGradient id="paint37_linear_26486_106250" x1="1148.23" y1="1009.24" x2="1133.4" y2="1100.26" gradientUnits="userSpaceOnUse">
<stop stop-color="#363636"/>
<stop offset="1" stop-color="#131313"/>
</linearGradient>
<linearGradient id="paint38_linear_26486_106250" x1="1102.56" y1="1112.71" x2="1129.94" y2="1069.14" gradientUnits="userSpaceOnUse">
<stop stop-color="#363636"/>
<stop offset="1" stop-color="#131313"/>
</linearGradient>
<linearGradient id="paint39_linear_26486_106250" x1="1245.06" y1="708.259" x2="769.301" y2="708.259" gradientUnits="userSpaceOnUse">
<stop stop-color="#454347"/>
<stop offset="1" stop-color="#626163"/>
</linearGradient>
<linearGradient id="paint40_linear_26486_106250" x1="1177.36" y1="854.619" x2="671.141" y2="854.619" gradientUnits="userSpaceOnUse">
<stop stop-color="#454347"/>
<stop offset="1" stop-color="#626163"/>
</linearGradient>
<linearGradient id="paint41_linear_26486_106250" x1="1073.76" y1="1011.75" x2="624.18" y2="1011.75" gradientUnits="userSpaceOnUse">
<stop stop-color="#454347"/>
<stop offset="1" stop-color="#626163"/>
</linearGradient>
<linearGradient id="paint42_linear_26486_106250" x1="977.001" y1="1148.75" x2="584.611" y2="1148.75" gradientUnits="userSpaceOnUse">
<stop stop-color="#454347"/>
<stop offset="1" stop-color="#626163"/>
</linearGradient>
<linearGradient id="paint43_linear_26486_106250" x1="1221.71" y1="985.719" x2="1170.91" y2="985.719" gradientUnits="userSpaceOnUse">
<stop stop-color="#454347"/>
<stop offset="1" stop-color="#626163"/>
</linearGradient>
<linearGradient id="paint44_linear_26486_106250" x1="1029.06" y1="1089.41" x2="1101.82" y2="979.569" gradientUnits="userSpaceOnUse">
<stop stop-color="#9F5A10"/>
<stop offset="1" stop-color="#F0891E"/>
</linearGradient>
<linearGradient id="paint45_linear_26486_106250" x1="1033.25" y1="1085.43" x2="1060.24" y2="1043.73" gradientUnits="userSpaceOnUse">
<stop stop-color="#FFAB18"/>
<stop offset="1" stop-color="#FFCE00"/>
</linearGradient>
<linearGradient id="paint46_linear_26486_106250" x1="1047.06" y1="1068.13" x2="1060.12" y2="1037.73" gradientUnits="userSpaceOnUse">
<stop stop-color="#FFFAF4"/>
<stop offset="1" stop-color="#FAECDD"/>
</linearGradient>
<linearGradient id="paint47_linear_26486_106250" x1="1042.49" y1="1074.97" x2="1055.15" y2="1039.45" gradientUnits="userSpaceOnUse">
<stop stop-color="#FFFAF4"/>
<stop offset="1" stop-color="#FAECDD"/>
</linearGradient>
<linearGradient id="paint48_linear_26486_106250" x1="1047.06" y1="1077.35" x2="1060.76" y2="1045.06" gradientUnits="userSpaceOnUse">
<stop stop-color="#FFFAF4"/>
<stop offset="1" stop-color="#FAECDD"/>
</linearGradient>
<linearGradient id="paint49_linear_26486_106250" x1="1070.46" y1="1034.35" x2="1041.72" y2="1069.35" gradientUnits="userSpaceOnUse">
<stop stop-color="#FFAB18"/>
<stop offset="1" stop-color="#FFC800"/>
</linearGradient>
<linearGradient id="paint50_linear_26486_106250" x1="1072.76" y1="1031.03" x2="1024.65" y2="1090.66" gradientUnits="userSpaceOnUse">
<stop stop-color="#FFAB18"/>
<stop offset="1" stop-color="#FFC800"/>
</linearGradient>
<linearGradient id="paint51_linear_26486_106250" x1="743.951" y1="1151.84" x2="937.441" y2="777.769" gradientUnits="userSpaceOnUse">
<stop stop-color="#454347"/>
<stop offset="1" stop-color="#626163"/>
</linearGradient>
<linearGradient id="paint52_linear_26486_106250" x1="924.988" y1="752.32" x2="620.158" y2="837.94" gradientUnits="userSpaceOnUse">
<stop stop-color="#454347"/>
<stop offset="1" stop-color="#626163"/>
</linearGradient>
<linearGradient id="paint53_linear_26486_106250" x1="958.549" y1="871.799" x2="653.719" y2="957.419" gradientUnits="userSpaceOnUse">
<stop stop-color="#454347"/>
<stop offset="1" stop-color="#626163"/>
</linearGradient>
<linearGradient id="paint54_linear_26486_106250" x1="992.929" y1="994.189" x2="688.1" y2="1079.81" gradientUnits="userSpaceOnUse">
<stop stop-color="#454347"/>
<stop offset="1" stop-color="#626163"/>
</linearGradient>
<linearGradient id="paint55_linear_26486_106250" x1="997.16" y1="1054.73" x2="1169.12" y2="1103.04" gradientUnits="userSpaceOnUse">
<stop stop-color="#454347"/>
<stop offset="1" stop-color="#626163"/>
</linearGradient>
<linearGradient id="paint56_linear_26486_106250" x1="839.89" y1="972.789" x2="767.44" y2="972.789" gradientUnits="userSpaceOnUse">
<stop stop-color="#454347"/>
<stop offset="1" stop-color="#626163"/>
</linearGradient>
<linearGradient id="paint57_linear_26486_106250" x1="814.748" y1="1279.86" x2="827.028" y2="1279.86" gradientUnits="userSpaceOnUse">
<stop stop-color="#454347"/>
<stop offset="1" stop-color="#626163"/>
</linearGradient>
<linearGradient id="paint58_linear_26486_106250" x1="1028.74" y1="295.869" x2="1072.88" y2="295.869" gradientUnits="userSpaceOnUse">
<stop stop-color="#454347"/>
<stop offset="1" stop-color="#626163"/>
</linearGradient>
<linearGradient id="paint59_linear_26486_106250" x1="1084.66" y1="266.229" x2="1119.82" y2="266.229" gradientUnits="userSpaceOnUse">
<stop stop-color="#454347"/>
<stop offset="1" stop-color="#626163"/>
</linearGradient>
<linearGradient id="paint60_linear_26486_106250" x1="668.871" y1="910.829" x2="1026.31" y2="910.829" gradientUnits="userSpaceOnUse">
<stop stop-color="#454347"/>
<stop offset="1" stop-color="#626163"/>
</linearGradient>
<linearGradient id="paint61_linear_26486_106250" x1="990.63" y1="1121.82" x2="580.51" y2="1121.82" gradientUnits="userSpaceOnUse">
<stop stop-color="#454347"/>
<stop offset="1" stop-color="#626163"/>
</linearGradient>
<linearGradient id="paint62_linear_26486_106250" x1="877.001" y1="1743.21" x2="886.511" y2="1606.33" gradientUnits="userSpaceOnUse">
<stop stop-color="#363636"/>
<stop offset="1" stop-color="#131313"/>
</linearGradient>
<linearGradient id="paint63_linear_26486_106250" x1="945.328" y1="1598.7" x2="817.518" y2="1204.95" gradientUnits="userSpaceOnUse">
<stop stop-color="#363636"/>
<stop offset="1" stop-color="#131313"/>
</linearGradient>
<linearGradient id="paint64_linear_26486_106250" x1="671.861" y1="1791.4" x2="690.311" y2="1632.02" gradientUnits="userSpaceOnUse">
<stop stop-color="#363636"/>
<stop offset="1" stop-color="#131313"/>
</linearGradient>
<linearGradient id="paint65_linear_26486_106250" x1="885.768" y1="1647.95" x2="831.168" y2="1107.04" gradientUnits="userSpaceOnUse">
<stop stop-color="#363636"/>
<stop offset="1" stop-color="#131313"/>
</linearGradient>
<linearGradient id="paint66_linear_26486_106250" x1="717.96" y1="1665.18" x2="653.2" y2="1023.66" gradientUnits="userSpaceOnUse">
<stop stop-color="#363636"/>
<stop offset="1" stop-color="#131313"/>
</linearGradient>
<linearGradient id="paint67_linear_26486_106250" x1="661.049" y1="1429.49" x2="731.549" y2="1429.49" gradientUnits="userSpaceOnUse">
<stop stop-color="#454347"/>
<stop offset="1" stop-color="#626163"/>
</linearGradient>
<linearGradient id="paint68_linear_26486_106250" x1="745.581" y1="1335.79" x2="457.381" y2="1684.09" gradientUnits="userSpaceOnUse">
<stop stop-color="#363636"/>
<stop offset="1" stop-color="#131313"/>
</linearGradient>
<linearGradient id="paint69_linear_26486_106250" x1="737.291" y1="1345.8" x2="477.551" y2="1659.7" gradientUnits="userSpaceOnUse">
<stop stop-color="#363636"/>
<stop offset="1" stop-color="#131313"/>
</linearGradient>
<linearGradient id="paint70_linear_26486_106250" x1="724.551" y1="1651.14" x2="668.351" y2="1056.15" gradientUnits="userSpaceOnUse">
<stop stop-color="#363636"/>
<stop offset="1" stop-color="#131313"/>
</linearGradient>
<linearGradient id="paint71_linear_26486_106250" x1="681.87" y1="1668.82" x2="617.11" y2="1027.31" gradientUnits="userSpaceOnUse">
<stop stop-color="#363636"/>
<stop offset="1" stop-color="#131313"/>
</linearGradient>
<linearGradient id="paint72_linear_26486_106250" x1="1280.64" y1="581.218" x2="1084.02" y2="452.338" gradientUnits="userSpaceOnUse">
<stop stop-color="#FFC493"/>
<stop offset="1" stop-color="#FFB073"/>
</linearGradient>
<linearGradient id="paint73_linear_26486_106250" x1="1034.92" y1="429.229" x2="1069.26" y2="429.229" gradientUnits="userSpaceOnUse">
<stop stop-color="#FFC493"/>
<stop offset="1" stop-color="#FFB073"/>
</linearGradient>
<linearGradient id="paint74_linear_26486_106250" x1="1098.88" y1="230.199" x2="1232.57" y2="230.199" gradientUnits="userSpaceOnUse">
<stop stop-color="#454347"/>
<stop offset="1" stop-color="#626163"/>
</linearGradient>
<linearGradient id="paint75_linear_26486_106250" x1="817.901" y1="1442.6" x2="939.491" y2="1442.6" gradientUnits="userSpaceOnUse">
<stop stop-color="#454347"/>
<stop offset="1" stop-color="#626163"/>
</linearGradient>
<linearGradient id="paint76_linear_26486_106250" x1="614.73" y1="1199.91" x2="1003.71" y2="1231.14" gradientUnits="userSpaceOnUse">
<stop stop-color="#454347"/>
<stop offset="1" stop-color="#626163"/>
</linearGradient>
<linearGradient id="paint77_linear_26486_106250" x1="614.71" y1="1199.91" x2="1003.41" y2="1231.11" gradientUnits="userSpaceOnUse">
<stop stop-color="#454347"/>
<stop offset="1" stop-color="#626163"/>
</linearGradient>
<linearGradient id="paint78_linear_26486_106250" x1="832.72" y1="1239.48" x2="818.8" y2="1275.23" gradientUnits="userSpaceOnUse">
<stop stop-color="#B8B8B8"/>
<stop offset="0.31" stop-color="#AEADAE"/>
<stop offset="0.85" stop-color="#949294"/>
<stop offset="1" stop-color="#8C898C"/>
</linearGradient>
<linearGradient id="paint79_linear_26486_106250" x1="830.06" y1="1244.11" x2="818.86" y2="1272.88" gradientUnits="userSpaceOnUse">
<stop stop-color="#B8B8B8"/>
<stop offset="0.31" stop-color="#AEADAE"/>
<stop offset="0.85" stop-color="#949294"/>
<stop offset="1" stop-color="#8C898C"/>
</linearGradient>
<linearGradient id="paint80_linear_26486_106250" x1="717.292" y1="1364.55" x2="707.052" y2="1390.86" gradientUnits="userSpaceOnUse">
<stop stop-color="#B8B8B8"/>
<stop offset="0.31" stop-color="#AEADAE"/>
<stop offset="0.85" stop-color="#949294"/>
<stop offset="1" stop-color="#8C898C"/>
</linearGradient>
<linearGradient id="paint81_linear_26486_106250" x1="715.33" y1="1367.95" x2="707.09" y2="1389.13" gradientUnits="userSpaceOnUse">
<stop stop-color="#B8B8B8"/>
<stop offset="0.31" stop-color="#AEADAE"/>
<stop offset="0.85" stop-color="#949294"/>
<stop offset="1" stop-color="#8C898C"/>
</linearGradient>
<linearGradient id="paint82_linear_26486_106250" x1="677.2" y1="1475.85" x2="721.96" y2="1475.85" gradientUnits="userSpaceOnUse">
<stop stop-color="#454347"/>
<stop offset="1" stop-color="#626163"/>
</linearGradient>
<linearGradient id="paint83_linear_26486_106250" x1="873.94" y1="1476.15" x2="917.38" y2="1476.15" gradientUnits="userSpaceOnUse">
<stop stop-color="#454347"/>
<stop offset="1" stop-color="#626163"/>
</linearGradient>
<linearGradient id="paint84_linear_26486_106250" x1="654.041" y1="1643.72" x2="724.701" y2="1643.72" gradientUnits="userSpaceOnUse">
<stop stop-color="#454347"/>
<stop offset="1" stop-color="#626163"/>
</linearGradient>
<linearGradient id="paint85_linear_26486_106250" x1="700.069" y1="1619.72" x2="749.829" y2="1619.72" gradientUnits="userSpaceOnUse">
<stop stop-color="#454347"/>
<stop offset="1" stop-color="#626163"/>
</linearGradient>
<linearGradient id="paint86_linear_26486_106250" x1="668.71" y1="1615.39" x2="674.44" y2="1615.39" gradientUnits="userSpaceOnUse">
<stop stop-color="#454347"/>
<stop offset="1" stop-color="#626163"/>
</linearGradient>
<linearGradient id="paint87_linear_26486_106250" x1="897.898" y1="1611.59" x2="931.168" y2="1611.59" gradientUnits="userSpaceOnUse">
<stop stop-color="#454347"/>
<stop offset="1" stop-color="#626163"/>
</linearGradient>
</defs>
</svg>
