<svg width="480" height="480" viewBox="0 0 480 480" fill="none" xmlns="http://www.w3.org/2000/svg">
<g clip-path="url(#clip0_26486_106387)">
<rect width="480" height="480" rx="8" fill="white"/>
<path d="M-312.48 1005.32C-233.19 1063.92 -135.69 1099.6 -37.1605 1104.09H-37.1405C-18.7205 1104.94 -0.260498 1104.69 18.1195 1103.3C41.4495 1084 63.2995 1063.25 84.0095 1041.41C88.6095 1036.56 93.1495 1031.66 97.6395 1026.71C106.65 1016.78 115.45 1006.64 124.07 996.32C143.82 972.7 162.59 948.17 180.78 923.1C188.73 912.15 196.55 901.1 204.28 889.98C213.44 876.85 222.47 863.61 231.42 850.32C232.63 848.53 233.84 846.75 235.03 844.96C251.59 820.33 267.94 795.55 284.38 770.94C288.63 764.57 292.9 758.2 297.18 751.86C313.02 728.35 329.44 704.05 340.15 678.04C346.28 663.12 350.539 647.65 351.729 631.44C353.099 612.77 350.28 594.22 346.17 575.87C344.12 566.73 341.76 557.62 339.42 548.58C334.84 530.85 330.39 513.05 326.27 495.18C313.98 441.9 304.689 387.96 304.209 333.4C264.699 309.66 223.829 286.05 183.199 264.28C173.349 274.99 173.279 283.5 158.719 283.55C131.249 312.57 100.18 338.16 66.4995 359.67C35.3595 379.58 1.97949 396.01 -32.8205 408.48C-42.4205 411.92 -52.1305 415.06 -61.9305 417.89C-82.7605 423.9 -104.54 428.78 -123.68 438.5C-129.38 441.38 -134.84 444.71 -139.98 448.62C-166.73 468.96 -180.3 501.82 -191.99 533.33C-192.11 533.64 -192.22 533.97 -192.35 534.28C-202.7 562.24 -212.53 590.45 -221.85 618.87C-230.33 644.8 -238.381 670.91 -245.961 697.17C-254.121 725.36 -261.73 753.73 -268.8 782.22C-271.02 791.15 -273.18 800.09 -275.29 809.04C-279.51 826.95 -283.51 844.9 -287.3 862.9C-295.33 901.11 -302.37 939.47 -308.37 977.91C-309.8 987.05 -311.16 996.19 -312.47 1005.32H-312.48Z" fill="url(#paint0_linear_26486_106387)"/>
<path d="M326.25 495.18C277.5 496.92 228.33 486.51 184.56 464.95C140.79 443.39 102.58 410.76 74.2395 371.07C71.5595 367.33 68.9695 363.53 66.4795 359.67C100.149 338.16 131.229 312.57 158.689 283.55C165.609 273.23 171.409 264.58 176.469 257.22C177.939 264.02 179.71 268.03 183.17 264.27C223.79 286.04 264.67 309.65 304.18 333.39C304.31 347.33 304.99 361.23 306.18 375.11C309.62 415.48 317.1 455.51 326.24 495.17L326.25 495.18Z" fill="url(#paint1_linear_26486_106387)"/>
<path style="mix-blend-mode:multiply" opacity="0.46" d="M306.18 375.12C271.71 358.51 233.79 349.1 195.55 347.76C154.05 346.31 112.24 354.37 74.2395 371.07C71.5595 367.33 68.9695 363.53 66.4795 359.67C100.149 338.16 131.229 312.57 158.689 283.55C165.609 273.23 171.409 264.58 176.469 257.22C177.939 264.02 179.71 268.03 183.17 264.27C223.79 286.04 264.67 309.65 304.18 333.39C304.31 347.33 304.99 361.23 306.18 375.11V375.12Z" fill="url(#paint2_linear_26486_106387)"/>
<path d="M126.83 207.44C151.18 268.57 224.02 324.37 256.79 340.4C283.36 353.4 311.8 362.56 341.01 367.3C355.78 369.69 372.23 370.62 384.37 361.89C394.98 354.26 399.81 341.02 403.04 328.35C428.71 227.94 384.83 134.05 354.26 95.95C307.93 92.97 255.37 117.79 220.89 148.87C186.42 179.95 116.5 181.47 126.84 207.43L126.83 207.44Z" fill="url(#paint3_linear_26486_106387)"/>
<path d="M318.76 244.18C318.72 243.58 318.76 242.96 318.8 242.36C319.78 228.03 320.76 213.7 321.74 199.37C322.17 193.16 321.97 187.15 321.37 180.91C321.06 177.66 321.16 172.81 319.33 169.94C318.45 168.56 320.18 166.95 321.53 167.74C327.62 171.3 332.91 177.34 338.04 182.17C343.73 187.53 349.38 192.91 355.12 198.22C366.58 208.82 378.4 219.12 388.35 231.2C390.6 233.93 390.34 239.37 386.01 240.07C369.11 242.81 351.97 244.69 334.93 246.2C332.2 246.44 320.8 248.62 319.35 246.29C318.95 245.66 318.8 244.93 318.75 244.18H318.76Z" fill="url(#paint4_linear_26486_106387)"/>
<path d="M392.16 162.42C383.72 172.19 371.16 179.44 357.66 182.03C350.32 183.44 342.62 183.55 335.77 186.55C325.89 190.88 319.53 200.4 312.55 208.61C293.11 231.46 264.88 246.43 235.2 250.5H235.18C231.41 251.01 227.63 251.35 223.84 251.51C218.83 251.72 213.8 251.62 208.79 251.17C204.67 250.81 200.55 250.24 196.42 249.6C194.49 249.31 192.56 248.99 190.63 248.68C182.14 247.29 173.66 245.88 165.28 245.64C164.6 245.62 163.91 245.6 163.23 245.6C160.26 245.58 157.31 245.72 154.37 246.07C151.62 246.39 148.89 246.91 146.17 247.66C143.7 244.98 141.64 242.31 139.97 239.62C139.47 238.82 139 238 138.56 237.19C136.43 233.24 135.12 229.24 134.49 225.12C136.12 223.06 137.78 221.03 139.49 219.02C140.47 217.85 141.47 216.7 142.49 215.55C168.76 185.74 202.65 162.31 238.94 144.72C254.54 137.16 270.58 130.63 286.92 124.89C293.08 122.72 299.29 120.66 305.53 118.7C325.26 112.51 345.33 107.3 365.47 102.64C367.8 105.77 370.02 109.04 372.12 112.43C372.78 113.5 373.44 114.59 374.07 115.69C375.85 118.74 377.54 121.88 379.12 125.09C379.69 126.26 380.26 127.42 380.8 128.6C381.23 129.53 381.65 130.46 382.06 131.41C383.32 134.25 384.49 137.15 385.59 140.08C386.02 141.24 386.44 142.4 386.85 143.58C387.71 146.07 388.52 148.58 389.27 151.12C389.62 152.31 389.96 153.5 390.28 154.7C390.98 157.26 391.62 159.83 392.19 162.43L392.16 162.42Z" fill="url(#paint5_linear_26486_106387)"/>
<path style="mix-blend-mode:lighten" opacity="0.73" d="M245.44 136.69C239.8 136.1 233.8 135.88 228.34 137.67C225.58 138.57 215.02 144.56 220.63 148.19C222.11 149.15 224.02 149.02 225.78 148.88C247.16 147.19 268.79 148.76 289.7 153.53C291.78 154 297.68 154.48 295.61 150.56C295.12 149.62 294.24 148.96 293.35 148.38C287.46 144.5 279.63 142.8 272.82 141.24C263.8 139.17 254.65 137.65 245.44 136.68V136.69Z" fill="url(#paint6_linear_26486_106387)"/>
<path d="M274.65 176.02C274.65 176.5 274.68 176.96 274.74 177.42C275.21 180.85 277.13 183.9 279.36 186.56C282.1 189.84 285.34 192.68 288.94 194.97C291.26 196.45 293.91 197.73 296.64 197.41C299.54 197.06 301.95 194.84 303.07 192.12C303.33 191.48 303.54 190.82 303.65 190.14C305.32 180.45 289.27 162.3 278.58 168.42C275.99 169.92 274.65 172.99 274.64 176.01L274.65 176.02Z" fill="url(#paint7_linear_26486_106387)"/>
<path d="M300.859 187.26C300.769 187.34 300.669 187.41 300.559 187.48C299.619 188.08 298.379 187.93 297.329 187.54C294.559 186.49 290.669 182.07 292.169 178.91C293.469 176.16 297.429 176.8 299.289 178.57C301.149 180.34 303.459 185.18 300.859 187.27V187.26Z" fill="url(#paint8_linear_26486_106387)"/>
<path style="mix-blend-mode:multiply" d="M274.649 176.02C276.399 173.81 279.069 172.33 281.899 172.14C285.279 171.93 288.549 173.46 291.309 175.41C296.979 179.42 301.169 185.45 303.079 192.12C303.339 191.48 303.549 190.82 303.659 190.14C305.329 180.45 289.279 162.3 278.589 168.42C275.999 169.92 274.659 172.99 274.649 176.01V176.02Z" fill="url(#paint9_linear_26486_106387)"/>
<path d="M330.08 150.62C333.35 154.6 337.36 157.97 341.84 160.5C344.78 162.16 348.57 163.43 351.39 161.58C353.71 160.05 354.3 157.07 354.05 154.19C353.99 153.35 353.84 152.5 353.64 151.7C352.01 145.1 347.51 138.07 342.02 133.95C336.81 130.03 328.26 130.25 325.99 137.31C325.97 137.35 325.95 137.4 325.94 137.44C324.53 142.03 327.03 146.9 330.08 150.61V150.62Z" fill="url(#paint10_linear_26486_106387)"/>
<path d="M351.6 152.76C351.51 152.84 351.41 152.91 351.3 152.98C350.36 153.58 349.12 153.43 348.07 153.04C345.3 151.99 341.41 147.57 342.91 144.41C344.21 141.66 348.17 142.3 350.03 144.07C351.89 145.84 354.2 150.68 351.6 152.77V152.76Z" fill="url(#paint11_linear_26486_106387)"/>
<path style="mix-blend-mode:multiply" d="M325.99 137.32C328.47 135.82 331.62 135.32 334.51 135.83C338.72 136.57 342.43 139.12 345.5 142.09C349.07 145.55 351.981 149.68 354.041 154.2C353.981 153.36 353.83 152.51 353.63 151.71C352 145.11 347.5 138.08 342.01 133.96C336.8 130.04 328.25 130.26 325.98 137.32H325.99Z" fill="url(#paint12_linear_26486_106387)"/>
<path d="M253.88 268.271C257.96 273.451 262.24 278.471 266.72 283.311C284.23 302.231 304.81 318.421 327.87 330.021C330.26 331.221 332.97 332.411 335.54 331.651C338.45 330.791 340.1 327.781 341.39 325.031C343.96 319.601 346.4 314.111 348.74 308.571C349.01 307.931 349.29 307.281 349.55 306.631C351.74 301.351 353.83 296.031 355.82 290.661C357.19 286.971 356.72 284.861 355.26 283.651C352.58 281.461 346.58 282.231 342.29 281.731C331.16 280.441 320.08 278.621 309.11 276.301C289.94 272.221 271.5 266.161 252.96 259.881C245.14 257.231 252.43 266.421 253.88 268.261V268.271Z" fill="url(#paint13_linear_26486_106387)"/>
<path style="mix-blend-mode:lighten" opacity="0.73" d="M320.43 135C319.68 136.88 318.69 138.71 317.05 139.06C312.37 140.06 314.67 131.55 314.99 129.49C315.72 124.82 316.78 120.2 318.15 115.67C319.9 109.89 322.15 104.26 324.88 98.8704C326.65 95.3804 329.77 86.8604 335.12 88.5504C338.61 89.6504 342.51 93.9204 341.4 97.8204C340.96 99.3504 339.99 100.67 339.06 101.96C334.62 108.11 330.58 114.55 326.95 121.21C325.1 124.62 323.35 128.09 321.72 131.61C321.32 132.47 320.93 133.74 320.44 134.98L320.43 135Z" fill="url(#paint14_linear_26486_106387)"/>
<path style="mix-blend-mode:multiply" opacity="0.36" d="M382.02 131.4C255.61 163.17 234.76 213.94 165.25 245.64C164.57 245.62 163.88 245.6 163.2 245.6C160.23 245.58 157.28 245.72 154.34 246.07C151.59 246.39 148.86 246.91 146.14 247.66C143.67 244.98 141.61 242.31 139.94 239.62C139.44 238.82 138.97 238 138.53 237.19C136.4 233.24 135.09 229.24 134.46 225.12C136.09 223.06 137.75 221.03 139.46 219.02C140.44 217.85 141.44 216.7 142.46 215.55C168.73 185.74 202.62 162.31 238.91 144.72C254.51 137.16 270.55 130.63 286.89 124.89C293.05 122.72 299.26 120.66 305.5 118.7C325.23 112.51 345.3 107.3 365.44 102.64C367.77 105.77 369.99 109.04 372.09 112.43C372.75 113.5 373.41 114.59 374.04 115.69C375.82 118.74 377.51 121.88 379.09 125.09C379.66 126.26 380.23 127.42 380.77 128.6C381.2 129.53 381.62 130.46 382.03 131.41L382.02 131.4Z" fill="url(#paint15_linear_26486_106387)"/>
<path d="M221.42 153.97C243.74 154.7 269.27 155.7 289.21 146.12C305.86 132.55 323.08 118.49 343.63 112.24C361.1 106.92 378.98 103.01 396.53 97.96C400.86 96.71 402.04 91.09 398.54 88.25C390.16 81.43 379.98 76.83 369.34 75.25C314.38 78.6 261.34 106.13 221.42 153.98V153.97Z" fill="url(#paint16_linear_26486_106387)"/>
<path d="M178.27 48.3404C178.84 40.1904 184.56 32.6404 192.24 29.8604C199.92 27.0904 209.14 29.2504 214.79 35.1404C202.9 39.8604 191 44.5804 178.27 48.3304V48.3404Z" fill="url(#paint17_linear_26486_106387)"/>
<path style="mix-blend-mode:multiply" d="M254.79 264.88C261.67 269.71 268.79 274.26 276.1 278.41C288.81 285.65 302.04 292.05 315.6 297.51C322.43 300.27 329.36 302.77 336.39 304.95C340.45 306.21 344.58 307.51 348.74 308.58C349.01 307.94 349.29 307.29 349.55 306.64C348.51 306.37 347.47 306.09 346.43 305.81C342.52 304.73 338.64 303.58 334.77 302.34C320.68 297.83 306.76 292.65 293.44 286.19C280.2 279.77 267.43 272.39 255.14 264.29C254.76 264.04 254.43 264.64 254.78 264.88H254.79Z" fill="url(#paint18_linear_26486_106387)"/>
<path d="M393.69 67.8301C393.35 69.8001 392.56 71.6501 391.43 73.2901C390.82 74.1801 390.12 75.0001 389.34 75.7301C389.17 75.9001 388.99 76.0601 388.82 76.2201C382.96 81.3801 375.37 82.4801 368.04 83.7101C340.95 88.2401 314.01 95.7001 290.24 109.46C262.44 125.55 196.15 204.17 134.88 227.44C114.48 207.42 103.73 187.77 94.1898 162.1C92.2098 156.77 92.4199 150.88 94.7099 145.68C102.88 127.18 112.54 109.7 124.16 94.0401C127.3 89.8001 130.58 85.7001 134.02 81.7501C150.02 63.3201 169.33 48.1301 192.89 37.8001C222.55 24.8001 319.98 16.5401 379.45 48.3201C387.06 52.3901 395.25 58.7601 393.7 67.8401L393.69 67.8301Z" fill="url(#paint19_linear_26486_106387)"/>
<path style="mix-blend-mode:multiply" opacity="0.23" d="M389.35 75.7305C389.18 75.9005 389 76.0605 388.83 76.2205C382.97 81.3805 375.38 82.4805 368.05 83.7105C340.96 88.2405 314.02 95.7005 290.25 109.46C262.45 125.55 196.16 204.17 134.89 227.44C114.49 207.42 103.74 187.77 94.1996 162.1C92.2196 156.77 92.4296 150.88 94.7196 145.68C102.89 127.18 112.55 109.7 124.17 94.0405C127.31 89.8005 130.59 85.7005 134.03 81.7505C133.2 88.9405 133.23 96.1905 134.44 103.36C137.6 122.16 150.39 140.22 168.79 145.21C188.71 150.6 209.18 140.17 226.94 129.66C255.84 112.55 284.94 93.9105 317.97 87.8905C336.6 84.5005 355.86 85.2705 374.28 80.9205C379.38 79.7205 384.5 77.9905 389.35 75.7305Z" fill="url(#paint20_linear_26486_106387)"/>
<path d="M68.9894 355.661C110.629 423.621 181.589 469.801 258.919 486.341C270.459 488.811 282.119 490.561 293.879 491.561C305.979 492.581 318.089 492.081 330.169 492.871C332.829 493.041 333.839 497.381 330.839 497.851C310.079 501.151 287.399 498.441 266.769 495.281C245.169 491.971 224.119 486.181 203.859 477.961C166.539 462.831 132.809 439.801 104.629 411.051C89.0394 395.161 75.4994 377.581 63.4994 358.851C61.2994 355.411 66.8394 352.161 68.9794 355.651L68.9894 355.661Z" fill="url(#paint21_linear_26486_106387)"/>
<path style="mix-blend-mode:multiply" opacity="0.32" d="M-123.7 438.5C-60.8902 504.38 9.49985 563.53 89.2798 607.18C166.44 649.4 252.53 675.331 340.13 678.031C346.26 663.111 350.52 647.64 351.71 631.43C353.08 612.76 350.26 594.21 346.15 575.86C274.26 582.05 200.84 569.92 134.87 540.72C69.0798 511.61 10.8798 465.6 -32.8302 408.48C-42.4302 411.92 -52.1402 415.061 -61.9402 417.891C-82.7702 423.901 -104.55 428.78 -123.69 438.5H-123.7Z" fill="url(#paint22_linear_26486_106387)"/>
<path style="mix-blend-mode:multiply" opacity="0.83" d="M179.8 58.9302C179.64 58.3302 179.16 57.8802 178.57 57.7002C176.66 57.2702 176.09 59.4702 174.7 61.0302C173.51 62.3902 169.99 67.8802 168.14 70.8302C157.86 86.9002 149.97 104.47 144.86 122.85C139.76 140.66 136.89 157.28 135.96 175.23C135.67 181.38 135.63 187.54 136 193.69C136.16 195.98 136.36 198.28 136.69 200.55C136.91 201.54 136.87 202.67 137.42 203.54C138.31 204.75 140.35 203.79 139.92 202.3C137.9 190.24 138.76 174.76 140.25 161.35C143.59 134.54 151.91 105.43 165.91 81.4202C169.29 75.6802 172.83 70.0302 176.63 64.5602C177.43 63.4002 178.19 62.2002 179.04 61.0702C179.53 60.4502 180.06 59.7602 179.8 58.9302Z" fill="url(#paint23_linear_26486_106387)"/>
<path style="mix-blend-mode:multiply" opacity="0.83" d="M226.34 147.57C225.84 146.65 225.34 145.73 224.85 144.81C215.76 127.85 209.08 111.58 203.51 93.0103C200.04 81.3303 197.3 69.4302 195.09 57.4502C194.86 56.1502 194.55 54.1303 194.53 53.9603C194.49 53.4703 194.46 52.9503 194.08 52.6003C193.25 51.7203 191.62 52.3703 191.66 53.6003C196.66 87.1603 207.72 119.84 224.09 149.56C224.68 150.65 226.48 150.44 226.77 149.21C226.94 148.61 226.65 148.07 226.34 147.57Z" fill="url(#paint24_linear_26486_106387)"/>
<path d="M176.88 291.96C138.65 290.54 121.04 256.04 131.56 246.84C155.59 225.83 183.25 260.59 188.5 275.65C190.37 281.01 191.79 292.51 176.88 291.96Z" fill="url(#paint25_linear_26486_106387)"/>
<path style="mix-blend-mode:multiply" opacity="0.82" d="M175.28 274.55C174.07 273.03 172.81 271.54 171.57 270.04C166.26 263.83 156.68 250.92 148.35 249.86C144.58 249.89 143.66 251.84 142.71 255.12C142.01 258.52 141.88 262.02 141.92 265.49C141.94 266.28 141.82 267.19 142.46 267.78C143.5 268.89 145.54 268.05 145.49 266.53C145.75 261.66 146.51 255.73 147.72 254.48C147.79 254.46 147.87 254.44 147.94 254.42C147.95 254.42 147.96 254.42 147.97 254.42C148.19 254.42 148.36 254.44 148.46 254.44C148.87 254.53 149.42 254.71 149.7 254.81C153.39 256.56 154.51 257.94 157.8 260.86C158.26 261.28 158.75 261.74 159.25 262.23C158.73 263.07 158.36 264.07 157.88 264.87C156.68 267.35 155.74 269.97 155.5 272.73C155.45 273.58 155.19 274.52 155.53 275.33C156.19 277.09 158.94 276.52 158.9 274.65C159.06 273.03 160.68 268.72 161.67 266.87C161.92 266.41 162.17 265.96 162.43 265.51C165.5 268.82 168.56 272.46 169.88 274.24C170.44 274.96 172.73 277.99 172.04 277.09C172.44 277.68 172.86 278.31 173.6 278.48C174.89 278.87 176.28 277.8 176.26 276.45C176.13 274.96 175.32 274.76 175.28 274.52V274.55Z" fill="url(#paint26_linear_26486_106387)"/>
<path style="mix-blend-mode:multiply" opacity="0.83" d="M339.37 78.6002C338.98 77.9902 338.23 77.7302 337.66 77.3102C335.2 75.7002 332.64 74.2202 330.03 72.8702C318.95 67.1202 306.95 63.0902 294.12 59.5102C274.8 54.1202 254.81 51.6002 234.83 50.2502C225.61 49.6702 216.36 49.2502 207.13 49.7702C205.52 49.7902 205.4 52.2902 207.13 52.3302C225.98 51.8702 246.22 53.6802 263.61 56.1402C284.68 59.0902 308.33 66.0202 325.21 73.8002C328.65 75.4002 331.98 77.2302 335.19 79.2602C336.39 79.8202 337.61 81.5702 338.98 80.5402C339.59 80.1202 339.74 79.2302 339.37 78.5902V78.6002Z" fill="url(#paint27_linear_26486_106387)"/>
</g>
<defs>
<linearGradient id="paint0_linear_26486_106387" x1="69.8095" y1="1089.29" x2="-36.3605" y2="486.5" gradientUnits="userSpaceOnUse">
<stop stop-color="#454347"/>
<stop offset="1" stop-color="#626163"/>
</linearGradient>
<linearGradient id="paint1_linear_26486_106387" x1="185.609" y1="455.65" x2="277.689" y2="214.01" gradientUnits="userSpaceOnUse">
<stop stop-color="#FFC493"/>
<stop offset="1" stop-color="#FFB073"/>
</linearGradient>
<linearGradient id="paint2_linear_26486_106387" x1="66.4895" y1="316.17" x2="306.18" y2="316.17" gradientUnits="userSpaceOnUse">
<stop stop-color="#FFC493"/>
<stop offset="1" stop-color="#FFB073"/>
</linearGradient>
<linearGradient id="paint3_linear_26486_106387" x1="473.82" y1="331.25" x2="256.14" y2="186.13" gradientUnits="userSpaceOnUse">
<stop stop-color="#FFC493"/>
<stop offset="1" stop-color="#FFB073"/>
</linearGradient>
<linearGradient id="paint4_linear_26486_106387" x1="374.05" y1="238.03" x2="288.99" y2="188.94" gradientUnits="userSpaceOnUse">
<stop stop-color="#FF9762"/>
<stop offset="1" stop-color="#FFB073"/>
</linearGradient>
<linearGradient id="paint5_linear_26486_106387" x1="221.02" y1="169.72" x2="469.84" y2="208.62" gradientUnits="userSpaceOnUse">
<stop stop-color="#454347"/>
<stop offset="1" stop-color="#626163"/>
</linearGradient>
<linearGradient id="paint6_linear_26486_106387" x1="257.009" y1="152.976" x2="258.16" y2="142.95" gradientUnits="userSpaceOnUse">
<stop stop-color="#FFF4EF"/>
<stop offset="1" stop-color="#F6DFD7"/>
</linearGradient>
<linearGradient id="paint7_linear_26486_106387" x1="305.58" y1="190.26" x2="277.75" y2="176.16" gradientUnits="userSpaceOnUse">
<stop stop-color="#FFF4EF"/>
<stop offset="1" stop-color="#F6DFD7"/>
</linearGradient>
<linearGradient id="paint8_linear_26486_106387" x1="306.879" y1="185.65" x2="292.299" y2="180.79" gradientUnits="userSpaceOnUse">
<stop stop-color="#363636"/>
<stop offset="1" stop-color="#131313"/>
</linearGradient>
<linearGradient id="paint9_linear_26486_106387" x1="303.769" y1="179.66" x2="274.639" y2="179.66" gradientUnits="userSpaceOnUse">
<stop stop-color="#FFF4EF"/>
<stop offset="1" stop-color="#D7C2BB"/>
</linearGradient>
<linearGradient id="paint10_linear_26486_106387" x1="356.18" y1="153.26" x2="325.17" y2="139.87" gradientUnits="userSpaceOnUse">
<stop stop-color="#FFF4EF"/>
<stop offset="1" stop-color="#F6DFD7"/>
</linearGradient>
<linearGradient id="paint11_linear_26486_106387" x1="357.62" y1="151.14" x2="343.04" y2="146.28" gradientUnits="userSpaceOnUse">
<stop stop-color="#363636"/>
<stop offset="1" stop-color="#131313"/>
</linearGradient>
<linearGradient id="paint12_linear_26486_106387" x1="339.19" y1="147.12" x2="344.61" y2="137.13" gradientUnits="userSpaceOnUse">
<stop stop-color="#FFF4EF"/>
<stop offset="1" stop-color="#D7C2BB"/>
</linearGradient>
<linearGradient id="paint13_linear_26486_106387" x1="329.56" y1="328.101" x2="296.07" y2="259.221" gradientUnits="userSpaceOnUse">
<stop stop-color="#FFF4EF"/>
<stop offset="1" stop-color="#F6DFD7"/>
</linearGradient>
<linearGradient id="paint14_linear_26486_106387" x1="330.663" y1="115.98" x2="318.667" y2="111.648" gradientUnits="userSpaceOnUse">
<stop stop-color="#FFF4EF"/>
<stop offset="1" stop-color="#F6DFD7"/>
</linearGradient>
<linearGradient id="paint15_linear_26486_106387" x1="216.43" y1="169" x2="450.2" y2="205.55" gradientUnits="userSpaceOnUse">
<stop stop-color="#454347"/>
<stop offset="1" stop-color="#626163"/>
</linearGradient>
<linearGradient id="paint16_linear_26486_106387" x1="367.76" y1="185.74" x2="297.61" y2="107.21" gradientUnits="userSpaceOnUse">
<stop stop-color="#363636"/>
<stop offset="1" stop-color="#131313"/>
</linearGradient>
<linearGradient id="paint17_linear_26486_106387" x1="214.35" y1="46.7204" x2="194.77" y2="39.9504" gradientUnits="userSpaceOnUse">
<stop stop-color="#363636"/>
<stop offset="1" stop-color="#131313"/>
</linearGradient>
<linearGradient id="paint18_linear_26486_106387" x1="298.01" y1="337.91" x2="302.19" y2="284.26" gradientUnits="userSpaceOnUse">
<stop stop-color="#FFF4EF"/>
<stop offset="1" stop-color="#F6DFD7"/>
</linearGradient>
<linearGradient id="paint19_linear_26486_106387" x1="254.49" y1="46.5601" x2="224.16" y2="218.6" gradientUnits="userSpaceOnUse">
<stop stop-color="#363636"/>
<stop offset="1" stop-color="#131313"/>
</linearGradient>
<linearGradient id="paint20_linear_26486_106387" x1="300.12" y1="28.3005" x2="142.45" y2="233.92" gradientUnits="userSpaceOnUse">
<stop stop-color="#363636"/>
<stop offset="1" stop-color="#131313"/>
</linearGradient>
<linearGradient id="paint21_linear_26486_106387" x1="217.789" y1="377.011" x2="160.709" y2="518.571" gradientUnits="userSpaceOnUse">
<stop stop-color="#363636"/>
<stop offset="1" stop-color="#131313"/>
</linearGradient>
<linearGradient id="paint22_linear_26486_106387" x1="352.06" y1="543.26" x2="-123.7" y2="543.26" gradientUnits="userSpaceOnUse">
<stop stop-color="#454347"/>
<stop offset="1" stop-color="#626163"/>
</linearGradient>
<linearGradient id="paint23_linear_26486_106387" x1="135.74" y1="130.87" x2="179.88" y2="130.87" gradientUnits="userSpaceOnUse">
<stop stop-color="#454347"/>
<stop offset="1" stop-color="#626163"/>
</linearGradient>
<linearGradient id="paint24_linear_26486_106387" x1="191.66" y1="101.23" x2="226.82" y2="101.23" gradientUnits="userSpaceOnUse">
<stop stop-color="#454347"/>
<stop offset="1" stop-color="#626163"/>
</linearGradient>
<linearGradient id="paint25_linear_26486_106387" x1="387.64" y1="416.22" x2="191.02" y2="287.34" gradientUnits="userSpaceOnUse">
<stop stop-color="#FFC493"/>
<stop offset="1" stop-color="#FFB073"/>
</linearGradient>
<linearGradient id="paint26_linear_26486_106387" x1="141.92" y1="264.23" x2="176.26" y2="264.23" gradientUnits="userSpaceOnUse">
<stop stop-color="#FFC493"/>
<stop offset="1" stop-color="#FFB073"/>
</linearGradient>
<linearGradient id="paint27_linear_26486_106387" x1="205.88" y1="65.2002" x2="339.57" y2="65.2002" gradientUnits="userSpaceOnUse">
<stop stop-color="#454347"/>
<stop offset="1" stop-color="#626163"/>
</linearGradient>
<clipPath id="clip0_26486_106387">
<rect width="480" height="480" rx="8" fill="white"/>
</clipPath>
</defs>
</svg>
