<svg width="480" height="480" viewBox="0 0 480 480" fill="none" xmlns="http://www.w3.org/2000/svg">
<g clip-path="url(#clip0_26486_105777)">
<rect width="480" height="480" rx="8" fill="white"/>
<path opacity="0.97" d="M355.11 643.409C354.9 615.069 353.61 586.749 351.79 558.469C350.11 531.439 347.64 504.459 343.8 477.649C342 464.449 339.86 451.289 337.63 438.149C337.51 434.319 331.81 434.499 332.49 438.649C337.19 465.339 340.76 489.229 343.55 515.369C345.9 539.009 347.32 562.739 348.55 586.469C349.54 607.779 350.27 629.119 350.24 650.459C350.18 674.759 349.38 699.059 348.74 723.349C348.58 729.939 348.32 736.539 348.4 743.139C348.45 744.479 348.43 745.819 348.45 747.159C348.36 748.009 348.72 748.949 349.58 749.249C350.71 749.799 352.18 748.829 352.13 747.559C352.27 745.419 352.34 744.739 352.42 743.829C352.94 738.009 353.08 732.159 353.34 726.329C354.32 698.709 355.24 671.069 355.11 643.429V643.409Z" fill="url(#paint0_linear_26486_105777)"/>
<path d="M337.6 467.31C335.55 480 335.16 492.79 335.68 505.66C336.75 533.19 341.92 561.01 343.58 588.71C344.23 599.53 344.35 610.32 343.49 621.08C343.33 622.97 343.15 624.86 342.93 626.76C341.33 640.79 337.98 654.32 333.41 667.49C324.07 694.42 309.62 719.83 294.49 744.81C287.01 757.15 279.37 769.39 272.1 781.66C266.53 791.06 261.15 800.57 255.97 810.17C242.45 835.13 230.25 860.75 219.5 886.78C213.1 902.26 207.34 916.24 201.95 928.96C188.08 961.62 176.58 986.02 162.77 1006.22C152.69 1020.98 141.38 1033.5 127.04 1045.37C112.73 1057.22 95.38 1068.41 73.21 1080.53C70.27 1082.56 67.23 1084.43 64.08 1086.15C61.76 1087.42 59.38 1088.61 56.95 1089.71C54.76 1090.71 52.52 1091.64 50.24 1092.5C40.26 1096.3 29.5 1098.79 18.1 1100.03C16.65 1100.19 15.18 1100.2 13.72 1100.11C-97.34 1092.43 -206.31 1056.43 -298.88 994.75C-301.47 993.02 -303.59 990.68 -305.01 987.91C-313.41 971.57 -318.04 953.9 -319.72 935.71C-322.86 902.02 -315.92 866.54 -304.12 834.43C-302.93 831.2 -301.7 827.98 -300.42 824.79C-294.76 810.53 -288.32 796.61 -281.59 782.81C-280.57 780.72 -279.54 778.63 -278.51 776.54C-263.79 746.8 -248.03 717.5 -236.06 686.58C-235.16 684.25 -234.27 681.9 -233.42 679.56C-225.42 657.79 -219.14 635.43 -212.77 613.09C-207.5 594.59 -202.17 576.1 -195.77 557.98C-190.08 541.87 -183.37 525.86 -175.2 510.7C-162.7 487.49 -146.75 466.28 -125.73 449.79C-123.14 447.75 -120.19 446.21 -117.07 445.15C-112.03 443.44 -107.01 441.67 -102.01 439.84C-85.17 433.71 -68.55 426.96 -52.14 419.61C-36.14 412.44 -20.33 404.7 -4.75 396.37C15.71 385.43 35.8 373.49 55.49 360.56C65.65 353.89 75.7 346.95 85.64 339.75C85.68 339.72 85.72 339.69 85.76 339.66C72.43 332.08 61.64 320.1 55.31 308.38C55 307.82 54.78 307.21 54.65 306.58C50.42 287.35 47.94 267.76 47.14 248.07C46.21 225.1 47.58 202.03 51.17 179.27C54.61 157.32 60.13 135.67 67.63 114.72C71.1 105.05 74.98 95.5296 79.29 86.1996C79.33 86.1196 79.37 86.0297 79.4 85.9397C80.55 83.4397 82.44 81.3397 84.84 79.9997C86.97 78.8097 89.12 77.6396 91.27 76.5096C91.95 76.1296 92.63 75.7696 93.31 75.4197C120.98 60.9397 150.46 49.9997 180.75 42.6597C237.54 28.8997 297.18 27.8097 353.08 39.8497C353.69 39.9897 354.3 40.1097 354.91 40.2497C357.8 40.8897 360.37 42.5096 362.16 44.8696C374.76 61.3896 385.41 79.3396 393.86 97.9596C403.03 118.12 409.63 139.04 413.33 159.68C413.41 160.1 413.48 160.51 413.56 160.94C413.75 162.02 413.85 163.12 413.88 164.22C414.26 184.13 413.61 204.07 411.93 223.92C405.08 304.88 381.18 384.62 340.76 457.11C339.48 459.41 338.57 461.9 338.09 464.48C337.92 465.43 337.76 466.37 337.61 467.31H337.6Z" fill="url(#paint1_linear_26486_105777)"/>
<path d="M393.86 97.9396C390.11 104.24 386.13 110.41 381.94 116.43C376.48 107.21 370.2 98.3996 363.03 90.1096C359.45 85.9796 354.93 82.7896 349.88 80.7396C352.68 67.4496 353.74 53.6396 353.07 39.8496C353.68 39.9896 354.29 40.1096 354.9 40.2496C357.79 40.8896 360.36 42.5096 362.15 44.8696C374.75 61.3896 385.4 79.3396 393.85 97.9596L393.86 97.9396Z" fill="url(#paint2_linear_26486_105777)"/>
<path d="M411.92 223.9C411.68 223.94 411.45 223.97 411.21 224C410.58 204.59 407.95 185.48 403.05 167.18C406.62 164.88 410.06 162.37 413.34 159.67C413.42 160.09 413.49 160.5 413.57 160.93C413.76 162.01 413.86 163.11 413.89 164.21C414.27 184.12 413.62 204.06 411.94 223.91L411.92 223.9Z" fill="url(#paint3_linear_26486_105777)"/>
<path d="M315.29 91.0997C298.59 113.34 283.85 137.07 270.62 161.89C213.59 122.75 147.63 96.7096 79.2695 86.1796C79.3095 86.0996 79.3495 86.0096 79.3795 85.9196C80.5295 83.4196 82.4195 81.3196 84.8195 79.9796C86.9495 78.7896 89.0995 77.6197 91.2495 76.4897C91.9295 76.1097 92.6095 75.7496 93.2895 75.3996C120.959 60.9196 150.439 49.9796 180.729 42.6396C228.339 48.9496 274.6 65.5196 315.27 91.0896L315.29 91.0997Z" fill="url(#paint4_linear_26486_105777)"/>
<path d="M263.54 339.11C186.16 324.08 111.98 292.83 47.1196 248.05C46.1896 225.08 47.5596 202.01 51.1496 179.25C116.63 206.05 185.57 224.4 255.72 233.68C252.17 268.85 257.86 304.21 263.55 339.11H263.54Z" fill="url(#paint5_linear_26486_105777)"/>
<path d="M335.67 505.65C229.77 489.799 129.49 437.929 55.46 360.539C65.62 353.869 75.6699 346.929 85.6099 339.729C116.01 356.819 148.51 370.159 183.35 378.349C237.6 428.079 292.45 462.169 337.59 467.299C335.54 479.989 335.15 492.78 335.67 505.65Z" fill="url(#paint6_linear_26486_105777)"/>
<path d="M343.49 621.07C343.33 622.96 343.15 624.85 342.93 626.75C341.33 640.78 337.98 654.31 333.41 667.48C169.46 638.89 15.0097 558.11 -102.03 439.82C-85.1903 433.69 -68.5702 426.94 -52.1602 419.59C-36.1602 412.42 -20.3503 404.68 -4.77026 396.35C81.5097 490.82 216.49 564.49 343.57 588.71C344.22 599.53 344.34 610.32 343.48 621.08L343.49 621.07Z" fill="url(#paint7_linear_26486_105777)"/>
<path style="mix-blend-mode:multiply" opacity="0.26" d="M256.9 413.159C101.92 362.819 30.4998 389.46 -22.6402 411.27C-32.0202 415.12 -42.1102 417.65 -52.1602 419.58C-4.23016 398.11 41.8398 371.45 85.7398 339.63C72.4098 332.05 61.6198 320.07 55.2898 308.35C54.9798 307.79 54.7598 307.179 54.6298 306.549C40.7198 243.249 45.6698 175.969 67.6098 114.689C71.1098 104.929 75.0298 95.3295 79.3798 85.9095C80.5298 83.4095 82.4198 81.3095 84.8198 79.9695C86.9498 78.7795 89.0998 77.6095 91.2498 76.4795C54.5398 167.319 50.8198 319.26 256.89 413.14L256.9 413.159Z" fill="url(#paint8_linear_26486_105777)"/>
<path style="mix-blend-mode:multiply" opacity="0.26" d="M268.57 417.85C264.65 416.38 260.76 414.81 256.9 413.17C260.79 414.73 264.68 416.29 268.57 417.85Z" fill="url(#paint9_linear_26486_105777)"/>
<path style="mix-blend-mode:multiply" opacity="0.63" d="M312.88 443.36C311.94 447.2 307.72 449.91 303.84 449.15C299.96 448.4 297.06 444.3 297.62 440.4C298.19 436.49 302.14 433.39 306.07 433.77C310 434.15 314.17 438.09 312.88 443.36Z" fill="url(#paint10_linear_26486_105777)"/>
<path style="mix-blend-mode:multiply" opacity="0.58" d="M311.089 75.1895C321.669 73.4595 335.419 75.4695 348.529 80.2095C354.119 82.2295 359.149 85.6195 363.039 90.1195C396.479 128.809 410.779 178.659 411.349 230.279C412.299 315.619 372.729 399.229 321.469 416.77C285.509 363.06 274.199 292.889 289.969 230.209C295.919 206.529 305.579 183.929 311.889 160.339C318.199 136.749 325.509 109.279 311.099 75.1895H311.089Z" fill="url(#paint11_linear_26486_105777)"/>
<path d="M321.469 416.77C294.749 401.88 267.509 373.03 251.939 344.13C249.489 339.6 247.33 335.06 245.51 330.58C241.59 320.95 238.54 311.01 236.31 300.89C237.1 299.64 237.979 298.48 238.959 297.41C240.999 295.18 243.36 293.34 245.92 291.83C266.54 303.62 287.02 315.67 307.14 327.77C305.43 347.45 307.66 366.28 311.79 384.09C314.41 395.41 317.809 406.32 321.459 416.77H321.469Z" fill="url(#paint12_linear_26486_105777)"/>
<path style="mix-blend-mode:multiply" opacity="0.53" d="M311.8 384.09C294.87 366.85 274.359 353.12 251.939 344.13C249.489 339.6 247.33 335.06 245.51 330.58C241.59 320.95 238.54 311.01 236.31 300.89C237.1 299.64 237.979 298.48 238.959 297.41C240.999 295.18 243.36 293.34 245.92 291.83C266.54 303.62 287.02 315.67 307.14 327.77C305.43 347.45 307.66 366.28 311.79 384.09H311.8Z" fill="url(#paint13_linear_26486_105777)"/>
<path d="M406 322.729C402.76 335.399 397.94 348.629 387.33 356.269C362.6 374.059 297.18 353.049 259.75 334.769C254.39 332.149 249.11 329.369 243.9 326.439C243.87 326.359 243.85 326.299 243.82 326.219C240.75 318.069 238.29 309.729 236.39 301.249C235.93 299.209 235.5 297.149 235.11 295.089V295.069C234.45 291.629 233.88 288.169 233.41 284.699C232.97 281.479 232.61 278.239 232.31 274.989C230.25 251.779 232.03 228.149 237.07 205.389C242.05 182.899 250.09 161.229 260.37 140.589C262.08 137.139 263.87 133.729 265.7 130.339C273.13 116.629 281.52 103.409 290.6 90.7494C295.21 84.3194 300.59 77.6194 308.27 75.6894C317.15 73.4594 326.88 77.4694 333.6 83.6894C358.43 106.639 376.12 130.319 388.48 153.699C392.03 160.409 395.13 167.089 397.85 173.719C400.08 179.179 402.05 184.609 403.77 189.989C420.9 243.519 413.81 292.319 406.02 322.739L406 322.729Z" fill="url(#paint14_linear_26486_105777)"/>
<path d="M318.83 128.22C318.42 129.83 317.8 131.44 316.49 131.9C312.76 133.21 313.75 126 313.8 124.28C313.91 120.38 314.29 116.48 314.93 112.63C315.75 107.71 317.01 102.87 318.68 98.17C319.76 95.12 321.42 87.82 325.98 88.64C328.96 89.18 332.59 92.26 332.09 95.57C331.89 96.87 331.24 98.05 330.61 99.21C327.62 104.72 324.98 110.41 322.72 116.25C321.56 119.24 320.5 122.26 319.53 125.32C319.29 126.07 319.11 127.15 318.83 128.22Z" fill="url(#paint15_linear_26486_105777)"/>
<path d="M286.95 144.41C278.22 142.4 269.33 141.12 260.36 140.6C262.07 137.15 263.86 133.74 265.69 130.35C267.76 130.76 269.84 131.19 271.9 131.67C278.09 133.11 285.22 134.65 290.48 138.65C291.27 139.25 292.05 139.94 292.47 140.94C294.24 145.13 288.83 144.84 286.94 144.41H286.95Z" fill="url(#paint16_linear_26486_105777)"/>
<path style="mix-blend-mode:multiply" opacity="0.49" d="M403.75 189.98C395.41 173.36 385.57 157.48 374.38 142.64C364.9 130.06 352.55 117.25 336.8 116.74C322.77 116.28 311.07 126.41 300.66 135.83C218.62 210.12 238.18 301.17 243.89 326.45C243.87 326.38 243.85 326.31 243.81 326.23C240.74 318.08 238.28 309.74 236.38 301.26C235.92 299.22 235.49 297.16 235.1 295.1V295.08C234.44 291.64 233.87 288.18 233.4 284.71C232.96 281.49 232.6 278.25 232.3 275C230.24 251.79 232.02 228.16 237.06 205.4C242.04 182.91 250.08 161.24 260.36 140.6C262.07 137.15 263.86 133.74 265.69 130.35C273.12 116.64 281.51 103.42 290.59 90.7601C295.2 84.3301 300.58 77.6301 308.26 75.7001C317.14 73.4701 326.87 77.4801 333.59 83.7001C358.42 106.65 376.11 130.33 388.47 153.71C392.02 160.42 395.12 167.1 397.84 173.73C400.07 179.19 402.04 184.62 403.76 190L403.75 189.98Z" fill="url(#paint17_linear_26486_105777)"/>
<path d="M160.9 871.26C159.95 876.82 158.4 882.36 156.86 887.69C153.39 899.6 149.58 912.08 140.64 920.68C133.36 927.67 123.51 931.24 113.83 934.11C96.8904 939.13 79.5003 942.51 61.9503 944.28C36.5403 946.86 10.7903 946.07 -14.4597 942.05C-27.4597 939.98 -40.3297 937.05 -52.9497 933.28C-66.3497 929.29 -79.4697 924.33 -92.1497 918.46C-104.27 912.84 -116.72 907.95 -129.47 904.01C-135.63 902.1 -141.87 900.42 -148.17 898.97C-151.23 898.27 -154.3 897.63 -157.39 897.05C-160.97 896.38 -164.51 895.48 -168 894.34C-180.53 890.24 -192.4 882.59 -198.91 871.13C-205.16 860.14 -205.79 847.27 -205.14 834.43C-204.93 830.03 -204.56 825.64 -204.22 821.33C-201.51 787.27 -201.32 753.06 -199.72 718.93C-199.22 707.95 -198.56 696.99 -197.63 686.03C-196.29 670.3 -194.36 654.51 -191.49 638.94C-186.23 610.31 -177.82 582.39 -164.25 556.75C-164.08 556.44 -163.93 556.14 -163.76 555.83C-159.82 548.47 -155.39 541.28 -150.48 534.47C-137.79 516.89 -121.8 501.82 -102.31 492.67C-75.2597 479.97 -40.7897 480.65 -17.5297 499.41C-3.44969 510.76 5.47035 527.59 9.95035 545.11C13.2403 557.93 15.0203 575.22 15.2603 595.24C15.5503 619.02 13.6603 646.66 9.54031 675.2C5.97031 699.97 0.710342 725.43 -6.24966 749.66C-8.13966 756.27 -10.1697 762.79 -12.3297 769.17C-12.3297 769.21 -12.3497 769.25 -12.3697 769.29C-12.4497 769.51 -12.3196 769.74 -12.0996 769.8C-4.03964 772.05 3.99031 774.3 11.9803 776.6C12.3303 776.7 12.6804 776.8 13.0304 776.9C23.5504 779.92 34.0103 783.03 44.3503 786.33C47.8903 787.46 51.4203 788.6 54.9303 789.77C78.2903 797.55 101.06 806.41 122.8 817.43C126.18 819.13 129.52 820.89 132.84 822.71C143.25 828.4 153.95 835.25 158.86 846.06C162.44 853.95 162.39 862.61 160.91 871.27L160.9 871.26Z" fill="url(#paint18_linear_26486_105777)"/>
<path d="M256.84 262.64C260.92 267.82 265.2 272.84 269.68 277.68C287.19 296.6 307.77 312.79 330.83 324.39C333.22 325.59 335.93 326.78 338.5 326.02C341.41 325.16 343.06 322.15 344.35 319.4C346.92 313.97 349.36 308.48 351.7 302.94C351.97 302.3 352.25 301.65 352.51 301C354.7 295.72 356.79 290.4 358.78 285.03C360.15 281.34 359.68 279.23 358.22 278.02C355.54 275.83 349.54 276.6 345.25 276.1C334.12 274.81 323.04 272.99 312.07 270.67C292.9 266.59 274.46 260.53 255.92 254.25C248.1 251.6 255.39 260.79 256.84 262.63V262.64Z" fill="url(#paint19_linear_26486_105777)"/>
<path style="mix-blend-mode:multiply" d="M257.739 259.249C264.619 264.079 271.74 268.629 279.05 272.779C291.76 280.019 304.99 286.419 318.55 291.879C325.38 294.639 332.309 297.139 339.339 299.319C343.399 300.579 347.529 301.879 351.689 302.949C351.959 302.309 352.239 301.659 352.499 301.009C351.459 300.739 350.419 300.459 349.379 300.179C345.469 299.099 341.589 297.949 337.719 296.709C323.629 292.199 309.71 287.019 296.39 280.559C283.15 274.139 270.379 266.759 258.089 258.659C257.709 258.409 257.379 259.009 257.729 259.249H257.739Z" fill="url(#paint20_linear_26486_105777)"/>
<path d="M321.72 238.55C321.68 237.95 321.72 237.33 321.76 236.73C322.74 222.4 323.72 208.07 324.7 193.74C325.13 187.53 324.93 181.52 324.33 175.28C324.02 172.03 324.12 167.18 322.29 164.31C321.41 162.93 323.14 161.32 324.49 162.11C330.58 165.67 335.87 171.71 341 176.54C346.69 181.9 352.34 187.28 358.08 192.59C369.54 203.19 381.36 213.49 391.31 225.57C393.56 228.3 393.3 233.74 388.97 234.44C372.07 237.18 354.93 239.06 337.89 240.57C335.16 240.81 323.76 242.99 322.31 240.66C321.91 240.03 321.76 239.3 321.71 238.55H321.72Z" fill="url(#paint21_linear_26486_105777)"/>
<path d="M308.82 186.589C308.32 188.719 307.18 190.629 305.31 192.209C299.23 197.339 291.08 193.059 285.05 185.009C281.22 179.909 279.06 174.629 279.6 170.079C279.92 167.439 281.13 165.039 283.45 163.059C290.06 157.419 297.68 162.209 303.71 170.259C307.9 175.839 310 181.759 308.82 186.589Z" fill="url(#paint22_linear_26486_105777)"/>
<path d="M304.342 180.977C306.743 179.313 306.949 175.451 304.801 172.35C302.653 169.249 298.965 168.084 296.563 169.748C294.162 171.411 293.956 175.274 296.104 178.374C298.252 181.475 301.94 182.64 304.342 180.977Z" fill="url(#paint23_linear_26486_105777)"/>
<path style="mix-blend-mode:multiply" d="M308.82 186.589C307.3 181.669 304.45 177.189 301.11 173.289C299.09 170.929 296.84 168.739 294.14 167.249C291.44 165.769 288.26 165.049 285.28 165.769C282.93 166.339 280.75 167.919 279.59 170.069C279.91 167.429 281.12 165.029 283.44 163.049C290.05 157.409 297.67 162.199 303.7 170.249C307.89 175.829 309.99 181.749 308.81 186.579L308.82 186.589Z" fill="url(#paint24_linear_26486_105777)"/>
<path d="M358.78 153.46C357.81 155.32 356.28 156.83 354.13 157.86C347.14 161.2 340.34 155.29 336.42 146.36C333.94 140.71 333.09 135.28 334.65 131.17C335.56 128.79 337.27 126.84 339.95 125.55C347.57 121.86 353.74 128.13 357.66 137.05C360.37 143.24 361.02 149.25 358.78 153.46Z" fill="url(#paint25_linear_26486_105777)"/>
<path d="M356.287 147.094C358.765 146.007 359.645 142.551 358.252 139.375C356.859 136.199 353.721 134.505 351.242 135.592C348.764 136.678 347.884 140.134 349.277 143.311C350.67 146.487 353.808 148.181 356.287 147.094Z" fill="url(#paint26_linear_26486_105777)"/>
<path style="mix-blend-mode:multiply" d="M358.78 153.46C358.46 148.52 356.77 143.67 354.48 139.25C353.09 136.58 351.45 134 349.21 131.98C346.98 129.96 344.1 128.54 341.08 128.51C338.7 128.49 336.26 129.45 334.65 131.17C335.56 128.79 337.27 126.84 339.95 125.55C347.57 121.86 353.74 128.13 357.66 137.05C360.37 143.24 361.02 149.25 358.78 153.46Z" fill="url(#paint27_linear_26486_105777)"/>
<path style="mix-blend-mode:multiply" opacity="0.56" d="M248.56 87.3994C247.79 86.2994 245.94 86.4094 245.3 87.5994C244.4 88.9094 243.51 90.2194 242.64 91.5494C239.1 96.8894 235.91 102.449 232.74 108.019C223.88 123.879 216.29 140.409 209.18 157.109C195.19 189.509 184.94 223.629 180.34 258.669C178.56 271.769 177.34 284.969 177.42 298.199C177.46 300.439 180.91 300.659 181 298.199C180.94 283.479 182.62 268.089 184.55 254.979C187.11 237.819 190.78 220.819 195.67 204.179C199.81 189.729 206.47 172.419 211.65 160.189C218.22 144.569 225.38 129.179 233.53 114.309C236.75 108.409 240.17 102.619 243.85 96.9894C245.14 94.9394 246.47 92.9194 247.82 90.9094C248.56 89.8894 249.58 88.5794 248.56 87.3994Z" fill="url(#paint28_linear_26486_105777)"/>
<path opacity="0.97" d="M321.15 747.69C320.82 745.93 320.49 744.17 320.17 742.41C319.15 736.91 318.21 731.4 317.35 725.88C309.57 674.93 305.66 619.04 304 565.38C303.19 540.49 303.36 515.58 304.63 490.71C305.21 478.13 306.07 465.56 306.94 453C307.12 450.23 307.3 447.47 307.43 444.7C307.4 443.36 307.79 441.94 307.29 440.68C306.31 438.19 302.26 438.75 302.27 441.69C301.56 458.82 299.91 475.9 299.27 493.03C298.15 515.97 297.98 538.94 298.65 561.9C300.43 618.38 303.93 674.94 313.16 730.74C314.04 735.92 314.96 741.1 316.01 746.24C316.61 748.54 316.4 752.19 319.68 751.57C320.48 751.34 321.09 750.72 321.33 749.92C321.55 749.18 321.26 748.44 321.15 747.7V747.69Z" fill="url(#paint29_linear_26486_105777)"/>
</g>
<defs>
<linearGradient id="paint0_linear_26486_105777" x1="397.83" y1="610.769" x2="286.98" y2="573.819" gradientUnits="userSpaceOnUse">
<stop stop-color="#363636"/>
<stop offset="1" stop-color="#131313"/>
</linearGradient>
<linearGradient id="paint1_linear_26486_105777" x1="136.21" y1="236.13" x2="-100.39" y2="1233.82" gradientUnits="userSpaceOnUse">
<stop stop-color="#B8B8B8"/>
<stop offset="1" stop-color="#8C898C"/>
</linearGradient>
<linearGradient id="paint2_linear_26486_105777" x1="327.09" y1="149.32" x2="387.2" y2="45.0896" gradientUnits="userSpaceOnUse">
<stop stop-color="#454347"/>
<stop offset="1" stop-color="#626163"/>
</linearGradient>
<linearGradient id="paint3_linear_26486_105777" x1="366.22" y1="267.09" x2="430.53" y2="155.57" gradientUnits="userSpaceOnUse">
<stop stop-color="#454347"/>
<stop offset="1" stop-color="#626163"/>
</linearGradient>
<linearGradient id="paint4_linear_26486_105777" x1="37.3095" y1="197.56" x2="310.85" y2="48.2897" gradientUnits="userSpaceOnUse">
<stop stop-color="#454347"/>
<stop offset="1" stop-color="#626163"/>
</linearGradient>
<linearGradient id="paint5_linear_26486_105777" x1="-8.5604" y1="370.61" x2="310.65" y2="156.22" gradientUnits="userSpaceOnUse">
<stop stop-color="#454347"/>
<stop offset="1" stop-color="#626163"/>
</linearGradient>
<linearGradient id="paint6_linear_26486_105777" x1="40.8" y1="444.119" x2="426.48" y2="395.46" gradientUnits="userSpaceOnUse">
<stop stop-color="#454347"/>
<stop offset="1" stop-color="#626163"/>
</linearGradient>
<linearGradient id="paint7_linear_26486_105777" x1="-45.2603" y1="645.62" x2="331.36" y2="430.41" gradientUnits="userSpaceOnUse">
<stop stop-color="#454347"/>
<stop offset="1" stop-color="#626163"/>
</linearGradient>
<linearGradient id="paint8_linear_26486_105777" x1="244.65" y1="295.88" x2="-37.1802" y2="235.98" gradientUnits="userSpaceOnUse">
<stop stop-color="#B8B8B8"/>
<stop offset="1" stop-color="#8C898C"/>
</linearGradient>
<linearGradient id="paint9_linear_26486_105777" x1="267.33" y1="416.48" x2="255.73" y2="414.02" gradientUnits="userSpaceOnUse">
<stop stop-color="#B8B8B8"/>
<stop offset="1" stop-color="#8C898C"/>
</linearGradient>
<linearGradient id="paint10_linear_26486_105777" x1="303.99" y1="449.08" x2="306.06" y2="437.32" gradientUnits="userSpaceOnUse">
<stop stop-color="#454347"/>
<stop offset="1" stop-color="#626163"/>
</linearGradient>
<linearGradient id="paint11_linear_26486_105777" x1="317.609" y1="414.02" x2="362.559" y2="158.839" gradientUnits="userSpaceOnUse">
<stop stop-color="#454347"/>
<stop offset="1" stop-color="#626163"/>
</linearGradient>
<linearGradient id="paint12_linear_26486_105777" x1="266.78" y1="391.78" x2="310.1" y2="273.89" gradientUnits="userSpaceOnUse">
<stop stop-color="#FFC493"/>
<stop offset="1" stop-color="#FFB073"/>
</linearGradient>
<linearGradient id="paint13_linear_26486_105777" x1="266.18" y1="363.91" x2="296.52" y2="281.35" gradientUnits="userSpaceOnUse">
<stop stop-color="#FFC493"/>
<stop offset="1" stop-color="#FFB073"/>
</linearGradient>
<linearGradient id="paint14_linear_26486_105777" x1="423.2" y1="269.869" x2="222.97" y2="172.599" gradientUnits="userSpaceOnUse">
<stop stop-color="#FFC493"/>
<stop offset="1" stop-color="#FFB073"/>
</linearGradient>
<linearGradient id="paint15_linear_26486_105777" x1="332.13" y1="110.32" x2="313.64" y2="110.32" gradientUnits="userSpaceOnUse">
<stop stop-color="#454347"/>
<stop offset="1" stop-color="#626163"/>
</linearGradient>
<linearGradient id="paint16_linear_26486_105777" x1="292.83" y1="137.5" x2="260.36" y2="137.5" gradientUnits="userSpaceOnUse">
<stop stop-color="#454347"/>
<stop offset="1" stop-color="#626163"/>
</linearGradient>
<linearGradient id="paint17_linear_26486_105777" x1="163.16" y1="275.68" x2="316.97" y2="173.14" gradientUnits="userSpaceOnUse">
<stop stop-color="#FFC493"/>
<stop offset="1" stop-color="#FFB073"/>
</linearGradient>
<linearGradient id="paint18_linear_26486_105777" x1="111.69" y1="229.31" x2="-129.71" y2="1227.24" gradientUnits="userSpaceOnUse">
<stop stop-color="#B8B8B8"/>
<stop offset="1" stop-color="#8C898C"/>
</linearGradient>
<linearGradient id="paint19_linear_26486_105777" x1="335.09" y1="327.77" x2="290.34" y2="235.72" gradientUnits="userSpaceOnUse">
<stop stop-color="#FFF4EF"/>
<stop offset="1" stop-color="#F6DFD7"/>
</linearGradient>
<linearGradient id="paint20_linear_26486_105777" x1="300.969" y1="332.289" x2="305.149" y2="278.629" gradientUnits="userSpaceOnUse">
<stop stop-color="#FFF4EF"/>
<stop offset="1" stop-color="#F6DFD7"/>
</linearGradient>
<linearGradient id="paint21_linear_26486_105777" x1="377" y1="232.41" x2="291.95" y2="183.32" gradientUnits="userSpaceOnUse">
<stop stop-color="#FF9762"/>
<stop offset="1" stop-color="#FFB073"/>
</linearGradient>
<linearGradient id="paint22_linear_26486_105777" x1="283.725" y1="184.853" x2="301.932" y2="172.475" gradientUnits="userSpaceOnUse">
<stop stop-color="#FFF4EF"/>
<stop offset="1" stop-color="#F6DFD7"/>
</linearGradient>
<linearGradient id="paint23_linear_26486_105777" x1="306.451" y1="176.592" x2="294.431" y2="174.228" gradientUnits="userSpaceOnUse">
<stop stop-color="#363636"/>
<stop offset="1" stop-color="#131313"/>
</linearGradient>
<linearGradient id="paint24_linear_26486_105777" x1="301.151" y1="185.19" x2="285.454" y2="160.16" gradientUnits="userSpaceOnUse">
<stop stop-color="#FFF4EF"/>
<stop offset="1" stop-color="#D7C2BB"/>
</linearGradient>
<linearGradient id="paint25_linear_26486_105777" x1="335.21" y1="146.093" x2="355.407" y2="138.625" gradientUnits="userSpaceOnUse">
<stop stop-color="#FFF4EF"/>
<stop offset="1" stop-color="#F6DFD7"/>
</linearGradient>
<linearGradient id="paint26_linear_26486_105777" x1="358.946" y1="143.749" x2="348.58" y2="138.921" gradientUnits="userSpaceOnUse">
<stop stop-color="#363636"/>
<stop offset="1" stop-color="#131313"/>
</linearGradient>
<linearGradient id="paint27_linear_26486_105777" x1="351.595" y1="150.487" x2="342.668" y2="123.297" gradientUnits="userSpaceOnUse">
<stop stop-color="#FFF4EF"/>
<stop offset="1" stop-color="#D7C2BB"/>
</linearGradient>
<linearGradient id="paint28_linear_26486_105777" x1="191.86" y1="302.219" x2="230.35" y2="83.6694" gradientUnits="userSpaceOnUse">
<stop stop-color="#454347"/>
<stop offset="1" stop-color="#626163"/>
</linearGradient>
<linearGradient id="paint29_linear_26486_105777" x1="366.77" y1="613.62" x2="257" y2="577.03" gradientUnits="userSpaceOnUse">
<stop stop-color="#363636"/>
<stop offset="1" stop-color="#131313"/>
</linearGradient>
<clipPath id="clip0_26486_105777">
<rect width="480" height="480" rx="8" fill="white"/>
</clipPath>
</defs>
</svg>
