<svg width="2000" height="2000" viewBox="0 0 2000 2000" fill="none" xmlns="http://www.w3.org/2000/svg">
<path d="M1408.14 864.159C1407.75 866.849 1406.43 869.299 1405.07 871.649C1398.37 883.289 1390.48 894.109 1382.18 904.669C1370.94 918.989 1358.97 932.829 1348.25 947.549C1344.15 953.189 1340.07 959.479 1340.2 966.439C1340.3 971.539 1342.61 976.139 1345.56 980.409C1347.01 982.509 1348.63 984.529 1350.21 986.479C1358.53 996.789 1366.68 1007.24 1374.64 1017.83C1376.58 1020.42 1378.62 1023.41 1378.16 1026.6C1378.16 1026.65 1378.14 1026.7 1378.14 1026.75C1378.03 1027.42 1377.81 1028.04 1377.49 1028.62C1376.16 1031.09 1373.24 1032.67 1370.36 1032.97C1366.81 1033.34 1363.3 1032.21 1359.88 1031.22C1359.6 1031.14 1359.32 1031.06 1359.03 1030.99C1341.65 1026.04 1323.4 1024.2 1305.36 1025.52C1304.77 1025.57 1304.16 1025.61 1303.57 1025.66C1301.19 1025.86 1296.62 1026.12 1291.78 1026.83C1287.92 1027.39 1283.86 1028.23 1280.6 1029.54C1277.53 1006.97 1272.81 987.919 1269.39 962.769C1270.35 961.969 1273.77 960.509 1277.73 958.609C1280.52 957.269 1283.59 955.719 1286.27 954.009C1287.73 953.079 1288.93 951.689 1290.34 950.439C1321.66 922.719 1375.1 869.389 1397.12 855.499C1399.66 853.899 1403.44 854.829 1405.76 856.739C1407.86 858.449 1408.55 861.469 1408.14 864.139V864.159Z" fill="url(#paint0_linear_26486_105675)"/>
<path d="M766.382 1797.7C764.722 1798.65 762.772 1799.59 760.542 1800.5C743.722 1807.36 710.352 1801.75 698.602 1790C666.732 1758.14 633.182 1740.64 629.612 1734.67C625.822 1728.33 624.872 1719.58 625.242 1711.04C625.482 1705.03 626.382 1699.13 627.392 1694.27C631.452 1674.75 644.152 1655.18 654.502 1638.15C676.692 1647.07 694.982 1652.47 718.792 1654.76C718.612 1660.93 721.422 1669.38 721.412 1675.58C721.412 1678.74 721.432 1681.89 721.542 1685.03C721.542 1685.12 721.542 1685.2 721.542 1685.29C721.922 1696.42 723.132 1707.47 726.172 1718.17C729.972 1731.51 736.972 1744.38 747.322 1753.75C757.722 1763.17 765.862 1770.81 770.402 1777.24C772.232 1779.82 773.472 1782.2 774.042 1784.43C775.372 1789.55 773.172 1793.83 766.362 1797.71L766.382 1797.7Z" fill="#B8B8B8"/>
<path style="mix-blend-mode:multiply" opacity="0.29" d="M766.382 1797.7C764.722 1798.65 762.772 1799.59 760.542 1800.5C743.722 1807.36 710.352 1801.75 698.602 1790C666.732 1758.14 633.182 1740.64 629.612 1734.67C625.822 1728.33 624.872 1719.58 625.242 1711.04C625.482 1705.03 626.382 1699.13 627.392 1694.27C631.452 1674.75 644.152 1655.18 654.502 1638.15C676.692 1647.07 694.982 1652.47 718.792 1654.76C718.612 1660.93 721.422 1669.38 721.412 1675.58C721.412 1678.74 721.432 1681.89 721.542 1685.03C721.542 1685.12 721.542 1685.2 721.542 1685.29C704.452 1681.75 687.242 1678.48 669.812 1677.97C659.682 1677.68 647.782 1679.32 642.752 1688.13C639.072 1694.55 640.522 1702.87 644.262 1709.25C648.002 1715.63 653.722 1720.56 659.042 1725.7C670.282 1736.55 680.152 1748.75 691.472 1759.51C702.782 1770.27 715.932 1779.74 731.082 1783.53C744.372 1786.85 759.412 1785.13 770.412 1777.26C772.242 1779.84 773.482 1782.22 774.052 1784.45C775.382 1789.57 773.182 1793.85 766.372 1797.73L766.382 1797.7Z" fill="url(#paint1_linear_26486_105675)"/>
<path d="M766.382 1797.7C764.722 1798.65 762.772 1799.59 760.542 1800.5C743.722 1807.36 710.352 1801.75 698.602 1790C666.732 1758.14 633.182 1740.64 629.612 1734.67C625.822 1728.33 624.872 1719.58 625.242 1711.04C628.802 1718.24 634.582 1724.31 640.882 1729.38C648.452 1735.48 656.912 1740.38 664.752 1746.12C678.722 1756.35 690.642 1769.17 704.522 1779.53C718.402 1789.89 735.202 1797.92 752.452 1796.31C757.972 1795.8 763.502 1794.24 768.012 1791.02C770.442 1789.28 772.542 1787.01 774.042 1784.43C775.372 1789.55 773.172 1793.83 766.362 1797.71L766.382 1797.7Z" fill="#CFCFCF"/>
<path style="mix-blend-mode:multiply" opacity="0.5" d="M724.143 1712.77C724.143 1712.77 724.092 1712.79 724.062 1712.81C724.322 1712.7 724.313 1712.71 724.143 1712.77Z" fill="url(#paint2_linear_26486_105675)"/>
<path d="M726.911 1710.1C726.841 1709.14 725.931 1708.41 724.991 1708.4C723.961 1708.44 723.141 1709.23 722.191 1709.56C721.591 1709.84 718.581 1711.07 716.481 1711.54C711.921 1712.79 707.941 1712.79 702.371 1712.42C702.261 1712.41 702.161 1712.4 702.051 1712.39C702.021 1712.39 702.001 1712.39 701.971 1712.39C701.681 1712.35 701.391 1712.29 701.111 1712.22C700.571 1712.03 699.961 1712.03 699.471 1712.33C698.111 1713.07 698.391 1715.28 699.901 1715.65C706.961 1717.47 714.781 1716.49 721.501 1713.83C721.971 1713.68 723.671 1712.97 724.131 1712.78C724.501 1712.62 724.611 1712.58 724.091 1712.8C725.361 1712.38 727.221 1711.81 726.901 1710.11L726.911 1710.1Z" fill="url(#paint3_linear_26486_105675)"/>
<path d="M730.82 1724.1C730.75 1723.11 729.8 1722.35 728.83 1722.34C727.6 1722.39 726.75 1723.48 725.71 1724.01C723.46 1725.36 723.17 1725.49 720.59 1726.24C716.2 1727.26 714.24 1727.57 709.64 1727.58C708.19 1727.5 708.44 1727.51 707.87 1727.41C707.31 1727.24 706.68 1727.24 706.17 1727.55C704.72 1728.33 705.03 1730.68 706.63 1731.07C712.78 1732.19 719.24 1730.89 724.96 1728.52C723.98 1728.96 726.53 1727.89 727.02 1727.66C728.46 1726.84 731.09 1726.17 730.82 1724.09V1724.1Z" fill="url(#paint4_linear_26486_105675)"/>
<path d="M974.874 1771.87C973.454 1773.01 971.754 1774.17 969.784 1775.35C954.964 1784.26 922.754 1783.86 909.984 1774.53C875.354 1749.22 841.244 1737.66 837.014 1732.57C832.524 1727.16 830.354 1719.06 829.454 1710.98C828.804 1705.3 828.784 1699.61 829.024 1694.89C829.994 1675.93 839.074 1655.67 846.324 1638.14C868.504 1643.28 886.494 1645.69 909.224 1644.36C909.954 1650.19 913.834 1657.73 914.734 1663.56C915.184 1666.53 915.674 1669.49 916.234 1672.43C916.244 1672.51 916.264 1672.59 916.284 1672.68C918.264 1683.1 921.014 1693.31 925.444 1702.93C930.964 1714.93 939.434 1726 950.544 1733.3C961.704 1740.64 970.474 1746.63 975.684 1752.02C977.784 1754.18 979.294 1756.24 980.154 1758.25C982.154 1762.87 980.704 1767.22 974.874 1771.87Z" fill="url(#paint5_linear_26486_105675)"/>
<path style="mix-blend-mode:multiply" opacity="0.29" d="M974.874 1771.87C973.454 1773.01 971.754 1774.17 969.784 1775.35C954.964 1784.26 922.754 1783.86 909.984 1774.53C875.354 1749.22 841.244 1737.66 837.014 1732.57C832.524 1727.16 830.354 1719.06 829.454 1710.98C828.804 1705.3 828.784 1699.61 829.024 1694.89C829.994 1675.93 839.074 1655.67 846.324 1638.14C868.504 1643.28 886.494 1645.69 909.224 1644.36C909.954 1650.19 913.834 1657.73 914.734 1663.56C915.184 1666.53 915.674 1669.49 916.234 1672.43C916.244 1672.51 916.264 1672.59 916.284 1672.68C899.684 1671.85 883.024 1671.29 866.554 1673.35C856.984 1674.56 846.034 1677.84 842.584 1686.86C840.064 1693.44 842.634 1701.05 847.094 1706.5C851.544 1711.96 857.644 1715.76 863.394 1719.81C875.554 1728.37 886.614 1738.4 898.834 1746.87C911.044 1755.33 924.794 1762.32 939.604 1763.67C952.594 1764.85 966.484 1761.04 975.684 1752.02C977.784 1754.18 979.294 1756.24 980.154 1758.25C982.154 1762.87 980.704 1767.22 974.874 1771.87Z" fill="url(#paint6_linear_26486_105675)"/>
<path d="M974.873 1771.87C973.453 1773.01 971.753 1774.17 969.783 1775.35C954.963 1784.26 922.753 1783.86 909.983 1774.53C875.353 1749.22 841.243 1737.66 837.013 1732.57C832.523 1727.16 830.353 1719.06 829.453 1710.98C833.853 1717.23 840.173 1722.1 846.843 1725.95C854.853 1730.58 863.523 1733.95 871.743 1738.21C886.383 1745.79 899.463 1756.1 914.033 1763.82C928.603 1771.54 945.573 1776.63 961.563 1772.6C966.683 1771.31 971.653 1769.04 975.423 1765.35C977.453 1763.36 979.103 1760.92 980.133 1758.27C982.133 1762.89 980.683 1767.24 974.853 1771.89L974.873 1771.87Z" fill="#CFCFCF"/>
<path style="mix-blend-mode:multiply" opacity="0.5" d="M922.722 1698.15C922.722 1698.15 922.672 1698.18 922.652 1698.2C922.882 1698.06 922.872 1698.07 922.722 1698.15Z" fill="url(#paint7_linear_26486_105675)"/>
<path d="M924.94 1695.24C924.74 1694.35 923.77 1693.8 922.89 1693.93C921.92 1694.12 921.28 1694.98 920.43 1695.43C919.91 1695.78 917.25 1697.37 915.34 1698.13C911.23 1699.97 907.49 1700.56 902.2 1701.02C902.1 1701.02 902 1701.03 901.9 1701.04C901.88 1701.04 901.85 1701.04 901.83 1701.04C901.55 1701.04 901.27 1701.04 900.99 1701C900.46 1700.9 899.88 1701 899.46 1701.35C898.29 1702.24 898.88 1704.28 900.35 1704.41C907.25 1705.09 914.47 1703.02 920.4 1699.54C920.83 1699.33 922.32 1698.41 922.72 1698.16C923.04 1697.95 923.14 1697.91 922.69 1698.18C923.82 1697.6 925.49 1696.79 924.94 1695.24Z" fill="url(#paint8_linear_26486_105675)"/>
<path d="M930.663 1707.84C930.453 1706.91 929.453 1706.34 928.533 1706.48C927.383 1706.7 926.743 1707.85 925.843 1708.5C923.923 1710.1 923.673 1710.26 921.353 1711.35C917.373 1712.95 915.583 1713.53 911.253 1714.21C909.873 1714.34 910.123 1714.32 909.563 1714.31C909.013 1714.23 908.423 1714.33 907.983 1714.69C906.733 1715.64 907.363 1717.8 908.933 1717.93C914.883 1718.08 920.773 1715.92 925.803 1712.86C924.943 1713.42 927.183 1712.04 927.623 1711.75C928.863 1710.77 931.233 1709.76 930.673 1707.84H930.663Z" fill="url(#paint9_linear_26486_105675)"/>
<path d="M842.071 1632.82C840.301 1637.74 838.551 1648.27 839.651 1654.36C862.041 1663.37 890.631 1666.68 915.061 1665.66C917.251 1658.46 919.281 1648.95 919.831 1641.44L842.081 1632.82H842.071Z" fill="url(#paint10_linear_26486_105675)"/>
<path d="M1284.05 1029.06C1278.25 1032.83 1271.92 1035.77 1265.31 1037.77C1262.78 1038.55 1260.22 1039.18 1257.63 1039.67L1249.38 969.839L1249.06 967.089C1254.31 964.849 1259.4 963.399 1264.29 962.249C1267.01 961.609 1269.66 961.059 1272.23 960.529C1278.25 982.099 1282.96 1003.38 1283.93 1025.18C1283.98 1026.47 1284.03 1027.77 1284.06 1029.06H1284.05Z" fill="url(#paint11_linear_26486_105675)"/>
<path style="mix-blend-mode:multiply" opacity="0.32" d="M1284.05 1029.06C1278.25 1032.83 1271.92 1035.77 1265.31 1037.77C1265.1 1026.89 1264.18 1016.02 1262.58 1005.26C1261.51 998.03 1260.1 990.8 1257.48 983.98C1255.53 978.89 1252.87 974 1249.37 969.85L1249.05 967.1C1254.3 964.86 1259.39 963.41 1264.28 962.26C1269.98 977.86 1273.75 994.17 1275.47 1010.69C1275.85 1014.31 1276.18 1018.09 1278.12 1021.18C1279.4 1023.21 1281.62 1024.8 1283.92 1025.18C1283.97 1026.47 1284.02 1027.77 1284.05 1029.06Z" fill="url(#paint12_linear_26486_105675)"/>
<path d="M1267.51 1043.58C1267.22 1044.19 1266.89 1044.78 1266.55 1045.37C1264.86 1048.26 1262.95 1050.94 1260.83 1053.41C1255.9 1059.18 1249.85 1063.8 1242.85 1067.3C1236.18 1070.64 1229.45 1073.84 1222.63 1076.88C1221.87 1077.22 1221.11 1077.55 1220.35 1077.89C1218.82 1078.56 1217.3 1079.22 1215.76 1079.87C1214.99 1080.2 1214.23 1080.52 1213.46 1080.84C1211.16 1081.81 1208.84 1082.75 1206.52 1083.67C1205.75 1083.98 1204.97 1084.29 1204.2 1084.59C1201.88 1085.49 1199.54 1086.38 1197.2 1087.24C1196.42 1087.53 1195.64 1087.81 1194.85 1088.09C1193.29 1088.65 1191.72 1089.2 1190.14 1089.74C1190.03 1089.78 1189.92 1089.82 1189.82 1089.85C1188.39 1090.34 1186.96 1090.81 1185.53 1091.29L1183.93 1091.81C1183.31 1092.01 1182.7 1092.2 1182.1 1092.4C1181.03 1092.74 1179.94 1093.08 1178.87 1093.4C1177.95 1093.68 1177.04 1093.96 1176.13 1094.22C1173.66 1094.95 1171.19 1095.65 1168.71 1096.31C1168.09 1096.48 1167.48 1096.64 1166.86 1096.8C1165.02 1097.28 1163.17 1097.75 1161.32 1098.19C1160.56 1098.38 1159.8 1098.56 1159.03 1098.73C1158.22 1098.92 1157.41 1099.11 1156.6 1099.29C1137.63 1103.53 1118.13 1105.81 1098.71 1105.54C1098.06 1105.54 1097.42 1105.52 1096.78 1105.5C1095.92 1105.48 1095.07 1105.45 1094.21 1105.42C1093.38 1105.39 1092.55 1105.36 1091.71 1105.31H1091.59C1090.75 1105.26 1089.91 1105.22 1089.07 1105.17C1087.39 1105.07 1085.7 1104.95 1084.03 1104.81C1083.99 1104.81 1083.95 1104.81 1083.9 1104.79C1083.06 1104.72 1082.22 1104.65 1081.38 1104.56C1080.26 1104.45 1079.14 1104.33 1078.02 1104.21C1075.98 1103.98 1073.95 1103.72 1071.91 1103.43C1071.59 1103.38 1071.27 1103.34 1070.95 1103.29C1069.97 1103.14 1068.97 1102.99 1067.99 1102.82C1067.71 1102.77 1067.43 1102.73 1067.14 1102.68C1066.45 1102.56 1065.75 1102.44 1065.06 1102.31L1069.57 1084.49C1070.63 1082.8 1071.67 1081.09 1072.7 1079.39C1073.49 1078.1 1074.26 1076.8 1075.04 1075.5C1076.05 1073.79 1077.06 1072.08 1078.06 1070.36C1080.06 1066.92 1082.02 1063.46 1083.95 1059.97C1084.91 1058.23 1085.87 1056.48 1086.81 1054.73C1087.66 1053.15 1088.51 1051.57 1089.34 1049.98C1089.63 1049.44 1089.91 1048.9 1090.2 1048.36C1090.93 1046.97 1091.65 1045.58 1092.37 1044.18L1092.39 1044.13C1093.28 1042.39 1094.17 1040.65 1095.06 1038.9C1095.17 1038.68 1095.28 1038.46 1095.39 1038.25C1096.18 1036.67 1096.97 1035.08 1097.75 1033.49C1098.63 1031.7 1099.5 1029.91 1100.37 1028.12C1100.39 1028.1 1100.4 1028.07 1100.41 1028.04C1101.21 1026.36 1102.02 1024.69 1102.81 1023.01C1102.89 1022.84 1102.97 1022.69 1103.04 1022.53C1103.78 1020.94 1104.53 1019.35 1105.27 1017.76C1105.34 1017.6 1105.41 1017.45 1105.48 1017.3C1106.24 1015.65 1106.99 1014.01 1107.74 1012.36C1108.73 1010.17 1109.72 1007.98 1110.69 1005.8C1111.25 1004.54 1111.8 1003.29 1112.35 1002.03C1113.33 999.779 1114.3 997.529 1115.27 995.279C1115.95 993.699 1116.62 992.119 1117.29 990.539C1117.46 990.139 1117.62 989.749 1117.78 989.369C1118.67 987.249 1119.55 985.119 1120.43 982.999C1120.43 982.999 1120.43 982.989 1120.43 982.969C1121.39 980.649 1122.34 978.319 1123.28 975.989C1125.32 970.949 1127.31 965.889 1129.28 960.809C1130.55 957.539 1131.81 954.269 1133.05 950.989C1134.37 947.489 1135.69 943.979 1137 940.469C1138.1 937.499 1139.2 934.529 1140.28 931.549C1141.6 927.959 1142.9 924.369 1144.19 920.769C1144.8 919.089 1145.4 917.399 1146 915.719C1146.61 914.029 1147.21 912.339 1147.8 910.659C1148.4 908.979 1149 907.279 1149.6 905.599C1153.79 893.789 1157.91 881.969 1162.07 870.139C1162.66 868.449 1163.26 866.759 1163.85 865.069C1169.19 849.869 1174.58 834.699 1180.19 819.599C1180.81 817.919 1181.44 816.249 1182.06 814.569C1182.32 813.859 1182.59 813.149 1182.86 812.439C1184.33 808.549 1185.84 804.609 1187.53 800.739C1188.09 799.459 1188.66 798.189 1189.26 796.929C1189.52 796.369 1189.79 795.809 1190.07 795.249C1190.33 794.719 1190.59 794.209 1190.86 793.689C1191.22 792.979 1191.59 792.279 1191.98 791.589C1192.17 791.239 1192.36 790.889 1192.56 790.549C1193.28 789.259 1194.04 788.009 1194.85 786.779C1195.1 786.399 1195.35 786.019 1195.6 785.649C1195.89 785.209 1196.19 784.789 1196.49 784.369C1196.89 783.799 1197.31 783.229 1197.74 782.689C1198.09 782.229 1198.45 781.779 1198.82 781.339C1198.87 781.269 1198.93 781.199 1198.99 781.139C1199.34 780.709 1199.7 780.289 1200.07 779.879C1200.87 778.969 1201.71 778.089 1202.57 777.239C1202.98 776.849 1203.38 776.459 1203.8 776.079C1203.88 775.999 1203.97 775.909 1204.06 775.849C1204.33 775.599 1204.61 775.359 1204.89 775.119C1205.09 774.949 1205.28 774.789 1205.48 774.619C1205.89 774.289 1206.3 773.959 1206.72 773.639C1214.3 767.889 1227.05 765.239 1235.47 768.019C1235.61 769.069 1235.76 770.119 1235.89 771.179C1236 772.019 1236.11 772.859 1236.21 773.709C1236.41 775.329 1236.61 776.949 1236.79 778.569C1236.96 780.069 1237.13 781.579 1237.28 783.079C1237.45 784.709 1237.61 786.349 1237.75 787.979C1237.83 788.829 1237.91 789.689 1237.98 790.539C1238.07 791.579 1238.15 792.639 1238.24 793.689C1238.35 795.119 1238.46 796.549 1238.56 797.979C1238.67 799.409 1238.76 800.839 1238.84 802.269C1239.07 806.089 1239.25 809.919 1239.37 813.729C1240.17 837.519 1239.06 861.349 1236.03 884.899C1233.32 906.019 1229.06 926.889 1223.24 947.309C1222.38 950.359 1221.47 953.399 1220.53 956.419C1221.78 957.099 1223.07 957.619 1224.4 958.039C1230.87 960.049 1238.1 959.299 1244.67 959.409C1250.54 959.509 1255.87 960.319 1259.65 964.429C1263.33 968.429 1264.52 974.109 1264.84 979.539C1265.16 984.969 1264.73 990.469 1265.03 995.599C1267.62 1003.76 1270.23 1011.98 1271.08 1020.5C1271.85 1028.34 1271.03 1036.53 1267.52 1043.56L1267.51 1043.58Z" fill="url(#paint13_linear_26486_105675)"/>
<path d="M1236.02 884.92C1214.88 882.42 1193.53 881.72 1172.27 882.83C1177.67 858.38 1181.82 836.06 1182.06 814.56C1182.13 808.55 1181.89 802.6 1181.29 796.68C1183.94 796.73 1186.6 796.81 1189.26 796.92C1205.88 797.59 1222.45 799.39 1238.83 802.29C1239.06 806.11 1239.24 809.94 1239.36 813.75C1240.16 837.54 1239.05 861.37 1236.02 884.92Z" fill="url(#paint14_linear_26486_105675)"/>
<path d="M1224.4 958.06C1197.59 980.53 1175.84 1008.58 1153.26 1035.49C1131.85 1061.01 1108.94 1086.16 1081.39 1104.55C1075.99 1108.17 1070.41 1111.51 1064.62 1114.56C1065.78 1110.65 1066.91 1106.73 1068 1102.81C1070.53 1093.75 1072.88 1084.65 1075.05 1075.5C1081.21 1049.63 1085.98 1023.41 1089.31 997.02C1098.79 994.92 1108.21 992.55 1117.55 989.92C1154.19 979.63 1189.7 965.32 1223.24 947.33C1222.38 950.38 1221.47 953.42 1220.53 956.44C1221.78 957.12 1223.07 957.64 1224.4 958.06Z" fill="url(#paint15_linear_26486_105675)"/>
<path d="M1267.51 1043.58C1267.22 1044.19 1266.89 1044.78 1266.55 1045.37C1260.91 1055.01 1252.84 1062.29 1242.85 1067.3C1239.16 1069.15 1235.45 1070.96 1231.71 1072.71C1245.17 1036.76 1249.75 997.48 1244.67 959.43C1250.54 959.53 1255.87 960.34 1259.65 964.45C1263.33 968.45 1264.52 974.13 1264.84 979.56C1265.16 984.99 1264.73 990.49 1265.03 995.62C1267.62 1003.78 1270.23 1012 1271.08 1020.52C1271.85 1028.36 1271.03 1036.55 1267.52 1043.58H1267.51Z" fill="url(#paint16_linear_26486_105675)"/>
<path style="mix-blend-mode:multiply" opacity="0.37" d="M1260.82 1053.4C1255.89 1059.17 1249.84 1063.79 1242.84 1067.29C1236.17 1070.63 1229.44 1073.83 1222.62 1076.87C1221.86 1077.21 1221.1 1077.54 1220.34 1077.88C1218.81 1078.55 1217.29 1079.21 1215.75 1079.86C1214.98 1080.19 1214.22 1080.51 1213.45 1080.83C1211.15 1081.8 1208.83 1082.74 1206.51 1083.66C1205.74 1083.97 1204.96 1084.28 1204.19 1084.58C1201.87 1085.49 1199.53 1086.37 1197.19 1087.23C1196.41 1087.52 1195.63 1087.8 1194.84 1088.08C1193.28 1088.64 1191.71 1089.2 1190.13 1089.73C1190.02 1089.77 1189.91 1089.81 1189.81 1089.84C1188.38 1090.33 1186.95 1090.8 1185.52 1091.28L1183.92 1091.8C1183.3 1092 1182.69 1092.19 1182.09 1092.39C1181.02 1092.73 1179.93 1093.07 1178.86 1093.39C1177.94 1093.67 1177.03 1093.95 1176.12 1094.21C1173.65 1094.94 1171.18 1095.64 1168.7 1096.3C1168.08 1096.47 1167.47 1096.63 1166.85 1096.79C1165.01 1097.27 1163.16 1097.74 1161.31 1098.18C1160.55 1098.37 1159.79 1098.55 1159.02 1098.72C1158.21 1098.91 1157.4 1099.1 1156.59 1099.28C1137.62 1103.52 1118.12 1105.8 1098.7 1105.53C1098.05 1105.53 1097.41 1105.51 1096.77 1105.49C1095.91 1105.47 1095.06 1105.44 1094.2 1105.41C1093.37 1105.38 1092.54 1105.35 1091.7 1105.3H1091.58C1090.74 1105.25 1089.9 1105.21 1089.06 1105.16C1087.38 1105.06 1085.69 1104.94 1084.02 1104.8C1083.98 1104.8 1083.94 1104.8 1083.89 1104.78C1083.05 1104.71 1082.21 1104.64 1081.37 1104.55C1080.25 1104.44 1079.13 1104.32 1078.01 1104.2C1075.97 1103.97 1073.93 1103.71 1071.9 1103.42C1071.58 1103.37 1071.26 1103.33 1070.94 1103.28C1069.96 1103.13 1068.96 1102.98 1067.98 1102.81C1067.7 1102.76 1067.42 1102.72 1067.13 1102.67C1066.44 1102.55 1065.74 1102.43 1065.05 1102.3L1069.56 1084.48C1070.62 1082.79 1071.66 1081.08 1072.69 1079.38C1073.48 1078.09 1074.26 1076.79 1075.03 1075.49C1076.05 1073.78 1077.06 1072.07 1078.05 1070.35C1080.06 1066.91 1082.02 1063.45 1083.94 1059.96C1084.91 1058.22 1085.86 1056.47 1086.8 1054.72C1087.66 1053.14 1088.5 1051.56 1089.33 1049.97C1089.62 1049.43 1089.9 1048.89 1090.19 1048.35C1090.92 1046.96 1091.65 1045.57 1092.36 1044.17L1092.38 1044.12C1093.28 1042.38 1094.17 1040.64 1095.05 1038.89C1095.16 1038.67 1095.27 1038.45 1095.38 1038.24C1096.17 1036.65 1096.96 1035.07 1097.74 1033.48C1098.62 1031.69 1099.49 1029.9 1100.36 1028.11C1100.38 1028.09 1100.39 1028.06 1100.4 1028.03C1101.2 1026.36 1102.01 1024.68 1102.8 1023C1102.88 1022.83 1102.96 1022.68 1103.03 1022.52C1103.77 1020.93 1104.52 1019.34 1105.26 1017.75C1105.33 1017.59 1105.4 1017.44 1105.47 1017.29C1106.23 1015.64 1106.98 1014 1107.73 1012.35C1108.72 1010.16 1109.71 1007.97 1110.68 1005.79C1111.24 1004.53 1111.79 1003.28 1112.34 1002.02C1113.32 999.77 1114.29 997.52 1115.26 995.27C1115.94 993.69 1116.61 992.11 1117.28 990.53C1117.45 990.13 1117.61 989.74 1117.77 989.36C1118.66 987.24 1119.54 985.11 1120.42 982.99C1120.42 982.99 1120.42 982.98 1120.42 982.96C1121.38 980.64 1122.33 978.31 1123.27 975.98C1125.31 970.94 1127.3 965.88 1129.27 960.8C1130.54 957.54 1131.79 954.26 1133.04 950.98C1134.36 947.48 1135.68 943.97 1136.99 940.46C1138.09 937.49 1139.19 934.52 1140.27 931.54C1141.59 927.95 1142.89 924.36 1144.18 920.76C1144.79 919.08 1145.4 917.39 1145.99 915.71C1146.6 914.02 1147.2 912.33 1147.79 910.65C1148.39 908.97 1148.99 907.27 1149.59 905.59C1153.78 893.78 1157.9 881.96 1162.06 870.13C1162.65 868.44 1163.25 866.75 1163.84 865.06C1169.18 849.86 1174.57 834.69 1180.18 819.59C1180.8 817.91 1181.43 816.24 1182.05 814.56C1182.31 813.85 1182.58 813.14 1182.85 812.43C1184.32 808.54 1185.83 804.6 1187.52 800.73C1188.08 799.45 1188.65 798.18 1189.25 796.92C1189.51 796.36 1189.78 795.8 1190.06 795.24C1190.32 794.71 1190.58 794.2 1190.85 793.68C1191.21 792.97 1191.58 792.27 1191.97 791.58C1192.16 791.23 1192.35 790.88 1192.55 790.54C1193.27 789.25 1194.03 788 1194.84 786.77C1195.09 786.39 1195.34 786.01 1195.59 785.64C1195.88 785.2 1196.18 784.78 1196.48 784.36C1196.88 783.79 1197.3 783.22 1197.73 782.68C1198.08 782.22 1198.44 781.77 1198.81 781.33C1198.86 781.26 1198.92 781.19 1198.98 781.13C1199.33 780.7 1199.69 780.28 1200.06 779.87C1200.86 778.96 1201.69 778.07 1202.56 777.23C1202.97 776.84 1203.37 776.45 1203.79 776.07C1203.87 775.99 1203.96 775.9 1204.05 775.84C1204.32 775.59 1204.6 775.35 1204.88 775.11C1205.08 774.94 1205.27 774.78 1205.47 774.61C1205.88 774.28 1206.29 773.95 1206.71 773.63C1214.29 767.88 1227.04 765.23 1235.46 768.01C1235.6 769.06 1235.75 770.11 1235.88 771.17C1235.99 772.01 1236.1 772.85 1236.2 773.7C1236.4 775.32 1236.6 776.94 1236.78 778.56C1236.95 780.06 1237.12 781.57 1237.27 783.07C1237.44 784.7 1237.6 786.33 1237.74 787.97C1237.82 788.82 1237.9 789.68 1237.97 790.53C1238.06 791.57 1238.14 792.63 1238.23 793.68C1238.34 795.11 1238.45 796.54 1238.55 797.97C1238.66 799.4 1238.75 800.83 1238.83 802.26C1239.06 806.08 1239.24 809.91 1239.36 813.72C1232.08 848.44 1217.33 881.74 1201 913.46C1179.43 955.35 1154.69 995.88 1138.73 1040.22C1135.59 1048.96 1132.86 1058.98 1137.13 1067.23C1142.81 1078.21 1157.53 1080.23 1169.89 1079.72C1201.73 1078.39 1233.17 1069.17 1260.83 1053.38L1260.82 1053.4Z" fill="url(#paint17_linear_26486_105675)"/>
<path opacity="0.97" d="M1248.11 808.409C1247.9 780.069 1246.61 751.749 1244.79 723.469C1243.11 696.439 1240.64 669.459 1236.8 642.649C1235 629.449 1232.86 616.289 1230.63 603.149C1230.51 599.319 1224.81 599.499 1225.49 603.649C1230.19 630.339 1233.76 654.229 1236.55 680.369C1238.9 704.009 1240.32 727.739 1241.55 751.469C1242.54 772.779 1243.27 794.119 1243.24 815.459C1243.18 839.759 1242.38 864.059 1241.74 888.349C1241.58 894.939 1241.32 901.539 1241.4 908.139C1241.45 909.479 1241.43 910.819 1241.45 912.159C1241.36 913.009 1241.72 913.949 1242.58 914.249C1243.71 914.799 1245.18 913.829 1245.13 912.559C1245.27 910.419 1245.34 909.739 1245.42 908.829C1245.94 903.009 1246.08 897.159 1246.34 891.329C1247.32 863.709 1248.24 836.069 1248.11 808.429V808.409Z" fill="url(#paint18_linear_26486_105675)"/>
<path d="M1000.42 1464.87C969.193 1540.22 944.583 1611.92 928.343 1637.38C924.933 1642.72 921.893 1646.03 919.233 1646.9C901.393 1650.22 866.823 1645.84 843.733 1639.07C841.673 1638.47 840.013 1636.9 839.393 1634.84C831.003 1606.96 850.213 1522.26 864.753 1464.6C865.033 1463.49 865.083 1462.35 864.913 1461.26C864.683 1459.64 863.973 1458.12 862.883 1456.88C862.373 1456.29 861.763 1455.76 861.083 1455.32C836.883 1439.71 798.433 1401.34 771.653 1372.3C751.323 1350.27 746.713 1317.46 741.053 1288.02C735.403 1258.58 738.913 1225.45 758.873 1203.1C778.903 1180.67 812.163 1173.45 841.703 1179C871.253 1184.56 906.313 1199.93 918.993 1227.19C926.393 1243.11 933.613 1259.12 940.653 1275.21C941.013 1276.04 941.383 1276.87 941.733 1277.71C963.393 1327.33 983.293 1377.72 1001.41 1428.74C1005.58 1440.48 1005.22 1453.37 1000.45 1464.88L1000.42 1464.87Z" fill="url(#paint19_linear_26486_105675)"/>
<path style="mix-blend-mode:multiply" opacity="0.51" d="M928.331 1637.37C924.921 1642.71 921.881 1646.02 919.221 1646.89C901.381 1650.21 866.811 1645.83 843.721 1639.06C841.661 1638.46 840.001 1636.89 839.381 1634.83C830.991 1606.95 850.201 1522.25 864.741 1464.59C865.021 1463.48 865.071 1462.34 864.901 1461.25C864.671 1459.63 863.961 1458.11 862.871 1456.87C862.361 1456.28 861.751 1455.75 861.071 1455.31C836.871 1439.7 798.421 1401.33 771.641 1372.29C751.311 1350.26 746.701 1317.45 741.041 1288.01C735.391 1258.57 738.901 1225.44 758.861 1203.09C778.891 1180.66 812.151 1173.44 841.691 1178.99C871.241 1184.55 906.301 1199.92 918.981 1227.18C926.381 1243.1 933.601 1259.11 940.641 1275.2C941.001 1276.03 941.371 1276.86 941.721 1277.7C924.291 1287.37 908.551 1299.96 896.441 1315.7C879.431 1337.8 870.111 1366.47 874.321 1394.04C878.521 1421.61 897.351 1447.27 925.531 1461.32C910.681 1484.53 895.641 1508.16 888.151 1534.67C880.661 1561.18 881.691 1591.47 897.371 1614.11C904.801 1624.84 916.031 1633.09 928.361 1637.38L928.331 1637.37Z" fill="url(#paint20_linear_26486_105675)"/>
<path d="M643.401 1646.9C641.381 1651.27 640.281 1656.06 640.321 1662.2C665.021 1674.64 692.951 1680.57 721.021 1679.82C722.131 1672.48 723.241 1665.14 724.361 1657.8C698.241 1656.93 672.211 1653.13 643.401 1646.9Z" fill="url(#paint21_linear_26486_105675)"/>
<path d="M803.462 1498.88C777.512 1549.55 760.422 1602.51 745.692 1634.66C737.812 1651.87 730.612 1663.11 723.092 1664.83C693.802 1668.51 670.112 1659.5 642.772 1648.35C628.372 1624.65 647.512 1538.18 657.402 1503.55C658.432 1499.94 658.812 1496.21 658.562 1492.53C658.362 1489.7 657.792 1486.89 656.842 1484.19C656.522 1483.29 656.172 1482.39 655.772 1481.52C636.642 1439.45 605.802 1367.57 578.332 1315.73C570.322 1300.63 567.232 1283.41 569.552 1266.48C574.712 1228.81 580.982 1190.7 589.342 1153.98C607.232 1161.84 625.032 1169.56 642.792 1177.22C673.332 1190.41 703.742 1203.42 734.322 1216.66C747.382 1222.32 760.472 1228.01 773.612 1233.78C784.152 1318.74 794.702 1403.7 805.242 1488.65C805.682 1492.15 805.062 1495.72 803.452 1498.86L803.462 1498.88Z" fill="url(#paint22_linear_26486_105675)"/>
<path style="mix-blend-mode:multiply" opacity="0.51" d="M745.692 1634.65C737.812 1651.86 730.612 1663.1 723.092 1664.82C693.802 1668.5 670.112 1659.49 642.772 1648.34C628.372 1624.64 647.512 1538.17 657.402 1503.54C658.432 1499.93 658.812 1496.2 658.562 1492.52C658.362 1489.69 657.792 1486.88 656.842 1484.18C656.522 1483.28 656.172 1482.38 655.772 1481.51C636.642 1439.44 605.802 1367.56 578.332 1315.72C570.322 1300.62 567.232 1283.4 569.552 1266.47C574.712 1228.8 580.982 1190.69 589.342 1153.97C607.232 1161.83 625.032 1169.55 642.792 1177.21C633.812 1181.84 624.942 1188.64 621.062 1197.84C589.312 1273.28 626.802 1398.08 686.492 1484.12C672.802 1516.64 665.272 1551.74 664.402 1587.02C664.102 1599.36 664.812 1612.41 671.482 1622.79C680.152 1636.3 697.392 1642.3 713.442 1641.74C724.502 1641.36 735.202 1638.38 745.672 1634.62L745.692 1634.65Z" fill="url(#paint23_linear_26486_105675)"/>
<path style="mix-blend-mode:multiply" d="M695.784 1485.93C686.404 1488.25 676.594 1489 667.084 1490.76C664.254 1491.29 661.414 1491.91 658.564 1492.53C658.364 1489.7 657.794 1486.89 656.844 1484.19C659.134 1483.17 661.434 1482.16 663.734 1481.15C672.404 1477.33 681.614 1472.07 690.874 1469.98C692.344 1469.65 693.074 1471.51 691.884 1472.36C683.704 1478.1 673.144 1481.52 664.024 1485.58C662.464 1486.27 660.884 1487.03 659.284 1487.81C661.844 1487.37 664.414 1486.98 666.934 1486.57C676.274 1485.06 686.024 1483.27 695.494 1483.76C696.694 1483.82 697.054 1485.62 695.784 1485.94V1485.93Z" fill="url(#paint24_linear_26486_105675)"/>
<path d="M1424.94 913.25C1413.12 920.02 1400.53 925.44 1387.5 929.37C1393.67 928.91 1399.69 929.09 1405.63 930.79C1409.14 931.8 1412.99 934.51 1412.43 938.12C1411.98 941.07 1408.87 942.72 1406.12 943.86C1393.59 949.06 1380.7 953.39 1367.57 956.81C1374.43 956.64 1381.37 957.88 1387.99 959.67C1389.7 960.13 1391.54 960.76 1392.46 962.28C1393.64 964.23 1392.69 966.9 1390.96 968.38C1389.22 969.86 1386.92 970.44 1384.7 970.97C1380.29 972.03 1375.9 973.09 1371.49 974.16C1362.85 976.24 1354.21 978.32 1345.57 980.41C1342.62 976.15 1340.31 971.55 1340.21 966.44C1340.08 959.48 1344.16 953.19 1348.26 947.55C1358.97 932.83 1370.95 918.99 1382.19 904.67C1384.64 903.97 1387.11 903.35 1389.6 902.79C1399.85 900.49 1410.37 899.39 1420.87 899.54C1422.99 899.56 1425.16 899.65 1427.12 900.46C1429.08 901.26 1430.82 902.93 1431.14 905.02C1431.7 908.64 1428.13 911.44 1424.95 913.26L1424.94 913.25Z" fill="url(#paint25_linear_26486_105675)"/>
<path style="mix-blend-mode:multiply" opacity="0.68" d="M1371.48 974.16C1362.84 976.24 1354.2 978.32 1345.56 980.41C1342.61 976.15 1340.3 971.55 1340.2 966.44C1340.07 959.48 1344.15 953.19 1348.25 947.55C1358.96 932.83 1370.94 918.99 1382.18 904.67C1384.63 903.97 1387.1 903.35 1389.59 902.79C1378.97 916.52 1369.02 930.75 1359.78 945.44C1357.27 949.43 1354.74 953.75 1354.86 958.45C1355.09 966.68 1363.38 972.43 1371.47 974.15L1371.48 974.16Z" fill="url(#paint26_linear_26486_105675)"/>
<path d="M1230.6 632.31C1228.55 645 1228.16 657.79 1228.68 670.66C1229.75 698.19 1234.92 726.01 1236.58 753.71C1237.23 764.53 1237.35 775.32 1236.49 786.08C1236.33 787.97 1236.15 789.86 1235.93 791.76C1234.33 805.79 1230.98 819.32 1226.41 832.49C1217.07 859.42 1202.62 884.83 1187.49 909.81C1180.01 922.15 1172.37 934.39 1165.1 946.66C1159.53 956.06 1154.15 965.57 1148.97 975.17C1135.45 1000.13 1123.25 1025.75 1112.5 1051.78C1106.1 1067.26 1100.34 1081.24 1094.95 1093.96C1081.08 1126.62 1069.58 1151.02 1055.77 1171.22C1045.69 1185.98 1034.38 1198.5 1020.04 1210.37C1005.73 1222.22 988.382 1233.41 966.212 1245.53C963.272 1247.56 960.232 1249.43 957.082 1251.15C954.762 1252.42 952.382 1253.61 949.952 1254.71C947.762 1255.71 945.522 1256.64 943.242 1257.5C933.262 1261.3 922.502 1263.79 911.102 1265.03C909.652 1265.19 908.182 1265.2 906.722 1265.11C795.662 1257.43 686.692 1221.43 594.122 1159.75C591.532 1158.02 589.412 1155.68 587.992 1152.91C579.592 1136.57 574.962 1118.9 573.282 1100.71C570.142 1067.02 577.082 1031.54 588.882 999.43C590.072 996.2 591.302 992.98 592.582 989.79C598.242 975.53 604.682 961.61 611.412 947.81C612.432 945.72 613.462 943.63 614.492 941.54C629.212 911.8 644.972 882.5 656.942 851.58C657.842 849.25 658.732 846.9 659.582 844.56C667.582 822.79 673.862 800.43 680.232 778.09C685.502 759.59 690.832 741.1 697.232 722.98C702.922 706.87 709.632 690.86 717.802 675.7C730.302 652.49 746.252 631.28 767.272 614.79C769.862 612.75 772.812 611.21 775.932 610.15C780.972 608.44 785.992 606.67 790.992 604.84C807.832 598.71 824.452 591.96 840.862 584.61C856.862 577.44 872.672 569.7 888.252 561.37C908.712 550.43 928.802 538.49 948.492 525.56C958.652 518.89 968.702 511.95 978.642 504.75C978.682 504.72 978.722 504.69 978.762 504.66C965.432 497.08 954.642 485.1 948.312 473.38C948.002 472.82 947.782 472.21 947.652 471.58C943.422 452.35 940.942 432.76 940.142 413.07C939.212 390.1 940.582 367.03 944.172 344.27C947.612 322.32 953.132 300.67 960.632 279.72C964.102 270.05 967.982 260.53 972.292 251.2C972.332 251.12 972.372 251.03 972.402 250.94C973.552 248.44 975.442 246.34 977.842 245C979.972 243.81 982.122 242.64 984.272 241.51C984.952 241.13 985.632 240.77 986.312 240.42C1013.98 225.94 1043.46 215 1073.75 207.66C1130.54 193.9 1190.18 192.81 1246.08 204.85C1246.69 204.99 1247.3 205.11 1247.91 205.25C1250.8 205.89 1253.37 207.51 1255.16 209.87C1267.76 226.39 1278.41 244.34 1286.86 262.96C1296.03 283.12 1302.63 304.04 1306.33 324.68C1306.41 325.1 1306.48 325.51 1306.56 325.94C1306.75 327.02 1306.85 328.12 1306.88 329.22C1307.26 349.13 1306.61 369.07 1304.93 388.92C1298.08 469.88 1274.18 549.62 1233.76 622.11C1232.48 624.41 1231.57 626.9 1231.09 629.48C1230.92 630.43 1230.76 631.37 1230.61 632.31H1230.6Z" fill="url(#paint27_linear_26486_105675)"/>
<path d="M1286.86 262.94C1283.11 269.24 1279.13 275.41 1274.94 281.43C1269.48 272.21 1263.2 263.4 1256.03 255.11C1252.45 250.98 1247.93 247.79 1242.88 245.74C1245.68 232.45 1246.74 218.64 1246.07 204.85C1246.68 204.99 1247.29 205.11 1247.9 205.25C1250.79 205.89 1253.36 207.51 1255.15 209.87C1267.75 226.39 1278.4 244.34 1286.85 262.96L1286.86 262.94Z" fill="url(#paint28_linear_26486_105675)"/>
<path d="M1304.92 388.9C1304.68 388.94 1304.45 388.97 1304.21 389C1303.58 369.59 1300.95 350.48 1296.05 332.18C1299.62 329.88 1303.06 327.37 1306.34 324.67C1306.42 325.09 1306.49 325.5 1306.57 325.93C1306.76 327.01 1306.86 328.11 1306.89 329.21C1307.27 349.12 1306.62 369.06 1304.94 388.91L1304.92 388.9Z" fill="url(#paint29_linear_26486_105675)"/>
<path d="M1208.29 256.1C1191.59 278.34 1176.85 302.07 1163.62 326.89C1106.59 287.75 1040.63 261.71 972.273 251.18C972.313 251.1 972.353 251.01 972.383 250.92C973.533 248.42 975.423 246.32 977.823 244.98C979.953 243.79 982.103 242.62 984.253 241.49C984.933 241.11 985.613 240.75 986.293 240.4C1013.96 225.92 1043.44 214.98 1073.73 207.64C1121.34 213.95 1167.6 230.52 1208.27 256.09L1208.29 256.1Z" fill="url(#paint30_linear_26486_105675)"/>
<path d="M1156.54 504.11C1079.16 489.08 1004.98 457.83 940.123 413.05C939.193 390.08 940.563 367.01 944.153 344.25C1009.63 371.05 1078.57 389.4 1148.72 398.68C1145.17 433.85 1150.86 469.21 1156.55 504.11H1156.54Z" fill="url(#paint31_linear_26486_105675)"/>
<path d="M1228.67 670.65C1122.77 654.799 1022.49 602.929 948.461 525.539C958.621 518.869 968.671 511.929 978.611 504.729C1009.01 521.819 1041.51 535.159 1076.35 543.349C1130.6 593.079 1185.45 627.169 1230.59 632.299C1228.54 644.989 1228.15 657.78 1228.67 670.65Z" fill="url(#paint32_linear_26486_105675)"/>
<path d="M1236.49 786.07C1236.33 787.96 1236.15 789.85 1235.93 791.75C1234.33 805.78 1230.98 819.31 1226.41 832.48C1062.46 803.89 908.013 723.11 790.973 604.82C807.813 598.69 824.433 591.94 840.843 584.59C856.843 577.42 872.653 569.68 888.233 561.35C974.513 655.82 1109.49 729.49 1236.57 753.71C1237.22 764.53 1237.34 775.32 1236.48 786.08L1236.49 786.07Z" fill="url(#paint33_linear_26486_105675)"/>
<path d="M1187.49 909.8C1180.01 922.14 1172.37 934.38 1165.1 946.65C1159.53 956.05 1154.15 965.56 1148.97 975.16C979.003 952.44 815.343 883.65 680.223 778.06C685.493 759.56 690.823 741.07 697.223 722.95C702.913 706.84 709.623 690.83 717.793 675.67C855.203 786.09 1016.59 866.58 1187.49 909.8Z" fill="url(#paint34_linear_26486_105675)"/>
<path d="M1094.93 1093.94C1081.06 1126.6 1069.56 1151 1055.75 1171.2C895.333 1125.03 744.323 1046.41 614.473 941.509C629.193 911.769 644.953 882.469 656.923 851.549C657.823 849.219 658.713 846.869 659.563 844.529C793.233 945.619 939.963 1029.49 1094.93 1093.95V1093.94Z" fill="url(#paint35_linear_26486_105675)"/>
<path d="M1020.02 1210.35C1005.71 1222.2 988.362 1233.39 966.192 1245.51C963.252 1247.54 960.212 1249.41 957.062 1251.13C954.742 1252.4 952.362 1253.59 949.932 1254.69C814.452 1234.69 683.902 1181.42 573.262 1100.69C570.122 1067 577.062 1031.52 588.862 999.409C590.052 996.179 591.282 992.96 592.562 989.77C714.692 1096 862.662 1172.41 1020.02 1210.36V1210.35Z" fill="url(#paint36_linear_26486_105675)"/>
<path style="mix-blend-mode:multiply" opacity="0.31" d="M812.262 656.129C841.692 645.999 877.012 656.509 896.112 681.069C911.412 700.739 915.992 726.569 918.032 751.409C922.832 809.879 916.172 869.269 898.822 925.169C927.602 934.769 956.522 944.429 983.392 958.519C1010.26 972.609 1035.22 991.449 1052.47 1016.4C994.112 986.279 927.862 971.619 862.242 974.309L857.162 883.729L812.262 656.139V656.129Z" fill="url(#paint37_linear_26486_105675)"/>
<path style="mix-blend-mode:multiply" opacity="0.26" d="M943.234 1257.47C933.254 1261.27 922.494 1263.76 911.094 1265C909.644 1265.16 908.174 1265.17 906.714 1265.08C795.654 1257.41 686.684 1221.4 594.114 1159.72C591.524 1158 589.404 1155.65 587.984 1152.89C564.044 1106.31 570.714 1048.84 588.874 999.4C595.354 981.76 603.154 964.67 611.404 947.77C608.874 960.33 606.874 972.99 605.744 985.76C602.854 1018.38 605.884 1052.13 619.494 1081.91C636.404 1118.91 668.224 1146.99 701.834 1169.92C773.304 1218.64 857.194 1248.89 943.234 1257.47Z" fill="url(#paint38_linear_26486_105675)"/>
<path style="mix-blend-mode:multiply" opacity="0.26" d="M1149.9 578.159C994.924 527.819 923.504 554.46 870.364 576.27C860.984 580.12 850.894 582.65 840.844 584.58C888.774 563.11 934.844 536.45 978.744 504.63C965.414 497.05 954.624 485.07 948.294 473.35C947.984 472.79 947.764 472.179 947.634 471.549C933.724 408.249 938.674 340.969 960.614 279.689C964.114 269.929 968.034 260.33 972.384 250.91C973.534 248.41 975.424 246.309 977.824 244.969C979.954 243.779 982.104 242.609 984.254 241.479C947.544 332.319 943.824 484.26 1149.89 578.14L1149.9 578.159Z" fill="url(#paint39_linear_26486_105675)"/>
<path style="mix-blend-mode:multiply" opacity="0.26" d="M1161.57 582.85C1157.65 581.38 1153.76 579.81 1149.9 578.17C1153.79 579.73 1157.68 581.29 1161.57 582.85Z" fill="url(#paint40_linear_26486_105675)"/>
<path d="M1093.89 1018.57C1121.8 1013.88 1149.71 1009.19 1177.62 1004.5C1180.76 1003.97 1184.03 1003.45 1187.07 1004.38C1190.11 1005.31 1192.83 1008.15 1192.48 1011.31C1192.17 1014.15 1189.66 1016.17 1187.29 1017.75C1178.94 1023.33 1169.73 1027.62 1160.08 1030.4C1137.63 1036.89 1114.44 1029.69 1093.89 1018.56V1018.57Z" fill="url(#paint41_linear_26486_105675)"/>
<path d="M1042.55 1077.01C1042.71 1077.06 1042.86 1077.12 1043.03 1077.17C1051.89 1080.15 1060.8 1083.03 1069.74 1085.78C1110.13 1098.26 1151.23 1108.43 1192.79 1116.22C1196.47 1116.92 1201.35 1116.98 1202.84 1113.61C1202.87 1113.55 1202.89 1113.48 1202.92 1113.42C1204.14 1110.28 1201.37 1107.12 1198.74 1105.02C1191.85 1099.51 1184.83 1093.06 1176.68 1089.67C1193.37 1094.44 1210.75 1096.83 1228.11 1096.77C1230.83 1096.76 1234.26 1096.15 1234.91 1093.5C1235.51 1091.02 1233.08 1088.93 1230.92 1087.58C1218.98 1080.14 1206.69 1073.12 1193.77 1067.51C1206.47 1067.54 1219.16 1067.58 1231.85 1067.61C1234.11 1067.62 1236.44 1067.61 1238.55 1066.8C1240.66 1065.99 1242.54 1064.18 1242.75 1061.93C1242.93 1059.97 1241.82 1058.06 1240.3 1056.81C1238.78 1055.55 1236.91 1054.82 1235.06 1054.13C1225.23 1050.44 1215.3 1045.65 1205.18 1042.8C1213.47 1042.54 1221.72 1041.16 1229.64 1038.7C1232.82 1037.71 1236.47 1035.9 1236.75 1032.58C1236.94 1030.36 1235.39 1028.27 1233.44 1027.16C1231.5 1026.05 1229.22 1025.73 1227.01 1025.41C1185.67 1019.53 1143.91 1016.5 1102.14 1016.68C1098.19 1016.69 1094.25 1016.74 1090.31 1016.81C1086.35 1016.89 1082.39 1016.99 1078.44 1017.12C1076.14 1017.2 1073.82 1017.28 1071.52 1017.38C1069.78 1017.46 1065.89 1016.86 1062.82 1016.64C1062.37 1016.61 1061.95 1016.58 1061.54 1016.57C1060.44 1016.53 1059.56 1016.58 1059.05 1016.77C1058.96 1016.8 1058.88 1016.84 1058.8 1016.88C1057.47 1017.46 1056.65 1018.39 1056.06 1019.58C1055.25 1021.22 1054.88 1023.33 1054.23 1025.58C1054.16 1025.85 1054.08 1026.13 1054.01 1026.4C1053.37 1028.82 1051.87 1034.83 1050.15 1041.92C1046.5 1056.95 1041.89 1076.77 1042.56 1076.99L1042.55 1077.01Z" fill="url(#paint42_linear_26486_105675)"/>
<path d="M1408.14 864.16C1407.75 866.85 1406.43 869.3 1405.07 871.65C1398.37 883.29 1390.48 894.11 1382.18 904.67C1370.94 918.99 1358.97 932.83 1348.25 947.55C1344.15 953.19 1340.07 959.48 1340.2 966.44C1340.3 971.54 1342.61 976.14 1345.56 980.41C1347.01 982.51 1348.63 984.53 1350.21 986.48C1358.53 996.79 1366.68 1007.24 1374.64 1017.83C1376.58 1020.42 1378.62 1023.41 1378.16 1026.6C1378.16 1026.65 1378.14 1026.7 1378.14 1026.75C1378.14 1026.82 1378.12 1026.88 1378.1 1026.95C1377.99 1027.54 1377.78 1028.11 1377.49 1028.63C1376.16 1031.1 1373.24 1032.68 1370.36 1032.98C1366.81 1033.35 1363.3 1032.22 1359.88 1031.23C1359.6 1031.15 1359.32 1031.07 1359.03 1031C1341.65 1026.05 1323.4 1024.21 1305.36 1025.53C1304.77 1025.58 1304.16 1025.62 1303.57 1025.67C1301.19 1025.87 1296.62 1026.13 1291.78 1026.84C1290.31 1007.21 1286.84 981.19 1277.73 958.63C1280.52 957.29 1283.59 955.74 1286.27 954.03C1286.29 954.03 1286.29 954.01 1286.31 954C1287.75 953.08 1288.95 951.7 1290.34 950.46C1321.66 922.74 1375.1 869.41 1397.12 855.52C1399.66 853.92 1403.44 854.85 1405.76 856.76C1407.86 858.47 1408.55 861.49 1408.14 864.16Z" fill="url(#paint43_linear_26486_105675)"/>
<path style="mix-blend-mode:multiply" opacity="0.68" d="M1043.03 1077.17C1051.89 1080.15 1060.8 1083.03 1069.74 1085.78C1110.13 1098.26 1151.23 1108.43 1192.79 1116.22C1196.47 1116.92 1201.35 1116.98 1202.84 1113.61C1176.36 1110.62 1150.39 1101.3 1129.64 1084.68C1108.71 1067.92 1093.58 1043.33 1090.31 1016.82C1086.35 1016.9 1082.39 1017 1078.44 1017.13C1076.14 1017.21 1073.82 1017.29 1071.52 1017.39C1069.78 1017.47 1065.89 1016.87 1062.82 1016.65C1062.91 1018.16 1063.09 1019.69 1063.22 1021.18C1063.98 1030.37 1062.1 1039.78 1057.87 1047.98C1052.82 1057.74 1044.34 1066.34 1043.04 1077.17H1043.03Z" fill="url(#paint44_linear_26486_105675)"/>
<path d="M1042.55 1077.01C1051.57 1080.05 1060.63 1082.98 1069.74 1085.78C1071.11 1062.73 1074.01 1039.8 1078.43 1017.14C1076.13 1017.22 1073.81 1017.3 1071.51 1017.4C1069.52 1017.49 1064.69 1016.69 1061.53 1016.59C1060.62 1016.7 1059.7 1016.8 1058.79 1016.9C1058.15 1016.98 1057.52 1017.05 1056.88 1017.12C1056.6 1017.93 1056.32 1018.75 1056.05 1019.6C1055.42 1021.54 1054.81 1023.55 1054.22 1025.6C1054.15 1025.87 1054.07 1026.15 1054 1026.42C1052.6 1031.4 1051.34 1036.63 1050.14 1041.94C1047.45 1053.95 1045.14 1066.33 1042.55 1077.01Z" fill="url(#paint45_linear_26486_105675)"/>
<path style="mix-blend-mode:multiply" opacity="0.63" d="M1205.88 608.36C1204.94 612.2 1200.72 614.91 1196.84 614.15C1192.96 613.4 1190.06 609.3 1190.62 605.4C1191.19 601.49 1195.14 598.39 1199.07 598.77C1203 599.15 1207.17 603.09 1205.88 608.36Z" fill="url(#paint46_linear_26486_105675)"/>
<path d="M1048.1 1008.21C1053.01 1009.78 1061 1012.11 1069.73 1016.2C1069.73 1029.66 1065.02 1066.85 1054.85 1082.56C1046.55 1087.84 1035.06 1085.38 1026.39 1084.71L1048.1 1008.21Z" fill="url(#paint47_linear_26486_105675)"/>
<path style="mix-blend-mode:multiply" opacity="0.68" d="M1378.09 1026.95C1377.98 1027.54 1377.77 1028.11 1377.48 1028.63C1376.15 1031.1 1373.23 1032.68 1370.35 1032.98C1366.8 1033.35 1363.29 1032.22 1359.87 1031.23C1359.59 1031.15 1359.31 1031.07 1359.02 1031C1341.64 1026.05 1323.39 1024.21 1305.35 1025.53C1304.76 1025.58 1304.15 1025.62 1303.56 1025.67C1301.18 1025.87 1296.61 1026.13 1291.77 1026.84C1290.3 1007.21 1286.83 981.19 1277.72 958.63C1280.51 957.29 1283.58 955.74 1286.26 954.03C1286.28 954.03 1286.28 954.01 1286.3 954C1291.07 976.29 1304.33 996.71 1322.9 1009.95C1338.84 1021.32 1358.52 1027.26 1378.08 1026.96L1378.09 1026.95Z" fill="url(#paint48_linear_26486_105675)"/>
<path style="mix-blend-mode:multiply" opacity="0.58" d="M1204.09 240.189C1214.67 238.459 1228.42 240.469 1241.53 245.209C1247.12 247.229 1252.15 250.619 1256.04 255.119C1289.48 293.809 1303.78 343.659 1304.35 395.279C1305.3 480.619 1265.73 564.229 1214.47 581.77C1178.51 528.06 1167.2 457.889 1182.97 395.209C1188.92 371.529 1198.58 348.929 1204.89 325.339C1211.2 301.749 1218.51 274.279 1204.1 240.189H1204.09Z" fill="url(#paint49_linear_26486_105675)"/>
<path d="M1214.47 581.77C1187.75 566.88 1160.51 538.03 1144.94 509.13C1142.49 504.6 1140.33 500.06 1138.51 495.58C1134.59 485.95 1131.54 476.01 1129.31 465.89C1130.1 464.64 1130.98 463.48 1131.96 462.41C1134 460.18 1136.36 458.34 1138.92 456.83C1159.54 468.62 1180.02 480.67 1200.14 492.77C1198.43 512.45 1200.66 531.28 1204.79 549.09C1207.41 560.41 1210.81 571.32 1214.46 581.77H1214.47Z" fill="url(#paint50_linear_26486_105675)"/>
<path style="mix-blend-mode:multiply" opacity="0.53" d="M1204.8 549.09C1187.87 531.85 1167.36 518.12 1144.94 509.13C1142.49 504.6 1140.33 500.06 1138.51 495.58C1134.59 485.95 1131.54 476.01 1129.31 465.89C1130.1 464.64 1130.98 463.48 1131.96 462.41C1134 460.18 1136.36 458.34 1138.92 456.83C1159.54 468.62 1180.02 480.67 1200.14 492.77C1198.43 512.45 1200.66 531.28 1204.79 549.09H1204.8Z" fill="url(#paint51_linear_26486_105675)"/>
<path d="M1299 487.729C1295.76 500.399 1290.94 513.629 1280.33 521.269C1255.6 539.059 1190.18 518.049 1152.75 499.769C1147.39 497.149 1142.11 494.369 1136.9 491.439C1136.87 491.359 1136.85 491.299 1136.82 491.219C1133.75 483.069 1131.29 474.729 1129.39 466.249C1128.93 464.209 1128.5 462.149 1128.11 460.089V460.069C1127.45 456.629 1126.88 453.169 1126.41 449.699C1125.97 446.479 1125.61 443.239 1125.31 439.989C1123.25 416.779 1125.03 393.149 1130.07 370.389C1135.05 347.899 1143.09 326.229 1153.37 305.589C1155.08 302.139 1156.87 298.729 1158.7 295.339C1166.13 281.629 1174.52 268.409 1183.6 255.749C1188.21 249.319 1193.59 242.619 1201.27 240.689C1210.15 238.459 1219.88 242.469 1226.6 248.689C1251.43 271.639 1269.12 295.319 1281.48 318.699C1285.03 325.409 1288.13 332.089 1290.85 338.719C1293.08 344.179 1295.05 349.609 1296.77 354.989C1313.9 408.519 1306.81 457.319 1299.02 487.739L1299 487.729Z" fill="url(#paint52_linear_26486_105675)"/>
<path d="M1211.83 293.22C1211.42 294.83 1210.8 296.44 1209.49 296.9C1205.76 298.21 1206.75 291 1206.8 289.28C1206.91 285.38 1207.29 281.48 1207.93 277.63C1208.75 272.71 1210.01 267.87 1211.68 263.17C1212.76 260.12 1214.42 252.82 1218.98 253.64C1221.96 254.18 1225.59 257.26 1225.09 260.57C1224.89 261.87 1224.24 263.05 1223.61 264.21C1220.62 269.72 1217.98 275.41 1215.72 281.25C1214.56 284.24 1213.5 287.26 1212.53 290.32C1212.29 291.07 1212.11 292.15 1211.83 293.22Z" fill="url(#paint53_linear_26486_105675)"/>
<path d="M1179.95 309.41C1171.22 307.4 1162.33 306.12 1153.36 305.6C1155.07 302.15 1156.86 298.74 1158.69 295.35C1160.76 295.76 1162.84 296.19 1164.9 296.67C1171.09 298.11 1178.22 299.65 1183.48 303.65C1184.27 304.25 1185.05 304.94 1185.47 305.94C1187.24 310.13 1181.83 309.84 1179.94 309.41H1179.95Z" fill="url(#paint54_linear_26486_105675)"/>
<path style="mix-blend-mode:multiply" opacity="0.49" d="M1296.75 354.98C1288.41 338.36 1278.57 322.48 1267.38 307.64C1257.9 295.06 1245.55 282.25 1229.8 281.74C1215.77 281.28 1204.07 291.41 1193.66 300.83C1111.62 375.12 1131.18 466.17 1136.89 491.45C1136.87 491.38 1136.85 491.31 1136.81 491.23C1133.74 483.08 1131.28 474.74 1129.38 466.26C1128.92 464.22 1128.49 462.16 1128.1 460.1V460.08C1127.44 456.64 1126.87 453.18 1126.4 449.71C1125.96 446.49 1125.6 443.25 1125.3 440C1123.24 416.79 1125.02 393.16 1130.06 370.4C1135.04 347.91 1143.08 326.24 1153.36 305.6C1155.07 302.15 1156.86 298.74 1158.69 295.35C1166.12 281.64 1174.51 268.42 1183.59 255.76C1188.2 249.33 1193.58 242.63 1201.26 240.7C1210.14 238.47 1219.87 242.48 1226.59 248.7C1251.42 271.65 1269.11 295.33 1281.47 318.71C1285.02 325.42 1288.12 332.1 1290.84 338.73C1293.07 344.19 1295.04 349.62 1296.76 355L1296.75 354.98Z" fill="url(#paint55_linear_26486_105675)"/>
<g style="mix-blend-mode:multiply" opacity="0.57">
<path d="M961.143 1091.97C953.633 1101.9 944.713 1110.6 935.733 1119.17C922.613 1131.64 910.523 1141.88 895.343 1151.09C893.373 1152.29 891.293 1153.3 889.293 1154.44C888.423 1154.9 887.253 1155.48 887.503 1156.66C887.563 1157.47 888.343 1158.1 889.143 1158.11C890.193 1157.97 889.613 1158 890.723 1157.58C890.653 1157.61 890.583 1157.64 890.543 1157.66C890.703 1157.61 890.853 1157.54 891.003 1157.48C892.393 1156.93 893.673 1156.17 894.993 1155.46C908.653 1147.65 921.203 1137.96 932.793 1127.36C942.653 1118.06 952.573 1108.69 960.783 1097.87C961.613 1096.78 962.413 1095.68 963.233 1094.59C963.503 1094.2 963.903 1093.85 963.913 1093.34C964.193 1091.87 962.183 1090.86 961.153 1091.97H961.143Z" fill="#454347"/>
</g>
<path d="M1053.9 1036.26C1052.95 1041.82 1051.4 1047.36 1049.86 1052.69C1046.39 1064.6 1042.58 1077.08 1033.64 1085.68C1026.36 1092.67 1016.51 1096.24 1006.83 1099.11C989.892 1104.13 972.502 1107.51 954.952 1109.28C929.542 1111.86 903.792 1111.07 878.542 1107.05C865.542 1104.98 852.672 1102.05 840.052 1098.28C826.652 1094.29 813.532 1089.33 800.852 1083.46C788.732 1077.84 776.282 1072.95 763.532 1069.01C757.372 1067.1 751.132 1065.42 744.832 1063.97C741.772 1063.27 738.702 1062.63 735.612 1062.05C732.032 1061.38 728.492 1060.48 725.002 1059.34C712.472 1055.24 700.602 1047.59 694.092 1036.13C687.842 1025.14 687.212 1012.27 687.862 999.43C688.072 995.03 688.442 990.64 688.782 986.33C691.492 952.27 691.682 918.06 693.282 883.93C693.782 872.95 694.442 861.99 695.372 851.03C696.712 835.3 698.642 819.51 701.512 803.94C706.772 775.31 715.182 747.39 728.752 721.75C728.922 721.44 729.072 721.14 729.242 720.83C733.182 713.47 737.612 706.28 742.522 699.47C755.212 681.89 771.202 666.82 790.692 657.67C817.742 644.97 852.212 645.65 875.472 664.41C889.552 675.76 898.472 692.59 902.952 710.11C906.242 722.93 908.022 740.22 908.262 760.24C908.552 784.02 906.662 811.66 902.542 840.2C898.972 864.97 893.712 890.43 886.752 914.66C884.862 921.27 882.832 927.79 880.672 934.17C880.672 934.21 880.652 934.25 880.632 934.29C880.552 934.51 880.682 934.74 880.902 934.8C888.962 937.05 896.992 939.3 904.982 941.6C905.332 941.7 905.682 941.8 906.032 941.9C916.552 944.92 927.012 948.03 937.352 951.33C940.892 952.46 944.422 953.6 947.932 954.77C971.292 962.55 994.062 971.41 1015.8 982.43C1019.18 984.13 1022.52 985.89 1025.84 987.71C1036.25 993.4 1046.95 1000.25 1051.86 1011.06C1055.44 1018.95 1055.39 1027.61 1053.91 1036.27L1053.9 1036.26Z" fill="url(#paint56_linear_26486_105675)"/>
<path d="M902.524 840.199C834.064 840.279 765.604 827.919 701.484 803.929C706.744 775.299 715.154 747.379 728.724 721.739C784.684 747.759 846.524 761.079 908.234 760.239C908.524 784.019 906.634 811.659 902.514 840.199H902.524Z" fill="url(#paint57_linear_26486_105675)"/>
<path d="M886.734 914.659C884.844 921.269 882.814 927.789 880.654 934.169C820.504 966.229 755.094 988.369 687.844 999.419C688.054 995.019 688.424 990.629 688.764 986.319C691.474 952.259 691.664 918.049 693.264 883.919C754.274 908.759 821.024 919.389 886.734 914.669V914.659Z" fill="url(#paint58_linear_26486_105675)"/>
<path d="M1053.9 1036.26C1052.95 1041.82 1051.4 1047.36 1049.86 1052.69C1046.39 1064.6 1042.58 1077.08 1033.64 1085.68C1026.36 1092.67 1016.51 1096.24 1006.83 1099.11C989.893 1104.13 972.503 1107.51 954.953 1109.28C990.133 1076.65 1012.45 1030.31 1015.8 982.43C1019.18 984.13 1022.52 985.89 1025.84 987.71C1036.25 993.4 1046.95 1000.25 1051.86 1011.06C1055.44 1018.95 1055.39 1027.61 1053.91 1036.27L1053.9 1036.26Z" fill="url(#paint59_linear_26486_105675)"/>
<path d="M937.336 951.32C927.866 1006.32 907.746 1059.48 878.526 1107.04C865.526 1104.97 852.656 1102.04 840.036 1098.27C826.636 1094.28 813.516 1089.32 800.836 1083.45C788.716 1077.83 776.266 1072.94 763.516 1069C820.396 1039.4 869.606 995.1 904.966 941.6C905.316 941.7 905.666 941.8 906.016 941.9C916.536 944.92 926.996 948.03 937.336 951.33V951.32Z" fill="url(#paint60_linear_26486_105675)"/>
<path style="mix-blend-mode:multiply" opacity="0.48" d="M1053.9 1036.26C1052.95 1041.82 1051.4 1047.36 1049.86 1052.69C1046.39 1064.6 1042.58 1077.08 1033.64 1085.68C1026.36 1092.67 1016.51 1096.24 1006.83 1099.11C939.322 1119.14 864.652 1113.02 800.842 1083.45C780.002 1073.79 758.182 1066.28 735.602 1062.05C732.022 1061.38 728.482 1060.48 724.992 1059.34C712.462 1055.24 700.592 1047.59 694.082 1036.13C685.702 1021.37 687.422 1003.24 688.772 986.33C692.362 941.32 691.542 896.03 695.362 851.03C699.182 806.03 707.922 760.65 729.232 720.84C733.172 713.48 737.602 706.289 742.512 699.479C726.862 766.909 720.942 836.619 723.182 905.849C724.162 936.089 727.422 968.29 746.262 991.96C763.482 1013.6 790.582 1024.22 814.702 1037.73C846.482 1055.54 875.262 1079.88 910.222 1090.06C942.922 1099.58 979.392 1095.38 1009.07 1078.68C1027.18 1068.48 1042.61 1053.71 1053.91 1036.27L1053.9 1036.26Z" fill="url(#paint61_linear_26486_105675)"/>
<path d="M1149.84 427.64C1153.92 432.82 1158.2 437.84 1162.68 442.68C1180.19 461.6 1200.77 477.79 1223.83 489.39C1226.22 490.59 1228.93 491.78 1231.5 491.02C1234.41 490.16 1236.06 487.15 1237.35 484.4C1239.92 478.97 1242.36 473.48 1244.7 467.94C1244.97 467.3 1245.25 466.65 1245.51 466C1247.7 460.72 1249.79 455.4 1251.78 450.03C1253.15 446.34 1252.68 444.23 1251.22 443.02C1248.54 440.83 1242.54 441.6 1238.25 441.1C1227.12 439.81 1216.04 437.99 1205.07 435.67C1185.9 431.59 1167.46 425.53 1148.92 419.25C1141.1 416.6 1148.39 425.79 1149.84 427.63V427.64Z" fill="url(#paint62_linear_26486_105675)"/>
<path style="mix-blend-mode:multiply" d="M1150.74 424.249C1157.62 429.079 1164.74 433.629 1172.05 437.779C1184.76 445.019 1197.99 451.419 1211.55 456.879C1218.38 459.639 1225.31 462.139 1232.34 464.319C1236.4 465.579 1240.53 466.879 1244.69 467.949C1244.96 467.309 1245.24 466.659 1245.5 466.009C1244.46 465.739 1243.42 465.459 1242.38 465.179C1238.47 464.099 1234.59 462.949 1230.72 461.709C1216.63 457.199 1202.71 452.019 1189.39 445.559C1176.15 439.139 1163.38 431.759 1151.09 423.659C1150.71 423.409 1150.38 424.009 1150.73 424.249H1150.74Z" fill="url(#paint63_linear_26486_105675)"/>
<path d="M1214.72 403.55C1214.68 402.95 1214.72 402.33 1214.76 401.73C1215.74 387.4 1216.72 373.07 1217.7 358.74C1218.13 352.53 1217.93 346.52 1217.33 340.28C1217.02 337.03 1217.12 332.18 1215.29 329.31C1214.41 327.93 1216.14 326.32 1217.49 327.11C1223.58 330.67 1228.87 336.71 1234 341.54C1239.69 346.9 1245.34 352.28 1251.08 357.59C1262.54 368.19 1274.36 378.49 1284.31 390.57C1286.56 393.3 1286.3 398.74 1281.97 399.44C1265.07 402.18 1247.93 404.06 1230.89 405.57C1228.16 405.81 1216.76 407.99 1215.31 405.66C1214.91 405.03 1214.76 404.3 1214.71 403.55H1214.72Z" fill="url(#paint64_linear_26486_105675)"/>
<path d="M1201.82 351.589C1201.32 353.719 1200.18 355.629 1198.31 357.209C1192.23 362.339 1184.08 358.059 1178.05 350.009C1174.22 344.909 1172.06 339.629 1172.6 335.079C1172.92 332.439 1174.13 330.039 1176.45 328.059C1183.06 322.419 1190.68 327.209 1196.71 335.259C1200.9 340.839 1203 346.759 1201.82 351.589Z" fill="url(#paint65_linear_26486_105675)"/>
<path d="M1197.35 345.977C1199.75 344.313 1199.95 340.451 1197.81 337.35C1195.66 334.249 1191.97 333.084 1189.57 334.748C1187.17 336.411 1186.96 340.274 1189.11 343.374C1191.26 346.475 1194.94 347.64 1197.35 345.977Z" fill="url(#paint66_linear_26486_105675)"/>
<path style="mix-blend-mode:multiply" d="M1201.82 351.589C1200.3 346.669 1197.45 342.189 1194.11 338.289C1192.09 335.929 1189.84 333.739 1187.14 332.249C1184.44 330.769 1181.26 330.049 1178.28 330.769C1175.93 331.339 1173.75 332.919 1172.59 335.069C1172.91 332.429 1174.12 330.029 1176.44 328.049C1183.05 322.409 1190.67 327.199 1196.7 335.249C1200.89 340.829 1202.99 346.749 1201.81 351.579L1201.82 351.589Z" fill="url(#paint67_linear_26486_105675)"/>
<path d="M1251.78 318.46C1250.81 320.32 1249.28 321.83 1247.13 322.86C1240.14 326.2 1233.34 320.29 1229.42 311.36C1226.94 305.71 1226.09 300.28 1227.65 296.17C1228.56 293.79 1230.27 291.84 1232.95 290.55C1240.57 286.86 1246.74 293.13 1250.66 302.05C1253.37 308.24 1254.02 314.25 1251.78 318.46Z" fill="url(#paint68_linear_26486_105675)"/>
<path d="M1249.29 312.094C1251.77 311.007 1252.65 307.551 1251.25 304.375C1249.86 301.199 1246.72 299.505 1244.25 300.592C1241.77 301.678 1240.89 305.134 1242.28 308.311C1243.67 311.487 1246.81 313.181 1249.29 312.094Z" fill="url(#paint69_linear_26486_105675)"/>
<path style="mix-blend-mode:multiply" d="M1251.78 318.46C1251.46 313.52 1249.77 308.67 1247.48 304.25C1246.09 301.58 1244.45 299 1242.21 296.98C1239.98 294.96 1237.1 293.54 1234.08 293.51C1231.7 293.49 1229.26 294.45 1227.65 296.17C1228.56 293.79 1230.27 291.84 1232.95 290.55C1240.57 286.86 1246.74 293.13 1250.66 302.05C1253.37 308.24 1254.02 314.25 1251.78 318.46Z" fill="url(#paint70_linear_26486_105675)"/>
<path style="mix-blend-mode:multiply" opacity="0.56" d="M1141.56 252.399C1140.79 251.299 1138.94 251.409 1138.3 252.599C1137.4 253.909 1136.51 255.219 1135.64 256.549C1132.1 261.889 1128.91 267.449 1125.74 273.019C1116.88 288.879 1109.29 305.409 1102.18 322.109C1088.19 354.509 1077.94 388.629 1073.34 423.669C1071.56 436.769 1070.34 449.969 1070.42 463.199C1070.46 465.439 1073.91 465.659 1074 463.199C1073.94 448.479 1075.62 433.089 1077.55 419.979C1080.11 402.819 1083.78 385.819 1088.67 369.179C1092.81 354.729 1099.47 337.419 1104.65 325.189C1111.22 309.569 1118.38 294.179 1126.53 279.309C1129.75 273.409 1133.17 267.619 1136.85 261.989C1138.14 259.939 1139.47 257.919 1140.82 255.909C1141.56 254.889 1142.58 253.579 1141.56 252.399Z" fill="url(#paint71_linear_26486_105675)"/>
<path opacity="0.97" d="M1214.15 912.69C1213.82 910.93 1213.49 909.17 1213.17 907.41C1212.15 901.91 1211.21 896.4 1210.35 890.88C1202.57 839.93 1198.66 784.04 1197 730.38C1196.19 705.49 1196.36 680.58 1197.63 655.71C1198.21 643.13 1199.07 630.56 1199.94 618C1200.12 615.23 1200.3 612.47 1200.43 609.7C1200.4 608.36 1200.79 606.94 1200.29 605.68C1199.31 603.19 1195.26 603.75 1195.27 606.69C1194.56 623.82 1192.91 640.9 1192.27 658.03C1191.15 680.97 1190.98 703.94 1191.65 726.9C1193.43 783.38 1196.93 839.94 1206.16 895.74C1207.04 900.92 1207.96 906.1 1209.01 911.24C1209.61 913.54 1209.4 917.19 1212.68 916.57C1213.48 916.34 1214.09 915.72 1214.33 914.92C1214.55 914.18 1214.26 913.44 1214.15 912.7V912.69Z" fill="url(#paint72_linear_26486_105675)"/>
<path d="M721.702 1693.59C719.382 1694.47 717.022 1695.31 714.562 1695.7C710.202 1696.57 703.792 1696.63 697.922 1696.27C696.022 1696.04 696.792 1696.21 695.072 1695.82C694.662 1695.7 694.252 1695.51 693.822 1695.63C691.782 1695.81 691.582 1698.88 693.562 1699.38C701.422 1701.47 709.952 1700.93 717.742 1698.74C719.232 1698.35 720.702 1697.91 722.172 1697.45C722.812 1697.23 723.512 1697.01 723.852 1696.37C724.732 1694.98 723.282 1693.09 721.702 1693.57V1693.59Z" fill="url(#paint73_linear_26486_105675)"/>
<path d="M918.491 1683.07C916.171 1683.95 913.811 1684.79 911.351 1685.18C906.991 1686.05 900.581 1686.11 894.711 1685.75C892.811 1685.52 893.581 1685.69 891.861 1685.3C891.451 1685.18 891.041 1684.99 890.611 1685.11C888.571 1685.29 888.371 1688.36 890.351 1688.86C898.211 1690.95 906.741 1690.41 914.531 1688.22C916.021 1687.83 917.491 1687.39 918.961 1686.93C919.601 1686.71 920.301 1686.49 920.641 1685.85C921.521 1684.46 920.071 1682.57 918.491 1683.05V1683.07Z" fill="url(#paint74_linear_26486_105675)"/>
<g style="mix-blend-mode:multiply" opacity="0.5">
<path d="M1111.63 755.32C1111.63 755.32 1111.64 755.32 1111.65 755.31C1111.63 755.31 1111.63 755.32 1111.63 755.32Z" fill="#B0AFB0"/>
</g>
<g style="mix-blend-mode:multiply" opacity="0.5">
<path d="M1111.81 755.239C1111.81 755.239 1111.78 755.249 1111.76 755.259C1111.76 755.259 1111.77 755.259 1111.78 755.259C1111.78 755.259 1111.79 755.259 1111.81 755.249V755.239Z" fill="#B0AFB0"/>
</g>
<path d="M726.572 1233.53C725.732 1231.99 723.232 1232.31 722.812 1234.02C720.572 1240.22 719.282 1244.27 715.372 1250.05C714.462 1251.41 712.232 1254.03 709.882 1256.19C708.562 1257.44 707.182 1258.63 705.742 1259.74C705.902 1259.61 706.062 1259.49 706.232 1259.36C703.552 1261.53 697.862 1264.63 696.612 1265.06C686.012 1269.54 669.742 1264.18 658.492 1257.81C656.982 1256.73 654.802 1258.22 655.342 1260.03C655.732 1261.28 657.122 1261.71 658.112 1262.4C660.462 1263.79 662.902 1265.04 665.402 1266.14C673.572 1269.89 688.182 1273.99 698.882 1269.22C705.182 1266.61 710.732 1262.41 715.242 1257.32C718.672 1253.66 721.352 1249.4 723.282 1244.78C724.462 1242.18 725.372 1239.47 726.232 1236.74C726.532 1235.7 727.202 1234.57 726.562 1233.54L726.572 1233.53Z" fill="#0A0A0A"/>
<path d="M905.412 1467.49C903.832 1467.22 902.252 1466.96 900.682 1466.63C893.342 1465.09 885.942 1463.91 878.562 1462.58C877.922 1462.46 877.282 1462.35 876.642 1462.24C884.012 1460.82 889.842 1460.32 898.602 1459.66C900.312 1459.58 902.022 1459.56 903.742 1459.57C904.332 1459.61 904.982 1459.57 905.412 1459.1C906.422 1458.16 905.662 1456.31 904.272 1456.35C897.592 1456.2 890.942 1456.9 884.342 1457.87C879.392 1458.66 874.392 1459.37 869.572 1460.76C868.502 1461.13 868.102 1462.64 868.952 1463.44C869.662 1464.12 870.692 1464.24 871.612 1464.49C873.312 1464.85 875.022 1465.16 876.732 1465.49C884.372 1466.9 891.982 1468.46 899.602 1470C901.312 1470.34 902.992 1470.79 904.662 1471.26C905.942 1471.69 907.412 1471.61 907.862 1470.1C908.272 1468.48 906.842 1467.6 905.422 1467.49H905.412Z" fill="#0A0A0A"/>
<g style="mix-blend-mode:multiply" opacity="0.5">
<path d="M1197.31 993.93C1197.44 993.62 1197.44 993.64 1197.31 993.93V993.93Z" fill="#454347"/>
</g>
<path d="M1219.75 958.4C1219.22 957.47 1217.98 957.37 1217.16 957.98C1215.44 958.94 1213.72 959.91 1212.03 960.93C1204.14 965.76 1196.43 970.93 1189.4 976.95C1182.72 982.73 1176.32 989.06 1171.65 996.6C1170.56 998.54 1173.42 1000.25 1174.6 998.33C1183.02 985.59 1197.82 973.25 1212.82 964.21C1209.23 969.69 1205.39 976.55 1202.67 982.22C1200.79 986.12 1198.96 990.04 1197.28 994.03C1197.29 993.99 1197.31 993.96 1197.32 993.93C1197.31 993.96 1197.3 993.98 1197.28 994.01C1196.78 995.17 1196.29 996.33 1195.81 997.5C1195.65 997.86 1195.49 998.24 1195.59 998.64C1195.66 999.81 1197.14 1000.49 1198.11 999.88C1198.76 999.51 1198.92 998.78 1199.18 998.13C1202.68 989.5 1207.89 978.7 1213.43 969.55C1214.93 967.09 1216.48 964.66 1218.15 962.31C1218.85 961.11 1220.58 959.92 1219.76 958.4H1219.75Z" fill="#454347"/>
<g style="mix-blend-mode:multiply" opacity="0.57">
<path d="M873.574 935.979C871.134 936.549 868.574 938.079 865.114 939.329C860.714 941.059 856.214 942.519 851.704 943.939C844.494 946.199 837.214 948.229 829.844 949.899C822.524 951.619 815.134 952.979 807.754 954.399C806.874 954.619 805.754 954.519 805.254 955.419C804.544 956.569 805.714 958.129 807.024 957.719C824.644 955.139 842.014 950.959 858.844 945.159C855.284 947.389 851.684 949.559 847.984 951.579C841.924 954.959 835.804 958.209 829.574 961.259C828.004 962.049 826.494 962.669 826.004 962.909C825.264 963.249 824.384 963.589 824.184 964.479C823.904 965.419 824.514 966.499 825.464 966.739C826.774 966.909 826.624 966.589 827.014 966.499C827.734 966.189 828.434 965.849 829.134 965.479C832.064 963.969 835.004 962.469 837.914 960.929C849.764 954.929 861.344 948.379 872.334 940.909C873.844 939.769 874.654 939.499 875.204 938.459C875.744 937.359 874.794 935.939 873.574 935.979Z" fill="#454347"/>
</g>
<g style="mix-blend-mode:multiply" opacity="0.57">
<path d="M1019.13 1199.91C1017.39 1200.47 1015.69 1201.14 1013.96 1201.71C1010.48 1202.88 1006.92 1203.84 1003.32 1204.58C994.492 1206.34 985.422 1207.11 975.512 1206.09C963.372 1204.76 948.532 1200.59 937.242 1194.81C924.942 1188.94 911.752 1180.46 902.212 1173.08C900.372 1171.67 900.092 1171.5 898.122 1169.85C897.822 1169.55 897.422 1169.38 897.002 1169.39C895.652 1169.35 894.872 1171.16 895.882 1172.1C909.992 1184.81 926.472 1194.85 943.972 1202.18C954.312 1206.32 965.342 1208.68 976.412 1209.73C986.132 1210.52 995.952 1209.63 1005.46 1207.55C1009.53 1206.65 1013.51 1205.41 1017.43 1204.02C1017.98 1203.82 1018.54 1203.64 1019.08 1203.41C1019.51 1203.23 1019.94 1203.06 1020.37 1202.87C1020.24 1202.92 1020.11 1202.98 1019.98 1203.03C1020.61 1202.87 1021.15 1202.33 1021.2 1201.67C1021.42 1200.55 1020.19 1199.53 1019.13 1199.92V1199.91Z" fill="#454347"/>
</g>
<path style="mix-blend-mode:multiply" opacity="0.47" d="M1079.04 735.709C1071.18 743.719 1064.19 752.579 1058.14 762.379C1067.92 768.779 1078.48 774.119 1089.75 777.209C1101.02 780.299 1113.03 781.079 1124.43 778.489C1105.18 771.459 1089.15 756.089 1079.04 735.719V735.709Z" fill="url(#paint75_linear_26486_105675)"/>
<path d="M1060.09 761.109C1078.49 775.019 1101.51 784.979 1124.42 782.349C1127.28 775.849 1129.63 767.399 1131.17 762.399C1112.68 755.559 1102.33 749.849 1078.95 735.439C1071.75 743.159 1065 751.299 1060.09 761.109Z" fill="url(#paint76_linear_26486_105675)"/>
<path d="M1085.71 744.289C1082.49 742.219 1078.55 745.709 1078.53 749.099C1078.54 749.629 1078.58 750.229 1078.72 750.789C1078.58 750.849 1078.43 750.909 1078.29 750.969C1075.9 752.259 1074.62 753.089 1073.11 755.489C1071.65 757.979 1071.57 762.369 1075 763.149C1077.89 763.639 1080.59 761.209 1081.46 758.589C1082.12 756.459 1081.79 754.239 1081.36 752.069C1082.65 751.579 1084.55 750.789 1085.27 750.019C1087.03 748.599 1087.86 745.759 1085.7 744.289H1085.71ZM1077.98 759.589C1076.64 760.879 1075.44 760.869 1075.12 760.509C1074.08 759.759 1074.49 756.889 1076.2 755.249C1077.36 754.159 1077.92 753.619 1079.12 753.009C1079.5 755.549 1079.6 758.139 1077.99 759.589H1077.98ZM1080.94 749.909C1080.94 749.909 1080.94 749.869 1080.93 749.839C1080.93 749.839 1080.93 749.829 1080.93 749.819C1080.81 748.929 1080.95 748.149 1081.17 747.749C1081.92 746.529 1082.24 746.289 1083.16 745.959C1083.25 745.929 1083.35 745.919 1083.44 745.899C1083.49 745.899 1083.53 745.899 1083.59 745.899C1083.69 745.899 1083.77 745.899 1083.82 745.909C1083.96 745.939 1084.1 745.969 1084.23 746.019C1084.31 746.059 1084.39 746.109 1084.47 746.159C1084.53 746.209 1084.59 746.269 1084.64 746.339C1084.65 746.359 1084.66 746.379 1084.67 746.399C1084.69 746.459 1084.71 746.529 1084.73 746.619C1084.73 746.719 1084.73 746.829 1084.73 746.909C1084.72 746.969 1084.71 747.029 1084.69 747.079C1084.24 748.439 1082.81 749.149 1080.92 749.909H1080.94Z" fill="#6C6C70"/>
<path d="M1095.66 751.569C1095.59 751.649 1095.53 751.729 1095.46 751.809C1094.39 752.759 1094.04 753.059 1093.12 753.699C1090.71 755.229 1090.41 755.039 1087.95 756.079C1087.02 756.739 1087.79 758.259 1088.87 757.939C1089.72 757.689 1090.55 757.389 1091.36 757.029C1090.56 758.109 1089.77 759.189 1088.97 760.259C1087.7 762.019 1086.42 763.769 1085.17 765.529C1085.03 765.719 1084.67 766.189 1085.02 765.729C1084.92 765.839 1084.83 765.969 1084.74 766.099C1084.61 766.259 1084.52 766.449 1084.52 766.659C1084.4 767.229 1084.82 767.789 1085.36 767.949C1086.22 768.199 1086.74 767.419 1087.09 766.759C1087.7 765.859 1088.34 764.969 1088.97 764.079C1091.85 759.869 1094.27 756.969 1097.25 753.119C1097.29 753.089 1097.33 753.059 1097.37 753.029L1097.34 752.999C1097.43 752.889 1097.51 752.779 1097.6 752.659C1098.16 751.389 1096.33 750.529 1095.65 751.569H1095.66Z" fill="#6C6C70"/>
<path d="M1105.82 759.29C1104.92 760.83 1104.09 762.43 1103.33 763.99C1103.24 763.96 1103.14 763.92 1103.03 763.87C1102.51 763.72 1101.95 763.5 1100.89 762.98C1100.63 762.83 1100.47 762.74 1100.36 762.68C1102.08 760.91 1103.89 759.22 1105.6 757.44C1106.63 756.38 1105.07 754.81 1104 755.84C1102.28 757.59 1100.56 759.34 1098.8 761.06C1095.18 763.8 1101.36 765.72 1102.07 766.09C1102.03 766.06 1102 766.04 1101.97 766.02C1102.05 766.08 1102.17 766.15 1102.28 766.19C1100.85 769.32 1099.77 772.04 1099.19 773.36C1098.95 774.68 1100.86 775.33 1101.51 774.16C1101.63 773.97 1101.74 773.69 1101.69 773.78C1101.78 773.55 1101.87 773.28 1101.82 773.37C1101.83 773.34 1101.84 773.31 1101.86 773.28C1101.88 773.24 1101.89 773.2 1101.92 773.15C1101.51 774.18 1103.53 769.19 1104.68 766.62C1105.6 764.35 1106.91 762.22 1107.88 760C1108.09 758.83 1106.39 758.24 1105.82 759.29Z" fill="#6C6C70"/>
<path d="M1120.51 762.919C1115.52 762.809 1110 766.679 1108.27 771.339C1106.69 775.209 1109.77 779.029 1113.88 777.869C1118.4 776.439 1118.46 770.479 1114.03 768.899C1113.65 768.759 1113.26 768.679 1112.86 768.639C1113.65 767.819 1114.57 767.079 1115.61 766.519C1117.44 765.519 1118.49 765.159 1120.51 765.109C1121.94 765.089 1121.94 762.949 1120.51 762.929V762.919ZM1111.44 771.099C1111.56 771.099 1112.16 771.069 1112.52 771.089C1112.54 771.089 1112.55 771.089 1112.58 771.089C1113.66 771.289 1113.82 771.579 1113.95 771.609C1114.85 772.429 1114.93 773.189 1114.81 773.829C1114.29 775.849 1110.64 776.409 1110.3 773.679C1110.24 773.019 1110.5 772.129 1111 771.179C1111.15 771.159 1111.3 771.129 1111.44 771.099Z" fill="#6C6C70"/>
<defs>
<linearGradient id="paint0_linear_26486_105675" x1="1419.01" y1="863.599" x2="1298.81" y2="1029.8" gradientUnits="userSpaceOnUse">
<stop stop-color="#FFC493"/>
<stop offset="1" stop-color="#FFB073"/>
</linearGradient>
<linearGradient id="paint1_linear_26486_105675" x1="807.872" y1="1669.02" x2="593.022" y2="1776.94" gradientUnits="userSpaceOnUse">
<stop stop-color="#B8B8B8"/>
<stop offset="1" stop-color="#8C898C"/>
</linearGradient>
<linearGradient id="paint2_linear_26486_105675" x1="724.153" y1="1712.82" x2="724.173" y2="1712.7" gradientUnits="userSpaceOnUse">
<stop stop-color="#454347"/>
<stop offset="1" stop-color="#626163"/>
</linearGradient>
<linearGradient id="paint3_linear_26486_105675" x1="711.781" y1="1717.82" x2="713.791" y2="1706.4" gradientUnits="userSpaceOnUse">
<stop stop-color="#454347"/>
<stop offset="1" stop-color="#626163"/>
</linearGradient>
<linearGradient id="paint4_linear_26486_105675" x1="716.96" y1="1732.9" x2="719.12" y2="1720.61" gradientUnits="userSpaceOnUse">
<stop stop-color="#454347"/>
<stop offset="1" stop-color="#626163"/>
</linearGradient>
<linearGradient id="paint5_linear_26486_105675" x1="995.015" y1="1644.85" x2="808.696" y2="1777.74" gradientUnits="userSpaceOnUse">
<stop stop-color="#B8B8B8"/>
<stop offset="1" stop-color="#8C898C"/>
</linearGradient>
<linearGradient id="paint6_linear_26486_105675" x1="995.015" y1="1644.85" x2="808.696" y2="1777.74" gradientUnits="userSpaceOnUse">
<stop stop-color="#B8B8B8"/>
<stop offset="1" stop-color="#8C898C"/>
</linearGradient>
<linearGradient id="paint7_linear_26486_105675" x1="922.667" y1="1698.28" x2="922.67" y2="1698.16" gradientUnits="userSpaceOnUse">
<stop stop-color="#454347"/>
<stop offset="1" stop-color="#626163"/>
</linearGradient>
<linearGradient id="paint8_linear_26486_105675" x1="911.756" y1="1704.79" x2="911.984" y2="1693.75" gradientUnits="userSpaceOnUse">
<stop stop-color="#454347"/>
<stop offset="1" stop-color="#626163"/>
</linearGradient>
<linearGradient id="paint9_linear_26486_105675" x1="918.843" y1="1718.21" x2="919.084" y2="1706.34" gradientUnits="userSpaceOnUse">
<stop stop-color="#454347"/>
<stop offset="1" stop-color="#626163"/>
</linearGradient>
<linearGradient id="paint10_linear_26486_105675" x1="875.711" y1="1699.33" x2="880.371" y2="1633.49" gradientUnits="userSpaceOnUse">
<stop stop-color="#363636"/>
<stop offset="1" stop-color="#131313"/>
</linearGradient>
<linearGradient id="paint11_linear_26486_105675" x1="1244.73" y1="1006.53" x2="1285.68" y2="992.719" gradientUnits="userSpaceOnUse">
<stop stop-color="#454347"/>
<stop offset="1" stop-color="#626163"/>
</linearGradient>
<linearGradient id="paint12_linear_26486_105675" x1="1252.83" y1="1003.8" x2="1277.14" y2="995.6" gradientUnits="userSpaceOnUse">
<stop stop-color="#454347"/>
<stop offset="1" stop-color="#626163"/>
</linearGradient>
<linearGradient id="paint13_linear_26486_105675" x1="1336.12" y1="768.279" x2="1107.91" y2="1088.48" gradientUnits="userSpaceOnUse">
<stop stop-color="#B8B8B8"/>
<stop offset="1" stop-color="#8C898C"/>
</linearGradient>
<linearGradient id="paint14_linear_26486_105675" x1="1172.27" y1="840.8" x2="1239.61" y2="840.8" gradientUnits="userSpaceOnUse">
<stop stop-color="#454347"/>
<stop offset="1" stop-color="#626163"/>
</linearGradient>
<linearGradient id="paint15_linear_26486_105675" x1="1064.61" y1="1030.94" x2="1224.4" y2="1030.94" gradientUnits="userSpaceOnUse">
<stop stop-color="#454347"/>
<stop offset="1" stop-color="#626163"/>
</linearGradient>
<linearGradient id="paint16_linear_26486_105675" x1="1231.7" y1="1016.07" x2="1271.34" y2="1016.07" gradientUnits="userSpaceOnUse">
<stop stop-color="#454347"/>
<stop offset="1" stop-color="#626163"/>
</linearGradient>
<linearGradient id="paint17_linear_26486_105675" x1="1336.03" y1="768.22" x2="1107.82" y2="1088.42" gradientUnits="userSpaceOnUse">
<stop stop-color="#B8B8B8"/>
<stop offset="1" stop-color="#8C898C"/>
</linearGradient>
<linearGradient id="paint18_linear_26486_105675" x1="1290.83" y1="775.769" x2="1179.98" y2="738.819" gradientUnits="userSpaceOnUse">
<stop stop-color="#363636"/>
<stop offset="1" stop-color="#131313"/>
</linearGradient>
<linearGradient id="paint19_linear_26486_105675" x1="832.913" y1="1631.61" x2="930.333" y2="924.28" gradientUnits="userSpaceOnUse">
<stop stop-color="#363636"/>
<stop offset="1" stop-color="#131313"/>
</linearGradient>
<linearGradient id="paint20_linear_26486_105675" x1="808.381" y1="1628.23" x2="875.631" y2="1139.95" gradientUnits="userSpaceOnUse">
<stop stop-color="#363636"/>
<stop offset="1" stop-color="#131313"/>
</linearGradient>
<linearGradient id="paint21_linear_26486_105675" x1="678.601" y1="1711.89" x2="683.141" y2="1647.72" gradientUnits="userSpaceOnUse">
<stop stop-color="#363636"/>
<stop offset="1" stop-color="#131313"/>
</linearGradient>
<linearGradient id="paint22_linear_26486_105675" x1="654.512" y1="1603.77" x2="758.632" y2="893.71" gradientUnits="userSpaceOnUse">
<stop stop-color="#363636"/>
<stop offset="1" stop-color="#131313"/>
</linearGradient>
<linearGradient id="paint23_linear_26486_105675" x1="635.522" y1="1600.99" x2="739.632" y2="890.93" gradientUnits="userSpaceOnUse">
<stop stop-color="#363636"/>
<stop offset="1" stop-color="#131313"/>
</linearGradient>
<linearGradient id="paint24_linear_26486_105675" x1="656.844" y1="1481.24" x2="696.574" y2="1481.24" gradientUnits="userSpaceOnUse">
<stop stop-color="#363636"/>
<stop offset="1"/>
</linearGradient>
<linearGradient id="paint25_linear_26486_105675" x1="1479.07" y1="899.64" x2="1337.56" y2="956.44" gradientUnits="userSpaceOnUse">
<stop stop-color="#FFFAF4"/>
<stop offset="1" stop-color="#FAECDD"/>
</linearGradient>
<linearGradient id="paint26_linear_26486_105675" x1="1420.93" y1="933.58" x2="1350.42" y2="944.18" gradientUnits="userSpaceOnUse">
<stop stop-color="#FFFAF4"/>
<stop offset="1" stop-color="#FAECDD"/>
</linearGradient>
<linearGradient id="paint27_linear_26486_105675" x1="1029.21" y1="401.13" x2="792.612" y2="1398.82" gradientUnits="userSpaceOnUse">
<stop stop-color="#B8B8B8"/>
<stop offset="1" stop-color="#8C898C"/>
</linearGradient>
<linearGradient id="paint28_linear_26486_105675" x1="1220.09" y1="314.32" x2="1280.2" y2="210.09" gradientUnits="userSpaceOnUse">
<stop stop-color="#454347"/>
<stop offset="1" stop-color="#626163"/>
</linearGradient>
<linearGradient id="paint29_linear_26486_105675" x1="1259.22" y1="432.09" x2="1323.53" y2="320.57" gradientUnits="userSpaceOnUse">
<stop stop-color="#454347"/>
<stop offset="1" stop-color="#626163"/>
</linearGradient>
<linearGradient id="paint30_linear_26486_105675" x1="930.313" y1="362.56" x2="1203.85" y2="213.29" gradientUnits="userSpaceOnUse">
<stop stop-color="#454347"/>
<stop offset="1" stop-color="#626163"/>
</linearGradient>
<linearGradient id="paint31_linear_26486_105675" x1="884.443" y1="535.61" x2="1203.65" y2="321.22" gradientUnits="userSpaceOnUse">
<stop stop-color="#454347"/>
<stop offset="1" stop-color="#626163"/>
</linearGradient>
<linearGradient id="paint32_linear_26486_105675" x1="933.801" y1="609.119" x2="1319.48" y2="560.46" gradientUnits="userSpaceOnUse">
<stop stop-color="#454347"/>
<stop offset="1" stop-color="#626163"/>
</linearGradient>
<linearGradient id="paint33_linear_26486_105675" x1="847.743" y1="810.62" x2="1224.36" y2="595.41" gradientUnits="userSpaceOnUse">
<stop stop-color="#454347"/>
<stop offset="1" stop-color="#626163"/>
</linearGradient>
<linearGradient id="paint34_linear_26486_105675" x1="806.813" y1="825.41" x2="1274.38" y2="825.41" gradientUnits="userSpaceOnUse">
<stop stop-color="#454347"/>
<stop offset="1" stop-color="#626163"/>
</linearGradient>
<linearGradient id="paint35_linear_26486_105675" x1="700.613" y1="1022.69" x2="1228.69" y2="972.839" gradientUnits="userSpaceOnUse">
<stop stop-color="#454347"/>
<stop offset="1" stop-color="#626163"/>
</linearGradient>
<linearGradient id="paint36_linear_26486_105675" x1="619.912" y1="1115.17" x2="1077.98" y2="1136.53" gradientUnits="userSpaceOnUse">
<stop stop-color="#454347"/>
<stop offset="1" stop-color="#626163"/>
</linearGradient>
<linearGradient id="paint37_linear_26486_105675" x1="953.632" y1="746.609" x2="888.222" y2="1022.41" gradientUnits="userSpaceOnUse">
<stop stop-color="#B8B8B8"/>
<stop offset="1" stop-color="#8C898C"/>
</linearGradient>
<linearGradient id="paint38_linear_26486_105675" x1="586.424" y1="1172.83" x2="965.184" y2="1033.54" gradientUnits="userSpaceOnUse">
<stop stop-color="#454347"/>
<stop offset="1" stop-color="#626163"/>
</linearGradient>
<linearGradient id="paint39_linear_26486_105675" x1="1137.65" y1="460.88" x2="855.824" y2="400.98" gradientUnits="userSpaceOnUse">
<stop stop-color="#B8B8B8"/>
<stop offset="1" stop-color="#8C898C"/>
</linearGradient>
<linearGradient id="paint40_linear_26486_105675" x1="1160.33" y1="581.48" x2="1148.73" y2="579.02" gradientUnits="userSpaceOnUse">
<stop stop-color="#B8B8B8"/>
<stop offset="1" stop-color="#8C898C"/>
</linearGradient>
<linearGradient id="paint41_linear_26486_105675" x1="1203.01" y1="973.159" x2="1143.51" y2="1016.06" gradientUnits="userSpaceOnUse">
<stop stop-color="#FFFAF4"/>
<stop offset="1" stop-color="#FAECDD"/>
</linearGradient>
<linearGradient id="paint42_linear_26486_105675" x1="1172.03" y1="963.879" x2="1133.27" y2="1098.67" gradientUnits="userSpaceOnUse">
<stop stop-color="#FFFAF4"/>
<stop offset="1" stop-color="#FAECDD"/>
</linearGradient>
<linearGradient id="paint43_linear_26486_105675" x1="1393.28" y1="765.48" x2="1318.97" y2="1023.92" gradientUnits="userSpaceOnUse">
<stop stop-color="#FFFAF4"/>
<stop offset="1" stop-color="#FAECDD"/>
</linearGradient>
<linearGradient id="paint44_linear_26486_105675" x1="1167.98" y1="1048.79" x2="1094.33" y2="1084.25" gradientUnits="userSpaceOnUse">
<stop stop-color="#FFFAF4"/>
<stop offset="1" stop-color="#FAECDD"/>
</linearGradient>
<linearGradient id="paint45_linear_26486_105675" x1="1078.42" y1="1051.18" x2="1042.55" y2="1051.18" gradientUnits="userSpaceOnUse">
<stop stop-color="#FFC493"/>
<stop offset="1" stop-color="#FFB073"/>
</linearGradient>
<linearGradient id="paint46_linear_26486_105675" x1="1196.99" y1="614.08" x2="1199.06" y2="602.32" gradientUnits="userSpaceOnUse">
<stop stop-color="#454347"/>
<stop offset="1" stop-color="#626163"/>
</linearGradient>
<linearGradient id="paint47_linear_26486_105675" x1="1014.66" y1="1058.09" x2="1080.55" y2="1035.86" gradientUnits="userSpaceOnUse">
<stop stop-color="#454347"/>
<stop offset="1" stop-color="#626163"/>
</linearGradient>
<linearGradient id="paint48_linear_26486_105675" x1="1411.9" y1="980.93" x2="1304.42" y2="997.08" gradientUnits="userSpaceOnUse">
<stop stop-color="#FFFAF4"/>
<stop offset="1" stop-color="#FAECDD"/>
</linearGradient>
<linearGradient id="paint49_linear_26486_105675" x1="1210.61" y1="579.02" x2="1255.56" y2="323.839" gradientUnits="userSpaceOnUse">
<stop stop-color="#454347"/>
<stop offset="1" stop-color="#626163"/>
</linearGradient>
<linearGradient id="paint50_linear_26486_105675" x1="1159.78" y1="556.78" x2="1203.1" y2="438.89" gradientUnits="userSpaceOnUse">
<stop stop-color="#FFC493"/>
<stop offset="1" stop-color="#FFB073"/>
</linearGradient>
<linearGradient id="paint51_linear_26486_105675" x1="1159.18" y1="528.91" x2="1189.52" y2="446.35" gradientUnits="userSpaceOnUse">
<stop stop-color="#FFC493"/>
<stop offset="1" stop-color="#FFB073"/>
</linearGradient>
<linearGradient id="paint52_linear_26486_105675" x1="1316.2" y1="434.869" x2="1115.97" y2="337.599" gradientUnits="userSpaceOnUse">
<stop stop-color="#FFC493"/>
<stop offset="1" stop-color="#FFB073"/>
</linearGradient>
<linearGradient id="paint53_linear_26486_105675" x1="1225.13" y1="275.32" x2="1206.64" y2="275.32" gradientUnits="userSpaceOnUse">
<stop stop-color="#454347"/>
<stop offset="1" stop-color="#626163"/>
</linearGradient>
<linearGradient id="paint54_linear_26486_105675" x1="1185.83" y1="302.5" x2="1153.36" y2="302.5" gradientUnits="userSpaceOnUse">
<stop stop-color="#454347"/>
<stop offset="1" stop-color="#626163"/>
</linearGradient>
<linearGradient id="paint55_linear_26486_105675" x1="1056.16" y1="440.68" x2="1209.97" y2="338.14" gradientUnits="userSpaceOnUse">
<stop stop-color="#FFC493"/>
<stop offset="1" stop-color="#FFB073"/>
</linearGradient>
<linearGradient id="paint56_linear_26486_105675" x1="1004.69" y1="394.31" x2="763.292" y2="1392.24" gradientUnits="userSpaceOnUse">
<stop stop-color="#B8B8B8"/>
<stop offset="1" stop-color="#8C898C"/>
</linearGradient>
<linearGradient id="paint57_linear_26486_105675" x1="701.484" y1="780.969" x2="908.274" y2="780.969" gradientUnits="userSpaceOnUse">
<stop stop-color="#454347"/>
<stop offset="1" stop-color="#626163"/>
</linearGradient>
<linearGradient id="paint58_linear_26486_105675" x1="687.834" y1="941.659" x2="886.734" y2="941.659" gradientUnits="userSpaceOnUse">
<stop stop-color="#454347"/>
<stop offset="1" stop-color="#626163"/>
</linearGradient>
<linearGradient id="paint59_linear_26486_105675" x1="954.933" y1="1045.85" x2="1054.84" y2="1045.85" gradientUnits="userSpaceOnUse">
<stop stop-color="#454347"/>
<stop offset="1" stop-color="#626163"/>
</linearGradient>
<linearGradient id="paint60_linear_26486_105675" x1="763.516" y1="1024.32" x2="937.336" y2="1024.32" gradientUnits="userSpaceOnUse">
<stop stop-color="#454347"/>
<stop offset="1" stop-color="#626163"/>
</linearGradient>
<linearGradient id="paint61_linear_26486_105675" x1="976.782" y1="509.709" x2="774.992" y2="1343.85" gradientUnits="userSpaceOnUse">
<stop stop-color="#B8B8B8"/>
<stop offset="1" stop-color="#8C898C"/>
</linearGradient>
<linearGradient id="paint62_linear_26486_105675" x1="1228.09" y1="492.77" x2="1183.34" y2="400.72" gradientUnits="userSpaceOnUse">
<stop stop-color="#FFF4EF"/>
<stop offset="1" stop-color="#F6DFD7"/>
</linearGradient>
<linearGradient id="paint63_linear_26486_105675" x1="1193.97" y1="497.289" x2="1198.15" y2="443.629" gradientUnits="userSpaceOnUse">
<stop stop-color="#FFF4EF"/>
<stop offset="1" stop-color="#F6DFD7"/>
</linearGradient>
<linearGradient id="paint64_linear_26486_105675" x1="1270" y1="397.41" x2="1184.95" y2="348.32" gradientUnits="userSpaceOnUse">
<stop stop-color="#FF9762"/>
<stop offset="1" stop-color="#FFB073"/>
</linearGradient>
<linearGradient id="paint65_linear_26486_105675" x1="1176.73" y1="349.853" x2="1194.93" y2="337.475" gradientUnits="userSpaceOnUse">
<stop stop-color="#FFF4EF"/>
<stop offset="1" stop-color="#F6DFD7"/>
</linearGradient>
<linearGradient id="paint66_linear_26486_105675" x1="1199.46" y1="341.592" x2="1187.43" y2="339.228" gradientUnits="userSpaceOnUse">
<stop stop-color="#363636"/>
<stop offset="1" stop-color="#131313"/>
</linearGradient>
<linearGradient id="paint67_linear_26486_105675" x1="1194.15" y1="350.19" x2="1178.45" y2="325.16" gradientUnits="userSpaceOnUse">
<stop stop-color="#FFF4EF"/>
<stop offset="1" stop-color="#D7C2BB"/>
</linearGradient>
<linearGradient id="paint68_linear_26486_105675" x1="1228.21" y1="311.093" x2="1248.41" y2="303.625" gradientUnits="userSpaceOnUse">
<stop stop-color="#FFF4EF"/>
<stop offset="1" stop-color="#F6DFD7"/>
</linearGradient>
<linearGradient id="paint69_linear_26486_105675" x1="1251.95" y1="308.749" x2="1241.58" y2="303.921" gradientUnits="userSpaceOnUse">
<stop stop-color="#363636"/>
<stop offset="1" stop-color="#131313"/>
</linearGradient>
<linearGradient id="paint70_linear_26486_105675" x1="1244.6" y1="315.487" x2="1235.67" y2="288.297" gradientUnits="userSpaceOnUse">
<stop stop-color="#FFF4EF"/>
<stop offset="1" stop-color="#D7C2BB"/>
</linearGradient>
<linearGradient id="paint71_linear_26486_105675" x1="1084.86" y1="467.219" x2="1123.35" y2="248.669" gradientUnits="userSpaceOnUse">
<stop stop-color="#454347"/>
<stop offset="1" stop-color="#626163"/>
</linearGradient>
<linearGradient id="paint72_linear_26486_105675" x1="1259.77" y1="778.62" x2="1150" y2="742.03" gradientUnits="userSpaceOnUse">
<stop stop-color="#363636"/>
<stop offset="1" stop-color="#131313"/>
</linearGradient>
<linearGradient id="paint73_linear_26486_105675" x1="707.192" y1="1701.93" x2="709.082" y2="1691.17" gradientUnits="userSpaceOnUse">
<stop stop-color="#454347"/>
<stop offset="1" stop-color="#626163"/>
</linearGradient>
<linearGradient id="paint74_linear_26486_105675" x1="903.981" y1="1691.41" x2="905.871" y2="1680.65" gradientUnits="userSpaceOnUse">
<stop stop-color="#454347"/>
<stop offset="1" stop-color="#626163"/>
</linearGradient>
<linearGradient id="paint75_linear_26486_105675" x1="1098.92" y1="752.224" x2="1086.55" y2="781.694" gradientUnits="userSpaceOnUse">
<stop stop-color="#B8B8B8"/>
<stop offset="1" stop-color="#8C898C"/>
</linearGradient>
<linearGradient id="paint76_linear_26486_105675" x1="1148.65" y1="744.041" x2="1049.38" y2="775.444" gradientUnits="userSpaceOnUse">
<stop stop-color="#FFF4EF"/>
<stop offset="0.57" stop-color="#F8E5DD"/>
<stop offset="1" stop-color="#F6DFD7"/>
</linearGradient>
</defs>
</svg>
