<svg width="116" height="71" viewBox="0 0 116 71" fill="none" xmlns="http://www.w3.org/2000/svg">
<path opacity="0.97" d="M87.2589 96.2106C87.226 91.7618 87.0235 87.3162 86.7378 82.8768C86.474 78.6336 86.0863 74.3983 85.4835 70.1897C85.2009 68.1176 84.865 66.0517 84.5149 63.989C84.4961 63.3878 83.6013 63.416 83.7081 64.0675C84.4459 68.2573 85.0063 72.0075 85.4443 76.111C85.8132 79.822 86.0361 83.5471 86.2292 87.2722C86.3846 90.6174 86.4992 93.9674 86.4944 97.3173C86.485 101.132 86.3594 104.947 86.259 108.76C86.2339 109.794 86.1931 110.83 86.2056 111.866C86.2135 112.077 86.2103 112.287 86.2134 112.497C86.1993 112.631 86.2558 112.778 86.3908 112.825C86.5682 112.912 86.799 112.759 86.7911 112.56C86.8131 112.224 86.8241 112.117 86.8367 111.975C86.9183 111.061 86.9403 110.143 86.9811 109.227C87.1349 104.892 87.2793 100.553 87.2589 96.2138V96.2106Z" fill="url(#paint0_linear_28963_357803)"/>
<path d="M84.5094 68.5667C84.1876 70.5587 84.1264 72.5665 84.208 74.5868C84.376 78.9085 85.1876 83.2756 85.4481 87.624C85.5502 89.3225 85.569 91.0163 85.434 92.7054C85.4089 93.0021 85.3807 93.2988 85.3461 93.5971C85.095 95.7995 84.5691 97.9234 83.8517 99.9908C82.3855 104.218 80.1171 108.207 77.742 112.129C76.5678 114.066 75.3685 115.987 74.2272 117.913C73.3529 119.389 72.5083 120.882 71.6952 122.389C69.5728 126.307 67.6576 130.329 65.9701 134.415C64.9654 136.845 64.0612 139.04 63.2151 141.036C61.0378 146.163 59.2325 149.994 57.0647 153.165C55.4823 155.482 53.7069 157.447 51.4558 159.31C49.2094 161.171 46.4858 162.927 43.0056 164.83C42.544 165.148 42.0668 165.442 41.5723 165.712C41.2081 165.911 40.8345 166.098 40.4531 166.271C40.1093 166.428 39.7576 166.574 39.3997 166.709C37.8331 167.305 36.144 167.696 34.3544 167.891C34.1268 167.916 33.896 167.917 33.6668 167.903C16.2327 166.698 -0.873404 161.047 -15.405 151.364C-15.8116 151.092 -16.1444 150.725 -16.3673 150.29C-17.6859 147.725 -18.4127 144.951 -18.6765 142.096C-19.1694 136.807 -18.0799 131.238 -16.2276 126.197C-16.0408 125.69 -15.8477 125.184 -15.6468 124.684C-14.7583 122.445 -13.7473 120.26 -12.6908 118.094C-12.5307 117.766 -12.369 117.438 -12.2073 117.109C-9.89659 112.441 -7.42259 107.841 -5.54355 102.988C-5.40227 102.622 -5.26255 102.253 -5.12912 101.886C-3.87328 98.4681 -2.88745 94.9581 -1.88749 91.4511C-1.06021 88.547 -0.223509 85.6445 0.78116 82.8C1.67438 80.271 2.72771 77.7578 4.01023 75.378C5.97248 71.7345 8.47631 68.405 11.776 65.8164C12.1826 65.4961 12.6457 65.2544 13.1355 65.088C13.9266 64.8195 14.7147 64.5417 15.4996 64.2544C18.1431 63.2921 20.7521 62.2325 23.3282 61.0787C25.8398 59.9532 28.3217 58.7382 30.7674 57.4305C33.9792 55.7132 37.1329 53.8388 40.2239 51.8091C41.8188 50.762 43.3964 49.6726 44.9568 48.5423C44.9631 48.5376 44.9694 48.5329 44.9757 48.5282C42.8831 47.3383 41.1893 45.4577 40.1956 43.6179C40.147 43.53 40.1124 43.4342 40.092 43.3353C39.428 40.3166 39.0387 37.2414 38.9131 34.1504C38.7671 30.5446 38.9822 26.9231 39.5457 23.3502C40.0857 19.9045 40.9523 16.5059 42.1296 13.2172C42.6743 11.6992 43.2834 10.2047 43.96 8.74013C43.9663 8.72757 43.9726 8.71344 43.9773 8.69931C44.1578 8.30686 44.4545 7.97721 44.8312 7.76685C45.1656 7.58005 45.5031 7.39638 45.8406 7.21899C45.9474 7.15934 46.0541 7.10283 46.1609 7.04789C50.5045 4.77482 55.1322 3.05746 59.8871 1.90523C68.802 -0.254807 78.1643 -0.425914 86.9394 1.46412C87.0352 1.4861 87.131 1.50493 87.2267 1.52691C87.6804 1.62738 88.0838 1.88168 88.3648 2.25216C90.3428 4.84546 92.0146 7.66325 93.3411 10.5862C94.7806 13.7509 95.8167 17.0349 96.3975 20.275C96.41 20.3409 96.421 20.4053 96.4336 20.4728C96.4634 20.6423 96.4791 20.815 96.4838 20.9877C96.5435 24.1131 96.4414 27.2433 96.1777 30.3594C95.1024 43.0684 91.3506 55.586 85.0055 66.9655C84.8045 67.3265 84.6617 67.7174 84.5863 68.1224C84.5596 68.2715 84.5345 68.4191 84.511 68.5667H84.5094Z" fill="url(#paint1_linear_28963_357803)"/>
<path d="M93.3434 10.5828C92.7547 11.5718 92.13 12.5403 91.4722 13.4854C90.6151 12.038 89.6293 10.655 88.5037 9.35366C87.9418 8.70534 87.2322 8.20457 86.4395 7.88276C86.879 5.79651 87.0454 3.62862 86.9402 1.46387C87.036 1.48584 87.1317 1.50468 87.2275 1.52666C87.6812 1.62713 88.0846 1.88143 88.3656 2.2519C90.3435 4.84521 92.0154 7.66299 93.3418 10.586L93.3434 10.5828Z" fill="url(#paint2_linear_28963_357803)"/>
<path d="M96.1756 30.3572C96.1379 30.3635 96.1018 30.3682 96.0641 30.3729C95.9652 27.3259 95.5524 24.3261 94.7832 21.4533C95.3436 21.0923 95.8836 20.6983 96.3985 20.2744C96.4111 20.3403 96.4221 20.4047 96.4346 20.4722C96.4644 20.6417 96.4801 20.8144 96.4849 20.9871C96.5445 24.1126 96.4425 27.2427 96.1787 30.3588L96.1756 30.3572Z" fill="url(#paint3_linear_28963_357803)"/>
<path d="M81.0074 9.50958C78.3858 13.0008 76.0719 16.7259 73.9951 20.6222C65.0425 14.478 54.6882 10.3902 43.957 8.73724C43.9633 8.72468 43.9696 8.71055 43.9743 8.69642C44.1548 8.30397 44.4515 7.97432 44.8283 7.76396C45.1626 7.57716 45.5001 7.39349 45.8376 7.21611C45.9444 7.15645 46.0511 7.09994 46.1579 7.045C50.5015 4.77193 55.1293 3.05457 59.8842 1.90234C67.358 2.89289 74.6199 5.49404 81.0042 9.50801L81.0074 9.50958Z" fill="url(#paint4_linear_28963_357803)"/>
<path d="M72.8832 48.4424C60.7361 46.083 49.0913 41.1774 38.9096 34.1479C38.7636 30.542 38.9787 26.9205 39.5422 23.3477C49.8213 27.5547 60.6434 30.4353 71.6556 31.8921C71.0983 37.413 71.9915 42.9638 72.8847 48.4424H72.8832Z" fill="url(#paint5_linear_28963_357803)"/>
<path d="M84.206 74.5851C67.5819 72.097 51.84 63.9545 40.2188 51.8058C41.8137 50.7587 43.3913 49.6693 44.9517 48.5391C49.7239 51.2218 54.8257 53.3159 60.2949 54.6016C68.811 62.4082 77.4214 67.7596 84.5074 68.565C84.1856 70.557 84.1244 72.5648 84.206 74.5851Z" fill="url(#paint6_linear_28963_357803)"/>
<path d="M85.4317 92.7032C85.4066 92.9999 85.3784 93.2966 85.3438 93.5949C85.0927 95.7973 84.5668 97.9212 83.8494 99.9887C58.1126 95.5006 33.867 82.8198 15.4941 64.2507C18.1377 63.2884 20.7467 62.2288 23.3227 61.075C25.8344 59.9494 28.3162 58.7344 30.762 57.4268C44.3062 72.2566 65.4953 83.8213 85.4443 87.6234C85.5463 89.3219 85.5652 91.0157 85.4302 92.7048L85.4317 92.7032Z" fill="url(#paint7_linear_28963_357803)"/>
<path style="mix-blend-mode:multiply" opacity="0.31" d="M18.8398 72.3057C23.4598 70.7155 29.0043 72.3654 32.0026 76.2208C34.4044 79.3086 35.1233 83.3634 35.4436 87.2627C36.1971 96.4413 35.1516 105.764 32.428 114.54C36.9459 116.047 41.4857 117.563 45.7038 119.775C49.9218 121.987 53.84 124.944 56.5479 128.861C47.3866 124.133 36.9867 121.831 26.6857 122.254L25.8882 108.034L18.8398 72.3073V72.3057Z" fill="url(#paint8_linear_28963_357803)"/>
<path style="mix-blend-mode:multiply" opacity="0.26" d="M71.8423 60.0667C47.5136 52.1644 36.3021 56.3463 27.9602 59.7701C26.4877 60.3744 24.9038 60.7716 23.3262 61.0746C30.8502 57.7042 38.0823 53.5191 44.9737 48.524C42.8811 47.3341 41.1873 45.4535 40.1936 43.6137C40.145 43.5258 40.1104 43.43 40.09 43.3312C37.9064 33.3943 38.6835 22.8328 42.1276 13.213C42.677 11.6809 43.2924 10.1739 43.9753 8.69516C44.1558 8.30271 44.4525 7.97306 44.8292 7.7627C45.1636 7.5759 45.5011 7.39223 45.8386 7.21484C40.0759 21.4749 39.4919 45.3264 71.8407 60.0636L71.8423 60.0667Z" fill="url(#paint9_linear_28963_357803)"/>
<path style="mix-blend-mode:multiply" opacity="0.26" d="M73.6737 60.803C73.0584 60.5723 72.4477 60.3258 71.8418 60.0684C72.4524 60.3132 73.0631 60.5581 73.6737 60.803Z" fill="url(#paint10_linear_28963_357803)"/>
<path style="mix-blend-mode:multiply" opacity="0.63" d="M80.6291 64.8073C80.4815 65.4101 79.819 65.8355 79.21 65.7162C78.6009 65.5984 78.1456 64.9548 78.2335 64.3426C78.323 63.7288 78.9431 63.2422 79.56 63.3018C80.1769 63.3615 80.8316 63.98 80.6291 64.8073Z" fill="url(#paint11_linear_28963_357803)"/>
<path style="mix-blend-mode:multiply" opacity="0.58" d="M80.3496 7.01229C82.0105 6.74072 84.1689 7.05625 86.2269 7.80033C87.1045 8.11743 87.8941 8.64959 88.5047 9.356C93.7541 15.4295 95.9989 23.255 96.0884 31.3583C96.2375 44.7549 90.0258 57.88 81.9791 60.6334C76.3341 52.202 74.5586 41.1868 77.0342 31.3473C77.9682 27.63 79.4847 24.0823 80.4752 20.3791C81.4657 16.676 82.6133 12.3637 80.3512 7.01229H80.3496Z" fill="url(#paint12_linear_28963_357803)"/>
<path d="M81.9777 60.6336C77.7833 58.2961 73.5071 53.7673 71.0629 49.2305C70.6783 48.5194 70.3393 47.8067 70.0536 47.1035C69.4382 45.5918 68.9594 44.0314 68.6094 42.4427C68.7334 42.2465 68.8715 42.0644 69.0254 41.8965C69.3456 41.5464 69.7161 41.2575 70.1179 41.0205C73.3549 42.8713 76.5698 44.7629 79.7282 46.6624C79.4598 49.7517 79.8099 52.7077 80.4582 55.5035C80.8695 57.2805 81.4032 58.9931 81.9762 60.6336H81.9777Z" fill="url(#paint13_linear_28963_357803)"/>
<path style="mix-blend-mode:multiply" opacity="0.53" d="M80.4598 55.5035C77.8021 52.7971 74.5824 50.6418 71.0629 49.2305C70.6783 48.5194 70.3393 47.8067 70.0536 47.1035C69.4382 45.5918 68.9594 44.0314 68.6094 42.4427C68.7334 42.2465 68.8715 42.0644 69.0254 41.8965C69.3456 41.5464 69.7161 41.2575 70.1179 41.0205C73.3549 42.8713 76.5698 44.7629 79.7282 46.6624C79.4598 49.7517 79.8099 52.7076 80.4582 55.5035H80.4598Z" fill="url(#paint14_linear_28963_357803)"/>
<path d="M95.2473 45.8702C94.7387 47.8592 93.9821 49.936 92.3165 51.1353C88.4344 53.928 78.1648 50.6299 72.289 47.7603C71.4476 47.349 70.6188 46.9126 69.8009 46.4526C69.7962 46.4401 69.7931 46.4306 69.7884 46.4181C69.3064 45.1387 68.9203 43.8295 68.622 42.4983C68.5498 42.1781 68.4823 41.8547 68.4211 41.5313V41.5282C68.3175 40.9882 68.228 40.445 68.1542 39.9003C68.0851 39.3948 68.0286 38.8862 67.9815 38.376C67.6582 34.7325 67.9376 31.0231 68.7287 27.4502C69.5105 23.9198 70.7726 20.518 72.3864 17.278C72.6548 16.7364 72.9358 16.2011 73.2231 15.6689C74.3894 13.5167 75.7065 11.4415 77.1319 9.45409C77.8555 8.44471 78.7001 7.39295 79.9057 7.08998C81.2997 6.73991 82.8271 7.3694 83.882 8.34582C87.7798 11.9485 90.5568 15.6658 92.497 19.336C93.0543 20.3893 93.541 21.4379 93.9679 22.4787C94.318 23.3358 94.6273 24.1882 94.8973 25.0328C97.5863 33.4359 96.4733 41.0965 95.2505 45.8718L95.2473 45.8702Z" fill="url(#paint15_linear_28963_357803)"/>
<path d="M81.564 15.3366C81.4996 15.5893 81.4023 15.842 81.1967 15.9142C80.6111 16.1199 80.7666 14.9881 80.7744 14.7181C80.7917 14.1058 80.8513 13.4936 80.9518 12.8892C81.0805 12.1169 81.2783 11.3571 81.5405 10.6193C81.71 10.1405 81.9706 8.99457 82.6864 9.1233C83.1542 9.20807 83.724 9.69156 83.6455 10.2112C83.6142 10.4152 83.5121 10.6005 83.4132 10.7826C82.9439 11.6475 82.5294 12.5407 82.1746 13.4575C81.9926 13.9269 81.8262 14.401 81.6739 14.8813C81.6362 14.999 81.6079 15.1686 81.564 15.3366Z" fill="url(#paint16_linear_28963_357803)"/>
<path d="M76.5588 17.878C75.1884 17.5625 73.7929 17.3616 72.3848 17.2799C72.6532 16.7384 72.9342 16.2031 73.2215 15.6709C73.5464 15.7353 73.8729 15.8028 74.1963 15.8781C75.168 16.1042 76.2873 16.3459 77.113 16.9738C77.237 17.068 77.3594 17.1763 77.4254 17.3333C77.7032 17.9911 76.854 17.9455 76.5573 17.878H76.5588Z" fill="url(#paint17_linear_28963_357803)"/>
<path style="mix-blend-mode:multiply" opacity="0.49" d="M94.8937 25.0316C93.5845 22.4226 92.0398 19.9297 90.2832 17.6002C88.7951 15.6253 86.8564 13.6144 84.384 13.5344C82.1815 13.4622 80.3449 15.0524 78.7107 16.5311C65.8321 28.1931 68.9026 42.4861 69.799 46.4546C69.7958 46.4436 69.7927 46.4326 69.7864 46.42C69.3045 45.1407 68.9183 43.8315 68.62 42.5003C68.5478 42.18 68.4803 41.8567 68.4191 41.5333V41.5301C68.3155 40.9901 68.226 40.447 68.1523 39.9023C68.0832 39.3968 68.0267 38.8882 67.9796 38.378C67.6562 34.7345 67.9356 31.0251 68.7268 27.4522C69.5086 23.9217 70.7707 20.52 72.3844 17.2799C72.6529 16.7383 72.9338 16.203 73.2211 15.6709C74.3875 13.5187 75.7045 11.4434 77.1299 9.45604C77.8536 8.44667 78.6981 7.3949 79.9037 7.09193C81.2977 6.74187 82.8251 7.37136 83.88 8.34777C87.7778 11.9505 90.5548 15.6677 92.4951 19.3379C93.0524 20.3912 93.539 21.4399 93.966 22.4807C94.316 23.3378 94.6253 24.1902 94.8953 25.0347L94.8937 25.0316Z" fill="url(#paint18_linear_28963_357803)"/>
<path d="M56.7699 131.978C56.6208 132.851 56.3775 133.72 56.1357 134.557C55.591 136.427 54.9929 138.386 53.5895 139.736C52.4467 140.833 50.9004 141.394 49.3809 141.844C46.7216 142.632 43.9918 143.163 41.2368 143.441C37.2479 143.846 33.2057 143.722 29.242 143.091C27.2012 142.766 25.1809 142.306 23.1998 141.714C21.0963 141.088 19.0367 140.309 17.0462 139.387C15.1436 138.505 13.1892 137.738 11.1877 137.119C10.2207 136.819 9.24118 136.556 8.25221 136.328C7.77185 136.218 7.28992 136.118 6.80485 136.027C6.24286 135.921 5.68716 135.78 5.1393 135.601C3.17234 134.957 1.309 133.757 0.287062 131.958C-0.69406 130.232 -0.792964 128.212 -0.690927 126.196C-0.657962 125.506 -0.599872 124.817 -0.546499 124.14C-0.121084 118.793 -0.0912582 113.423 0.159909 108.065C0.238399 106.342 0.342 104.621 0.487991 102.901C0.698344 100.431 1.00132 97.9527 1.45185 95.5085C2.27756 91.0142 3.59776 86.6313 5.72797 82.6064C5.75466 82.5577 5.77821 82.5106 5.80489 82.4619C6.42339 81.3066 7.11882 80.1779 7.88959 79.1088C9.88166 76.3491 12.3918 73.9835 15.4513 72.5471C19.6976 70.5535 25.1087 70.6602 28.76 73.6051C30.9703 75.3869 32.3706 78.0288 33.0738 80.7791C33.5903 82.7916 33.8697 85.5058 33.9074 88.6485C33.9529 92.3815 33.6562 96.7204 33.0095 101.201C32.449 105.089 31.6233 109.086 30.5308 112.889C30.2341 113.927 29.9154 114.95 29.5763 115.952C29.5763 115.958 29.5732 115.965 29.57 115.971C29.5575 116.005 29.5779 116.041 29.6124 116.051C30.8777 116.404 32.1382 116.757 33.3925 117.118C33.4474 117.134 33.5024 117.15 33.5573 117.165C35.2088 117.64 36.8508 118.128 38.4739 118.646C39.0296 118.823 39.5838 119.002 40.1348 119.186C43.8018 120.407 47.3762 121.798 50.789 123.528C51.3196 123.795 51.8439 124.071 52.3651 124.357C53.9992 125.25 55.6789 126.325 56.4497 128.022C57.0117 129.261 57.0038 130.62 56.7715 131.98L56.7699 131.978Z" fill="url(#paint19_linear_28963_357803)"/>
<path d="M71.8321 36.4377C72.4726 37.2509 73.1445 38.0389 73.8478 38.7987C76.5965 41.7687 79.8271 44.3103 83.4471 46.1312C83.8222 46.3196 84.2477 46.5064 84.6511 46.3871C85.1079 46.2521 85.3669 45.7796 85.5694 45.3479C85.9729 44.4955 86.3559 43.6337 86.7232 42.764C86.7656 42.6635 86.8096 42.5615 86.8504 42.4595C87.1942 41.6306 87.5223 40.7955 87.8346 39.9525C88.0497 39.3732 87.9759 39.042 87.7467 38.8521C87.326 38.5083 86.3841 38.6292 85.7107 38.5507C83.9635 38.3482 82.2242 38.0625 80.5021 37.6983C77.4928 37.0578 74.5981 36.1065 71.6877 35.1207C70.4601 34.7047 71.6045 36.1473 71.8321 36.4361V36.4377Z" fill="url(#paint20_linear_28963_357803)"/>
<path style="mix-blend-mode:multiply" d="M71.9721 35.9057C73.0522 36.6639 74.1699 37.3782 75.3174 38.0296C77.3126 39.1662 79.3894 40.1708 81.5181 41.028C82.5902 41.4612 83.6781 41.8537 84.7817 42.1959C85.419 42.3937 86.0673 42.5978 86.7204 42.7657C86.7628 42.6653 86.8067 42.5632 86.8475 42.4612C86.6843 42.4188 86.521 42.3748 86.3578 42.3309C85.744 42.1613 85.1349 41.9808 84.5274 41.7862C82.3155 41.0782 80.1304 40.265 78.0394 39.2509C75.961 38.2431 73.9564 37.0846 72.0271 35.8131C71.9674 35.7738 71.9156 35.868 71.9706 35.9057H71.9721Z" fill="url(#paint21_linear_28963_357803)"/>
<path d="M82.0163 32.6563C82.01 32.5621 82.0163 32.4648 82.0226 32.3706C82.1764 30.1211 82.3302 27.8716 82.4841 25.6221C82.5516 24.6472 82.5202 23.7038 82.426 22.7242C82.3773 22.214 82.393 21.4527 82.1058 21.0021C81.9676 20.7855 82.2392 20.5328 82.4511 20.6568C83.4071 21.2156 84.2375 22.1638 85.0428 22.922C85.9361 23.7634 86.823 24.608 87.724 25.4415C89.523 27.1055 91.3786 28.7224 92.9405 30.6187C93.2937 31.0473 93.2529 31.9012 92.5732 32.0111C89.9202 32.4413 87.2296 32.7364 84.5546 32.9734C84.1261 33.0111 82.3365 33.3533 82.1089 32.9875C82.0461 32.8886 82.0225 32.774 82.0147 32.6563H82.0163Z" fill="url(#paint22_linear_28963_357803)"/>
<path d="M79.9924 24.4998C79.9139 24.8342 79.735 25.134 79.4414 25.382C78.487 26.1873 77.2076 25.5154 76.261 24.2518C75.6598 23.4512 75.3207 22.6223 75.4055 21.9081C75.4557 21.4936 75.6456 21.1169 76.0098 20.8061C77.0475 19.9207 78.2436 20.6726 79.1902 21.9363C79.848 22.8123 80.1776 23.7416 79.9924 24.4998Z" fill="url(#paint23_linear_28963_357803)"/>
<path d="M79.2904 23.619C79.6674 23.3578 79.6997 22.7515 79.3625 22.2648C79.0253 21.778 78.4464 21.5951 78.0694 21.8562C77.6923 22.1174 77.6601 22.7237 77.9972 23.2105C78.3344 23.6972 78.9134 23.8801 79.2904 23.619Z" fill="url(#paint24_linear_28963_357803)"/>
<path style="mix-blend-mode:multiply" d="M79.9928 24.4994C79.7542 23.7271 79.3068 23.0238 78.7825 22.4116C78.4654 22.0411 78.1122 21.6973 77.6884 21.4634C77.2645 21.2311 76.7653 21.1181 76.2975 21.2311C75.9286 21.3206 75.5864 21.5686 75.4043 21.9061C75.4545 21.4917 75.6445 21.1149 76.0087 20.8041C77.0463 19.9187 78.2425 20.6707 79.1891 21.9344C79.8468 22.8103 80.1765 23.7396 79.9913 24.4978L79.9928 24.4994Z" fill="url(#paint25_linear_28963_357803)"/>
<path d="M87.8352 19.2985C87.6829 19.5904 87.4427 19.8275 87.1052 19.9892C86.0079 20.5135 84.9404 19.5857 84.3251 18.1839C83.9358 17.297 83.8023 16.4446 84.0472 15.7994C84.1901 15.4258 84.4585 15.1197 84.8792 14.9172C86.0754 14.3379 87.044 15.3222 87.6593 16.7224C88.0847 17.6941 88.1868 18.6376 87.8352 19.2985Z" fill="url(#paint26_linear_28963_357803)"/>
<path d="M87.4436 18.2995C87.8326 18.1288 87.9708 17.5863 87.7521 17.0877C87.5334 16.5891 87.0408 16.3232 86.6517 16.4938C86.2627 16.6644 86.1245 17.2069 86.3432 17.7056C86.5619 18.2042 87.0545 18.4701 87.4436 18.2995Z" fill="url(#paint27_linear_28963_357803)"/>
<path style="mix-blend-mode:multiply" d="M87.8367 19.2985C87.7865 18.523 87.5212 17.7616 87.1617 17.0678C86.9435 16.6486 86.6861 16.2436 86.3344 15.9265C85.9844 15.6094 85.5323 15.3865 85.0582 15.3818C84.6846 15.3787 84.3016 15.5294 84.0488 15.7994C84.1917 15.4258 84.4601 15.1197 84.8808 14.9172C86.077 14.3379 87.0456 15.3222 87.6609 16.7224C88.0863 17.6941 88.1884 18.6376 87.8367 19.2985Z" fill="url(#paint28_linear_28963_357803)"/>
<path style="mix-blend-mode:multiply" opacity="0.56" d="M70.5334 8.92929C70.4125 8.75662 70.1221 8.77389 70.0216 8.96069C69.8803 9.16634 69.7406 9.37198 69.604 9.58076C69.0483 10.419 68.5476 11.2918 68.0499 12.1662C66.6591 14.6559 65.4676 17.2508 64.3515 19.8723C62.1553 24.9585 60.5463 30.3146 59.8242 35.8152C59.5448 37.8716 59.3533 39.9438 59.3658 42.0206C59.3721 42.3722 59.9137 42.4068 59.9278 42.0206C59.9184 39.7099 60.1821 37.294 60.4851 35.236C60.887 32.5422 61.4631 29.8735 62.2307 27.2614C62.8806 24.993 63.9261 22.2757 64.7392 20.3558C65.7706 17.9038 66.8946 15.4879 68.1739 13.1536C68.6794 12.2274 69.2163 11.3185 69.794 10.4347C69.9965 10.1129 70.2052 9.79582 70.4172 9.48029C70.5333 9.32018 70.6935 9.11453 70.5334 8.92929Z" fill="url(#paint29_linear_28963_357803)"/>
<path opacity="0.97" d="M81.9279 112.581C81.8761 112.305 81.8243 112.028 81.7741 111.752C81.6139 110.889 81.4664 110.024 81.3314 109.157C80.1101 101.159 79.4963 92.3856 79.2357 83.962C79.1085 80.0548 79.1352 76.1444 79.3346 72.2404C79.4256 70.2656 79.5606 68.2923 79.6972 66.3207C79.7255 65.8858 79.7537 65.4526 79.7741 65.0177C79.7694 64.8074 79.8306 64.5845 79.7522 64.3867C79.5983 63.9958 78.9625 64.0837 78.9641 64.5452C78.8527 67.2343 78.5936 69.9155 78.4932 72.6046C78.3174 76.2057 78.2907 79.8115 78.3958 83.4157C78.6753 92.282 79.2247 101.161 80.6736 109.92C80.8118 110.733 80.9562 111.546 81.121 112.353C81.2152 112.714 81.1822 113.287 81.6971 113.19C81.8227 113.154 81.9185 113.057 81.9561 112.931C81.9907 112.815 81.9452 112.699 81.9279 112.583V112.581Z" fill="url(#paint30_linear_28963_357803)"/>
<defs>
<linearGradient id="paint0_linear_28963_357803" x1="93.9651" y1="91.0868" x2="76.5639" y2="85.2864" gradientUnits="userSpaceOnUse">
<stop stop-color="#363636"/>
<stop offset="1" stop-color="#131313"/>
</linearGradient>
<linearGradient id="paint1_linear_28963_357803" x1="52.8953" y1="32.2761" x2="15.7539" y2="188.893" gradientUnits="userSpaceOnUse">
<stop stop-color="#B8B8B8"/>
<stop offset="1" stop-color="#8C898C"/>
</linearGradient>
<linearGradient id="paint2_linear_28963_357803" x1="82.8619" y1="18.6484" x2="92.2979" y2="2.28644" gradientUnits="userSpaceOnUse">
<stop stop-color="#454347"/>
<stop offset="1" stop-color="#626163"/>
</linearGradient>
<linearGradient id="paint3_linear_28963_357803" x1="89.0017" y1="37.1372" x2="99.097" y2="19.6308" gradientUnits="userSpaceOnUse">
<stop stop-color="#454347"/>
<stop offset="1" stop-color="#626163"/>
</linearGradient>
<linearGradient id="paint4_linear_28963_357803" x1="37.3702" y1="26.2216" x2="80.3104" y2="2.78928" gradientUnits="userSpaceOnUse">
<stop stop-color="#454347"/>
<stop offset="1" stop-color="#626163"/>
</linearGradient>
<linearGradient id="paint5_linear_28963_357803" x1="30.169" y1="53.3873" x2="80.2785" y2="19.7324" gradientUnits="userSpaceOnUse">
<stop stop-color="#454347"/>
<stop offset="1" stop-color="#626163"/>
</linearGradient>
<linearGradient id="paint6_linear_28963_357803" x1="37.9174" y1="64.9262" x2="98.4613" y2="57.2875" gradientUnits="userSpaceOnUse">
<stop stop-color="#454347"/>
<stop offset="1" stop-color="#626163"/>
</linearGradient>
<linearGradient id="paint7_linear_28963_357803" x1="24.4059" y1="96.5571" x2="83.5276" y2="62.7735" gradientUnits="userSpaceOnUse">
<stop stop-color="#454347"/>
<stop offset="1" stop-color="#626163"/>
</linearGradient>
<linearGradient id="paint8_linear_28963_357803" x1="41.0321" y1="86.5092" x2="30.764" y2="129.804" gradientUnits="userSpaceOnUse">
<stop stop-color="#B8B8B8"/>
<stop offset="1" stop-color="#8C898C"/>
</linearGradient>
<linearGradient id="paint9_linear_28963_357803" x1="69.9193" y1="41.6562" x2="25.6777" y2="32.2531" gradientUnits="userSpaceOnUse">
<stop stop-color="#B8B8B8"/>
<stop offset="1" stop-color="#8C898C"/>
</linearGradient>
<linearGradient id="paint10_linear_28963_357803" x1="73.4791" y1="60.588" x2="71.6581" y2="60.2018" gradientUnits="userSpaceOnUse">
<stop stop-color="#B8B8B8"/>
<stop offset="1" stop-color="#8C898C"/>
</linearGradient>
<linearGradient id="paint11_linear_28963_357803" x1="79.2335" y1="65.7052" x2="79.5585" y2="63.8591" gradientUnits="userSpaceOnUse">
<stop stop-color="#454347"/>
<stop offset="1" stop-color="#626163"/>
</linearGradient>
<linearGradient id="paint12_linear_28963_357803" x1="81.3731" y1="60.2017" x2="88.4294" y2="20.1436" gradientUnits="userSpaceOnUse">
<stop stop-color="#454347"/>
<stop offset="1" stop-color="#626163"/>
</linearGradient>
<linearGradient id="paint13_linear_28963_357803" x1="73.3925" y1="56.7106" x2="80.1929" y2="38.2043" gradientUnits="userSpaceOnUse">
<stop stop-color="#FFC493"/>
<stop offset="1" stop-color="#FFB073"/>
</linearGradient>
<linearGradient id="paint14_linear_28963_357803" x1="73.2984" y1="52.3356" x2="78.0611" y2="39.3754" gradientUnits="userSpaceOnUse">
<stop stop-color="#FFC493"/>
<stop offset="1" stop-color="#FFB073"/>
</linearGradient>
<linearGradient id="paint15_linear_28963_357803" x1="97.9474" y1="37.5723" x2="66.5153" y2="22.3029" gradientUnits="userSpaceOnUse">
<stop stop-color="#FFC493"/>
<stop offset="1" stop-color="#FFB073"/>
</linearGradient>
<linearGradient id="paint16_linear_28963_357803" x1="83.6518" y1="12.5266" x2="80.7493" y2="12.5266" gradientUnits="userSpaceOnUse">
<stop stop-color="#454347"/>
<stop offset="1" stop-color="#626163"/>
</linearGradient>
<linearGradient id="paint17_linear_28963_357803" x1="77.4819" y1="16.7933" x2="72.3848" y2="16.7933" gradientUnits="userSpaceOnUse">
<stop stop-color="#454347"/>
<stop offset="1" stop-color="#626163"/>
</linearGradient>
<linearGradient id="paint18_linear_28963_357803" x1="57.126" y1="38.4847" x2="81.271" y2="22.388" gradientUnits="userSpaceOnUse">
<stop stop-color="#FFC493"/>
<stop offset="1" stop-color="#FFB073"/>
</linearGradient>
<linearGradient id="paint19_linear_28963_357803" x1="49.0449" y1="31.2049" x2="11.1501" y2="187.86" gradientUnits="userSpaceOnUse">
<stop stop-color="#B8B8B8"/>
<stop offset="1" stop-color="#8C898C"/>
</linearGradient>
<linearGradient id="paint20_linear_28963_357803" x1="84.1158" y1="46.6618" x2="77.091" y2="32.2118" gradientUnits="userSpaceOnUse">
<stop stop-color="#FFF4EF"/>
<stop offset="1" stop-color="#F6DFD7"/>
</linearGradient>
<linearGradient id="paint21_linear_28963_357803" x1="78.7584" y1="47.3715" x2="79.4145" y2="38.948" gradientUnits="userSpaceOnUse">
<stop stop-color="#FFF4EF"/>
<stop offset="1" stop-color="#F6DFD7"/>
</linearGradient>
<linearGradient id="paint22_linear_28963_357803" x1="90.6941" y1="31.6925" x2="77.343" y2="23.9863" gradientUnits="userSpaceOnUse">
<stop stop-color="#FF9762"/>
<stop offset="1" stop-color="#FFB073"/>
</linearGradient>
<linearGradient id="paint23_linear_28963_357803" x1="76.053" y1="24.2272" x2="78.9113" y2="22.2842" gradientUnits="userSpaceOnUse">
<stop stop-color="#FFF4EF"/>
<stop offset="1" stop-color="#F6DFD7"/>
</linearGradient>
<linearGradient id="paint24_linear_28963_357803" x1="79.6216" y1="22.9306" x2="77.7346" y2="22.5596" gradientUnits="userSpaceOnUse">
<stop stop-color="#363636"/>
<stop offset="1" stop-color="#131313"/>
</linearGradient>
<linearGradient id="paint25_linear_28963_357803" x1="78.7889" y1="24.2797" x2="76.3249" y2="20.3505" gradientUnits="userSpaceOnUse">
<stop stop-color="#FFF4EF"/>
<stop offset="1" stop-color="#D7C2BB"/>
</linearGradient>
<linearGradient id="paint26_linear_28963_357803" x1="84.1351" y1="18.142" x2="87.3057" y2="16.9697" gradientUnits="userSpaceOnUse">
<stop stop-color="#FFF4EF"/>
<stop offset="1" stop-color="#F6DFD7"/>
</linearGradient>
<linearGradient id="paint27_linear_28963_357803" x1="87.861" y1="17.7743" x2="86.2338" y2="17.0165" gradientUnits="userSpaceOnUse">
<stop stop-color="#363636"/>
<stop offset="1" stop-color="#131313"/>
</linearGradient>
<linearGradient id="paint28_linear_28963_357803" x1="86.7088" y1="18.8317" x2="85.3074" y2="14.5634" gradientUnits="userSpaceOnUse">
<stop stop-color="#FFF4EF"/>
<stop offset="1" stop-color="#D7C2BB"/>
</linearGradient>
<linearGradient id="paint29_linear_28963_357803" x1="61.6326" y1="42.6517" x2="67.6748" y2="8.34376" gradientUnits="userSpaceOnUse">
<stop stop-color="#454347"/>
<stop offset="1" stop-color="#626163"/>
</linearGradient>
<linearGradient id="paint30_linear_28963_357803" x1="89.0893" y1="91.5347" x2="71.8577" y2="85.7909" gradientUnits="userSpaceOnUse">
<stop stop-color="#363636"/>
<stop offset="1" stop-color="#131313"/>
</linearGradient>
</defs>
</svg>
