<svg width="480" height="480" viewBox="0 0 480 480" fill="none" xmlns="http://www.w3.org/2000/svg">
<g clip-path="url(#clip0_26486_108700)">
<rect width="480" height="480" rx="8" fill="white"/>
<path d="M355.239 614.13C354.039 630.4 349.769 645.92 343.619 660.9C332.879 686.99 316.409 711.37 300.509 734.97C296.229 741.33 291.939 747.72 287.669 754.11C271.179 778.8 254.769 803.67 238.149 828.39C236.949 830.18 235.739 831.97 234.519 833.76C225.539 847.09 216.489 860.38 207.289 873.55C199.529 884.71 191.679 895.8 183.709 906.79C165.469 931.94 146.629 956.55 126.809 980.26C118.169 990.62 109.329 1000.79 100.289 1010.76C95.7892 1015.73 91.2292 1020.65 86.6193 1025.52C76.6992 1035.98 66.5293 1046.19 56.0493 1056.11C44.5793 1066.98 32.7493 1077.5 20.5093 1087.62C2.06927 1089.02 -16.4507 1089.27 -34.9407 1088.42H-34.9608C-133.831 1083.91 -231.671 1048.1 -311.221 989.31C-309.901 980.15 -308.541 970.98 -307.111 961.82C-303.581 939.22 -299.701 916.66 -295.471 894.15C-292.481 878.21 -289.311 862.3 -285.981 846.41C-282.181 828.35 -278.171 810.34 -273.931 792.37C-271.811 783.39 -269.651 774.42 -267.411 765.46C-260.311 736.86 -252.681 708.4 -244.491 680.12C-236.881 653.77 -228.811 627.57 -220.301 601.55C-210.951 573.03 -201.091 544.72 -190.701 516.67C-190.581 516.35 -190.471 516.02 -190.341 515.71C-178.611 484.09 -165.001 451.12 -138.151 430.72C-133.001 426.8 -127.521 423.46 -121.801 420.56C-102.591 410.8 -80.7408 405.91 -59.8307 399.88C-50.0008 397.04 -40.2507 393.9 -30.6207 390.44C4.29926 377.93 37.7892 361.45 69.0392 341.46C102.829 319.87 133.999 294.2 161.569 265.08C176.179 265.03 176.239 256.49 186.139 245.75C226.899 267.59 267.909 291.28 307.549 315.1C308.029 369.84 317.359 423.97 329.689 477.43C333.819 495.37 338.299 513.23 342.889 531.01C345.229 540.08 347.599 549.22 349.659 558.4C353.779 576.81 356.609 595.42 355.239 614.16V614.13Z" fill="url(#paint0_linear_26486_108700)"/>
<path style="mix-blend-mode:multiply" opacity="0.49" d="M-121.79 420.54C-58.77 486.65 11.8699 546 91.9199 589.8C169.34 632.16 255.73 658.19 343.63 660.9C349.78 645.93 354.06 630.4 355.25 614.14C356.62 595.4 353.79 576.79 349.67 558.38C277.54 564.59 203.86 552.42 137.66 523.12C71.65 493.91 13.25 447.75 -30.61 390.43C-40.24 393.88 -49.9901 397.03 -59.8201 399.87C-80.7301 405.9 -102.58 410.8 -121.78 420.55L-121.79 420.54Z" fill="url(#paint1_linear_26486_108700)"/>
<path d="M329.69 477.41C280.77 479.15 231.44 468.7 187.52 447.08C143.6 425.45 105.25 392.71 76.8201 352.88C74.1401 349.14 71.54 345.32 69.04 341.45C102.83 319.86 134 294.19 161.57 265.07C169.78 265.04 173.39 262.33 176.74 258.06C179.36 254.73 181.8 250.45 186.14 245.74C226.9 267.58 267.91 291.27 307.55 315.09C307.66 326.73 308.15 338.34 309.01 349.93C309.18 352.27 309.36 354.61 309.56 356.95C313 397.46 320.52 437.63 329.69 477.42V477.41Z" fill="url(#paint2_linear_26486_108700)"/>
<path style="mix-blend-mode:multiply" opacity="0.35" d="M69.0392 341.44C71.5292 345.31 74.1293 349.13 76.8193 352.88C114.949 336.12 156.899 328.03 198.539 329.49C236.909 330.83 274.959 340.28 309.549 356.94C308.359 343.02 307.669 329.07 307.539 315.08C267.899 291.26 226.879 267.57 186.119 245.73C176.229 256.47 176.159 265.02 161.559 265.07C133.999 294.19 102.819 319.86 69.0293 341.45L69.0392 341.44Z" fill="url(#paint3_linear_26486_108700)"/>
<path d="M365.88 542.441C331.99 578.631 251.07 708.181 277.94 665.131C278.75 663.831 197.46 794.081 157.21 858.561C220.67 680.501 320.4 577.951 306.56 332.241C306.49 331.041 306.43 329.831 306.37 328.641C316.33 331.711 324.11 336.101 328.85 333.411C336.24 383.361 343.01 433.411 349.15 483.551C347.17 483.491 344.13 482.441 341.05 482.321C348.61 500.821 358.2 521.291 365.86 542.461L365.88 542.441Z" fill="url(#paint4_linear_26486_108700)"/>
<path style="mix-blend-mode:multiply" d="M326.699 466.931C326.739 466.821 326.779 466.731 326.799 466.641C326.799 466.741 326.799 466.831 326.779 466.931H326.699Z" fill="url(#paint5_linear_26486_108700)"/>
<path style="mix-blend-mode:multiply" opacity="0.69" d="M309.01 349.911C258.69 329.911 226.32 310.161 191.31 264.491C193.93 261.161 181.8 250.441 186.14 245.721C226.9 267.561 267.91 291.251 307.55 315.071C307.66 326.711 308.15 338.321 309.01 349.911Z" fill="url(#paint6_linear_26486_108700)"/>
<path d="M406.74 310.02C403.49 322.72 398.66 336.01 388.01 343.67C375.82 352.43 359.37 351.16 344.5 349.1C327.84 346.78 312.26 342.76 297.74 337.47C255.8 322.22 222.75 296.56 198.38 271.88C186.68 260.04 176.98 248.43 169.25 238.3C164.93 232.64 161.22 227.44 158.13 222.92C157.93 222.64 157.75 222.36 157.57 222.09C151.14 212.66 147.49 206.38 146.57 205.39C145.77 204.53 170.66 209.09 180.49 192.73C180.64 192.47 180.78 192.23 180.91 191.99C181.2 191.47 181.47 190.93 181.73 190.37C181.85 190.11 181.96 189.86 182.06 189.62C191.53 167.02 205.62 146.47 223.96 129.93C258.56 98.74 312.24 85.14 358.72 88.13C366.21 97.46 372.99 107.33 379.02 117.64C386.37 130.19 392.63 143.4 397.72 157.03C415.94 205.61 419.62 259.72 406.74 310.02Z" fill="url(#paint7_linear_26486_108700)"/>
<path d="M257.08 249.73C261.17 254.92 265.47 259.96 269.96 264.82C287.53 283.8 308.18 300.05 331.32 311.69C333.72 312.89 336.44 314.09 339.02 313.33C341.94 312.46 343.59 309.45 344.89 306.69C347.47 301.24 349.92 295.73 352.26 290.17C352.53 289.53 352.81 288.88 353.07 288.23C355.27 282.93 357.37 277.59 359.36 272.2C360.73 268.49 360.27 266.38 358.8 265.16C356.11 262.96 350.09 263.73 345.79 263.24C334.62 261.95 323.5 260.12 312.49 257.79C293.25 253.7 274.75 247.62 256.15 241.31C248.3 238.65 255.62 247.87 257.08 249.72V249.73Z" fill="url(#paint8_linear_26486_108700)"/>
<path style="mix-blend-mode:multiply" d="M257.98 246.319C264.88 251.169 272.03 255.729 279.36 259.889C292.11 267.149 305.39 273.579 318.99 279.049C325.84 281.819 332.8 284.319 339.85 286.509C343.92 287.769 348.07 289.079 352.24 290.159C352.51 289.519 352.79 288.869 353.05 288.219C352.01 287.949 350.96 287.669 349.92 287.389C346 286.309 342.1 285.149 338.22 283.909C324.09 279.389 310.12 274.189 296.75 267.709C283.46 261.259 270.65 253.859 258.32 245.739C257.94 245.489 257.61 246.089 257.96 246.329L257.98 246.319Z" fill="url(#paint9_linear_26486_108700)"/>
<path d="M322.18 225.549C322.14 224.949 322.18 224.329 322.22 223.729C323.21 209.349 324.19 194.969 325.18 180.589C325.61 174.359 325.41 168.329 324.81 162.069C324.5 158.809 324.6 153.949 322.76 151.059C321.88 149.669 323.61 148.059 324.97 148.849C331.08 152.419 336.39 158.489 341.54 163.329C347.25 168.699 352.92 174.109 358.68 179.429C370.18 190.069 382.03 200.399 392.03 212.529C394.28 215.259 394.03 220.729 389.68 221.429C372.72 224.179 355.53 226.069 338.42 227.579C335.68 227.819 324.25 230.009 322.78 227.669C322.38 227.029 322.23 226.309 322.18 225.549Z" fill="url(#paint10_linear_26486_108700)"/>
<path d="M71.5594 337.421C113.339 405.621 184.539 451.951 262.139 468.551C273.709 471.031 285.419 472.791 297.219 473.781C309.359 474.811 321.519 474.301 333.639 475.091C336.309 475.261 337.329 479.611 334.319 480.091C313.489 483.401 290.729 480.681 270.029 477.511C248.349 474.191 227.229 468.371 206.909 460.131C169.459 444.941 135.619 421.831 107.339 393.001C91.6995 377.051 78.1094 359.411 66.0694 340.621C63.8594 337.171 69.4194 333.911 71.5694 337.411L71.5594 337.421Z" fill="url(#paint11_linear_26486_108700)"/>
<path d="M97.3796 312.971C53.8196 349.311 2.96964 373.741 -51.2504 390.421C-76.9204 398.321 -108.4 407.961 -130.81 422.771C-164.61 445.101 -178.13 483.541 -193.06 521.201C-249.72 664.121 -285.88 814.471 -311.11 966.041C-245.79 1022.16 -178.58 1079.41 -98.5704 1105.89C14.5796 1012.59 86.6896 871.201 95.7896 724.831L119.54 378.151L97.3896 312.971H97.3796Z" fill="url(#paint12_linear_26486_108700)"/>
<path d="M160.649 266.029C133.159 375.339 123.339 495.139 135.989 609.479C124.919 688.699 105.619 766.769 76.1292 841.309C81.0092 726.779 74.3692 618.639 61.9892 506.009C67.8892 490.719 79.6092 469.899 89.5292 458.789C77.3592 450.789 63.0792 446.019 50.1992 443.119C56.7392 395.789 65.1392 361.349 84.3892 313.579C101.279 297.229 134.669 273.189 160.639 266.039L160.649 266.029Z" fill="url(#paint13_linear_26486_108700)"/>
<path d="M142.63 818.75C134.47 853.12 121.54 886.35 103.9 921.46C103.52 922.21 103.14 922.96 102.76 923.72C101.08 927.03 99.3699 930.36 97.5999 933.71C-9.00009 923.23 -114.64 903 -217.56 873.36C-219.64 775.46 -206.18 680.42 -179.38 589.3C-170.31 558.45 -160.09 536.61 -149.66 521.08C-142.49 510.41 -135.23 502.7 -128.17 497.1C-117.67 488.75 -107.62 485.05 -99.04 483.09C-55.1801 473.06 3.04993 510.94 0.229919 593.77C-1.73009 651.43 -25.7401 710.84 -41.1201 760.79C-39.3201 760.7 -37.5101 760.62 -35.7101 760.53C-35.6901 763.46 -36.8101 766.38 -38.9301 768.66C-36.7001 767.72 -34.3101 767.17 -31.8901 767.06C-32.0601 768.17 -32.21 769.27 -32.92 771.72C32.64 785.89 69.7599 792.6 142.61 818.76L142.63 818.75Z" fill="url(#paint14_linear_26486_108700)"/>
<path d="M348.789 68.3999C273.939 85.2499 204.159 123.98 143.789 191.98C139.329 165.22 142.809 137.19 153.649 112.32C160.239 97.2299 169.529 83.3299 181.039 71.3099C188.469 63.5299 196.839 56.5499 206.009 50.5199C246.739 34.8799 294.189 38.3599 332.529 58.4799C338.159 61.4299 343.599 64.7299 348.789 68.3999Z" fill="url(#paint15_linear_26486_108700)"/>
<path style="mix-blend-mode:multiply" opacity="0.52" d="M348.789 68.4005C273.939 85.2505 204.159 123.98 143.789 191.98C139.329 165.22 142.809 137.19 153.649 112.32C160.239 97.2305 169.529 83.3305 181.039 71.3105C178.879 76.6405 176.929 82.0505 175.199 87.5305C174.079 91.0905 173.049 94.9405 174.199 98.5005C175.719 103.19 180.769 106.01 185.679 106.4C190.599 106.79 195.439 105.23 200.099 103.64C244.139 88.6105 287.529 68.5905 332.529 58.4805C338.159 61.4305 343.599 64.7305 348.789 68.4005Z" fill="url(#paint16_linear_26486_108700)"/>
<path d="M198.379 271.879C197.759 272.889 196.929 273.779 195.819 274.469C193.719 275.769 190.649 276.329 186.209 275.569C161.319 271.349 147.489 253.689 144.649 240.359C143.289 233.979 144.449 228.599 148.119 226.149C151.339 224.009 154.489 222.709 157.559 222.099C158.029 221.999 158.489 221.929 158.959 221.869C158.979 221.869 158.989 221.869 159.009 221.869C180.059 219.119 196.819 248.249 199.519 261.299C200.109 264.159 200.369 268.649 198.379 271.899V271.879Z" fill="url(#paint17_linear_26486_108700)"/>
<path style="mix-blend-mode:multiply" opacity="0.82" d="M186.899 258.53C185.919 256.9 184.889 255.31 183.889 253.69C179.549 247 171.929 233.3 163.999 231.21C160.349 230.76 159.209 232.53 157.869 235.58C156.759 238.78 156.179 242.15 155.789 245.51C155.709 246.28 155.469 247.14 156.019 247.8C156.889 249.01 158.959 248.46 159.109 246.97C159.979 242.29 161.479 236.65 162.799 235.6C162.869 235.59 162.949 235.58 163.019 235.57C163.029 235.57 163.029 235.57 163.049 235.57C163.259 235.6 163.419 235.64 163.519 235.66C163.909 235.8 164.409 236.05 164.669 236.18C168.019 238.35 168.929 239.82 171.729 243.07C172.119 243.53 172.529 244.04 172.959 244.58C172.349 245.32 171.859 246.24 171.289 246.95C169.809 249.19 168.569 251.61 167.979 254.25C167.819 255.07 167.449 255.94 167.669 256.77C168.079 258.56 170.819 258.36 171.019 256.54C171.379 255 173.499 251.03 174.689 249.37C174.989 248.96 175.289 248.55 175.599 248.15C178.149 251.75 180.639 255.65 181.699 257.55C182.149 258.32 183.969 261.54 183.429 260.59C183.739 261.21 184.069 261.88 184.759 262.14C185.959 262.68 187.439 261.82 187.589 260.52C187.649 259.07 186.889 258.76 186.889 258.53H186.899Z" fill="url(#paint18_linear_26486_108700)"/>
<path style="mix-blend-mode:multiply" opacity="0.2" d="M297.739 337.47C255.799 322.22 222.749 296.56 198.379 271.88C197.759 272.89 196.929 273.78 195.819 274.47C193.719 275.77 190.649 276.33 186.209 275.57C161.319 271.35 147.489 253.69 144.649 240.36C148.869 234.67 153.539 228.73 158.129 222.93C158.409 222.58 158.689 222.22 158.959 221.87C167.959 210.49 176.509 199.77 180.479 192.75C180.629 192.49 180.769 192.25 180.899 192.01C181.189 191.49 181.459 190.95 181.719 190.39C181.839 190.13 181.949 189.88 182.049 189.64C199.289 172.1 218.369 155.95 239.669 141.6C220.319 183.65 221.119 234.45 241.779 275.86C254.329 301.01 274.039 322.38 297.719 337.49L297.739 337.47Z" fill="url(#paint19_linear_26486_108700)"/>
<g opacity="0.72">
<g style="mix-blend-mode:multiply">
<path d="M396.9 138.849C396.9 156.889 382.28 171.509 364.24 171.509C353.2 171.509 343.43 166.029 337.52 157.649C333.74 158.769 330.26 160.909 327.57 163.789C329.2 167.679 330.1 171.949 330.1 176.429C330.1 194.469 315.48 209.089 297.44 209.089C283.66 209.089 271.87 200.559 267.07 188.489C261.3 188.439 255.54 188.409 249.77 188.369L170.19 224.869L169.26 216.999L248.83 181.989C248.85 181.219 248.92 180.439 249.03 179.669C249.13 179.219 261.91 169.689 266.36 166.389C270.6 153.259 282.92 143.769 297.45 143.769C306.92 143.769 315.45 147.799 321.42 154.249C324.24 150.809 328.47 148.539 332.91 148.109C332.04 145.169 331.57 142.069 331.57 138.849C331.57 120.809 346.2 106.189 364.24 106.189C382.28 106.189 396.9 120.809 396.9 138.849Z" fill="#FFB678"/>
</g>
</g>
<path d="M251.729 178.34L170.109 214.26L171.039 222.12L253.129 184.48L251.729 178.34Z" fill="url(#paint20_linear_26486_108700)"/>
<path d="M397.759 136.109C397.759 154.149 383.139 168.769 365.099 168.769C354.059 168.769 344.289 163.289 338.379 154.909C334.599 156.029 331.119 158.169 328.429 161.049C330.059 164.939 330.959 169.209 330.959 173.689C330.959 191.729 316.339 206.349 298.299 206.349C284.519 206.349 272.729 197.819 267.929 185.749C262.119 185.699 256.319 185.669 250.499 185.629C249.649 182.859 249.469 179.849 249.879 176.919C249.979 176.469 262.759 166.939 267.209 163.639C271.449 150.509 283.769 141.019 298.299 141.019C307.769 141.019 316.299 145.049 322.269 151.499C325.089 148.059 329.319 145.789 333.759 145.359C332.889 142.419 332.419 139.319 332.419 136.099C332.419 118.059 347.049 103.439 365.089 103.439C383.129 103.439 397.749 118.059 397.749 136.099L397.759 136.109Z" fill="url(#paint21_linear_26486_108700)"/>
<path d="M327.2 173.691C327.2 178.821 325.87 183.631 323.53 187.801C320.82 192.641 316.74 196.631 311.83 199.231C310.34 200.021 308.78 200.691 307.15 201.211C305.1 201.871 302.95 202.311 300.73 202.491C299.93 202.561 299.11 202.601 298.29 202.601C293.64 202.601 289.25 201.501 285.36 199.561C275.88 194.821 269.38 185.021 269.38 173.701C269.38 168.721 270.64 164.041 272.86 159.951C277.75 150.921 287.3 144.801 298.29 144.801C299.97 144.801 301.63 144.941 303.24 145.221C306.55 145.791 309.67 146.931 312.49 148.521C313.89 149.311 315.21 150.211 316.45 151.221C317.69 152.221 318.85 153.321 319.9 154.521C324.44 159.621 327.19 166.341 327.19 173.701L327.2 173.691Z" fill="url(#paint22_linear_26486_108700)"/>
<path style="mix-blend-mode:multiply" opacity="0.3" d="M323.53 187.799C320.82 192.639 316.74 196.629 311.83 199.229C310.34 200.019 308.78 200.689 307.15 201.209C305.1 201.869 302.95 202.309 300.73 202.489C299.93 202.559 299.11 202.599 298.29 202.599C293.64 202.599 289.25 201.499 285.36 199.559C275.88 194.819 269.38 185.019 269.38 173.699C269.38 168.719 270.64 164.039 272.86 159.949C277.97 168.469 285.32 175.669 293.98 180.529C302.93 185.549 313.26 188.059 323.52 187.809L323.53 187.799Z" fill="url(#paint23_linear_26486_108700)"/>
<path d="M394 136.109C394 141.859 392.32 147.219 389.43 151.719C388.33 153.429 387.05 155.019 385.63 156.459C384.11 157.989 382.419 159.349 380.589 160.519C379.219 161.389 377.79 162.139 376.28 162.779C372.84 164.219 369.059 165.019 365.099 165.019C363.339 165.019 361.609 164.859 359.939 164.559C346.439 162.119 336.189 150.319 336.189 136.109C336.189 131.039 337.5 126.269 339.8 122.129C344.72 113.229 354.209 107.209 365.099 107.209C369.669 107.209 373.989 108.269 377.829 110.159C381.049 111.749 383.939 113.919 386.349 116.529C387.049 117.279 387.699 118.079 388.319 118.909C389.539 120.559 390.589 122.329 391.439 124.219C393.079 127.849 394 131.869 394 136.119V136.109Z" fill="url(#paint24_linear_26486_108700)"/>
<path opacity="0.14" d="M312.489 148.511L300.729 202.491C299.929 202.561 299.109 202.601 298.289 202.601C293.639 202.601 289.249 201.501 285.359 199.561L303.239 145.221C306.549 145.791 309.669 146.931 312.489 148.521V148.511Z" fill="url(#paint25_linear_26486_108700)"/>
<path opacity="0.14" d="M319.91 154.509L311.84 199.239C310.35 200.029 308.79 200.699 307.16 201.219L316.47 151.209C317.71 152.209 318.87 153.309 319.92 154.509H319.91Z" fill="url(#paint26_linear_26486_108700)"/>
<path opacity="0.14" d="M386.35 116.52L376.27 162.77C372.83 164.21 369.05 165.01 365.09 165.01C363.33 165.01 361.6 164.85 359.93 164.55L377.83 110.15C381.05 111.74 383.94 113.91 386.35 116.52Z" fill="url(#paint27_linear_26486_108700)"/>
<path opacity="0.14" d="M391.44 124.21L385.62 156.46C384.1 157.99 382.41 159.35 380.58 160.52L388.32 118.9C389.54 120.55 390.59 122.32 391.44 124.21Z" fill="url(#paint28_linear_26486_108700)"/>
<path style="mix-blend-mode:multiply" opacity="0.3" d="M389.43 151.721C388.33 153.431 387.05 155.021 385.63 156.461C384.11 157.991 382.419 159.351 380.589 160.521C379.219 161.391 377.79 162.141 376.28 162.781C372.84 164.221 369.059 165.021 365.099 165.021C363.339 165.021 361.609 164.861 359.939 164.561C346.439 162.121 336.189 150.321 336.189 136.111C336.189 131.041 337.5 126.271 339.8 122.131C344.93 131.411 352.67 139.251 361.92 144.441C370.29 149.131 379.85 151.631 389.43 151.721Z" fill="url(#paint29_linear_26486_108700)"/>
<path d="M373.89 122.119C349.71 131.649 341.35 128.329 326.91 126.339C331.5 130.839 339.56 134.889 347.74 134.939C346.88 135.349 346.02 135.739 345.15 136.129C320.15 147.089 290.42 147.379 264.63 137.229C266.66 130.799 270.25 125.249 274.75 120.499C278.24 116.849 282.26 113.669 286.53 110.949C296.33 104.709 307.39 100.719 318.6 97.6693C339.61 91.9493 362.79 89.2693 383.32 96.5593C385.51 96.5793 391.41 94.8093 402.64 81.5293C402.74 84.2393 401.85 106.319 373.9 122.129L373.89 122.119Z" fill="url(#paint30_linear_26486_108700)"/>
<path style="mix-blend-mode:multiply" opacity="0.47" d="M345.139 136.13C320.139 147.09 290.409 147.38 264.619 137.23C266.649 130.8 270.239 125.25 274.739 120.5C280.269 119.79 285.969 120.3 291.779 122.82C302.829 127.61 313.979 132.43 325.779 134.83C332.119 136.12 338.699 136.66 345.139 136.13Z" fill="url(#paint31_linear_26486_108700)"/>
<path d="M383.31 96.5598C288.04 118.7 203.71 175.7 152.93 259.31C134.09 235.19 127.11 221.13 129.54 193.89C133.84 187.97 138.4 182.16 143.21 176.51C193.94 116.69 271.35 72.9898 349.21 64.0098C363.29 67.9598 375.51 78.0598 382.06 93.3698C382.5 94.4098 382.92 95.4698 383.32 96.5598H383.31Z" fill="url(#paint32_linear_26486_108700)"/>
<path style="mix-blend-mode:multiply" d="M383.31 96.5594C288.04 118.699 203.71 175.699 152.93 259.309C134.09 235.189 127.11 221.129 129.54 193.889C133.84 187.969 138.4 182.159 143.21 176.509C143.15 178.389 143.23 180.259 143.48 182.139C144.59 190.469 149.97 198.839 158.15 200.769C166.89 202.839 175.42 197.299 182.73 192.089C216.88 167.719 251.87 144.259 289.47 125.649C318.85 111.119 349.95 99.5794 382.06 93.3594C382.5 94.3994 382.92 95.4594 383.32 96.5494L383.31 96.5594Z" fill="url(#paint33_linear_26486_108700)"/>
<path style="mix-blend-mode:lighten" opacity="0.73" d="M257.42 115.67C252.7 116.15 247.76 116.99 243.59 119.39C241.49 120.6 233.86 127.3 239.07 129.32C240.45 129.85 241.99 129.42 243.4 129.01C260.61 123.98 278.58 121.58 296.51 121.91C298.29 121.94 303.2 121.32 300.84 118.47C300.28 117.79 299.44 117.4 298.62 117.07C293.14 114.9 286.44 114.85 280.6 114.73C272.86 114.58 265.12 114.89 257.42 115.67Z" fill="url(#paint34_linear_26486_108700)"/>
<path style="mix-blend-mode:lighten" opacity="0.73" d="M329.52 107.16C328.71 108.62 327.7 110.02 326.31 110.14C322.36 110.47 325.15 103.71 325.64 102.06C326.74 98.3002 328.1 94.6202 329.7 91.0402C331.75 86.4702 334.2 82.0902 337.01 77.9502C338.83 75.2702 342.3 68.6002 346.52 70.5602C349.27 71.8402 352.02 75.7602 350.69 78.8402C350.17 80.0502 349.23 81.0302 348.33 82.0002C344.03 86.5802 340.02 91.4402 336.34 96.5302C334.45 99.1302 332.65 101.8 330.94 104.52C330.52 105.19 330.07 106.18 329.53 107.16H329.52Z" fill="url(#paint35_linear_26486_108700)"/>
</g>
<defs>
<linearGradient id="paint0_linear_26486_108700" x1="355.589" y1="667.31" x2="-311.221" y2="667.31" gradientUnits="userSpaceOnUse">
<stop stop-color="#454347"/>
<stop offset="1" stop-color="#626163"/>
</linearGradient>
<linearGradient id="paint1_linear_26486_108700" x1="355.59" y1="525.66" x2="-121.8" y2="525.66" gradientUnits="userSpaceOnUse">
<stop stop-color="#454347"/>
<stop offset="1" stop-color="#626163"/>
</linearGradient>
<linearGradient id="paint2_linear_26486_108700" x1="188.49" y1="437.95" x2="278.87" y2="200.79" gradientUnits="userSpaceOnUse">
<stop stop-color="#FFC493"/>
<stop offset="1" stop-color="#FFB073"/>
</linearGradient>
<linearGradient id="paint3_linear_26486_108700" x1="309.559" y1="301.33" x2="69.0393" y2="301.33" gradientUnits="userSpaceOnUse">
<stop stop-color="#FFC493"/>
<stop offset="1" stop-color="#FFB073"/>
</linearGradient>
<linearGradient id="paint4_linear_26486_108700" x1="425.57" y1="359.641" x2="148.82" y2="693.771" gradientUnits="userSpaceOnUse">
<stop stop-color="#363636"/>
<stop offset="1" stop-color="#131313"/>
</linearGradient>
<linearGradient id="paint5_linear_26486_108700" x1="326.869" y1="466.721" x2="326.649" y2="466.921" gradientUnits="userSpaceOnUse">
<stop stop-color="#363636"/>
<stop offset="1" stop-color="#131313"/>
</linearGradient>
<linearGradient id="paint6_linear_26486_108700" x1="238.93" y1="320.131" x2="264.58" y2="252.841" gradientUnits="userSpaceOnUse">
<stop stop-color="#FFC493"/>
<stop offset="1" stop-color="#FFB073"/>
</linearGradient>
<linearGradient id="paint7_linear_26486_108700" x1="442" y1="136.1" x2="198.79" y2="315.47" gradientUnits="userSpaceOnUse">
<stop stop-color="#FFC493"/>
<stop offset="1" stop-color="#FFB073"/>
</linearGradient>
<linearGradient id="paint8_linear_26486_108700" x1="333.02" y1="309.76" x2="299.41" y2="240.65" gradientUnits="userSpaceOnUse">
<stop stop-color="#FFF4EF"/>
<stop offset="1" stop-color="#F6DFD7"/>
</linearGradient>
<linearGradient id="paint9_linear_26486_108700" x1="301.35" y1="319.609" x2="305.55" y2="265.769" gradientUnits="userSpaceOnUse">
<stop stop-color="#FFF4EF"/>
<stop offset="1" stop-color="#F6DFD7"/>
</linearGradient>
<linearGradient id="paint10_linear_26486_108700" x1="377.65" y1="219.389" x2="292.31" y2="170.129" gradientUnits="userSpaceOnUse">
<stop stop-color="#FF9762"/>
<stop offset="1" stop-color="#FFB073"/>
</linearGradient>
<linearGradient id="paint11_linear_26486_108700" x1="220.859" y1="358.841" x2="163.589" y2="500.891" gradientUnits="userSpaceOnUse">
<stop stop-color="#363636"/>
<stop offset="1" stop-color="#131313"/>
</linearGradient>
<linearGradient id="paint12_linear_26486_108700" x1="39.9996" y1="571.601" x2="-432.75" y2="1178.21" gradientUnits="userSpaceOnUse">
<stop stop-color="#363636"/>
<stop offset="1" stop-color="#131313"/>
</linearGradient>
<linearGradient id="paint13_linear_26486_108700" x1="354.679" y1="337.109" x2="0.519259" y2="647.099" gradientUnits="userSpaceOnUse">
<stop stop-color="#363636"/>
<stop offset="1" stop-color="#131313"/>
</linearGradient>
<linearGradient id="paint14_linear_26486_108700" x1="112.19" y1="587.53" x2="-465.72" y2="1165.44" gradientUnits="userSpaceOnUse">
<stop stop-color="#363636"/>
<stop offset="1" stop-color="#131313"/>
</linearGradient>
<linearGradient id="paint15_linear_26486_108700" x1="261.089" y1="57.7199" x2="228.619" y2="160.77" gradientUnits="userSpaceOnUse">
<stop stop-color="#363636"/>
<stop offset="1" stop-color="#131313"/>
</linearGradient>
<linearGradient id="paint16_linear_26486_108700" x1="278.819" y1="18.7305" x2="194.929" y2="235.9" gradientUnits="userSpaceOnUse">
<stop stop-color="#363636"/>
<stop offset="1" stop-color="#131313"/>
</linearGradient>
<linearGradient id="paint17_linear_26486_108700" x1="393.419" y1="393.039" x2="203.229" y2="268.38" gradientUnits="userSpaceOnUse">
<stop stop-color="#FFC493"/>
<stop offset="1" stop-color="#FFB073"/>
</linearGradient>
<linearGradient id="paint18_linear_26486_108700" x1="155.961" y1="244.179" x2="189.183" y2="248.559" gradientUnits="userSpaceOnUse">
<stop stop-color="#FFC493"/>
<stop offset="1" stop-color="#FFB073"/>
</linearGradient>
<linearGradient id="paint19_linear_26486_108700" x1="380.369" y1="254.6" x2="175.139" y2="226.88" gradientUnits="userSpaceOnUse">
<stop stop-color="#FFC493"/>
<stop offset="1" stop-color="#FFB073"/>
</linearGradient>
<linearGradient id="paint20_linear_26486_108700" x1="172.569" y1="375.85" x2="215.079" y2="183.72" gradientUnits="userSpaceOnUse">
<stop stop-color="#FFAB18"/>
<stop offset="1" stop-color="#FFE068"/>
</linearGradient>
<linearGradient id="paint21_linear_26486_108700" x1="343.779" y1="339.069" x2="322.529" y2="146.949" gradientUnits="userSpaceOnUse">
<stop stop-color="#FFAB18"/>
<stop offset="1" stop-color="#FFE068"/>
</linearGradient>
<linearGradient id="paint22_linear_26486_108700" x1="312.68" y1="113.281" x2="289.32" y2="211.361" gradientUnits="userSpaceOnUse">
<stop stop-color="#363636"/>
<stop offset="1" stop-color="#131313"/>
</linearGradient>
<linearGradient id="paint23_linear_26486_108700" x1="304.33" y1="145.969" x2="289.63" y2="207.699" gradientUnits="userSpaceOnUse">
<stop stop-color="#363636"/>
<stop offset="1" stop-color="#131313"/>
</linearGradient>
<linearGradient id="paint24_linear_26486_108700" x1="379.479" y1="75.689" x2="356.12" y2="173.779" gradientUnits="userSpaceOnUse">
<stop stop-color="#363636"/>
<stop offset="1" stop-color="#131313"/>
</linearGradient>
<linearGradient id="paint25_linear_26486_108700" x1="292.779" y1="202.111" x2="306.619" y2="145.971" gradientUnits="userSpaceOnUse">
<stop stop-color="#FFFAF4"/>
<stop offset="1" stop-color="#FAECDD"/>
</linearGradient>
<linearGradient id="paint26_linear_26486_108700" x1="307.7" y1="201.349" x2="319.86" y2="152.049" gradientUnits="userSpaceOnUse">
<stop stop-color="#FFFAF4"/>
<stop offset="1" stop-color="#FAECDD"/>
</linearGradient>
<linearGradient id="paint27_linear_26486_108700" x1="367.42" y1="166.4" x2="381.1" y2="110.95" gradientUnits="userSpaceOnUse">
<stop stop-color="#FFFAF4"/>
<stop offset="1" stop-color="#FAECDD"/>
</linearGradient>
<linearGradient id="paint28_linear_26486_108700" x1="381.3" y1="160.69" x2="391.41" y2="119.66" gradientUnits="userSpaceOnUse">
<stop stop-color="#FFFAF4"/>
<stop offset="1" stop-color="#FAECDD"/>
</linearGradient>
<linearGradient id="paint29_linear_26486_108700" x1="370.97" y1="107.921" x2="356.16" y2="170.091" gradientUnits="userSpaceOnUse">
<stop stop-color="#363636"/>
<stop offset="1" stop-color="#131313"/>
</linearGradient>
<linearGradient id="paint30_linear_26486_108700" x1="317.27" y1="120.709" x2="441.56" y2="96.4093" gradientUnits="userSpaceOnUse">
<stop stop-color="#9F5A10"/>
<stop offset="1" stop-color="#F0891E"/>
</linearGradient>
<linearGradient id="paint31_linear_26486_108700" x1="294.019" y1="132.64" x2="361.419" y2="119.47" gradientUnits="userSpaceOnUse">
<stop stop-color="#9F5A10"/>
<stop offset="1" stop-color="#F0891E"/>
</linearGradient>
<linearGradient id="paint32_linear_26486_108700" x1="294.26" y1="58.4898" x2="178.5" y2="323.88" gradientUnits="userSpaceOnUse">
<stop stop-color="#363636"/>
<stop offset="1" stop-color="#131313"/>
</linearGradient>
<linearGradient id="paint33_linear_26486_108700" x1="303.39" y1="-51.9506" x2="216.71" y2="311.939" gradientUnits="userSpaceOnUse">
<stop stop-color="#363636"/>
<stop offset="1" stop-color="#131313"/>
</linearGradient>
<linearGradient id="paint34_linear_26486_108700" x1="269.65" y1="126.55" x2="268.89" y2="118.15" gradientUnits="userSpaceOnUse">
<stop stop-color="#FFF4EF"/>
<stop offset="1" stop-color="#F6DFD7"/>
</linearGradient>
<linearGradient id="paint35_linear_26486_108700" x1="340.108" y1="91.8911" x2="330.714" y2="87.0647" gradientUnits="userSpaceOnUse">
<stop stop-color="#FFF4EF"/>
<stop offset="1" stop-color="#F6DFD7"/>
</linearGradient>
<clipPath id="clip0_26486_108700">
<rect width="480" height="480" rx="8" fill="white"/>
</clipPath>
</defs>
</svg>
