<svg width="124" height="74" viewBox="0 0 124 74" fill="none" xmlns="http://www.w3.org/2000/svg">
<path d="M92.8275 95.0491C92.6301 97.725 91.9278 100.277 90.9164 102.741C89.1501 107.032 86.4413 111.042 83.8264 114.923C83.1224 115.969 82.4169 117.02 81.7146 118.071C79.0026 122.131 76.3038 126.222 73.5704 130.287C73.373 130.582 73.174 130.876 72.9734 131.17C71.4965 133.363 70.0081 135.548 68.495 137.714C67.2188 139.55 65.9277 141.374 64.6169 143.181C61.6171 147.317 58.5186 151.365 55.2589 155.264C53.838 156.968 52.3841 158.641 50.8974 160.281C50.1573 161.098 49.4073 161.907 48.6491 162.708C47.0176 164.428 45.345 166.107 43.6215 167.739C41.7351 169.527 39.7895 171.257 37.7764 172.921C34.7437 173.151 31.6978 173.193 28.6569 173.053H28.6536C12.393 172.311 -3.69813 166.422 -16.7812 156.753C-16.5642 155.246 -16.3405 153.738 -16.1053 152.232C-15.5247 148.515 -14.8866 144.804 -14.1909 141.102C-13.6992 138.481 -13.1778 135.864 -12.6302 133.251C-12.0052 130.281 -11.3457 127.319 -10.6484 124.363C-10.2997 122.886 -9.94448 121.411 -9.57608 119.937C-8.40838 115.234 -7.15353 110.553 -5.80657 105.902C-4.55499 101.568 -3.22777 97.2595 -1.82818 92.9802C-0.29044 88.2897 1.33117 83.6337 3.03995 79.0205C3.05969 78.9678 3.07778 78.9136 3.09916 78.8626C5.02832 73.6622 7.26668 68.2398 11.6825 64.8848C12.5295 64.2401 13.4308 63.6908 14.3715 63.2138C17.5309 61.6087 21.1244 60.8044 24.5634 59.8127C26.18 59.3456 27.7836 58.8292 29.3674 58.2602C35.1105 56.2027 40.6183 53.4924 45.7579 50.2047C51.3151 46.6539 56.4414 42.4321 60.9757 37.643C63.3785 37.6347 63.3884 36.2302 65.0166 34.4639C71.7202 38.0558 78.4648 41.9519 84.9842 45.8695C85.0631 54.8722 86.5976 63.7747 88.6254 72.5669C89.3046 75.5174 90.0415 78.4547 90.7963 81.3789C91.1812 82.8706 91.571 84.3738 91.9098 85.8836C92.5874 88.9113 93.0528 91.972 92.8275 95.0541V95.0491Z" fill="url(#paint0_linear_28963_368882)"/>
<path style="mix-blend-mode:multiply" opacity="0.49" d="M14.373 63.2098C24.7376 74.0825 36.3553 83.8435 49.5207 91.047C62.2535 98.0137 76.4615 102.295 90.9179 102.74C91.9294 100.278 92.6333 97.7243 92.829 95.0501C93.0543 91.968 92.5889 88.9073 91.9113 85.8796C80.0485 86.9009 67.9308 84.8993 57.0433 80.0806C46.187 75.2766 36.5823 67.6849 29.3689 58.2578C27.7851 58.8252 26.1816 59.3433 24.5649 59.8104C21.1259 60.8021 17.5324 61.6079 14.3747 63.2115L14.373 63.2098Z" fill="url(#paint1_linear_28963_368882)"/>
<path d="M88.6254 72.5633C80.5798 72.8495 72.4668 71.1308 65.2435 67.5751C58.0203 64.0178 51.7131 58.6332 47.0373 52.0826C46.5966 51.4675 46.169 50.8393 45.7578 50.2028C51.3151 46.652 56.4414 42.4302 60.9757 37.641C62.3259 37.6361 62.9196 37.1904 63.4706 36.4881C63.9015 35.9404 64.3028 35.2365 65.0166 34.4619C71.7201 38.0538 78.4648 41.95 84.9841 45.8675C85.0022 47.7819 85.0828 49.6913 85.2243 51.5974C85.2522 51.9823 85.2818 52.3671 85.3147 52.752C85.8805 59.4144 87.1172 66.0209 88.6254 72.5649V72.5633Z" fill="url(#paint2_linear_28963_368882)"/>
<path style="mix-blend-mode:multiply" opacity="0.35" d="M45.7575 50.2008C46.167 50.8373 46.5946 51.4655 47.037 52.0823C53.308 49.3259 60.2073 47.9953 67.0556 48.2355C73.3661 48.4558 79.6239 50.01 85.3128 52.75C85.1171 50.4607 85.0036 48.1664 84.9822 45.8655C78.4628 41.948 71.7165 38.0519 65.013 34.46C63.3864 36.2263 63.3749 37.6325 60.9737 37.6407C56.4411 42.4299 51.3131 46.6517 45.7559 50.2025L45.7575 50.2008Z" fill="url(#paint3_linear_28963_368882)"/>
<path d="M94.5765 83.2581C89.0028 89.2101 75.6944 110.516 80.1136 103.436C80.2468 103.222 66.8775 124.644 60.2578 135.248C70.6947 105.964 87.0967 89.0982 84.8205 48.6878C84.809 48.4904 84.7991 48.2914 84.7893 48.0957C86.4273 48.6006 87.7069 49.3226 88.4864 48.8802C89.7018 57.0952 90.8152 65.3266 91.8251 73.5728C91.4994 73.563 90.9995 73.3903 90.4929 73.3705C91.7362 76.4131 93.3134 79.7797 94.5732 83.2614L94.5765 83.2581Z" fill="url(#paint4_linear_28963_368882)"/>
<path style="mix-blend-mode:multiply" d="M88.1328 70.8397C88.1394 70.8216 88.146 70.8068 88.1493 70.792C88.1493 70.8084 88.1493 70.8232 88.146 70.8397H88.1328Z" fill="url(#paint5_linear_28963_368882)"/>
<path style="mix-blend-mode:multiply" opacity="0.69" d="M85.2248 51.5945C76.949 48.3052 71.6253 45.057 65.8674 37.546C66.2983 36.9983 64.3034 35.2353 65.0171 34.459C71.7207 38.0509 78.4654 41.947 84.9847 45.8646C85.0028 47.7789 85.0834 49.6884 85.2248 51.5945Z" fill="url(#paint6_linear_28963_368882)"/>
<path d="M101.298 45.0339C100.763 47.1226 99.9687 49.3083 98.2172 50.5681C96.2124 52.0088 93.5069 51.7999 91.0613 51.4611C88.3214 51.0796 85.759 50.4184 83.371 49.5484C76.4734 47.0404 71.0378 42.8202 67.0299 38.7612C65.1056 36.814 63.5103 34.9045 62.239 33.2385C61.5285 32.3077 60.9184 31.4524 60.4102 30.7091C60.3773 30.663 60.3477 30.617 60.3181 30.5726C59.2606 29.0217 58.6603 27.9888 58.509 27.826C58.3774 27.6846 62.4709 28.4345 64.0876 25.7439C64.1123 25.7011 64.1353 25.6617 64.1567 25.6222C64.2044 25.5367 64.2488 25.4479 64.2915 25.3558C64.3113 25.313 64.3294 25.2719 64.3458 25.2324C65.9033 21.5155 68.2206 18.1358 71.2368 15.4156C76.9273 10.2859 85.7557 8.04921 93.4 8.54096C94.6319 10.0754 95.7469 11.6987 96.7386 13.3943C97.9475 15.4583 98.977 17.6309 99.8141 19.8725C102.811 27.8622 103.416 36.7613 101.298 45.0339Z" fill="url(#paint7_linear_28963_368882)"/>
<path d="M76.6839 35.1177C77.3565 35.9713 78.0637 36.8002 78.8022 37.5995C81.6918 40.721 85.088 43.3936 88.8937 45.3079C89.2884 45.5053 89.7358 45.7026 90.1601 45.5776C90.6403 45.4346 90.9117 44.9395 91.1255 44.4856C91.5498 43.5893 91.9527 42.6831 92.3376 41.7687C92.382 41.6634 92.428 41.5565 92.4708 41.4496C92.8326 40.5779 93.178 39.6997 93.5053 38.8132C93.7306 38.2031 93.6549 37.8561 93.4132 37.6554C92.9708 37.2936 91.9807 37.4202 91.2735 37.3396C89.4364 37.1275 87.6076 36.8265 85.7968 36.4433C82.6326 35.7707 79.59 34.7707 76.5309 33.7329C75.2399 33.2955 76.4438 34.8118 76.6839 35.1161V35.1177Z" fill="url(#paint8_linear_28963_368882)"/>
<path style="mix-blend-mode:multiply" d="M76.8304 34.5574C77.9652 35.355 79.1412 36.105 80.3467 36.7891C82.4436 37.9832 84.6277 39.0407 86.8644 39.9403C87.991 40.3958 89.1356 40.807 90.2951 41.1672C90.9645 41.3744 91.647 41.5899 92.3328 41.7675C92.3772 41.6622 92.4233 41.5553 92.466 41.4484C92.295 41.404 92.1223 41.358 91.9513 41.3119C91.3066 41.1343 90.6652 40.9435 90.027 40.7396C87.7032 39.9962 85.4056 39.141 83.2067 38.0753C81.021 37.0145 78.9142 35.7974 76.8863 34.462C76.8239 34.4209 76.7696 34.5195 76.8271 34.559L76.8304 34.5574Z" fill="url(#paint9_linear_28963_368882)"/>
<path d="M87.3894 31.1409C87.3829 31.0422 87.3894 30.9403 87.396 30.8416C87.5588 28.4766 87.72 26.1116 87.8828 23.7466C87.9536 22.722 87.9207 21.7303 87.822 20.7007C87.771 20.1646 87.7874 19.3653 87.4848 18.89C87.3401 18.6614 87.6246 18.3966 87.8483 18.5265C88.8532 19.1136 89.7265 20.1119 90.5735 20.9079C91.5126 21.7911 92.4451 22.6809 93.3924 23.5558C95.2837 25.3057 97.2326 27.0046 98.8773 28.9996C99.2473 29.4486 99.2062 30.3482 98.4908 30.4633C95.7015 30.9156 92.8743 31.2264 90.0603 31.4748C89.6097 31.5142 87.7299 31.8744 87.4881 31.4896C87.4223 31.3843 87.3977 31.2659 87.3894 31.1409Z" fill="url(#paint10_linear_28963_368882)"/>
<path d="M46.1723 49.5398C53.0436 60.7562 64.7535 68.3758 77.5159 71.1059C79.4187 71.5138 81.3446 71.8033 83.2853 71.9661C85.2819 72.1355 87.2817 72.0516 89.275 72.1815C89.7142 72.2095 89.8819 72.9249 89.3869 73.0038C85.9611 73.5482 82.2179 73.1009 78.8135 72.5795C75.2479 72.0335 71.7744 71.0763 68.4325 69.7211C62.2733 67.2229 56.7079 63.4222 52.0568 58.6807C49.4846 56.0575 47.2495 53.1563 45.2694 50.066C44.9059 49.4986 45.8204 48.9625 46.174 49.5381L46.1723 49.5398Z" fill="url(#paint11_linear_28963_368882)"/>
<path d="M50.4183 45.5186C43.2542 51.4952 34.8912 55.513 25.974 58.2563C21.7522 59.5556 16.5748 61.141 12.8892 63.5767C7.33031 67.2492 5.10676 73.5712 2.65131 79.7649C-6.66722 103.27 -12.6142 127.997 -16.7637 152.925C-6.02088 162.155 5.03275 171.57 18.1915 175.925C36.8006 160.581 48.6601 137.327 50.1568 113.255L54.0628 56.2383L50.4199 45.5186H50.4183Z" fill="url(#paint12_linear_28963_368882)"/>
<path d="M60.8233 37.7988C56.3021 55.7764 54.6871 75.4792 56.7676 94.284C54.947 107.313 51.7728 120.153 46.9228 132.412C47.7253 113.576 46.6333 95.7905 44.5972 77.2669C45.5676 74.7523 47.4951 71.3281 49.1266 69.5009C47.1251 68.1852 44.7765 67.4007 42.6582 66.9238C43.7338 59.1397 45.1153 53.4755 48.2812 45.6191C51.059 42.9301 56.5505 38.9764 60.8216 37.8005L60.8233 37.7988Z" fill="url(#paint13_linear_28963_368882)"/>
<path d="M57.8606 128.702C56.5186 134.354 54.3921 139.82 51.491 145.594C51.4285 145.717 51.366 145.841 51.3035 145.966C51.0272 146.51 50.7459 147.058 50.4548 147.609C32.923 145.885 15.549 142.558 -1.37766 137.683C-1.71974 121.582 0.493941 105.952 4.90158 90.9656C6.39327 85.8919 8.07409 82.3 9.78945 79.7458C10.9687 77.991 12.1627 76.723 13.3238 75.802C15.0507 74.4287 16.7035 73.8202 18.1146 73.4978C25.328 71.8483 34.9048 78.0782 34.441 91.7007C34.1186 101.184 30.1698 110.955 27.6404 119.17C27.9364 119.155 28.2341 119.142 28.5301 119.127C28.5334 119.609 28.3492 120.089 28.0006 120.464C28.3673 120.309 28.7604 120.219 29.1584 120.201C29.1304 120.383 29.1058 120.564 28.989 120.967C39.7713 123.298 45.8762 124.401 57.8574 128.703L57.8606 128.702Z" fill="url(#paint14_linear_28963_368882)"/>
<path d="M91.7665 5.29578C79.4564 8.067 67.9801 14.4367 58.0514 25.6203C57.3179 21.2192 57.8902 16.6093 59.673 12.519C60.7568 10.0373 62.2847 7.75123 64.1777 5.77437C65.3997 4.49484 66.7762 3.34688 68.2843 2.35516C74.983 -0.217053 82.7868 0.35528 89.0923 3.6643C90.0183 4.14947 90.913 4.6922 91.7665 5.29578Z" fill="url(#paint15_linear_28963_368882)"/>
<path style="mix-blend-mode:multiply" opacity="0.52" d="M91.7665 5.29555C79.4564 8.06677 67.9801 14.4365 58.0514 25.62C57.3179 21.219 57.8902 16.609 59.673 12.5188C60.7568 10.037 62.2847 7.751 64.1777 5.77414C63.8224 6.65073 63.5017 7.54048 63.2172 8.44174C63.033 9.02724 62.8636 9.66042 63.0527 10.2459C63.3027 11.0173 64.1333 11.481 64.9408 11.5452C65.75 11.6093 66.546 11.3528 67.3124 11.0913C74.5554 8.61937 81.6915 5.32679 89.0923 3.66406C90.0183 4.14923 90.913 4.69196 91.7665 5.29555Z" fill="url(#paint16_linear_28963_368882)"/>
<path d="M67.0288 38.7606C66.9268 38.9267 66.7903 39.0731 66.6077 39.1866C66.2624 39.4004 65.7575 39.4925 65.0272 39.3675C60.9337 38.6735 58.6592 35.769 58.1921 33.5767C57.9685 32.5274 58.1592 31.6426 58.7628 31.2397C59.2924 30.8877 59.8105 30.6739 60.3154 30.5736C60.3927 30.5572 60.4683 30.5457 60.5456 30.5358C60.5489 30.5358 60.5505 30.5358 60.5538 30.5358C64.0158 30.0835 66.7722 34.8743 67.2163 37.0206C67.3133 37.491 67.3561 38.2294 67.0288 38.7639V38.7606Z" fill="url(#paint17_linear_28963_368882)"/>
<path style="mix-blend-mode:multiply" opacity="0.82" d="M65.1403 36.5651C64.9792 36.297 64.8098 36.0356 64.6453 35.7691C63.9315 34.6689 62.6783 32.4157 61.3741 32.072C60.7738 31.998 60.5863 32.2891 60.3659 32.7907C60.1834 33.317 60.088 33.8712 60.0239 34.4238C60.0107 34.5504 59.9712 34.6919 60.0617 34.8004C60.2048 34.9994 60.5452 34.909 60.5699 34.6639C60.7129 33.8942 60.9597 32.9667 61.1767 32.794C61.1883 32.7923 61.2014 32.7907 61.2129 32.789C61.2146 32.789 61.2146 32.789 61.2179 32.789C61.2524 32.794 61.2787 32.8005 61.2952 32.8038C61.3593 32.8269 61.4415 32.868 61.4843 32.8894C62.0352 33.2462 62.1849 33.488 62.6454 34.0225C62.7095 34.0982 62.777 34.182 62.8477 34.2708C62.7474 34.3926 62.6668 34.5439 62.573 34.6606C62.3296 35.029 62.1257 35.427 62.0287 35.8612C62.0023 35.9961 61.9415 36.1392 61.9777 36.2757C62.0451 36.5701 62.4957 36.5372 62.5286 36.2378C62.5878 35.9846 62.9365 35.3316 63.1322 35.0586C63.1815 34.9912 63.2309 34.9238 63.2819 34.858C63.7013 35.4501 64.1108 36.0915 64.2851 36.4039C64.3591 36.5306 64.6585 37.0602 64.5696 36.9039C64.6206 37.0059 64.6749 37.1161 64.7884 37.1588C64.9857 37.2477 65.2291 37.1062 65.2538 36.8924C65.2637 36.6539 65.1387 36.603 65.1387 36.5651H65.1403Z" fill="url(#paint18_linear_28963_368882)"/>
<path style="mix-blend-mode:multiply" opacity="0.2" d="M83.3712 49.5485C76.4735 47.0405 71.038 42.8203 67.03 38.7613C66.928 38.9274 66.7915 39.0738 66.609 39.1873C66.2636 39.4011 65.7587 39.4932 65.0285 39.3682C60.935 38.6742 58.6604 35.7697 58.1934 33.5774C58.8874 32.6416 59.6554 31.6647 60.4103 30.7108C60.4564 30.6533 60.5024 30.5941 60.5468 30.5365C62.027 28.6649 63.4332 26.9018 64.0861 25.7473C64.1108 25.7045 64.1338 25.6651 64.1552 25.6256C64.2029 25.5401 64.2473 25.4513 64.29 25.3592C64.3098 25.3164 64.3279 25.2753 64.3443 25.2358C67.1797 22.3511 70.3177 19.695 73.8207 17.335C70.6384 24.2507 70.7699 32.6054 74.1678 39.4159C76.2318 43.5522 79.4734 47.0668 83.3679 49.5518L83.3712 49.5485Z" fill="url(#paint19_linear_28963_368882)"/>
<g opacity="0.72">
<g style="mix-blend-mode:multiply">
<path d="M99.6788 16.8821C99.6788 19.8491 97.2744 22.2535 94.3074 22.2535C92.4918 22.2535 90.8849 21.3523 89.913 19.9741C89.2913 20.1583 88.7189 20.5102 88.2765 20.9839C88.5446 21.6236 88.6926 22.3259 88.6926 23.0627C88.6926 26.0296 86.2882 28.4341 83.3212 28.4341C81.0549 28.4341 79.1159 27.0312 78.3265 25.0461C77.3775 25.0379 76.4302 25.033 75.4812 25.0264L62.3932 31.0293L62.2402 29.735L75.3266 23.9771C75.3299 23.8505 75.3414 23.7222 75.3595 23.5956C75.376 23.5216 77.4778 21.9542 78.2097 21.4115C78.907 19.2521 80.9332 17.6913 83.3229 17.6913C84.8803 17.6913 86.2832 18.3541 87.2651 19.4149C87.7289 18.8491 88.4246 18.4758 89.1548 18.4051C89.0117 17.9215 88.9344 17.4117 88.9344 16.8821C88.9344 13.9152 91.3405 11.5107 94.3074 11.5107C97.2744 11.5107 99.6788 13.9152 99.6788 16.8821Z" fill="#FFB678"/>
</g>
</g>
<path d="M75.8044 23.377L62.3809 29.2845L62.5338 30.5772L76.0347 24.3868L75.8044 23.377Z" fill="url(#paint20_linear_28963_368882)"/>
<path d="M99.8204 16.4316C99.8204 19.3986 97.4159 21.803 94.449 21.803C92.6333 21.803 91.0265 20.9018 90.0545 19.5236C89.4328 19.7078 88.8605 20.0597 88.4181 20.5334C88.6862 21.1731 88.8342 21.8754 88.8342 22.6122C88.8342 25.5791 86.4297 27.9836 83.4628 27.9836C81.1965 27.9836 79.2575 26.5807 78.468 24.5956C77.5125 24.5874 76.5586 24.5825 75.6014 24.5759C75.4616 24.1203 75.432 23.6253 75.4995 23.1434C75.5159 23.0694 77.6177 21.5021 78.3496 20.9593C79.0469 18.7999 81.0731 17.2392 83.4628 17.2392C85.0203 17.2392 86.4232 17.9019 87.405 18.9627C87.8688 18.397 88.5645 18.0236 89.2947 17.9529C89.1516 17.4694 89.0743 16.9596 89.0743 16.43C89.0743 13.4631 91.4804 11.0586 94.4474 11.0586C97.4143 11.0586 99.8188 13.4631 99.8188 16.43L99.8204 16.4316Z" fill="url(#paint21_linear_28963_368882)"/>
<path d="M88.2163 22.6127C88.2163 23.4564 87.9976 24.2475 87.6128 24.9333C87.1671 25.7293 86.496 26.3855 85.6885 26.8131C85.4435 26.943 85.1869 27.0532 84.9188 27.1387C84.5817 27.2473 84.2281 27.3197 83.863 27.3493C83.7314 27.3608 83.5966 27.3674 83.4617 27.3674C82.6969 27.3674 81.9749 27.1864 81.3352 26.8674C79.776 26.0878 78.707 24.4761 78.707 22.6143C78.707 21.7953 78.9143 21.0256 79.2794 20.353C80.0836 18.8679 81.6542 17.8613 83.4617 17.8613C83.738 17.8613 84.011 17.8844 84.2758 17.9304C84.8202 18.0241 85.3333 18.2116 85.7971 18.4731C86.0273 18.6031 86.2444 18.7511 86.4483 18.9172C86.6523 19.0817 86.8431 19.2626 87.0158 19.4599C87.7624 20.2987 88.2147 21.4039 88.2147 22.6143L88.2163 22.6127Z" fill="url(#paint22_linear_28963_368882)"/>
<path style="mix-blend-mode:multiply" opacity="0.3" d="M87.6128 24.9329C87.1671 25.7289 86.496 26.3851 85.6885 26.8127C85.4435 26.9426 85.1869 27.0528 84.9188 27.1383C84.5817 27.2469 84.2281 27.3192 83.863 27.3488C83.7314 27.3603 83.5966 27.3669 83.4617 27.3669C82.6969 27.3669 81.9749 27.186 81.3352 26.867C79.776 26.0874 78.707 24.4757 78.707 22.6139C78.707 21.7949 78.9143 21.0252 79.2794 20.3525C80.1198 21.7538 81.3286 22.9379 82.7528 23.7372C84.2248 24.5628 85.9237 24.9756 87.6111 24.9345L87.6128 24.9329Z" fill="url(#paint23_linear_28963_368882)"/>
<path d="M99.201 16.4317C99.201 17.3774 98.9247 18.2589 98.4494 18.999C98.2685 19.2802 98.058 19.5417 97.8245 19.7786C97.5745 20.0302 97.2965 20.2539 96.9956 20.4463C96.7703 20.5894 96.5351 20.7127 96.2867 20.818C95.721 21.0548 95.0993 21.1864 94.448 21.1864C94.1586 21.1864 93.874 21.1601 93.5994 21.1107C91.3791 20.7094 89.6934 18.7688 89.6934 16.4317C89.6934 15.5979 89.9088 14.8134 90.2871 14.1325C91.0963 12.6688 92.657 11.6787 94.448 11.6787C95.1996 11.6787 95.9101 11.853 96.5416 12.1639C97.0712 12.4254 97.5465 12.7823 97.9429 13.2115C98.058 13.3349 98.1649 13.4664 98.2669 13.6029C98.4675 13.8743 98.6402 14.1654 98.78 14.4762C99.0497 15.0733 99.201 15.7344 99.201 16.4334V16.4317Z" fill="url(#paint24_linear_28963_368882)"/>
<path opacity="0.14" d="M85.7959 18.4708L83.8618 27.3485C83.7302 27.3601 83.5954 27.3666 83.4605 27.3666C82.6958 27.3666 81.9737 27.1857 81.334 26.8667L84.2746 17.9297C84.819 18.0234 85.3321 18.2109 85.7959 18.4724V18.4708Z" fill="url(#paint25_linear_28963_368882)"/>
<path opacity="0.14" d="M87.0168 19.4578L85.6896 26.8142C85.4446 26.9442 85.188 27.0544 84.9199 27.1399L86.4511 18.915C86.655 19.0795 86.8458 19.2604 87.0185 19.4578H87.0168Z" fill="url(#paint26_linear_28963_368882)"/>
<path opacity="0.14" d="M97.9428 13.2097L96.285 20.8162C95.7192 21.053 95.0976 21.1846 94.4463 21.1846C94.1568 21.1846 93.8723 21.1583 93.5977 21.109L96.5415 12.1621C97.0711 12.4236 97.5464 12.7805 97.9428 13.2097Z" fill="url(#paint27_linear_28963_368882)"/>
<path opacity="0.14" d="M98.7802 14.4749L97.823 19.7788C97.5731 20.0305 97.2951 20.2541 96.9941 20.4466L98.2671 13.6016C98.4677 13.8729 98.6404 14.164 98.7802 14.4749Z" fill="url(#paint28_linear_28963_368882)"/>
<path style="mix-blend-mode:multiply" opacity="0.3" d="M98.4494 18.9993C98.2685 19.2805 98.058 19.542 97.8245 19.7789C97.5745 20.0305 97.2965 20.2542 96.9956 20.4466C96.7703 20.5897 96.5351 20.713 96.2867 20.8183C95.721 21.0551 95.0993 21.1867 94.448 21.1867C94.1586 21.1867 93.874 21.1604 93.5994 21.111C91.3791 20.7097 89.6934 18.7691 89.6934 16.432C89.6934 15.5982 89.9088 14.8137 90.2871 14.1328C91.1308 15.659 92.4037 16.9484 93.925 17.802C95.3016 18.5733 96.8739 18.9845 98.4494 18.9993Z" fill="url(#paint29_linear_28963_368882)"/>
<path d="M95.8951 14.1307C91.9184 15.698 90.5435 15.152 88.1686 14.8247C88.9235 15.5648 90.2491 16.2309 91.5944 16.2391C91.4529 16.3065 91.3115 16.3707 91.1684 16.4348C87.0568 18.2373 82.1673 18.285 77.9258 16.6157C78.2596 15.5582 78.8501 14.6454 79.5902 13.8642C80.1641 13.2639 80.8253 12.741 81.5275 12.2936C83.1393 11.2674 84.9583 10.6111 86.8019 10.1095C90.2573 9.1688 94.0696 8.72803 97.446 9.92697C97.8062 9.93026 98.7765 9.63916 100.623 7.45508C100.64 7.90078 100.494 11.5321 95.8968 14.1323L95.8951 14.1307Z" fill="url(#paint30_linear_28963_368882)"/>
<path style="mix-blend-mode:multiply" opacity="0.47" d="M91.1665 16.4351C87.0549 18.2377 82.1654 18.2854 77.9238 16.616C78.2577 15.5585 78.8481 14.6458 79.5882 13.8646C80.4977 13.7478 81.4351 13.8317 82.3907 14.2461C84.208 15.0339 86.0418 15.8266 87.9825 16.2213C89.0252 16.4335 90.1073 16.5223 91.1665 16.4351Z" fill="url(#paint31_linear_28963_368882)"/>
<path d="M97.4435 9.92752C81.775 13.5688 67.9057 22.9432 59.5542 36.694C56.4557 32.7272 55.3078 30.4148 55.7074 25.9348C56.4146 24.9612 57.1646 24.0056 57.9556 23.0764C66.2989 13.2382 79.0301 6.05111 91.8352 4.57422C94.1509 5.22385 96.1607 6.88494 97.2379 9.40288C97.3103 9.57393 97.3793 9.74826 97.4451 9.92752H97.4435Z" fill="url(#paint32_linear_28963_368882)"/>
<path style="mix-blend-mode:multiply" d="M97.4435 9.92668C81.775 13.5679 67.9057 22.9424 59.5542 36.6932C56.4557 32.7263 55.3078 30.414 55.7074 25.934C56.4146 24.9603 57.1646 24.0048 57.9556 23.0756C57.9458 23.3848 57.9589 23.6923 58 24.0015C58.1826 25.3715 59.0674 26.7481 60.4127 27.0655C61.8502 27.4059 63.253 26.4948 64.4553 25.6379C70.0717 21.6299 75.8263 17.7716 82.0102 14.7109C86.8421 12.3213 91.957 10.4234 97.2379 9.40039C97.3103 9.57143 97.3793 9.74577 97.4451 9.92503L97.4435 9.92668Z" fill="url(#paint33_linear_28963_368882)"/>
<path style="mix-blend-mode:lighten" opacity="0.73" d="M76.7396 13.0698C75.9634 13.1487 75.1509 13.2869 74.4651 13.6816C74.1197 13.8806 72.8648 14.9825 73.7217 15.3147C73.9487 15.4019 74.2019 15.3312 74.4338 15.2638C77.2643 14.4365 80.2197 14.0418 83.1685 14.0961C83.4613 14.101 84.2688 13.999 83.8806 13.5303C83.7885 13.4185 83.6504 13.3543 83.5155 13.3001C82.6143 12.9432 81.5124 12.9349 80.5519 12.9152C79.2789 12.8905 78.006 12.9415 76.7396 13.0698Z" fill="url(#paint34_linear_28963_368882)"/>
<path style="mix-blend-mode:lighten" opacity="0.73" d="M88.5971 11.6706C88.4639 11.9107 88.2978 12.1409 88.0692 12.1607C87.4196 12.2149 87.8784 11.1032 87.959 10.8318C88.1399 10.2134 88.3636 9.60818 88.6267 9.0194C88.9639 8.2678 89.3668 7.54745 89.829 6.86657C90.1283 6.4258 90.699 5.32883 91.393 5.65118C91.8453 5.86169 92.2976 6.50639 92.0788 7.01294C91.9933 7.21194 91.8387 7.37312 91.6907 7.53265C90.9835 8.28589 90.324 9.08519 89.7188 9.92231C89.4079 10.3499 89.1119 10.789 88.8307 11.2364C88.7616 11.3466 88.6876 11.5094 88.5988 11.6706H88.5971Z" fill="url(#paint35_linear_28963_368882)"/>
<defs>
<linearGradient id="paint0_linear_28963_368882" x1="92.885" y1="103.795" x2="-16.7812" y2="103.795" gradientUnits="userSpaceOnUse">
<stop stop-color="#454347"/>
<stop offset="1" stop-color="#626163"/>
</linearGradient>
<linearGradient id="paint1_linear_28963_368882" x1="92.8849" y1="80.4983" x2="14.3714" y2="80.4983" gradientUnits="userSpaceOnUse">
<stop stop-color="#454347"/>
<stop offset="1" stop-color="#626163"/>
</linearGradient>
<linearGradient id="paint2_linear_28963_368882" x1="65.403" y1="66.0735" x2="80.2673" y2="27.0693" gradientUnits="userSpaceOnUse">
<stop stop-color="#FFC493"/>
<stop offset="1" stop-color="#FFB073"/>
</linearGradient>
<linearGradient id="paint3_linear_28963_368882" x1="85.3144" y1="43.6042" x2="45.7575" y2="43.6042" gradientUnits="userSpaceOnUse">
<stop stop-color="#FFC493"/>
<stop offset="1" stop-color="#FFB073"/>
</linearGradient>
<linearGradient id="paint4_linear_28963_368882" x1="104.393" y1="53.1941" x2="58.878" y2="108.146" gradientUnits="userSpaceOnUse">
<stop stop-color="#363636"/>
<stop offset="1" stop-color="#131313"/>
</linearGradient>
<linearGradient id="paint5_linear_28963_368882" x1="88.1608" y1="70.8051" x2="88.1246" y2="70.8381" gradientUnits="userSpaceOnUse">
<stop stop-color="#363636"/>
<stop offset="1" stop-color="#131313"/>
</linearGradient>
<linearGradient id="paint6_linear_28963_368882" x1="73.6992" y1="46.6968" x2="77.9177" y2="35.63" gradientUnits="userSpaceOnUse">
<stop stop-color="#FFC493"/>
<stop offset="1" stop-color="#FFB073"/>
</linearGradient>
<linearGradient id="paint7_linear_28963_368882" x1="107.097" y1="16.4303" x2="67.0973" y2="45.9302" gradientUnits="userSpaceOnUse">
<stop stop-color="#FFC493"/>
<stop offset="1" stop-color="#FFB073"/>
</linearGradient>
<linearGradient id="paint8_linear_28963_368882" x1="89.1733" y1="44.9905" x2="83.6457" y2="33.6244" gradientUnits="userSpaceOnUse">
<stop stop-color="#FFF4EF"/>
<stop offset="1" stop-color="#F6DFD7"/>
</linearGradient>
<linearGradient id="paint9_linear_28963_368882" x1="83.9632" y1="46.6109" x2="84.654" y2="37.7562" gradientUnits="userSpaceOnUse">
<stop stop-color="#FFF4EF"/>
<stop offset="1" stop-color="#F6DFD7"/>
</linearGradient>
<linearGradient id="paint10_linear_28963_368882" x1="96.5123" y1="30.1278" x2="82.4769" y2="22.0263" gradientUnits="userSpaceOnUse">
<stop stop-color="#FF9762"/>
<stop offset="1" stop-color="#FFB073"/>
</linearGradient>
<linearGradient id="paint11_linear_28963_368882" x1="70.7268" y1="53.0626" x2="61.3079" y2="76.4247" gradientUnits="userSpaceOnUse">
<stop stop-color="#363636"/>
<stop offset="1" stop-color="#131313"/>
</linearGradient>
<linearGradient id="paint12_linear_28963_368882" x1="40.9813" y1="88.0539" x2="-36.7691" y2="187.819" gradientUnits="userSpaceOnUse">
<stop stop-color="#363636"/>
<stop offset="1" stop-color="#131313"/>
</linearGradient>
<linearGradient id="paint13_linear_28963_368882" x1="92.7342" y1="49.4889" x2="34.4876" y2="100.471" gradientUnits="userSpaceOnUse">
<stop stop-color="#363636"/>
<stop offset="1" stop-color="#131313"/>
</linearGradient>
<linearGradient id="paint14_linear_28963_368882" x1="52.8544" y1="90.6745" x2="-42.191" y2="185.72" gradientUnits="userSpaceOnUse">
<stop stop-color="#363636"/>
<stop offset="1" stop-color="#131313"/>
</linearGradient>
<linearGradient id="paint15_linear_28963_368882" x1="77.343" y1="3.53931" x2="72.0029" y2="20.4873" gradientUnits="userSpaceOnUse">
<stop stop-color="#363636"/>
<stop offset="1" stop-color="#131313"/>
</linearGradient>
<linearGradient id="paint16_linear_28963_368882" x1="80.259" y1="-2.87338" x2="66.4621" y2="32.8433" gradientUnits="userSpaceOnUse">
<stop stop-color="#363636"/>
<stop offset="1" stop-color="#131313"/>
</linearGradient>
<linearGradient id="paint17_linear_28963_368882" x1="99.1059" y1="58.6871" x2="67.8264" y2="38.185" gradientUnits="userSpaceOnUse">
<stop stop-color="#FFC493"/>
<stop offset="1" stop-color="#FFB073"/>
</linearGradient>
<linearGradient id="paint18_linear_28963_368882" x1="60.052" y1="34.2049" x2="65.5159" y2="34.9252" gradientUnits="userSpaceOnUse">
<stop stop-color="#FFC493"/>
<stop offset="1" stop-color="#FFB073"/>
</linearGradient>
<linearGradient id="paint19_linear_28963_368882" x1="96.9608" y1="35.9194" x2="63.2079" y2="31.3605" gradientUnits="userSpaceOnUse">
<stop stop-color="#FFC493"/>
<stop offset="1" stop-color="#FFB073"/>
</linearGradient>
<linearGradient id="paint20_linear_28963_368882" x1="62.7854" y1="55.8603" x2="69.7768" y2="24.2618" gradientUnits="userSpaceOnUse">
<stop stop-color="#FFAB18"/>
<stop offset="1" stop-color="#FFE068"/>
</linearGradient>
<linearGradient id="paint21_linear_28963_368882" x1="90.9426" y1="49.8113" x2="87.4478" y2="18.2144" gradientUnits="userSpaceOnUse">
<stop stop-color="#FFAB18"/>
<stop offset="1" stop-color="#FFE068"/>
</linearGradient>
<linearGradient id="paint22_linear_28963_368882" x1="85.8283" y1="12.6774" x2="81.9864" y2="28.8081" gradientUnits="userSpaceOnUse">
<stop stop-color="#363636"/>
<stop offset="1" stop-color="#131313"/>
</linearGradient>
<linearGradient id="paint23_linear_28963_368882" x1="84.4551" y1="18.0533" x2="82.0374" y2="28.2057" gradientUnits="userSpaceOnUse">
<stop stop-color="#363636"/>
<stop offset="1" stop-color="#131313"/>
</linearGradient>
<linearGradient id="paint24_linear_28963_368882" x1="96.813" y1="6.4948" x2="92.9711" y2="22.6271" gradientUnits="userSpaceOnUse">
<stop stop-color="#363636"/>
<stop offset="1" stop-color="#131313"/>
</linearGradient>
<linearGradient id="paint25_linear_28963_368882" x1="82.5543" y1="27.286" x2="84.8305" y2="18.053" gradientUnits="userSpaceOnUse">
<stop stop-color="#FFFAF4"/>
<stop offset="1" stop-color="#FAECDD"/>
</linearGradient>
<linearGradient id="paint26_linear_28963_368882" x1="85.0087" y1="27.1613" x2="87.0086" y2="19.0532" gradientUnits="userSpaceOnUse">
<stop stop-color="#FFFAF4"/>
<stop offset="1" stop-color="#FAECDD"/>
</linearGradient>
<linearGradient id="paint27_linear_28963_368882" x1="94.8295" y1="21.4132" x2="97.0794" y2="12.2937" gradientUnits="userSpaceOnUse">
<stop stop-color="#FFFAF4"/>
<stop offset="1" stop-color="#FAECDD"/>
</linearGradient>
<linearGradient id="paint28_linear_28963_368882" x1="97.1126" y1="20.4745" x2="98.7753" y2="13.7266" gradientUnits="userSpaceOnUse">
<stop stop-color="#FFFAF4"/>
<stop offset="1" stop-color="#FAECDD"/>
</linearGradient>
<linearGradient id="paint29_linear_28963_368882" x1="95.4134" y1="11.7958" x2="92.9777" y2="22.0205" gradientUnits="userSpaceOnUse">
<stop stop-color="#363636"/>
<stop offset="1" stop-color="#131313"/>
</linearGradient>
<linearGradient id="paint30_linear_28963_368882" x1="86.5832" y1="13.8988" x2="107.024" y2="9.9023" gradientUnits="userSpaceOnUse">
<stop stop-color="#9F5A10"/>
<stop offset="1" stop-color="#F0891E"/>
</linearGradient>
<linearGradient id="paint31_linear_28963_368882" x1="82.7591" y1="15.8611" x2="93.844" y2="13.6952" gradientUnits="userSpaceOnUse">
<stop stop-color="#9F5A10"/>
<stop offset="1" stop-color="#F0891E"/>
</linearGradient>
<linearGradient id="paint32_linear_28963_368882" x1="82.7979" y1="3.66638" x2="63.7596" y2="47.3135" gradientUnits="userSpaceOnUse">
<stop stop-color="#363636"/>
<stop offset="1" stop-color="#131313"/>
</linearGradient>
<linearGradient id="paint33_linear_28963_368882" x1="84.2995" y1="-14.4979" x2="70.0437" y2="45.3489" gradientUnits="userSpaceOnUse">
<stop stop-color="#363636"/>
<stop offset="1" stop-color="#131313"/>
</linearGradient>
<linearGradient id="paint34_linear_28963_368882" x1="78.751" y1="14.8592" x2="78.626" y2="13.4777" gradientUnits="userSpaceOnUse">
<stop stop-color="#FFF4EF"/>
<stop offset="1" stop-color="#F6DFD7"/>
</linearGradient>
<linearGradient id="paint35_linear_28963_368882" x1="90.3384" y1="9.15934" x2="88.7935" y2="8.36558" gradientUnits="userSpaceOnUse">
<stop stop-color="#FFF4EF"/>
<stop offset="1" stop-color="#F6DFD7"/>
</linearGradient>
</defs>
</svg>
