<svg width="480" height="480" viewBox="0 0 480 480" fill="none" xmlns="http://www.w3.org/2000/svg">
<g clip-path="url(#clip0_26486_110345)">
<rect width="480" height="480" rx="8" fill="white"/>
<path d="M419.53 342.988C435.12 355.558 449.44 369.708 461.38 385.988C433.75 402.638 409.95 425.598 392.57 454.558C411.27 456.158 429.62 461.648 447.36 472.268C425.62 598.198 388.26 763.918 332.8 881.208C347.58 813.888 360.97 704.108 344.86 635.418C359.25 588.598 351.6 535.508 324.59 494.648C363.82 466.748 391.67 423.318 400.67 376.028C401.75 370.358 402.61 364.508 405.38 359.448C408.15 354.388 413.36 350.178 419.53 342.998V342.988Z" fill="url(#paint0_linear_26486_110345)"/>
<path d="M350.39 648.188C350.36 648.568 350.34 648.948 350.31 649.328C349.56 659.228 348.38 669.128 346.69 679.168C346.53 680.078 346.37 680.998 346.22 681.908C345.11 688.068 343.82 694.308 342.3 700.628C341.82 702.628 341.32 704.638 340.8 706.668C340.57 707.588 340.33 708.498 340.08 709.428C337.39 719.458 334.15 729.738 330.26 740.438C329.95 741.278 329.64 742.138 329.32 742.988C326.31 751.118 322.92 759.478 319.13 768.148C318.77 768.978 318.4 769.798 318.04 770.638C314.15 779.408 309.85 788.478 305.09 797.908C304.69 798.698 304.29 799.498 303.88 800.298C299.25 809.408 294.2 818.868 288.69 828.708C288.24 829.538 287.77 830.358 287.3 831.188C282.77 839.228 277.95 847.528 272.81 856.118C272.36 856.868 271.91 857.618 271.45 858.378C267.41 865.088 263.18 871.988 258.75 879.068C258.28 879.828 257.8 880.588 257.32 881.348C251.07 891.298 244.42 901.618 237.36 912.348C227.84 926.838 218.54 940.688 209.25 954.038C208.73 954.778 208.22 955.528 207.7 956.268C202.79 963.298 197.89 970.178 192.95 976.948C192.45 977.628 191.95 978.318 191.45 978.988C186.14 986.238 180.78 993.348 175.34 1000.34C174.82 1001.01 174.3 1001.69 173.77 1002.35C168.29 1009.36 162.73 1016.26 157.03 1023.05C156.46 1023.73 155.89 1024.42 155.32 1025.09C149.3 1032.22 143.13 1039.25 136.78 1046.2C136.19 1046.85 135.58 1047.52 134.98 1048.17C134.14 1049.08 133.3 1049.99 132.45 1050.9C127.83 1055.85 123.11 1060.77 118.27 1065.66C117.62 1066.32 116.96 1066.98 116.3 1067.64C111.81 1072.14 107.22 1076.62 102.51 1081.07C101.82 1081.72 101.13 1082.37 100.44 1083.02C89.92 1092.9 78.81 1102.69 66.96 1112.5C54.03 1113.47 41.78 1114 30.1 1114.06C-63.9 1114.56 -121.26 1085.38 -205 1023.54C-186.24 892.488 -146.67 512.158 -95.66 473.328C8.57004 393.978 76.51 415.148 189.51 295.758C204.06 295.708 204.13 287.198 213.99 276.488C254.61 298.258 295.49 321.868 335 345.598C335.26 374.438 336.2 400.588 337.51 424.568C339.17 454.728 341.42 481.458 343.62 505.798C343.72 506.888 343.82 507.978 343.91 509.058C345.06 521.618 346.19 533.548 347.21 544.978C347.29 546.018 347.39 547.048 347.48 548.078C350.7 584.848 352.7 616.568 350.4 648.188H350.39Z" fill="url(#paint1_linear_26486_110345)"/>
<path style="mix-blend-mode:multiply" opacity="0.15" d="M350.39 648.19C350.36 648.57 350.34 648.95 350.31 649.33C349.56 659.23 348.38 669.13 346.69 679.17C346.53 680.08 346.37 681 346.22 681.91C345.11 688.07 343.82 694.31 342.3 700.63C295.13 717.13 254.96 751.82 225.17 792.39C191.09 838.79 169.03 892.78 148.6 946.62C139.81 969.77 131.18 993.41 129.6 1018.12C128.9 1029.04 129.76 1040.27 132.46 1050.9C127.84 1055.85 123.12 1060.77 118.28 1065.66C117.63 1066.32 116.97 1066.98 116.31 1067.64C111.82 1072.14 107.23 1076.62 102.52 1081.07C101.83 1081.72 101.14 1082.37 100.45 1083.02C89.9302 1092.9 78.8202 1102.69 66.9702 1112.5C54.0402 1113.47 41.7902 1114 30.1102 1114.06C29.1302 1113.26 28.2202 1112.37 27.3602 1111.39C18.1702 1100.91 20.5202 1084.99 23.5202 1071.38C62.1402 896.17 119.59 722.65 120.37 543.24C120.56 499.21 118.5 451.16 144.97 415.98C167.91 385.5 209.15 372.01 246.95 377.15C281.31 381.82 312.65 400.2 337.51 424.57C339.17 454.73 341.42 481.46 343.62 505.8C343.72 506.89 343.82 507.98 343.91 509.06C345.06 521.62 346.19 533.55 347.21 544.98C347.29 546.02 347.39 547.05 347.48 548.08C350.7 584.85 352.7 616.57 350.4 648.19H350.39Z" fill="url(#paint2_linear_26486_110345)"/>
<path d="M97.2798 371.878C99.7698 375.738 102.35 379.538 105.03 383.278C133.36 422.968 192.66 381.608 236.42 403.158C280.19 424.708 307.57 447.988 356.32 446.258C347.18 406.598 340.4 427.698 336.97 387.328C335.78 373.458 335.09 359.548 334.97 345.608C295.46 321.868 254.59 298.258 213.96 276.488C204.11 287.198 204.04 295.708 189.48 295.758C162.01 324.778 130.94 350.368 97.2598 371.878H97.2798Z" fill="url(#paint3_linear_26486_110345)"/>
<path style="mix-blend-mode:multiply" d="M212.051 310.14C238.121 343.32 268.901 372.79 303.171 397.39C306.561 399.82 310.141 402.28 314.261 402.96C320.371 403.98 326.581 400.82 330.801 396.29C335.021 391.76 337.631 385.99 340.161 380.34C343.001 374.01 345.801 366.48 342.351 360.46C339.811 356.04 334.671 353.95 329.941 352.04C299.551 339.75 271.321 322.13 246.921 300.23C242.701 296.44 238.451 292.43 233.141 290.45C227.831 288.46 221.091 289.05 217.491 293.42C212.901 298.99 215.351 307.28 212.051 310.14Z" fill="url(#paint4_linear_26486_110345)"/>
<path d="M372.531 644.169C372.501 644.379 372.461 644.589 372.431 644.799C339.021 667.219 298.6 678.129 258.84 675.799C264.5 670.759 268.82 663.919 270.09 656.519C258.87 647.509 251.19 635.709 246.94 622.779C272.68 589.289 287.081 548.449 288.891 506.969C317.401 503.899 338.111 490.689 351.921 472.209C356.551 483.339 360.53 494.719 363.86 506.299C376.68 550.899 379.741 598.309 372.541 644.169H372.531Z" fill="url(#paint5_linear_26486_110345)"/>
<path style="mix-blend-mode:multiply" opacity="0.31" d="M372.531 644.169C372.501 644.379 372.461 644.589 372.431 644.799C339.021 667.219 298.6 678.129 258.84 675.799C264.5 670.759 268.82 663.919 270.09 656.519C258.87 647.509 251.19 635.709 246.94 622.779C272.68 589.289 287.081 548.449 288.891 506.969C317.401 503.899 338.111 490.689 351.921 472.209C356.551 483.339 360.53 494.719 363.86 506.299C339.82 515.339 317.181 528.669 296.811 546.879C298.191 575.389 294.38 604.149 285.36 632.009C298.76 645.659 317.771 653.639 336.901 653.639C349.331 653.639 361.711 650.269 372.541 644.179L372.531 644.169Z" fill="url(#paint6_linear_26486_110345)"/>
<path d="M406.431 384.219C404.211 408.159 396.601 431.589 384.071 452.059C379.771 459.089 374.901 465.749 369.531 471.989C367.821 473.979 366.061 475.919 364.251 477.819C350.751 492.009 334.571 503.669 316.771 511.869C303.111 519.809 285.751 521.089 270.481 515.889C268.381 509.249 268.851 501.689 271.701 495.129C266.631 495.539 260.851 492.779 256.371 488.589C248.481 476.279 244.091 460.819 245.151 446.249C288.831 430.499 323.071 394.239 344.511 353.549C349.981 356.019 356.031 358.459 362.371 360.519C377.041 365.289 393.201 368.089 407.051 364.859C407.251 371.319 407.031 377.789 406.431 384.219Z" fill="url(#paint7_linear_26486_110345)"/>
<path style="mix-blend-mode:multiply" opacity="0.24" d="M364.24 477.819C350.74 492.009 334.56 503.669 316.76 511.869C303.1 519.809 285.74 521.089 270.47 515.889C268.37 509.249 268.84 501.689 271.69 495.129C266.62 495.539 260.84 492.779 256.36 488.589C248.47 476.279 244.08 460.819 245.14 446.249C288.82 430.499 323.06 394.239 344.5 353.549C349.97 356.019 356.02 358.459 362.36 360.519C342 399.749 310.15 433.299 270.38 456.579C264.19 468.259 266.51 483.849 277.16 495.299C291.56 506.159 312.08 502.669 328.9 496.159C341.31 491.369 353.17 485.189 364.24 477.809V477.819Z" fill="url(#paint8_linear_26486_110345)"/>
<path d="M195.96 283.9C196.79 284.82 197.63 285.74 198.49 286.65C198.96 287.16 199.42 287.65 199.89 288.13C201.76 290.13 203.67 292.11 205.6 294.05C213.33 301.82 221.5 309.16 230.04 316.04C247.77 330.33 267.11 342.61 287.58 352.61C314.15 365.61 342.59 374.77 371.8 379.51C386.57 381.9 403.02 382.829 415.16 374.1C425.77 366.469 430.6 353.23 433.83 340.56C446.66 290.43 442.99 236.5 424.84 188.1C419.76 174.51 413.52 161.35 406.2 148.84C400.19 138.57 393.43 128.74 385.97 119.44C339.64 116.46 286.15 130 251.67 161.09C217.2 192.17 197.78 237.52 195.96 283.9Z" fill="url(#paint9_linear_26486_110345)"/>
<path d="M284.67 280.48C288.75 285.66 293.03 290.68 297.51 295.52C315.02 314.44 335.6 330.63 358.66 342.23C361.05 343.43 363.76 344.62 366.33 343.86C369.24 343 370.89 339.99 372.18 337.24C374.75 331.81 377.19 326.32 379.53 320.78C379.8 320.14 380.08 319.49 380.34 318.84C382.53 313.56 384.62 308.24 386.61 302.87C387.98 299.18 387.51 297.07 386.05 295.86C383.37 293.67 377.37 294.44 373.08 293.94C361.95 292.65 350.87 290.83 339.9 288.51C320.73 284.43 302.29 278.37 283.75 272.09C275.93 269.44 283.22 278.63 284.67 280.47V280.48Z" fill="url(#paint10_linear_26486_110345)"/>
<path style="mix-blend-mode:multiply" d="M285.58 277.089C292.46 281.919 299.58 286.469 306.89 290.619C319.6 297.859 332.83 304.259 346.39 309.719C353.22 312.479 360.15 314.979 367.18 317.159C371.24 318.419 375.37 319.719 379.53 320.789C379.8 320.149 380.08 319.499 380.34 318.849C379.3 318.579 378.26 318.299 377.22 318.019C373.31 316.939 369.43 315.789 365.56 314.549C351.47 310.039 337.55 304.859 324.23 298.399C310.99 291.979 298.22 284.599 285.93 276.499C285.55 276.249 285.22 276.849 285.57 277.089H285.58Z" fill="url(#paint11_linear_26486_110345)"/>
<path d="M349.55 256.389C349.51 255.789 349.55 255.169 349.59 254.569C350.57 240.239 351.55 225.909 352.53 211.579C352.96 205.369 352.76 199.359 352.16 193.119C351.85 189.869 351.95 185.019 350.12 182.149C349.24 180.769 350.97 179.159 352.32 179.949C358.41 183.509 363.7 189.549 368.83 194.379C374.52 199.739 380.17 205.119 385.91 210.429C397.37 221.029 409.19 231.329 419.14 243.409C421.39 246.139 421.13 251.579 416.8 252.279C399.9 255.019 382.76 256.899 365.72 258.409C362.99 258.649 351.59 260.829 350.14 258.499C349.74 257.869 349.59 257.139 349.54 256.389H349.55Z" fill="url(#paint12_linear_26486_110345)"/>
<path d="M415.17 165.579C404.08 179.739 397.68 184.319 379.82 194.849C377.61 196.159 375.11 196.769 372.77 196.429C371.34 196.219 369.97 195.659 368.74 194.689C366.32 192.779 363.86 190.919 361.37 189.099C358.46 186.979 354.31 188.689 353.79 192.249C352.96 198.029 351.75 203.279 350.08 210.319C349.86 211.229 349.64 212.169 349.4 213.149C348.86 215.429 347.46 217.419 345.48 218.679C294.85 250.749 247.8 274.039 190.51 284.539C176.11 267.619 164.6 249.249 157.46 229.289C157.46 229.269 161.74 227.309 169.16 223.919C216.34 202.409 392.44 122.439 392.44 122.439C401.31 135.689 408.2 147.919 413.18 160.369C413.88 162.109 414.53 163.839 415.15 165.589L415.17 165.579Z" fill="url(#paint13_linear_26486_110345)"/>
<path style="mix-blend-mode:multiply" opacity="0.31" d="M314.39 225.548C326.71 221.538 338.66 216.418 350.08 210.328C349.86 211.238 349.64 212.178 349.4 213.158C348.86 215.438 347.46 217.428 345.48 218.688C294.85 250.758 247.8 274.048 190.51 284.548C176.11 267.628 164.6 249.258 157.46 229.298C157.46 229.278 161.74 227.318 169.16 223.928C171.39 224.248 173.6 224.768 175.8 225.488C220.44 240.088 269.71 240.118 314.37 225.568L314.39 225.548Z" fill="url(#paint14_linear_26486_110345)"/>
<path style="mix-blend-mode:multiply" opacity="0.31" d="M415.171 165.579C404.081 179.739 397.68 184.319 379.82 194.849C377.61 196.159 375.111 196.769 372.771 196.429C387.621 186.079 401.25 173.949 413.2 160.359C413.9 162.099 414.551 163.829 415.171 165.579Z" fill="url(#paint15_linear_26486_110345)"/>
<path d="M360.87 162.83C364.14 166.81 368.15 170.18 372.63 172.71C375.57 174.37 379.36 175.64 382.18 173.79C384.5 172.26 385.09 169.28 384.84 166.4C384.78 165.56 384.63 164.71 384.43 163.91C382.8 157.31 378.3 150.28 372.81 146.16C367.6 142.24 359.05 142.46 356.78 149.52C356.76 149.56 356.74 149.61 356.73 149.65C355.32 154.24 357.82 159.11 360.87 162.82V162.83Z" fill="url(#paint16_linear_26486_110345)"/>
<path d="M305.43 188.23C305.43 188.71 305.46 189.17 305.52 189.63C305.99 193.06 307.91 196.11 310.14 198.77C312.88 202.05 316.12 204.89 319.72 207.18C322.04 208.66 324.69 209.94 327.42 209.62C330.32 209.27 332.73 207.05 333.85 204.33C334.11 203.69 334.32 203.03 334.43 202.35C336.1 192.66 320.05 174.51 309.36 180.63C306.77 182.13 305.43 185.2 305.42 188.22L305.43 188.23Z" fill="url(#paint17_linear_26486_110345)"/>
<path style="mix-blend-mode:lighten" opacity="0.73" d="M345.24 141.548C344.83 143.158 344.21 144.768 342.9 145.228C339.17 146.538 340.16 139.328 340.21 137.608C340.32 133.708 340.7 129.808 341.34 125.958C342.16 121.038 343.42 116.198 345.09 111.498C346.17 108.448 347.83 101.148 352.39 101.968C355.37 102.508 359 105.588 358.5 108.898C358.3 110.198 357.65 111.378 357.02 112.538C354.03 118.048 351.39 123.738 349.13 129.578C347.97 132.568 346.91 135.588 345.94 138.648C345.7 139.398 345.52 140.478 345.24 141.548Z" fill="url(#paint18_linear_26486_110345)"/>
<path style="mix-blend-mode:lighten" opacity="0.73" d="M261.05 157.739C256.35 158.219 251.42 159.059 247.27 161.439C245.17 162.649 237.58 169.319 242.77 171.329C244.14 171.859 245.68 171.429 247.09 171.019C264.24 165.999 282.15 163.609 300.02 163.949C301.8 163.979 306.69 163.369 304.33 160.519C303.77 159.839 302.94 159.449 302.12 159.119C296.66 156.949 289.98 156.899 284.16 156.789C276.45 156.639 268.73 156.949 261.05 157.729V157.739Z" fill="url(#paint19_linear_26486_110345)"/>
<path d="M326.47 382.459C322.97 387.239 319.27 391.889 315.37 396.369C307.39 405.569 298.61 414.049 289.1 421.539C288.17 422.279 287.22 423.009 286.27 423.709C273.74 433.179 259.99 440.899 245.14 446.249C223.54 436.899 202.36 424.679 180.69 407.179C174.22 366.019 162.54 325.659 146.39 286.129C146.22 278.539 148.16 270.909 151.95 264.319C154.29 264.489 156.58 265.329 158.54 266.689C156.33 258.879 157.31 250.209 162.95 242.559C190.99 280.159 223.64 313.279 258.91 340.199C280.59 356.759 303.26 370.979 326.47 382.449V382.459Z" fill="url(#paint20_linear_26486_110345)"/>
<path style="mix-blend-mode:multiply" opacity="0.26" d="M315.37 396.369C307.39 405.569 298.61 414.049 289.1 421.539C288.17 422.279 287.22 423.009 286.27 423.709C273.74 433.179 259.99 440.899 245.14 446.249C223.54 436.899 202.36 424.679 180.69 407.179C174.22 366.019 162.54 325.659 146.39 286.129C146.22 278.539 148.16 270.909 151.95 264.319C154.29 264.489 156.58 265.329 158.54 266.689C156.33 258.879 157.31 250.209 162.95 242.559C190.99 280.159 223.64 313.279 258.91 340.199C228.81 322.339 202.07 298.819 180.59 271.179C179.29 269.499 177.94 267.759 176.06 266.769C174.18 265.789 171.59 265.799 170.19 267.389C168.54 269.249 169.23 272.129 170.04 274.479C174.1 286.239 179 297.719 184.71 308.799C179.74 303.119 174.78 297.429 169.82 291.739C168.56 290.299 166.26 288.819 165 290.269C164.32 291.069 164.51 292.279 164.76 293.299C174.19 332.579 191.31 370.439 217.71 401.019C225.23 409.729 233.79 418.029 244.52 422.199C255.24 426.369 268.56 425.569 277.3 417.979C290.74 412.229 303.54 404.949 315.37 396.359V396.369Z" fill="url(#paint21_linear_26486_110345)"/>
<path d="M382.391 164.969C382.301 165.049 382.2 165.119 382.09 165.189C381.15 165.789 379.911 165.639 378.861 165.249C376.091 164.199 372.2 159.779 373.7 156.619C375 153.869 378.96 154.509 380.82 156.279C382.68 158.049 384.991 162.889 382.391 164.979V164.969Z" fill="url(#paint22_linear_26486_110345)"/>
<path d="M331.65 199.469C331.56 199.549 331.46 199.619 331.35 199.689C330.41 200.289 329.17 200.139 328.12 199.749C325.35 198.699 321.46 194.279 322.96 191.119C324.26 188.369 328.22 189.009 330.08 190.779C331.94 192.549 334.25 197.389 331.65 199.479V199.469Z" fill="url(#paint23_linear_26486_110345)"/>
<path style="mix-blend-mode:multiply" d="M356.781 149.53C359.261 148.03 362.411 147.53 365.301 148.04C369.511 148.78 373.221 151.33 376.291 154.3C379.861 157.76 382.77 161.89 384.83 166.41C384.77 165.57 384.621 164.72 384.421 163.92C382.791 157.32 378.291 150.29 372.801 146.17C367.591 142.25 359.041 142.47 356.771 149.53H356.781Z" fill="url(#paint24_linear_26486_110345)"/>
<path style="mix-blend-mode:multiply" d="M305.431 188.23C307.181 186.02 309.851 184.54 312.681 184.35C316.061 184.14 319.331 185.67 322.091 187.62C327.761 191.63 331.951 197.66 333.861 204.33C334.121 203.69 334.331 203.03 334.441 202.35C336.111 192.66 320.061 174.51 309.371 180.63C306.781 182.13 305.441 185.2 305.431 188.22V188.23Z" fill="url(#paint25_linear_26486_110345)"/>
<path opacity="0.45" d="M203.33 361.809C203.4 361.909 203.45 361.959 203.33 361.809V361.809Z" fill="black"/>
<path opacity="0.45" d="M289.1 421.54C288.17 422.28 287.22 423.01 286.27 423.71C285.26 423.34 284.26 422.97 283.27 422.57C251.83 409.66 221.99 390.02 200.94 363.03C200.32 362.04 201.35 360.74 202.45 361.07C202.78 361.16 203.07 361.39 203.25 361.69C203.27 361.73 203.3 361.77 203.33 361.8C203.33 361.8 203.31 361.78 203.3 361.77C203.33 361.81 203.35 361.84 203.38 361.88C203.41 361.92 203.44 361.96 203.47 362C204.77 363.59 206.1 365.16 207.47 366.69C215.02 375.35 224.87 384.69 233.09 390.75C247.82 402.09 266.06 412.28 281.96 418.83C284.32 419.78 286.7 420.69 289.1 421.54Z" fill="black"/>
<path opacity="0.45" d="M364.761 393.089C364.491 393.109 364.161 393.419 363.981 393.619C364.001 393.599 364.021 393.579 364.041 393.549C364.011 393.589 363.991 393.619 363.961 393.649C363.881 393.729 363.841 393.789 363.851 393.779C363.231 394.529 363.401 394.309 362.541 395.429C353.991 407.059 339.741 419.469 327.641 427.969C318.971 434.229 309.811 439.779 300.761 445.469C299.281 446.409 297.811 447.359 296.341 448.309C296.021 448.499 295.791 448.799 295.691 449.159C295.331 450.329 296.731 451.429 297.781 450.769C315.671 439.809 333.831 428.949 349.221 414.529C354.031 410.059 358.601 405.319 362.791 400.269C363.991 398.799 365.251 397.219 365.721 396.559C366.071 395.989 366.621 395.479 366.701 394.799C366.921 393.749 365.781 392.789 364.771 393.109L364.761 393.089Z" fill="black"/>
<path d="M449.261 55.3391C448.861 56.7991 448.341 58.2491 447.791 59.6191C405.521 165.739 208.06 273.889 46.2305 230.569C43.6105 229.869 36.5905 227.889 30.6305 223.949C24.6805 219.999 20.2205 212.909 21.5305 205.879C22.1505 202.559 23.8805 199.799 26.2505 197.489C30.2005 193.649 35.9205 191.089 41.3005 189.339C74.0705 178.669 109.2 178.699 143.33 173.909C143.89 173.829 144.471 173.749 145.031 173.659C145.161 172.629 145.291 171.589 145.421 170.559C148.861 143.509 152.29 116.469 155.73 89.4191C157.44 75.9291 159.89 61.0591 170.49 52.5291C178.91 45.7491 190.511 44.7191 201.311 44.8891C205.811 44.9691 210.38 45.1791 214.87 45.1791C219.21 45.1591 223.48 44.9391 227.6 44.1391C229.45 43.7891 231.271 43.3091 233.041 42.6891C248.771 38.5491 255.571 17.7691 271.291 13.6291C275.661 12.4791 280.061 12.7991 284.361 13.9991C290.51 15.7291 296.441 19.2691 301.741 22.9491C325.581 39.5491 346.17 60.7991 362.08 85.1091C382.56 72.6791 402.74 59.7691 422.72 46.9091C426.921 44.1991 431.301 41.4291 436.241 40.7091C441.191 39.9791 446.881 41.8791 449.021 46.3991C450.331 49.1791 450.081 52.2991 449.251 55.3491L449.261 55.3391Z" fill="url(#paint26_linear_26486_110345)"/>
<path style="mix-blend-mode:multiply" opacity="0.56" d="M286.57 162.79C241.9 181.9 192.89 190.78 144.36 188.54C146.83 182.95 146.77 176.56 145.43 170.57C148.87 143.52 152.3 116.48 155.74 89.4295C157.45 75.9395 159.9 61.0695 170.5 52.5395C178.92 45.7595 190.52 44.7295 201.32 44.8995C205.82 44.9795 210.39 45.1895 214.88 45.1895C208.3 46.2595 201.97 48.3095 196.49 52.0295C187.87 57.8595 182.19 67.2995 178.97 77.1995C175.75 87.0995 174.77 97.5595 173.79 107.93C172.57 121 171.55 135.05 178.18 146.38C183.68 155.78 193.69 161.73 204.02 165.16C230.65 173.99 259.65 168.26 286.58 162.8L286.57 162.79Z" fill="url(#paint27_linear_26486_110345)"/>
<path style="mix-blend-mode:multiply" d="M449.261 55.3398C448.861 56.7998 448.341 58.2498 447.791 59.6198C405.521 165.74 208.06 273.89 46.2305 230.57C43.6105 229.87 36.5905 227.89 30.6305 223.95C24.6805 220 20.2205 212.91 21.5305 205.88C22.1505 202.56 23.8805 199.8 26.2505 197.49C26.8405 201.44 28.5405 205.33 31.0305 208.42C36.7905 215.53 45.6905 219.27 54.4305 222C79.3405 229.79 105.791 231.57 131.881 230.73C203.041 228.44 273.48 206.62 333.48 168.3C379.241 139.07 418.841 100.31 449.251 55.3398H449.261Z" fill="url(#paint28_linear_26486_110345)"/>
<path style="mix-blend-mode:multiply" opacity="0.4" d="M228.731 44.1191C228.351 44.1191 227.981 44.1191 227.601 44.1391C229.451 43.7891 231.271 43.3091 233.041 42.6891C248.771 38.5491 255.571 17.7691 271.291 13.6291C275.661 12.4791 280.061 12.7991 284.361 13.9991C285.901 16.0791 286.891 18.5991 287.071 21.1691C287.511 27.2591 284.101 33.1891 279.291 36.9491C274.481 40.7091 268.421 42.5491 262.381 43.4791C251.281 45.1791 239.961 44.0391 228.731 44.1291V44.1191Z" fill="url(#paint29_linear_26486_110345)"/>
<path d="M144.77 177.63C143.35 182.79 142.58 188.1 141.34 193.3C140.93 194.6 142.49 195.79 143.64 195.07C144.79 194.26 144.52 192.57 144.9 191.35C145.72 186.82 147.08 182.33 147.95 177.85C147.8 176.12 145.19 175.96 144.77 177.63Z" fill="black"/>
<path d="M373.82 99.0282C373.45 98.0682 372.61 97.3582 371.97 96.5582C370.13 94.2982 368.25 92.0582 366.34 89.8582C365.52 89.0682 364.92 87.6982 363.63 87.6982C362.09 87.6482 361.25 89.6982 362.37 90.7482C364.29 92.8482 368.49 97.9782 369.18 98.7882C370 99.7282 370.62 101.318 372.05 101.338C373.23 101.368 374.13 100.148 373.81 99.0282H373.82Z" fill="black"/>
<path d="M293.391 158.84C292.271 157.11 290.421 158.67 289.061 159.22C286.511 160.43 283.931 161.58 281.341 162.69C262.681 170.85 239.091 177.87 217.541 181.47C202.601 184 189.241 185.69 173.781 186.71C169.661 187.05 165.471 187.03 161.381 187.47C160.021 187.96 160.431 190.19 161.921 190.13C185.991 189.69 210.011 186.54 233.541 181.52C251.511 177.55 268.901 171.37 285.811 164.16C287.921 163.25 290.031 162.34 292.131 161.41C293.231 161.11 294.061 159.94 293.391 158.84Z" fill="black"/>
<path d="M364.04 111.06C363.14 111.06 362.57 111.8 361.94 112.35C353.02 120.49 343.64 126.83 332.78 133.3C327.31 136.56 321.72 139.63 315.95 142.32C313.7 142.99 314.91 146.23 317.04 145.17C334.11 137.4 352.15 124.93 365.26 113.99C366.34 112.98 365.53 111 364.04 111.05V111.06Z" fill="black"/>
<path d="M283.151 34.5595C282.141 34.3295 281.231 35.1095 280.281 35.3695C273.441 38.4295 262.001 40.8495 253.081 41.8895C249.861 42.3395 243.331 43.2195 238.711 43.1795C236.901 43.1995 236.871 45.9295 238.711 45.9595C247.731 45.7395 256.731 44.4695 265.601 42.8995C269.911 42.0395 274.141 40.8395 278.301 39.4295C279.941 38.8895 281.561 38.3095 283.151 37.6395C283.551 37.5295 283.891 37.2595 284.101 36.9095C284.631 36.0395 284.131 34.8195 283.151 34.5595Z" fill="black"/>
<path opacity="0.45" d="M197.801 325.699C189.671 315.919 182.221 305.999 175.721 294.259C171.551 286.819 167.901 279.099 164.411 271.319C164.011 270.369 164.241 270.989 163.901 270.049C163.801 269.689 163.561 269.389 163.251 269.199C162.211 268.549 160.791 269.619 161.161 270.809C165.691 282.139 171.181 293.139 177.661 303.479C183.361 312.489 190.041 320.829 196.931 328.949C197.331 329.429 197.751 329.999 198.431 329.969C199.171 329.989 199.821 329.329 199.811 328.589C199.661 327.399 198.431 326.669 197.791 325.709L197.801 325.699Z" fill="black"/>
<path opacity="0.45" d="M337.68 449.549C336.55 449.589 336.03 450.809 335.26 451.479C323.88 463.389 313.81 471.199 300.46 479.909C292.84 484.839 285 489.459 276.86 493.479C276.01 493.979 274.72 494.099 274.42 495.179C274.04 496.429 275.53 497.599 276.65 496.899C286.33 492.589 295.38 486.989 304.22 481.179C316.45 472.939 328.08 463.629 338.09 452.759C338.53 452.239 339.17 451.769 339.15 451.029C339.17 450.239 338.46 449.539 337.68 449.559V449.549Z" fill="black"/>
<path d="M207.11 511.8L140.81 860.93C57.6203 1070.14 14.5103 1191.39 -42.2498 1472.02C-44.0298 1480.82 -45.8298 1489.79 -47.6398 1498.92C-49.3298 1507.44 -51.8298 1515.79 -53.8998 1524.23C-167.81 1479.58 -269.35 1408.49 -355.26 1321.83C-274.91 1111.58 -291.46 1020.16 -202.32 741.31C-198.12 728.18 -193.68 714.62 -188.99 700.63C-164.9 628.73 -155.97 553.05 -125.07 484.21C-120.06 473.03 -111.54 463.79 -100.87 457.78C-32.7498 419.37 49.0302 406.75 107.26 356.18C119.14 327.8 125.39 296.2 126.63 264.4C140.41 254.58 155.58 248.19 171.4 244.67L164.2 316.26L195.75 420.65L207.12 511.8H207.11Z" fill="url(#paint30_linear_26486_110345)"/>
<path opacity="0.45" d="M325.93 385.71C324.19 384.81 323.27 387.15 322.22 388.12C320.17 390.47 318.1 392.8 315.98 395.08C305.56 406.11 295.05 418.38 283.34 426.15C274.08 432.57 262.31 438.84 253.26 442.47C251.22 443.23 251.29 443.18 249.37 443.97C248.87 444.21 248.24 444.34 247.92 444.84C246.81 446.17 248.52 448.15 250.02 447.23C263.23 442.87 280.93 432.89 291.82 423.85C302.96 414.54 312.39 403.39 322.21 392.75C323.44 391.35 324.66 389.94 325.89 388.53C326.27 388.1 326.72 387.66 326.69 387.04C326.69 386.5 326.39 386 325.93 385.72V385.71Z" fill="black"/>
<path d="M158.65 251C149.47 256.31 144.74 261.9 139.24 270.01C150.55 314.87 147.93 363.13 131.63 407.93C153.13 417.49 173.41 429.77 191.83 446.49C183.04 479.18 163.93 509.01 139.11 530.45C156.87 652.26 149.18 777.72 118.61 899.08C180.81 808.99 213.24 699.82 217.24 590.41C221.25 481 198.41 368.19 158.53 266.69C157.23 260.59 158.21 256.94 158.64 251H158.65Z" fill="url(#paint31_linear_26486_110345)"/>
</g>
<defs>
<linearGradient id="paint0_linear_26486_110345" x1="648.07" y1="421.548" x2="399.77" y2="595.558" gradientUnits="userSpaceOnUse">
<stop stop-color="#363636"/>
<stop offset="1" stop-color="#131313"/>
</linearGradient>
<linearGradient id="paint1_linear_26486_110345" x1="654.74" y1="337.518" x2="68.9" y2="735.918" gradientUnits="userSpaceOnUse">
<stop stop-color="#B8B8B8"/>
<stop offset="1" stop-color="#8C898C"/>
</linearGradient>
<linearGradient id="paint2_linear_26486_110345" x1="593.58" y1="429.69" x2="138.59" y2="739.11" gradientUnits="userSpaceOnUse">
<stop stop-color="#B8B8B8"/>
<stop offset="1" stop-color="#8C898C"/>
</linearGradient>
<linearGradient id="paint3_linear_26486_110345" x1="259.02" y1="471.298" x2="158.88" y2="208.538" gradientUnits="userSpaceOnUse">
<stop stop-color="#FFC493"/>
<stop offset="1" stop-color="#FFB073"/>
</linearGradient>
<linearGradient id="paint4_linear_26486_110345" x1="262.481" y1="379.15" x2="299.101" y2="283.05" gradientUnits="userSpaceOnUse">
<stop stop-color="#FFC493"/>
<stop offset="1" stop-color="#FFB073"/>
</linearGradient>
<linearGradient id="paint5_linear_26486_110345" x1="137.5" y1="680.539" x2="356.67" y2="561.949" gradientUnits="userSpaceOnUse">
<stop stop-color="#454347"/>
<stop offset="1" stop-color="#626163"/>
</linearGradient>
<linearGradient id="paint6_linear_26486_110345" x1="137.5" y1="680.539" x2="356.67" y2="561.949" gradientUnits="userSpaceOnUse">
<stop stop-color="#454347"/>
<stop offset="1" stop-color="#626163"/>
</linearGradient>
<linearGradient id="paint7_linear_26486_110345" x1="287.241" y1="409.369" x2="381.661" y2="466.179" gradientUnits="userSpaceOnUse">
<stop stop-color="#454347"/>
<stop offset="1" stop-color="#626163"/>
</linearGradient>
<linearGradient id="paint8_linear_26486_110345" x1="281.81" y1="417.379" x2="373.36" y2="472.459" gradientUnits="userSpaceOnUse">
<stop stop-color="#454347"/>
<stop offset="1" stop-color="#626163"/>
</linearGradient>
<linearGradient id="paint9_linear_26486_110345" x1="494.89" y1="343.07" x2="309.94" y2="219.77" gradientUnits="userSpaceOnUse">
<stop stop-color="#FFC493"/>
<stop offset="1" stop-color="#FFB073"/>
</linearGradient>
<linearGradient id="paint10_linear_26486_110345" x1="360.35" y1="340.31" x2="326.86" y2="271.43" gradientUnits="userSpaceOnUse">
<stop stop-color="#FFF4EF"/>
<stop offset="1" stop-color="#F6DFD7"/>
</linearGradient>
<linearGradient id="paint11_linear_26486_110345" x1="328.8" y1="350.119" x2="332.98" y2="296.469" gradientUnits="userSpaceOnUse">
<stop stop-color="#FFF4EF"/>
<stop offset="1" stop-color="#F6DFD7"/>
</linearGradient>
<linearGradient id="paint12_linear_26486_110345" x1="404.84" y1="250.239" x2="319.78" y2="201.149" gradientUnits="userSpaceOnUse">
<stop stop-color="#FF9762"/>
<stop offset="1" stop-color="#FFB073"/>
</linearGradient>
<linearGradient id="paint13_linear_26486_110345" x1="240.61" y1="195.529" x2="489.25" y2="234.409" gradientUnits="userSpaceOnUse">
<stop stop-color="#454347"/>
<stop offset="1" stop-color="#626163"/>
</linearGradient>
<linearGradient id="paint14_linear_26486_110345" x1="215.57" y1="238.878" x2="405.91" y2="268.638" gradientUnits="userSpaceOnUse">
<stop stop-color="#454347"/>
<stop offset="1" stop-color="#626163"/>
</linearGradient>
<linearGradient id="paint15_linear_26486_110345" x1="387.531" y1="177.549" x2="425.241" y2="183.439" gradientUnits="userSpaceOnUse">
<stop stop-color="#454347"/>
<stop offset="1" stop-color="#626163"/>
</linearGradient>
<linearGradient id="paint16_linear_26486_110345" x1="386.97" y1="165.47" x2="355.96" y2="152.08" gradientUnits="userSpaceOnUse">
<stop stop-color="#FFF4EF"/>
<stop offset="1" stop-color="#F6DFD7"/>
</linearGradient>
<linearGradient id="paint17_linear_26486_110345" x1="336.37" y1="202.47" x2="308.54" y2="188.37" gradientUnits="userSpaceOnUse">
<stop stop-color="#FFF4EF"/>
<stop offset="1" stop-color="#F6DFD7"/>
</linearGradient>
<linearGradient id="paint18_linear_26486_110345" x1="351.62" y1="124.668" x2="341.34" y2="122.388" gradientUnits="userSpaceOnUse">
<stop stop-color="#FFF4EF"/>
<stop offset="1" stop-color="#F6DFD7"/>
</linearGradient>
<linearGradient id="paint19_linear_26486_110345" x1="273.24" y1="168.579" x2="272.48" y2="160.209" gradientUnits="userSpaceOnUse">
<stop stop-color="#FFF4EF"/>
<stop offset="1" stop-color="#F6DFD7"/>
</linearGradient>
<linearGradient id="paint20_linear_26486_110345" x1="153.57" y1="315.489" x2="317.88" y2="414.339" gradientUnits="userSpaceOnUse">
<stop stop-color="#454347"/>
<stop offset="1" stop-color="#626163"/>
</linearGradient>
<linearGradient id="paint21_linear_26486_110345" x1="153.29" y1="315.319" x2="315.78" y2="413.079" gradientUnits="userSpaceOnUse">
<stop stop-color="#454347"/>
<stop offset="1" stop-color="#626163"/>
</linearGradient>
<linearGradient id="paint22_linear_26486_110345" x1="388.411" y1="163.349" x2="373.83" y2="158.489" gradientUnits="userSpaceOnUse">
<stop stop-color="#363636"/>
<stop offset="1" stop-color="#131313"/>
</linearGradient>
<linearGradient id="paint23_linear_26486_110345" x1="337.67" y1="197.859" x2="323.09" y2="192.999" gradientUnits="userSpaceOnUse">
<stop stop-color="#363636"/>
<stop offset="1" stop-color="#131313"/>
</linearGradient>
<linearGradient id="paint24_linear_26486_110345" x1="369.98" y1="159.33" x2="375.4" y2="149.34" gradientUnits="userSpaceOnUse">
<stop stop-color="#FFF4EF"/>
<stop offset="1" stop-color="#D7C2BB"/>
</linearGradient>
<linearGradient id="paint25_linear_26486_110345" x1="334.561" y1="191.87" x2="305.431" y2="191.87" gradientUnits="userSpaceOnUse">
<stop stop-color="#FFF4EF"/>
<stop offset="1" stop-color="#D7C2BB"/>
</linearGradient>
<linearGradient id="paint26_linear_26486_110345" x1="276.531" y1="68.4391" x2="67.5605" y2="397.019" gradientUnits="userSpaceOnUse">
<stop stop-color="#363636"/>
<stop offset="1" stop-color="#131313"/>
</linearGradient>
<linearGradient id="paint27_linear_26486_110345" x1="226.72" y1="109.09" x2="138.41" y2="247.96" gradientUnits="userSpaceOnUse">
<stop stop-color="#363636"/>
<stop offset="1" stop-color="#131313"/>
</linearGradient>
<linearGradient id="paint28_linear_26486_110345" x1="273.211" y1="73.6498" x2="69.1405" y2="394.52" gradientUnits="userSpaceOnUse">
<stop stop-color="#363636"/>
<stop offset="1" stop-color="#131313"/>
</linearGradient>
<linearGradient id="paint29_linear_26486_110345" x1="265.911" y1="22.0991" x2="234.831" y2="70.9791" gradientUnits="userSpaceOnUse">
<stop stop-color="#363636"/>
<stop offset="1" stop-color="#131313"/>
</linearGradient>
<linearGradient id="paint30_linear_26486_110345" x1="58.9002" y1="460.13" x2="-246.28" y2="1600.51" gradientUnits="userSpaceOnUse">
<stop stop-color="#363636"/>
<stop offset="1" stop-color="#131313"/>
</linearGradient>
<linearGradient id="paint31_linear_26486_110345" x1="417.01" y1="379.82" x2="159.01" y2="560.63" gradientUnits="userSpaceOnUse">
<stop stop-color="#363636"/>
<stop offset="1" stop-color="#131313"/>
</linearGradient>
<clipPath id="clip0_26486_110345">
<rect width="480" height="480" rx="8" fill="white"/>
</clipPath>
</defs>
</svg>
