<svg width="124" height="74" viewBox="0 0 124 74" fill="none" xmlns="http://www.w3.org/2000/svg">
<path d="M101.416 52.3242C103.844 54.282 106.075 56.486 107.934 59.0216C103.631 61.6149 99.924 65.191 97.217 69.7016C100.13 69.9508 102.988 70.8059 105.751 72.46C102.365 92.0741 96.5457 117.886 87.9077 136.154C90.2097 125.669 92.2952 108.57 89.786 97.8712C92.0273 90.5788 90.8358 82.3099 86.6289 75.9458C92.7391 71.6003 97.0769 64.8359 98.4786 57.4703C98.6469 56.5872 98.7808 55.676 99.2122 54.8879C99.6437 54.0998 100.455 53.4441 101.416 52.3258V52.3242Z" fill="url(#paint0_linear_28963_366591)"/>
<path d="M90.6465 99.8604C90.6418 99.9196 90.6387 99.9787 90.634 100.038C90.5172 101.58 90.3334 103.122 90.0702 104.686C90.0453 104.827 90.0204 104.971 89.997 105.112C89.8241 106.072 89.6232 107.044 89.3865 108.028C89.3117 108.34 89.2338 108.653 89.1528 108.969C89.117 109.112 89.0796 109.254 89.0407 109.399C88.6217 110.961 88.1171 112.562 87.5112 114.229C87.4629 114.359 87.4146 114.493 87.3648 114.626C86.896 115.892 86.368 117.194 85.7776 118.545C85.7216 118.674 85.664 118.802 85.6079 118.932C85.002 120.298 84.3323 121.711 83.5909 123.18C83.5286 123.303 83.4663 123.427 83.4024 123.552C82.6813 124.971 81.8947 126.444 81.0365 127.977C80.9664 128.106 80.8932 128.234 80.82 128.363C80.1145 129.616 79.3637 130.908 78.5632 132.246C78.4931 132.363 78.423 132.48 78.3513 132.598C77.7221 133.643 77.0632 134.718 76.3733 135.821C76.3 135.939 76.2253 136.057 76.1505 136.176C75.1771 137.726 74.1413 139.333 73.0417 141.004C71.5589 143.261 70.1104 145.418 68.6635 147.498C68.5825 147.613 68.503 147.73 68.422 147.845C67.6573 148.94 66.8941 150.011 66.1247 151.066C66.0468 151.172 65.9689 151.279 65.891 151.384C65.064 152.513 64.2291 153.62 63.3819 154.709C63.3009 154.813 63.2199 154.919 63.1373 155.022C62.2838 156.114 61.4178 157.189 60.53 158.246C60.4412 158.352 60.3524 158.459 60.2637 158.564C59.326 159.674 58.365 160.769 57.376 161.852C57.2841 161.953 57.1891 162.057 57.0956 162.159C56.9648 162.3 56.834 162.442 56.7016 162.584C55.982 163.355 55.2469 164.121 54.493 164.883C54.3918 164.986 54.289 165.088 54.1862 165.191C53.4868 165.892 52.7719 166.59 52.0383 167.283C51.9309 167.384 51.8234 167.485 51.7159 167.587C50.0774 169.125 48.347 170.65 46.5013 172.178C44.4874 172.329 42.5794 172.412 40.7602 172.421C26.1194 172.499 17.1854 167.954 4.14258 158.322C7.06451 137.911 13.2277 78.6732 21.1727 72.6253C37.4069 60.2663 47.9887 63.5636 65.5889 44.9682C67.8551 44.9604 67.866 43.6349 69.4017 41.9668C75.7284 45.3576 82.0956 49.0349 88.2495 52.7309C88.29 57.2229 88.4364 61.2958 88.6404 65.0308C88.8989 69.7283 89.2494 73.8916 89.592 77.6826C89.6076 77.8524 89.6232 78.0222 89.6372 78.1904C89.8163 80.1466 89.9923 82.0048 90.1512 83.785C90.1637 83.947 90.1792 84.1075 90.1933 84.2679C90.6948 89.9949 91.0063 94.9354 90.6481 99.8604H90.6465Z" fill="url(#paint1_linear_28963_366591)"/>
<path style="mix-blend-mode:multiply" opacity="0.15" d="M90.6452 99.8603C90.6405 99.9195 90.6374 99.9786 90.6327 100.038C90.5159 101.58 90.3321 103.122 90.0689 104.686C90.0439 104.827 90.019 104.971 89.9957 105.112C89.8228 106.072 89.6219 107.044 89.3851 108.028C82.0382 110.598 75.7816 116.001 71.1417 122.32C65.8336 129.547 62.3977 137.956 59.2157 146.342C57.8466 149.947 56.5024 153.629 56.2563 157.478C56.1473 159.179 56.2813 160.928 56.7018 162.584C55.9822 163.355 55.2471 164.121 54.4932 164.883C54.392 164.985 54.2892 165.088 54.1864 165.191C53.487 165.892 52.7721 166.59 52.0385 167.283C51.9311 167.384 51.8236 167.485 51.7161 167.587C50.0776 169.125 48.3472 170.65 46.5015 172.178C44.4876 172.329 42.5796 172.412 40.7604 172.421C40.6078 172.297 40.466 172.158 40.3321 172.005C38.9007 170.373 39.2668 167.893 39.734 165.774C45.7492 138.484 54.6972 111.458 54.8187 83.5139C54.8483 76.6561 54.5275 69.1722 58.6503 63.6928C62.2232 58.9454 68.6465 56.8443 74.534 57.6449C79.8857 58.3722 84.767 61.235 88.639 65.0307C88.8976 69.7282 89.248 73.8915 89.5907 77.6825C89.6063 77.8523 89.6219 78.0221 89.6359 78.1903C89.815 80.1466 89.991 82.0047 90.1498 83.7849C90.1623 83.9469 90.1779 84.1074 90.1919 84.2678C90.6934 89.9948 91.0049 94.9353 90.6467 99.8603H90.6452Z" fill="url(#paint2_linear_28963_366591)"/>
<path d="M51.2238 56.8241C51.6116 57.4253 52.0135 58.0172 52.4309 58.5997C56.8434 64.7816 66.0796 58.3396 72.8954 61.6961C79.7127 65.0526 83.9772 68.6785 91.5702 68.4091C90.1466 62.2319 89.0906 65.5183 88.5564 59.2305C88.371 57.0702 88.2635 54.9037 88.2449 52.7325C82.091 49.0349 75.7254 45.3576 69.3971 41.9668C67.863 43.6349 67.8521 44.9604 65.5843 44.9682C61.3057 49.4881 56.4665 53.4739 51.2207 56.8241H51.2238Z" fill="url(#paint3_linear_28963_366591)"/>
<path style="mix-blend-mode:multiply" d="M69.0996 47.2083C73.1601 52.3762 77.9542 56.9662 83.2919 60.7978C83.8199 61.1762 84.3775 61.5594 85.0192 61.6653C85.9708 61.8242 86.9381 61.332 87.5953 60.6264C88.2526 59.9209 88.6591 59.0222 89.0532 58.1422C89.4955 57.1562 89.9316 55.9834 89.3943 55.0458C88.9987 54.3574 88.1981 54.0318 87.4614 53.7343C82.728 51.8201 78.3311 49.0758 74.5307 45.6648C73.8735 45.0745 73.2115 44.4499 72.3844 44.1415C71.5574 43.8315 70.5076 43.9234 69.9469 44.6041C69.232 45.4716 69.6136 46.7628 69.0996 47.2083Z" fill="url(#paint4_linear_28963_366591)"/>
<path d="M94.0943 99.2345C94.0896 99.2672 94.0834 99.3 94.0787 99.3327C88.875 102.825 82.5794 104.524 76.3867 104.161C77.2682 103.376 77.9411 102.311 78.1389 101.158C76.3913 99.7548 75.1952 97.9169 74.5332 95.903C78.5423 90.6868 80.7852 84.3258 81.0671 77.8652C85.5076 77.387 88.7333 75.3295 90.8842 72.4512C91.6054 74.1847 92.2252 75.9572 92.7439 77.7608C94.7407 84.7074 95.2173 92.0917 94.0959 99.2345H94.0943Z" fill="url(#paint5_linear_28963_366591)"/>
<path style="mix-blend-mode:multiply" opacity="0.31" d="M94.0943 99.2345C94.0896 99.2672 94.0834 99.3 94.0787 99.3327C88.875 102.825 82.5794 104.524 76.3867 104.161C77.2682 103.376 77.9411 102.311 78.1389 101.158C76.3913 99.7548 75.1952 97.9169 74.5332 95.903C78.5423 90.6868 80.7852 84.3258 81.0671 77.8652C85.5076 77.387 88.7333 75.3295 90.8842 72.4512C91.6054 74.1847 92.2252 75.9572 92.7439 77.7608C88.9996 79.1688 85.4733 81.245 82.3006 84.0813C82.5156 88.5218 81.9222 93.0013 80.5173 97.3406C82.6044 99.4666 85.5652 100.71 88.5448 100.71C90.4808 100.71 92.409 100.185 94.0959 99.2361L94.0943 99.2345Z" fill="url(#paint6_linear_28963_366591)"/>
<path d="M99.3748 58.7467C99.029 62.4754 97.8437 66.1247 95.8921 69.313C95.2224 70.4079 94.4639 71.4453 93.6275 72.4172C93.3611 72.7271 93.087 73.0293 92.8051 73.3252C90.7024 75.5354 88.1823 77.3514 85.4099 78.6286C83.2823 79.8653 80.5784 80.0647 78.2001 79.2548C77.873 78.2205 77.9462 77.043 78.3901 76.0213C77.6004 76.0852 76.7002 75.6553 76.0024 75.0027C74.7735 73.0854 74.0897 70.6774 74.2548 68.4081C81.0582 65.955 86.3911 60.3073 89.7305 53.9697C90.5825 54.3544 91.5248 54.7345 92.5123 55.0553C94.7972 55.7983 97.3141 56.2344 99.4713 55.7313C99.5025 56.7375 99.4682 57.7452 99.3748 58.7467Z" fill="url(#paint7_linear_28963_366591)"/>
<path style="mix-blend-mode:multiply" opacity="0.24" d="M92.8031 73.3252C90.7004 75.5354 88.1804 77.3514 85.4079 78.6286C83.2804 79.8653 80.5765 80.0647 78.1981 79.2548C77.871 78.2205 77.9442 77.043 78.3881 76.0213C77.5985 76.0852 76.6982 75.6553 76.0004 75.0027C74.7715 73.0854 74.0878 70.6774 74.2529 68.4081C81.0562 65.955 86.3892 60.3073 89.7285 53.9697C90.5805 54.3544 91.5228 54.7345 92.5103 55.0553C89.3392 61.1655 84.3784 66.3911 78.1841 70.017C77.22 71.8362 77.5813 74.2644 79.2401 76.0478C81.483 77.7393 84.679 77.1957 87.2988 76.1817C89.2317 75.4357 91.0789 74.4731 92.8031 73.3237V73.3252Z" fill="url(#paint8_linear_28963_366591)"/>
<path d="M66.5918 43.1213C66.7211 43.2645 66.8519 43.4078 66.9859 43.5496C67.0591 43.629 67.1307 43.7053 67.2039 43.7801C67.4952 44.0916 67.7927 44.4 68.0933 44.7022C69.2972 45.9124 70.5698 47.0556 71.8999 48.1272C74.6614 50.3529 77.6737 52.2655 80.8619 53.8231C85.0003 55.8479 89.4299 57.2746 93.9795 58.0128C96.28 58.3851 98.8421 58.5299 100.733 57.1702C102.386 55.9818 103.138 53.9196 103.641 51.9462C105.639 44.1383 105.068 35.7385 102.241 28.2001C101.449 26.0834 100.478 24.0337 99.3374 22.0852C98.4013 20.4856 97.3484 18.9545 96.1865 17.506C88.9705 17.0419 80.6392 19.1508 75.2688 23.9932C69.9 28.834 66.8753 35.8974 66.5918 43.1213Z" fill="url(#paint9_linear_28963_366591)"/>
<path d="M80.4087 42.589C81.0442 43.3958 81.7108 44.1776 82.4086 44.9315C85.1358 47.8783 88.3412 50.4 91.9329 52.2067C92.3051 52.3936 92.7272 52.579 93.1275 52.4606C93.5807 52.3267 93.8377 51.8578 94.0387 51.4295C94.439 50.5838 94.819 49.7287 95.1835 48.8658C95.2255 48.7661 95.2691 48.6649 95.3096 48.5637C95.6507 47.7413 95.9762 46.9127 96.2862 46.0763C96.4996 45.5015 96.4264 45.1729 96.199 44.9844C95.7815 44.6433 94.847 44.7633 94.1788 44.6854C92.4453 44.4845 90.7196 44.201 89.0109 43.8397C86.0251 43.2042 83.1531 42.2603 80.2654 41.2822C79.0474 40.8694 80.1828 42.3008 80.4087 42.5874V42.589Z" fill="url(#paint10_linear_28963_366591)"/>
<path style="mix-blend-mode:multiply" d="M80.5501 42.0602C81.6216 42.8125 82.7306 43.5212 83.8692 44.1675C85.8488 45.2952 87.9094 46.292 90.0214 47.1424C91.0852 47.5723 92.1646 47.9617 93.2596 48.3012C93.8919 48.4975 94.5352 48.7 95.1831 48.8666C95.2252 48.7669 95.2688 48.6657 95.3093 48.5645C95.1473 48.5224 94.9853 48.4788 94.8233 48.4352C94.2143 48.267 93.61 48.0878 93.0072 47.8947C90.8127 47.1923 88.6446 46.3855 86.5699 45.3793C84.5078 44.3794 82.5188 43.2299 80.6046 41.9683C80.5454 41.9294 80.494 42.0228 80.5485 42.0602H80.5501Z" fill="url(#paint11_linear_28963_366591)"/>
<path d="M90.5143 38.8358C90.5081 38.7423 90.5143 38.6457 90.5205 38.5523C90.6732 36.3203 90.8258 34.0884 90.9784 31.8564C91.0454 30.8892 91.0143 29.9531 90.9208 28.9812C90.8725 28.475 90.8881 27.7196 90.6031 27.2726C90.466 27.0577 90.7355 26.8069 90.9457 26.93C91.8943 27.4845 92.7182 28.4252 93.5172 29.1775C94.4035 30.0123 95.2835 30.8503 96.1775 31.6773C97.9624 33.3283 99.8034 34.9326 101.353 36.8141C101.704 37.2393 101.663 38.0866 100.989 38.1956C98.3565 38.6224 95.6869 38.9152 93.0328 39.1504C92.6076 39.1878 90.832 39.5273 90.6062 39.1644C90.5439 39.0663 90.5205 38.9526 90.5127 38.8358H90.5143Z" fill="url(#paint12_linear_28963_366591)"/>
<path d="M100.735 24.6919C99.0076 26.8973 98.0108 27.6107 95.229 29.2508C94.8848 29.4548 94.4955 29.5498 94.131 29.4969C93.9083 29.4641 93.6949 29.3769 93.5033 29.2258C93.1264 28.9284 92.7432 28.6387 92.3554 28.3552C91.9022 28.025 91.2558 28.2913 91.1748 28.8458C91.0455 29.7461 90.857 30.5638 90.5969 31.6603C90.5627 31.802 90.5284 31.9484 90.491 32.1011C90.4069 32.4562 90.1889 32.7661 89.8805 32.9624C81.9947 37.9574 74.6665 41.5849 65.7434 43.2203C63.5005 40.5849 61.7078 37.7238 60.5957 34.6149C60.5957 34.6118 61.2623 34.3065 62.418 33.7785C69.7665 30.4283 97.1947 17.9727 97.1947 17.9727C98.5762 20.0364 99.6493 21.9413 100.425 23.8804C100.534 24.1514 100.635 24.4208 100.732 24.6934L100.735 24.6919Z" fill="url(#paint13_linear_28963_366591)"/>
<path style="mix-blend-mode:multiply" opacity="0.31" d="M85.0381 34.0327C86.957 33.4081 88.8182 32.6106 90.5969 31.6621C90.5627 31.8038 90.5284 31.9503 90.491 32.1029C90.4069 32.458 90.1889 32.768 89.8805 32.9642C81.9947 37.9592 74.6665 41.5867 65.7434 43.2221C63.5005 40.5868 61.7078 37.7256 60.5957 34.6168C60.5957 34.6136 61.2623 34.3084 62.418 33.7804C62.7654 33.8302 63.1096 33.9112 63.4522 34.0233C70.4051 36.2973 78.079 36.302 85.035 34.0358L85.0381 34.0327Z" fill="url(#paint14_linear_28963_366591)"/>
<path style="mix-blend-mode:multiply" opacity="0.31" d="M100.735 24.6919C99.0075 26.8974 98.0107 27.6108 95.2289 29.2508C94.8847 29.4549 94.4953 29.5499 94.1309 29.4969C96.4438 27.8849 98.5667 25.9956 100.428 23.8789C100.537 24.1499 100.638 24.4194 100.735 24.6919Z" fill="url(#paint15_linear_28963_366591)"/>
<path d="M92.278 24.2638C92.7873 24.8837 93.4119 25.4086 94.1097 25.8027C94.5676 26.0612 95.1579 26.259 95.5971 25.9709C95.9585 25.7326 96.0504 25.2685 96.0114 24.8199C96.0021 24.6891 95.9787 24.5567 95.9476 24.4321C95.6937 23.4041 94.9928 22.3091 94.1377 21.6674C93.3263 21.0569 91.9946 21.0911 91.641 22.1908C91.6379 22.197 91.6348 22.2048 91.6332 22.211C91.4136 22.9259 91.803 23.6844 92.278 24.2623V24.2638Z" fill="url(#paint16_linear_28963_366591)"/>
<path d="M83.6422 28.2205C83.6422 28.2953 83.6469 28.3669 83.6562 28.4386C83.7294 28.9728 84.0284 29.4479 84.3758 29.8622C84.8025 30.373 85.3072 30.8154 85.8679 31.1721C86.2292 31.4026 86.642 31.6019 87.0672 31.5521C87.5189 31.4976 87.8942 31.1518 88.0687 30.7282C88.1092 30.6285 88.1419 30.5257 88.159 30.4198C88.4191 28.9105 85.9193 26.0836 84.2543 27.0368C83.8509 27.2704 83.6422 27.7486 83.6406 28.219L83.6422 28.2205Z" fill="url(#paint17_linear_28963_366591)"/>
<path style="mix-blend-mode:lighten" opacity="0.73" d="M89.8428 20.9491C89.7789 21.1998 89.6824 21.4506 89.4783 21.5222C88.8974 21.7263 89.0516 20.6033 89.0594 20.3354C89.0765 19.728 89.1357 19.1205 89.2354 18.5209C89.3631 17.7546 89.5593 17.0007 89.8194 16.2687C89.9877 15.7936 90.2462 14.6566 90.9564 14.7844C91.4206 14.8685 91.986 15.3482 91.9081 15.8637C91.8769 16.0662 91.7757 16.25 91.6776 16.4307C91.2119 17.2889 90.8007 18.1751 90.4487 19.0847C90.268 19.5504 90.1029 20.0208 89.9518 20.4974C89.9144 20.6142 89.8864 20.7824 89.8428 20.9491Z" fill="url(#paint18_linear_28963_366591)"/>
<path style="mix-blend-mode:lighten" opacity="0.73" d="M76.7302 23.4711C75.9982 23.5458 75.2303 23.6766 74.5839 24.0473C74.2568 24.2358 73.0747 25.2747 73.883 25.5877C74.0964 25.6703 74.3363 25.6033 74.5559 25.5395C77.227 24.7576 80.0166 24.3853 82.7999 24.4383C83.0772 24.443 83.8388 24.3479 83.4712 23.904C83.384 23.7981 83.2547 23.7374 83.127 23.686C82.2766 23.348 81.2361 23.3402 80.3297 23.3231C79.1288 23.2997 77.9264 23.348 76.7302 23.4695V23.4711Z" fill="url(#paint19_linear_28963_366591)"/>
<path d="M86.9188 58.4716C86.3737 59.2161 85.7974 59.9403 85.19 60.6381C83.9471 62.071 82.5795 63.3918 81.0983 64.5584C80.9535 64.6737 80.8055 64.7874 80.6575 64.8964C78.7059 66.3714 76.5643 67.5738 74.2514 68.4071C70.8871 66.9508 67.5883 65.0475 64.2131 62.3218C63.2054 55.911 61.3862 49.6248 58.8707 43.4678C58.8443 42.2857 59.1464 41.0973 59.7367 40.0708C60.1012 40.0973 60.4579 40.2281 60.7632 40.44C60.4189 39.2235 60.5716 37.8732 61.45 36.6816C65.8173 42.538 70.9027 47.6965 76.3961 51.8894C79.7729 54.4687 83.3038 56.6835 86.9188 58.47V58.4716Z" fill="url(#paint20_linear_28963_366591)"/>
<path style="mix-blend-mode:multiply" opacity="0.26" d="M85.19 60.6381C83.9471 62.071 82.5795 63.3918 81.0983 64.5584C80.9535 64.6737 80.8055 64.7874 80.6575 64.8964C78.7059 66.3714 76.5643 67.5738 74.2514 68.4071C70.8871 66.9508 67.5883 65.0475 64.2131 62.3218C63.2054 55.911 61.3862 49.6248 58.8707 43.4678C58.8443 42.2857 59.1464 41.0973 59.7367 40.0708C60.1012 40.0973 60.4579 40.2281 60.7632 40.44C60.4189 39.2235 60.5716 37.8732 61.45 36.6816C65.8173 42.538 70.9027 47.6965 76.3961 51.8894C71.7079 49.1077 67.5431 45.4443 64.1975 41.1393C63.995 40.8776 63.7848 40.6066 63.492 40.4524C63.1991 40.2998 62.7957 40.3014 62.5777 40.549C62.3207 40.8387 62.4282 41.2873 62.5543 41.6533C63.1867 43.485 63.9499 45.273 64.8392 46.9987C64.0651 46.1141 63.2926 45.2278 62.52 44.3416C62.3238 44.1173 61.9656 43.8868 61.7693 44.1126C61.6634 44.2372 61.693 44.4257 61.7319 44.5846C63.2007 50.7026 65.8672 56.5994 69.9791 61.3623C71.1503 62.719 72.4836 64.0117 74.1548 64.6612C75.8245 65.3107 77.8992 65.1861 79.2604 64.0039C81.3538 63.1083 83.3474 61.9744 85.19 60.6365V60.6381Z" fill="url(#paint21_linear_28963_366591)"/>
<path d="M95.6281 24.5972C95.6141 24.6096 95.5985 24.6205 95.5813 24.6314C95.4349 24.7249 95.2418 24.7015 95.0783 24.6408C94.6468 24.4772 94.0409 23.7888 94.2746 23.2966C94.477 22.8683 95.0938 22.968 95.3835 23.2437C95.6732 23.5194 96.033 24.2732 95.6281 24.5987V24.5972Z" fill="url(#paint22_linear_28963_366591)"/>
<path d="M87.7257 29.9702C87.7117 29.9827 87.6961 29.9936 87.679 30.0045C87.5326 30.0979 87.3395 30.0746 87.1759 30.0138C86.7445 29.8503 86.1386 29.1619 86.3722 28.6697C86.5747 28.2414 87.1915 28.341 87.4812 28.6167C87.7709 28.8924 88.1307 29.6463 87.7257 29.9718V29.9702Z" fill="url(#paint23_linear_28963_366591)"/>
<path style="mix-blend-mode:multiply" d="M91.6402 22.1927C92.0265 21.9591 92.5171 21.8812 92.9673 21.9606C93.623 22.0759 94.2008 22.4731 94.679 22.9357C95.235 23.4746 95.6883 24.1178 96.0091 24.8218C95.9998 24.691 95.9764 24.5586 95.9453 24.434C95.6914 23.406 94.9905 22.3111 94.1354 21.6694C93.3239 21.0588 91.9922 21.0931 91.6387 22.1927H91.6402Z" fill="url(#paint24_linear_28963_366591)"/>
<path style="mix-blend-mode:multiply" d="M83.6426 28.2205C83.9151 27.8763 84.331 27.6458 84.7718 27.6162C85.2982 27.5835 85.8075 27.8218 86.2374 28.1255C87.1205 28.7501 87.7731 29.6893 88.0706 30.7282C88.1111 30.6285 88.1438 30.5257 88.161 30.4198C88.4211 28.9105 85.9212 26.0836 84.2562 27.0368C83.8528 27.2704 83.6441 27.7486 83.6426 28.219V28.2205Z" fill="url(#paint25_linear_28963_366591)"/>
<path opacity="0.45" d="M67.7402 55.2559C67.7521 55.2728 67.7606 55.2813 67.7402 55.2559V55.2559Z" fill="black"/>
<path opacity="0.45" d="M81.1002 64.5594C80.9553 64.6746 80.8074 64.7883 80.6594 64.8974C80.5021 64.8397 80.3464 64.7821 80.1922 64.7198C75.2953 62.709 70.6476 59.65 67.369 55.4462C67.2724 55.292 67.4328 55.0896 67.6041 55.141C67.6555 55.155 67.7007 55.1908 67.7288 55.2375C67.7319 55.2438 67.7365 55.25 67.7412 55.2547C67.7412 55.2547 67.7381 55.2515 67.7366 55.25C67.7412 55.2562 67.7443 55.2609 67.749 55.2671C67.7537 55.2734 67.7583 55.2796 67.763 55.2858C67.9655 55.5335 68.1727 55.778 68.386 56.0163C69.562 57.3651 71.0961 58.8199 72.3764 59.7637C74.6707 61.53 77.5116 63.1171 79.9881 64.1373C80.3557 64.2853 80.7264 64.427 81.1002 64.5594Z" fill="black"/>
<path opacity="0.45" d="M92.8841 60.1277C92.842 60.1308 92.7906 60.1791 92.7626 60.2103C92.7657 60.2072 92.7688 60.204 92.7719 60.1994C92.7673 60.2056 92.7641 60.2103 92.7595 60.2149C92.747 60.2274 92.7408 60.2368 92.7423 60.2352C92.6458 60.352 92.6723 60.3177 92.5383 60.4922C91.2066 62.3036 88.9871 64.2365 87.1025 65.5604C85.7521 66.5354 84.3254 67.3998 82.9159 68.2861C82.6853 68.4325 82.4564 68.5805 82.2274 68.7284C82.1776 68.758 82.1418 68.8047 82.1262 68.8608C82.0701 69.043 82.2882 69.2144 82.4517 69.1116C85.2381 67.4045 88.0666 65.713 90.4637 63.4671C91.2128 62.7709 91.9246 62.0326 92.5773 61.246C92.7642 61.0171 92.9604 60.771 93.0336 60.6682C93.0881 60.5794 93.1738 60.5 93.1862 60.3941C93.2205 60.2305 93.043 60.081 92.8856 60.1308L92.8841 60.1277Z" fill="black"/>
<path d="M106.045 7.52191C105.983 7.74931 105.902 7.97515 105.816 8.18853C99.2322 24.7171 68.4771 41.5618 43.2716 34.8146C42.8635 34.7056 41.7701 34.3972 40.8418 33.7835C39.9151 33.1683 39.2204 32.064 39.4245 30.969C39.521 30.4519 39.7905 30.0221 40.1596 29.6623C40.7748 29.0642 41.6657 28.6654 42.5037 28.3929C47.6077 26.731 53.0794 26.7357 58.3952 25.9896C58.4824 25.9771 58.5728 25.9647 58.66 25.9507C58.6803 25.7902 58.7005 25.6282 58.7208 25.4678C59.2566 21.2547 59.7908 17.0431 60.3266 12.83C60.5929 10.7289 60.9745 8.41282 62.6255 7.08424C63.9369 6.02823 65.7437 5.8678 67.4258 5.89428C68.1267 5.90674 68.8385 5.93945 69.5378 5.93945C70.2138 5.93633 70.8789 5.90207 71.5206 5.77747C71.8087 5.72295 72.0922 5.64819 72.3679 5.55162C74.8179 4.90681 75.877 1.67025 78.3255 1.02543C79.0061 0.846313 79.6914 0.896153 80.3611 1.08306C81.319 1.35251 82.2426 1.90388 83.0681 2.47705C86.7813 5.06256 89.9883 8.37232 92.4663 12.1587C95.6561 10.2227 98.7992 8.21189 101.911 6.2089C102.565 5.78681 103.248 5.35538 104.017 5.24323C104.788 5.12953 105.674 5.42546 106.008 6.12947C106.212 6.56246 106.173 7.04842 106.043 7.52346L106.045 7.52191Z" fill="url(#paint26_linear_28963_366591)"/>
<path style="mix-blend-mode:multiply" opacity="0.56" d="M80.7044 24.257C73.7469 27.2334 66.1134 28.6165 58.5547 28.2676C58.9394 27.3969 58.9301 26.4017 58.7214 25.4687C59.2571 21.2556 59.7914 17.044 60.3272 12.8309C60.5935 10.7298 60.9751 8.41371 62.6261 7.08514C63.9375 6.02913 65.7443 5.8687 67.4264 5.89518C68.1273 5.90764 68.8391 5.94035 69.5384 5.94035C68.5136 6.10701 67.5276 6.4263 66.6741 7.0057C65.3315 7.91375 64.4468 9.38406 63.9453 10.926C63.4438 12.468 63.2912 14.0972 63.1385 15.7123C62.9485 17.748 62.7896 19.9364 63.8223 21.701C64.6789 23.1651 66.238 24.0919 67.8469 24.6261C71.9947 26.0014 76.5115 25.1089 80.7059 24.2585L80.7044 24.257Z" fill="url(#paint27_linear_28963_366591)"/>
<path style="mix-blend-mode:multiply" d="M106.045 7.52148C105.983 7.74888 105.902 7.97473 105.816 8.18811C99.2322 24.7167 68.4771 41.5614 43.2716 34.8142C42.8635 34.7051 41.7701 34.3967 40.8418 33.7831C39.9151 33.1679 39.2204 32.0636 39.4245 30.9686C39.521 30.4515 39.7905 30.0216 40.1596 29.6618C40.2515 30.2771 40.5163 30.883 40.9041 31.3642C41.8013 32.4716 43.1875 33.0542 44.5487 33.4794C48.4286 34.6927 52.5482 34.9699 56.6119 34.8391C67.6953 34.4824 78.6665 31.0839 88.0117 25.1154C95.139 20.5627 101.307 14.5257 106.043 7.52148H106.045Z" fill="url(#paint28_linear_28963_366591)"/>
<path style="mix-blend-mode:multiply" opacity="0.4" d="M71.6975 5.77435C71.6383 5.77435 71.5807 5.77435 71.5215 5.77747C71.8096 5.72295 72.0931 5.64819 72.3688 5.55162C74.8188 4.90681 75.8779 1.67025 78.3264 1.02543C79.007 0.846313 79.6923 0.896153 80.3621 1.08306C80.6019 1.40702 80.7561 1.79952 80.7841 2.19981C80.8527 3.14835 80.3216 4.07197 79.5724 4.6576C78.8232 5.24323 77.8793 5.52982 76.9386 5.67467C75.2097 5.93945 73.4466 5.76189 71.6975 5.77591V5.77435Z" fill="url(#paint29_linear_28963_366591)"/>
<path d="M58.6208 26.5688C58.3997 27.3725 58.2797 28.1995 58.0866 29.0094C58.0227 29.2119 58.2657 29.3973 58.4448 29.2851C58.624 29.159 58.5819 28.8957 58.6411 28.7057C58.7688 28.0002 58.9806 27.3008 59.1161 26.6031C59.0928 26.3336 58.6863 26.3087 58.6208 26.5688Z" fill="black"/>
<path d="M94.2951 14.3273C94.2375 14.1778 94.1067 14.0672 94.007 13.9426C93.7204 13.5906 93.4276 13.2417 93.1301 12.8991C93.0024 12.776 92.9089 12.5626 92.708 12.5626C92.4681 12.5549 92.3373 12.8741 92.5118 13.0377C92.8108 13.3648 93.465 14.1638 93.5724 14.2899C93.7002 14.4364 93.7967 14.684 94.0195 14.6871C94.2032 14.6918 94.3434 14.5018 94.2936 14.3273H94.2951Z" fill="black"/>
<path d="M81.7681 23.643C81.5937 23.3735 81.3055 23.6165 81.0937 23.7022C80.6965 23.8906 80.2947 24.0698 79.8913 24.2426C76.9849 25.5136 73.3107 26.607 69.9542 27.1677C67.6273 27.5618 65.5464 27.825 63.1384 27.9838C62.4967 28.0368 61.8441 28.0337 61.2071 28.1022C60.9953 28.1785 61.0591 28.5259 61.2912 28.5165C65.0402 28.448 68.7814 27.9574 72.4463 27.1755C75.2452 26.5571 77.9537 25.5946 80.5875 24.4716C80.9161 24.3299 81.2448 24.1881 81.5719 24.0433C81.7432 23.9966 81.8725 23.8143 81.7681 23.643Z" fill="black"/>
<path d="M92.7717 16.2009C92.6315 16.2009 92.5427 16.3162 92.4446 16.4018C91.0553 17.6697 89.5943 18.6572 87.9029 19.6649C87.0509 20.1726 86.1802 20.6508 85.2815 21.0698C84.9311 21.1741 85.1195 21.6788 85.4513 21.5137C88.11 20.3035 90.9198 18.3612 92.9617 16.6573C93.1299 16.5 93.0038 16.1916 92.7717 16.1994V16.2009Z" fill="black"/>
<path d="M80.172 4.28485C80.0147 4.24902 79.8729 4.37051 79.725 4.41101C78.6596 4.88761 76.8778 5.26454 75.4885 5.42652C74.987 5.49661 73.9699 5.63367 73.2503 5.62744C72.9684 5.63056 72.9637 6.05576 73.2503 6.06044C74.6552 6.02617 76.057 5.82836 77.4385 5.58383C78.1098 5.44988 78.7687 5.26298 79.4166 5.04336C79.672 4.95926 79.9243 4.86892 80.172 4.76457C80.2343 4.74743 80.2872 4.70538 80.32 4.65087C80.4025 4.51536 80.3246 4.32534 80.172 4.28485Z" fill="black"/>
<path opacity="0.45" d="M66.8783 49.6315C65.612 48.1082 64.4516 46.5632 63.4392 44.7346C62.7897 43.5758 62.2212 42.3734 61.6777 41.1616C61.6154 41.0137 61.6512 41.1102 61.5982 40.9638C61.5826 40.9077 61.5453 40.861 61.497 40.8314C61.335 40.7302 61.1138 40.8968 61.1715 41.0822C61.877 42.8469 62.7321 44.5602 63.7414 46.1707C64.6292 47.574 65.6696 48.873 66.7428 50.1377C66.8051 50.2125 66.8705 50.3012 66.9764 50.2966C67.0917 50.2997 67.1929 50.1969 67.1913 50.0816C67.168 49.8963 66.9764 49.7826 66.8767 49.6331L66.8783 49.6315Z" fill="black"/>
<path opacity="0.45" d="M88.6671 68.9209C88.4911 68.9271 88.4101 69.1171 88.2901 69.2215C86.5177 71.0765 84.9492 72.293 82.8699 73.6496C81.6831 74.4174 80.462 75.137 79.1941 75.7631C79.0618 75.841 78.8608 75.8597 78.8141 76.0279C78.7549 76.2226 78.987 76.4049 79.1614 76.2958C80.6691 75.6245 82.0787 74.7523 83.4556 73.8474C85.3604 72.564 87.1718 71.1139 88.7309 69.4209C88.7995 69.3399 88.8991 69.2667 88.896 69.1514C88.8991 69.0284 88.7886 68.9193 88.6671 68.9225V68.9209Z" fill="black"/>
<path d="M68.3294 78.6172L58.0029 132.995C45.0458 165.581 38.3312 184.466 29.4907 228.175C29.2134 229.545 28.9331 230.943 28.6512 232.365C28.3879 233.692 27.9986 234.992 27.6761 236.307C9.93427 229.352 -5.88094 218.28 -19.2617 204.782C-6.74693 172.035 -9.32465 157.796 4.55922 114.364C5.21338 112.319 5.90493 110.207 6.63541 108.028C10.3875 96.8294 11.7784 85.042 16.5912 74.3199C17.3715 72.5786 18.6985 71.1394 20.3604 70.2034C30.9703 64.2209 43.7079 62.2553 52.7774 54.3788C54.6277 49.9585 55.6012 45.0367 55.7943 40.0838C57.9406 38.5543 60.3034 37.559 62.7674 37.0107L61.646 48.1611L66.56 64.4202L68.3309 78.6172H68.3294Z" fill="url(#paint30_linear_28963_366591)"/>
<path opacity="0.45" d="M86.8366 58.9778C86.5655 58.8376 86.4222 59.2021 86.2587 59.3531C85.9394 59.7192 85.617 60.0821 85.2868 60.4372C83.6638 62.1551 82.0269 64.0662 80.203 65.2764C78.7607 66.2764 76.9275 67.2529 75.5179 67.8183C75.2002 67.9367 75.2111 67.9289 74.9121 68.052C74.8342 68.0893 74.7361 68.1096 74.6862 68.1875C74.5133 68.3946 74.7797 68.703 75.0133 68.5597C77.0708 67.8806 79.8276 66.3262 81.5238 64.9182C83.2589 63.4681 84.7276 61.7315 86.2571 60.0743C86.4487 59.8562 86.6387 59.6366 86.8303 59.417C86.8895 59.35 86.9596 59.2815 86.9549 59.1849C86.9549 59.1008 86.9082 59.0229 86.8366 58.9793V58.9778Z" fill="black"/>
<path d="M60.7813 37.9961C59.3515 38.8231 58.6148 39.6938 57.7581 40.957C59.5197 47.9441 59.1116 55.4607 56.5728 62.4385C59.9215 63.9275 63.0802 65.8401 65.9492 68.4443C64.5801 73.5359 61.6037 78.182 57.7379 81.5214C60.504 100.494 59.3063 120.035 54.5449 138.937C64.2328 124.905 69.2839 107.901 69.9069 90.8604C70.5315 73.8194 66.9741 56.2488 60.7626 40.4399C60.5601 39.4898 60.7128 38.9213 60.7797 37.9961H60.7813Z" fill="url(#paint31_linear_28963_366591)"/>
<defs>
<linearGradient id="paint0_linear_28963_366591" x1="137.012" y1="64.5602" x2="98.3385" y2="91.6629" gradientUnits="userSpaceOnUse">
<stop stop-color="#363636"/>
<stop offset="1" stop-color="#131313"/>
</linearGradient>
<linearGradient id="paint1_linear_28963_366591" x1="138.05" y1="51.4724" x2="46.8035" y2="113.525" gradientUnits="userSpaceOnUse">
<stop stop-color="#B8B8B8"/>
<stop offset="1" stop-color="#8C898C"/>
</linearGradient>
<linearGradient id="paint2_linear_28963_366591" x1="128.523" y1="65.8281" x2="57.6566" y2="114.021" gradientUnits="userSpaceOnUse">
<stop stop-color="#B8B8B8"/>
<stop offset="1" stop-color="#8C898C"/>
</linearGradient>
<linearGradient id="paint3_linear_28963_366591" x1="76.4154" y1="72.3091" x2="60.8182" y2="31.3834" gradientUnits="userSpaceOnUse">
<stop stop-color="#FFC493"/>
<stop offset="1" stop-color="#FFB073"/>
</linearGradient>
<linearGradient id="paint4_linear_28963_366591" x1="76.9543" y1="57.9568" x2="82.6579" y2="42.9889" gradientUnits="userSpaceOnUse">
<stop stop-color="#FFC493"/>
<stop offset="1" stop-color="#FFB073"/>
</linearGradient>
<linearGradient id="paint5_linear_28963_366591" x1="57.4875" y1="104.899" x2="91.624" y2="86.4285" gradientUnits="userSpaceOnUse">
<stop stop-color="#454347"/>
<stop offset="1" stop-color="#626163"/>
</linearGradient>
<linearGradient id="paint6_linear_28963_366591" x1="57.4875" y1="104.899" x2="91.624" y2="86.4285" gradientUnits="userSpaceOnUse">
<stop stop-color="#454347"/>
<stop offset="1" stop-color="#626163"/>
</linearGradient>
<linearGradient id="paint7_linear_28963_366591" x1="80.8105" y1="62.6639" x2="95.5167" y2="71.5122" gradientUnits="userSpaceOnUse">
<stop stop-color="#454347"/>
<stop offset="1" stop-color="#626163"/>
</linearGradient>
<linearGradient id="paint8_linear_28963_366591" x1="79.9644" y1="63.9115" x2="94.2236" y2="72.4904" gradientUnits="userSpaceOnUse">
<stop stop-color="#454347"/>
<stop offset="1" stop-color="#626163"/>
</linearGradient>
<linearGradient id="paint9_linear_28963_366591" x1="113.151" y1="52.3372" x2="84.3446" y2="33.1328" gradientUnits="userSpaceOnUse">
<stop stop-color="#FFC493"/>
<stop offset="1" stop-color="#FFB073"/>
</linearGradient>
<linearGradient id="paint10_linear_28963_366591" x1="92.1961" y1="51.9077" x2="86.9799" y2="41.1794" gradientUnits="userSpaceOnUse">
<stop stop-color="#FFF4EF"/>
<stop offset="1" stop-color="#F6DFD7"/>
</linearGradient>
<linearGradient id="paint11_linear_28963_366591" x1="87.2817" y1="53.4349" x2="87.9328" y2="45.0787" gradientUnits="userSpaceOnUse">
<stop stop-color="#FFF4EF"/>
<stop offset="1" stop-color="#F6DFD7"/>
</linearGradient>
<linearGradient id="paint12_linear_28963_366591" x1="99.1259" y1="37.8779" x2="85.8775" y2="30.2319" gradientUnits="userSpaceOnUse">
<stop stop-color="#FF9762"/>
<stop offset="1" stop-color="#FFB073"/>
</linearGradient>
<linearGradient id="paint13_linear_28963_366591" x1="73.5466" y1="29.3567" x2="112.273" y2="35.4124" gradientUnits="userSpaceOnUse">
<stop stop-color="#454347"/>
<stop offset="1" stop-color="#626163"/>
</linearGradient>
<linearGradient id="paint14_linear_28963_366591" x1="69.6465" y1="36.1089" x2="99.2927" y2="40.7441" gradientUnits="userSpaceOnUse">
<stop stop-color="#454347"/>
<stop offset="1" stop-color="#626163"/>
</linearGradient>
<linearGradient id="paint15_linear_28963_366591" x1="96.4298" y1="26.5563" x2="102.303" y2="27.4737" gradientUnits="userSpaceOnUse">
<stop stop-color="#454347"/>
<stop offset="1" stop-color="#626163"/>
</linearGradient>
<linearGradient id="paint16_linear_28963_366591" x1="96.3432" y1="24.675" x2="91.5133" y2="22.5895" gradientUnits="userSpaceOnUse">
<stop stop-color="#FFF4EF"/>
<stop offset="1" stop-color="#F6DFD7"/>
</linearGradient>
<linearGradient id="paint17_linear_28963_366591" x1="88.4612" y1="30.4385" x2="84.1266" y2="28.2423" gradientUnits="userSpaceOnUse">
<stop stop-color="#FFF4EF"/>
<stop offset="1" stop-color="#F6DFD7"/>
</linearGradient>
<linearGradient id="paint18_linear_28963_366591" x1="90.8365" y1="18.32" x2="89.2354" y2="17.9648" gradientUnits="userSpaceOnUse">
<stop stop-color="#FFF4EF"/>
<stop offset="1" stop-color="#F6DFD7"/>
</linearGradient>
<linearGradient id="paint19_linear_28963_366591" x1="78.6288" y1="25.1594" x2="78.5105" y2="23.8558" gradientUnits="userSpaceOnUse">
<stop stop-color="#FFF4EF"/>
<stop offset="1" stop-color="#F6DFD7"/>
</linearGradient>
<linearGradient id="paint20_linear_28963_366591" x1="59.9891" y1="48.0407" x2="85.5809" y2="63.437" gradientUnits="userSpaceOnUse">
<stop stop-color="#454347"/>
<stop offset="1" stop-color="#626163"/>
</linearGradient>
<linearGradient id="paint21_linear_28963_366591" x1="59.9454" y1="48.0143" x2="85.2538" y2="63.2407" gradientUnits="userSpaceOnUse">
<stop stop-color="#454347"/>
<stop offset="1" stop-color="#626163"/>
</linearGradient>
<linearGradient id="paint22_linear_28963_366591" x1="96.5657" y1="24.3449" x2="94.2948" y2="23.5879" gradientUnits="userSpaceOnUse">
<stop stop-color="#363636"/>
<stop offset="1" stop-color="#131313"/>
</linearGradient>
<linearGradient id="paint23_linear_28963_366591" x1="88.6634" y1="29.7195" x2="86.3925" y2="28.9625" gradientUnits="userSpaceOnUse">
<stop stop-color="#363636"/>
<stop offset="1" stop-color="#131313"/>
</linearGradient>
<linearGradient id="paint24_linear_28963_366591" x1="93.6962" y1="23.7191" x2="94.5404" y2="22.1631" gradientUnits="userSpaceOnUse">
<stop stop-color="#FFF4EF"/>
<stop offset="1" stop-color="#D7C2BB"/>
</linearGradient>
<linearGradient id="paint25_linear_28963_366591" x1="88.1797" y1="28.7875" x2="83.6426" y2="28.7875" gradientUnits="userSpaceOnUse">
<stop stop-color="#FFF4EF"/>
<stop offset="1" stop-color="#D7C2BB"/>
</linearGradient>
<linearGradient id="paint26_linear_28963_366591" x1="79.1416" y1="9.56228" x2="46.5938" y2="60.7398" gradientUnits="userSpaceOnUse">
<stop stop-color="#363636"/>
<stop offset="1" stop-color="#131313"/>
</linearGradient>
<linearGradient id="paint27_linear_28963_366591" x1="71.3825" y1="15.893" x2="57.6279" y2="37.5225" gradientUnits="userSpaceOnUse">
<stop stop-color="#363636"/>
<stop offset="1" stop-color="#131313"/>
</linearGradient>
<linearGradient id="paint28_linear_28963_366591" x1="78.6245" y1="10.3733" x2="46.8399" y2="60.35" gradientUnits="userSpaceOnUse">
<stop stop-color="#363636"/>
<stop offset="1" stop-color="#131313"/>
</linearGradient>
<linearGradient id="paint29_linear_28963_366591" x1="77.4884" y1="2.34466" x2="72.6476" y2="9.95789" gradientUnits="userSpaceOnUse">
<stop stop-color="#363636"/>
<stop offset="1" stop-color="#131313"/>
</linearGradient>
<linearGradient id="paint30_linear_28963_366591" x1="45.2451" y1="70.5694" x2="-2.28771" y2="248.188" gradientUnits="userSpaceOnUse">
<stop stop-color="#363636"/>
<stop offset="1" stop-color="#131313"/>
</linearGradient>
<linearGradient id="paint31_linear_28963_366591" x1="101.022" y1="58.0603" x2="60.8374" y2="86.222" gradientUnits="userSpaceOnUse">
<stop stop-color="#363636"/>
<stop offset="1" stop-color="#131313"/>
</linearGradient>
</defs>
</svg>
