<svg width="480" height="480" viewBox="0 0 480 480" fill="none" xmlns="http://www.w3.org/2000/svg">
<g clip-path="url(#clip0_26486_107562)">
<rect width="480" height="480" rx="8" fill="white"/>
<path d="M350.39 533.13C350.23 536.39 350.01 539.67 349.75 542.98C347.24 575.07 340.54 609.12 330.8 643.92C324.64 665.95 317.26 688.29 308.95 710.64C307.23 713.21 305.51 715.76 303.79 718.31C299.53 724.63 295.27 730.98 291.02 737.34C274.63 761.89 258.31 786.61 241.79 811.18C240.59 812.96 239.39 814.74 238.19 816.52C229.26 829.77 220.26 842.99 211.12 856.08C203.4 867.18 195.6 878.2 187.67 889.12C169.53 914.12 150.8 938.59 131.1 962.16C122.5 972.46 113.73 982.57 104.74 992.49C100.27 997.43 95.7301 1002.32 91.1501 1007.16C74.4102 1024.81 56.9301 1041.75 38.5302 1057.77C36.7701 1059.31 34.9901 1060.83 33.2201 1062.35C30.6401 1064.56 28.0401 1066.74 25.4201 1068.91C7.09012 1070.29 -11.3199 1070.55 -29.6999 1069.7H-29.7198C-128.01 1065.21 -225.28 1029.62 -304.38 971.16C-303.07 962.05 -301.72 952.94 -300.29 943.83C-294.31 905.47 -287.29 867.2 -279.28 829.09C-275.5 811.14 -271.52 793.23 -267.3 775.36C-265.19 766.44 -263.04 757.51 -260.82 748.6C-257.03 733.3 -253.07 718.05 -248.96 702.84C-245.44 689.78 -241.8 676.75 -238.03 663.76C-230.47 637.56 -222.44 611.51 -213.98 585.64C-204.69 557.29 -194.87 529.14 -184.55 501.25C-184.43 500.94 -184.32 500.61 -184.19 500.3C-172.52 468.86 -159 436.08 -132.3 415.79C-127.18 411.89 -121.73 408.58 -116.04 405.7C-96.9499 396 -75.2199 391.13 -54.4399 385.13C-44.6599 382.31 -34.9699 379.18 -25.3899 375.75C9.33011 363.31 42.6201 346.92 73.6901 327.06C107.28 305.6 138.28 280.08 165.69 251.12C180.21 251.07 180.28 242.58 190.11 231.9C230.63 253.62 271.41 277.17 310.83 300.85C311.31 355.27 320.57 409.1 332.84 462.24C333.6 465.54 334.37 468.84 335.16 472.14C338.6 486.65 342.24 501.11 345.96 515.52C347.47 521.37 348.99 527.24 350.43 533.13H350.39Z" fill="url(#paint0_linear_26486_107562)"/>
<path style="mix-blend-mode:multiply" opacity="0.22" d="M6.60059 943.611C-2.64941 968.561 -6.50937 996.501 1.76062 1021.8C7.16061 1038.34 18.5506 1053.34 33.2006 1062.36C30.6206 1064.57 28.0206 1066.75 25.4006 1068.92C7.07065 1070.3 -11.3394 1070.56 -29.7194 1069.71H-29.7394C-128.029 1065.22 -225.299 1029.63 -304.399 971.171C-303.089 962.061 -301.739 952.951 -300.309 943.841C-294.329 905.481 -287.309 867.211 -279.299 829.101C-275.519 811.151 -271.539 793.241 -267.319 775.371C-265.209 766.451 -263.059 757.521 -260.839 748.611C-257.049 733.311 -253.089 718.061 -248.979 702.851L-36.7194 500.971L171.751 471.381C158.541 612.371 114.461 750.391 43.5306 872.951C30.2007 895.991 15.8506 918.661 6.60059 943.611Z" fill="url(#paint1_linear_26486_107562)"/>
<path d="M332.8 462.25C317.13 462.81 301.41 462.11 285.85 460.17C274.78 458.81 263.79 456.82 252.95 454.22C231.72 449.14 211.04 441.74 191.45 432.09C147.79 410.59 109.66 378.03 81.4002 338.43C78.7202 334.71 76.1402 330.91 73.6602 327.06C88.7402 317.43 103.29 306.97 117.24 295.76C134.36 281.99 150.55 267.08 165.66 251.12C168.41 251.12 170.64 250.8 172.52 250.23C180.56 247.77 182.12 240.55 190.08 231.9C230.6 253.62 271.38 277.17 310.8 300.85C310.92 314.76 311.6 328.63 312.79 342.47C316.22 382.74 323.69 422.68 332.81 462.24L332.8 462.25Z" fill="url(#paint2_linear_26486_107562)"/>
<path d="M76.1603 323.07C117.7 390.87 188.49 436.93 265.64 453.44C277.15 455.9 288.79 457.65 300.52 458.64C312.59 459.66 324.68 459.16 336.73 459.95C339.38 460.12 340.39 464.45 337.4 464.92C316.69 468.21 294.07 465.51 273.48 462.36C251.93 459.06 230.93 453.28 210.72 445.08C173.49 429.98 139.84 407.01 111.73 378.33C96.1803 362.48 82.6703 344.94 70.7003 326.26C68.5003 322.83 74.0303 319.59 76.1603 323.07Z" fill="url(#paint3_linear_26486_107562)"/>
<path d="M350.391 533.13C350.23 536.39 350.01 539.67 349.75 542.98C347.24 575.07 340.541 609.12 330.801 643.92C324.641 665.95 317.26 688.29 308.95 710.64C269.08 817.91 207.871 925.42 157.661 1000.23C117.391 1060.2 84.2005 1099.16 74.7005 1100.13C72.1105 1100.39 69.5005 1099.92 66.9405 1098.88C65.6605 1098.36 64.4005 1097.7 63.1505 1096.92C63.1505 1096.92 63.1505 1096.92 63.1405 1096.92C50.2705 1088.84 39.4305 1067.98 38.5205 1057.8C73.7405 1012.26 107.1 968.03 137.26 920.32C146.4 902.05 155.29 883.67 163.94 865.18C166.02 860.73 168.09 856.28 170.141 851.81C202.87 780.69 232.04 707.98 257.69 634.02C268.11 603.99 277.95 573.76 287.21 543.35C292.3 526.68 297.2 509.95 301.94 493.17C301.94 493.17 321.94 480.84 335.12 472.14C340.5 468.6 344.751 465.65 346.031 464.4C347.701 472.59 348.91 481.03 349.71 489.7C350.98 503.63 351.171 518.15 350.401 533.13H350.391Z" fill="url(#paint4_linear_26486_107562)"/>
<path style="mix-blend-mode:multiply" opacity="0.18" d="M165.081 910.721C157.221 931.731 149.231 953.561 150.871 975.921C151.481 984.251 153.821 992.691 157.651 1000.22C117.381 1060.19 84.1907 1099.15 74.6907 1100.12C72.1007 1100.38 69.4907 1099.91 66.9307 1098.87C65.6507 1098.35 64.3907 1097.69 63.1407 1096.91C63.1407 1096.91 63.1407 1096.91 63.1307 1096.91C50.2607 1088.83 39.4207 1067.97 38.5107 1057.79C73.7307 1012.25 107.091 968.021 137.251 920.311C146.391 902.041 155.281 883.661 163.931 865.171C166.011 860.721 168.081 856.271 170.131 851.801C202.861 780.681 232.031 707.971 257.681 634.011C268.101 603.981 277.941 573.751 287.201 543.341C292.291 526.671 297.191 509.941 301.931 493.161C301.931 493.161 321.931 480.831 335.111 472.131C340.491 468.591 344.741 465.641 346.021 464.391C347.691 472.581 348.901 481.021 349.701 489.691C272.991 622.471 218.841 767.011 165.081 910.711V910.721Z" fill="url(#paint5_linear_26486_107562)"/>
<path style="mix-blend-mode:multiply" opacity="0.32" d="M349.751 542.98C347.241 575.07 340.541 609.12 330.801 643.92C306.221 642.38 281.791 639.03 257.691 634.02C201.481 622.34 147.011 601.68 96.4007 573.98C16.8207 530.43 -53.4093 471.43 -116.069 405.7C-96.9793 396 -75.2493 391.13 -54.4693 385.13C-44.6893 382.31 -34.9993 379.18 -25.4193 375.75C18.1907 432.74 76.2407 478.63 141.881 507.68C187.731 527.97 237.191 540 287.211 543.35C308.031 544.74 328.951 544.62 349.751 542.97V542.98Z" fill="url(#paint6_linear_26486_107562)"/>
<path d="M173.87 458.37C164.71 604.75 22.4504 911.23 -109.05 1042.73C-180.17 1016.05 -255.77 971.57 -304.85 919.51C-280.22 805.53 -255.92 688.69 -217.74 577.64C-209.89 554.78 -201.76 532 -193.34 509.33C-180.39 474.43 -165.54 438.05 -136.25 415.09C-115.19 398.58 -88.8097 390.77 -63.2797 382.79C-6.55966 365.06 62.5704 330.55 112.58 293.92C112.44 344.45 159.58 415.3 173.87 458.37Z" fill="url(#paint7_linear_26486_107562)"/>
<path d="M346.021 464.41C346.041 464.2 346.07 463.991 346.09 463.771C346.57 463.701 346.511 463.92 346.021 464.41Z" fill="url(#paint8_linear_26486_107562)"/>
<path style="mix-blend-mode:multiply" opacity="0.53" d="M-75.94 468.91C-56.47 465.81 -36.71 476.74 -24.77 492.43C-12.83 508.12 -7.52003 527.86 -4.46003 547.34C3.35997 597.17 -2.08 649.02 -21.06 696.18C-17.49 701.79 -17.84 709.21 -20.33 715.37C-22.82 721.54 -27.17 726.74 -31.76 730.56C-26.66 733.03 -24.47 740.12 -28.82 744.98C5.50999 756.37 39.14 770.35 69.95 789.31C22.95 786.08 -23.95 781.41 -70.66 775.31C-51.85 698.13 -40.47 616.17 -62.73 539.92C-68.86 518.93 -77.49 496.56 -75.94 468.91Z" fill="url(#paint9_linear_26486_107562)"/>
<path d="M146.74 807.13C141.06 832.67 132.52 871.09 128.03 891.31C126.47 898.32 125.41 903.14 125.11 904.47C18.1901 901.09 -94.7499 881.61 -196.89 851.14C-202.47 844.21 -204.35 836.26 -202.74 829.01C-203.32 824.92 -204.6 821.46 -205.7 818.02C-206.8 814.57 -207.77 810.95 -207.23 807.37C-206.7 803.8 -204.31 800.27 -200.78 799.45C-214.01 714.04 -195.39 630.59 -171.16 551.22C-163.05 524.67 -153.11 496.61 -131.85 479.17C-130.67 478.2 -129.46 477.26 -128.21 476.36C-113.47 465.74 -94.5599 461.16 -76.5599 463.6C-58.5499 466.03 -41.6199 475.37 -29.7499 489.14C-14.1499 507.22 -7.7999 531.63 -6.0399 555.45C-2.4399 604.38 -16.1399 652.73 -29.9499 700.5C-26.5699 701.71 -25.0499 705.9 -25.6899 709.44C-26.3299 712.97 -28.5799 715.97 -30.8099 718.78C-35.7399 724.99 -40.9299 731 -46.2499 737.96C-44.2499 737.46 -42.03 736.98 -40.2099 737.96C-37.9099 739.22 -37.34 742.46 -38.2699 744.93C-39.1899 747.39 -41.2199 749.26 -43.9299 751.59C18.8801 764.5 87.6101 784.19 146.76 807.13H146.74Z" fill="url(#paint10_linear_26486_107562)"/>
<path style="mix-blend-mode:multiply" opacity="0.56" d="M128.03 891.31C126.47 898.32 125.41 903.14 125.11 904.47C18.1901 901.09 -94.7499 881.61 -196.89 851.14C-202.47 844.21 -204.35 836.26 -202.74 829.01C-203.32 824.92 -204.6 821.46 -205.7 818.02C-206.8 814.57 -207.77 810.95 -207.23 807.37C-206.7 803.8 -204.31 800.27 -200.78 799.45C-214.01 714.04 -195.39 630.59 -171.16 551.22C-163.05 524.67 -153.11 496.61 -131.85 479.17C-185.37 553.82 -180.63 710.05 -164.57 763.59C-161.65 773.35 -149.09 781.94 -138.92 781.39C-146.3 783.71 -153.21 790.53 -151.77 798.14C-150.33 805.75 -142.68 811.65 -134.95 811.11C-136 824.51 -122.04 833.66 -109.81 839.25C-40.3999 871.01 50.6601 887.49 128.04 891.3L128.03 891.31Z" fill="url(#paint11_linear_26486_107562)"/>
<path style="mix-blend-mode:multiply" opacity="0.47" d="M22.4404 380.15C-4.50963 390.39 -46.4696 408.27 -77.5996 414.52C-71.4696 430.52 -58.1196 446.71 -43.4196 453.92C-16.3796 438.56 9.00034 420.29 32.2903 399.23C29.2703 397.45 27.3503 394.32 25.6603 391.25C23.9703 388.18 24.8604 383.07 22.4404 380.15Z" fill="url(#paint12_linear_26486_107562)"/>
<path d="M32.8908 399.241C8.71081 417.701 -16.7692 434.441 -43.2892 449.311C-58.0192 439.441 -67.4792 428.081 -72.1992 414.971C-68.3292 413.611 -64.4692 412.241 -60.5892 410.861C-32.6292 400.911 -4.4592 390.501 23.5708 379.711C23.5708 379.711 32.0208 396.511 32.8408 398.991C32.8808 399.111 32.9008 399.191 32.9008 399.241H32.8908Z" fill="url(#paint13_linear_26486_107562)"/>
<path style="mix-blend-mode:multiply" opacity="0.04" d="M32.8908 399.24C8.71081 417.7 -16.7692 434.44 -43.2892 449.31C-58.0192 439.44 -67.4792 428.08 -72.1992 414.97C-68.3292 413.61 -64.4692 412.24 -60.5892 410.86C-58.0192 418.55 -50.0992 424.14 -41.9092 425.58C-32.4992 427.24 -22.8792 424.59 -13.8792 421.38C2.41079 415.57 17.9808 407.88 32.8308 398.99C32.8708 399.11 32.8908 399.19 32.8908 399.24Z" fill="url(#paint14_linear_26486_107562)"/>
<path style="mix-blend-mode:multiply" opacity="0.49" d="M24.5408 395.321C24.5408 396.271 24.3408 397.171 23.9808 397.991C22.9508 400.321 20.6308 401.941 17.9208 401.941C14.2608 401.941 11.3008 398.981 11.3008 395.321C11.3008 393.221 12.2808 391.341 13.8208 390.131C14.9508 389.231 16.3708 388.701 17.9208 388.701C21.5708 388.701 24.5408 391.671 24.5408 395.321Z" fill="url(#paint15_linear_26486_107562)"/>
<path d="M24.821 394.6C24.821 395.55 24.621 396.451 24.261 397.271C23.231 399.601 20.911 401.22 18.201 401.22C14.541 401.22 11.5811 398.26 11.5811 394.6C11.5811 392.5 12.561 390.62 14.101 389.41C15.231 388.51 16.651 387.98 18.201 387.98C21.851 387.98 24.821 390.95 24.821 394.6Z" fill="url(#paint16_linear_26486_107562)"/>
<path style="mix-blend-mode:multiply" opacity="0.12" d="M24.261 397.27C23.231 399.6 20.911 401.22 18.201 401.22C14.541 401.22 11.5811 398.26 11.5811 394.6C11.5811 392.5 12.561 390.62 14.101 389.41C13.811 390.23 13.6311 391.08 13.5811 391.95C13.4711 393.91 14.1011 395.97 15.5311 397.32C17.2711 398.97 20.011 399.33 22.241 398.47C22.981 398.18 23.6611 397.77 24.2711 397.27H24.261Z" fill="url(#paint17_linear_26486_107562)"/>
<path style="mix-blend-mode:multiply" opacity="0.49" d="M300.12 448.49C294.4 450.96 289.46 455.1 285.85 460.17C274.78 458.81 263.79 456.82 252.95 454.22C201.89 400.19 190.78 397.31 117.24 295.77C134.36 282 150.55 267.09 165.66 251.13C168.41 251.13 170.64 250.81 172.52 250.24C173.85 251 175.13 251.88 176.34 252.89C184.35 259.55 187.78 270.07 191.21 279.91C213.42 343.7 251.11 402.04 300.14 448.5L300.12 448.49Z" fill="url(#paint18_linear_26486_107562)"/>
<path d="M349.891 64.1002C310.711 72.4202 271.311 81.6702 235.261 99.1302C199.211 116.58 166.341 143.08 139.771 179.81C137.681 149.39 142.561 118.51 153.861 88.0102C154.841 85.3702 155.871 82.7202 156.941 80.0802C157.981 77.5102 159.551 75.1902 161.561 73.2802C185.321 50.6802 215.611 35.0702 246.891 29.8002C247.631 29.6802 248.371 29.5902 249.121 29.5602C277.771 28.2202 306.731 35.7802 331.251 50.6402C337.811 54.6102 344.051 59.1102 349.881 64.1002H349.891Z" fill="url(#paint19_linear_26486_107562)"/>
<path style="mix-blend-mode:multiply" opacity="0.26" d="M349.891 64.1006C310.711 72.4206 271.311 81.6706 235.261 99.1306C199.211 116.581 166.341 143.081 139.771 179.811C137.681 149.391 142.561 118.511 153.861 88.0106C153.861 89.0506 153.881 90.1006 153.921 91.1606C154.161 96.9306 155.371 103.211 159.801 106.921C163.731 110.231 169.421 110.731 174.411 109.521C179.401 108.311 183.881 105.611 188.311 103.021C232.381 77.3006 280.961 59.0006 331.261 50.6406C337.821 54.6106 344.061 59.1106 349.891 64.1006Z" fill="url(#paint20_linear_26486_107562)"/>
<path d="M409.411 295.829C406.181 308.459 401.371 321.669 390.781 329.279C378.661 337.989 362.251 337.059 347.531 334.679C318.391 329.949 290.02 320.809 263.51 307.839C245.86 299.209 229.04 288.889 213.38 277.029C211.94 275.959 210.51 274.849 209.09 273.729C208.09 272.949 207.09 272.149 206.1 271.349C197.59 264.489 189.44 257.159 181.72 249.409C179.37 247.049 173.26 237.909 167.58 229.189C167 228.299 166.43 227.409 165.86 226.539C163.98 223.639 162.201 220.879 160.681 218.529C158.201 214.689 156.411 211.949 156.021 211.509C156.231 206.109 156.9 201.099 157.99 196.419C166.1 160.969 197.311 144.149 227.681 116.769C262.081 85.7593 315.451 72.2393 361.661 75.2193C367.561 82.5693 373.01 90.2593 378.01 98.2393C379.32 100.319 380.59 102.429 381.83 104.559C388.54 116.029 394.341 128.029 399.161 140.419C399.601 141.519 400.021 142.629 400.431 143.729C418.541 192.019 422.201 245.819 409.401 295.829H409.411Z" fill="url(#paint21_linear_26486_107562)"/>
<path d="M260.611 235.881C264.681 241.041 268.951 246.051 273.421 250.881C290.881 269.751 311.411 285.911 334.431 297.481C336.821 298.671 339.521 299.871 342.081 299.111C344.991 298.251 346.631 295.251 347.911 292.511C350.471 287.091 352.911 281.621 355.241 276.091C355.511 275.451 355.791 274.801 356.051 274.161C358.241 268.901 360.321 263.581 362.311 258.231C363.681 254.541 363.211 252.441 361.751 251.231C359.081 249.041 353.091 249.811 348.811 249.321C337.701 248.031 326.651 246.221 315.711 243.901C296.591 239.831 278.191 233.791 259.701 227.521C251.891 224.881 259.171 234.041 260.621 235.881H260.611Z" fill="url(#paint22_linear_26486_107562)"/>
<path style="mix-blend-mode:multiply" d="M261.511 232.5C268.371 237.32 275.481 241.85 282.771 245.99C295.451 253.21 308.651 259.6 322.171 265.04C328.981 267.79 335.901 270.28 342.911 272.46C346.961 273.72 351.08 275.01 355.23 276.08C355.5 275.44 355.781 274.79 356.041 274.15C355.011 273.88 353.961 273.6 352.931 273.32C349.031 272.25 345.151 271.09 341.301 269.86C327.251 265.37 313.36 260.19 300.07 253.75C286.86 247.34 274.12 239.98 261.86 231.9C261.49 231.65 261.151 232.24 261.511 232.49V232.5Z" fill="url(#paint23_linear_26486_107562)"/>
<path d="M325.33 211.85C325.29 211.25 325.33 210.63 325.37 210.04C326.35 195.74 327.33 181.45 328.31 167.15C328.73 160.95 328.54 154.96 327.94 148.74C327.63 145.5 327.73 140.66 325.91 137.79C325.03 136.41 326.75 134.8 328.11 135.59C334.19 139.14 339.47 145.17 344.58 149.99C350.26 155.33 355.9 160.7 361.62 166C373.05 176.57 384.84 186.85 394.77 198.9C397.01 201.62 396.76 207.05 392.43 207.75C375.57 210.48 358.47 212.36 341.47 213.86C338.74 214.1 327.38 216.27 325.92 213.95C325.52 213.32 325.37 212.59 325.33 211.84V211.85Z" fill="url(#paint24_linear_26486_107562)"/>
<path d="M395.021 150.01C387.751 154.25 380.311 158.27 372.721 162.07C367.101 164.88 360.291 163.8 355.881 159.33C350.351 153.72 343.101 142.72 337.781 136.92C336.281 135.29 333.561 136.05 333.161 138.23C331.281 148.46 330.921 164 328.381 174.17C327.191 178.96 323.631 182.82 318.951 184.39C304.571 189.2 289.961 193.2 275.311 196.29C270.761 197.25 266.031 195.93 262.581 192.81C257.541 188.25 249.181 179.5 245.241 175.33C243.881 173.89 241.881 173.28 239.951 173.69L224.811 176.96C223.961 177.14 223.161 177.51 222.471 178.03C201.201 194.04 183.171 210.59 165.761 230.83C162.341 227.41 160.751 225.23 159.101 219.71C216.081 155.7 296.421 109.21 380.951 94.3097C384.771 93.6397 388.541 95.6897 390.081 99.2497C394.671 109.88 398.821 121.36 401.881 134.06C403.381 140.3 400.571 146.77 395.031 150L395.021 150.01Z" fill="url(#paint25_linear_26486_107562)"/>
<path d="M375.46 97.3307C364.58 100.321 353.73 103.511 342.99 107.001C313.19 116.661 284.14 128.521 256.94 143.991C220.93 164.481 188.18 191.591 161.49 223.741C159.09 226.631 154.65 226.481 152.43 223.461C142.99 210.651 136.04 196.011 132.2 180.451C131.77 178.721 132.14 176.891 133.24 175.491C135.82 172.211 138.46 168.991 141.18 165.811C193.89 104.101 270.63 63.2507 351.86 54.3407C355.45 53.9407 359.03 55.1507 361.62 57.6807C370.47 66.3307 376.45 78.2307 378.56 92.7007C378.86 94.8007 377.52 96.7907 375.48 97.3507L375.46 97.3307Z" fill="url(#paint26_linear_26486_107562)"/>
<path d="M322.03 165.399C321.8 167.379 321.52 169.379 321.2 171.439C320.83 173.739 319.19 175.639 316.97 176.339C314.43 177.139 311.79 177.989 309.07 178.859C306.8 179.579 304.48 180.309 302.13 181.029C299.92 181.719 297.69 182.399 295.46 183.049C290.35 184.559 285.22 185.949 280.32 187.079C278.22 187.559 276.17 187.999 274.17 188.369C272.13 188.749 270.22 187.849 268.61 186.549C260.18 179.789 255.75 173.909 250.37 165.559C248.37 162.449 248.89 158.529 251.96 156.469C252.29 156.249 252.62 156.029 252.95 155.809C270.19 144.329 284.53 136.329 302.64 129.579C306.02 128.309 309.54 127.089 313.23 125.899C313.38 125.849 313.53 125.809 313.68 125.779C315.14 125.409 316.61 125.519 317.89 126.029C319.86 126.799 321.37 128.529 321.65 130.869C321.65 130.869 321.65 130.889 321.65 130.899C323.31 144.499 323.33 154.639 322.03 165.399Z" fill="url(#paint27_linear_26486_107562)"/>
<path style="mix-blend-mode:multiply" opacity="0.23" d="M322.031 165.4C321.801 167.38 321.52 169.38 321.2 171.44C320.83 173.74 319.19 175.64 316.97 176.34C303.81 180.52 287.641 185.87 274.161 188.39C272.121 188.77 270.21 187.87 268.6 186.57C260.17 179.81 255.74 173.93 250.36 165.58C248.36 162.47 248.88 158.55 251.95 156.49C252.28 156.27 252.61 156.05 252.94 155.83C259.86 163.86 269.18 169.85 279.45 172.55C293.79 176.32 309.691 173.6 322.031 165.41V165.4Z" fill="url(#paint28_linear_26486_107562)"/>
<path d="M397.861 135.371C397.951 137.291 396.991 139.081 395.521 140.451C395.371 140.591 395.211 140.741 395.041 140.871C392.411 142.991 390.111 144.691 387.831 146.181C385.561 147.661 383.321 148.921 380.791 150.141C378.351 151.321 375.641 152.451 372.381 153.711C370.311 154.511 368.101 154.481 366.311 153.441C365.811 153.151 365.351 152.771 364.921 152.321C353.911 140.491 348.721 131.231 344.321 121.751C342.721 118.311 344.251 114.771 347.611 113.081C347.671 113.051 347.731 113.021 347.791 112.991C359.381 107.481 368.471 105.051 381.141 104.181C382.571 104.081 383.981 104.281 385.171 104.851C386.251 105.361 387.171 106.171 387.751 107.321C389.171 110.131 390.481 112.981 391.681 115.881C392.671 118.271 393.591 120.681 394.431 123.131C395.571 126.451 396.571 129.811 397.421 133.201C397.521 133.591 397.621 133.971 397.711 134.361C397.791 134.701 397.841 135.041 397.861 135.371Z" fill="url(#paint29_linear_26486_107562)"/>
<path d="M178.98 203.601C178.93 203.541 178.88 203.471 178.83 203.411C178.91 203.511 178.86 203.441 178.76 203.311C178.74 203.271 178.7 203.221 178.64 203.141C178.05 202.271 177.58 201.331 177.05 200.421C174.6 196.241 171.97 192.181 169.7 187.901C166.54 182.161 163.85 176.191 161.11 170.241C158.54 164.631 156.5 159.521 154.26 153.031C153.99 152.311 153.96 151.391 153.2 150.981C152.05 150.261 150.49 151.451 150.89 152.751C156.46 170.581 168.52 192.511 176.2 205.641C176.81 206.891 178.11 207.571 179.28 206.521C180.16 205.671 179.75 204.381 178.97 203.601H178.98Z" fill="url(#paint30_linear_26486_107562)"/>
<path d="M209.58 174.071C209.58 174.071 209.55 174.041 209.54 174.021C209.53 173.991 209.48 173.931 209.4 173.831C209.37 173.791 209.34 173.751 209.3 173.701C209.3 173.701 209.28 173.691 209.27 173.681C209.14 173.521 209.01 173.351 208.88 173.191C208.94 173.251 208.91 173.191 208.74 172.981C208.53 172.661 207.87 171.701 207.74 171.431C203.49 164.271 199.38 157.031 195.14 149.861C192.05 144.851 187.55 136.361 186.09 132.631C185.3 130.651 184.54 128.651 183.83 126.641C183.6 125.881 183.38 125.031 182.62 124.631C181.07 123.661 178.95 125.261 179.5 127.031C181.26 131.671 183.9 137.231 186.93 142.781C191.34 150.421 196.04 157.881 200.29 165.621C202.26 169.091 205.64 174.781 205.83 175.691C205.83 175.691 205.83 175.681 205.83 175.671C205.87 175.831 205.92 176.001 206 176.141C206.34 177.701 208.47 178.471 209.66 177.221C210.57 176.361 210.41 174.871 209.57 174.071H209.58Z" fill="url(#paint31_linear_26486_107562)"/>
<path d="M241.661 151.32C235.291 139.4 228.79 127.56 222.47 115.62C220.11 111.07 217.471 105.33 215.911 101.96C214.851 100.46 212.371 101.69 212.901 103.46C216.911 112.9 221.98 121.84 226.96 130.79C229.72 136.09 232.601 141.32 235.411 146.59C236.451 148.55 237.48 150.52 238.51 152.48C239 153.24 239.201 154.24 239.901 154.83C240.751 155.59 242.24 155.06 242.51 153.97C242.76 152.99 242.021 152.18 241.651 151.33L241.661 151.32Z" fill="url(#paint32_linear_26486_107562)"/>
<path d="M285.01 129.53C284.92 129.23 284.8 128.95 284.7 128.65C283.7 125.66 277.98 115.96 274.83 110.17C269.9 101.75 265.12 93.2103 259.46 85.2403C258.47 83.7903 257.4 82.4103 256.32 81.0303C255.88 80.4503 255.5 79.7603 254.74 79.5803C253.1 79.0703 251.57 81.0403 252.49 82.5103C257.52 88.6403 262.92 98.3503 267.66 106.6C272.2 114.58 278.25 124.44 281.62 131.09C281.64 131.13 281.67 131.16 281.69 131.2C281.67 131.2 281.89 131.56 282.14 131.7C282.5 132.03 283.05 132.17 283.52 132.07C284.71 131.99 285.44 130.6 285 129.54L285.01 129.53Z" fill="url(#paint33_linear_26486_107562)"/>
<path d="M319.18 114.741C317.11 108.071 312.54 97.9812 308.23 90.7212C303.59 82.7412 296.83 72.6012 291.9 66.6412C290.87 64.9312 288.25 66.4212 289.24 68.2012C299.8 81.0412 311.64 100.431 316.19 115.111C316.28 115.821 316.43 116.651 317.11 117.031C318.62 117.821 319.93 116.201 319.19 114.751L319.18 114.741Z" fill="url(#paint34_linear_26486_107562)"/>
<path d="M355.59 102.81C355.57 102.74 355.54 102.66 355.5 102.57C354.75 100.52 354.28 98.3804 353.48 96.3504C351.67 91.3304 349.32 86.5304 346.76 81.8504C343.75 76.4004 340.53 71.0504 337.13 65.8304C334.73 62.4304 332.35 58.5204 329.21 55.8004C327.78 55.1304 326.46 57.0904 327.6 58.1904C335.78 67.3204 342.76 79.8004 348.5 91.8304C349.55 94.1804 350.79 97.2804 351.8 100.67C351.99 101.31 352.17 101.95 352.34 102.59C352.37 102.87 352.39 103.05 352.44 103.04C352.35 103.9 352.92 104.82 353.84 104.88C354.96 105.1 355.97 103.88 355.61 102.81H355.59Z" fill="url(#paint35_linear_26486_107562)"/>
<path style="mix-blend-mode:multiply" opacity="0.33" d="M342.99 107C313.19 116.66 284.14 128.52 256.94 143.99C220.93 164.48 188.18 191.59 161.49 223.74C159.09 226.63 154.65 226.48 152.43 223.46C142.99 210.65 136.04 196.01 132.2 180.45C131.77 178.72 132.14 176.89 133.24 175.49C135.82 172.21 138.46 168.99 141.18 165.81C142.54 173.31 145.59 180.23 151.88 184.19C158.17 188.16 166.37 188.01 173.42 185.63C180.47 183.25 186.65 178.89 192.77 174.66C220.57 155.49 249.68 137.98 280.89 125.08C300.85 116.83 321.72 110.5 343 106.99L342.99 107Z" fill="url(#paint36_linear_26486_107562)"/>
<path style="mix-blend-mode:lighten" opacity="0.79" d="M331.81 95.7902C331.01 97.2502 330.37 98.8402 331.01 100.07C332.84 103.57 337.02 97.6301 338.16 96.3401C340.74 93.4201 343.11 90.3202 345.26 87.0702C348.01 82.9202 350.39 78.5301 352.37 73.9701C353.65 71.0101 357.41 64.5601 353.53 62.0501C350.99 60.4201 346.24 60.2001 344.35 62.9501C343.61 64.0301 343.28 65.3401 342.95 66.6101C341.38 72.6601 339.43 78.6101 337.12 84.4102C335.93 87.3801 334.65 90.3102 333.28 93.2002C332.94 93.9102 332.35 94.8202 331.82 95.7902H331.81Z" fill="url(#paint37_linear_26486_107562)"/>
<path style="mix-blend-mode:lighten" opacity="0.79" d="M255.3 111.42C250.61 111.9 245.69 112.73 241.55 115.12C239.46 116.32 231.88 122.98 237.06 124.99C238.43 125.52 239.96 125.09 241.37 124.68C258.48 119.68 276.35 117.29 294.17 117.62C295.94 117.65 300.82 117.04 298.47 114.2C297.91 113.52 297.08 113.13 296.26 112.81C290.81 110.65 284.15 110.6 278.34 110.48C270.65 110.33 262.95 110.64 255.29 111.41L255.3 111.42Z" fill="url(#paint38_linear_26486_107562)"/>
<path style="mix-blend-mode:multiply" opacity="0.23" d="M397.861 135.37C397.961 137.5 396.781 139.46 395.041 140.87C387.271 147.12 382.421 149.83 372.371 153.72C369.721 154.74 366.851 154.41 364.911 152.33C353.901 140.5 348.711 131.24 344.311 121.76C342.711 118.32 344.241 114.78 347.601 113.09C350.951 117.83 354.581 122.37 358.811 126.33C364.831 131.95 372.191 136.39 380.311 137.78C386.211 138.8 392.521 138.04 397.841 135.38L397.861 135.37Z" fill="url(#paint39_linear_26486_107562)"/>
<path d="M360.471 462.59C359.531 464.48 358.561 466.36 357.551 468.22C333.971 486.11 305.741 498.94 276.131 504.43C277.411 497.85 278.531 491.46 279.461 485.19C281.271 473.01 282.401 461.27 282.741 449.51C330.011 426.71 363.271 387.77 379.451 342.5C383.621 383.36 378.701 425.89 360.471 462.59Z" fill="url(#paint40_linear_26486_107562)"/>
<path opacity="0.08" d="M313.67 125.791L295.46 183.061C290.35 184.571 285.22 185.961 280.32 187.091L302.63 129.601C306.01 128.331 309.53 127.111 313.22 125.921C313.37 125.871 313.52 125.831 313.67 125.801V125.791Z" fill="url(#paint41_linear_26486_107562)"/>
<path opacity="0.08" d="M321.65 130.899L309.06 178.849C306.79 179.569 304.47 180.299 302.12 181.019L317.87 126.029C319.84 126.799 321.35 128.529 321.63 130.869C321.63 130.869 321.63 130.889 321.63 130.899H321.65Z" fill="url(#paint42_linear_26486_107562)"/>
<path opacity="0.08" d="M391.681 115.87L380.781 150.13C378.341 151.31 375.631 152.44 372.371 153.7C370.301 154.5 368.091 154.47 366.301 153.43L385.161 104.83C386.241 105.34 387.161 106.15 387.741 107.3C389.161 110.11 390.471 112.96 391.671 115.86L391.681 115.87Z" fill="url(#paint43_linear_26486_107562)"/>
<path opacity="0.08" d="M397.42 133.201L395.52 140.451C395.37 140.591 395.21 140.741 395.04 140.871C392.41 142.991 390.11 144.691 387.83 146.181L394.43 123.131C395.57 126.441 396.57 129.801 397.42 133.191V133.201Z" fill="url(#paint44_linear_26486_107562)"/>
<path d="M209.091 273.73C207.191 275.29 204.221 276.24 199.741 276.07C162.571 274.7 145.451 241.15 155.671 232.2C159.021 229.27 162.451 227.46 165.871 226.54C186.311 221.08 206.661 247.67 211.031 260.21C212.291 263.81 213.341 270.26 209.091 273.72V273.73Z" fill="url(#paint45_linear_26486_107562)"/>
<path style="mix-blend-mode:multiply" opacity="0.82" d="M198.2 259.151C197.02 257.671 195.8 256.231 194.6 254.761C189.44 248.721 180.12 236.171 172.02 235.141C168.35 235.171 167.46 237.061 166.54 240.261C165.86 243.561 165.73 246.971 165.78 250.341C165.8 251.111 165.68 251.991 166.3 252.571C167.32 253.651 169.29 252.841 169.24 251.351C169.49 246.621 170.23 240.851 171.4 239.641C171.47 239.621 171.54 239.601 171.62 239.591C171.62 239.591 171.63 239.591 171.65 239.591C171.87 239.591 172.03 239.611 172.12 239.611C172.52 239.701 173.05 239.881 173.33 239.971C176.92 241.681 178.01 243.011 181.21 245.861C181.66 246.261 182.13 246.721 182.62 247.201C182.11 248.011 181.75 248.991 181.28 249.761C180.11 252.171 179.2 254.721 178.96 257.401C178.91 258.231 178.66 259.141 178.99 259.931C179.63 261.641 182.31 261.091 182.27 259.271C182.42 257.701 184 253.501 184.96 251.711C185.2 251.261 185.44 250.821 185.7 250.381C188.69 253.601 191.66 257.131 192.95 258.871C193.5 259.571 195.72 262.521 195.05 261.641C195.43 262.221 195.85 262.831 196.57 262.991C197.83 263.361 199.17 262.331 199.16 261.021C199.03 259.581 198.24 259.371 198.21 259.141L198.2 259.151Z" fill="url(#paint46_linear_26486_107562)"/>
<path d="M206.44 443.3C200.61 457.49 193.17 471.02 184.81 482.71C181.91 486.75 178.9 490.57 175.81 494.12C123.75 450.01 90.8104 372.61 92.1104 304.58C105.92 283.46 127.18 270.2 151.28 265.32C149.67 272.04 148.47 278.89 147.68 285.81C144.76 311.03 147.16 337.13 154.67 361.16C164.24 391.8 182.22 419.76 206.43 443.31L206.44 443.3Z" fill="url(#paint47_linear_26486_107562)"/>
<path style="mix-blend-mode:multiply" opacity="0.37" d="M184.81 482.71C181.91 486.75 178.9 490.57 175.81 494.12C123.75 450.01 90.8104 372.61 92.1104 304.58C105.92 283.46 127.18 270.2 151.28 265.32C149.67 272.04 148.47 278.89 147.68 285.81C127.7 314.51 120.64 352.07 127.18 386.68C134.24 424.08 155.94 457.77 184.8 482.71H184.81Z" fill="url(#paint48_linear_26486_107562)"/>
<g style="mix-blend-mode:multiply" opacity="0.21">
<path d="M187.321 458.371C187.321 460.661 186.181 462.671 184.441 463.891C183.351 464.651 182.031 465.091 180.601 465.091C176.891 465.091 173.881 462.081 173.881 458.371C173.881 455.931 175.181 453.791 177.121 452.611C178.141 452.001 179.331 451.641 180.601 451.641C184.321 451.641 187.321 454.651 187.321 458.361V458.371Z" fill="#B8B8B8"/>
</g>
<path d="M187.991 457.441C187.991 459.731 186.851 461.741 185.111 462.961C184.021 463.721 182.701 464.161 181.271 464.161C177.561 464.161 174.551 461.151 174.551 457.441C174.551 455.001 175.851 452.861 177.791 451.681C178.811 451.071 180.001 450.711 181.271 450.711C184.991 450.711 187.991 453.721 187.991 457.431V457.441Z" fill="url(#paint49_linear_26486_107562)"/>
<path style="mix-blend-mode:multiply" opacity="0.27" d="M185.111 462.962C184.021 463.722 182.701 464.162 181.271 464.162C177.561 464.162 174.551 461.152 174.551 457.442C174.551 455.002 175.851 452.862 177.791 451.682C177.441 454.072 177.901 456.592 179.191 458.642C180.531 460.762 182.701 462.282 185.111 462.952V462.962Z" fill="url(#paint50_linear_26486_107562)"/>
<path style="mix-blend-mode:multiply" opacity="0.45" d="M342.991 191.87C302.611 224.46 261.371 257.56 213.381 277.03C211.941 275.96 210.511 274.85 209.091 273.73C207.191 275.29 204.221 276.24 199.741 276.07C162.571 274.7 145.451 241.15 155.671 232.2C159.021 229.27 162.451 227.46 165.871 226.54C163.991 223.64 162.21 220.88 160.69 218.53C158.21 214.69 156.421 211.95 156.031 211.51C156.241 206.11 156.911 201.1 158.001 196.42C174.921 186.96 192.071 177.47 212.831 167.4C208.701 178.93 204.691 192.26 210.781 202.89C216.691 213.2 229.851 216.67 241.711 217.4C276.821 219.53 310.851 206.12 343.001 191.86L342.991 191.87Z" fill="url(#paint51_linear_26486_107562)"/>
<path d="M411.16 295.95C410.94 296.83 410.71 297.7 410.49 298.57C408.89 304.69 407.05 310.75 404.96 316.75C403.53 320.89 401.99 325 400.32 329.07C396.75 332.56 392.76 335.61 388.5 337.58C387.73 341.01 386.95 344.43 386.23 347.91C383.16 351.13 380.09 354.33 376.87 357.26C365.64 391.66 350.35 424.72 330.66 455.73C322.91 467.92 314.47 479.8 305.33 491.31C255.58 451.51 163.86 351.87 145.39 266.68C145.07 265.63 149.78 261.91 154.12 260.66C154.36 260.59 154.59 260.54 154.8 260.48C151.46 259.69 152.6 254.93 156.05 251.49C168.07 249.62 180.13 247.3 192.19 244.54C194.4 244.03 196.63 243.51 198.84 242.97C198.94 242.95 199.04 242.92 199.15 242.9C207.64 240.83 216.11 238.55 224.55 236.04C231.96 233.84 239.34 231.47 246.67 228.94C285.87 215.4 323.6 197.14 357.11 174.45C360.4 172.22 364.43 171.42 368.34 172.13C384.4 175.08 395.57 178.35 411.64 177.6C420.96 216.18 420.94 256.93 411.19 295.93L411.16 295.95Z" fill="url(#paint52_linear_26486_107562)"/>
<path style="mix-blend-mode:multiply" opacity="0.35" d="M390.831 200.35C388.921 197.43 386.481 194.86 384.331 192.09C380.351 187.04 376.041 182.26 371.991 177.26C370.841 176.14 369.121 177.83 370.251 179C376.281 186.31 383.381 194.26 388.481 201.17C388.981 201.53 388.371 203.46 388.171 203.78C387.751 204.87 386.861 205.77 386.551 206.88C386.351 207.8 387.361 208.64 388.241 208.36C389.021 208.13 389.291 207.3 389.691 206.68C390.691 204.8 391.731 202.44 390.821 200.34L390.831 200.35Z" fill="url(#paint53_linear_26486_107562)"/>
<path style="mix-blend-mode:multiply" opacity="0.24" d="M404.96 316.761C403.53 320.901 401.99 325.011 400.32 329.081C396.75 332.571 392.76 335.621 388.5 337.591C387.73 341.021 386.95 344.441 386.23 347.921C383.16 351.141 380.09 354.341 376.87 357.271C365.64 391.671 350.35 424.731 330.66 455.741C322.91 467.931 314.47 479.811 305.33 491.321C255.58 451.521 163.86 351.881 145.39 266.691C145.07 265.641 149.78 261.921 154.12 260.671C154.36 260.601 154.59 260.551 154.8 260.491C151.46 259.701 152.6 254.941 156.05 251.501C168.07 249.631 180.13 247.311 192.19 244.551C194.4 244.041 196.63 243.521 198.84 242.981C198.94 242.961 199.04 242.931 199.15 242.911C207.64 240.841 216.11 238.561 224.55 236.051C219.36 251.381 225.32 269.981 236.73 282.141C261.51 308.551 357.34 337.371 398.44 320.071C400.68 319.131 402.88 318.021 404.99 316.751L404.96 316.761Z" fill="url(#paint54_linear_26486_107562)"/>
<path style="mix-blend-mode:multiply" opacity="0.35" d="M194.881 290.24C194.491 289.24 193.271 288.89 192.501 288.22C184.091 282.39 177.381 277.53 170.341 271.85C166.531 268.77 162.801 265.58 159.241 262.2C157.861 260.85 155.801 262.89 157.151 264.29C164.851 271.18 173.091 277.46 181.451 283.53C183.811 285.23 186.171 286.93 188.531 288.62C190.051 289.56 191.861 291.29 193.421 291.9C194.321 292.09 195.151 291.11 194.881 290.24Z" fill="url(#paint55_linear_26486_107562)"/>
<g opacity="0.2">
<path d="M376.6 367.43C373.61 400.16 370.28 434.05 353.96 462.58C363.87 432.06 371.03 400.64 376.6 367.43Z" fill="url(#paint56_linear_26486_107562)"/>
</g>
<path style="mix-blend-mode:multiply" opacity="0.35" d="M297.27 363.51C297.06 363.2 296.79 362.95 296.42 362.85C295.47 362.49 294.52 362.11 293.57 361.73C271.8 353.01 249.22 337.58 229.06 323.32C224.35 320.01 216.66 314.34 214.1 312.32C212.56 311.12 211.04 309.9 209.56 308.63C209.2 308.31 208.83 307.95 208.31 307.97C207.19 307.94 206.54 309.44 207.38 310.22C220.01 321 233.93 330.22 247.65 339.55C262.74 349.42 278.19 359 295.12 365.4C296.39 366.19 298.06 364.95 297.28 363.51H297.27Z" fill="url(#paint57_linear_26486_107562)"/>
<path style="mix-blend-mode:multiply" opacity="0.35" d="M275.4 323.671C274.97 323.281 274.36 323.201 273.85 322.951C253.19 314.541 231.56 302.451 211.64 290.351C206.84 287.381 202.02 284.431 197.4 281.191C196.34 280.471 195.62 279.961 195.12 279.501C194.76 279.181 194.4 278.801 193.88 278.821C192.82 278.791 192.21 280.211 193 280.951C196.9 284.481 201.49 287.161 205.9 290.001C212.01 293.801 218.19 297.511 224.45 301.061C239.86 309.811 255.56 318.081 271.92 324.931C272.96 325.221 274.06 326.271 275.14 325.721C275.86 325.311 276 324.251 275.4 323.681V323.671Z" fill="url(#paint58_linear_26486_107562)"/>
<path style="mix-blend-mode:multiply" opacity="0.35" d="M384.01 337.26C369.71 342.6 355.94 346.64 341.38 346.93C340.11 347.04 338.75 346.82 337.52 347.16C336.29 347.59 336.2 349.44 337.33 350.05C338.08 350.45 338.99 350.21 339.81 350.24C341.92 350.14 344.02 349.94 346.12 349.76C351.55 349.28 356.98 348.63 362.28 347.3C369.83 345.34 377.19 342.68 384.47 339.88C386.32 339.54 385.91 336.88 384.02 337.26H384.01Z" fill="url(#paint59_linear_26486_107562)"/>
<path style="mix-blend-mode:multiply" opacity="0.35" d="M370.301 360.231C363.031 363.671 353.661 366.631 344.691 368.051C336.651 369.341 324.761 368.981 315.361 367.561C314.861 367.501 315.141 367.501 314.151 367.431C313.731 367.401 313.311 367.571 313.021 367.861C312.331 368.521 312.491 369.741 313.321 370.211C314.191 370.571 313.621 370.331 314.731 370.521C327.351 372.011 340.331 372.521 352.741 369.321C357.421 368.111 362.001 366.541 366.501 364.791C367.941 364.211 369.381 363.621 370.781 362.951C371.361 362.661 372.091 362.431 372.261 361.731C372.601 360.631 371.291 359.611 370.311 360.231H370.301Z" fill="url(#paint60_linear_26486_107562)"/>
</g>
<defs>
<linearGradient id="paint0_linear_26486_107562" x1="-31.6699" y1="1068.03" x2="83.7501" y2="412.72" gradientUnits="userSpaceOnUse">
<stop stop-color="#454347"/>
<stop offset="1" stop-color="#626163"/>
</linearGradient>
<linearGradient id="paint1_linear_26486_107562" x1="-123.759" y1="1053.28" x2="-40.1494" y2="578.591" gradientUnits="userSpaceOnUse">
<stop stop-color="#454347"/>
<stop offset="1" stop-color="#626163"/>
</linearGradient>
<linearGradient id="paint2_linear_26486_107562" x1="192.43" y1="423.02" x2="282.28" y2="187.23" gradientUnits="userSpaceOnUse">
<stop stop-color="#FFC493"/>
<stop offset="1" stop-color="#FFB073"/>
</linearGradient>
<linearGradient id="paint3_linear_26486_107562" x1="224.61" y1="344.36" x2="167.66" y2="485.59" gradientUnits="userSpaceOnUse">
<stop stop-color="#363636"/>
<stop offset="1" stop-color="#131313"/>
</linearGradient>
<linearGradient id="paint4_linear_26486_107562" x1="552.4" y1="478.93" x2="-179.249" y2="1119.79" gradientUnits="userSpaceOnUse">
<stop stop-color="#363636"/>
<stop offset="1" stop-color="#131313"/>
</linearGradient>
<linearGradient id="paint5_linear_26486_107562" x1="552.401" y1="478.931" x2="-179.249" y2="1119.79" gradientUnits="userSpaceOnUse">
<stop stop-color="#363636"/>
<stop offset="1" stop-color="#131313"/>
</linearGradient>
<linearGradient id="paint6_linear_26486_107562" x1="-116.069" y1="509.84" x2="349.751" y2="509.84" gradientUnits="userSpaceOnUse">
<stop stop-color="#454347"/>
<stop offset="1" stop-color="#626163"/>
</linearGradient>
<linearGradient id="paint7_linear_26486_107562" x1="-213.08" y1="394.42" x2="86.5403" y2="938.34" gradientUnits="userSpaceOnUse">
<stop stop-color="#363636"/>
<stop offset="1" stop-color="#131313"/>
</linearGradient>
<linearGradient id="paint8_linear_26486_107562" x1="346.2" y1="463.971" x2="345.721" y2="464.37" gradientUnits="userSpaceOnUse">
<stop stop-color="#363636"/>
<stop offset="1" stop-color="#131313"/>
</linearGradient>
<linearGradient id="paint9_linear_26486_107562" x1="-139.74" y1="465.92" x2="46.62" y2="804.24" gradientUnits="userSpaceOnUse">
<stop stop-color="#363636"/>
<stop offset="1" stop-color="#131313"/>
</linearGradient>
<linearGradient id="paint10_linear_26486_107562" x1="-221.23" y1="472.97" x2="43.0001" y2="952.65" gradientUnits="userSpaceOnUse">
<stop stop-color="#363636"/>
<stop offset="1" stop-color="#131313"/>
</linearGradient>
<linearGradient id="paint11_linear_26486_107562" x1="-245.81" y1="488.01" x2="17.7901" y2="966.54" gradientUnits="userSpaceOnUse">
<stop stop-color="#363636"/>
<stop offset="1" stop-color="#131313"/>
</linearGradient>
<linearGradient id="paint12_linear_26486_107562" x1="-34.5596" y1="385.26" x2="-7.47965" y2="434.42" gradientUnits="userSpaceOnUse">
<stop stop-color="#363636"/>
<stop offset="1" stop-color="#131313"/>
</linearGradient>
<linearGradient id="paint13_linear_26486_107562" x1="-63.9392" y1="354.661" x2="35.2907" y2="469.141" gradientUnits="userSpaceOnUse">
<stop stop-color="#363636"/>
<stop offset="1" stop-color="#131313"/>
</linearGradient>
<linearGradient id="paint14_linear_26486_107562" x1="-5.5192" y1="363.77" x2="-95.5992" y2="640.09" gradientUnits="userSpaceOnUse">
<stop stop-color="#363636"/>
<stop offset="1" stop-color="#131313"/>
</linearGradient>
<linearGradient id="paint15_linear_26486_107562" x1="16.7908" y1="401.761" x2="18.5508" y2="391.751" gradientUnits="userSpaceOnUse">
<stop stop-color="#454347"/>
<stop offset="1" stop-color="#626163"/>
</linearGradient>
<linearGradient id="paint16_linear_26486_107562" x1="17.0711" y1="401.04" x2="18.831" y2="391.04" gradientUnits="userSpaceOnUse">
<stop stop-color="#454347"/>
<stop offset="1" stop-color="#626163"/>
</linearGradient>
<linearGradient id="paint17_linear_26486_107562" x1="16.9711" y1="401.04" x2="18.4411" y2="392.71" gradientUnits="userSpaceOnUse">
<stop stop-color="#454347"/>
<stop offset="1" stop-color="#626163"/>
</linearGradient>
<linearGradient id="paint18_linear_26486_107562" x1="190.08" y1="420.95" x2="267.56" y2="217.63" gradientUnits="userSpaceOnUse">
<stop stop-color="#FFC493"/>
<stop offset="1" stop-color="#FFB073"/>
</linearGradient>
<linearGradient id="paint19_linear_26486_107562" x1="268.971" y1="16.3102" x2="225.171" y2="166.47" gradientUnits="userSpaceOnUse">
<stop stop-color="#363636"/>
<stop offset="1" stop-color="#131313"/>
</linearGradient>
<linearGradient id="paint20_linear_26486_107562" x1="267.501" y1="21.3406" x2="224.891" y2="167.431" gradientUnits="userSpaceOnUse">
<stop stop-color="#363636"/>
<stop offset="1" stop-color="#131313"/>
</linearGradient>
<linearGradient id="paint21_linear_26486_107562" x1="419.981" y1="144.259" x2="205.471" y2="295.749" gradientUnits="userSpaceOnUse">
<stop stop-color="#FFC493"/>
<stop offset="1" stop-color="#FFB073"/>
</linearGradient>
<linearGradient id="paint22_linear_26486_107562" x1="336.111" y1="295.571" x2="302.701" y2="226.861" gradientUnits="userSpaceOnUse">
<stop stop-color="#FFF4EF"/>
<stop offset="1" stop-color="#F6DFD7"/>
</linearGradient>
<linearGradient id="paint23_linear_26486_107562" x1="304.631" y1="305.36" x2="308.801" y2="251.83" gradientUnits="userSpaceOnUse">
<stop stop-color="#FFF4EF"/>
<stop offset="1" stop-color="#F6DFD7"/>
</linearGradient>
<linearGradient id="paint24_linear_26486_107562" x1="380.49" y1="205.72" x2="295.64" y2="156.75" gradientUnits="userSpaceOnUse">
<stop stop-color="#FF9762"/>
<stop offset="1" stop-color="#FFB073"/>
</linearGradient>
<linearGradient id="paint25_linear_26486_107562" x1="236.841" y1="216.31" x2="361.591" y2="111.19" gradientUnits="userSpaceOnUse">
<stop stop-color="#454347"/>
<stop offset="1" stop-color="#626163"/>
</linearGradient>
<linearGradient id="paint26_linear_26486_107562" x1="255.31" y1="64.4607" x2="255.31" y2="273.301" gradientUnits="userSpaceOnUse">
<stop stop-color="#363636"/>
<stop offset="1" stop-color="#131313"/>
</linearGradient>
<linearGradient id="paint27_linear_26486_107562" x1="286.06" y1="129.299" x2="286.06" y2="205.879" gradientUnits="userSpaceOnUse">
<stop stop-color="#363636"/>
<stop offset="1" stop-color="#131313"/>
</linearGradient>
<linearGradient id="paint28_linear_26486_107562" x1="285.601" y1="157.77" x2="285.601" y2="197.5" gradientUnits="userSpaceOnUse">
<stop stop-color="#363636"/>
<stop offset="1" stop-color="#131313"/>
</linearGradient>
<linearGradient id="paint29_linear_26486_107562" x1="370.781" y1="107.131" x2="370.781" y2="168.141" gradientUnits="userSpaceOnUse">
<stop stop-color="#363636"/>
<stop offset="1" stop-color="#131313"/>
</linearGradient>
<linearGradient id="paint30_linear_26486_107562" x1="173.95" y1="161.001" x2="156.62" y2="196.841" gradientUnits="userSpaceOnUse">
<stop stop-color="#161616"/>
<stop offset="1"/>
</linearGradient>
<linearGradient id="paint31_linear_26486_107562" x1="202.92" y1="134.451" x2="186.81" y2="167.751" gradientUnits="userSpaceOnUse">
<stop stop-color="#161616"/>
<stop offset="1"/>
</linearGradient>
<linearGradient id="paint32_linear_26486_107562" x1="235.87" y1="111.37" x2="219.58" y2="145.05" gradientUnits="userSpaceOnUse">
<stop stop-color="#161616"/>
<stop offset="1"/>
</linearGradient>
<linearGradient id="paint33_linear_26486_107562" x1="276.36" y1="89.9903" x2="261.09" y2="121.57" gradientUnits="userSpaceOnUse">
<stop stop-color="#161616"/>
<stop offset="1"/>
</linearGradient>
<linearGradient id="paint34_linear_26486_107562" x1="311.75" y1="75.9412" x2="296.66" y2="107.141" gradientUnits="userSpaceOnUse">
<stop stop-color="#161616"/>
<stop offset="1"/>
</linearGradient>
<linearGradient id="paint35_linear_26486_107562" x1="348.67" y1="65.2204" x2="334.06" y2="95.4404" gradientUnits="userSpaceOnUse">
<stop stop-color="#161616"/>
<stop offset="1"/>
</linearGradient>
<linearGradient id="paint36_linear_26486_107562" x1="237.51" y1="114.07" x2="237.51" y2="258.7" gradientUnits="userSpaceOnUse">
<stop stop-color="#363636"/>
<stop offset="1" stop-color="#131313"/>
</linearGradient>
<linearGradient id="paint37_linear_26486_107562" x1="338.799" y1="79.0503" x2="347.844" y2="84.3806" gradientUnits="userSpaceOnUse">
<stop stop-color="#FFF4EF"/>
<stop offset="1" stop-color="#F6DFD7"/>
</linearGradient>
<linearGradient id="paint38_linear_26486_107562" x1="267.47" y1="122.24" x2="266.71" y2="113.89" gradientUnits="userSpaceOnUse">
<stop stop-color="#FFF4EF"/>
<stop offset="1" stop-color="#F6DFD7"/>
</linearGradient>
<linearGradient id="paint39_linear_26486_107562" x1="370.781" y1="115.53" x2="370.781" y2="165.67" gradientUnits="userSpaceOnUse">
<stop stop-color="#363636"/>
<stop offset="1" stop-color="#131313"/>
</linearGradient>
<linearGradient id="paint40_linear_26486_107562" x1="573.211" y1="296.65" x2="277.191" y2="455.77" gradientUnits="userSpaceOnUse">
<stop stop-color="#363636"/>
<stop offset="1" stop-color="#131313"/>
</linearGradient>
<linearGradient id="paint41_linear_26486_107562" x1="288.91" y1="189.211" x2="305.07" y2="123.671" gradientUnits="userSpaceOnUse">
<stop stop-color="#FFFAF4"/>
<stop offset="1" stop-color="#FAECDD"/>
</linearGradient>
<linearGradient id="paint42_linear_26486_107562" x1="305.5" y1="181.859" x2="319.19" y2="126.359" gradientUnits="userSpaceOnUse">
<stop stop-color="#FFFAF4"/>
<stop offset="1" stop-color="#FAECDD"/>
</linearGradient>
<linearGradient id="paint43_linear_26486_107562" x1="373.841" y1="155.55" x2="386.281" y2="105.12" gradientUnits="userSpaceOnUse">
<stop stop-color="#FFFAF4"/>
<stop offset="1" stop-color="#FAECDD"/>
</linearGradient>
<linearGradient id="paint44_linear_26486_107562" x1="390.84" y1="146.921" x2="396.58" y2="123.661" gradientUnits="userSpaceOnUse">
<stop stop-color="#FFFAF4"/>
<stop offset="1" stop-color="#FAECDD"/>
</linearGradient>
<linearGradient id="paint45_linear_26486_107562" x1="404.68" y1="396.9" x2="213.5" y2="271.58" gradientUnits="userSpaceOnUse">
<stop stop-color="#FFC493"/>
<stop offset="1" stop-color="#FFB073"/>
</linearGradient>
<linearGradient id="paint46_linear_26486_107562" x1="165.76" y1="249.111" x2="199.15" y2="249.111" gradientUnits="userSpaceOnUse">
<stop stop-color="#FFC493"/>
<stop offset="1" stop-color="#FFB073"/>
</linearGradient>
<linearGradient id="paint47_linear_26486_107562" x1="194.36" y1="357.71" x2="-9.82963" y2="481.18" gradientUnits="userSpaceOnUse">
<stop stop-color="#363636"/>
<stop offset="1" stop-color="#131313"/>
</linearGradient>
<linearGradient id="paint48_linear_26486_107562" x1="194.36" y1="357.71" x2="-9.82962" y2="481.18" gradientUnits="userSpaceOnUse">
<stop stop-color="#363636"/>
<stop offset="1" stop-color="#131313"/>
</linearGradient>
<linearGradient id="paint49_linear_26486_107562" x1="185.851" y1="445.671" x2="175.891" y2="471.251" gradientUnits="userSpaceOnUse">
<stop stop-color="#B8B8B8"/>
<stop offset="0.31" stop-color="#AEADAE"/>
<stop offset="0.85" stop-color="#949294"/>
<stop offset="1" stop-color="#8C898C"/>
</linearGradient>
<linearGradient id="paint50_linear_26486_107562" x1="183.941" y1="448.982" x2="175.931" y2="469.572" gradientUnits="userSpaceOnUse">
<stop stop-color="#B8B8B8"/>
<stop offset="0.31" stop-color="#AEADAE"/>
<stop offset="0.85" stop-color="#949294"/>
<stop offset="1" stop-color="#8C898C"/>
</linearGradient>
<linearGradient id="paint51_linear_26486_107562" x1="318.711" y1="147.86" x2="156.981" y2="262.08" gradientUnits="userSpaceOnUse">
<stop stop-color="#FFC493"/>
<stop offset="1" stop-color="#FFB073"/>
</linearGradient>
<linearGradient id="paint52_linear_26486_107562" x1="202.48" y1="427.56" x2="380.11" y2="100.24" gradientUnits="userSpaceOnUse">
<stop stop-color="#454347"/>
<stop offset="1" stop-color="#626163"/>
</linearGradient>
<linearGradient id="paint53_linear_26486_107562" x1="384.241" y1="183.1" x2="374.961" y2="202.3" gradientUnits="userSpaceOnUse">
<stop stop-color="#161616"/>
<stop offset="1"/>
</linearGradient>
<linearGradient id="paint54_linear_26486_107562" x1="289.73" y1="241.661" x2="236.37" y2="424.601" gradientUnits="userSpaceOnUse">
<stop stop-color="#363636"/>
<stop offset="1" stop-color="#131313"/>
</linearGradient>
<linearGradient id="paint55_linear_26486_107562" x1="178.481" y1="271.4" x2="173.281" y2="282.17" gradientUnits="userSpaceOnUse">
<stop stop-color="#161616"/>
<stop offset="1"/>
</linearGradient>
<linearGradient id="paint56_linear_26486_107562" x1="356.02" y1="463.09" x2="379.43" y2="368.13" gradientUnits="userSpaceOnUse">
<stop stop-color="#FFFAF4"/>
<stop offset="1" stop-color="#FAECDD"/>
</linearGradient>
<linearGradient id="paint57_linear_26486_107562" x1="255.26" y1="330.53" x2="248.89" y2="343.7" gradientUnits="userSpaceOnUse">
<stop stop-color="#161616"/>
<stop offset="1"/>
</linearGradient>
<linearGradient id="paint58_linear_26486_107562" x1="235.84" y1="298.981" x2="232.3" y2="306.291" gradientUnits="userSpaceOnUse">
<stop stop-color="#161616"/>
<stop offset="1"/>
</linearGradient>
<linearGradient id="paint59_linear_26486_107562" x1="368.04" y1="329.17" x2="354.04" y2="358.13" gradientUnits="userSpaceOnUse">
<stop stop-color="#161616"/>
<stop offset="1"/>
</linearGradient>
<linearGradient id="paint60_linear_26486_107562" x1="349.891" y1="349.731" x2="334.931" y2="380.661" gradientUnits="userSpaceOnUse">
<stop stop-color="#161616"/>
<stop offset="1"/>
</linearGradient>
<clipPath id="clip0_26486_107562">
<rect width="480" height="480" rx="8" fill="white"/>
</clipPath>
</defs>
</svg>
