<svg width="123" height="73" viewBox="0 0 123 73" fill="none" xmlns="http://www.w3.org/2000/svg">
<path d="M92.9625 76.9107C92.938 77.4084 92.9045 77.9092 92.8648 78.4146C92.4815 83.3142 91.4586 88.513 89.9714 93.8264C89.0309 97.19 87.9041 100.601 86.6353 104.013C86.3727 104.406 86.1101 104.795 85.8475 105.185C85.197 106.149 84.5466 107.119 83.8977 108.09C81.3952 111.838 78.9034 115.613 76.3811 119.364C76.1979 119.636 76.0147 119.908 75.8314 120.179C74.468 122.203 73.0938 124.221 71.6983 126.22C70.5196 127.914 69.3287 129.597 68.1179 131.264C65.3482 135.081 62.4885 138.818 59.4806 142.416C58.1675 143.989 56.8285 145.533 55.4559 147.047C54.7734 147.801 54.0802 148.548 53.3809 149.287C50.825 151.982 48.1561 154.568 45.3468 157.014C45.078 157.249 44.8063 157.481 44.536 157.714C44.1421 158.051 43.7451 158.384 43.3451 158.715C40.5464 158.926 37.7355 158.966 34.9292 158.836H34.9262C19.9189 158.15 5.06746 152.716 -7.00977 143.79C-6.80975 142.399 -6.60362 141.008 -6.38529 139.618C-5.47224 133.761 -4.40042 127.917 -3.17743 122.099C-2.60028 119.358 -1.9926 116.624 -1.34828 113.895C-1.02612 112.533 -0.697851 111.17 -0.358895 109.809C0.219774 107.473 0.824396 105.145 1.45192 102.823C1.98937 100.828 2.54513 98.839 3.12075 96.8556C4.27503 92.8554 5.50108 88.878 6.79278 84.9281C8.21121 80.5995 9.71055 76.3015 11.2862 72.0431C11.3046 71.9958 11.3214 71.9454 11.3412 71.8981C13.123 67.0977 15.1873 62.0928 19.2639 58.9948C20.0457 58.3994 20.8778 57.894 21.7466 57.4543C24.6613 55.9732 27.9791 55.2297 31.1518 54.3136C32.6451 53.883 34.1246 53.4051 35.5873 52.8814C40.8884 50.982 45.9712 48.4796 50.7151 45.4473C55.8437 42.1707 60.5769 38.2742 64.7619 33.8525C66.9789 33.8449 66.9896 32.5486 68.4904 30.918C74.6772 34.2342 80.9036 37.8299 86.9223 41.4455C86.9956 49.7545 88.4095 57.9734 90.2829 66.087C90.3989 66.5908 90.5165 67.0947 90.6371 67.5985C91.1623 69.814 91.7181 72.0218 92.2861 74.2219C92.5166 75.1151 92.7487 76.0114 92.9686 76.9107H92.9625Z" fill="url(#paint0_linear_28963_363153)"/>
<path style="mix-blend-mode:multiply" opacity="0.22" d="M40.4727 139.583C39.0604 143.392 38.471 147.658 39.7337 151.521C40.5582 154.047 42.2973 156.337 44.5341 157.714C44.1401 158.051 43.7432 158.384 43.3431 158.716C40.5445 158.926 37.7336 158.966 34.9273 158.836H34.9242C19.917 158.151 5.06551 152.717 -7.01172 143.791C-6.8117 142.4 -6.60558 141.009 -6.38724 139.618C-5.4742 133.761 -4.40236 127.918 -3.17937 122.099C-2.60223 119.359 -1.99455 116.624 -1.35023 113.896C-1.02807 112.534 -0.699804 111.17 -0.360848 109.81C0.217821 107.474 0.822452 105.145 1.44998 102.823L33.8585 71.9993L65.6883 67.4814C63.6713 89.0082 56.9411 110.082 46.1113 128.794C44.076 132.312 41.885 135.773 40.4727 139.583Z" fill="url(#paint1_linear_28963_363153)"/>
<path d="M90.2772 66.0885C87.8847 66.174 85.4845 66.0671 83.1087 65.7709C81.4185 65.5633 79.7405 65.2594 78.0855 64.8624C74.844 64.0868 71.6865 62.957 68.6955 61.4836C62.0293 58.2009 56.2075 53.2295 51.8927 47.1833C51.4835 46.6153 51.0896 46.0351 50.7109 45.4473C53.0134 43.9769 55.2349 42.3799 57.3649 40.6683C59.9788 38.5659 62.4507 36.2894 64.7578 33.8525C65.1777 33.8525 65.5181 33.8037 65.8052 33.7167C67.0328 33.3411 67.2709 32.2387 68.4863 30.918C74.673 34.2342 80.8994 37.8299 86.9182 41.4455C86.9365 43.5693 87.0403 45.687 87.222 47.8001C87.7457 53.9487 88.8863 60.0468 90.2787 66.087L90.2772 66.0885Z" fill="url(#paint2_linear_28963_363153)"/>
<path d="M51.0928 44.8375C57.4353 55.1894 68.2437 62.222 80.0232 64.7428C81.7806 65.1184 83.5578 65.3856 85.3488 65.5367C87.1917 65.6925 89.0376 65.6161 90.8774 65.7367C91.2821 65.7627 91.4363 66.4238 90.9797 66.4956C87.8177 66.9979 84.364 66.5857 81.2202 66.1047C77.9299 65.6009 74.7236 64.7184 71.6379 63.4664C65.9535 61.1608 60.8157 57.6537 56.5238 53.2748C54.1496 50.8547 52.0868 48.1767 50.2592 45.3246C49.9233 44.8009 50.7676 44.3062 51.0928 44.8375Z" fill="url(#paint3_linear_28963_363153)"/>
<path style="mix-blend-mode:multiply" opacity="0.32" d="M6.79297 84.9289C27.1502 101.296 51.0344 113.073 76.3828 119.365C78.9051 115.614 81.3954 111.839 83.8994 108.091C57.331 101.95 32.2361 89.5002 11.2864 72.0439C9.70921 76.3023 8.21139 80.6003 6.79297 84.9289Z" fill="url(#paint4_linear_28963_363153)"/>
<path d="M92.9629 76.9099C92.9385 77.4077 92.9049 77.9085 92.8652 78.4138C92.482 83.3134 91.459 88.5123 89.9719 93.8257C89.0314 97.1893 87.9045 100.6 86.6358 104.013C80.5483 120.391 71.2026 136.806 63.5364 148.228C57.3878 157.385 52.3203 163.333 50.8698 163.481C50.4743 163.521 50.0758 163.449 49.685 163.29C49.4895 163.211 49.2971 163.11 49.1063 162.991C49.1063 162.991 49.1063 162.991 49.1048 162.991C47.1397 161.757 45.4846 158.572 45.3457 157.018C50.7232 150.065 55.8167 143.312 60.4216 136.027C61.8171 133.238 63.1745 130.431 64.4952 127.608C64.8128 126.929 65.1288 126.249 65.4418 125.567C70.4392 114.708 74.8929 103.607 78.8092 92.3141C80.4002 87.729 81.9026 83.1134 83.3164 78.4703C84.0936 75.9251 84.8417 73.3707 85.5654 70.8087C85.5654 70.8087 88.6191 68.9261 90.6315 67.5978C91.4529 67.0573 92.1018 66.6069 92.2973 66.416C92.5522 67.6665 92.737 68.9551 92.8591 70.2789C93.053 72.4058 93.082 74.6227 92.9645 76.9099H92.9629Z" fill="url(#paint5_linear_28963_363153)"/>
<path style="mix-blend-mode:multiply" opacity="0.18" d="M64.6708 134.563C63.4707 137.771 62.2508 141.104 62.5012 144.518C62.5943 145.79 62.9516 147.078 63.5364 148.228C57.3878 157.385 52.3203 163.333 50.8698 163.481C50.4743 163.521 50.0758 163.449 49.685 163.29C49.4895 163.211 49.2971 163.11 49.1063 162.991C49.1063 162.991 49.1063 162.991 49.1048 162.991C47.1397 161.757 45.4846 158.572 45.3457 157.018C50.7232 150.065 55.8167 143.312 60.4216 136.027C61.8171 133.238 63.1745 130.431 64.4952 127.608C64.8128 126.929 65.1288 126.249 65.4418 125.567C70.4392 114.708 74.8929 103.607 78.8092 92.3141C80.4002 87.729 81.9026 83.1134 83.3164 78.4703C84.0936 75.9251 84.8417 73.3707 85.5655 70.8087C85.5655 70.8087 88.6191 68.9261 90.6315 67.5978C91.4529 67.0573 92.1018 66.6069 92.2973 66.416C92.5522 67.6665 92.737 68.9551 92.8591 70.2789C81.1468 90.5521 72.879 112.621 64.6708 134.561V134.563Z" fill="url(#paint6_linear_28963_363153)"/>
<path style="mix-blend-mode:multiply" opacity="0.32" d="M92.865 78.415C92.4817 83.3146 91.4588 88.5135 89.9716 93.8268C86.2187 93.5917 82.4886 93.0802 78.809 92.3153C70.2267 90.5319 61.91 87.3775 54.1827 83.1482C42.0322 76.4988 31.3093 67.4905 21.7422 57.4547C24.6569 55.9737 27.9747 55.2301 31.1475 54.314C32.6407 53.8834 34.1202 53.4055 35.5829 52.8818C42.2414 61.5832 51.1047 68.5899 61.1268 73.0253C68.1273 76.1232 75.679 77.96 83.3162 78.4715C86.495 78.6837 89.6892 78.6654 92.865 78.4135V78.415Z" fill="url(#paint7_linear_28963_363153)"/>
<path d="M66.0123 65.4964C64.6137 87.8461 42.8931 134.64 22.8152 154.718C11.9564 150.645 0.413602 143.853 -7.08008 135.905C-3.3195 118.502 0.390697 100.662 6.22013 83.7069C7.41869 80.2166 8.66 76.7385 9.94559 73.2771C11.9228 67.9485 14.1902 62.3939 18.6623 58.8883C21.8778 56.3675 25.9055 55.175 29.8035 53.9566C38.4637 51.2496 49.0187 45.9805 56.6544 40.3877C56.633 48.1028 63.8305 58.9204 66.0123 65.4964Z" fill="url(#paint8_linear_28963_363153)"/>
<path d="M92.2969 66.418C92.2999 66.3859 92.3045 66.3539 92.3076 66.3203C92.3808 66.3096 92.3717 66.3432 92.2969 66.418Z" fill="url(#paint9_linear_28963_363153)"/>
<path style="mix-blend-mode:multiply" opacity="0.53" d="M27.8697 67.1039C30.8425 66.6306 33.8595 68.2994 35.6825 70.695C37.5056 73.0906 38.3163 76.1046 38.7835 79.0788C39.9775 86.687 39.1469 94.6036 36.249 101.804C36.7941 102.661 36.7406 103.794 36.3604 104.734C35.9803 105.676 35.3161 106.47 34.6153 107.053C35.394 107.431 35.7283 108.513 35.0642 109.255C40.3058 110.994 45.4405 113.129 50.1447 116.024C42.9686 115.53 35.8077 114.817 28.6759 113.886C31.5479 102.102 33.2854 89.588 29.8867 77.9459C28.9507 74.7411 27.6331 71.3256 27.8697 67.1039Z" fill="url(#paint10_linear_28963_363153)"/>
<path d="M61.8695 118.744C61.0022 122.644 59.6983 128.51 59.0128 131.597C58.7746 132.668 58.6127 133.404 58.5669 133.607C42.2421 133.09 24.9981 130.116 9.40301 125.464C8.55104 124.406 8.264 123.192 8.50982 122.085C8.42127 121.461 8.22583 120.932 8.05788 120.407C7.88993 119.88 7.74183 119.328 7.82428 118.781C7.9052 118.236 8.2701 117.697 8.80908 117.572C6.78908 104.531 9.63205 91.7898 13.3316 79.6713C14.5698 75.6176 16.0875 71.3333 19.3335 68.6705C19.5137 68.5224 19.6984 68.3789 19.8893 68.2415C22.1398 66.62 25.0271 65.9207 27.7754 66.2932C30.5252 66.6642 33.1101 68.0903 34.9225 70.1928C37.3043 72.9533 38.2738 76.6803 38.5426 80.3172C39.0922 87.7879 37.0005 95.1702 34.8919 102.464C35.408 102.649 35.6401 103.288 35.5423 103.829C35.4446 104.368 35.1011 104.826 34.7606 105.255C34.0079 106.203 33.2155 107.121 32.4032 108.183C32.7085 108.107 33.0475 108.034 33.3254 108.183C33.6766 108.376 33.7636 108.87 33.6216 109.248C33.4811 109.623 33.1712 109.909 32.7574 110.264C42.3474 112.236 52.8413 115.242 61.8725 118.744H61.8695Z" fill="url(#paint11_linear_28963_363153)"/>
<path style="mix-blend-mode:multiply" opacity="0.56" d="M59.0128 131.598C58.7746 132.668 58.6127 133.404 58.5669 133.607C42.2421 133.091 24.9981 130.117 9.40301 125.464C8.55104 124.406 8.264 123.192 8.50982 122.086C8.42127 121.461 8.22583 120.933 8.05788 120.408C7.88993 119.881 7.74183 119.328 7.82428 118.781C7.9052 118.236 8.2701 117.697 8.80908 117.572C6.78908 104.532 9.63205 91.7902 13.3316 79.6717C14.5698 75.618 16.0875 71.3337 19.3335 68.6709C11.1619 80.0687 11.8856 103.922 14.3377 112.097C14.7836 113.587 16.7013 114.899 18.2541 114.815C17.1273 115.169 16.0722 116.21 16.2921 117.372C16.5119 118.534 17.68 119.435 18.8602 119.352C18.6999 121.398 20.8313 122.795 22.6987 123.649C33.2964 128.498 47.1997 131.014 59.0143 131.596L59.0128 131.598Z" fill="url(#paint12_linear_28963_363153)"/>
<path style="mix-blend-mode:multiply" opacity="0.47" d="M42.8916 53.5508C38.7768 55.1143 32.3702 57.8442 27.6172 58.7985C28.5531 61.2414 30.5915 63.7134 32.8359 64.8142C36.9644 62.469 40.8395 59.6795 44.3955 56.464C43.9344 56.1922 43.6413 55.7143 43.3832 55.2456C43.1252 54.7768 43.2611 53.9966 42.8916 53.5508Z" fill="url(#paint13_linear_28963_363153)"/>
<path d="M44.4869 56.4663C40.795 59.2848 36.9046 61.8407 32.8555 64.1111C30.6065 62.6041 29.1621 60.8696 28.4414 58.868C29.0323 58.6603 29.6216 58.4511 30.2141 58.2404C34.4831 56.7212 38.7842 55.1318 43.0639 53.4844C43.0639 53.4844 44.354 56.0494 44.4792 56.4281C44.4853 56.4464 44.4884 56.4586 44.4884 56.4663H44.4869Z" fill="url(#paint14_linear_28963_363153)"/>
<path style="mix-blend-mode:multiply" opacity="0.04" d="M44.4869 56.4659C40.795 59.2844 36.9046 61.8403 32.8555 64.1107C30.6065 62.6038 29.1621 60.8693 28.4414 58.8676C29.0323 58.66 29.6216 58.4508 30.2141 58.2401C30.6064 59.4142 31.8157 60.2677 33.0662 60.4876C34.5029 60.741 35.9717 60.3364 37.3459 59.8463C39.8331 58.9592 42.2104 57.7851 44.4777 56.4277C44.4838 56.4461 44.4869 56.4583 44.4869 56.4659Z" fill="url(#paint15_linear_28963_363153)"/>
<path style="mix-blend-mode:multiply" opacity="0.49" d="M43.2129 55.8672C43.2129 56.0123 43.1824 56.1497 43.1274 56.2749C42.9702 56.6306 42.6159 56.878 42.2022 56.878C41.6433 56.878 41.1914 56.426 41.1914 55.8672C41.1914 55.5466 41.341 55.2595 41.5762 55.0748C41.7487 54.9374 41.9655 54.8564 42.2022 54.8564C42.7595 54.8564 43.2129 55.3099 43.2129 55.8672Z" fill="url(#paint16_linear_28963_363153)"/>
<path d="M43.2539 55.7559C43.2539 55.9009 43.2234 56.0383 43.1684 56.1635C43.0112 56.5193 42.657 56.7666 42.2432 56.7666C41.6844 56.7666 41.2324 56.3147 41.2324 55.7559C41.2324 55.4352 41.382 55.1482 41.6172 54.9635C41.7897 54.826 42.0065 54.7451 42.2432 54.7451C42.8005 54.7451 43.2539 55.1986 43.2539 55.7559Z" fill="url(#paint17_linear_28963_363153)"/>
<path style="mix-blend-mode:multiply" opacity="0.12" d="M43.1684 56.1649C43.0112 56.5207 42.657 56.768 42.2432 56.768C41.6844 56.768 41.2324 56.3161 41.2324 55.7573C41.2324 55.4366 41.382 55.1496 41.6172 54.9648C41.5729 55.09 41.5454 55.2198 41.5378 55.3527C41.521 55.6519 41.6172 55.9664 41.8355 56.1726C42.1012 56.4245 42.5195 56.4795 42.86 56.3482C42.973 56.3039 43.0768 56.2413 43.17 56.1649H43.1684Z" fill="url(#paint18_linear_28963_363153)"/>
<path style="mix-blend-mode:multiply" opacity="0.49" d="M85.2879 63.9872C84.4146 64.3643 83.6603 64.9964 83.1091 65.7705C81.4189 65.5629 79.7409 65.259 78.0858 64.862C70.2898 56.6126 68.5935 56.1729 57.3652 40.6694C59.9792 38.567 62.4511 36.2905 64.7582 33.8537C65.178 33.8537 65.5185 33.8048 65.8056 33.7178C66.0086 33.8338 66.204 33.9682 66.3888 34.1224C67.6118 35.1393 68.1355 36.7455 68.6592 38.2479C72.0503 47.9875 77.8049 56.8951 85.291 63.9887L85.2879 63.9872Z" fill="url(#paint19_linear_28963_363153)"/>
<path d="M92.8862 5.29688C86.9041 6.5672 80.8884 7.97952 75.3842 10.6454C69.8799 13.3097 64.8613 17.3558 60.8045 22.9638C60.4854 18.3192 61.2305 13.6044 62.9558 8.94753C63.1054 8.54445 63.2627 8.13984 63.426 7.73675C63.5848 7.34436 63.8245 6.99013 64.1314 6.69851C67.7592 3.24787 72.3839 0.864493 77.1599 0.0598532C77.2729 0.0415313 77.3858 0.0277889 77.5004 0.0232085C81.8747 -0.181387 86.2964 0.972897 90.0402 3.24177C91.0418 3.84792 91.9945 4.53499 92.8847 5.29688H92.8862Z" fill="url(#paint20_linear_28963_363153)"/>
<path style="mix-blend-mode:multiply" opacity="0.26" d="M92.8862 5.2973C86.9041 6.56762 80.8884 7.97994 75.3842 10.6458C69.8799 13.3101 64.8613 17.3562 60.8045 22.9642C60.4854 18.3196 61.2305 13.6048 62.9558 8.94795C62.9558 9.10674 62.9588 9.26706 62.9649 9.4289C63.0016 10.3099 63.1863 11.2687 63.8627 11.8352C64.4628 12.3406 65.3315 12.4169 66.0934 12.2322C66.8553 12.0474 67.5393 11.6352 68.2157 11.2397C74.9444 7.31271 82.3618 4.51862 90.0417 3.24219C91.0433 3.84834 91.9961 4.53541 92.8862 5.2973Z" fill="url(#paint21_linear_28963_363153)"/>
<path d="M101.975 40.6775C101.482 42.6059 100.748 44.6229 99.131 45.7848C97.2804 47.1146 94.7749 46.9726 92.5274 46.6093C88.0782 45.8871 83.7466 44.4915 79.699 42.5112C77.0041 41.1936 74.436 39.6179 72.045 37.8071C71.8251 37.6437 71.6068 37.4742 71.39 37.3032C71.2373 37.1841 71.0846 37.062 70.9335 36.9398C69.6341 35.8924 68.3898 34.7733 67.2111 33.59C66.8522 33.2297 65.9194 31.8341 65.0521 30.5027C64.9636 30.3668 64.8765 30.231 64.7895 30.0981C64.5025 29.6553 64.2307 29.2339 63.9986 28.8751C63.62 28.2888 63.3467 27.8705 63.2871 27.8033C63.3192 26.9788 63.4215 26.2139 63.5879 25.4993C64.8261 20.0867 69.5914 17.5186 74.2284 13.3381C79.4807 8.60341 87.6294 6.53914 94.6848 6.99414C95.5857 8.11636 96.4178 9.29049 97.1812 10.5089C97.3812 10.8265 97.5751 11.1486 97.7644 11.4739C98.7889 13.2251 99.6745 15.0573 100.41 16.9491C100.478 17.117 100.542 17.2865 100.604 17.4544C103.369 24.8275 103.928 33.0419 101.974 40.6775H101.975Z" fill="url(#paint22_linear_28963_363153)"/>
<path d="M79.254 31.5256C79.8755 32.3134 80.5274 33.0784 81.2099 33.8158C83.8758 36.697 87.0104 39.1643 90.5251 40.9309C90.89 41.1126 91.3023 41.2958 91.6931 41.1797C92.1374 41.0484 92.3878 40.5904 92.5833 40.172C92.9742 39.3445 93.3467 38.5093 93.7024 37.665C93.7437 37.5673 93.7864 37.468 93.8261 37.3703C94.1605 36.5672 94.4781 35.7549 94.7819 34.9381C94.9911 34.3747 94.9193 34.054 94.6964 33.8693C94.2887 33.5349 93.3742 33.6525 92.7207 33.5777C91.0244 33.3807 89.3372 33.1043 87.6669 32.7501C84.7476 32.1287 81.9382 31.2065 79.1151 30.2492C77.9226 29.8461 79.0342 31.2447 79.2556 31.5256H79.254Z" fill="url(#paint23_linear_28963_363153)"/>
<path style="mix-blend-mode:multiply" d="M79.3925 31.0081C80.4399 31.744 81.5255 32.4357 82.6386 33.0678C84.5746 34.1701 86.59 35.1458 88.6543 35.9764C89.694 36.3963 90.7506 36.7764 91.8209 37.1093C92.4393 37.3017 93.0683 37.4986 93.702 37.662C93.7432 37.5643 93.7859 37.465 93.8256 37.3673C93.6684 37.3261 93.5081 37.2833 93.3508 37.2406C92.7553 37.0772 92.1629 36.9001 91.5751 36.7123C89.4299 36.0268 87.3091 35.2359 85.28 34.2526C83.263 33.2739 81.3178 32.1501 79.446 30.9165C79.3895 30.8783 79.3375 30.9684 79.3925 31.0065V31.0081Z" fill="url(#paint24_linear_28963_363153)"/>
<path d="M89.1373 27.8561C89.1312 27.7645 89.1373 27.6699 89.1434 27.5798C89.293 25.3964 89.4427 23.2146 89.5923 21.0312C89.6564 20.0846 89.6274 19.17 89.5358 18.2203C89.4885 17.7256 89.5037 16.9866 89.2259 16.5484C89.0915 16.3377 89.3541 16.0919 89.5618 16.2125C90.4901 16.7546 91.2962 17.6752 92.0764 18.4112C92.9437 19.2265 93.8048 20.0464 94.6782 20.8556C96.4233 22.4695 98.2235 24.0391 99.7396 25.8789C100.082 26.2942 100.043 27.1233 99.3823 27.2301C96.8081 27.647 94.1972 27.934 91.6016 28.163C91.1848 28.1997 89.4503 28.531 89.2274 28.1768C89.1663 28.0806 89.1434 27.9691 89.1373 27.8546V27.8561Z" fill="url(#paint25_linear_28963_363153)"/>
<path d="M99.7768 18.4153C98.6668 19.0627 97.5309 19.6765 96.372 20.2567C95.5139 20.6857 94.4742 20.5208 93.8008 19.8383C92.9565 18.9818 91.8495 17.3022 91.0373 16.4167C90.8082 16.1678 90.3929 16.2838 90.3319 16.6167C90.0448 18.1786 89.9899 20.5513 89.602 22.1041C89.4203 22.8355 88.8768 23.4248 88.1622 23.6645C85.9667 24.399 83.736 25.0097 81.4992 25.4815C80.8045 25.628 80.0822 25.4265 79.5555 24.9501C78.786 24.2539 77.5095 22.9179 76.908 22.2812C76.7003 22.0614 76.395 21.9682 76.1003 22.0308L73.7887 22.5301C73.6589 22.5576 73.5367 22.6141 73.4314 22.6935C70.1838 25.1379 67.4309 27.6648 64.7727 30.7551C64.2506 30.233 64.0078 29.9001 63.7559 29.0573C72.4557 19.2841 84.7223 12.1858 97.6286 9.91086C98.2118 9.80856 98.7874 10.1216 99.0226 10.6651C99.7234 12.2881 100.357 14.0409 100.824 15.98C101.053 16.9328 100.624 17.9206 99.7784 18.4138L99.7768 18.4153Z" fill="url(#paint26_linear_28963_363153)"/>
<path d="M96.7933 10.3702C95.1321 10.8268 93.4755 11.3138 91.8357 11.8467C87.2858 13.3216 82.8503 15.1324 78.6973 17.4944C73.1992 20.6229 68.1989 24.7621 64.1238 29.6709C63.7573 30.1121 63.0794 30.0892 62.7405 29.6281C61.2991 27.6723 60.238 25.437 59.6517 23.0612C59.586 22.7971 59.6425 22.5177 59.8105 22.3039C60.2044 21.8031 60.6075 21.3115 61.0228 20.826C69.0707 11.4039 80.7876 5.16679 93.19 3.80639C93.7382 3.74532 94.2848 3.93006 94.6802 4.31635C96.0315 5.63706 96.9445 7.45399 97.2667 9.66331C97.3125 9.98394 97.1079 10.2878 96.7964 10.3733L96.7933 10.3702Z" fill="url(#paint27_linear_28963_363153)"/>
<path d="M88.6325 20.7634C88.5974 21.0657 88.5546 21.371 88.5058 21.6856C88.4493 22.0367 88.1989 22.3268 87.8599 22.4337C87.4721 22.5559 87.069 22.6856 86.6537 22.8185C86.3071 22.9284 85.9529 23.0399 85.5941 23.1498C85.2567 23.2551 84.9162 23.359 84.5757 23.4582C83.7955 23.6888 83.0122 23.901 82.2641 24.0735C81.9435 24.1468 81.6305 24.214 81.3251 24.2705C81.0136 24.3285 80.722 24.1911 80.4762 23.9926C79.1891 22.9605 78.5127 22.0627 77.6912 20.7878C77.3859 20.3129 77.4653 19.7144 77.934 19.3999C77.9844 19.3663 78.0348 19.3327 78.0852 19.2991C80.7174 17.5463 82.9069 16.3249 85.672 15.2943C86.1881 15.1003 86.7255 14.9141 87.2889 14.7324C87.3118 14.7247 87.3347 14.7186 87.3576 14.7141C87.5805 14.6576 87.805 14.6744 88.0004 14.7522C88.3012 14.8698 88.5317 15.1339 88.5745 15.4912C88.5745 15.4912 88.5745 15.4943 88.5745 15.4958C88.8279 17.5723 88.831 19.1205 88.6325 20.7634Z" fill="url(#paint28_linear_28963_363153)"/>
<path style="mix-blend-mode:multiply" opacity="0.23" d="M88.634 20.7629C88.5989 21.0652 88.5562 21.3706 88.5073 21.6851C88.4508 22.0363 88.2004 22.3264 87.8615 22.4333C85.8522 23.0715 83.3833 23.8884 81.3251 24.2731C81.0136 24.3311 80.722 24.1937 80.4762 23.9952C79.1891 22.9631 78.5127 22.0653 77.6912 20.7904C77.3859 20.3156 77.4653 19.7171 77.934 19.4025C77.9844 19.3689 78.0348 19.3353 78.0852 19.3018C79.1417 20.5278 80.5647 21.4424 82.1328 21.8546C84.3223 22.4302 86.7499 22.0149 88.634 20.7645V20.7629Z" fill="url(#paint29_linear_28963_363153)"/>
<path d="M100.211 16.1781C100.225 16.4712 100.079 16.7445 99.8541 16.9537C99.8312 16.9751 99.8068 16.998 99.7808 17.0178C99.3793 17.3415 99.0281 17.6011 98.68 17.8286C98.3334 18.0545 97.9914 18.2469 97.6051 18.4332C97.2325 18.6134 96.8188 18.7859 96.321 18.9783C96.005 19.1004 95.6675 19.0958 95.3942 18.937C95.3179 18.8928 95.2477 18.8347 95.182 18.766C93.501 16.9598 92.7085 15.546 92.0367 14.0985C91.7924 13.5733 92.026 13.0328 92.5391 12.7748C92.5482 12.7702 92.5574 12.7656 92.5665 12.761C94.3361 11.9197 95.724 11.5487 97.6585 11.4159C97.8769 11.4006 98.0921 11.4311 98.2738 11.5182C98.4387 11.596 98.5792 11.7197 98.6678 11.8953C98.8846 12.3243 99.0846 12.7595 99.2678 13.2023C99.419 13.5672 99.5594 13.9351 99.6877 14.3092C99.8617 14.8161 100.014 15.3291 100.144 15.8467C100.159 15.9063 100.175 15.9643 100.188 16.0238C100.201 16.0758 100.208 16.1277 100.211 16.1781Z" fill="url(#paint30_linear_28963_363153)"/>
<path d="M66.7928 26.5957C66.7851 26.5866 66.7775 26.5759 66.7699 26.5667C66.7821 26.582 66.7745 26.5713 66.7592 26.5514C66.7561 26.5453 66.75 26.5377 66.7409 26.5255C66.6508 26.3927 66.579 26.2491 66.4981 26.1102C66.124 25.472 65.7225 24.8521 65.3759 24.1986C64.8934 23.3222 64.4827 22.4107 64.0643 21.5022C63.6719 20.6457 63.3605 19.8655 63.0185 18.8745C62.9772 18.7646 62.9726 18.6241 62.8566 18.5615C62.681 18.4516 62.4428 18.6333 62.5039 18.8318C63.3544 21.5541 65.1957 24.9025 66.3683 26.9072C66.4614 27.098 66.6599 27.2019 66.8386 27.0416C66.9729 26.9118 66.9103 26.7148 66.7912 26.5957H66.7928Z" fill="url(#paint31_linear_28963_363153)"/>
<path d="M71.4656 22.0885C71.4656 22.0885 71.4611 22.084 71.4596 22.0809C71.458 22.0763 71.4504 22.0672 71.4382 22.0519C71.4336 22.0458 71.429 22.0397 71.4229 22.0321C71.4229 22.0321 71.4198 22.0305 71.4183 22.029C71.3985 22.0046 71.3786 21.9786 71.3588 21.9542C71.3679 21.9633 71.3634 21.9542 71.3374 21.9221C71.3053 21.8733 71.2046 21.7267 71.1847 21.6855C70.5358 20.5923 69.9083 19.4868 69.2609 18.3921C68.7891 17.6271 68.102 16.3309 67.8791 15.7614C67.7585 15.4591 67.6425 15.1537 67.5341 14.8468C67.4989 14.7308 67.4654 14.601 67.3493 14.5399C67.1127 14.3918 66.789 14.6361 66.8729 14.9063C67.1417 15.6148 67.5448 16.4637 68.0074 17.3111C68.6807 18.4776 69.3983 19.6166 70.0472 20.7984C70.348 21.3282 70.8641 22.197 70.8931 22.3359C70.8931 22.3359 70.8931 22.3344 70.8931 22.3328C70.8992 22.3573 70.9068 22.3832 70.919 22.4046C70.971 22.6428 71.2962 22.7604 71.4779 22.5695C71.6168 22.4382 71.5924 22.2107 71.4641 22.0885H71.4656Z" fill="url(#paint32_linear_28963_363153)"/>
<path d="M76.3633 18.6129C75.3907 16.7929 74.3983 14.9851 73.4333 13.1621C73.073 12.4674 72.6699 11.591 72.4317 11.0764C72.2699 10.8474 71.8912 11.0352 71.9721 11.3055C72.5844 12.7468 73.3585 14.1118 74.1189 15.4783C74.5403 16.2875 74.98 17.086 75.409 17.8907C75.5678 18.1899 75.7251 18.4907 75.8823 18.79C75.9572 18.906 75.9877 19.0587 76.0946 19.1488C76.2244 19.2648 76.4519 19.1839 76.4931 19.0175C76.5312 18.8678 76.4183 18.7442 76.3618 18.6144L76.3633 18.6129Z" fill="url(#paint33_linear_28963_363153)"/>
<path d="M82.9802 15.2865C82.9665 15.2407 82.9482 15.198 82.9329 15.1522C82.7802 14.6956 81.9069 13.2146 81.4259 12.3306C80.6732 11.045 79.9434 9.74109 79.0792 8.5242C78.928 8.30281 78.7646 8.09211 78.5997 7.88141C78.5326 7.79285 78.4745 7.6875 78.3585 7.66002C78.1081 7.58215 77.8745 7.88293 78.015 8.10738C78.783 9.04332 79.6075 10.5259 80.3312 11.7855C81.0244 13.0039 81.9481 14.5094 82.4626 15.5247C82.4657 15.5308 82.4703 15.5354 82.4733 15.5415C82.4703 15.5415 82.5039 15.5965 82.542 15.6179C82.597 15.6682 82.681 15.6896 82.7527 15.6743C82.9344 15.6621 83.0459 15.4499 82.9787 15.2881L82.9802 15.2865Z" fill="url(#paint34_linear_28963_363153)"/>
<path d="M88.1986 13.0286C87.8826 12.0102 87.1848 10.4696 86.5267 9.36113C85.8183 8.14272 84.7861 6.59452 84.0334 5.68453C83.8761 5.42344 83.4761 5.65094 83.6273 5.92271C85.2396 7.88316 87.0474 10.8437 87.7421 13.0851C87.7558 13.1935 87.7787 13.3202 87.8825 13.3782C88.1131 13.4988 88.3131 13.2515 88.2001 13.0301L88.1986 13.0286Z" fill="url(#paint35_linear_28963_363153)"/>
<path d="M93.7575 11.2082C93.7544 11.1975 93.7499 11.1853 93.7438 11.1716C93.6292 10.8586 93.5575 10.5318 93.4353 10.2219C93.159 9.45541 92.8002 8.72253 92.4093 8.00797C91.9497 7.17585 91.4581 6.359 90.939 5.56199C90.5725 5.04287 90.2091 4.44588 89.7297 4.03058C89.5114 3.92828 89.3098 4.22754 89.4839 4.39549C90.7328 5.78949 91.7986 7.69497 92.675 9.53175C92.8353 9.89055 93.0246 10.3639 93.1788 10.8815C93.2078 10.9792 93.2353 11.0769 93.2613 11.1746C93.2658 11.2174 93.2689 11.2449 93.2765 11.2433C93.2628 11.3746 93.3498 11.5151 93.4903 11.5243C93.6613 11.5579 93.8155 11.3716 93.7605 11.2082H93.7575Z" fill="url(#paint36_linear_28963_363153)"/>
<path style="mix-blend-mode:multiply" opacity="0.33" d="M91.8357 11.8472C87.2858 13.3221 82.8503 15.133 78.6974 17.495C73.1992 20.6234 68.1989 24.7627 64.1238 29.6714C63.7573 30.1127 63.0794 30.0898 62.7405 29.6287C61.2991 27.6728 60.238 25.4375 59.6517 23.0618C59.586 22.7977 59.6425 22.5182 59.8105 22.3045C60.2044 21.8037 60.6075 21.312 61.0228 20.8265C61.2304 21.9716 61.6961 23.0282 62.6565 23.6328C63.6169 24.239 64.8689 24.2161 65.9453 23.8527C67.0217 23.4893 67.9653 22.8236 68.8997 22.1778C73.1443 19.2508 77.5889 16.5773 82.3541 14.6077C85.4017 13.3481 88.5882 12.3816 91.8373 11.8457L91.8357 11.8472Z" fill="url(#paint37_linear_28963_363153)"/>
<path style="mix-blend-mode:lighten" opacity="0.79" d="M90.1269 10.1359C90.0047 10.3588 89.907 10.6016 90.0047 10.7894C90.2841 11.3238 90.9224 10.4168 91.0964 10.2199C91.4903 9.77404 91.8522 9.30073 92.1805 8.80451C92.6003 8.17088 92.9637 7.5006 93.266 6.80436C93.4615 6.35242 94.0356 5.36762 93.4432 4.98438C93.0553 4.73551 92.3301 4.70192 92.0415 5.1218C91.9285 5.28669 91.8781 5.48671 91.8278 5.68062C91.588 6.60435 91.2903 7.51281 90.9376 8.39837C90.7559 8.85184 90.5605 9.2992 90.3513 9.74046C90.2994 9.84886 90.2093 9.9878 90.1284 10.1359H90.1269Z" fill="url(#paint38_linear_28963_363153)"/>
<path style="mix-blend-mode:lighten" opacity="0.79" d="M78.4431 12.5222C77.727 12.5955 76.9758 12.7222 76.3437 13.0871C76.0246 13.2703 74.8673 14.2872 75.6582 14.5941C75.8674 14.675 76.101 14.6093 76.3162 14.5467C78.9286 13.7833 81.6571 13.4184 84.3779 13.4688C84.6482 13.4734 85.3932 13.3802 85.0344 12.9466C84.9489 12.8428 84.8222 12.7833 84.697 12.7344C83.8649 12.4046 82.848 12.397 81.9609 12.3786C80.7868 12.3557 79.6111 12.4031 78.4416 12.5206L78.4431 12.5222Z" fill="url(#paint39_linear_28963_363153)"/>
<path style="mix-blend-mode:multiply" opacity="0.23" d="M100.213 16.1781C100.228 16.5034 100.048 16.8026 99.7823 17.0179C98.596 17.9722 97.8555 18.3859 96.321 18.9799C95.9164 19.1356 95.4782 19.0852 95.182 18.7676C93.501 16.9614 92.7085 15.5476 92.0367 14.1001C91.7924 13.5749 92.026 13.0344 92.539 12.7764C93.0505 13.5001 93.6048 14.1933 94.2506 14.7979C95.1698 15.656 96.2935 16.3339 97.5333 16.5461C98.4341 16.7018 99.3976 16.5858 100.21 16.1797L100.213 16.1781Z" fill="url(#paint40_linear_28963_363153)"/>
<path d="M94.5023 66.1384C94.3588 66.427 94.2107 66.714 94.0565 66.998C90.4562 69.7295 86.1459 71.6885 81.625 72.5267C81.8204 71.522 81.9914 70.5464 82.1334 69.5891C82.4098 67.7294 82.5823 65.9369 82.6342 64.1413C89.8516 60.6602 94.9298 54.7147 97.4002 47.8027C98.0369 54.0414 97.2857 60.535 94.5023 66.1384Z" fill="url(#paint41_linear_28963_363153)"/>
<path opacity="0.08" d="M87.3576 14.7158L84.5772 23.46C83.797 23.6905 83.0138 23.9028 82.2656 24.0753L85.672 15.2975C86.1881 15.1036 86.7255 14.9174 87.2889 14.7357C87.3118 14.728 87.3347 14.7219 87.3576 14.7173V14.7158Z" fill="url(#paint42_linear_28963_363153)"/>
<path opacity="0.08" d="M88.5757 15.4955L86.6534 22.8167C86.3068 22.9266 85.9526 23.0381 85.5938 23.148L87.9985 14.752C88.2993 14.8695 88.5298 15.1337 88.5726 15.4909C88.5726 15.4909 88.5726 15.494 88.5726 15.4955H88.5757Z" fill="url(#paint43_linear_28963_363153)"/>
<path opacity="0.08" d="M99.2677 13.1993L97.6034 18.4302C97.2309 18.6104 96.8171 18.7829 96.3194 18.9753C96.0033 19.0974 95.6659 19.0929 95.3926 18.9341L98.2722 11.5137C98.4371 11.5915 98.5775 11.7152 98.6661 11.8908C98.8829 12.3198 99.0829 12.755 99.2661 13.1978L99.2677 13.1993Z" fill="url(#paint44_linear_28963_363153)"/>
<path opacity="0.08" d="M100.144 15.8481L99.8538 16.955C99.8309 16.9764 99.8065 16.9993 99.7805 17.0191C99.379 17.3428 99.0278 17.6024 98.6797 17.8299L99.6874 14.3105C99.8615 14.8159 100.014 15.3289 100.144 15.8465V15.8481Z" fill="url(#paint45_linear_28963_363153)"/>
<path d="M71.3885 37.3037C71.0984 37.5419 70.6449 37.687 69.9609 37.661C64.2856 37.4518 61.6717 32.3293 63.2321 30.9628C63.7436 30.5155 64.2673 30.2391 64.7895 30.0986C67.9103 29.265 71.0174 33.3248 71.6847 35.2395C71.877 35.7891 72.0374 36.7739 71.3885 37.3022V37.3037Z" fill="url(#paint46_linear_28963_363153)"/>
<path style="mix-blend-mode:multiply" opacity="0.82" d="M69.7249 35.078C69.5447 34.8521 69.3584 34.6322 69.1752 34.4077C68.3874 33.4855 66.9644 31.5694 65.7276 31.4121C65.1673 31.4167 65.0314 31.7053 64.8909 32.1938C64.7871 32.6977 64.7673 33.2183 64.7749 33.7329C64.778 33.8505 64.7596 33.9848 64.8543 34.0734C65.01 34.2383 65.3108 34.1146 65.3032 33.8871C65.3413 33.1649 65.4543 32.2839 65.633 32.0992C65.6437 32.0961 65.6544 32.0931 65.6666 32.0915C65.6666 32.0915 65.6681 32.0915 65.6712 32.0915C65.7047 32.0915 65.7292 32.0946 65.7429 32.0946C65.804 32.1083 65.8849 32.1358 65.9276 32.1496C66.4758 32.4107 66.6422 32.6137 67.1308 33.0489C67.1995 33.1099 67.2713 33.1802 67.3461 33.2535C67.2682 33.3771 67.2132 33.5268 67.1415 33.6443C66.9628 34.0123 66.8239 34.4016 66.7873 34.8108C66.7796 34.9376 66.7415 35.0765 66.7918 35.1971C66.8896 35.4582 67.2988 35.3742 67.2926 35.0963C67.3155 34.8566 67.5568 34.2154 67.7034 33.9421C67.74 33.8734 67.7766 33.8062 67.8163 33.739C68.2729 34.2306 68.7263 34.7696 68.9233 35.0353C69.0073 35.1422 69.3462 35.5926 69.2439 35.4582C69.302 35.5468 69.3661 35.6399 69.476 35.6643C69.6684 35.7208 69.873 35.5636 69.8715 35.3635C69.8516 35.1437 69.731 35.1116 69.7264 35.0765L69.7249 35.078Z" fill="url(#paint47_linear_28963_363153)"/>
<path d="M70.9853 63.1931C70.0952 65.3596 68.9593 67.4254 67.6828 69.2103C67.24 69.8272 66.7805 70.4104 66.3087 70.9524C58.36 64.2176 53.3306 52.3999 53.5291 42.0129C55.6377 38.7882 58.8837 36.7636 62.5634 36.0186C62.3175 37.0446 62.1343 38.0905 62.0137 39.147C61.5679 42.9977 61.9343 46.9827 63.081 50.6517C64.5421 55.3299 67.2874 59.5989 70.9838 63.1946L70.9853 63.1931Z" fill="url(#paint48_linear_28963_363153)"/>
<path style="mix-blend-mode:multiply" opacity="0.37" d="M67.6828 69.2103C67.24 69.8272 66.7805 70.4104 66.3087 70.9524C58.36 64.2176 53.3306 52.3999 53.5291 42.0129C55.6377 38.7882 58.8837 36.7636 62.5634 36.0186C62.3175 37.0446 62.1343 38.0905 62.0137 39.147C58.9631 43.529 57.8852 49.2638 58.8837 54.5482C59.9616 60.2585 63.2749 65.4024 67.6813 69.2103H67.6828Z" fill="url(#paint49_linear_28963_363153)"/>
<g style="mix-blend-mode:multiply" opacity="0.21">
<path d="M68.0657 65.4953C68.0657 65.845 67.8917 66.1519 67.626 66.3381C67.4596 66.4542 67.258 66.5214 67.0397 66.5214C66.4732 66.5214 66.0137 66.0618 66.0137 65.4953C66.0137 65.1228 66.2122 64.796 66.5084 64.6159C66.6641 64.5227 66.8458 64.4678 67.0397 64.4678C67.6077 64.4678 68.0657 64.9273 68.0657 65.4938V65.4953Z" fill="#B8B8B8"/>
</g>
<path d="M68.1673 65.3537C68.1673 65.7034 67.9932 66.0103 67.7276 66.1965C67.5611 66.3126 67.3596 66.3798 67.1413 66.3798C66.5748 66.3798 66.1152 65.9202 66.1152 65.3537C66.1152 64.9812 66.3137 64.6544 66.6099 64.4743C66.7657 64.3811 66.9474 64.3262 67.1413 64.3262C67.7092 64.3262 68.1673 64.7857 68.1673 65.3522V65.3537Z" fill="url(#paint50_linear_28963_363153)"/>
<path style="mix-blend-mode:multiply" opacity="0.27" d="M67.7276 66.1959C67.5611 66.3119 67.3596 66.3791 67.1413 66.3791C66.5748 66.3791 66.1152 65.9195 66.1152 65.3531C66.1152 64.9805 66.3137 64.6538 66.6099 64.4736C66.5565 64.8385 66.6267 65.2233 66.8237 65.5363C67.0283 65.86 67.3596 66.0921 67.7276 66.1944V66.1959Z" fill="url(#paint51_linear_28963_363153)"/>
<path style="mix-blend-mode:multiply" opacity="0.45" d="M91.8327 24.8065C85.6674 29.7824 79.3707 34.8362 72.0435 37.8089C71.8236 37.6456 71.6053 37.4761 71.3885 37.3051C71.0984 37.5433 70.6449 37.6883 69.9609 37.6624C64.2856 37.4532 61.6717 32.3307 63.2321 30.9642C63.7436 30.5168 64.2673 30.2405 64.7895 30.1C64.5025 29.6572 64.2307 29.2358 63.9986 28.877C63.6199 28.2907 63.3467 27.8723 63.2871 27.8052C63.3192 26.9807 63.4215 26.2157 63.5879 25.5012C66.1713 24.0568 68.7898 22.6078 71.9595 21.0703C71.3289 22.8307 70.7167 24.866 71.6465 26.489C72.5489 28.0632 74.5582 28.593 76.369 28.7045C81.7297 29.0297 86.9255 26.9822 91.8342 24.8049L91.8327 24.8065Z" fill="url(#paint52_linear_28963_363153)"/>
<path d="M102.243 40.6956C102.209 40.8299 102.174 40.9627 102.141 41.0956C101.896 42.03 101.615 42.9553 101.296 43.8714C101.078 44.5035 100.843 45.131 100.588 45.7524C100.043 46.2853 99.4337 46.751 98.7832 47.0517C98.6657 47.5754 98.5466 48.0976 98.4366 48.629C97.9679 49.1206 97.4992 49.6092 97.0075 50.0565C95.2929 55.3088 92.9584 60.3565 89.952 65.0912C88.7688 66.9524 87.4801 68.7663 86.0846 70.5237C78.4886 64.4469 64.4845 49.2336 61.6645 36.2265C61.6156 36.0662 62.3347 35.4982 62.9974 35.3074C63.034 35.2967 63.0692 35.289 63.1012 35.2799C62.5913 35.1593 62.7653 34.4325 63.2921 33.9073C65.1273 33.6217 66.9687 33.2675 68.81 32.8461C69.1474 32.7682 69.4879 32.6889 69.8254 32.6064C69.8406 32.6034 69.8559 32.5988 69.8727 32.5957C71.169 32.2797 72.4622 31.9315 73.7509 31.5483C74.8822 31.2124 76.009 30.8506 77.1282 30.4643C83.1134 28.3969 88.8741 25.6089 93.9905 22.1446C94.4928 21.8041 95.1081 21.6819 95.7051 21.7903C98.1572 22.2408 99.8627 22.74 102.316 22.6255C103.739 28.516 103.736 34.7379 102.248 40.6925L102.243 40.6956Z" fill="url(#paint53_linear_28963_363153)"/>
<path style="mix-blend-mode:multiply" opacity="0.35" d="M99.138 26.0991C98.8464 25.6533 98.4738 25.2609 98.1456 24.838C97.5379 24.0669 96.8798 23.3371 96.2615 22.5737C96.0859 22.4027 95.8233 22.6607 95.9958 22.8393C96.9165 23.9554 98.0005 25.1693 98.7792 26.2243C98.8555 26.2793 98.7624 26.574 98.7319 26.6228C98.6678 26.7892 98.5319 26.9267 98.4845 27.0961C98.454 27.2366 98.6082 27.3649 98.7426 27.3221C98.8617 27.287 98.9029 27.1603 98.9639 27.0656C99.1166 26.7786 99.2754 26.4182 99.1365 26.0976L99.138 26.0991Z" fill="url(#paint54_linear_28963_363153)"/>
<path style="mix-blend-mode:multiply" opacity="0.24" d="M101.296 43.8729C101.078 44.505 100.843 45.1325 100.588 45.7539C100.043 46.2868 99.4337 46.7525 98.7832 47.0532C98.6657 47.5769 98.5466 48.0991 98.4366 48.6304C97.9679 49.1221 97.4992 49.6107 97.0075 50.058C95.2929 55.3103 92.9584 60.358 89.952 65.0927C88.7688 66.9539 87.4801 68.7678 86.0846 70.5252C78.4886 64.4484 64.4845 49.2351 61.6645 36.228C61.6156 36.0677 62.3347 35.4997 62.9974 35.3089C63.034 35.2982 63.0692 35.2905 63.1012 35.2814C62.5913 35.1608 62.7653 34.434 63.2921 33.9088C65.1273 33.6232 66.9687 33.269 68.81 32.8476C69.1474 32.7697 69.4879 32.6904 69.8254 32.6079C69.8406 32.6048 69.8559 32.6003 69.8727 32.5972C71.169 32.2812 72.4622 31.933 73.7509 31.5498C72.9584 33.8904 73.8684 36.7303 75.6105 38.587C79.394 42.6193 94.0256 47.0196 100.301 44.3782C100.643 44.2347 100.979 44.0652 101.301 43.8713L101.296 43.8729Z" fill="url(#paint55_linear_28963_363153)"/>
<path style="mix-blend-mode:multiply" opacity="0.35" d="M69.2185 39.8244C69.159 39.6717 68.9727 39.6183 68.8552 39.516C67.5711 38.6258 66.5466 37.8838 65.4717 37.0165C64.89 36.5463 64.3205 36.0592 63.7769 35.5432C63.5662 35.337 63.2517 35.6485 63.4578 35.8623C64.6335 36.9142 65.8916 37.8731 67.168 38.7999C67.5283 39.0594 67.8887 39.319 68.249 39.577C68.4811 39.7206 68.7575 39.9847 68.9956 40.0778C69.1331 40.1068 69.2598 39.9572 69.2185 39.8244Z" fill="url(#paint56_linear_28963_363153)"/>
<g opacity="0.2">
<path d="M96.9665 51.6113C96.51 56.6086 96.0016 61.7831 93.5098 66.1391C95.0229 61.4792 96.1161 56.6819 96.9665 51.6113Z" fill="url(#paint57_linear_28963_363153)"/>
</g>
<path style="mix-blend-mode:multiply" opacity="0.35" d="M84.8533 51.0114C84.8213 50.9641 84.7801 50.9259 84.7236 50.9106C84.5785 50.8556 84.4334 50.7976 84.2884 50.7396C80.9645 49.4082 77.5169 47.0523 74.4388 44.8751C73.7197 44.3697 72.5456 43.504 72.1547 43.1955C71.9196 43.0123 71.6875 42.8261 71.4615 42.6321C71.4065 42.5833 71.3501 42.5283 71.2707 42.5314C71.0997 42.5268 71.0004 42.7558 71.1287 42.8749C73.057 44.5208 75.1824 45.9286 77.2772 47.3531C79.5812 48.8601 81.9401 50.3228 84.5251 51.3C84.719 51.4206 84.974 51.2312 84.8549 51.0114H84.8533Z" fill="url(#paint58_linear_28963_363153)"/>
<path style="mix-blend-mode:multiply" opacity="0.35" d="M81.5129 44.93C81.4473 44.8704 81.3541 44.8582 81.2763 44.82C78.1218 43.536 74.8193 41.69 71.7779 39.8426C71.045 39.3891 70.309 38.9387 69.6037 38.444C69.4418 38.3341 69.3319 38.2562 69.2555 38.186C69.2006 38.1371 69.1456 38.0791 69.0662 38.0821C68.9044 38.0776 68.8112 38.2944 68.9318 38.4074C69.5273 38.9463 70.2281 39.3555 70.9015 39.7891C71.8343 40.3693 72.7779 40.9358 73.7337 41.4778C76.0866 42.8138 78.4837 44.0765 80.9816 45.1224C81.1404 45.1666 81.3083 45.327 81.4732 45.243C81.5832 45.1804 81.6045 45.0185 81.5129 44.9315V44.93Z" fill="url(#paint59_linear_28963_363153)"/>
<path style="mix-blend-mode:multiply" opacity="0.35" d="M98.0979 47.0027C95.9146 47.8181 93.8121 48.4349 91.5891 48.4792C91.3952 48.496 91.1875 48.4624 90.9997 48.5143C90.8119 48.5799 90.7982 48.8624 90.9707 48.9555C91.0852 49.0166 91.2242 48.98 91.3494 48.9846C91.6715 48.9693 91.9922 48.9387 92.3128 48.9113C93.1419 48.838 93.9709 48.7387 94.7802 48.5357C95.9329 48.2364 97.0566 47.8303 98.1682 47.4028C98.4506 47.3508 98.388 46.9447 98.0995 47.0027H98.0979Z" fill="url(#paint60_linear_28963_363153)"/>
<path style="mix-blend-mode:multiply" opacity="0.35" d="M96.0052 50.5102C94.8952 51.0354 93.4645 51.4873 92.0949 51.7041C90.8674 51.9011 89.052 51.8461 87.6167 51.6293C87.5404 51.6202 87.5832 51.6202 87.432 51.6095C87.3679 51.6049 87.3037 51.6309 87.2595 51.6751C87.1541 51.7759 87.1785 51.9622 87.3053 52.0339C87.4381 52.0889 87.3511 52.0523 87.5206 52.0813C89.4474 52.3088 91.4292 52.3866 93.324 51.8981C94.0386 51.7133 94.7379 51.4736 95.425 51.2064C95.6448 51.1178 95.8647 51.0278 96.0784 50.9255C96.167 50.8812 96.2785 50.8461 96.3044 50.7392C96.3563 50.5712 96.1563 50.4155 96.0067 50.5102H96.0052Z" fill="url(#paint61_linear_28963_363153)"/>
<defs>
<linearGradient id="paint0_linear_28963_363153" x1="34.6284" y1="158.581" x2="52.2511" y2="58.5261" gradientUnits="userSpaceOnUse">
<stop stop-color="#454347"/>
<stop offset="1" stop-color="#626163"/>
</linearGradient>
<linearGradient id="paint1_linear_28963_363153" x1="20.5689" y1="156.328" x2="33.3348" y2="83.8506" gradientUnits="userSpaceOnUse">
<stop stop-color="#454347"/>
<stop offset="1" stop-color="#626163"/>
</linearGradient>
<linearGradient id="paint2_linear_28963_363153" x1="68.8451" y1="60.0987" x2="82.5637" y2="24.0976" gradientUnits="userSpaceOnUse">
<stop stop-color="#FFC493"/>
<stop offset="1" stop-color="#FFB073"/>
</linearGradient>
<linearGradient id="paint3_linear_28963_363153" x1="73.7586" y1="48.0881" x2="65.0633" y2="69.6515" gradientUnits="userSpaceOnUse">
<stop stop-color="#363636"/>
<stop offset="1" stop-color="#131313"/>
</linearGradient>
<linearGradient id="paint4_linear_28963_363153" x1="83.8994" y1="95.7037" x2="6.79144" y2="95.7037" gradientUnits="userSpaceOnUse">
<stop stop-color="#454347"/>
<stop offset="1" stop-color="#626163"/>
</linearGradient>
<linearGradient id="paint5_linear_28963_363153" x1="123.806" y1="68.6345" x2="12.0959" y2="166.483" gradientUnits="userSpaceOnUse">
<stop stop-color="#363636"/>
<stop offset="1" stop-color="#131313"/>
</linearGradient>
<linearGradient id="paint6_linear_28963_363153" x1="123.808" y1="68.636" x2="12.0974" y2="166.484" gradientUnits="userSpaceOnUse">
<stop stop-color="#363636"/>
<stop offset="1" stop-color="#131313"/>
</linearGradient>
<linearGradient id="paint7_linear_28963_363153" x1="21.7422" y1="73.3551" x2="92.865" y2="73.3551" gradientUnits="userSpaceOnUse">
<stop stop-color="#454347"/>
<stop offset="1" stop-color="#626163"/>
</linearGradient>
<linearGradient id="paint8_linear_28963_363153" x1="6.93164" y1="55.7323" x2="52.6785" y2="138.78" gradientUnits="userSpaceOnUse">
<stop stop-color="#363636"/>
<stop offset="1" stop-color="#131313"/>
</linearGradient>
<linearGradient id="paint9_linear_28963_363153" x1="92.3244" y1="66.3508" x2="92.2511" y2="66.4119" gradientUnits="userSpaceOnUse">
<stop stop-color="#363636"/>
<stop offset="1" stop-color="#131313"/>
</linearGradient>
<linearGradient id="paint10_linear_28963_363153" x1="18.1286" y1="66.6474" x2="46.5826" y2="118.303" gradientUnits="userSpaceOnUse">
<stop stop-color="#363636"/>
<stop offset="1" stop-color="#131313"/>
</linearGradient>
<linearGradient id="paint11_linear_28963_363153" x1="5.68671" y1="67.7239" x2="46.0301" y2="140.963" gradientUnits="userSpaceOnUse">
<stop stop-color="#363636"/>
<stop offset="1" stop-color="#131313"/>
</linearGradient>
<linearGradient id="paint12_linear_28963_363153" x1="1.93377" y1="70.0206" x2="42.181" y2="143.084" gradientUnits="userSpaceOnUse">
<stop stop-color="#363636"/>
<stop offset="1" stop-color="#131313"/>
</linearGradient>
<linearGradient id="paint13_linear_28963_363153" x1="34.1887" y1="54.331" x2="38.3233" y2="61.8369" gradientUnits="userSpaceOnUse">
<stop stop-color="#363636"/>
<stop offset="1" stop-color="#131313"/>
</linearGradient>
<linearGradient id="paint14_linear_28963_363153" x1="29.7026" y1="49.6597" x2="44.8533" y2="67.1388" gradientUnits="userSpaceOnUse">
<stop stop-color="#363636"/>
<stop offset="1" stop-color="#131313"/>
</linearGradient>
<linearGradient id="paint15_linear_28963_363153" x1="38.6223" y1="51.0502" x2="24.8686" y2="93.2396" gradientUnits="userSpaceOnUse">
<stop stop-color="#363636"/>
<stop offset="1" stop-color="#131313"/>
</linearGradient>
<linearGradient id="paint16_linear_28963_363153" x1="42.0296" y1="56.8505" x2="42.2984" y2="55.3221" gradientUnits="userSpaceOnUse">
<stop stop-color="#454347"/>
<stop offset="1" stop-color="#626163"/>
</linearGradient>
<linearGradient id="paint17_linear_28963_363153" x1="42.0707" y1="56.7392" x2="42.3394" y2="55.2123" gradientUnits="userSpaceOnUse">
<stop stop-color="#454347"/>
<stop offset="1" stop-color="#626163"/>
</linearGradient>
<linearGradient id="paint18_linear_28963_363153" x1="42.0554" y1="56.7405" x2="42.2798" y2="55.4687" gradientUnits="userSpaceOnUse">
<stop stop-color="#454347"/>
<stop offset="1" stop-color="#626163"/>
</linearGradient>
<linearGradient id="paint19_linear_28963_363153" x1="68.4867" y1="59.7823" x2="80.3165" y2="28.7388" gradientUnits="userSpaceOnUse">
<stop stop-color="#FFC493"/>
<stop offset="1" stop-color="#FFB073"/>
</linearGradient>
<linearGradient id="paint20_linear_28963_363153" x1="80.5311" y1="-1.99984" x2="73.8436" y2="20.927" gradientUnits="userSpaceOnUse">
<stop stop-color="#363636"/>
<stop offset="1" stop-color="#131313"/>
</linearGradient>
<linearGradient id="paint21_linear_28963_363153" x1="80.3067" y1="-1.23142" x2="73.8008" y2="21.074" gradientUnits="userSpaceOnUse">
<stop stop-color="#363636"/>
<stop offset="1" stop-color="#131313"/>
</linearGradient>
<linearGradient id="paint22_linear_28963_363153" x1="103.589" y1="17.5354" x2="70.8373" y2="40.6653" gradientUnits="userSpaceOnUse">
<stop stop-color="#FFC493"/>
<stop offset="1" stop-color="#FFB073"/>
</linearGradient>
<linearGradient id="paint23_linear_28963_363153" x1="90.7816" y1="40.6392" x2="85.6805" y2="30.1484" gradientUnits="userSpaceOnUse">
<stop stop-color="#FFF4EF"/>
<stop offset="1" stop-color="#F6DFD7"/>
</linearGradient>
<linearGradient id="paint24_linear_28963_363153" x1="85.9762" y1="42.1325" x2="86.6129" y2="33.9594" gradientUnits="userSpaceOnUse">
<stop stop-color="#FFF4EF"/>
<stop offset="1" stop-color="#F6DFD7"/>
</linearGradient>
<linearGradient id="paint25_linear_28963_363153" x1="97.5593" y1="26.9202" x2="84.6041" y2="19.4433" gradientUnits="userSpaceOnUse">
<stop stop-color="#FF9762"/>
<stop offset="1" stop-color="#FFB073"/>
</linearGradient>
<linearGradient id="paint26_linear_28963_363153" x1="75.6254" y1="28.5382" x2="94.6726" y2="12.4881" gradientUnits="userSpaceOnUse">
<stop stop-color="#454347"/>
<stop offset="1" stop-color="#626163"/>
</linearGradient>
<linearGradient id="paint27_linear_28963_363153" x1="78.4485" y1="5.35154" x2="78.4485" y2="37.2379" gradientUnits="userSpaceOnUse">
<stop stop-color="#363636"/>
<stop offset="1" stop-color="#131313"/>
</linearGradient>
<linearGradient id="paint28_linear_28963_363153" x1="83.1405" y1="15.2515" x2="83.1405" y2="26.944" gradientUnits="userSpaceOnUse">
<stop stop-color="#363636"/>
<stop offset="1" stop-color="#131313"/>
</linearGradient>
<linearGradient id="paint29_linear_28963_363153" x1="83.0718" y1="19.598" x2="83.0718" y2="25.6641" gradientUnits="userSpaceOnUse">
<stop stop-color="#363636"/>
<stop offset="1" stop-color="#131313"/>
</linearGradient>
<linearGradient id="paint30_linear_28963_363153" x1="96.0767" y1="11.8663" x2="96.0767" y2="21.1815" gradientUnits="userSpaceOnUse">
<stop stop-color="#363636"/>
<stop offset="1" stop-color="#131313"/>
</linearGradient>
<linearGradient id="paint31_linear_28963_363153" x1="66.0248" y1="20.0914" x2="63.3788" y2="25.5636" gradientUnits="userSpaceOnUse">
<stop stop-color="#161616"/>
<stop offset="1"/>
</linearGradient>
<linearGradient id="paint32_linear_28963_363153" x1="70.4488" y1="16.0392" x2="67.9891" y2="21.1236" gradientUnits="userSpaceOnUse">
<stop stop-color="#161616"/>
<stop offset="1"/>
</linearGradient>
<linearGradient id="paint33_linear_28963_363153" x1="75.4793" y1="12.5132" x2="72.9921" y2="17.6555" gradientUnits="userSpaceOnUse">
<stop stop-color="#161616"/>
<stop offset="1"/>
</linearGradient>
<linearGradient id="paint34_linear_28963_363153" x1="81.6595" y1="9.24945" x2="79.328" y2="14.0712" gradientUnits="userSpaceOnUse">
<stop stop-color="#161616"/>
<stop offset="1"/>
</linearGradient>
<linearGradient id="paint35_linear_28963_363153" x1="87.0642" y1="7.10448" x2="84.7602" y2="11.8682" gradientUnits="userSpaceOnUse">
<stop stop-color="#161616"/>
<stop offset="1"/>
</linearGradient>
<linearGradient id="paint36_linear_28963_363153" x1="92.7009" y1="5.46886" x2="90.4702" y2="10.0829" gradientUnits="userSpaceOnUse">
<stop stop-color="#161616"/>
<stop offset="1"/>
</linearGradient>
<linearGradient id="paint37_linear_28963_363153" x1="75.7307" y1="12.9267" x2="75.7307" y2="35.0092" gradientUnits="userSpaceOnUse">
<stop stop-color="#363636"/>
<stop offset="1" stop-color="#131313"/>
</linearGradient>
<linearGradient id="paint38_linear_28963_363153" x1="91.194" y1="7.58001" x2="92.5749" y2="8.39386" gradientUnits="userSpaceOnUse">
<stop stop-color="#FFF4EF"/>
<stop offset="1" stop-color="#F6DFD7"/>
</linearGradient>
<linearGradient id="paint39_linear_28963_363153" x1="80.3013" y1="14.1742" x2="80.1852" y2="12.8993" gradientUnits="userSpaceOnUse">
<stop stop-color="#FFF4EF"/>
<stop offset="1" stop-color="#F6DFD7"/>
</linearGradient>
<linearGradient id="paint40_linear_28963_363153" x1="96.0782" y1="13.1489" x2="96.0782" y2="20.8044" gradientUnits="userSpaceOnUse">
<stop stop-color="#363636"/>
<stop offset="1" stop-color="#131313"/>
</linearGradient>
<linearGradient id="paint41_linear_28963_363153" x1="126.984" y1="40.8022" x2="81.7868" y2="65.0971" gradientUnits="userSpaceOnUse">
<stop stop-color="#363636"/>
<stop offset="1" stop-color="#131313"/>
</linearGradient>
<linearGradient id="paint42_linear_28963_363153" x1="83.5772" y1="24.399" x2="86.0445" y2="14.3921" gradientUnits="userSpaceOnUse">
<stop stop-color="#FFFAF4"/>
<stop offset="1" stop-color="#FAECDD"/>
</linearGradient>
<linearGradient id="paint43_linear_28963_363153" x1="86.1098" y1="23.2762" x2="88.2" y2="14.8023" gradientUnits="userSpaceOnUse">
<stop stop-color="#FFFAF4"/>
<stop offset="1" stop-color="#FAECDD"/>
</linearGradient>
<linearGradient id="paint44_linear_28963_363153" x1="96.5438" y1="19.2578" x2="98.4432" y2="11.558" gradientUnits="userSpaceOnUse">
<stop stop-color="#FFFAF4"/>
<stop offset="1" stop-color="#FAECDD"/>
</linearGradient>
<linearGradient id="paint45_linear_28963_363153" x1="99.1393" y1="17.9429" x2="100.016" y2="14.3915" gradientUnits="userSpaceOnUse">
<stop stop-color="#FFFAF4"/>
<stop offset="1" stop-color="#FAECDD"/>
</linearGradient>
<linearGradient id="paint46_linear_28963_363153" x1="101.252" y1="56.1097" x2="72.0618" y2="36.9755" gradientUnits="userSpaceOnUse">
<stop stop-color="#FFC493"/>
<stop offset="1" stop-color="#FFB073"/>
</linearGradient>
<linearGradient id="paint47_linear_28963_363153" x1="64.7718" y1="33.5451" x2="69.8699" y2="33.5451" gradientUnits="userSpaceOnUse">
<stop stop-color="#FFC493"/>
<stop offset="1" stop-color="#FFB073"/>
</linearGradient>
<linearGradient id="paint48_linear_28963_363153" x1="69.1409" y1="50.1249" x2="37.9646" y2="68.9767" gradientUnits="userSpaceOnUse">
<stop stop-color="#363636"/>
<stop offset="1" stop-color="#131313"/>
</linearGradient>
<linearGradient id="paint49_linear_28963_363153" x1="69.141" y1="50.1249" x2="37.9646" y2="68.9767" gradientUnits="userSpaceOnUse">
<stop stop-color="#363636"/>
<stop offset="1" stop-color="#131313"/>
</linearGradient>
<linearGradient id="paint50_linear_28963_363153" x1="67.8405" y1="63.5567" x2="66.3198" y2="67.4623" gradientUnits="userSpaceOnUse">
<stop stop-color="#B8B8B8"/>
<stop offset="0.31" stop-color="#AEADAE"/>
<stop offset="0.85" stop-color="#949294"/>
<stop offset="1" stop-color="#8C898C"/>
</linearGradient>
<linearGradient id="paint51_linear_28963_363153" x1="67.5489" y1="64.0614" x2="66.3259" y2="67.2051" gradientUnits="userSpaceOnUse">
<stop stop-color="#B8B8B8"/>
<stop offset="0.31" stop-color="#AEADAE"/>
<stop offset="0.85" stop-color="#949294"/>
<stop offset="1" stop-color="#8C898C"/>
</linearGradient>
<linearGradient id="paint52_linear_28963_363153" x1="88.1256" y1="18.0869" x2="63.4321" y2="35.5263" gradientUnits="userSpaceOnUse">
<stop stop-color="#FFC493"/>
<stop offset="1" stop-color="#FFB073"/>
</linearGradient>
<linearGradient id="paint53_linear_28963_363153" x1="70.3811" y1="60.7902" x2="97.5022" y2="10.814" gradientUnits="userSpaceOnUse">
<stop stop-color="#454347"/>
<stop offset="1" stop-color="#626163"/>
</linearGradient>
<linearGradient id="paint54_linear_28963_363153" x1="98.1318" y1="23.4653" x2="96.7149" y2="26.3968" gradientUnits="userSpaceOnUse">
<stop stop-color="#161616"/>
<stop offset="1"/>
</linearGradient>
<linearGradient id="paint55_linear_28963_363153" x1="83.7027" y1="32.4064" x2="75.5556" y2="60.3382" gradientUnits="userSpaceOnUse">
<stop stop-color="#363636"/>
<stop offset="1" stop-color="#131313"/>
</linearGradient>
<linearGradient id="paint56_linear_28963_363153" x1="66.7145" y1="36.9478" x2="65.9206" y2="38.5922" gradientUnits="userSpaceOnUse">
<stop stop-color="#161616"/>
<stop offset="1"/>
</linearGradient>
<linearGradient id="paint57_linear_28963_363153" x1="93.8243" y1="66.217" x2="97.3986" y2="51.7182" gradientUnits="userSpaceOnUse">
<stop stop-color="#FFFAF4"/>
<stop offset="1" stop-color="#FAECDD"/>
</linearGradient>
<linearGradient id="paint58_linear_28963_363153" x1="78.4391" y1="45.9759" x2="77.4665" y2="47.9867" gradientUnits="userSpaceOnUse">
<stop stop-color="#161616"/>
<stop offset="1"/>
</linearGradient>
<linearGradient id="paint59_linear_28963_363153" x1="75.4728" y1="41.1602" x2="74.9323" y2="42.2763" gradientUnits="userSpaceOnUse">
<stop stop-color="#161616"/>
<stop offset="1"/>
</linearGradient>
<linearGradient id="paint60_linear_28963_363153" x1="95.6596" y1="45.7675" x2="93.522" y2="50.1892" gradientUnits="userSpaceOnUse">
<stop stop-color="#161616"/>
<stop offset="1"/>
</linearGradient>
<linearGradient id="paint61_linear_28963_363153" x1="92.8889" y1="48.907" x2="90.6047" y2="53.6295" gradientUnits="userSpaceOnUse">
<stop stop-color="#161616"/>
<stop offset="1"/>
</linearGradient>
</defs>
</svg>
