<svg width="2000" height="2000" viewBox="0 0 2000 2000" fill="none" xmlns="http://www.w3.org/2000/svg">
<path d="M1408.14 864.16C1407.75 866.85 1406.43 869.3 1405.07 871.65C1398.37 883.29 1390.48 894.11 1382.18 904.67C1370.94 918.99 1358.97 932.83 1348.25 947.55C1344.15 953.19 1340.07 959.48 1340.2 966.44C1340.3 971.54 1342.61 976.14 1345.56 980.41C1347.01 982.51 1348.63 984.53 1350.21 986.48C1358.53 996.79 1366.68 1007.24 1374.64 1017.83C1376.58 1020.42 1378.62 1023.41 1378.16 1026.6C1378.16 1026.65 1378.15 1026.7 1378.14 1026.75C1378.03 1027.42 1377.81 1028.04 1377.49 1028.62C1376.16 1031.09 1373.24 1032.67 1370.36 1032.97C1366.81 1033.34 1363.3 1032.21 1359.88 1031.22C1342.24 1026.1 1323.69 1024.18 1305.36 1025.51C1300.47 1025.86 1295.59 1026.46 1290.75 1027.28C1287.68 1004.71 1284.47 983.59 1281.05 958.44C1282.69 957.09 1284.43 955.61 1286.27 954C1316.81 927.55 1374.11 870 1397.11 855.49C1399.65 853.89 1403.43 854.82 1405.75 856.73C1407.85 858.44 1408.54 861.46 1408.13 864.13L1408.14 864.16Z" fill="url(#paint0_linear_26486_105387)"/>
<path style="mix-blend-mode:multiply" opacity="0.29" d="M1378.15 1026.61C1378.15 1026.61 1378.14 1026.71 1378.13 1026.76C1378.02 1027.43 1377.8 1028.05 1377.48 1028.63C1376.15 1031.1 1373.23 1032.68 1370.35 1032.98C1366.8 1033.35 1363.29 1032.22 1359.87 1031.23C1342.23 1026.11 1323.68 1024.19 1305.35 1025.52C1300.46 1025.87 1295.58 1026.47 1290.74 1027.29C1287.67 1004.72 1284.46 983.6 1281.04 958.45C1282.68 957.1 1284.42 955.62 1286.26 954.01C1287.97 970.76 1291.34 987.56 1302.09 1000.17C1312.55 1012.44 1328.36 1018.63 1343.72 1023.5C1350.99 1025.81 1358.41 1027.94 1366.02 1028.17C1370.1 1028.3 1374.27 1027.82 1378.14 1026.61H1378.15Z" fill="url(#paint1_linear_26486_105387)"/>
<path d="M766.382 1797.71C764.722 1798.66 762.772 1799.6 760.542 1800.51C743.722 1807.37 710.352 1801.76 698.602 1790.01C666.732 1758.15 633.182 1740.65 629.612 1734.68C625.822 1728.34 624.872 1719.59 625.242 1711.05C625.482 1705.04 626.382 1699.14 627.392 1694.28C631.452 1674.76 644.152 1655.19 654.502 1638.16C676.692 1647.08 694.982 1652.48 718.792 1654.77C718.612 1660.94 721.422 1669.39 721.412 1675.59C721.412 1678.75 721.432 1681.9 721.542 1685.04C721.542 1685.13 721.542 1685.21 721.542 1685.3C721.922 1696.43 723.132 1707.48 726.172 1718.18C729.972 1731.52 736.972 1744.39 747.322 1753.76C757.722 1763.18 765.862 1770.82 770.402 1777.25C772.232 1779.83 773.472 1782.21 774.042 1784.44C775.372 1789.56 773.172 1793.84 766.362 1797.72L766.382 1797.71Z" fill="url(#paint2_linear_26486_105387)"/>
<path style="mix-blend-mode:multiply" opacity="0.29" d="M766.382 1797.71C764.722 1798.66 762.772 1799.6 760.542 1800.51C743.722 1807.37 710.352 1801.76 698.602 1790.01C666.732 1758.15 633.182 1740.65 629.612 1734.68C625.822 1728.34 624.872 1719.59 625.242 1711.05C625.482 1705.04 626.382 1699.14 627.392 1694.28C631.452 1674.76 644.152 1655.19 654.502 1638.16C676.692 1647.08 694.982 1652.48 718.792 1654.77C718.612 1660.94 721.422 1669.39 721.412 1675.59C721.412 1678.75 721.432 1681.9 721.542 1685.04C721.542 1685.13 721.542 1685.21 721.542 1685.3C704.452 1681.76 687.242 1678.49 669.812 1677.98C659.682 1677.69 647.782 1679.33 642.752 1688.14C639.072 1694.56 640.522 1702.88 644.262 1709.26C648.002 1715.64 653.722 1720.57 659.042 1725.71C670.282 1736.56 680.152 1748.76 691.472 1759.52C702.782 1770.28 715.932 1779.75 731.082 1783.54C744.372 1786.86 759.412 1785.14 770.412 1777.27C772.242 1779.85 773.482 1782.23 774.052 1784.46C775.382 1789.58 773.182 1793.86 766.372 1797.74L766.382 1797.71Z" fill="url(#paint3_linear_26486_105387)"/>
<path d="M766.382 1797.71C764.722 1798.66 762.772 1799.6 760.542 1800.51C743.722 1807.37 710.352 1801.76 698.602 1790.01C666.732 1758.15 633.182 1740.65 629.612 1734.68C625.822 1728.34 624.872 1719.59 625.242 1711.05C628.802 1718.25 634.582 1724.32 640.882 1729.39C648.452 1735.49 656.912 1740.39 664.752 1746.13C678.722 1756.36 690.642 1769.18 704.522 1779.54C718.402 1789.9 735.202 1797.93 752.452 1796.32C757.972 1795.81 763.502 1794.25 768.012 1791.03C770.442 1789.29 772.542 1787.02 774.042 1784.44C775.372 1789.56 773.172 1793.84 766.362 1797.72L766.382 1797.71Z" fill="#CFCFCF"/>
<path style="mix-blend-mode:multiply" opacity="0.5" d="M724.143 1712.77C724.143 1712.77 724.092 1712.79 724.062 1712.81C724.322 1712.7 724.313 1712.71 724.143 1712.77Z" fill="url(#paint4_linear_26486_105387)"/>
<path d="M726.911 1710.1C726.841 1709.14 725.931 1708.41 724.991 1708.4C723.961 1708.44 723.141 1709.23 722.191 1709.56C721.591 1709.84 718.581 1711.07 716.481 1711.54C711.921 1712.79 707.941 1712.79 702.371 1712.42C702.261 1712.41 702.161 1712.4 702.051 1712.39C702.021 1712.39 702.001 1712.39 701.971 1712.39C701.681 1712.35 701.391 1712.29 701.111 1712.22C700.571 1712.03 699.961 1712.03 699.471 1712.33C698.111 1713.07 698.391 1715.28 699.901 1715.65C706.961 1717.47 714.781 1716.49 721.501 1713.83C721.971 1713.68 723.671 1712.97 724.131 1712.78C724.501 1712.62 724.611 1712.58 724.091 1712.8C725.361 1712.38 727.221 1711.81 726.901 1710.11L726.911 1710.1Z" fill="url(#paint5_linear_26486_105387)"/>
<path d="M730.82 1724.11C730.75 1723.12 729.8 1722.36 728.83 1722.35C727.6 1722.4 726.75 1723.49 725.71 1724.02C723.46 1725.37 723.17 1725.5 720.59 1726.25C716.2 1727.27 714.24 1727.58 709.64 1727.59C708.19 1727.51 708.44 1727.52 707.87 1727.42C707.31 1727.25 706.68 1727.25 706.17 1727.56C704.72 1728.34 705.03 1730.69 706.63 1731.08C712.78 1732.2 719.24 1730.9 724.96 1728.53C723.98 1728.97 726.53 1727.9 727.02 1727.67C728.46 1726.85 731.09 1726.18 730.82 1724.1V1724.11Z" fill="url(#paint6_linear_26486_105387)"/>
<path d="M974.874 1771.87C973.454 1773.01 971.754 1774.17 969.784 1775.35C954.964 1784.26 922.754 1783.86 909.984 1774.53C875.354 1749.22 841.244 1737.66 837.014 1732.57C832.524 1727.16 830.354 1719.06 829.454 1710.98C828.804 1705.3 828.784 1699.61 829.024 1694.89C829.994 1675.93 839.074 1655.67 846.324 1638.14C868.504 1643.28 886.494 1645.69 909.224 1644.36C909.954 1650.19 913.834 1657.73 914.734 1663.56C915.184 1666.53 915.674 1669.49 916.234 1672.43C916.244 1672.51 916.264 1672.59 916.284 1672.68C918.264 1683.1 921.014 1693.31 925.444 1702.93C930.964 1714.93 939.434 1726 950.544 1733.3C961.704 1740.64 970.474 1746.63 975.684 1752.02C977.784 1754.18 979.294 1756.24 980.154 1758.25C982.154 1762.87 980.704 1767.22 974.874 1771.87Z" fill="url(#paint7_linear_26486_105387)"/>
<path style="mix-blend-mode:multiply" opacity="0.29" d="M974.874 1771.87C973.454 1773.01 971.754 1774.17 969.784 1775.35C954.964 1784.26 922.754 1783.86 909.984 1774.53C875.354 1749.22 841.244 1737.66 837.014 1732.57C832.524 1727.16 830.354 1719.06 829.454 1710.98C828.804 1705.3 828.784 1699.61 829.024 1694.89C829.994 1675.93 839.074 1655.67 846.324 1638.14C868.504 1643.28 886.494 1645.69 909.224 1644.36C909.954 1650.19 913.834 1657.73 914.734 1663.56C915.184 1666.53 915.674 1669.49 916.234 1672.43C916.244 1672.51 916.264 1672.59 916.284 1672.68C899.684 1671.85 883.024 1671.29 866.554 1673.35C856.984 1674.56 846.034 1677.84 842.584 1686.86C840.064 1693.44 842.634 1701.05 847.094 1706.5C851.544 1711.96 857.644 1715.76 863.394 1719.81C875.554 1728.37 886.614 1738.4 898.834 1746.87C911.044 1755.33 924.794 1762.32 939.604 1763.67C952.594 1764.85 966.484 1761.04 975.684 1752.02C977.784 1754.18 979.294 1756.24 980.154 1758.25C982.154 1762.87 980.704 1767.22 974.874 1771.87Z" fill="url(#paint8_linear_26486_105387)"/>
<path d="M974.873 1771.87C973.453 1773.01 971.753 1774.17 969.783 1775.35C954.963 1784.26 922.753 1783.86 909.983 1774.53C875.353 1749.22 841.243 1737.66 837.013 1732.57C832.523 1727.16 830.353 1719.06 829.453 1710.98C833.853 1717.23 840.173 1722.1 846.843 1725.95C854.853 1730.58 863.523 1733.95 871.743 1738.21C886.383 1745.79 899.463 1756.1 914.033 1763.82C928.603 1771.54 945.573 1776.63 961.563 1772.6C966.683 1771.31 971.653 1769.04 975.423 1765.35C977.453 1763.36 979.103 1760.92 980.133 1758.27C982.133 1762.89 980.683 1767.24 974.853 1771.89L974.873 1771.87Z" fill="#CFCFCF"/>
<path style="mix-blend-mode:multiply" opacity="0.5" d="M922.722 1698.16C922.722 1698.16 922.672 1698.19 922.652 1698.21C922.882 1698.07 922.872 1698.08 922.722 1698.16Z" fill="url(#paint9_linear_26486_105387)"/>
<path d="M924.94 1695.24C924.74 1694.35 923.77 1693.8 922.89 1693.93C921.92 1694.12 921.28 1694.98 920.43 1695.43C919.91 1695.78 917.25 1697.37 915.34 1698.13C911.23 1699.97 907.49 1700.56 902.2 1701.02C902.1 1701.02 902 1701.03 901.9 1701.04C901.88 1701.04 901.85 1701.04 901.83 1701.04C901.55 1701.04 901.27 1701.04 900.99 1701C900.46 1700.9 899.88 1701 899.46 1701.35C898.29 1702.24 898.88 1704.28 900.35 1704.41C907.25 1705.09 914.47 1703.02 920.4 1699.54C920.83 1699.33 922.32 1698.41 922.72 1698.16C923.04 1697.95 923.14 1697.91 922.69 1698.18C923.82 1697.6 925.49 1696.79 924.94 1695.24Z" fill="url(#paint10_linear_26486_105387)"/>
<path d="M930.663 1707.85C930.453 1706.92 929.453 1706.35 928.533 1706.49C927.383 1706.71 926.743 1707.86 925.843 1708.51C923.923 1710.11 923.673 1710.27 921.353 1711.36C917.373 1712.96 915.583 1713.54 911.253 1714.22C909.873 1714.35 910.123 1714.33 909.563 1714.32C909.013 1714.24 908.423 1714.34 907.983 1714.7C906.733 1715.65 907.363 1717.81 908.933 1717.94C914.883 1718.09 920.773 1715.93 925.803 1712.87C924.943 1713.43 927.183 1712.05 927.623 1711.76C928.863 1710.78 931.233 1709.77 930.673 1707.85H930.663Z" fill="url(#paint11_linear_26486_105387)"/>
<path d="M842.071 1632.82C840.301 1637.74 838.551 1648.27 839.651 1654.36C862.041 1663.37 890.631 1666.68 915.061 1665.66C917.251 1658.46 919.281 1648.95 919.831 1641.44L842.081 1632.82H842.071Z" fill="url(#paint12_linear_26486_105387)"/>
<path d="M1257.88 965.02C1266.05 961.54 1273.84 959.95 1281.05 958.46C1287.42 981.31 1292.34 1003.83 1292.88 1026.99C1284.87 1032.2 1275.84 1035.82 1266.46 1037.61L1257.88 965.03V965.02Z" fill="url(#paint13_linear_26486_105387)"/>
<path d="M1276.34 1043.58C1276.05 1044.19 1275.72 1044.78 1275.38 1045.37C1269.74 1055.01 1252.84 1062.29 1242.85 1067.3C1215.37 1081.06 1186.6 1092.57 1156.6 1099.26C1126.61 1105.96 1095.3 1107.78 1065.05 1102.3L1069.56 1084.48C1090.89 1050.26 1108.17 1013.42 1123.28 975.96C1144.98 922.15 1162.43 866.73 1182.85 812.42C1188.27 798.02 1194.45 782.94 1206.7 773.63C1214.28 767.88 1227.03 765.23 1235.45 768.01C1237.54 783.18 1238.84 798.45 1239.35 813.74C1240.97 862.06 1234.73 910.53 1220.52 956.43C1226.89 959.88 1234.55 959.44 1241.79 959.52C1249.04 959.6 1263.57 959.11 1268.47 964.44C1272.15 968.44 1273.34 974.12 1273.66 979.55C1273.98 984.98 1273.55 990.48 1273.85 995.61C1276.44 1003.77 1279.05 1011.99 1279.9 1020.51C1280.67 1028.35 1279.85 1036.54 1276.34 1043.57V1043.58Z" fill="url(#paint14_linear_26486_105387)"/>
<path style="mix-blend-mode:multiply" opacity="0.25" d="M1276.34 1043.58C1276.05 1044.19 1275.72 1044.78 1275.38 1045.37C1269.74 1055.01 1252.84 1062.29 1242.85 1067.3C1215.37 1081.06 1186.6 1092.57 1156.6 1099.26C1126.61 1105.96 1095.3 1107.78 1065.05 1102.3L1069.56 1084.48C1090.89 1050.26 1108.17 1013.42 1123.28 975.96C1144.98 922.15 1162.43 866.73 1182.85 812.42C1188.27 798.02 1194.45 782.94 1206.7 773.63C1214.28 767.88 1227.03 765.23 1235.45 768.01C1237.54 783.18 1238.84 798.45 1239.35 813.74C1232.07 848.46 1217.32 881.76 1200.99 913.48C1179.42 955.37 1154.68 995.9 1138.72 1040.24C1135.58 1048.98 1132.85 1059 1137.12 1067.25C1142.8 1078.23 1157.52 1080.25 1169.88 1079.74C1207.84 1078.15 1245.23 1065.35 1276.34 1043.57V1043.58Z" fill="url(#paint15_linear_26486_105387)"/>
<path opacity="0.97" d="M1248.11 808.42C1247.9 780.08 1246.61 751.76 1244.79 723.48C1243.11 696.45 1240.64 669.47 1236.8 642.66C1235 629.46 1232.86 616.3 1230.63 603.16C1230.51 599.33 1224.81 599.51 1225.49 603.66C1230.19 630.35 1233.76 654.24 1236.55 680.38C1238.9 704.02 1240.32 727.75 1241.55 751.48C1242.54 772.79 1243.27 794.13 1243.24 815.47C1243.18 839.77 1242.38 864.07 1241.74 888.36C1241.58 894.95 1241.32 901.55 1241.4 908.15C1241.45 909.49 1241.43 910.83 1241.45 912.17C1241.36 913.02 1241.72 913.96 1242.58 914.26C1243.71 914.81 1245.18 913.84 1245.13 912.57C1245.27 910.43 1245.34 909.75 1245.42 908.84C1245.94 903.02 1246.08 897.17 1246.34 891.34C1247.32 863.72 1248.24 836.08 1248.11 808.44V808.42Z" fill="url(#paint16_linear_26486_105387)"/>
<path d="M1000.42 1464.87C969.193 1540.22 944.583 1611.92 928.343 1637.38C924.933 1642.72 921.893 1646.03 919.233 1646.9C901.393 1650.22 866.823 1645.84 843.733 1639.07C841.673 1638.47 840.013 1636.9 839.393 1634.84C831.003 1606.96 850.213 1522.26 864.753 1464.6C865.033 1463.49 865.083 1462.35 864.913 1461.26C864.683 1459.64 863.973 1458.12 862.883 1456.88C862.373 1456.29 861.763 1455.76 861.083 1455.32C836.883 1439.71 798.433 1401.34 771.653 1372.3C751.323 1350.27 746.713 1317.46 741.053 1288.02C735.403 1258.58 738.913 1225.45 758.873 1203.1C778.903 1180.67 812.163 1173.45 841.703 1179C871.253 1184.56 906.313 1199.93 918.993 1227.19C926.393 1243.11 933.613 1259.12 940.653 1275.21C941.013 1276.04 941.383 1276.87 941.733 1277.71C963.393 1327.33 983.293 1377.72 1001.41 1428.74C1005.58 1440.48 1005.22 1453.37 1000.45 1464.88L1000.42 1464.87Z" fill="url(#paint17_linear_26486_105387)"/>
<path style="mix-blend-mode:multiply" opacity="0.51" d="M928.331 1637.38C924.921 1642.72 921.881 1646.03 919.221 1646.9C901.381 1650.22 866.811 1645.84 843.721 1639.07C841.661 1638.47 840.001 1636.9 839.381 1634.84C830.991 1606.96 850.201 1522.26 864.741 1464.6C865.021 1463.49 865.071 1462.35 864.901 1461.26C864.671 1459.64 863.961 1458.12 862.871 1456.88C862.361 1456.29 861.751 1455.76 861.071 1455.32C836.871 1439.71 798.421 1401.34 771.641 1372.3C751.311 1350.27 746.701 1317.46 741.041 1288.02C735.391 1258.58 738.901 1225.45 758.861 1203.1C778.891 1180.67 812.151 1173.45 841.691 1179C871.241 1184.56 906.301 1199.93 918.981 1227.19C926.381 1243.11 933.601 1259.12 940.641 1275.21C941.001 1276.04 941.371 1276.87 941.721 1277.71C924.291 1287.38 908.551 1299.97 896.441 1315.71C879.431 1337.81 870.111 1366.48 874.321 1394.05C878.521 1421.62 897.351 1447.28 925.531 1461.33C910.681 1484.54 895.641 1508.17 888.151 1534.68C880.661 1561.19 881.691 1591.48 897.371 1614.12C904.801 1624.85 916.031 1633.1 928.361 1637.39L928.331 1637.38Z" fill="url(#paint18_linear_26486_105387)"/>
<path d="M643.401 1646.9C641.381 1651.27 640.281 1656.06 640.321 1662.2C665.021 1674.64 692.951 1680.57 721.021 1679.82C722.131 1672.48 723.241 1665.14 724.361 1657.8C698.241 1656.93 672.211 1653.13 643.401 1646.9Z" fill="url(#paint19_linear_26486_105387)"/>
<path d="M803.462 1498.88C777.512 1549.55 760.422 1602.51 745.692 1634.66C737.812 1651.87 730.612 1663.11 723.092 1664.83C693.802 1668.51 670.112 1659.5 642.772 1648.35C628.372 1624.65 647.512 1538.18 657.402 1503.55C658.432 1499.94 658.812 1496.21 658.562 1492.53C658.362 1489.7 657.792 1486.89 656.842 1484.19C656.522 1483.29 656.172 1482.39 655.772 1481.52C636.642 1439.45 605.802 1367.57 578.332 1315.73C570.322 1300.63 567.232 1283.41 569.552 1266.48C574.712 1228.81 580.982 1190.7 589.342 1153.98C607.232 1161.84 625.032 1169.56 642.792 1177.22C673.332 1190.41 703.742 1203.42 734.322 1216.66C747.382 1222.32 760.472 1228.01 773.612 1233.78C784.152 1318.74 794.702 1403.7 805.242 1488.65C805.682 1492.15 805.062 1495.72 803.452 1498.86L803.462 1498.88Z" fill="url(#paint20_linear_26486_105387)"/>
<path style="mix-blend-mode:multiply" opacity="0.51" d="M745.692 1634.66C737.812 1651.87 730.612 1663.11 723.092 1664.83C693.802 1668.51 670.112 1659.5 642.772 1648.35C628.372 1624.65 647.512 1538.18 657.402 1503.55C658.432 1499.94 658.812 1496.21 658.562 1492.53C658.362 1489.7 657.792 1486.89 656.842 1484.19C656.522 1483.29 656.172 1482.39 655.772 1481.52C636.642 1439.45 605.802 1367.57 578.332 1315.73C570.322 1300.63 567.232 1283.41 569.552 1266.48C574.712 1228.81 580.982 1190.7 589.342 1153.98C607.232 1161.84 625.032 1169.56 642.792 1177.22C633.812 1181.85 624.272 1188.4 621.062 1197.85C596.242 1271.02 626.802 1398.09 686.492 1484.13C672.802 1516.65 665.272 1551.75 664.402 1587.03C664.102 1599.37 664.812 1612.42 671.482 1622.8C680.152 1636.31 697.392 1642.31 713.442 1641.75C724.502 1641.37 735.202 1638.39 745.672 1634.63L745.692 1634.66Z" fill="url(#paint21_linear_26486_105387)"/>
<path opacity="0.58" d="M718.612 1471.6C718.132 1465.08 716.962 1458.62 715.612 1452.23C713.892 1445.92 712.042 1439.64 710.152 1433.38C706.692 1422.28 702.682 1411.36 698.222 1400.63C694.432 1391.64 689.282 1380.74 686.152 1373.09C674.042 1344.14 663.312 1314.55 655.262 1284.19C653.072 1275.74 650.072 1265.24 649.212 1257.98C648.492 1247.32 648.972 1236.61 649.552 1225.96C650.042 1217.76 650.402 1209.55 651.132 1201.36C651.802 1193.65 652.572 1187.79 653.732 1180.36C653.912 1179.49 653.992 1178.39 652.982 1178.02C652.102 1177.58 650.952 1178.35 650.992 1179.33C648.792 1192.15 647.492 1209.07 646.822 1223.48C646.262 1235.41 645.302 1247.47 646.392 1259.39C647.392 1266.64 649.392 1273.69 651.182 1280.77C653.892 1291.36 656.842 1301.89 660.222 1312.28C669.542 1341.67 681.032 1370.32 693.712 1398.42C699.532 1411.91 705.662 1429.16 709.882 1444.78C712.432 1453.64 714.222 1462.78 714.912 1470.7C715.352 1476.92 715.162 1483.17 714.752 1489.38C713.812 1504.04 710.652 1518.15 706.992 1533.32C702.412 1552.32 697.062 1571.12 691.632 1589.89C687.752 1603.46 682.192 1619.64 677.242 1631.12C675.222 1635.92 673.022 1640.64 670.632 1645.27C670.142 1646.23 669.642 1647.18 669.132 1648.14C668.922 1648.5 668.862 1648.94 668.972 1649.35C669.212 1650.3 670.422 1650.81 671.272 1650.29C672.242 1649.54 672.552 1648.14 673.212 1647.13C674.722 1644.22 676.172 1641.29 677.542 1638.31C683.282 1625.73 688.052 1612.74 692.192 1599.55C698.932 1577.41 705.312 1555.14 710.772 1532.65C715.672 1512.71 719.652 1492.24 718.602 1471.61L718.612 1471.6Z" fill="url(#paint22_linear_26486_105387)"/>
<path style="mix-blend-mode:multiply" d="M695.784 1485.93C686.404 1488.25 676.594 1489 667.084 1490.76C664.254 1491.29 661.414 1491.91 658.564 1492.53C658.364 1489.7 657.794 1486.89 656.844 1484.19C659.134 1483.17 661.434 1482.16 663.734 1481.15C672.404 1477.33 681.614 1472.07 690.874 1469.98C692.344 1469.65 693.074 1471.51 691.884 1472.36C683.704 1478.1 673.144 1481.52 664.024 1485.58C662.464 1486.27 660.884 1487.03 659.284 1487.81C661.844 1487.37 664.414 1486.98 666.934 1486.57C676.274 1485.06 686.024 1483.27 695.494 1483.76C696.694 1483.82 697.054 1485.62 695.784 1485.94V1485.93Z" fill="url(#paint23_linear_26486_105387)"/>
<path d="M1424.94 913.25C1413.12 920.02 1400.53 925.44 1387.5 929.37C1393.67 928.91 1399.69 929.09 1405.63 930.79C1409.14 931.8 1412.99 934.51 1412.43 938.12C1411.98 941.07 1408.87 942.72 1406.12 943.86C1393.59 949.06 1380.7 953.39 1367.57 956.81C1374.43 956.64 1381.37 957.88 1387.99 959.67C1389.7 960.13 1391.54 960.76 1392.46 962.28C1393.64 964.23 1392.69 966.9 1390.96 968.38C1389.22 969.86 1386.92 970.44 1384.7 970.97C1380.29 972.03 1375.9 973.09 1371.49 974.16C1362.85 976.24 1354.21 978.32 1345.57 980.41C1342.62 976.15 1340.31 971.55 1340.21 966.44C1340.08 959.48 1344.16 953.19 1348.26 947.55C1358.97 932.83 1370.95 918.99 1382.19 904.67C1384.64 903.97 1387.11 903.35 1389.6 902.79C1399.85 900.49 1410.37 899.39 1420.87 899.54C1422.99 899.56 1425.16 899.65 1427.12 900.46C1429.08 901.26 1430.82 902.93 1431.14 905.02C1431.7 908.64 1428.13 911.44 1424.95 913.26L1424.94 913.25Z" fill="url(#paint24_linear_26486_105387)"/>
<path style="mix-blend-mode:multiply" opacity="0.47" d="M1371.48 974.17C1362.84 976.25 1354.2 978.33 1345.56 980.42C1342.61 976.16 1340.3 971.56 1340.2 966.45C1340.07 959.49 1344.15 953.2 1348.25 947.56C1358.96 932.84 1370.94 919 1382.18 904.68C1384.63 903.98 1387.1 903.36 1389.59 902.8C1378.97 916.53 1369.02 930.76 1359.78 945.45C1357.27 949.44 1354.74 953.76 1354.86 958.46C1355.09 966.69 1363.38 972.44 1371.47 974.16L1371.48 974.17Z" fill="url(#paint25_linear_26486_105387)"/>
<path d="M1235.93 791.75C1229.43 848.64 1194.29 897.39 1165.09 946.65C1145.03 980.49 1127.38 1015.73 1112.48 1051.76C1093.99 1096.48 1079.79 1142.43 1070.56 1188.44C1069.91 1191.68 1068.76 1194.8 1067.09 1197.66C1057.81 1213.57 1043.89 1226.75 1027.45 1235.07C1011.23 1243.28 992.63 1246.71 972.88 1245.92C970.66 1245.83 968.42 1245.69 966.17 1245.5C963.23 1247.53 960.19 1249.4 957.04 1251.12C952.62 1253.53 948 1255.65 943.21 1257.46C933.23 1261.26 922.47 1263.75 911.07 1264.99C909.62 1265.15 908.15 1265.16 906.69 1265.07C795.63 1257.4 686.66 1221.39 594.09 1159.71C591.5 1157.99 589.38 1155.64 587.96 1152.88C564.02 1106.3 570.69 1048.83 588.85 999.39C595.33 981.75 603.13 964.66 611.38 947.76C626.95 915.86 644.1 884.62 656.91 851.53C673.14 809.63 682.23 765.3 697.2 722.93C711.6 682.14 732.51 642.01 767.25 614.74C769.84 612.7 772.79 611.16 775.91 610.1C797.91 602.61 819.56 594.1 840.84 584.56C888.77 563.09 934.84 536.43 978.74 504.61C965.41 497.03 954.62 485.05 948.29 473.33C947.98 472.77 947.76 472.16 947.63 471.53C933.72 408.23 938.67 340.95 960.61 279.67C964.11 269.91 968.03 260.31 972.38 250.89C973.53 248.39 975.42 246.29 977.82 244.95C979.95 243.76 982.1 242.59 984.25 241.46C984.93 241.08 985.61 240.72 986.29 240.37C1066.42 198.45 1161.69 186.17 1247.9 205.2C1250.79 205.84 1253.36 207.46 1255.15 209.82C1281.68 244.59 1299.57 285.8 1306.55 325.89C1306.74 326.97 1306.84 328.07 1306.87 329.17C1308.8 430.29 1284.08 531.8 1233.74 622.07C1232.46 624.37 1231.55 626.86 1231.07 629.44C1221.42 682.66 1242.08 737.78 1235.92 791.72L1235.93 791.75Z" fill="url(#paint26_linear_26486_105387)"/>
<path style="mix-blend-mode:multiply" opacity="0.47" d="M1069.67 732.42C1061.26 744.43 1054.14 757.35 1048.43 771.29C1062.41 777.45 1077.17 782.06 1092.37 783.63C1107.56 785.2 1123.23 783.63 1137.36 777.85C1111.03 772.91 1087.06 756.53 1069.66 732.42H1069.67Z" fill="url(#paint27_linear_26486_105387)"/>
<path style="mix-blend-mode:multiply" opacity="0.27" d="M975.262 1234.49C974.472 1238.31 973.672 1242.12 972.892 1245.93C970.672 1245.84 968.432 1245.7 966.182 1245.51C963.242 1247.54 960.202 1249.41 957.052 1251.13C909.892 1239.22 866.492 1212.67 834.602 1175.93C842.712 1180.37 849.722 1183.85 856.682 1187.18C895.092 1205.59 934.732 1221.41 975.262 1234.49Z" fill="url(#paint28_linear_26486_105387)"/>
<path style="mix-blend-mode:multiply" opacity="0.27" d="M885.282 1133.34C889.472 1141.1 894.282 1148.51 899.902 1155.45C879.982 1163.65 859.282 1169.97 838.142 1174.57L836.992 1175.33C869.862 1173.41 903.482 1171.33 933.822 1158.55C917.742 1151.97 903.702 1140.52 894.022 1126.09C892.002 1128.52 889.492 1130.53 885.282 1133.35V1133.34Z" fill="url(#paint29_linear_26486_105387)"/>
<path style="mix-blend-mode:multiply" opacity="0.29" d="M943.234 1257.47C933.254 1261.27 922.494 1263.76 911.094 1265C909.644 1265.16 908.174 1265.17 906.714 1265.08C795.654 1257.41 686.684 1221.4 594.114 1159.72C591.524 1158 589.404 1155.65 587.984 1152.89C564.044 1106.31 570.714 1048.84 588.874 999.4C595.354 981.76 603.154 964.67 611.404 947.77C608.874 960.33 606.874 972.99 605.744 985.76C602.854 1018.38 605.884 1052.13 619.494 1081.91C636.404 1118.91 668.224 1146.99 701.834 1169.92C773.304 1218.64 857.194 1248.89 943.234 1257.47Z" fill="url(#paint30_linear_26486_105387)"/>
<path d="M1001.36 1109.61C989.603 1119.48 977.273 1128.66 964.473 1137.13C949.333 1147.17 933.553 1156.22 917.283 1164.29C911.823 1159.1 906.483 1153.92 901.283 1148.69C897.373 1144.76 893.543 1140.79 889.823 1136.76C887.123 1133.85 884.473 1130.9 881.873 1127.9C881.593 1127.58 881.313 1127.27 881.043 1126.95C883.583 1125.94 886.103 1124.88 888.573 1123.76C912.653 1112.91 933.433 1096.98 948.213 1076.62C949.463 1077.53 950.713 1078.43 951.973 1079.33C955.683 1081.97 959.433 1084.55 963.263 1087.08C964.753 1088.06 966.243 1089.04 967.753 1090C978.603 1096.98 989.853 1103.52 1001.35 1109.6L1001.36 1109.61Z" fill="url(#paint31_linear_26486_105387)"/>
<path style="mix-blend-mode:multiply" opacity="0.26" d="M1149.9 578.169C994.924 527.829 923.504 554.469 870.364 576.279C860.984 580.129 850.894 582.659 840.844 584.589C888.774 563.119 934.844 536.459 978.744 504.639C965.414 497.059 954.624 485.079 948.294 473.359C947.984 472.799 947.764 472.189 947.634 471.559C933.724 408.259 938.674 340.979 960.614 279.699C964.114 269.939 968.034 260.339 972.384 250.919C973.534 248.419 975.424 246.319 977.824 244.979C979.954 243.789 982.104 242.619 984.254 241.489C947.544 332.329 943.824 484.269 1149.89 578.149L1149.9 578.169Z" fill="url(#paint32_linear_26486_105387)"/>
<path style="mix-blend-mode:multiply" opacity="0.23" d="M964.482 1137.13C949.342 1147.17 933.562 1156.22 917.292 1164.29C911.832 1159.1 906.492 1153.92 901.292 1148.69C897.382 1144.76 893.552 1140.79 889.832 1136.76C913.262 1120.39 936.052 1102.64 951.992 1079.34C955.702 1081.98 959.452 1084.56 963.282 1087.09C964.772 1088.07 966.262 1089.05 967.772 1090.01C960.322 1104.35 959.072 1121.91 964.492 1137.13H964.482Z" fill="url(#paint33_linear_26486_105387)"/>
<path d="M963.271 1087.09C947.551 1111.9 926.191 1133.13 901.281 1148.69C893.601 1142.57 887.711 1136.87 881.871 1127.9C884.121 1126.56 886.361 1125.19 888.581 1123.77C912.661 1112.92 933.441 1096.99 948.221 1076.63C954.841 1080.19 959.611 1082.33 963.271 1087.09Z" fill="url(#paint34_linear_26486_105387)"/>
<path d="M1050.69 769.23C1077.39 783.22 1109.52 786.5 1138.5 778.21C1140.8 769.22 1141.71 762.44 1142.62 755.65C1117.01 754.32 1091.48 745.81 1069.5 732.08C1061.86 743.57 1054.91 755.52 1050.69 769.23Z" fill="url(#paint35_linear_26486_105387)"/>
<path d="M1112.49 1051.76C1097.14 1088.9 1084.74 1126.9 1075.69 1165.06C1073.84 1172.85 1072.13 1180.64 1070.57 1188.44C1069.92 1191.68 1068.77 1194.8 1067.1 1197.66C1064.42 1202.25 1061.36 1206.62 1057.96 1210.71C1049.58 1220.78 1039.16 1229.16 1027.46 1235.07C1018.03 1239.84 1007.79 1243 997.003 1244.65C987.143 1246.16 976.803 1246.42 966.193 1245.51C914.323 1231.23 873.883 1207.08 834.793 1177.35C833.453 1176.34 834.053 1174.2 835.733 1174.03C866.753 1170.98 897.123 1162.66 925.523 1149.88C939.943 1143.39 953.853 1135.76 967.083 1127.09C1004.65 1102.48 1036.71 1069.48 1059.22 1030.61C1059.26 1030.53 1059.32 1030.47 1059.39 1030.43C1059.59 1030.28 1059.86 1030.26 1060.07 1030.41C1075.74 1040.93 1093.73 1047.96 1112.49 1051.76Z" fill="url(#paint36_linear_26486_105387)"/>
<path style="mix-blend-mode:multiply" opacity="0.16" d="M1057.96 1210.71C1049.58 1220.78 1039.16 1229.16 1027.46 1235.07C1009.41 1244.2 988.423 1247.41 966.193 1245.5C914.323 1231.22 873.883 1207.07 834.793 1177.34C833.453 1176.33 834.053 1174.19 835.733 1174.02C882.503 1169.42 927.803 1152.83 967.073 1127.07C964.573 1132.21 962.453 1137.52 960.853 1143.04C955.003 1163.34 957.773 1187.54 973.183 1202.01C985.683 1213.74 1003.99 1217.04 1021.13 1216.64C1033.61 1216.35 1046.02 1214.3 1057.96 1210.69V1210.71Z" fill="url(#paint37_linear_26486_105387)"/>
<path style="mix-blend-mode:multiply" opacity="0.32" d="M868.23 657.85C935.23 688.82 926.25 826.42 874.39 930.18C873.53 931.9 873.83 933.97 875.14 935.38C912.26 975.38 938.45 1025.43 950.1 1078.74C932.39 1050.37 914.52 1021.79 891.51 997.53C868.5 973.27 839.7 953.32 807 946.36C851.72 892.05 879.09 823.67 884.18 753.51C886.18 725.95 883.87 695.65 868.23 657.86V657.85Z" fill="url(#paint38_linear_26486_105387)"/>
<path d="M953.35 1080.07C951.85 1085.84 945.41 1093.23 938.32 1098.77C931.23 1104.31 923.17 1108.66 916.75 1114.96C912.92 1118.73 909.74 1123.12 905.93 1126.91C902.13 1130.71 897.47 1133.98 892.14 1134.68C868.17 1145.88 839.98 1139.03 817.55 1125.94C795.11 1112.86 776.59 1094.13 755.89 1078.44C737 1064.12 716.31 1052.32 697.15 1038.37C678 1024.4 660.04 1007.8 649.24 986.7C641.69 925.07 669.12 864.7 690.54 805.77C701.27 776.25 710.69 746.04 725.78 718.48C731.18 708.61 737.42 699.03 744.52 690.22C757.22 674.43 772.66 661.08 791.02 652.77C819.63 639.8 856 641.25 879.8 661.75C902.88 681.62 910.04 714.42 910.53 744.86C911.6 812.12 886.81 877.52 853.16 935.78C893.45 968.93 925.13 1011.98 945.52 1059.88C948.35 1066.52 950.96 1073.25 953.35 1080.06V1080.07Z" fill="url(#paint39_linear_26486_105387)"/>
<path style="mix-blend-mode:multiply" opacity="0.32" d="M953.35 1080.07C951.85 1085.84 945.41 1093.23 938.32 1098.77C931.23 1104.31 923.17 1108.66 916.75 1114.96C912.92 1118.73 909.74 1123.12 905.93 1126.91C902.13 1130.71 897.47 1133.98 892.14 1134.68C868.17 1145.88 839.98 1139.03 817.55 1125.94C795.11 1112.86 776.59 1094.13 755.89 1078.44C737 1064.12 716.31 1052.32 697.15 1038.37C678 1024.4 660.04 1007.8 649.24 986.7C641.69 925.07 669.12 864.7 690.54 805.77C701.27 776.25 710.69 746.04 725.78 718.48C731.18 708.61 737.42 699.03 744.52 690.22C716.89 747.75 699.48 810.19 693.51 873.73C689.07 921.06 692.89 973.89 726.19 1007.82C739.83 1021.72 757.42 1031.26 770.99 1045.22C788.55 1063.28 799 1088.26 819.83 1102.42C845.81 1120.08 882.37 1115.57 908.53 1098.17C923.48 1088.23 935.54 1074.86 945.52 1059.87C948.35 1066.51 950.96 1073.24 953.35 1080.05V1080.07Z" fill="url(#paint40_linear_26486_105387)"/>
<path style="mix-blend-mode:multiply" opacity="0.26" d="M1161.57 582.85C1157.65 581.38 1153.76 579.81 1149.9 578.17C1153.79 579.73 1157.68 581.29 1161.57 582.85Z" fill="url(#paint41_linear_26486_105387)"/>
<path style="mix-blend-mode:multiply" opacity="0.63" d="M1205.88 608.36C1204.94 612.2 1200.72 614.91 1196.84 614.15C1192.96 613.4 1190.06 609.3 1190.62 605.4C1191.19 601.49 1195.14 598.39 1199.07 598.77C1203 599.15 1207.17 603.09 1205.88 608.36Z" fill="url(#paint42_linear_26486_105387)"/>
<path style="mix-blend-mode:multiply" opacity="0.58" d="M1204.09 240.189C1214.67 238.459 1228.42 240.469 1241.53 245.209C1247.12 247.229 1252.15 250.619 1256.04 255.119C1289.48 293.809 1303.78 343.659 1304.35 395.279C1305.3 480.619 1265.73 564.229 1214.47 581.77C1178.51 528.06 1167.2 457.889 1182.97 395.209C1188.92 371.529 1198.58 348.929 1204.89 325.339C1211.2 301.749 1218.51 274.279 1204.1 240.189H1204.09Z" fill="url(#paint43_linear_26486_105387)"/>
<path d="M1214.47 581.77C1187.75 566.88 1160.51 538.03 1144.94 509.13C1142.49 504.6 1140.33 500.06 1138.51 495.58C1134.59 485.95 1131.54 476.01 1129.31 465.89C1130.1 464.64 1130.98 463.48 1131.96 462.41C1134 460.18 1136.36 458.34 1138.92 456.83C1159.54 468.62 1180.02 480.67 1200.14 492.77C1198.43 512.45 1200.66 531.28 1204.79 549.09C1207.41 560.41 1210.81 571.32 1214.46 581.77H1214.47Z" fill="url(#paint44_linear_26486_105387)"/>
<path style="mix-blend-mode:multiply" opacity="0.53" d="M1204.8 549.1C1187.87 531.86 1167.36 518.13 1144.94 509.14C1142.49 504.61 1140.33 500.07 1138.51 495.59C1134.59 485.96 1131.54 476.02 1129.31 465.9C1130.1 464.65 1130.98 463.49 1131.96 462.42C1134 460.19 1136.36 458.35 1138.92 456.84C1159.54 468.63 1180.02 480.68 1200.14 492.78C1198.43 512.46 1200.66 531.29 1204.79 549.1H1204.8Z" fill="url(#paint45_linear_26486_105387)"/>
<path d="M1299 487.729C1295.76 500.399 1290.94 513.629 1280.33 521.269C1255.6 539.059 1190.18 518.049 1152.75 499.769C1147.39 497.149 1142.11 494.369 1136.9 491.439C1136.87 491.359 1136.85 491.299 1136.82 491.219C1133.75 483.069 1131.29 474.729 1129.39 466.249C1128.93 464.209 1128.5 462.149 1128.11 460.089V460.069C1127.45 456.629 1126.88 453.169 1126.41 449.699C1125.97 446.479 1125.61 443.239 1125.31 439.989C1123.25 416.779 1125.03 393.149 1130.07 370.389C1135.05 347.899 1143.09 326.229 1153.37 305.589C1155.08 302.139 1156.87 298.729 1158.7 295.339C1166.13 281.629 1174.52 268.409 1183.6 255.749C1188.21 249.319 1193.59 242.619 1201.27 240.689C1210.15 238.459 1219.88 242.469 1226.6 248.689C1251.43 271.639 1269.12 295.319 1281.48 318.699C1285.03 325.409 1288.13 332.089 1290.85 338.719C1293.08 344.179 1295.05 349.609 1296.77 354.989C1313.9 408.519 1306.81 457.319 1299.02 487.739L1299 487.729Z" fill="url(#paint46_linear_26486_105387)"/>
<path d="M1211.83 293.22C1211.42 294.83 1210.8 296.44 1209.49 296.9C1205.76 298.21 1206.75 291 1206.8 289.28C1206.91 285.38 1207.29 281.48 1207.93 277.63C1208.75 272.71 1210.01 267.87 1211.68 263.17C1212.76 260.12 1214.42 252.82 1218.98 253.64C1221.96 254.18 1225.59 257.26 1225.09 260.57C1224.89 261.87 1224.24 263.05 1223.61 264.21C1220.62 269.72 1217.98 275.41 1215.72 281.25C1214.56 284.24 1213.5 287.26 1212.53 290.32C1212.29 291.07 1212.11 292.15 1211.83 293.22Z" fill="url(#paint47_linear_26486_105387)"/>
<path d="M1179.95 309.41C1171.22 307.4 1162.33 306.12 1153.36 305.6C1155.07 302.15 1156.86 298.74 1158.69 295.35C1160.76 295.76 1162.84 296.19 1164.9 296.67C1171.09 298.11 1178.22 299.65 1183.48 303.65C1184.27 304.25 1185.05 304.94 1185.47 305.94C1187.24 310.13 1181.83 309.84 1179.94 309.41H1179.95Z" fill="url(#paint48_linear_26486_105387)"/>
<path style="mix-blend-mode:multiply" opacity="0.49" d="M1296.75 354.98C1288.41 338.36 1278.57 322.48 1267.38 307.64C1257.9 295.06 1245.55 282.25 1229.8 281.74C1215.77 281.28 1204.07 291.41 1193.66 300.83C1111.62 375.12 1131.18 466.17 1136.89 491.45C1136.87 491.38 1136.85 491.31 1136.81 491.23C1133.74 483.08 1131.28 474.74 1129.38 466.26C1128.92 464.22 1128.49 462.16 1128.1 460.1V460.08C1127.44 456.64 1126.87 453.18 1126.4 449.71C1125.96 446.49 1125.6 443.25 1125.3 440C1123.24 416.79 1125.02 393.16 1130.06 370.4C1135.04 347.91 1143.08 326.24 1153.36 305.6C1155.07 302.15 1156.86 298.74 1158.69 295.35C1166.12 281.64 1174.51 268.42 1183.59 255.76C1188.2 249.33 1193.58 242.63 1201.26 240.7C1210.14 238.47 1219.87 242.48 1226.59 248.7C1251.42 271.65 1269.11 295.33 1281.47 318.71C1285.02 325.42 1288.12 332.1 1290.84 338.73C1293.07 344.19 1295.04 349.62 1296.76 355L1296.75 354.98Z" fill="url(#paint49_linear_26486_105387)"/>
<path d="M1149.84 427.64C1153.92 432.82 1158.2 437.84 1162.68 442.68C1180.19 461.6 1200.77 477.79 1223.83 489.39C1226.22 490.59 1228.93 491.78 1231.5 491.02C1234.41 490.16 1236.06 487.15 1237.35 484.4C1239.92 478.97 1242.36 473.48 1244.7 467.94C1244.97 467.3 1245.25 466.65 1245.51 466C1247.7 460.72 1249.79 455.4 1251.78 450.03C1253.15 446.34 1252.68 444.23 1251.22 443.02C1248.54 440.83 1242.54 441.6 1238.25 441.1C1227.12 439.81 1216.04 437.99 1205.07 435.67C1185.9 431.59 1167.46 425.53 1148.92 419.25C1141.1 416.6 1148.39 425.79 1149.84 427.63V427.64Z" fill="url(#paint50_linear_26486_105387)"/>
<path style="mix-blend-mode:multiply" d="M1150.74 424.249C1157.62 429.079 1164.74 433.629 1172.05 437.779C1184.76 445.019 1197.99 451.419 1211.55 456.879C1218.38 459.639 1225.31 462.139 1232.34 464.319C1236.4 465.579 1240.53 466.879 1244.69 467.949C1244.96 467.309 1245.24 466.659 1245.5 466.009C1244.46 465.739 1243.42 465.459 1242.38 465.179C1238.47 464.099 1234.59 462.949 1230.72 461.709C1216.63 457.199 1202.71 452.019 1189.39 445.559C1176.15 439.139 1163.38 431.759 1151.09 423.659C1150.71 423.409 1150.38 424.009 1150.73 424.249H1150.74Z" fill="url(#paint51_linear_26486_105387)"/>
<path d="M1214.72 403.55C1214.68 402.95 1214.72 402.33 1214.76 401.73C1215.74 387.4 1216.72 373.07 1217.7 358.74C1218.13 352.53 1217.93 346.52 1217.33 340.28C1217.02 337.03 1217.12 332.18 1215.29 329.31C1214.41 327.93 1216.14 326.32 1217.49 327.11C1223.58 330.67 1228.87 336.71 1234 341.54C1239.69 346.9 1245.34 352.28 1251.08 357.59C1262.54 368.19 1274.36 378.49 1284.31 390.57C1286.56 393.3 1286.3 398.74 1281.97 399.44C1265.07 402.18 1247.93 404.06 1230.89 405.57C1228.16 405.81 1216.76 407.99 1215.31 405.66C1214.91 405.03 1214.76 404.3 1214.71 403.55H1214.72Z" fill="url(#paint52_linear_26486_105387)"/>
<path d="M1201.82 351.589C1201.32 353.719 1200.18 355.629 1198.31 357.209C1192.23 362.339 1184.08 358.059 1178.05 350.009C1174.22 344.909 1172.06 339.629 1172.6 335.079C1172.92 332.439 1174.13 330.039 1176.45 328.059C1183.06 322.419 1190.68 327.209 1196.71 335.259C1200.9 340.839 1203 346.759 1201.82 351.589Z" fill="url(#paint53_linear_26486_105387)"/>
<path d="M1197.35 345.977C1199.75 344.313 1199.95 340.451 1197.81 337.35C1195.66 334.249 1191.97 333.084 1189.57 334.748C1187.17 336.411 1186.96 340.274 1189.11 343.374C1191.26 346.475 1194.94 347.64 1197.35 345.977Z" fill="url(#paint54_linear_26486_105387)"/>
<path style="mix-blend-mode:multiply" d="M1201.82 351.589C1200.3 346.669 1197.45 342.189 1194.11 338.289C1192.09 335.929 1189.84 333.739 1187.14 332.249C1184.44 330.759 1181.26 330.049 1178.28 330.769C1175.93 331.339 1173.75 332.919 1172.59 335.069C1172.91 332.429 1174.12 330.029 1176.44 328.049C1183.05 322.409 1190.67 327.199 1196.7 335.249C1200.89 340.829 1202.99 346.749 1201.81 351.579L1201.82 351.589Z" fill="url(#paint55_linear_26486_105387)"/>
<path d="M1251.78 318.46C1250.81 320.32 1249.28 321.83 1247.13 322.86C1240.14 326.2 1233.34 320.29 1229.42 311.36C1226.94 305.71 1226.09 300.28 1227.65 296.17C1228.56 293.79 1230.27 291.84 1232.95 290.55C1240.57 286.86 1246.74 293.13 1250.66 302.05C1253.37 308.24 1254.02 314.25 1251.78 318.46Z" fill="url(#paint56_linear_26486_105387)"/>
<path d="M1249.29 312.094C1251.77 311.007 1252.65 307.551 1251.25 304.375C1249.86 301.199 1246.72 299.505 1244.25 300.592C1241.77 301.678 1240.89 305.134 1242.28 308.311C1243.67 311.487 1246.81 313.181 1249.29 312.094Z" fill="url(#paint57_linear_26486_105387)"/>
<path style="mix-blend-mode:multiply" d="M1251.78 318.46C1251.46 313.52 1249.77 308.67 1247.48 304.25C1246.09 301.58 1244.45 299 1242.21 296.98C1239.98 294.96 1237.1 293.54 1234.08 293.51C1231.7 293.49 1229.26 294.45 1227.65 296.17C1228.56 293.79 1230.27 291.84 1232.95 290.55C1240.57 286.86 1246.74 293.13 1250.66 302.05C1253.37 308.24 1254.02 314.25 1251.78 318.46Z" fill="url(#paint58_linear_26486_105387)"/>
<path style="mix-blend-mode:multiply" opacity="0.5" d="M1141.56 252.399C1140.79 251.299 1138.94 251.409 1138.3 252.599C1137.4 253.909 1136.51 255.219 1135.64 256.549C1132.1 261.889 1128.91 267.449 1125.74 273.019C1116.88 288.879 1109.29 305.409 1102.18 322.109C1088.19 354.509 1077.94 388.629 1073.34 423.669C1071.56 436.769 1070.34 449.969 1070.42 463.199C1070.46 465.439 1073.91 465.659 1074 463.199C1073.94 448.479 1075.62 433.089 1077.55 419.979C1080.11 402.819 1083.78 385.819 1088.67 369.179C1092.81 354.729 1099.47 337.419 1104.65 325.189C1111.22 309.569 1118.38 294.179 1126.53 279.309C1129.75 273.409 1133.17 267.619 1136.85 261.989C1138.14 259.939 1139.47 257.919 1140.82 255.909C1141.56 254.889 1142.58 253.579 1141.56 252.399Z" fill="url(#paint59_linear_26486_105387)"/>
<path style="mix-blend-mode:multiply" opacity="0.5" d="M1073.48 542.77C1050.68 533.87 1028.38 525.3 1006.62 515.81C1001.13 513.46 995.742 510.87 990.442 508.11C989.382 507.56 988.322 507.01 987.312 506.39C986.912 506.11 986.432 505.87 985.932 506.02C984.852 506.28 984.632 507.87 985.622 508.4C995.562 514.53 1006.58 518.64 1017.28 523.23C1034.94 530.63 1052.8 537.56 1070.65 544.53C1071.69 544.79 1072.75 545.76 1073.82 545.22C1074.81 544.67 1074.63 543.05 1073.5 542.77H1073.48Z" fill="url(#paint60_linear_26486_105387)"/>
<path style="mix-blend-mode:multiply" opacity="0.5" d="M850.363 936.29C849.653 936.06 849.043 936.46 848.463 936.81C847.543 937.14 843.053 938.58 840.713 939.18C833.223 941.24 826.223 942.48 819.413 943.11C808.043 944.12 796.583 944.43 785.183 943.78C778.813 943.34 774.083 943 768.623 941.87C767.703 941.68 766.783 941.45 765.883 941.18C765.443 941.04 765.003 940.82 764.533 940.94C762.543 941.12 762.313 944.14 764.283 944.63C769.083 946.1 774.153 946.51 779.133 946.94C785.933 947.5 792.763 947.65 799.583 947.48C813.233 946.99 824.903 946.18 837.943 943.01C838.413 942.9 838.883 942.77 839.353 942.65C823.713 951.78 807.323 958.18 790.433 960.25C787.903 960.61 789.203 960.4 787.003 960.72C785.983 960.81 784.663 961.07 784.583 962.32C784.423 963.13 785.013 963.96 785.793 964.18C786.623 964.35 787.483 963.99 788.313 963.92C790.653 963.52 792.943 962.91 795.283 962.51C808.393 960.23 823.233 954.6 833.813 949.45C839.493 946.61 849.553 941.55 851.383 938.77C851.943 937.85 851.423 936.56 850.373 936.28L850.363 936.29Z" fill="url(#paint61_linear_26486_105387)"/>
<path opacity="0.97" d="M1214.15 912.69C1213.82 910.93 1213.49 909.17 1213.17 907.41C1212.15 901.91 1211.21 896.4 1210.35 890.88C1202.57 839.93 1198.66 784.04 1197 730.38C1196.19 705.49 1196.36 680.58 1197.63 655.71C1198.21 643.13 1199.07 630.56 1199.94 618C1200.12 615.23 1200.3 612.47 1200.43 609.7C1200.4 608.36 1200.79 606.94 1200.29 605.68C1199.31 603.19 1195.26 603.75 1195.27 606.69C1194.56 623.82 1192.91 640.9 1192.27 658.03C1191.15 680.97 1190.98 703.94 1191.65 726.9C1193.43 783.38 1196.93 839.94 1206.16 895.74C1207.04 900.92 1207.96 906.1 1209.01 911.24C1209.61 913.54 1209.4 917.19 1212.68 916.57C1213.48 916.34 1214.09 915.72 1214.33 914.92C1214.55 914.18 1214.26 913.44 1214.15 912.7V912.69Z" fill="url(#paint62_linear_26486_105387)"/>
<path style="mix-blend-mode:multiply" opacity="0.5" d="M908.822 1119.99C908.122 1119.03 906.692 1119.09 905.692 1118.55C895.422 1114.1 882.872 1105.94 872.552 1098.9C867.622 1095.43 864.422 1092.95 859.852 1088.94C859.262 1088.47 858.762 1087.72 857.932 1087.74C856.612 1087.7 855.862 1089.46 856.842 1090.38C865.152 1098 874.582 1104.25 884.172 1110.12C889.152 1113.15 894.152 1116.16 899.362 1118.77C901.122 1119.65 902.922 1120.46 904.752 1121.19C905.742 1121.5 906.742 1122.12 907.792 1122.09C908.762 1122.03 909.332 1120.8 908.822 1119.99Z" fill="url(#paint63_linear_26486_105387)"/>
<path style="mix-blend-mode:multiply" opacity="0.5" d="M932.51 1097.74C927.96 1088.37 922.45 1079.49 916.63 1070.87C914.24 1067.38 911.74 1063.96 909.03 1060.71C908.13 1059.65 907.2 1058.61 906.26 1057.6C906 1057.34 905.65 1057.2 905.29 1057.2C904.11 1057.16 903.45 1058.73 904.32 1059.55C909.26 1065.16 913.11 1070.62 917.87 1078C922.25 1084.84 926.48 1091.83 929.85 1099.24C929.85 1099.26 929.87 1099.28 929.87 1099.29C930.07 1099.63 930.4 1099.89 930.79 1099.99C932.05 1100.38 933.23 1098.87 932.52 1097.74H932.51Z" fill="url(#paint64_linear_26486_105387)"/>
<path d="M1078.48 749.249C1077.83 745.399 1072.74 743.289 1069.44 745.189C1068.45 745.869 1067.79 746.919 1067.43 748.049C1067.27 748.659 1067.08 749.369 1067.38 749.959C1068.02 751.689 1070.67 751.169 1070.75 749.399C1070.77 749.289 1070.79 749.189 1070.83 749.089C1070.84 749.049 1070.86 749.019 1070.87 748.979C1070.96 748.799 1071.06 748.629 1071.18 748.469C1071.22 748.429 1071.27 748.389 1071.31 748.349C1071.31 748.349 1071.31 748.349 1071.32 748.349C1071.66 748.259 1072.9 748.239 1073.75 748.849C1074.74 749.619 1074.92 750.309 1074.2 752.069C1071.81 757.579 1065.76 760.309 1060.3 762.419C1060.26 762.419 1060.23 762.429 1060.2 762.439C1059.95 762.469 1059.71 762.519 1059.46 762.579C1057.97 762.819 1056.78 764.099 1057.57 765.729C1058.4 766.979 1060.11 766.859 1061.4 767.289C1063.03 767.719 1064.68 768.089 1066.29 768.619C1066.29 768.619 1066.3 768.619 1066.31 768.619C1067.18 769.069 1067.62 769.079 1069.43 769.709C1069.67 769.779 1070.23 769.989 1070.51 770.089C1070.88 770.259 1071.29 770.349 1071.69 770.259C1072.72 770.199 1073.49 769.209 1073.5 768.209C1073.28 766.049 1071.62 766.189 1070.96 765.989C1068.8 765.369 1068.32 765.269 1066.99 764.979C1066.29 764.759 1065.59 764.539 1064.89 764.319C1069.63 762.089 1074.32 759.349 1077.06 754.759C1078.02 753.109 1078.83 751.179 1078.47 749.239L1078.48 749.249Z" fill="#6C6C70"/>
<path style="mix-blend-mode:multiply" opacity="0.5" d="M1015.15 1169.93C1014.51 1169.93 1014.03 1170.31 1013.62 1170.75C1012.78 1171.54 1011.95 1172.34 1011.1 1173.12C1000.73 1182.63 990.273 1190.26 977.013 1196.49C969.513 1200.07 961.723 1202.99 952.713 1205.24C952.263 1205.35 951.813 1205.46 951.363 1205.55C951.003 1205.6 950.663 1205.77 950.413 1206.02C949.353 1207.01 950.143 1208.97 951.613 1208.92C966.943 1205.85 981.553 1199.23 994.573 1190.63C999.423 1187.37 1003.97 1183.7 1008.41 1179.91C1010.46 1178.19 1012.48 1176.43 1014.44 1174.61C1015.18 1173.83 1016.18 1173.19 1016.69 1172.24C1017.21 1171.21 1016.3 1169.88 1015.16 1169.92L1015.15 1169.93Z" fill="url(#paint65_linear_26486_105387)"/>
<path d="M721.702 1693.59C719.382 1694.47 717.022 1695.31 714.562 1695.7C710.202 1696.57 703.792 1696.63 697.922 1696.27C696.022 1696.04 696.792 1696.21 695.072 1695.82C694.662 1695.7 694.252 1695.51 693.822 1695.63C691.782 1695.81 691.582 1698.88 693.562 1699.38C701.422 1701.47 709.952 1700.93 717.742 1698.74C719.232 1698.35 720.702 1697.91 722.172 1697.45C722.812 1697.23 723.512 1697.01 723.852 1696.37C724.732 1694.98 723.282 1693.09 721.702 1693.57V1693.59Z" fill="url(#paint66_linear_26486_105387)"/>
<path d="M918.491 1683.07C916.171 1683.95 913.811 1684.79 911.351 1685.18C906.991 1686.05 900.581 1686.11 894.711 1685.75C892.811 1685.52 893.581 1685.69 891.861 1685.3C891.451 1685.18 891.041 1684.99 890.611 1685.11C888.571 1685.29 888.371 1688.36 890.351 1688.86C898.211 1690.95 906.741 1690.41 914.531 1688.22C916.021 1687.83 917.491 1687.39 918.961 1686.93C919.601 1686.71 920.301 1686.49 920.641 1685.85C921.521 1684.46 920.071 1682.57 918.491 1683.05V1683.07Z" fill="url(#paint67_linear_26486_105387)"/>
<path style="mix-blend-mode:multiply" opacity="0.5" d="M1197.31 993.929C1197.44 993.619 1197.44 993.639 1197.31 993.929V993.929Z" fill="url(#paint68_linear_26486_105387)"/>
<path style="mix-blend-mode:multiply" opacity="0.5" d="M1219.75 958.409C1219.22 957.479 1217.98 957.38 1217.16 957.99C1215.44 958.95 1213.72 959.92 1212.03 960.94C1204.14 965.77 1196.43 970.94 1189.4 976.96C1182.72 982.74 1176.32 989.07 1171.65 996.61C1170.56 998.55 1173.42 1000.26 1174.6 998.34C1183.02 985.6 1197.82 973.259 1212.82 964.219C1209.23 969.699 1205.39 976.559 1202.67 982.229C1200.79 986.129 1198.96 990.049 1197.28 994.039C1197.29 993.999 1197.31 993.97 1197.32 993.94C1197.31 993.97 1197.3 993.99 1197.28 994.02C1196.78 995.18 1196.29 996.34 1195.81 997.51C1195.65 997.87 1195.49 998.25 1195.59 998.65C1195.66 999.82 1197.14 1000.5 1198.11 999.89C1198.76 999.52 1198.92 998.79 1199.18 998.14C1202.68 989.51 1207.89 978.71 1213.43 969.56C1214.93 967.1 1216.48 964.67 1218.15 962.32C1218.85 961.12 1220.58 959.929 1219.76 958.409H1219.75Z" fill="url(#paint69_linear_26486_105387)"/>
<path style="mix-blend-mode:multiply" opacity="0.5" d="M1050.19 1134.76C1049.2 1133.71 1047.28 1134.49 1047.32 1135.95C1046.77 1156.44 1041.52 1176.54 1034.11 1196.57C1033.24 1198.88 1032.35 1201.18 1031.41 1203.45C1030.98 1204.35 1030.44 1205.6 1031.47 1206.31C1033.32 1207.41 1033.92 1205.62 1034.29 1204.66C1034.94 1203.09 1035.57 1201.52 1036.17 1199.94C1040.39 1188.77 1044.14 1177.4 1046.81 1165.76C1048.35 1158.84 1049.51 1151.83 1050.22 1144.78C1050.47 1142.37 1050.57 1139.95 1050.64 1137.53C1050.61 1136.6 1050.92 1135.49 1050.18 1134.77L1050.19 1134.76Z" fill="url(#paint70_linear_26486_105387)"/>
<path d="M1097.3 752.4C1094.96 751.88 1092.72 750.97 1090.42 750.3C1090.18 750.23 1089.94 750.15 1089.69 750.08C1089.16 749.84 1088.51 749.87 1088.05 750.27C1087.69 750.5 1087.47 750.84 1087.38 751.22C1086.05 753.34 1084.71 755.44 1083.43 757.59C1082.79 758.67 1083.61 759.92 1084.78 760.01C1084.86 760.03 1084.93 760.04 1085.01 760.06C1087.4 760.94 1090.44 765.45 1087.5 768.14C1085.58 770.08 1082.1 770.05 1079.82 767.73C1079.09 766.96 1077.74 767.15 1077.22 768.07C1076.39 769.49 1077.94 770.57 1078.97 771.29C1084.53 775.14 1092.58 771.74 1092.39 764.65C1092.07 761.21 1089.87 758.49 1087.3 757.36C1087.92 756.31 1088.55 755.26 1089.18 754.21C1089.28 754.01 1089.4 753.82 1089.52 753.63C1091.49 754.19 1093.42 754.86 1095.39 755.41C1096.14 755.66 1096.97 756.07 1097.72 755.58C1099.03 754.87 1098.75 752.75 1097.3 752.4Z" fill="#6C6C70"/>
<path d="M1114.03 755.939C1113.38 754.999 1112.44 754.919 1111.73 755.269C1111.73 755.269 1111.73 755.269 1111.72 755.269C1111.63 755.289 1111.54 755.329 1111.46 755.369C1110.04 755.479 1107.85 755.369 1107.75 755.279C1106.58 755.059 1105.4 754.829 1104.29 754.409C1103.92 754.249 1103.53 754.139 1103.13 754.269C1101.86 754.579 1101.62 756.439 1102.77 757.059C1105 758.009 1107.43 758.289 1109.85 758.349C1109.03 760.109 1108.32 761.929 1107.48 763.679C1107.33 764.019 1107.17 764.359 1107.01 764.699C1106.96 764.699 1106.9 764.689 1106.85 764.689C1105.79 764.589 1105.44 764.619 1103.72 764.239C1102.87 764.129 1102.04 763.709 1101.18 763.769C1099.58 763.909 1099.43 766.319 1100.98 766.709C1102.48 767.109 1104.01 767.379 1105.53 767.659C1105.57 767.669 1105.6 767.689 1105.64 767.699C1104.5 770.189 1103.35 772.679 1102.18 775.159C1101.95 775.429 1101.78 775.729 1101.88 775.619C1101.63 775.959 1101.41 776.329 1101.39 776.749C1101.12 778.049 1102.53 779.239 1103.78 778.849C1104.25 778.689 1104.68 778.419 1104.92 777.969C1104.97 777.869 1105 777.799 1105.03 777.729V777.699C1105.03 777.699 1105.05 777.699 1105.05 777.689C1105.08 777.629 1105.09 777.599 1105.1 777.579C1105.15 777.469 1105.2 777.359 1105.24 777.239C1105.26 777.189 1105.28 777.149 1105.3 777.099C1105.31 777.059 1105.33 777.009 1105.36 776.929C1105.36 776.949 1105.35 776.959 1105.34 776.979C1105.35 776.939 1105.36 776.909 1105.37 776.869C1105.37 776.869 1105.37 776.879 1105.37 776.889C1107.4 772.619 1111.41 763.859 1113.97 757.919C1113.59 758.809 1114.1 757.659 1114.23 757.289C1114.37 756.829 1114.26 756.349 1114.06 755.929L1114.03 755.939Z" fill="#6C6C70"/>
<g style="mix-blend-mode:multiply" opacity="0.5">
<path d="M1111.63 755.32C1111.63 755.32 1111.64 755.32 1111.65 755.31C1111.63 755.31 1111.63 755.32 1111.63 755.32Z" fill="#B0AFB0"/>
</g>
<g style="mix-blend-mode:multiply" opacity="0.5">
<path d="M1111.81 755.239C1111.81 755.239 1111.78 755.249 1111.76 755.259C1111.76 755.259 1111.77 755.259 1111.78 755.259C1111.78 755.259 1111.79 755.259 1111.81 755.249V755.239Z" fill="#B0AFB0"/>
</g>
<path d="M1127.13 765.6C1127.83 764.97 1128.44 764.24 1128.83 763.37C1129.7 761.55 1128.82 759.19 1127.03 758.3C1124.76 757.27 1122.22 758.09 1121.07 759.25C1120.08 760.43 1121.61 762.14 1122.91 761.35C1123.76 761.01 1124.25 760.96 1125.21 761.2C1125.3 761.25 1125.39 761.29 1125.47 761.34C1125.47 761.34 1125.48 761.35 1125.49 761.35C1125.53 761.39 1125.57 761.43 1125.6 761.47C1125.62 761.5 1125.64 761.53 1125.66 761.56C1125.69 761.65 1125.72 761.75 1125.74 761.84C1125.74 761.9 1125.74 761.96 1125.74 762.02C1125.74 762.06 1125.72 762.1 1125.71 762.13C1125.65 762.24 1125.57 762.39 1125.48 762.51C1125.47 762.53 1125.46 762.53 1125.45 762.55C1125.05 762.99 1124.1 763.74 1124.77 763.2C1123.98 763.95 1122.63 764.21 1122.3 765.34C1122.03 766.22 1122.62 767.23 1123.51 767.47C1124.97 767.79 1127.47 772.76 1123.97 773.86C1121.97 774.51 1120.72 774.04 1119.84 773.38C1119.72 773.18 1119.61 772.96 1119.6 772.93C1119.53 772.69 1119.51 772.44 1119.05 771.68C1118.26 770.51 1116.3 770.93 1115.97 772.28C1115.69 773.65 1116.83 775.03 1117.7 775.97C1120.77 778.89 1126.43 778.14 1128.76 774.64C1130.62 771.78 1129.6 767.79 1127.14 765.57L1127.13 765.6Z" fill="#6C6C70"/>
<path d="M726.572 1233.53C725.732 1231.99 723.232 1232.31 722.812 1234.02C720.572 1240.22 719.282 1244.27 715.372 1250.05C714.462 1251.41 712.232 1254.03 709.882 1256.19C708.562 1257.44 707.182 1258.63 705.742 1259.74C705.902 1259.61 706.062 1259.49 706.232 1259.36C703.552 1261.53 697.862 1264.63 696.612 1265.06C686.012 1269.54 669.742 1264.18 658.492 1257.81C656.982 1256.73 654.802 1258.22 655.342 1260.03C655.732 1261.28 657.122 1261.71 658.112 1262.4C660.462 1263.79 662.902 1265.04 665.402 1266.14C673.572 1269.89 688.182 1273.99 698.882 1269.22C705.182 1266.61 710.732 1262.41 715.242 1257.32C718.672 1253.66 721.352 1249.4 723.282 1244.78C724.462 1242.18 725.372 1239.47 726.232 1236.74C726.532 1235.7 727.202 1234.57 726.562 1233.54L726.572 1233.53Z" fill="#0A0A0A"/>
<path d="M905.412 1467.49C903.832 1467.22 902.252 1466.96 900.682 1466.63C893.342 1465.09 885.942 1463.91 878.562 1462.58C877.922 1462.46 877.282 1462.35 876.642 1462.24C884.012 1460.82 889.842 1460.32 898.602 1459.66C900.312 1459.58 902.022 1459.56 903.742 1459.57C904.332 1459.61 904.982 1459.57 905.412 1459.1C906.422 1458.16 905.662 1456.31 904.272 1456.35C897.592 1456.2 890.942 1456.9 884.342 1457.87C879.392 1458.66 874.392 1459.37 869.572 1460.76C868.502 1461.13 868.102 1462.64 868.952 1463.44C869.662 1464.12 870.692 1464.24 871.612 1464.49C873.312 1464.85 875.022 1465.16 876.732 1465.49C884.372 1466.9 891.982 1468.46 899.602 1470C901.312 1470.34 902.992 1470.79 904.662 1471.26C905.942 1471.69 907.412 1471.61 907.862 1470.1C908.272 1468.48 906.842 1467.6 905.422 1467.49H905.412Z" fill="#0A0A0A"/>
<defs>
<linearGradient id="paint0_linear_26486_105387" x1="1421.77" y1="865.7" x2="1305.94" y2="1025.84" gradientUnits="userSpaceOnUse">
<stop stop-color="#FFC493"/>
<stop offset="1" stop-color="#FFB073"/>
</linearGradient>
<linearGradient id="paint1_linear_26486_105387" x1="1333.63" y1="987.55" x2="1301.67" y2="1031.75" gradientUnits="userSpaceOnUse">
<stop stop-color="#FFC493"/>
<stop offset="1" stop-color="#FFB073"/>
</linearGradient>
<linearGradient id="paint2_linear_26486_105387" x1="807.872" y1="1669.02" x2="593.022" y2="1776.94" gradientUnits="userSpaceOnUse">
<stop stop-color="#B8B8B8"/>
<stop offset="1" stop-color="#8C898C"/>
</linearGradient>
<linearGradient id="paint3_linear_26486_105387" x1="807.872" y1="1669.02" x2="593.022" y2="1776.94" gradientUnits="userSpaceOnUse">
<stop stop-color="#B8B8B8"/>
<stop offset="1" stop-color="#8C898C"/>
</linearGradient>
<linearGradient id="paint4_linear_26486_105387" x1="724.153" y1="1712.82" x2="724.173" y2="1712.7" gradientUnits="userSpaceOnUse">
<stop stop-color="#454347"/>
<stop offset="1" stop-color="#626163"/>
</linearGradient>
<linearGradient id="paint5_linear_26486_105387" x1="711.781" y1="1717.82" x2="713.791" y2="1706.4" gradientUnits="userSpaceOnUse">
<stop stop-color="#454347"/>
<stop offset="1" stop-color="#626163"/>
</linearGradient>
<linearGradient id="paint6_linear_26486_105387" x1="716.96" y1="1732.9" x2="719.12" y2="1720.61" gradientUnits="userSpaceOnUse">
<stop stop-color="#454347"/>
<stop offset="1" stop-color="#626163"/>
</linearGradient>
<linearGradient id="paint7_linear_26486_105387" x1="995.047" y1="1644.85" x2="808.729" y2="1777.74" gradientUnits="userSpaceOnUse">
<stop stop-color="#B8B8B8"/>
<stop offset="1" stop-color="#8C898C"/>
</linearGradient>
<linearGradient id="paint8_linear_26486_105387" x1="995.047" y1="1644.85" x2="808.729" y2="1777.74" gradientUnits="userSpaceOnUse">
<stop stop-color="#B8B8B8"/>
<stop offset="1" stop-color="#8C898C"/>
</linearGradient>
<linearGradient id="paint9_linear_26486_105387" x1="922.7" y1="1698.27" x2="922.703" y2="1698.16" gradientUnits="userSpaceOnUse">
<stop stop-color="#454347"/>
<stop offset="1" stop-color="#626163"/>
</linearGradient>
<linearGradient id="paint10_linear_26486_105387" x1="911.788" y1="1704.79" x2="912.007" y2="1693.75" gradientUnits="userSpaceOnUse">
<stop stop-color="#454347"/>
<stop offset="1" stop-color="#626163"/>
</linearGradient>
<linearGradient id="paint11_linear_26486_105387" x1="918.867" y1="1718.22" x2="919.107" y2="1706.34" gradientUnits="userSpaceOnUse">
<stop stop-color="#454347"/>
<stop offset="1" stop-color="#626163"/>
</linearGradient>
<linearGradient id="paint12_linear_26486_105387" x1="875.711" y1="1699.34" x2="880.371" y2="1633.49" gradientUnits="userSpaceOnUse">
<stop stop-color="#363636"/>
<stop offset="1" stop-color="#131313"/>
</linearGradient>
<linearGradient id="paint13_linear_26486_105387" x1="1253.57" y1="1004.46" x2="1294.51" y2="990.64" gradientUnits="userSpaceOnUse">
<stop stop-color="#454347"/>
<stop offset="1" stop-color="#626163"/>
</linearGradient>
<linearGradient id="paint14_linear_26486_105387" x1="1338.98" y1="770.33" x2="1110.78" y2="1090.53" gradientUnits="userSpaceOnUse">
<stop stop-color="#B8B8B8"/>
<stop offset="1" stop-color="#8C898C"/>
</linearGradient>
<linearGradient id="paint15_linear_26486_105387" x1="1338.98" y1="770.33" x2="1110.78" y2="1090.53" gradientUnits="userSpaceOnUse">
<stop stop-color="#B8B8B8"/>
<stop offset="1" stop-color="#8C898C"/>
</linearGradient>
<linearGradient id="paint16_linear_26486_105387" x1="1290.83" y1="775.78" x2="1179.98" y2="738.82" gradientUnits="userSpaceOnUse">
<stop stop-color="#363636"/>
<stop offset="1" stop-color="#131313"/>
</linearGradient>
<linearGradient id="paint17_linear_26486_105387" x1="832.913" y1="1631.61" x2="930.333" y2="924.28" gradientUnits="userSpaceOnUse">
<stop stop-color="#363636"/>
<stop offset="1" stop-color="#131313"/>
</linearGradient>
<linearGradient id="paint18_linear_26486_105387" x1="808.381" y1="1628.23" x2="875.631" y2="1139.96" gradientUnits="userSpaceOnUse">
<stop stop-color="#363636"/>
<stop offset="1" stop-color="#131313"/>
</linearGradient>
<linearGradient id="paint19_linear_26486_105387" x1="678.601" y1="1711.89" x2="683.141" y2="1647.72" gradientUnits="userSpaceOnUse">
<stop stop-color="#363636"/>
<stop offset="1" stop-color="#131313"/>
</linearGradient>
<linearGradient id="paint20_linear_26486_105387" x1="654.512" y1="1603.77" x2="758.632" y2="893.71" gradientUnits="userSpaceOnUse">
<stop stop-color="#363636"/>
<stop offset="1" stop-color="#131313"/>
</linearGradient>
<linearGradient id="paint21_linear_26486_105387" x1="635.522" y1="1600.99" x2="739.632" y2="890.929" gradientUnits="userSpaceOnUse">
<stop stop-color="#363636"/>
<stop offset="1" stop-color="#131313"/>
</linearGradient>
<linearGradient id="paint22_linear_26486_105387" x1="587.672" y1="1627.55" x2="718.202" y2="1257.61" gradientUnits="userSpaceOnUse">
<stop stop-color="#FFFAF4"/>
<stop offset="1" stop-color="#FAECDD"/>
</linearGradient>
<linearGradient id="paint23_linear_26486_105387" x1="656.844" y1="1481.24" x2="696.574" y2="1481.24" gradientUnits="userSpaceOnUse">
<stop stop-color="#363636"/>
<stop offset="1"/>
</linearGradient>
<linearGradient id="paint24_linear_26486_105387" x1="1418.39" y1="926.78" x2="1355.67" y2="946.72" gradientUnits="userSpaceOnUse">
<stop stop-color="#FFC493"/>
<stop offset="1" stop-color="#FFB073"/>
</linearGradient>
<linearGradient id="paint25_linear_26486_105387" x1="1387.66" y1="935.98" x2="1347.98" y2="948.59" gradientUnits="userSpaceOnUse">
<stop stop-color="#FFC493"/>
<stop offset="1" stop-color="#FFB073"/>
</linearGradient>
<linearGradient id="paint26_linear_26486_105387" x1="1029.21" y1="401.13" x2="792.6" y2="1398.83" gradientUnits="userSpaceOnUse">
<stop stop-color="#B8B8B8"/>
<stop offset="1" stop-color="#8C898C"/>
</linearGradient>
<linearGradient id="paint27_linear_26486_105387" x1="1098.86" y1="749.44" x2="1089.21" y2="790.1" gradientUnits="userSpaceOnUse">
<stop stop-color="#B8B8B8"/>
<stop offset="1" stop-color="#8C898C"/>
</linearGradient>
<linearGradient id="paint28_linear_26486_105387" x1="905.702" y1="1202.74" x2="896.202" y2="1242.79" gradientUnits="userSpaceOnUse">
<stop stop-color="#B8B8B8"/>
<stop offset="1" stop-color="#8C898C"/>
</linearGradient>
<linearGradient id="paint29_linear_26486_105387" x1="892.002" y1="1139.12" x2="879.082" y2="1193.59" gradientUnits="userSpaceOnUse">
<stop stop-color="#B8B8B8"/>
<stop offset="1" stop-color="#8C898C"/>
</linearGradient>
<linearGradient id="paint30_linear_26486_105387" x1="784.954" y1="1044.17" x2="732.214" y2="1266.57" gradientUnits="userSpaceOnUse">
<stop stop-color="#B8B8B8"/>
<stop offset="1" stop-color="#8C898C"/>
</linearGradient>
<linearGradient id="paint31_linear_26486_105387" x1="995.053" y1="1072.2" x2="911.083" y2="1144.07" gradientUnits="userSpaceOnUse">
<stop stop-color="#FFC493"/>
<stop offset="1" stop-color="#FFB073"/>
</linearGradient>
<linearGradient id="paint32_linear_26486_105387" x1="1137.65" y1="460.889" x2="855.824" y2="400.989" gradientUnits="userSpaceOnUse">
<stop stop-color="#B8B8B8"/>
<stop offset="1" stop-color="#8C898C"/>
</linearGradient>
<linearGradient id="paint33_linear_26486_105387" x1="985.682" y1="1084.74" x2="912.402" y2="1147.45" gradientUnits="userSpaceOnUse">
<stop stop-color="#FFC493"/>
<stop offset="1" stop-color="#FFB073"/>
</linearGradient>
<linearGradient id="paint34_linear_26486_105387" x1="878.111" y1="1128.4" x2="972.481" y2="1096.56" gradientUnits="userSpaceOnUse">
<stop stop-color="#454347"/>
<stop offset="1" stop-color="#626163"/>
</linearGradient>
<linearGradient id="paint35_linear_26486_105387" x1="1160.33" y1="726.45" x2="1039.05" y2="788.23" gradientUnits="userSpaceOnUse">
<stop stop-color="#FFF4EF"/>
<stop offset="0.57" stop-color="#F8E5DD"/>
<stop offset="1" stop-color="#F6DFD7"/>
</linearGradient>
<linearGradient id="paint36_linear_26486_105387" x1="1125.32" y1="759.43" x2="764.403" y2="1642.51" gradientUnits="userSpaceOnUse">
<stop stop-color="#B8B8B8"/>
<stop offset="1" stop-color="#8C898C"/>
</linearGradient>
<linearGradient id="paint37_linear_26486_105387" x1="1046.56" y1="915.169" x2="859.253" y2="1432.98" gradientUnits="userSpaceOnUse">
<stop stop-color="#B8B8B8"/>
<stop offset="1" stop-color="#8C898C"/>
</linearGradient>
<linearGradient id="paint38_linear_26486_105387" x1="934.81" y1="760.15" x2="852.19" y2="1108.52" gradientUnits="userSpaceOnUse">
<stop stop-color="#B8B8B8"/>
<stop offset="1" stop-color="#8C898C"/>
</linearGradient>
<linearGradient id="paint39_linear_26486_105387" x1="951.18" y1="371.76" x2="714.18" y2="1377.08" gradientUnits="userSpaceOnUse">
<stop stop-color="#B8B8B8"/>
<stop offset="1" stop-color="#8C898C"/>
</linearGradient>
<linearGradient id="paint40_linear_26486_105387" x1="926.65" y1="475.81" x2="722.57" y2="1341.5" gradientUnits="userSpaceOnUse">
<stop stop-color="#B8B8B8"/>
<stop offset="1" stop-color="#8C898C"/>
</linearGradient>
<linearGradient id="paint41_linear_26486_105387" x1="1160.33" y1="581.48" x2="1148.73" y2="579.02" gradientUnits="userSpaceOnUse">
<stop stop-color="#B8B8B8"/>
<stop offset="1" stop-color="#8C898C"/>
</linearGradient>
<linearGradient id="paint42_linear_26486_105387" x1="1196.99" y1="614.08" x2="1199.06" y2="602.33" gradientUnits="userSpaceOnUse">
<stop stop-color="#454347"/>
<stop offset="1" stop-color="#626163"/>
</linearGradient>
<linearGradient id="paint43_linear_26486_105387" x1="1210.61" y1="579.02" x2="1255.56" y2="323.839" gradientUnits="userSpaceOnUse">
<stop stop-color="#454347"/>
<stop offset="1" stop-color="#626163"/>
</linearGradient>
<linearGradient id="paint44_linear_26486_105387" x1="1159.78" y1="556.79" x2="1203.1" y2="438.89" gradientUnits="userSpaceOnUse">
<stop stop-color="#FFC493"/>
<stop offset="1" stop-color="#FFB073"/>
</linearGradient>
<linearGradient id="paint45_linear_26486_105387" x1="1159.18" y1="528.91" x2="1189.52" y2="446.35" gradientUnits="userSpaceOnUse">
<stop stop-color="#FFC493"/>
<stop offset="1" stop-color="#FFB073"/>
</linearGradient>
<linearGradient id="paint46_linear_26486_105387" x1="1316.2" y1="434.869" x2="1115.97" y2="337.599" gradientUnits="userSpaceOnUse">
<stop stop-color="#FFC493"/>
<stop offset="1" stop-color="#FFB073"/>
</linearGradient>
<linearGradient id="paint47_linear_26486_105387" x1="1225.13" y1="275.32" x2="1206.64" y2="275.32" gradientUnits="userSpaceOnUse">
<stop stop-color="#454347"/>
<stop offset="1" stop-color="#626163"/>
</linearGradient>
<linearGradient id="paint48_linear_26486_105387" x1="1185.83" y1="302.5" x2="1153.36" y2="302.5" gradientUnits="userSpaceOnUse">
<stop stop-color="#454347"/>
<stop offset="1" stop-color="#626163"/>
</linearGradient>
<linearGradient id="paint49_linear_26486_105387" x1="1056.16" y1="440.68" x2="1209.97" y2="338.14" gradientUnits="userSpaceOnUse">
<stop stop-color="#FFC493"/>
<stop offset="1" stop-color="#FFB073"/>
</linearGradient>
<linearGradient id="paint50_linear_26486_105387" x1="1228.09" y1="492.77" x2="1183.34" y2="400.72" gradientUnits="userSpaceOnUse">
<stop stop-color="#FFF4EF"/>
<stop offset="1" stop-color="#F6DFD7"/>
</linearGradient>
<linearGradient id="paint51_linear_26486_105387" x1="1193.97" y1="497.289" x2="1198.15" y2="443.629" gradientUnits="userSpaceOnUse">
<stop stop-color="#FFF4EF"/>
<stop offset="1" stop-color="#F6DFD7"/>
</linearGradient>
<linearGradient id="paint52_linear_26486_105387" x1="1270" y1="397.41" x2="1184.95" y2="348.32" gradientUnits="userSpaceOnUse">
<stop stop-color="#FF9762"/>
<stop offset="1" stop-color="#FFB073"/>
</linearGradient>
<linearGradient id="paint53_linear_26486_105387" x1="1176.73" y1="349.853" x2="1194.94" y2="337.476" gradientUnits="userSpaceOnUse">
<stop stop-color="#FFF4EF"/>
<stop offset="1" stop-color="#F6DFD7"/>
</linearGradient>
<linearGradient id="paint54_linear_26486_105387" x1="1199.48" y1="341.591" x2="1187.46" y2="339.238" gradientUnits="userSpaceOnUse">
<stop stop-color="#363636"/>
<stop offset="1" stop-color="#131313"/>
</linearGradient>
<linearGradient id="paint55_linear_26486_105387" x1="1194.15" y1="350.19" x2="1178.47" y2="325.169" gradientUnits="userSpaceOnUse">
<stop stop-color="#FFF4EF"/>
<stop offset="1" stop-color="#D7C2BB"/>
</linearGradient>
<linearGradient id="paint56_linear_26486_105387" x1="1228.2" y1="311.092" x2="1248.4" y2="303.624" gradientUnits="userSpaceOnUse">
<stop stop-color="#FFF4EF"/>
<stop offset="1" stop-color="#F6DFD7"/>
</linearGradient>
<linearGradient id="paint57_linear_26486_105387" x1="1251.96" y1="308.752" x2="1241.6" y2="303.925" gradientUnits="userSpaceOnUse">
<stop stop-color="#363636"/>
<stop offset="1" stop-color="#131313"/>
</linearGradient>
<linearGradient id="paint58_linear_26486_105387" x1="1244.58" y1="315.485" x2="1235.66" y2="288.295" gradientUnits="userSpaceOnUse">
<stop stop-color="#FFF4EF"/>
<stop offset="1" stop-color="#D7C2BB"/>
</linearGradient>
<linearGradient id="paint59_linear_26486_105387" x1="1084.86" y1="467.219" x2="1123.35" y2="248.669" gradientUnits="userSpaceOnUse">
<stop stop-color="#454347"/>
<stop offset="1" stop-color="#626163"/>
</linearGradient>
<linearGradient id="paint60_linear_26486_105387" x1="1027.65" y1="537.39" x2="1031.78" y2="513.97" gradientUnits="userSpaceOnUse">
<stop stop-color="#454347"/>
<stop offset="1" stop-color="#626163"/>
</linearGradient>
<linearGradient id="paint61_linear_26486_105387" x1="802.543" y1="967.13" x2="809.253" y2="929.03" gradientUnits="userSpaceOnUse">
<stop stop-color="#454347"/>
<stop offset="1" stop-color="#626163"/>
</linearGradient>
<linearGradient id="paint62_linear_26486_105387" x1="1259.77" y1="778.62" x2="1150" y2="742.03" gradientUnits="userSpaceOnUse">
<stop stop-color="#363636"/>
<stop offset="1" stop-color="#131313"/>
</linearGradient>
<linearGradient id="paint63_linear_26486_105387" x1="880.532" y1="1117.34" x2="884.912" y2="1092.46" gradientUnits="userSpaceOnUse">
<stop stop-color="#454347"/>
<stop offset="1" stop-color="#626163"/>
</linearGradient>
<linearGradient id="paint64_linear_26486_105387" x1="915.03" y1="1097.23" x2="921.58" y2="1060.04" gradientUnits="userSpaceOnUse">
<stop stop-color="#454347"/>
<stop offset="1" stop-color="#626163"/>
</linearGradient>
<linearGradient id="paint65_linear_26486_105387" x1="979.073" y1="1213.8" x2="987.653" y2="1165.05" gradientUnits="userSpaceOnUse">
<stop stop-color="#454347"/>
<stop offset="1" stop-color="#626163"/>
</linearGradient>
<linearGradient id="paint66_linear_26486_105387" x1="707.192" y1="1701.93" x2="709.082" y2="1691.18" gradientUnits="userSpaceOnUse">
<stop stop-color="#454347"/>
<stop offset="1" stop-color="#626163"/>
</linearGradient>
<linearGradient id="paint67_linear_26486_105387" x1="903.981" y1="1691.41" x2="905.871" y2="1680.65" gradientUnits="userSpaceOnUse">
<stop stop-color="#454347"/>
<stop offset="1" stop-color="#626163"/>
</linearGradient>
<linearGradient id="paint68_linear_26486_105387" x1="1197.34" y1="993.929" x2="1197.38" y2="993.699" gradientUnits="userSpaceOnUse">
<stop stop-color="#454347"/>
<stop offset="1" stop-color="#626163"/>
</linearGradient>
<linearGradient id="paint69_linear_26486_105387" x1="1191.45" y1="1002.42" x2="1199.92" y2="954.33" gradientUnits="userSpaceOnUse">
<stop stop-color="#454347"/>
<stop offset="1" stop-color="#626163"/>
</linearGradient>
<linearGradient id="paint70_linear_26486_105387" x1="1035.11" y1="1207.13" x2="1047.98" y2="1134.06" gradientUnits="userSpaceOnUse">
<stop stop-color="#454347"/>
<stop offset="1" stop-color="#626163"/>
</linearGradient>
</defs>
</svg>
