<svg width="480" height="480" viewBox="0 0 480 480" fill="none" xmlns="http://www.w3.org/2000/svg">
<g clip-path="url(#clip0_26486_105475)">
<rect width="480" height="480" rx="8" fill="white"/>
<path opacity="0.97" d="M355.11 643.42C354.9 615.08 353.61 586.76 351.79 558.48C350.11 531.45 347.64 504.47 343.8 477.66C342 464.46 339.86 451.3 337.63 438.16C337.51 434.33 331.81 434.51 332.49 438.66C337.19 465.35 340.76 489.24 343.55 515.38C345.9 539.02 347.32 562.75 348.55 586.48C349.54 607.79 350.27 629.13 350.24 650.47C350.18 674.77 349.38 699.07 348.74 723.36C348.58 729.95 348.32 736.55 348.4 743.15C348.45 744.49 348.43 745.83 348.45 747.17C348.36 748.02 348.72 748.96 349.58 749.26C350.71 749.81 352.18 748.84 352.13 747.57C352.27 745.43 352.34 744.75 352.42 743.84C352.94 738.02 353.08 732.17 353.34 726.34C354.32 698.72 355.24 671.08 355.11 643.44V643.42Z" fill="url(#paint0_linear_26486_105475)"/>
<path d="M342.93 626.75C336.43 683.64 301.29 732.39 272.09 781.65C252.03 815.49 234.38 850.73 219.48 886.76C200.99 931.48 186.79 977.43 177.56 1023.44C176.91 1026.68 175.76 1029.8 174.09 1032.66C164.81 1048.57 150.89 1061.75 134.45 1070.07C118.23 1078.28 99.6303 1081.71 79.8803 1080.92C77.6603 1080.83 75.4203 1080.69 73.1703 1080.5C70.2303 1082.53 67.1902 1084.4 64.0403 1086.12C59.6202 1088.53 55.0003 1090.65 50.2103 1092.46C40.2303 1096.26 29.4703 1098.75 18.0703 1099.99C16.6203 1100.15 15.1503 1100.16 13.6903 1100.07C-97.3697 1092.4 -206.34 1056.39 -298.91 994.71C-301.5 992.99 -303.62 990.64 -305.04 987.88C-328.98 941.3 -322.31 883.83 -304.15 834.39C-297.67 816.75 -289.87 799.66 -281.62 782.76C-266.05 750.86 -248.9 719.62 -236.09 686.53C-219.86 644.63 -210.77 600.3 -195.8 557.93C-181.4 517.14 -160.49 477.01 -125.75 449.74C-123.16 447.7 -120.21 446.16 -117.09 445.1C-95.0898 437.61 -73.4397 429.1 -52.1597 419.56C-4.22971 398.09 41.8403 371.43 85.7403 339.61C72.4103 332.03 61.6202 320.05 55.2903 308.33C54.9803 307.77 54.7603 307.16 54.6303 306.53C40.7203 243.23 45.6703 175.95 67.6103 114.67C71.1103 104.91 75.0303 95.3097 79.3803 85.8897C80.5303 83.3897 82.4203 81.2897 84.8203 79.9497C86.9503 78.7597 89.1003 77.5897 91.2503 76.4597C91.9303 76.0797 92.6103 75.7197 93.2903 75.3697C173.42 33.4497 268.69 21.1697 354.9 40.1997C357.79 40.8397 360.36 42.4597 362.15 44.8197C388.68 79.5897 406.57 120.8 413.55 160.89C413.74 161.97 413.84 163.07 413.87 164.17C415.8 265.29 391.08 366.8 340.74 457.07C339.46 459.37 338.55 461.86 338.07 464.44C328.42 517.66 349.08 572.78 342.92 626.72L342.93 626.75Z" fill="url(#paint1_linear_26486_105475)"/>
<path style="mix-blend-mode:multiply" opacity="0.26" d="M256.9 413.169C101.92 362.829 30.4998 389.469 -22.6402 411.279C-32.0202 415.129 -42.1102 417.659 -52.1602 419.589C-4.23016 398.119 41.8398 371.459 85.7398 339.639C72.4098 332.059 61.6198 320.079 55.2898 308.359C54.9798 307.799 54.7598 307.189 54.6298 306.559C40.7198 243.259 45.6698 175.979 67.6098 114.699C71.1098 104.939 75.0298 95.3393 79.3798 85.9193C80.5298 83.4193 82.4198 81.3192 84.8198 79.9792C86.9498 78.7892 89.0998 77.6193 91.2498 76.4893C54.5398 167.329 50.8198 319.269 256.89 413.149L256.9 413.169Z" fill="url(#paint2_linear_26486_105475)"/>
<path d="M60.3503 915.069C58.8503 920.839 52.4103 928.23 45.3203 933.77C38.2303 939.31 30.1703 943.66 23.7503 949.96C19.9203 953.729 16.7403 958.12 12.9303 961.91C9.13026 965.71 4.47028 968.98 -0.859726 969.68C-24.8297 980.88 -53.0197 974.029 -75.4498 960.939C-97.8898 947.859 -116.41 929.129 -137.11 913.439C-156 899.119 -176.69 887.32 -195.85 873.37C-215 859.4 -232.96 842.8 -243.76 821.7C-251.31 760.07 -223.88 699.7 -202.46 640.77C-191.73 611.25 -182.31 581.04 -167.22 553.48C-161.82 543.61 -155.58 534.03 -148.48 525.22C-135.78 509.43 -120.34 496.08 -101.98 487.77C-73.3697 474.8 -36.9998 476.25 -13.1998 496.75C9.88025 516.62 17.0403 549.42 17.5303 579.86C18.6003 647.12 -6.18976 712.52 -39.8398 770.78C0.450226 803.93 32.1303 846.98 52.5203 894.88C55.3503 901.52 57.9602 908.25 60.3503 915.06V915.069Z" fill="url(#paint3_linear_26486_105475)"/>
<path style="mix-blend-mode:multiply" opacity="0.26" d="M268.57 417.85C264.65 416.38 260.76 414.81 256.9 413.17C260.79 414.73 264.68 416.29 268.57 417.85Z" fill="url(#paint4_linear_26486_105475)"/>
<path style="mix-blend-mode:multiply" opacity="0.63" d="M312.88 443.36C311.94 447.2 307.72 449.91 303.84 449.15C299.96 448.4 297.06 444.3 297.62 440.4C298.19 436.49 302.14 433.39 306.07 433.77C310 434.15 314.17 438.09 312.88 443.36Z" fill="url(#paint5_linear_26486_105475)"/>
<path style="mix-blend-mode:multiply" opacity="0.58" d="M311.089 75.1895C321.669 73.4595 335.419 75.4695 348.529 80.2095C354.119 82.2295 359.149 85.6195 363.039 90.1195C396.479 128.809 410.779 178.659 411.349 230.279C412.299 315.619 372.729 399.229 321.469 416.77C285.509 363.06 274.199 292.889 289.969 230.209C295.919 206.529 305.579 183.929 311.889 160.339C318.199 136.749 325.509 109.279 311.099 75.1895H311.089Z" fill="url(#paint6_linear_26486_105475)"/>
<path d="M321.469 416.77C294.749 401.88 267.509 373.03 251.939 344.13C249.489 339.6 247.33 335.06 245.51 330.58C241.59 320.95 238.54 311.01 236.31 300.89C237.1 299.64 237.979 298.48 238.959 297.41C240.999 295.18 243.36 293.34 245.92 291.83C266.54 303.62 287.02 315.67 307.14 327.77C305.43 347.45 307.66 366.28 311.79 384.09C314.41 395.41 317.809 406.32 321.459 416.77H321.469Z" fill="url(#paint7_linear_26486_105475)"/>
<path style="mix-blend-mode:multiply" opacity="0.53" d="M311.8 384.1C294.87 366.86 274.359 353.13 251.939 344.14C249.489 339.61 247.33 335.07 245.51 330.59C241.59 320.96 238.54 311.02 236.31 300.9C237.1 299.65 237.979 298.49 238.959 297.42C240.999 295.19 243.36 293.35 245.92 291.84C266.54 303.63 287.02 315.68 307.14 327.78C305.43 347.46 307.66 366.29 311.79 384.1H311.8Z" fill="url(#paint8_linear_26486_105475)"/>
<path d="M406 322.729C402.76 335.399 397.94 348.629 387.33 356.269C362.6 374.059 297.18 353.049 259.75 334.769C254.39 332.149 249.11 329.369 243.9 326.439C243.87 326.359 243.85 326.299 243.82 326.219C240.75 318.069 238.29 309.729 236.39 301.249C235.93 299.209 235.5 297.149 235.11 295.089V295.069C234.45 291.629 233.88 288.169 233.41 284.699C232.97 281.479 232.61 278.239 232.31 274.989C230.25 251.779 232.03 228.149 237.07 205.389C242.05 182.899 250.09 161.229 260.37 140.589C262.08 137.139 263.87 133.729 265.7 130.339C273.13 116.629 281.52 103.409 290.6 90.7494C295.21 84.3194 300.59 77.6194 308.27 75.6894C317.15 73.4594 326.88 77.4694 333.6 83.6894C358.43 106.639 376.12 130.319 388.48 153.699C392.03 160.409 395.13 167.089 397.85 173.719C400.08 179.179 402.05 184.609 403.77 189.989C420.9 243.519 413.81 292.319 406.02 322.739L406 322.729Z" fill="url(#paint9_linear_26486_105475)"/>
<path d="M318.83 128.22C318.42 129.83 317.8 131.44 316.49 131.9C312.76 133.21 313.75 126 313.8 124.28C313.91 120.38 314.29 116.48 314.93 112.63C315.75 107.71 317.01 102.87 318.68 98.17C319.76 95.12 321.42 87.82 325.98 88.64C328.96 89.18 332.59 92.26 332.09 95.57C331.89 96.87 331.24 98.05 330.61 99.21C327.62 104.72 324.98 110.41 322.72 116.25C321.56 119.24 320.5 122.26 319.53 125.32C319.29 126.07 319.11 127.15 318.83 128.22Z" fill="url(#paint10_linear_26486_105475)"/>
<path d="M286.95 144.41C278.22 142.4 269.33 141.12 260.36 140.6C262.07 137.15 263.86 133.74 265.69 130.35C267.76 130.76 269.84 131.19 271.9 131.67C278.09 133.11 285.22 134.65 290.48 138.65C291.27 139.25 292.05 139.94 292.47 140.94C294.24 145.13 288.83 144.84 286.94 144.41H286.95Z" fill="url(#paint11_linear_26486_105475)"/>
<path style="mix-blend-mode:multiply" opacity="0.49" d="M403.75 189.98C395.41 173.36 385.57 157.48 374.38 142.64C364.9 130.06 352.55 117.25 336.8 116.74C322.77 116.28 311.07 126.41 300.66 135.83C218.62 210.12 238.18 301.17 243.89 326.45C243.87 326.38 243.85 326.31 243.81 326.23C240.74 318.08 238.28 309.74 236.38 301.26C235.92 299.22 235.49 297.16 235.1 295.1V295.08C234.44 291.64 233.87 288.18 233.4 284.71C232.96 281.49 232.6 278.25 232.3 275C230.24 251.79 232.02 228.16 237.06 205.4C242.04 182.91 250.08 161.24 260.36 140.6C262.07 137.15 263.86 133.74 265.69 130.35C273.12 116.64 281.51 103.42 290.59 90.7601C295.2 84.3301 300.58 77.6301 308.26 75.7001C317.14 73.4701 326.87 77.4801 333.59 83.7001C358.42 106.65 376.11 130.33 388.47 153.71C392.02 160.42 395.12 167.1 397.84 173.73C400.07 179.19 402.04 184.62 403.76 190L403.75 189.98Z" fill="url(#paint12_linear_26486_105475)"/>
<path d="M256.84 262.64C260.92 267.82 265.2 272.84 269.68 277.68C287.19 296.6 307.77 312.79 330.83 324.39C333.22 325.59 335.93 326.78 338.5 326.02C341.41 325.16 343.06 322.15 344.35 319.4C346.92 313.97 349.36 308.48 351.7 302.94C351.97 302.3 352.25 301.65 352.51 301C354.7 295.72 356.79 290.4 358.78 285.03C360.15 281.34 359.68 279.23 358.22 278.02C355.54 275.83 349.54 276.6 345.25 276.1C334.12 274.81 323.04 272.99 312.07 270.67C292.9 266.59 274.46 260.53 255.92 254.25C248.1 251.6 255.39 260.79 256.84 262.63V262.64Z" fill="url(#paint13_linear_26486_105475)"/>
<path style="mix-blend-mode:multiply" d="M257.739 259.249C264.619 264.079 271.74 268.629 279.05 272.779C291.76 280.019 304.99 286.419 318.55 291.879C325.38 294.639 332.309 297.139 339.339 299.319C343.399 300.579 347.529 301.879 351.689 302.949C351.959 302.309 352.239 301.659 352.499 301.009C351.459 300.739 350.419 300.459 349.379 300.179C345.469 299.099 341.589 297.949 337.719 296.709C323.629 292.199 309.71 287.019 296.39 280.559C283.15 274.139 270.379 266.759 258.089 258.659C257.709 258.409 257.379 259.009 257.729 259.249H257.739Z" fill="url(#paint14_linear_26486_105475)"/>
<path d="M321.72 238.55C321.68 237.95 321.72 237.33 321.76 236.73C322.74 222.4 323.72 208.07 324.7 193.74C325.13 187.53 324.93 181.52 324.33 175.28C324.02 172.03 324.12 167.18 322.29 164.31C321.41 162.93 323.14 161.32 324.49 162.11C330.58 165.67 335.87 171.71 341 176.54C346.69 181.9 352.34 187.28 358.08 192.59C369.54 203.19 381.36 213.49 391.31 225.57C393.56 228.3 393.3 233.74 388.97 234.44C372.07 237.18 354.93 239.06 337.89 240.57C335.16 240.81 323.76 242.99 322.31 240.66C321.91 240.03 321.76 239.3 321.71 238.55H321.72Z" fill="url(#paint15_linear_26486_105475)"/>
<path d="M308.82 186.589C308.32 188.719 307.18 190.629 305.31 192.209C299.23 197.339 291.08 193.059 285.05 185.009C281.22 179.909 279.06 174.629 279.6 170.079C279.92 167.439 281.13 165.039 283.45 163.059C290.06 157.419 297.68 162.209 303.71 170.259C307.9 175.839 310 181.759 308.82 186.589Z" fill="url(#paint16_linear_26486_105475)"/>
<path d="M304.342 180.977C306.743 179.313 306.949 175.451 304.801 172.35C302.653 169.249 298.965 168.084 296.563 169.748C294.162 171.411 293.956 175.274 296.104 178.374C298.252 181.475 301.94 182.64 304.342 180.977Z" fill="url(#paint17_linear_26486_105475)"/>
<path style="mix-blend-mode:multiply" d="M308.82 186.589C307.3 181.669 304.45 177.189 301.11 173.289C299.09 170.929 296.84 168.739 294.14 167.249C291.44 165.759 288.26 165.049 285.28 165.769C282.93 166.339 280.75 167.919 279.59 170.069C279.91 167.429 281.12 165.029 283.44 163.049C290.05 157.409 297.67 162.199 303.7 170.249C307.89 175.829 309.99 181.749 308.81 186.579L308.82 186.589Z" fill="url(#paint18_linear_26486_105475)"/>
<path d="M358.78 153.46C357.81 155.32 356.28 156.83 354.13 157.86C347.14 161.2 340.34 155.29 336.42 146.36C333.94 140.71 333.09 135.28 334.65 131.17C335.56 128.79 337.27 126.84 339.95 125.55C347.57 121.86 353.74 128.13 357.66 137.05C360.37 143.24 361.02 149.25 358.78 153.46Z" fill="url(#paint19_linear_26486_105475)"/>
<path d="M356.287 147.094C358.765 146.007 359.645 142.551 358.252 139.375C356.859 136.199 353.721 134.505 351.242 135.592C348.764 136.678 347.884 140.134 349.277 143.311C350.67 146.487 353.808 148.181 356.287 147.094Z" fill="url(#paint20_linear_26486_105475)"/>
<path style="mix-blend-mode:multiply" d="M358.78 153.46C358.46 148.52 356.77 143.67 354.48 139.25C353.09 136.58 351.45 134 349.21 131.98C346.98 129.96 344.1 128.54 341.08 128.51C338.7 128.49 336.26 129.45 334.65 131.17C335.56 128.79 337.27 126.84 339.95 125.55C347.57 121.86 353.74 128.13 357.66 137.05C360.37 143.24 361.02 149.25 358.78 153.46Z" fill="url(#paint21_linear_26486_105475)"/>
<path style="mix-blend-mode:multiply" opacity="0.5" d="M248.56 87.3994C247.79 86.2994 245.94 86.4094 245.3 87.5994C244.4 88.9094 243.51 90.2194 242.64 91.5494C239.1 96.8894 235.91 102.449 232.74 108.019C223.88 123.879 216.29 140.409 209.18 157.109C195.19 189.509 184.94 223.629 180.34 258.669C178.56 271.769 177.34 284.969 177.42 298.199C177.46 300.439 180.91 300.659 181 298.199C180.94 283.479 182.62 268.089 184.55 254.979C187.11 237.819 190.78 220.819 195.67 204.179C199.81 189.729 206.47 172.419 211.65 160.189C218.22 144.569 225.38 129.179 233.53 114.309C236.75 108.409 240.17 102.619 243.85 96.9894C245.14 94.9394 246.47 92.9194 247.82 90.9094C248.56 89.8894 249.58 88.5794 248.56 87.3994Z" fill="url(#paint22_linear_26486_105475)"/>
<path style="mix-blend-mode:multiply" opacity="0.5" d="M180.48 377.77C157.68 368.87 135.38 360.3 113.62 350.81C108.13 348.46 102.74 345.87 97.4402 343.11C96.3802 342.56 95.3202 342.01 94.3102 341.39C93.9102 341.11 93.4302 340.87 92.9302 341.02C91.8502 341.28 91.6302 342.87 92.6202 343.4C102.56 349.53 113.58 353.64 124.28 358.23C141.94 365.63 159.8 372.56 177.65 379.53C178.69 379.79 179.75 380.76 180.82 380.22C181.81 379.67 181.63 378.05 180.5 377.77H180.48Z" fill="url(#paint23_linear_26486_105475)"/>
<path opacity="0.97" d="M321.15 747.69C320.82 745.93 320.49 744.17 320.17 742.41C319.15 736.91 318.21 731.4 317.35 725.88C309.57 674.93 305.66 619.04 304 565.38C303.19 540.49 303.36 515.58 304.63 490.71C305.21 478.13 306.07 465.56 306.94 453C307.12 450.23 307.3 447.47 307.43 444.7C307.4 443.36 307.79 441.94 307.29 440.68C306.31 438.19 302.26 438.75 302.27 441.69C301.56 458.82 299.91 475.9 299.27 493.03C298.15 515.97 297.98 538.94 298.65 561.9C300.43 618.38 303.93 674.94 313.16 730.74C314.04 735.92 314.96 741.1 316.01 746.24C316.61 748.54 316.4 752.19 319.68 751.57C320.48 751.34 321.09 750.72 321.33 749.92C321.55 749.18 321.26 748.44 321.15 747.7V747.69Z" fill="url(#paint24_linear_26486_105475)"/>
</g>
<defs>
<linearGradient id="paint0_linear_26486_105475" x1="397.83" y1="610.78" x2="286.98" y2="573.82" gradientUnits="userSpaceOnUse">
<stop stop-color="#363636"/>
<stop offset="1" stop-color="#131313"/>
</linearGradient>
<linearGradient id="paint1_linear_26486_105475" x1="136.21" y1="236.13" x2="-100.4" y2="1233.83" gradientUnits="userSpaceOnUse">
<stop stop-color="#B8B8B8"/>
<stop offset="1" stop-color="#8C898C"/>
</linearGradient>
<linearGradient id="paint2_linear_26486_105475" x1="244.65" y1="295.889" x2="-37.1802" y2="235.989" gradientUnits="userSpaceOnUse">
<stop stop-color="#B8B8B8"/>
<stop offset="1" stop-color="#8C898C"/>
</linearGradient>
<linearGradient id="paint3_linear_26486_105475" x1="58.1803" y1="206.76" x2="-178.82" y2="1212.08" gradientUnits="userSpaceOnUse">
<stop stop-color="#B8B8B8"/>
<stop offset="1" stop-color="#8C898C"/>
</linearGradient>
<linearGradient id="paint4_linear_26486_105475" x1="267.33" y1="416.48" x2="255.73" y2="414.02" gradientUnits="userSpaceOnUse">
<stop stop-color="#B8B8B8"/>
<stop offset="1" stop-color="#8C898C"/>
</linearGradient>
<linearGradient id="paint5_linear_26486_105475" x1="303.99" y1="449.08" x2="306.06" y2="437.33" gradientUnits="userSpaceOnUse">
<stop stop-color="#454347"/>
<stop offset="1" stop-color="#626163"/>
</linearGradient>
<linearGradient id="paint6_linear_26486_105475" x1="317.609" y1="414.02" x2="362.559" y2="158.839" gradientUnits="userSpaceOnUse">
<stop stop-color="#454347"/>
<stop offset="1" stop-color="#626163"/>
</linearGradient>
<linearGradient id="paint7_linear_26486_105475" x1="266.78" y1="391.79" x2="310.1" y2="273.89" gradientUnits="userSpaceOnUse">
<stop stop-color="#FFC493"/>
<stop offset="1" stop-color="#FFB073"/>
</linearGradient>
<linearGradient id="paint8_linear_26486_105475" x1="266.18" y1="363.91" x2="296.52" y2="281.35" gradientUnits="userSpaceOnUse">
<stop stop-color="#FFC493"/>
<stop offset="1" stop-color="#FFB073"/>
</linearGradient>
<linearGradient id="paint9_linear_26486_105475" x1="423.2" y1="269.869" x2="222.97" y2="172.599" gradientUnits="userSpaceOnUse">
<stop stop-color="#FFC493"/>
<stop offset="1" stop-color="#FFB073"/>
</linearGradient>
<linearGradient id="paint10_linear_26486_105475" x1="332.13" y1="110.32" x2="313.64" y2="110.32" gradientUnits="userSpaceOnUse">
<stop stop-color="#454347"/>
<stop offset="1" stop-color="#626163"/>
</linearGradient>
<linearGradient id="paint11_linear_26486_105475" x1="292.83" y1="137.5" x2="260.36" y2="137.5" gradientUnits="userSpaceOnUse">
<stop stop-color="#454347"/>
<stop offset="1" stop-color="#626163"/>
</linearGradient>
<linearGradient id="paint12_linear_26486_105475" x1="163.16" y1="275.68" x2="316.97" y2="173.14" gradientUnits="userSpaceOnUse">
<stop stop-color="#FFC493"/>
<stop offset="1" stop-color="#FFB073"/>
</linearGradient>
<linearGradient id="paint13_linear_26486_105475" x1="335.09" y1="327.77" x2="290.34" y2="235.72" gradientUnits="userSpaceOnUse">
<stop stop-color="#FFF4EF"/>
<stop offset="1" stop-color="#F6DFD7"/>
</linearGradient>
<linearGradient id="paint14_linear_26486_105475" x1="300.969" y1="332.289" x2="305.149" y2="278.629" gradientUnits="userSpaceOnUse">
<stop stop-color="#FFF4EF"/>
<stop offset="1" stop-color="#F6DFD7"/>
</linearGradient>
<linearGradient id="paint15_linear_26486_105475" x1="377" y1="232.41" x2="291.95" y2="183.32" gradientUnits="userSpaceOnUse">
<stop stop-color="#FF9762"/>
<stop offset="1" stop-color="#FFB073"/>
</linearGradient>
<linearGradient id="paint16_linear_26486_105475" x1="283.727" y1="184.853" x2="301.935" y2="172.476" gradientUnits="userSpaceOnUse">
<stop stop-color="#FFF4EF"/>
<stop offset="1" stop-color="#F6DFD7"/>
</linearGradient>
<linearGradient id="paint17_linear_26486_105475" x1="306.474" y1="176.591" x2="294.455" y2="174.238" gradientUnits="userSpaceOnUse">
<stop stop-color="#363636"/>
<stop offset="1" stop-color="#131313"/>
</linearGradient>
<linearGradient id="paint18_linear_26486_105475" x1="301.153" y1="185.19" x2="285.468" y2="160.169" gradientUnits="userSpaceOnUse">
<stop stop-color="#FFF4EF"/>
<stop offset="1" stop-color="#D7C2BB"/>
</linearGradient>
<linearGradient id="paint19_linear_26486_105475" x1="335.196" y1="146.092" x2="355.394" y2="138.624" gradientUnits="userSpaceOnUse">
<stop stop-color="#FFF4EF"/>
<stop offset="1" stop-color="#F6DFD7"/>
</linearGradient>
<linearGradient id="paint20_linear_26486_105475" x1="358.954" y1="143.752" x2="348.598" y2="138.925" gradientUnits="userSpaceOnUse">
<stop stop-color="#363636"/>
<stop offset="1" stop-color="#131313"/>
</linearGradient>
<linearGradient id="paint21_linear_26486_105475" x1="351.581" y1="150.485" x2="342.654" y2="123.295" gradientUnits="userSpaceOnUse">
<stop stop-color="#FFF4EF"/>
<stop offset="1" stop-color="#D7C2BB"/>
</linearGradient>
<linearGradient id="paint22_linear_26486_105475" x1="191.86" y1="302.219" x2="230.35" y2="83.6694" gradientUnits="userSpaceOnUse">
<stop stop-color="#454347"/>
<stop offset="1" stop-color="#626163"/>
</linearGradient>
<linearGradient id="paint23_linear_26486_105475" x1="134.65" y1="372.39" x2="138.78" y2="348.97" gradientUnits="userSpaceOnUse">
<stop stop-color="#454347"/>
<stop offset="1" stop-color="#626163"/>
</linearGradient>
<linearGradient id="paint24_linear_26486_105475" x1="366.77" y1="613.62" x2="257" y2="577.03" gradientUnits="userSpaceOnUse">
<stop stop-color="#363636"/>
<stop offset="1" stop-color="#131313"/>
</linearGradient>
<clipPath id="clip0_26486_105475">
<rect width="480" height="480" rx="8" fill="white"/>
</clipPath>
</defs>
</svg>
