<svg width="123" height="73" viewBox="0 0 123 73" fill="none" xmlns="http://www.w3.org/2000/svg">
<path opacity="0.97" d="M93.0253 100.67C92.9909 96.0301 92.7797 91.3933 92.4817 86.763C92.2066 82.3374 91.8022 77.92 91.1735 73.5305C90.8788 71.3693 90.5284 69.2146 90.1633 67.0632C90.1436 66.4361 89.2104 66.4656 89.3217 67.1451C90.0912 71.515 90.6758 75.4265 91.1326 79.7063C91.5173 83.5769 91.7498 87.4621 91.9512 91.3474C92.1133 94.8365 92.2328 98.3304 92.2279 101.824C92.2181 105.803 92.0871 109.782 91.9823 113.759C91.9561 114.838 91.9135 115.918 91.9266 116.999C91.9348 117.218 91.9315 117.438 91.9348 117.657C91.9201 117.796 91.979 117.95 92.1198 117.999C92.3049 118.089 92.5455 117.93 92.5374 117.722C92.5603 117.372 92.5717 117.261 92.5848 117.112C92.67 116.159 92.6929 115.201 92.7355 114.247C92.8959 109.724 93.0465 105.199 93.0253 100.673V100.67Z" fill="url(#paint0_linear_28963_356184)"/>
<path d="M91.0281 97.9406C89.9639 107.255 84.2104 115.237 79.4296 123.302C76.1451 128.843 73.2553 134.613 70.8158 140.512C67.7884 147.834 65.4635 155.357 63.9523 162.89C63.8459 163.421 63.6576 163.931 63.3841 164.4C61.8647 167.005 59.5856 169.163 56.8939 170.525C54.2383 171.869 51.1929 172.431 47.9593 172.301C47.5958 172.287 47.229 172.264 46.8607 172.232C46.3793 172.565 45.8816 172.871 45.3658 173.153C44.6421 173.547 43.8857 173.894 43.1015 174.191C41.4674 174.813 39.7057 175.221 37.8392 175.424C37.6018 175.45 37.3611 175.451 37.1221 175.437C18.9384 174.181 1.09688 168.285 -14.0595 158.186C-14.4835 157.905 -14.8306 157.52 -15.0631 157.068C-18.9828 149.441 -17.8907 140.032 -14.9174 131.937C-13.8565 129.049 -12.5794 126.251 -11.2286 123.484C-8.67936 118.261 -5.87142 113.146 -3.77405 107.728C-1.11674 100.868 0.371563 93.61 2.82258 86.6728C5.18027 79.9943 8.60383 73.4239 14.2918 68.959C14.7158 68.625 15.1988 68.3729 15.7097 68.1993C19.3117 66.973 22.8564 65.5797 26.3406 64.0177C34.1881 60.5024 41.731 56.1374 48.9187 50.9276C46.7362 49.6865 44.9696 47.7251 43.9332 45.8062C43.8824 45.7145 43.8464 45.6146 43.8251 45.5115C41.5477 35.1474 42.3581 24.1318 45.9503 14.0985C46.5234 12.5005 47.1652 10.9287 47.8774 9.38637C48.0657 8.97705 48.3751 8.63322 48.7681 8.41382C49.1168 8.21898 49.4689 8.02742 49.8209 7.84241C49.9322 7.78019 50.0435 7.72125 50.1549 7.66394C63.2744 0.800441 78.8729 -1.21015 92.9879 1.90561C93.4611 2.0104 93.8819 2.27564 94.175 2.66204C98.5187 8.35488 101.448 15.1021 102.591 21.666C102.622 21.8428 102.638 22.0229 102.643 22.203C102.959 38.7593 98.9116 55.3794 90.6695 70.1592C90.4599 70.5357 90.311 70.9434 90.2324 71.3658C88.6524 80.0795 92.035 89.1042 91.0265 97.9357L91.0281 97.9406Z" fill="url(#paint1_linear_28963_356184)"/>
<path style="mix-blend-mode:multiply" opacity="0.26" d="M76.9438 62.9718C51.5691 54.7297 39.8756 59.0914 31.1751 62.6624C29.6393 63.2927 27.9873 63.7069 26.3418 64.0229C34.1893 60.5077 41.7323 56.1427 48.92 50.9328C46.7375 49.6918 44.9708 47.7303 43.9344 45.8114C43.8837 45.7197 43.8477 45.6198 43.8264 45.5167C41.5489 35.1527 42.3594 24.137 45.9516 14.1037C46.5246 12.5057 47.1664 10.9339 47.8787 9.39162C48.0669 8.98229 48.3764 8.63846 48.7693 8.41907C49.1181 8.22423 49.4701 8.03267 49.8221 7.84766C43.8116 22.7208 43.2026 47.5977 76.9421 62.9685L76.9438 62.9718Z" fill="url(#paint2_linear_28963_356184)"/>
<path style="mix-blend-mode:multiply" opacity="0.26" d="M78.8541 63.7379C78.2122 63.4972 77.5754 63.2402 76.9434 62.9717C77.5803 63.2271 78.2172 63.4825 78.8541 63.7379Z" fill="url(#paint3_linear_28963_356184)"/>
<path style="mix-blend-mode:multiply" opacity="0.63" d="M86.1095 67.9142C85.9556 68.5429 85.2646 68.9866 84.6294 68.8622C83.9941 68.7394 83.5193 68.0681 83.611 67.4296C83.7043 66.7894 84.351 66.2818 84.9945 66.344C85.6379 66.4063 86.3207 67.0513 86.1095 67.9142Z" fill="url(#paint4_linear_28963_356184)"/>
<path style="mix-blend-mode:multiply" opacity="0.58" d="M85.8164 7.63362C87.5486 7.35037 89.7999 7.67946 91.9464 8.45554C92.8616 8.78627 93.6852 9.34131 94.3221 10.0781C99.7972 16.4127 102.138 24.5746 102.232 33.0263C102.387 46.9989 95.9086 60.6882 87.5159 63.56C81.6282 54.7662 79.7764 43.2773 82.3584 33.0148C83.3326 29.1377 84.9143 25.4375 85.9474 21.5751C86.9805 17.7127 88.1774 13.2151 85.818 7.63362H85.8164Z" fill="url(#paint5_linear_28963_356184)"/>
<path d="M87.5154 63.5607C83.1406 61.1228 78.6806 56.3993 76.1313 51.6675C75.7302 50.9258 75.3765 50.1825 75.0786 49.449C74.4367 47.8723 73.9374 46.2448 73.5723 44.5879C73.7016 44.3832 73.8457 44.1933 74.0061 44.0181C74.3401 43.653 74.7265 43.3517 75.1457 43.1045C78.5218 45.0349 81.8749 47.0078 85.1692 48.9889C84.8892 52.2111 85.2543 55.2941 85.9305 58.2101C86.3595 60.0635 86.9161 61.8498 87.5137 63.5607H87.5154Z" fill="url(#paint6_linear_28963_356184)"/>
<path style="mix-blend-mode:multiply" opacity="0.53" d="M85.9321 58.2111C83.1602 55.3884 79.8021 53.1404 76.1313 51.6685C75.7302 50.9268 75.3765 50.1835 75.0786 49.45C74.4367 47.8732 73.9374 46.2458 73.5723 44.5888C73.7016 44.3842 73.8457 44.1943 74.0061 44.0191C74.3401 43.654 74.7265 43.3527 75.1457 43.1055C78.5218 45.0358 81.8749 47.0088 85.1692 48.9899C84.8892 52.2121 85.2543 55.2951 85.9305 58.2111H85.9321Z" fill="url(#paint7_linear_28963_356184)"/>
<path d="M101.355 48.1638C100.824 50.2382 100.035 52.4043 98.2981 53.6552C94.2491 56.568 83.538 53.128 77.4096 50.1351C76.532 49.7061 75.6675 49.2509 74.8145 48.7712C74.8096 48.7581 74.8063 48.7483 74.8014 48.7352C74.2987 47.4008 73.896 46.0353 73.5849 44.6469C73.5096 44.3129 73.4392 43.9756 73.3753 43.6383V43.635C73.2673 43.0718 73.1739 42.5053 73.097 41.9372C73.025 41.41 72.966 40.8795 72.9169 40.3474C72.5796 36.5472 72.871 32.6783 73.6962 28.9519C74.5116 25.2696 75.828 21.7216 77.5111 18.3422C77.7911 17.7774 78.0842 17.2191 78.3838 16.664C79.6003 14.4193 80.974 12.2548 82.4606 10.182C83.2154 9.12923 84.0963 8.03225 85.3537 7.71625C86.8076 7.35114 88.4007 8.00769 89.5009 9.02608C93.5663 12.7837 96.4627 16.6607 98.4864 20.4887C99.0676 21.5873 99.5752 22.681 100.021 23.7666C100.386 24.6605 100.708 25.5496 100.99 26.4304C103.794 35.1948 102.634 43.1848 101.358 48.1654L101.355 48.1638Z" fill="url(#paint8_linear_28963_356184)"/>
<path d="M87.0834 16.317C87.0162 16.5806 86.9147 16.8442 86.7002 16.9195C86.0895 17.134 86.2516 15.9535 86.2598 15.6719C86.2778 15.0334 86.3401 14.3948 86.4448 13.7645C86.5791 12.9589 86.7854 12.1665 87.0588 11.397C87.2356 10.8976 87.5074 9.70236 88.254 9.83662C88.7419 9.92503 89.3363 10.4293 89.2544 10.9713C89.2217 11.1841 89.1152 11.3773 89.0121 11.5672C88.5225 12.4694 88.0903 13.401 87.7203 14.3572C87.5303 14.8467 87.3568 15.3412 87.198 15.8422C87.1587 15.965 87.1292 16.1418 87.0834 16.317Z" fill="url(#paint9_linear_28963_356184)"/>
<path d="M81.8633 18.9671C80.434 18.638 78.9784 18.4284 77.5098 18.3433C77.7897 17.7784 78.0828 17.2201 78.3824 16.665C78.7214 16.7322 79.0619 16.8026 79.3992 16.8812C80.4127 17.1169 81.5801 17.3691 82.4413 18.024C82.5706 18.1222 82.6983 18.2352 82.7671 18.3989C83.0569 19.0849 82.1711 19.0375 81.8617 18.9671H81.8633Z" fill="url(#paint10_linear_28963_356184)"/>
<path style="mix-blend-mode:multiply" opacity="0.49" d="M100.988 26.4281C99.6227 23.707 98.0116 21.107 96.1794 18.6772C94.6273 16.6175 92.6053 14.5202 90.0265 14.4366C87.7294 14.3613 85.8138 16.0199 84.1094 17.5622C70.6771 29.7256 73.8796 44.6331 74.8145 48.7722C74.8112 48.7607 74.808 48.7493 74.8014 48.7362C74.2988 47.4018 73.896 46.0363 73.5849 44.6479C73.5096 44.3138 73.4392 43.9766 73.3753 43.6393V43.636C73.2673 43.0728 73.1739 42.5063 73.097 41.9381C73.0249 41.4109 72.966 40.8805 72.9169 40.3483C72.5796 36.5482 72.871 32.6793 73.6962 28.9528C74.5116 25.2706 75.828 21.7226 77.5111 18.3432C77.7911 17.7784 78.0841 17.22 78.3838 16.665C79.6003 14.4203 80.974 12.2558 82.4606 10.183C83.2154 9.13021 84.0963 8.03323 85.3537 7.71723C86.8076 7.35211 88.4007 8.00867 89.5009 9.02706C93.5663 12.7846 96.4627 16.6617 98.4864 20.4897C99.0676 21.5883 99.5752 22.682 100.021 23.7675C100.386 24.6615 100.708 25.5505 100.99 26.4314L100.988 26.4281Z" fill="url(#paint11_linear_28963_356184)"/>
<path d="M76.9346 38.3257C77.6026 39.1738 78.3034 39.9957 79.0369 40.7882C81.9038 43.8859 85.2733 46.5367 89.0489 48.4359C89.4402 48.6324 89.8839 48.8272 90.3047 48.7028C90.7812 48.562 91.0513 48.0692 91.2625 47.6189C91.6833 46.7299 92.0828 45.831 92.4659 44.9239C92.5101 44.8192 92.556 44.7127 92.5985 44.6063C92.9571 43.7418 93.2993 42.8708 93.6251 41.9916C93.8494 41.3874 93.7725 41.0419 93.5334 40.8438C93.0946 40.4853 92.1123 40.6113 91.4099 40.5295C89.5876 40.3183 87.7735 40.0203 85.9774 39.6404C82.8387 38.9724 79.8195 37.9802 76.784 36.952C75.5037 36.5181 76.6972 38.0228 76.9346 38.324V38.3257Z" fill="url(#paint12_linear_28963_356184)"/>
<path style="mix-blend-mode:multiply" d="M77.0806 37.7704C78.2071 38.5613 79.3728 39.3062 80.5697 39.9857C82.6507 41.1711 84.8168 42.219 87.037 43.1129C88.1552 43.5648 89.2899 43.9741 90.4409 44.3311C91.1056 44.5374 91.7818 44.7502 92.4629 44.9254C92.5071 44.8206 92.553 44.7142 92.5955 44.6078C92.4253 44.5635 92.255 44.5177 92.0847 44.4719C91.4445 44.295 90.8093 44.1067 90.1756 43.9037C87.8687 43.1653 85.5896 42.3172 83.4087 41.2595C81.241 40.2084 79.1502 39.0001 77.1379 37.6738C77.0757 37.6329 77.0217 37.7312 77.079 37.7704H77.0806Z" fill="url(#paint13_linear_28963_356184)"/>
<path d="M87.5574 34.3816C87.5508 34.2834 87.5574 34.1819 87.564 34.0836C87.7244 31.7374 87.8849 29.3912 88.0453 27.0449C88.1157 26.0282 88.083 25.0442 87.9847 24.0225C87.934 23.4904 87.9504 22.6963 87.6507 22.2264C87.5067 22.0005 87.7899 21.7369 88.0109 21.8662C89.008 22.4491 89.8742 23.438 90.7141 24.2288C91.6457 25.1064 92.5708 25.9873 93.5106 26.8567C95.3869 28.5922 97.3222 30.2786 98.9513 32.2564C99.3197 32.7034 99.2771 33.5941 98.5681 33.7087C95.8011 34.1573 92.9948 34.4651 90.2049 34.7124C89.7579 34.7516 87.8914 35.1086 87.654 34.7271C87.5885 34.6239 87.5639 34.5044 87.5558 34.3816H87.5574Z" fill="url(#paint14_linear_28963_356184)"/>
<path d="M85.446 25.8734C85.3642 26.2221 85.1775 26.5349 84.8713 26.7935C83.8759 27.6335 82.5415 26.9327 81.5542 25.6147C80.9271 24.7797 80.5735 23.9152 80.6619 23.1702C80.7143 22.738 80.9124 22.345 81.2922 22.0209C82.3745 21.0974 83.6221 21.8817 84.6094 23.1997C85.2954 24.1133 85.6392 25.0826 85.446 25.8734Z" fill="url(#paint15_linear_28963_356184)"/>
<path d="M84.7121 24.9537C85.1053 24.6814 85.139 24.049 84.7873 23.5413C84.4356 23.0336 83.8318 22.8428 83.4385 23.1152C83.0453 23.3876 83.0117 24.02 83.3633 24.5277C83.715 25.0354 84.3189 25.2261 84.7121 24.9537Z" fill="url(#paint16_linear_28963_356184)"/>
<path style="mix-blend-mode:multiply" d="M85.444 25.8731C85.1951 25.0675 84.7285 24.334 84.1816 23.6955C83.8509 23.3091 83.4825 22.9505 83.0405 22.7066C82.5984 22.4626 82.0777 22.3464 81.5898 22.4642C81.2051 22.5576 80.8481 22.8163 80.6582 23.1683C80.7106 22.736 80.9087 22.3431 81.2886 22.0189C82.3708 21.0955 83.6184 21.8797 84.6057 23.1978C85.2917 24.1114 85.6356 25.0806 85.4424 25.8714L85.444 25.8731Z" fill="url(#paint17_linear_28963_356184)"/>
<path d="M93.6244 20.4492C93.4656 20.7537 93.2151 21.0009 92.8631 21.1696C91.7186 21.7164 90.6052 20.7488 89.9634 19.2867C89.5574 18.3616 89.4182 17.4726 89.6736 16.7997C89.8226 16.41 90.1026 16.0907 90.5414 15.8795C91.789 15.2753 92.7992 16.3019 93.441 17.7624C93.8847 18.7759 93.9912 19.7599 93.6244 20.4492Z" fill="url(#paint18_linear_28963_356184)"/>
<path d="M93.2149 19.4068C93.6207 19.2288 93.7648 18.663 93.5367 18.1429C93.3086 17.6229 92.7948 17.3455 92.389 17.5235C91.9832 17.7014 91.8392 18.2673 92.0673 18.7873C92.2953 19.3074 92.8092 19.5847 93.2149 19.4068Z" fill="url(#paint19_linear_28963_356184)"/>
<path style="mix-blend-mode:multiply" d="M93.6226 20.4492C93.5703 19.6404 93.2935 18.8463 92.9186 18.1226C92.691 17.6854 92.4225 17.263 92.0558 16.9323C91.6906 16.6016 91.2191 16.3691 90.7246 16.3641C90.335 16.3609 89.9355 16.5181 89.6719 16.7997C89.8209 16.41 90.1008 16.0907 90.5396 15.8795C91.7872 15.2753 92.7975 16.3019 93.4393 17.7624C93.883 18.7759 93.9894 19.7599 93.6226 20.4492Z" fill="url(#paint20_linear_28963_356184)"/>
<path style="mix-blend-mode:multiply" opacity="0.5" d="M75.578 9.63366C75.4519 9.45356 75.149 9.47157 75.0442 9.66641C74.8968 9.88089 74.7511 10.0954 74.6087 10.3131C74.0291 11.1874 73.5068 12.0978 72.9878 13.0097C71.5371 15.6065 70.2944 18.3129 69.1303 21.0472C66.8398 26.352 65.1615 31.9384 64.4084 37.6755C64.1169 39.8203 63.9172 41.9815 63.9303 44.1477C63.9368 44.5144 64.5017 44.5504 64.5164 44.1477C64.5066 41.7376 64.7817 39.2178 65.0977 37.0713C65.5168 34.2617 66.1177 31.4783 66.9183 28.7539C67.5962 26.388 68.6866 23.5539 69.5347 21.5515C70.6104 18.994 71.7827 16.4742 73.1171 14.0396C73.6443 13.0736 74.2043 12.1256 74.8068 11.2038C75.018 10.8682 75.2357 10.5374 75.4568 10.2083C75.5779 10.0413 75.745 9.82686 75.578 9.63366Z" fill="url(#paint21_linear_28963_356184)"/>
<path style="mix-blend-mode:multiply" opacity="0.5" d="M64.4323 57.176C60.6993 55.7188 57.0482 54.3156 53.4854 52.7618C52.5866 52.3771 51.7041 51.953 50.8363 51.5011C50.6628 51.4111 50.4892 51.321 50.3238 51.2195C50.2584 51.1737 50.1798 51.1344 50.0979 51.1589C49.9211 51.2015 49.8851 51.4618 50.0471 51.5486C51.6746 52.5523 53.4789 53.2252 55.2308 53.9767C58.1222 55.1883 61.0464 56.3229 63.969 57.4641C64.1393 57.5067 64.3128 57.6655 64.488 57.5771C64.6501 57.487 64.6206 57.2218 64.4356 57.176H64.4323Z" fill="url(#paint22_linear_28963_356184)"/>
<path opacity="0.97" d="M87.4633 117.742C87.4092 117.454 87.3552 117.165 87.3028 116.877C87.1358 115.977 86.9819 115.075 86.8411 114.171C85.5673 105.829 84.9271 96.678 84.6553 87.8924C84.5227 83.8172 84.5505 79.7387 84.7585 75.6668C84.8534 73.607 84.9942 71.549 85.1367 69.4925C85.1661 69.039 85.1956 68.5871 85.2169 68.1336C85.212 67.9142 85.2758 67.6817 85.194 67.4754C85.0335 67.0677 84.3704 67.1594 84.3721 67.6408C84.2558 70.4454 83.9857 73.2419 83.8809 76.0466C83.6975 79.8025 83.6697 83.5634 83.7794 87.3226C84.0708 96.57 84.6439 105.83 86.1551 114.967C86.2992 115.815 86.4498 116.663 86.6217 117.504C86.7199 117.881 86.6856 118.479 87.2226 118.377C87.3536 118.339 87.4534 118.238 87.4927 118.107C87.5287 117.986 87.4813 117.865 87.4633 117.743V117.742Z" fill="url(#paint23_linear_28963_356184)"/>
<defs>
<linearGradient id="paint0_linear_28963_356184" x1="100.02" y1="95.326" x2="81.8704" y2="89.2746" gradientUnits="userSpaceOnUse">
<stop stop-color="#363636"/>
<stop offset="1" stop-color="#131313"/>
</linearGradient>
<linearGradient id="paint1_linear_28963_356184" x1="57.1821" y1="33.985" x2="18.4423" y2="197.337" gradientUnits="userSpaceOnUse">
<stop stop-color="#B8B8B8"/>
<stop offset="1" stop-color="#8C898C"/>
</linearGradient>
<linearGradient id="paint2_linear_28963_356184" x1="74.9381" y1="43.7697" x2="28.7945" y2="33.9624" gradientUnits="userSpaceOnUse">
<stop stop-color="#B8B8B8"/>
<stop offset="1" stop-color="#8C898C"/>
</linearGradient>
<linearGradient id="paint3_linear_28963_356184" x1="78.651" y1="63.5136" x2="76.7518" y2="63.1109" gradientUnits="userSpaceOnUse">
<stop stop-color="#B8B8B8"/>
<stop offset="1" stop-color="#8C898C"/>
</linearGradient>
<linearGradient id="paint4_linear_28963_356184" x1="84.6539" y1="68.8507" x2="84.9928" y2="66.9269" gradientUnits="userSpaceOnUse">
<stop stop-color="#454347"/>
<stop offset="1" stop-color="#626163"/>
</linearGradient>
<linearGradient id="paint5_linear_28963_356184" x1="86.8839" y1="63.1098" x2="94.2435" y2="21.3295" gradientUnits="userSpaceOnUse">
<stop stop-color="#454347"/>
<stop offset="1" stop-color="#626163"/>
</linearGradient>
<linearGradient id="paint6_linear_28963_356184" x1="78.5611" y1="59.4708" x2="85.6538" y2="40.1672" gradientUnits="userSpaceOnUse">
<stop stop-color="#FFC493"/>
<stop offset="1" stop-color="#FFB073"/>
</linearGradient>
<linearGradient id="paint7_linear_28963_356184" x1="78.4628" y1="54.9054" x2="83.4304" y2="41.388" gradientUnits="userSpaceOnUse">
<stop stop-color="#FFC493"/>
<stop offset="1" stop-color="#FFB073"/>
</linearGradient>
<linearGradient id="paint8_linear_28963_356184" x1="104.171" y1="39.5091" x2="71.3877" y2="23.5832" gradientUnits="userSpaceOnUse">
<stop stop-color="#FFC493"/>
<stop offset="1" stop-color="#FFB073"/>
</linearGradient>
<linearGradient id="paint9_linear_28963_356184" x1="89.261" y1="13.3863" x2="86.2336" y2="13.3863" gradientUnits="userSpaceOnUse">
<stop stop-color="#454347"/>
<stop offset="1" stop-color="#626163"/>
</linearGradient>
<linearGradient id="paint10_linear_28963_356184" x1="82.826" y1="17.8357" x2="77.5098" y2="17.8357" gradientUnits="userSpaceOnUse">
<stop stop-color="#454347"/>
<stop offset="1" stop-color="#626163"/>
</linearGradient>
<linearGradient id="paint11_linear_28963_356184" x1="61.5967" y1="40.4597" x2="86.7798" y2="23.6709" gradientUnits="userSpaceOnUse">
<stop stop-color="#FFC493"/>
<stop offset="1" stop-color="#FFB073"/>
</linearGradient>
<linearGradient id="paint12_linear_28963_356184" x1="89.7464" y1="48.9893" x2="82.4195" y2="33.9181" gradientUnits="userSpaceOnUse">
<stop stop-color="#FFF4EF"/>
<stop offset="1" stop-color="#F6DFD7"/>
</linearGradient>
<linearGradient id="paint13_linear_28963_356184" x1="84.1586" y1="49.7292" x2="84.843" y2="40.9435" gradientUnits="userSpaceOnUse">
<stop stop-color="#FFF4EF"/>
<stop offset="1" stop-color="#F6DFD7"/>
</linearGradient>
<linearGradient id="paint14_linear_28963_356184" x1="96.6083" y1="33.3763" x2="82.6832" y2="25.3389" gradientUnits="userSpaceOnUse">
<stop stop-color="#FF9762"/>
<stop offset="1" stop-color="#FFB073"/>
</linearGradient>
<linearGradient id="paint15_linear_28963_356184" x1="81.3376" y1="25.5892" x2="84.3187" y2="23.5626" gradientUnits="userSpaceOnUse">
<stop stop-color="#FFF4EF"/>
<stop offset="1" stop-color="#F6DFD7"/>
</linearGradient>
<linearGradient id="paint16_linear_28963_356184" x1="85.0612" y1="24.2357" x2="83.0933" y2="23.8504" gradientUnits="userSpaceOnUse">
<stop stop-color="#363636"/>
<stop offset="1" stop-color="#131313"/>
</linearGradient>
<linearGradient id="paint17_linear_28963_356184" x1="84.1887" y1="25.644" x2="81.6206" y2="21.5473" gradientUnits="userSpaceOnUse">
<stop stop-color="#FFF4EF"/>
<stop offset="1" stop-color="#D7C2BB"/>
</linearGradient>
<linearGradient id="paint18_linear_28963_356184" x1="89.763" y1="19.2428" x2="93.0699" y2="18.02" gradientUnits="userSpaceOnUse">
<stop stop-color="#FFF4EF"/>
<stop offset="1" stop-color="#F6DFD7"/>
</linearGradient>
<linearGradient id="paint19_linear_28963_356184" x1="93.6516" y1="18.8596" x2="91.9561" y2="18.0693" gradientUnits="userSpaceOnUse">
<stop stop-color="#363636"/>
<stop offset="1" stop-color="#131313"/>
</linearGradient>
<linearGradient id="paint20_linear_28963_356184" x1="92.444" y1="19.9621" x2="90.9823" y2="15.5104" gradientUnits="userSpaceOnUse">
<stop stop-color="#FFF4EF"/>
<stop offset="1" stop-color="#D7C2BB"/>
</linearGradient>
<linearGradient id="paint21_linear_28963_356184" x1="66.2945" y1="44.8058" x2="72.5965" y2="9.02295" gradientUnits="userSpaceOnUse">
<stop stop-color="#454347"/>
<stop offset="1" stop-color="#626163"/>
</linearGradient>
<linearGradient id="paint22_linear_28963_356184" x1="56.9287" y1="56.2951" x2="57.6049" y2="52.4606" gradientUnits="userSpaceOnUse">
<stop stop-color="#454347"/>
<stop offset="1" stop-color="#626163"/>
</linearGradient>
<linearGradient id="paint23_linear_28963_356184" x1="94.9325" y1="95.7906" x2="76.9601" y2="89.7998" gradientUnits="userSpaceOnUse">
<stop stop-color="#363636"/>
<stop offset="1" stop-color="#131313"/>
</linearGradient>
</defs>
</svg>
