<svg width="121" height="79" viewBox="0 0 121 79" fill="none" xmlns="http://www.w3.org/2000/svg">
<path d="M89.69 93.8936C89.6426 97.7544 88.6492 102.419 86.9484 107.561C85.3292 112.454 83.068 117.777 80.3672 123.251C78.1975 127.644 75.7467 132.134 73.1145 136.573C70.1082 141.646 66.8683 146.654 63.5499 151.381C61.354 154.508 59.1238 157.513 56.9034 160.331C54.9526 162.806 53.0099 165.141 51.1065 167.288C48.5119 170.214 45.9893 172.794 43.6153 174.92C43.4127 175.065 43.2068 175.207 42.9993 175.343C40.9439 176.688 38.6631 177.57 36.2254 178.07C36.16 176.701 36.1502 175.328 36.1943 173.957C36.2515 172.234 36.3953 170.512 36.6224 168.804C32.7845 171.536 28.8518 174.016 24.8014 176.235C24.5988 176.346 24.3979 176.456 24.1953 176.565C23.5385 176.92 22.8784 177.269 22.215 177.611C3.54826 173.645 -16.5547 159.009 -16.5547 159.009C-16.2524 156.284 -15.9387 153.639 -15.6152 151.075C-14.9584 145.873 -14.2575 140.996 -13.519 136.423C-12.8181 132.082 -12.0812 128.015 -11.3133 124.202C-10.1827 118.581 -8.98014 113.513 -7.71881 108.936C-6.348 103.96 -4.90694 99.5663 -3.41196 95.6827C-1.4448 90.5752 0.617117 86.3468 2.74603 82.8275C2.94863 82.4925 3.15287 82.1625 3.3571 81.8406C7.07739 75.9539 10.9839 72.1601 14.9134 69.5606C17.5831 67.7928 20.2642 66.5788 22.9013 65.6328C24.4714 65.0707 26.0889 64.6574 27.6574 64.0953C28.4498 63.8111 29.2374 63.5153 30.02 63.2065C34.2288 61.5465 38.2987 59.5287 42.171 57.1874C42.7477 56.8394 43.3179 56.4832 43.8849 56.1205C47.9581 53.5161 51.8009 50.5491 55.3431 47.2585C56.5832 46.1066 57.7873 44.9139 58.9523 43.6836C61.3295 43.6754 61.3426 42.285 62.9519 40.5352C69.5887 44.0921 76.2679 47.9496 82.7232 51.8284C82.7722 57.4063 83.3849 62.9467 84.3293 68.4447C84.8946 71.732 85.5776 75.0046 86.3275 78.2609C86.6902 79.831 87.0676 81.3995 87.4565 82.9631C87.7898 84.3061 88.1313 85.6475 88.4777 86.9873C88.8583 88.4643 89.4139 89.9233 89.5805 91.4461C89.6655 92.2205 89.7014 93.0374 89.69 93.8952V93.8936Z" fill="url(#paint0_linear_28963_370029)"/>
<path d="M87.4538 82.9624C70.6986 78.0707 55.0169 69.1613 42.1699 57.1867C42.7467 56.8387 43.3169 56.4826 43.8838 56.1198C47.957 53.5155 51.7999 50.5484 55.3421 47.2578C63.2303 56.3894 73.2295 63.7009 84.3267 68.444C84.892 71.7313 85.5749 75.0039 86.3249 78.2602C86.6876 79.8303 87.065 81.3988 87.4538 82.9624Z" fill="url(#paint1_linear_28963_370029)"/>
<path d="M89.6871 93.8931C89.6397 97.7539 88.6463 102.419 86.9455 107.56C59.3382 104.905 32.891 90.895 14.9121 69.5601C17.5818 67.7923 20.263 66.5783 22.9 65.6323C24.4702 65.0703 26.0877 64.6569 27.6562 64.0949C28.4486 63.8106 29.2361 63.5149 30.0187 63.2061C45.0649 80.5037 66.8965 91.8034 89.6871 93.8931Z" fill="url(#paint2_linear_28963_370029)"/>
<path d="M80.891 78.5933C79.414 83.0162 77.3717 88.073 74.6546 94.2293C73.4227 97.0183 72.0519 100.034 70.5324 103.32C60.8681 72.1118 49.9001 51.1527 49.4785 50.4992C54.9813 46.9848 55.2967 46.0927 59.7849 41.3496C62.1621 41.3414 62.1736 39.951 63.7846 38.2012C70.4213 41.7581 77.1005 45.6156 83.5558 49.4944C83.5754 51.772 83.6882 54.043 83.8826 56.3108C84.5116 63.6599 83.7927 69.9045 80.8926 78.5933H80.891Z" fill="url(#paint3_linear_28963_370029)"/>
<path style="mix-blend-mode:multiply" opacity="0.53" d="M80.8905 78.594C79.4135 83.0168 77.3712 88.0736 74.6541 94.23C66.2822 82.7456 58.4152 70.6322 54.6083 56.9699C53.5463 53.163 56.1049 50.9296 58.0868 49.8234C60.067 48.719 62.6812 48.7222 64.5323 50.0309C66.1449 51.1697 67.0093 53.0715 67.7461 54.9031C69.4911 59.2442 70.9289 63.7161 72.9516 67.9364C74.8828 71.9654 77.4071 75.8132 80.8905 78.594Z" fill="url(#paint4_linear_28963_370029)"/>
<path d="M98.8739 51.0044C98.7498 51.4897 98.6125 51.9815 98.4508 52.4618C97.9247 54.0369 97.1519 55.5302 95.8235 56.4844C93.84 57.9107 91.1507 57.7588 88.7391 57.3667C84.331 56.651 80.0291 55.3194 75.9771 53.4454C75.6438 53.2918 75.3105 53.1333 74.9804 52.9716C71.6359 51.3361 68.4761 49.3314 65.5792 46.9966C64.1856 45.8725 62.8507 44.6732 61.5877 43.4037C61.2708 43.0868 60.9587 42.7633 60.6548 42.4365C60.578 42.3581 60.5028 42.2764 60.4244 42.1947C60.2855 42.0444 60.1483 41.8957 60.0111 41.7454C60.31 34.1659 56.9264 23.3204 62.5599 18.2407C68.1934 13.1627 75.9853 7.75466 83.5549 8.24155C83.8278 8.42291 84.0957 8.6059 84.3588 8.78889C84.8571 9.13691 85.3407 9.48982 85.8096 9.84763C103.307 23.1766 100.887 43.1325 98.8756 51.0028L98.8739 51.0044Z" fill="url(#paint5_linear_28963_370029)"/>
<path style="mix-blend-mode:multiply" opacity="0.35" d="M84.3588 8.79084C83.4765 11.9148 81.1482 14.6547 78.387 16.4716C74.8203 18.8194 70.5935 19.9027 66.0122 20.9091C61.1155 36.3229 68.5251 48.023 79.6255 50.9345C79.2677 50.7695 70.6197 51.0619 65.5792 46.9985C64.1856 45.8745 62.8507 44.6752 61.5877 43.4057C61.2708 43.0887 60.9587 42.7652 60.6548 42.4385C60.578 42.36 60.5028 42.2783 60.4244 42.1966C60.2855 42.0463 60.1483 41.8976 60.0111 41.7473C60.31 34.1679 56.9264 23.3223 62.5599 18.2427C68.1934 13.1647 75.9853 7.75662 83.5549 8.2435C83.8278 8.42486 84.0957 8.60785 84.3588 8.79084Z" fill="url(#paint6_linear_28963_370029)"/>
<path d="M74.5034 41.1859C75.17 42.0323 75.8693 42.8524 76.6013 43.6432C79.4622 46.7345 82.8246 49.3797 86.5923 51.275C86.9828 51.471 87.4256 51.6655 87.8455 51.5413C88.3209 51.4008 88.5905 50.909 88.8013 50.4597C89.2212 49.5725 89.6198 48.6755 90.0022 47.7704C90.0463 47.6658 90.092 47.5596 90.1345 47.4534C90.4923 46.5907 90.8338 45.7215 91.1589 44.8441C91.3828 44.2412 91.306 43.8965 91.0674 43.6988C90.6296 43.341 89.6492 43.4668 88.9483 43.3851C87.1298 43.1743 85.3195 42.877 83.5272 42.4979C80.3951 41.8313 77.3823 40.8412 74.3531 39.8151C73.0754 39.3821 74.2665 40.8837 74.5034 41.1843V41.1859Z" fill="url(#paint7_linear_28963_370029)"/>
<path style="mix-blend-mode:multiply" d="M74.6489 40.6325C75.773 41.4217 76.9363 42.1651 78.1307 42.8431C80.2073 44.026 82.3689 45.0717 84.5844 45.9638C85.7003 46.4147 86.8326 46.8232 87.9812 47.1794C88.6445 47.3853 89.3193 47.5977 89.999 47.7725C90.0431 47.6679 90.0888 47.5617 90.1313 47.4555C89.9614 47.4114 89.7915 47.3656 89.6216 47.3199C88.9827 47.1434 88.3488 46.9555 87.7165 46.7529C85.4144 46.0161 83.1401 45.1697 80.9638 44.1143C78.8005 43.0653 76.7141 41.8596 74.7061 40.5361C74.644 40.4953 74.5901 40.5933 74.6473 40.6325H74.6489Z" fill="url(#paint8_linear_28963_370029)"/>
<path d="M85.1023 37.2498C85.0958 37.1518 85.1023 37.0505 85.1088 36.9525C85.269 34.6112 85.4291 32.2699 85.5892 29.9285C85.6595 28.9139 85.6268 27.932 85.5288 26.9124C85.4781 26.3814 85.4944 25.589 85.1954 25.1201C85.0517 24.8946 85.3343 24.6316 85.5549 24.7607C86.5499 25.3423 87.4142 26.3292 88.2524 27.1183C89.182 27.9941 90.1052 28.8731 91.043 29.7406C92.9154 31.4725 94.8466 33.1554 96.4723 35.1291C96.8399 35.5751 96.7975 36.464 96.09 36.5783C93.3288 37.026 90.5283 37.3332 87.7443 37.5799C87.2982 37.6191 85.4356 37.9753 85.1987 37.5946C85.1334 37.4917 85.1089 37.3724 85.1007 37.2498H85.1023Z" fill="url(#paint9_linear_28963_370029)"/>
<path d="M84.4 18.487C84.333 18.75 84.2317 19.0131 84.0176 19.0882C83.4082 19.3023 83.57 18.1243 83.5781 17.8432C83.5961 17.206 83.6582 16.5688 83.7628 15.9398C83.8967 15.1359 84.1026 14.3452 84.3754 13.5773C84.5519 13.0789 84.8231 11.8862 85.5682 12.0202C86.0551 12.1084 86.6481 12.6116 86.5665 13.1524C86.5338 13.3649 86.4276 13.5576 86.3246 13.7472C85.8361 14.6474 85.4048 15.5771 85.0355 16.5313C84.846 17.0198 84.6728 17.5132 84.5143 18.0132C84.4751 18.1357 84.4457 18.3122 84.4 18.487Z" fill="url(#paint10_linear_28963_370029)"/>
<path d="M70.6431 21.1319C69.8752 21.2103 69.0697 21.3476 68.3916 21.7364C68.0485 21.9341 66.8084 23.0239 67.6564 23.3523C67.8802 23.4389 68.1318 23.3687 68.3622 23.3017C71.1643 22.4815 74.0905 22.091 77.0102 22.1465C77.301 22.1514 78.1 22.0518 77.7144 21.5861C77.6229 21.475 77.4873 21.4113 77.3533 21.3574C76.4612 21.0028 75.3698 20.9947 74.4189 20.9767C73.1592 20.9522 71.8979 21.0028 70.6431 21.1303V21.1319Z" fill="url(#paint11_linear_28963_370029)"/>
<path d="M35.9507 91.7564C35.9147 92.887 35.8445 94.0127 35.7432 95.1335C35.3445 99.5645 34.4638 103.932 33.3022 108.25C32.3643 111.743 31.2419 115.204 30.0426 118.64C29.2518 120.909 28.4251 123.167 27.5968 125.417C27.8811 125.433 28.1686 125.448 28.4529 125.463C28.3908 125.639 28.3107 125.808 28.216 125.969C28.0771 126.209 27.9056 126.428 27.7079 126.621C27.9562 126.727 28.2029 126.837 28.448 126.951C29.5476 127.454 30.6194 128.018 31.6602 128.636L31.8105 131.087L31.8546 131.791C31.5442 132.189 31.2337 132.585 30.9216 132.983C26.7194 138.357 22.5171 143.731 18.3132 149.105C11.6846 147.987 5.62631 146.747 -0.30131 145.051C-0.791466 140.769 -1.10843 136.437 -1.20973 132.093C-1.33391 126.83 -1.14439 121.548 -0.574171 116.31C-0.146101 112.381 0.497645 108.479 1.38319 104.63C2.16744 101.226 3.14122 97.8637 4.32577 94.5633C4.78815 93.2742 5.2832 91.9933 5.83218 90.7368C7.04613 87.9511 8.51987 85.2847 10.4396 82.9384C11.7712 81.3128 13.3397 79.8488 15.088 78.6806C17.0012 77.4013 19.1285 76.4765 21.393 76.0861C25.7293 75.3378 30.5491 76.7919 33.2336 80.2785C35.6794 83.458 36.0814 87.7436 35.9523 91.7531L35.9507 91.7564Z" fill="url(#paint12_linear_28963_370029)"/>
<path style="mix-blend-mode:multiply" opacity="0.53" d="M31.8085 131.089C31.5161 131.722 31.2187 132.355 30.9197 132.985C26.7174 138.359 22.5152 143.733 18.3112 149.107C11.6827 147.989 5.62436 146.749 -0.303264 145.053C-0.79342 140.771 -1.11039 136.439 -1.21169 132.095C-1.33586 126.832 -1.14633 121.55 -0.576115 116.312C-0.148045 112.383 0.495691 108.481 1.38124 104.632C2.16549 101.228 3.13927 97.8657 4.32381 94.5653C4.78619 93.2762 5.28125 91.9953 5.83022 90.7388C7.04418 87.9531 8.51792 85.2867 10.4377 82.9404C11.7693 81.3148 13.3378 79.8508 15.086 78.6826C3.08698 99.3803 1.53809 127.032 5.19792 141.893C11.1288 142.57 17.0646 139.848 21.4531 135.801C24.2307 133.239 26.4773 130.19 28.446 126.953C29.5456 127.456 30.6174 128.02 31.6582 128.638L31.8085 131.089Z" fill="url(#paint13_linear_28963_370029)"/>
<g style="mix-blend-mode:multiply">
<path d="M72.5562 30.2334L59.2207 36.1022L59.3727 37.3864L72.785 31.2366L72.5562 30.2334Z" fill="#FFBD85"/>
<path d="M96.4126 23.331C96.4126 26.2784 94.0239 28.6671 91.0765 28.6671C89.2727 28.6671 87.6764 27.7718 86.7108 26.4026C86.0932 26.5856 85.5246 26.9353 85.0851 27.4058C85.3514 28.0414 85.4985 28.739 85.4985 29.471C85.4985 32.4185 83.1098 34.8072 80.1623 34.8072C77.9109 34.8072 75.9845 33.4135 75.2003 31.4414C74.251 31.4333 73.3034 31.4284 72.3525 31.4218C72.2136 30.9692 72.1842 30.4775 72.2512 29.9987C72.2675 29.9252 74.3556 28.3681 75.0826 27.829C75.7754 25.6837 77.7883 24.1332 80.1623 24.1332C81.7096 24.1332 83.1032 24.7916 84.0787 25.8455C84.5394 25.2834 85.2305 24.9125 85.956 24.8423C85.8138 24.3619 85.737 23.8554 85.737 23.3293C85.737 20.3819 88.1273 17.9932 91.0748 17.9932C94.0223 17.9932 96.411 20.3819 96.411 23.3293L96.4126 23.331Z" fill="#FFBD85"/>
</g>
<path d="M72.7708 29.4912L59.4336 35.3584L59.5856 36.6442L72.9995 30.4944L72.7708 29.4912Z" fill="url(#paint14_linear_28963_370029)"/>
<path d="M84.0154 9.8409C82.6331 11.9551 80.5826 13.5171 78.3393 14.7196C77.6744 15.0774 76.9914 15.4025 76.3036 15.7015C72.263 17.4596 67.8957 18.466 63.4925 18.6523C62.8635 20.4152 62.3357 22.1912 61.9028 23.9721C61.0042 27.6695 60.5189 31.3947 60.4029 35.1183C60.3539 36.6851 60.3702 38.252 60.4486 39.8172C59.5811 40.2061 58.6007 40.1799 57.7299 39.8401C57.2626 39.6587 56.8264 39.3875 56.4571 39.0412C52.7728 33.0433 50.835 25.9638 51.0066 18.9251C51.8448 17.7978 53.1714 17.1508 54.5553 17.0103C54.9099 12.6577 57.511 8.73641 61.1185 6.53888C61.1937 6.49313 61.2688 6.44738 61.3456 6.40327C62.5253 5.71378 63.8078 5.20892 65.1525 4.9328C68.4594 4.24985 71.8824 4.8364 75.2595 4.74654C78.6351 4.65831 82.3358 3.65186 84.1428 0.800781C86.2162 3.26954 85.8061 7.10093 84.0154 9.8409Z" fill="url(#paint15_linear_28963_370029)"/>
<path style="mix-blend-mode:multiply" opacity="0.32" d="M78.3374 14.7193C77.6724 15.0771 76.9895 15.4023 76.3016 15.7013C72.2611 17.4593 67.8938 18.4657 63.4905 18.652C62.8615 20.4149 62.3338 22.1909 61.9008 23.9718C61.5593 23.7905 61.2146 23.6189 60.8633 23.4604C60.0774 23.1026 59.1788 22.7922 58.3684 23.0912C57.1692 23.534 56.7966 25.0273 56.6627 26.3001C56.1905 30.8291 56.5565 35.4431 57.7279 39.8431C57.2607 39.6617 56.8244 39.3905 56.4552 39.0441C52.7708 33.0463 50.8331 25.9668 51.0046 18.9281C51.8428 17.8008 53.1695 17.1537 54.5534 17.0132C54.9079 12.6606 57.509 8.73939 61.1166 6.54186C61.1917 6.49611 61.2669 6.45036 61.3437 6.40625C60.6411 7.74928 60.2555 9.174 60.5888 10.633C61.0986 12.8583 63.1834 14.3925 65.327 15.1768C68.7123 16.4152 72.4816 16.2682 75.9814 15.4072C76.7754 15.2111 77.5597 14.9807 78.3341 14.7226L78.3374 14.7193Z" fill="url(#paint16_linear_28963_370029)"/>
<path d="M62.729 45.104C56.4828 44.872 53.6056 39.2352 55.3244 37.7321C59.2506 34.2994 63.7698 39.9786 64.6276 42.4392C64.9331 43.315 65.1651 45.1939 62.729 45.104Z" fill="url(#paint17_linear_28963_370029)"/>
<path style="mix-blend-mode:multiply" opacity="0.71" d="M62.4692 42.2596C62.2715 42.0112 62.0656 41.7678 61.863 41.5227C60.9955 40.5081 59.4302 38.3988 58.0692 38.2256C57.4532 38.2305 57.3029 38.5491 57.1477 39.085C57.0333 39.6405 57.0121 40.2124 57.0186 40.7793C57.0219 40.9084 57.0023 41.0571 57.1069 41.1535C57.2768 41.3348 57.6101 41.1976 57.6019 40.9492C57.6444 40.1535 57.7686 39.1847 57.9663 38.9804C57.9777 38.9772 57.9908 38.9739 58.0022 38.9706C58.0039 38.9706 58.0055 38.9706 58.0071 38.9706C58.0431 38.9706 58.0708 38.9739 58.0872 38.9739C58.1542 38.9886 58.244 39.018 58.2898 39.0343C58.8927 39.3203 59.0757 39.5457 59.6132 40.0228C59.6884 40.0914 59.7684 40.1666 59.8501 40.2467C59.7651 40.3839 59.7047 40.5473 59.6263 40.678C59.4302 41.0832 59.2766 41.5113 59.2374 41.9622C59.2292 42.1011 59.1868 42.2547 59.2423 42.387C59.3502 42.6746 59.7995 42.5814 59.7929 42.2759C59.8191 42.0112 60.0838 41.307 60.2455 41.0048C60.2864 40.9296 60.3272 40.8561 60.3697 40.7826C60.8713 41.3234 61.3712 41.9181 61.5869 42.2089C61.6784 42.3266 62.0525 42.8216 61.9398 42.6746C62.0052 42.771 62.0738 42.8739 62.1947 42.9017C62.4055 42.9654 62.6326 42.7906 62.6293 42.57C62.6081 42.3266 62.4757 42.2939 62.4692 42.2547V42.2596Z" fill="url(#paint18_linear_28963_370029)"/>
<path d="M96.6275 22.5898C96.6275 25.5372 94.2388 27.9259 91.2913 27.9259C89.4875 27.9259 87.8912 27.0306 86.9256 25.6614C86.308 25.8444 85.7395 26.194 85.3 26.6646C85.5663 27.3002 85.7133 27.9978 85.7133 28.7298C85.7133 31.6773 83.3246 34.066 80.3772 34.066C78.1257 34.066 76.1994 32.6723 75.4151 30.7002C74.4659 30.692 73.5182 30.6871 72.5673 30.6806C72.4284 30.228 72.399 29.7362 72.466 29.2575C72.4824 29.184 74.5704 27.6269 75.2975 27.0878C75.9903 24.9425 78.0032 23.392 80.3772 23.392C81.9244 23.392 83.3181 24.0504 84.2935 25.1043C84.7542 24.5422 85.4454 24.1713 86.1708 24.1011C86.0287 23.6207 85.9519 23.1142 85.9519 22.5881C85.9519 19.6406 88.3422 17.252 91.2897 17.252C94.2372 17.252 96.6258 19.6406 96.6258 22.5881L96.6275 22.5898Z" fill="url(#paint19_linear_28963_370029)"/>
<path d="M94.7259 33.6392C94.6132 33.5951 94.4825 33.5984 94.373 33.649L94.7259 33.6392Z" fill="url(#paint20_linear_28963_370029)"/>
<path d="M85.1013 28.7319C85.1013 29.5701 84.8839 30.356 84.5016 31.0373C84.0589 31.8281 83.3922 32.48 82.59 32.9048C82.3466 33.0339 82.0917 33.1433 81.8254 33.2283C81.4904 33.3361 81.1392 33.408 80.7764 33.4374C80.6457 33.4489 80.5118 33.4554 80.3778 33.4554C79.618 33.4554 78.9008 33.2757 78.2652 32.9587C76.7163 32.1843 75.6543 30.5831 75.6543 28.7336C75.6543 27.9199 75.8602 27.1553 76.2229 26.487C77.0218 25.0116 78.5822 24.0117 80.3778 24.0117C80.6523 24.0117 80.9235 24.0346 81.1865 24.0803C81.7273 24.1735 82.2371 24.3597 82.6978 24.6195C82.9266 24.7486 83.1423 24.8956 83.3449 25.0607C83.5475 25.224 83.737 25.4038 83.9085 25.5998C84.6503 26.4331 85.0996 27.531 85.0996 28.7336L85.1013 28.7319Z" fill="url(#paint21_linear_28963_370029)"/>
<path style="mix-blend-mode:multiply" opacity="0.3" d="M84.5016 31.0376C84.0589 31.8284 83.3922 32.4803 82.59 32.9051C82.3466 33.0342 82.0917 33.1436 81.8254 33.2286C81.4904 33.3364 81.1392 33.4083 80.7764 33.4377C80.6457 33.4492 80.5118 33.4557 80.3778 33.4557C79.618 33.4557 78.9008 33.276 78.2652 32.959C76.7163 32.1846 75.6543 30.5834 75.6543 28.7339C75.6543 27.9202 75.8602 27.1556 76.2229 26.4873C77.0578 27.8793 78.2587 29.0557 79.6736 29.8498C81.1359 30.67 82.8237 31.0801 84.5 31.0392L84.5016 31.0376Z" fill="url(#paint22_linear_28963_370029)"/>
<path d="M96.0156 22.59C96.0156 23.5295 95.7411 24.4052 95.269 25.1404C95.0892 25.4198 94.8801 25.6796 94.6481 25.9149C94.3997 26.1649 94.1236 26.3871 93.8246 26.5782C93.6008 26.7204 93.3671 26.8429 93.1204 26.9475C92.5584 27.1828 91.9408 27.3135 91.2938 27.3135C91.0062 27.3135 90.7236 27.2873 90.4507 27.2383C88.245 26.8397 86.5703 24.9117 86.5703 22.59C86.5703 21.7616 86.7843 20.9823 87.1601 20.3059C87.964 18.8517 89.5145 17.8682 91.2938 17.8682C92.0405 17.8682 92.7463 18.0413 93.3737 18.3501C93.8998 18.6099 94.372 18.9645 94.7657 19.3909C94.8801 19.5135 94.9863 19.6442 95.0876 19.7798C95.2869 20.0494 95.4585 20.3385 95.5974 20.6473C95.8653 21.2404 96.0156 21.8973 96.0156 22.5916V22.59Z" fill="url(#paint23_linear_28963_370029)"/>
<path opacity="0.14" d="M82.6983 24.6176L80.7769 33.4372C80.6462 33.4486 80.5122 33.4551 80.3782 33.4551C79.6185 33.4551 78.9012 33.2754 78.2656 32.9584L81.187 24.0801C81.7278 24.1732 82.2375 24.3595 82.6983 24.6192V24.6176Z" fill="url(#paint24_linear_28963_370029)"/>
<path opacity="0.14" d="M83.9113 25.5958L82.5928 32.904C82.3493 33.0331 82.0944 33.1426 81.8281 33.2275L83.3493 25.0566C83.5519 25.22 83.7414 25.3997 83.9129 25.5958H83.9113Z" fill="url(#paint25_linear_28963_370029)"/>
<path opacity="0.14" d="M94.7659 19.3914L93.1189 26.9479C92.5569 27.1832 91.9393 27.3139 91.2923 27.3139C91.0047 27.3139 90.7221 27.2878 90.4492 27.2388L93.3738 18.3506C93.8999 18.6104 94.3721 18.9649 94.7659 19.3914Z" fill="url(#paint26_linear_28963_370029)"/>
<path opacity="0.14" d="M95.5947 20.6459L94.6438 25.9151C94.3954 26.1651 94.1193 26.3873 93.8203 26.5784L95.0849 19.7783C95.2842 20.0479 95.4558 20.3371 95.5947 20.6459Z" fill="url(#paint27_linear_28963_370029)"/>
<path style="mix-blend-mode:multiply" opacity="0.3" d="M95.269 25.1422C95.0892 25.4216 94.8801 25.6814 94.6481 25.9166C94.3997 26.1666 94.1236 26.3888 93.8246 26.58C93.6008 26.7221 93.3671 26.8447 93.1204 26.9492C92.5584 27.1845 91.9408 27.3152 91.2938 27.3152C91.0062 27.3152 90.7236 27.2891 90.4507 27.2401C88.245 26.8414 86.5703 24.9135 86.5703 22.5917C86.5703 21.7634 86.7843 20.984 87.1601 20.3076C87.9983 21.8238 89.2629 23.1048 90.7742 23.9527C92.1418 24.719 93.7037 25.1275 95.269 25.1422Z" fill="url(#paint28_linear_28963_370029)"/>
<path style="mix-blend-mode:multiply" opacity="0.69" d="M61.847 18.7989C61.7425 18.6992 61.5856 18.7302 61.4533 18.7074C60.2965 18.5717 58.6773 18.1502 57.3948 17.6633C56.6579 17.3725 56.287 17.2238 55.5109 16.8219C55.2512 16.6748 55.0208 17.0604 55.2789 17.2173C56.72 18.0146 58.2999 18.5505 59.9076 18.8903C60.3275 18.9802 60.7491 19.0619 61.1739 19.1256C61.3552 19.142 61.5987 19.2367 61.7686 19.1812C61.9222 19.1289 61.9614 18.9067 61.8454 18.7972L61.847 18.7989Z" fill="url(#paint29_linear_28963_370029)"/>
<path style="mix-blend-mode:multiply" opacity="0.43" d="M83.9616 4.17815C83.8815 3.95758 83.5253 4.02783 83.5335 4.26474C83.4207 5.55549 82.7688 6.9704 81.9323 8.19743C81.2886 9.14343 80.6987 9.89174 79.8165 10.7136C79.0894 11.3851 78.5453 11.8148 77.7643 12.3425C77.5046 12.5141 77.2382 12.6758 76.967 12.831C76.9017 12.8637 76.8396 12.9111 76.8216 12.9846C76.7759 13.2428 77.0422 13.3228 77.2284 13.1725C77.5781 12.9781 77.9179 12.7673 78.248 12.5418C79.7446 11.5174 81.0729 10.243 82.1006 8.74477C82.7737 7.8004 83.3521 6.77598 83.7018 5.66495C83.8063 5.33982 83.8766 5.00488 83.9305 4.6683C83.9419 4.50818 84.0122 4.33336 83.9632 4.17815H83.9616Z" fill="url(#paint30_linear_28963_370029)"/>
<path style="mix-blend-mode:multiply" opacity="0.66" d="M64.9108 46.9859C64.3504 45.9647 63.8897 44.8897 63.5368 43.7803C63.6038 44.5515 63.5172 45.3373 63.2852 46.0758C63.7933 46.4451 64.2475 46.8862 64.9125 46.9843L64.9108 46.9859Z" fill="url(#paint31_linear_28963_370029)"/>
<path style="mix-blend-mode:multiply" opacity="0.43" d="M79.2513 6.69764C78.8363 7.04728 78.2939 7.24498 77.6632 7.43451C76.8087 7.70083 75.9363 7.90833 75.0556 8.07171C73.5688 8.34783 72.1261 8.5488 70.7439 8.73015C69.1509 8.93765 67.5546 9.15986 66.0155 9.63531C64.7917 9.98659 63.5712 10.4212 62.5223 11.1581C62.1367 11.4293 61.774 11.7315 61.4489 12.0714C61.3427 12.1988 61.1352 12.3279 61.2185 12.5158C61.2561 12.6204 61.3786 12.6743 61.4848 12.6465C61.6547 12.5697 61.7511 12.3769 61.8949 12.2576C62.2184 11.9407 62.4504 11.7495 62.7412 11.5437C63.7902 10.8133 64.7558 10.4669 65.9567 10.0977C68.4418 9.29383 70.7406 9.186 73.2044 8.78244C74.8824 8.51775 76.5685 8.2449 78.1844 7.709C78.5471 7.59136 78.9066 7.44921 79.2301 7.24498C79.3559 7.14858 79.5226 7.07343 79.6026 6.93291C79.6974 6.72378 79.4164 6.52935 79.253 6.69764H79.2513Z" fill="url(#paint32_linear_28963_370029)"/>
<path style="mix-blend-mode:multiply" opacity="0.43" d="M56.5616 32.9142C56.5077 32.723 56.4538 32.5318 56.4032 32.3407C55.7839 29.9618 55.3166 27.6221 55.0846 25.3118C54.9408 23.8054 54.8265 22.2876 54.8902 20.773C54.8788 20.5998 54.9784 20.3874 54.8526 20.2436C54.7285 20.1113 54.4834 20.2093 54.4883 20.3939C54.3576 22.214 54.5095 24.044 54.7056 25.8543C54.8657 27.3117 55.114 28.7576 55.4359 30.1889C55.6646 31.1627 55.8591 32.1593 56.1826 33.102C56.2643 33.2246 56.4685 33.2082 56.5388 33.0808C56.5649 33.0285 56.578 32.9713 56.56 32.9142H56.5616Z" fill="url(#paint33_linear_28963_370029)"/>
<path d="M62.6707 80.5342C60.9666 80.0114 55.65 75.778 54.3086 73.8468C50.9559 76.8678 48.162 80.5064 46.0985 84.5208C44.4924 73.4286 45.1819 61.5504 47.5755 50.0269C49.9184 48.4387 52.6633 46.8229 55.5601 45.2919C56.596 44.7446 57.6547 44.2071 58.7184 43.6875C56.8558 55.3173 58.8556 70.3781 62.6707 80.5326V80.5342Z" fill="url(#paint34_linear_28963_370029)"/>
<path d="M85.0098 76.5645C86.8528 79.4858 88.3951 82.5967 89.6042 85.8317C90.4178 80.2619 90.6972 74.612 90.4358 68.9883C88.7268 71.5404 87.0161 74.0941 85.0098 76.5628V76.5645Z" fill="url(#paint35_linear_28963_370029)"/>
<path style="mix-blend-mode:multiply" opacity="0.28" d="M54.3086 73.8482C54.0717 74.0622 53.8364 74.2795 53.6044 74.4984C50.5638 77.3855 48.0166 80.7904 46.0985 84.5221C44.4924 73.4299 45.1819 61.5518 47.5755 50.0282C48.1816 49.6181 48.814 49.2047 49.4691 48.7946C51.3481 47.6101 53.4132 46.4288 55.5601 45.2949C55.7252 45.3374 55.8885 45.3848 56.0503 45.4387C53.8789 54.7223 53.2907 64.4535 54.3086 73.8498V73.8482Z" fill="url(#paint36_linear_28963_370029)"/>
<path style="mix-blend-mode:multiply" opacity="0.28" d="M53.6064 74.4987C50.5658 77.3857 48.0186 80.7907 46.1004 84.5224C44.4944 73.4302 45.1838 61.5521 47.5774 50.0285C48.1836 49.6184 48.8159 49.205 49.4711 48.7949C48.7358 55.2748 48.097 61.7694 47.9892 68.2884C47.9581 70.138 48.0562 72.2032 49.3779 73.4972C50.4563 74.5526 52.1228 74.801 53.6064 74.5004V74.4987Z" fill="url(#paint37_linear_28963_370029)"/>
<path style="mix-blend-mode:multiply" opacity="0.43" d="M58.9779 34.2036C58.7949 32.5861 58.7263 30.9555 58.7034 29.3282C58.7034 28.771 58.7247 28.0293 58.7867 27.6388C58.8521 27.4002 58.4877 27.2989 58.4208 27.5375C58.2394 28.5423 58.2982 29.5732 58.3178 30.5895C58.3636 31.877 58.4077 33.1759 58.5907 34.4503C58.6381 34.5875 58.8374 34.6235 58.9354 34.5189C59.0253 34.4323 58.991 34.3131 58.9779 34.2052V34.2036Z" fill="url(#paint38_linear_28963_370029)"/>
<path d="M100.624 46.2715C100.344 47.1473 99.985 48.0361 99.6125 49.1667C98.8332 51.7466 98.0097 54.364 97.1111 56.9668C96.6781 58.2199 96.2288 59.4698 95.7599 60.7132C91.208 72.7629 84.7657 84.11 73.6636 90.2059C65.5777 78.3033 60.6059 63.0087 54.2289 49.5376C53.8564 48.2142 53.9332 46.7699 54.4985 45.5298C54.3939 44.8909 54.3727 44.2407 54.4266 43.592C54.6423 43.3927 54.8596 43.195 55.1716 42.9466C54.9168 42.4581 54.5426 41.6575 54.4609 40.8145C54.4054 40.2377 54.4871 39.643 54.8367 39.1104C54.8596 40.009 55.4527 40.7115 56.0115 41.3634C59.4491 43.5593 63.0909 45.4317 66.8733 46.9578C73.3957 49.5883 80.3363 51.1894 87.3668 51.6502C87.9239 51.6878 88.4827 51.6469 89.0235 51.5146C91.2031 50.9836 93.2911 50.1519 95.0851 49.1308C95.3547 48.9788 95.6112 48.8073 95.8514 48.6129C97.6649 47.1456 99.1076 45.1001 100.16 42.847C100.318 43.6361 100.505 44.5576 100.671 45.3876C100.73 45.6817 100.715 45.984 100.624 46.2699V46.2715Z" fill="url(#paint39_linear_28963_370029)"/>
<path style="mix-blend-mode:multiply" opacity="0.35" d="M95.7599 60.7102C91.208 72.7599 84.7657 84.107 73.6636 90.203C65.5777 78.3003 60.6059 63.0058 54.2289 49.5347C53.8564 48.2113 53.9332 46.7669 54.4985 45.5268C54.3939 44.888 54.3727 44.2377 54.4266 43.5891C54.6423 43.3898 54.8596 43.1921 55.1716 42.9437C54.9168 42.4552 54.5426 41.6546 54.4609 40.8115C54.4054 40.2348 54.4871 39.6401 54.8367 39.1074C54.8596 40.006 55.4527 40.7086 56.0115 41.3605C59.4491 43.5564 63.0909 45.4288 66.8733 46.9548C71.2978 51.7682 76.2566 56.093 81.6287 59.8214C83.8572 61.3671 86.2884 62.8555 88.9957 63.014C91.4253 63.1545 93.7976 62.1807 95.7599 60.7119V60.7102Z" fill="url(#paint40_linear_28963_370029)"/>
<g style="mix-blend-mode:multiply">
<path d="M98.8533 49.1825C98.0592 50.4079 97.3371 51.3327 96.3584 52.4323C95.3585 53.5629 94.2932 54.6396 93.1152 55.5856C93.0286 55.6657 92.8913 55.7245 92.8946 55.8601C92.8897 56.0365 93.1234 56.1346 93.2459 56.0055C94.4925 55.0252 95.6215 53.9044 96.6704 52.7165C97.5985 51.6464 98.5314 50.5419 99.2389 49.3165C99.2797 49.0992 98.9578 48.9881 98.8533 49.1825Z" fill="#2E2E2E"/>
</g>
<g style="mix-blend-mode:multiply">
<path d="M91.0537 57.2847C85.3598 56.9792 79.6985 55.4532 74.1989 53.504C73.7218 53.3308 73.2464 53.1511 72.7742 52.9648C72.5961 52.9158 72.3722 52.7246 72.2236 52.9142C72.0585 53.1919 72.3592 53.2605 72.5454 53.3357C72.9735 53.5073 73.4048 53.6739 73.8378 53.834C78.4535 55.4842 83.1933 56.9008 88.072 57.4857C88.7647 57.5641 89.4607 57.6197 90.1568 57.6621C90.4786 57.6621 90.8234 57.7373 91.1371 57.6965C91.3478 57.6197 91.2825 57.2766 91.0537 57.2847Z" fill="#2E2E2E"/>
</g>
<g style="mix-blend-mode:multiply">
<path d="M65.2265 50.4994C65.086 50.3491 64.8769 50.2657 64.7102 50.1432C62.8264 48.9619 60.9834 47.7137 59.2303 46.3445C58.5636 45.8184 57.3497 44.8871 56.5736 44.142C56.5099 44.0734 56.4478 43.9885 56.3449 43.9934C56.1635 43.9885 56.0622 44.2286 56.1962 44.3544C56.6831 44.8609 57.2468 45.2874 57.7876 45.7334C58.8332 46.5749 59.8985 47.3901 60.9916 48.1679C61.9245 48.8361 62.8868 49.4651 63.859 50.0762C64.2184 50.3033 64.5762 50.5288 64.939 50.751C64.988 50.7869 65.0517 50.8 65.1105 50.7837C65.2298 50.7526 65.2919 50.6039 65.2265 50.4977V50.4994Z" fill="#2E2E2E"/>
</g>
<g style="mix-blend-mode:multiply">
<path d="M61.0065 52.9091C59.7909 51.7213 58.5704 50.5351 57.461 49.2476C56.7765 48.4797 56.1638 47.6529 55.4775 46.8867C55.2962 46.7069 55.0152 46.9814 55.1982 47.1661C56.0102 48.0974 56.7438 49.0956 57.5819 50.0057C58.6603 51.1657 59.768 52.3192 60.9477 53.3731C61.067 53.4335 61.2222 53.3273 61.2173 53.195C61.2156 53.0643 61.0849 52.9973 61.0065 52.9091Z" fill="#2E2E2E"/>
</g>
<g style="mix-blend-mode:multiply">
<path d="M77.7178 60.3946C77.6083 60.2508 77.3926 60.2525 77.2374 60.179C73.6511 59.0451 70.3376 57.1253 67.1451 54.9506C66.1599 54.284 65.1943 53.5847 64.2336 52.8838C64.0686 52.7645 63.7794 52.5505 63.7418 52.5194C63.6748 52.4688 63.6143 52.3953 63.5228 52.3985C63.3496 52.3936 63.25 52.6256 63.379 52.7466C67.6581 55.9326 72.1545 59.0451 77.2979 60.6413C77.3877 60.6609 77.476 60.7165 77.5691 60.7034C77.7096 60.6936 77.7946 60.5155 77.7194 60.3963L77.7178 60.3946Z" fill="#2E2E2E"/>
</g>
<g style="mix-blend-mode:multiply">
<path d="M94.6251 59.3596C94.1317 59.822 93.4258 60.2403 92.7037 60.6226C91.7724 61.1177 90.7578 61.4036 89.5961 61.6127C88.985 61.7205 88.4834 61.7941 87.9884 61.8545C87.8201 61.8937 87.5766 61.8513 87.4443 61.9607C87.3463 62.0539 87.3691 62.227 87.4868 62.294C87.575 62.3479 87.6796 62.3087 87.776 62.3038C87.9704 62.2826 88.1632 62.2597 88.356 62.2352C89.7366 62.0457 91.1401 61.8317 92.4178 61.25C93.3082 60.8236 94.2003 60.3416 94.9208 59.657C95.1103 59.4609 94.8244 59.1701 94.6251 59.3613V59.3596Z" fill="#2E2E2E"/>
</g>
<defs>
<linearGradient id="paint0_linear_28963_370029" x1="96.8773" y1="61.808" x2="-33.1301" y2="177.568" gradientUnits="userSpaceOnUse">
<stop stop-color="#B8B8B8"/>
<stop offset="1" stop-color="#8C898C"/>
</linearGradient>
<linearGradient id="paint1_linear_28963_370029" x1="33.6167" y1="76.3241" x2="99.3614" y2="56.811" gradientUnits="userSpaceOnUse">
<stop stop-color="#454347"/>
<stop offset="1" stop-color="#626163"/>
</linearGradient>
<linearGradient id="paint2_linear_28963_370029" x1="-0.00988518" y1="102.745" x2="114.407" y2="68.784" gradientUnits="userSpaceOnUse">
<stop stop-color="#454347"/>
<stop offset="1" stop-color="#626163"/>
</linearGradient>
<linearGradient id="paint3_linear_28963_370029" x1="54.1236" y1="93.7065" x2="82.0821" y2="20.3399" gradientUnits="userSpaceOnUse">
<stop stop-color="#FFC493"/>
<stop offset="1" stop-color="#FFB073"/>
</linearGradient>
<linearGradient id="paint4_linear_28963_370029" x1="60.036" y1="86.4839" x2="78.1472" y2="38.9567" gradientUnits="userSpaceOnUse">
<stop stop-color="#FFC493"/>
<stop offset="1" stop-color="#FFB073"/>
</linearGradient>
<linearGradient id="paint5_linear_28963_370029" x1="91.5298" y1="16.1674" x2="67.0791" y2="58.3764" gradientUnits="userSpaceOnUse">
<stop stop-color="#FFC493"/>
<stop offset="1" stop-color="#FFB073"/>
</linearGradient>
<linearGradient id="paint6_linear_28963_370029" x1="54.1782" y1="45.4725" x2="81.4538" y2="27.2877" gradientUnits="userSpaceOnUse">
<stop stop-color="#FFC493"/>
<stop offset="1" stop-color="#FFB073"/>
</linearGradient>
<linearGradient id="paint7_linear_28963_370029" x1="86.8684" y1="50.9629" x2="81.3966" y2="39.7089" gradientUnits="userSpaceOnUse">
<stop stop-color="#FFF4EF"/>
<stop offset="1" stop-color="#F6DFD7"/>
</linearGradient>
<linearGradient id="paint8_linear_28963_370029" x1="81.7121" y1="52.5662" x2="82.395" y2="43.7989" gradientUnits="userSpaceOnUse">
<stop stop-color="#FFF4EF"/>
<stop offset="1" stop-color="#F6DFD7"/>
</linearGradient>
<linearGradient id="paint9_linear_28963_370029" x1="94.1343" y1="36.2467" x2="80.2383" y2="28.2261" gradientUnits="userSpaceOnUse">
<stop stop-color="#FF9762"/>
<stop offset="1" stop-color="#FFB073"/>
</linearGradient>
<linearGradient id="paint10_linear_28963_370029" x1="84.761" y1="15.5526" x2="95.6964" y2="23.3771" gradientUnits="userSpaceOnUse">
<stop stop-color="#9F5A10"/>
<stop offset="1" stop-color="#F0891E"/>
</linearGradient>
<linearGradient id="paint11_linear_28963_370029" x1="72.455" y1="22.3181" x2="85.802" y2="30.4857" gradientUnits="userSpaceOnUse">
<stop stop-color="#9F5A10"/>
<stop offset="1" stop-color="#F0891E"/>
</linearGradient>
<linearGradient id="paint12_linear_28963_370029" x1="44.4745" y1="90.1225" x2="-12.0144" y2="138.29" gradientUnits="userSpaceOnUse">
<stop stop-color="#B8B8B8"/>
<stop offset="1" stop-color="#8C898C"/>
</linearGradient>
<linearGradient id="paint13_linear_28963_370029" x1="34.4374" y1="98.681" x2="-11.3645" y2="137.735" gradientUnits="userSpaceOnUse">
<stop stop-color="#B8B8B8"/>
<stop offset="1" stop-color="#8C898C"/>
</linearGradient>
<linearGradient id="paint14_linear_28963_370029" x1="65.523" y1="31.9109" x2="66.732" y2="34.0448" gradientUnits="userSpaceOnUse">
<stop stop-color="#363636"/>
<stop offset="1" stop-color="#131313"/>
</linearGradient>
<linearGradient id="paint15_linear_28963_370029" x1="48.6963" y1="29.9161" x2="123.437" y2="-11.7881" gradientUnits="userSpaceOnUse">
<stop stop-color="#9F5A10"/>
<stop offset="1" stop-color="#F0891E"/>
</linearGradient>
<linearGradient id="paint16_linear_28963_370029" x1="48.9378" y1="29.0351" x2="102.876" y2="-1.06046" gradientUnits="userSpaceOnUse">
<stop stop-color="#9F5A10"/>
<stop offset="1" stop-color="#F0891E"/>
</linearGradient>
<linearGradient id="paint17_linear_28963_370029" x1="38.9401" y1="43.0699" x2="65.0083" y2="40.4181" gradientUnits="userSpaceOnUse">
<stop stop-color="#FFC493"/>
<stop offset="1" stop-color="#FFA45E"/>
</linearGradient>
<linearGradient id="paint18_linear_28963_370029" x1="57.017" y1="40.5734" x2="62.6293" y2="40.5734" gradientUnits="userSpaceOnUse">
<stop stop-color="#FFC493"/>
<stop offset="1" stop-color="#FFB073"/>
</linearGradient>
<linearGradient id="paint19_linear_28963_370029" x1="82.1417" y1="21.5964" x2="87.4207" y2="30.9159" gradientUnits="userSpaceOnUse">
<stop stop-color="#363636"/>
<stop offset="1" stop-color="#131313"/>
</linearGradient>
<linearGradient id="paint20_linear_28963_370029" x1="94.5577" y1="33.5935" x2="94.5397" y2="33.716" gradientUnits="userSpaceOnUse">
<stop stop-color="#B8B8B8"/>
<stop offset="1" stop-color="#8C898C"/>
</linearGradient>
<linearGradient id="paint21_linear_28963_370029" x1="82.7305" y1="18.8618" x2="78.9122" y2="34.8867" gradientUnits="userSpaceOnUse">
<stop stop-color="#363636"/>
<stop offset="1" stop-color="#131313"/>
</linearGradient>
<linearGradient id="paint22_linear_28963_370029" x1="81.3663" y1="24.2015" x2="78.9629" y2="34.2873" gradientUnits="userSpaceOnUse">
<stop stop-color="#363636"/>
<stop offset="1" stop-color="#131313"/>
</linearGradient>
<linearGradient id="paint23_linear_28963_370029" x1="93.6433" y1="12.7199" x2="89.8266" y2="28.7464" gradientUnits="userSpaceOnUse">
<stop stop-color="#363636"/>
<stop offset="1" stop-color="#131313"/>
</linearGradient>
<linearGradient id="paint24_linear_28963_370029" x1="79.4763" y1="33.3751" x2="81.7392" y2="24.2026" gradientUnits="userSpaceOnUse">
<stop stop-color="#FFFAF4"/>
<stop offset="1" stop-color="#FAECDD"/>
</linearGradient>
<linearGradient id="paint25_linear_28963_370029" x1="81.918" y1="33.2504" x2="83.9031" y2="25.1939" gradientUnits="userSpaceOnUse">
<stop stop-color="#FFFAF4"/>
<stop offset="1" stop-color="#FAECDD"/>
</linearGradient>
<linearGradient id="paint26_linear_28963_370029" x1="91.673" y1="27.541" x2="93.9065" y2="18.4813" gradientUnits="userSpaceOnUse">
<stop stop-color="#FFFAF4"/>
<stop offset="1" stop-color="#FAECDD"/>
</linearGradient>
<linearGradient id="paint27_linear_28963_370029" x1="93.9379" y1="26.6078" x2="95.5914" y2="19.9041" gradientUnits="userSpaceOnUse">
<stop stop-color="#FFFAF4"/>
<stop offset="1" stop-color="#FAECDD"/>
</linearGradient>
<linearGradient id="paint28_linear_28963_370029" x1="92.2529" y1="17.9859" x2="89.8331" y2="28.1436" gradientUnits="userSpaceOnUse">
<stop stop-color="#363636"/>
<stop offset="1" stop-color="#131313"/>
</linearGradient>
<linearGradient id="paint29_linear_28963_370029" x1="55.1662" y1="17.995" x2="61.914" y2="17.995" gradientUnits="userSpaceOnUse">
<stop stop-color="#454347"/>
<stop offset="1" stop-color="#626163"/>
</linearGradient>
<linearGradient id="paint30_linear_28963_370029" x1="76.8167" y1="8.64674" x2="83.9795" y2="8.64674" gradientUnits="userSpaceOnUse">
<stop stop-color="#454347"/>
<stop offset="1" stop-color="#626163"/>
</linearGradient>
<linearGradient id="paint31_linear_28963_370029" x1="62.9154" y1="45.7041" x2="64.0546" y2="45.4372" gradientUnits="userSpaceOnUse">
<stop stop-color="#FFC493"/>
<stop offset="1" stop-color="#FFB073"/>
</linearGradient>
<linearGradient id="paint32_linear_28963_370029" x1="61.1989" y1="9.64348" x2="79.6206" y2="9.64348" gradientUnits="userSpaceOnUse">
<stop stop-color="#454347"/>
<stop offset="1" stop-color="#626163"/>
</linearGradient>
<linearGradient id="paint33_linear_28963_370029" x1="54.4409" y1="26.6859" x2="56.5682" y2="26.6859" gradientUnits="userSpaceOnUse">
<stop stop-color="#454347"/>
<stop offset="1" stop-color="#626163"/>
</linearGradient>
<linearGradient id="paint34_linear_28963_370029" x1="87.2488" y1="47.0108" x2="48.229" y2="69.0351" gradientUnits="userSpaceOnUse">
<stop stop-color="#B8B8B8"/>
<stop offset="1" stop-color="#8C898C"/>
</linearGradient>
<linearGradient id="paint35_linear_28963_370029" x1="92.3719" y1="76.8063" x2="83.17" y2="79.1672" gradientUnits="userSpaceOnUse">
<stop stop-color="#B8B8B8"/>
<stop offset="1" stop-color="#8C898C"/>
</linearGradient>
<linearGradient id="paint36_linear_28963_370029" x1="60.2362" y1="62.4961" x2="35.2905" y2="68.8943" gradientUnits="userSpaceOnUse">
<stop stop-color="#B8B8B8"/>
<stop offset="1" stop-color="#8C898C"/>
</linearGradient>
<linearGradient id="paint37_linear_28963_370029" x1="53.5541" y1="65.1776" x2="37.9001" y2="69.1936" gradientUnits="userSpaceOnUse">
<stop stop-color="#B8B8B8"/>
<stop offset="1" stop-color="#8C898C"/>
</linearGradient>
<linearGradient id="paint38_linear_28963_370029" x1="58.2917" y1="30.9898" x2="58.9959" y2="30.9898" gradientUnits="userSpaceOnUse">
<stop stop-color="#454347"/>
<stop offset="1" stop-color="#626163"/>
</linearGradient>
<linearGradient id="paint39_linear_28963_370029" x1="84.4879" y1="39.2411" x2="47.8667" y2="91.2728" gradientUnits="userSpaceOnUse">
<stop stop-color="#363636"/>
<stop offset="1" stop-color="#131313"/>
</linearGradient>
<linearGradient id="paint40_linear_28963_370029" x1="75.7321" y1="51.6816" x2="50.7406" y2="87.1885" gradientUnits="userSpaceOnUse">
<stop stop-color="#363636"/>
<stop offset="1" stop-color="#131313"/>
</linearGradient>
</defs>
</svg>
