<svg width="480" height="480" viewBox="0 0 480 480" fill="none" xmlns="http://www.w3.org/2000/svg">
<g clip-path="url(#clip0_26486_108183)">
<rect width="480" height="480" rx="8" fill="white"/>
<path d="M346.11 592.57C345.82 616.2 339.74 644.75 329.33 676.22C319.42 706.17 305.58 738.75 289.05 772.25C275.77 799.14 260.77 826.62 244.66 853.79C226.26 884.84 206.43 915.49 186.12 944.42C172.68 963.56 159.03 981.95 145.44 999.2C133.5 1014.35 121.61 1028.64 109.96 1041.78C94.0798 1059.69 78.6398 1075.48 64.1098 1088.49C62.8698 1089.38 61.6098 1090.25 60.3398 1091.08C47.7599 1099.31 33.7998 1104.71 18.8798 1107.77C18.4798 1099.39 18.4198 1090.99 18.6898 1082.6C19.0398 1072.05 19.9198 1061.51 21.3098 1051.06C-2.18018 1067.78 -26.2502 1082.96 -51.0402 1096.54C-52.2802 1097.22 -53.5102 1097.89 -54.7502 1098.56C-58.7702 1100.73 -62.8102 1102.87 -66.8702 1104.96C-181.12 1080.69 -304.16 991.11 -304.16 991.11C-302.31 974.43 -300.39 958.24 -298.41 942.55C-294.39 910.71 -290.1 880.86 -285.58 852.87C-281.29 826.3 -276.78 801.41 -272.08 778.07C-265.16 743.67 -257.8 712.65 -250.08 684.64C-241.69 654.18 -232.87 627.29 -223.72 603.52C-211.68 572.26 -199.06 546.38 -186.03 524.84C-184.79 522.79 -183.54 520.77 -182.29 518.8C-159.52 482.77 -135.61 459.55 -111.56 443.64C-95.2202 432.82 -78.8102 425.39 -62.6702 419.6C-53.0602 416.16 -43.1602 413.63 -33.5602 410.19C-28.7102 408.45 -23.8902 406.64 -19.1002 404.75C6.65985 394.59 31.5698 382.24 55.2698 367.91C58.7998 365.78 62.2898 363.6 65.7598 361.38C90.6898 345.44 114.21 327.28 135.89 307.14C143.48 300.09 150.85 292.79 157.98 285.26C172.53 285.21 172.61 276.7 182.46 265.99C223.08 287.76 263.96 311.37 303.47 335.11C303.77 369.25 307.52 403.16 313.3 436.81C316.76 456.93 320.94 476.96 325.53 496.89C327.75 506.5 330.06 516.1 332.44 525.67C334.48 533.89 336.57 542.1 338.69 550.3C341.02 559.34 344.42 568.27 345.44 577.59C345.96 582.33 346.18 587.33 346.11 592.58V592.57Z" fill="url(#paint0_linear_26486_108183)"/>
<path d="M332.44 525.671C229.89 495.731 133.91 441.201 55.2803 367.911C58.8103 365.781 62.3003 363.601 65.7703 361.381C90.7003 345.441 114.22 327.281 135.9 307.141C184.18 363.031 245.38 407.781 313.3 436.811C316.76 456.931 320.94 476.961 325.53 496.891C327.75 506.501 330.06 516.101 332.44 525.671Z" fill="url(#paint1_linear_26486_108183)"/>
<path d="M346.11 592.57C345.82 616.2 339.74 644.75 329.33 676.22C160.36 659.97 -1.5098 574.22 -111.55 443.64C-95.2098 432.82 -78.7998 425.39 -62.6598 419.6C-53.0498 416.16 -43.1498 413.63 -33.5498 410.19C-28.6998 408.45 -23.8798 406.64 -19.0898 404.75C73.0002 510.62 206.62 579.78 346.11 592.57Z" fill="url(#paint2_linear_26486_108183)"/>
<path d="M292.26 498.931C283.22 526.001 270.72 556.951 254.09 594.631C246.55 611.701 238.16 630.161 228.86 650.271C169.71 459.261 102.58 330.981 100 326.981C133.68 305.471 135.61 300.011 163.08 270.981C177.63 270.931 177.7 262.421 187.56 251.711C228.18 273.481 269.06 297.091 308.57 320.831C308.69 334.771 309.38 348.671 310.57 362.551C314.42 407.531 310.02 445.751 292.27 498.931H292.26Z" fill="url(#paint3_linear_26486_108183)"/>
<path style="mix-blend-mode:multiply" opacity="0.53" d="M292.26 498.93C283.22 526 270.72 556.95 254.09 594.63C202.85 524.34 154.7 450.2 131.4 366.58C124.9 343.28 140.56 329.61 152.69 322.84C164.81 316.08 180.81 316.1 192.14 324.11C202.01 331.08 207.301 342.72 211.811 353.93C222.491 380.5 231.291 407.87 243.671 433.7C255.491 458.36 270.94 481.91 292.26 498.93Z" fill="url(#paint4_linear_26486_108183)"/>
<path d="M402.32 330.072C401.56 333.042 400.72 336.052 399.73 338.992C396.51 348.632 391.78 357.772 383.65 363.612C371.51 372.342 355.05 371.412 340.29 369.012C313.31 364.632 286.98 356.482 262.18 345.012C260.14 344.072 258.1 343.102 256.08 342.112C235.61 332.102 216.27 319.832 198.54 305.542C190.01 298.662 181.84 291.322 174.11 283.552C172.17 281.612 170.26 279.632 168.4 277.632C167.93 277.152 167.47 276.652 166.99 276.152C166.14 275.232 165.3 274.322 164.46 273.402C166.29 227.012 145.58 160.632 180.06 129.542C214.54 98.4617 262.23 65.3617 308.56 68.3417C310.23 69.4517 311.87 70.5717 313.48 71.6917C316.53 73.8217 319.49 75.9817 322.36 78.1717C429.45 159.752 414.64 281.892 402.33 330.062L402.32 330.072Z" fill="url(#paint5_linear_26486_108183)"/>
<path style="mix-blend-mode:multiply" opacity="0.35" d="M313.48 71.7014C308.08 90.8214 293.83 107.591 276.93 118.711C255.1 133.081 229.23 139.711 201.19 145.871C171.22 240.211 216.57 311.821 284.51 329.641C282.32 328.631 229.39 330.421 198.54 305.551C190.01 298.671 181.84 291.331 174.11 283.561C172.17 281.621 170.26 279.641 168.4 277.641C167.93 277.161 167.47 276.661 166.99 276.161C166.14 275.241 165.3 274.331 164.46 273.411C166.29 227.021 145.58 160.641 180.06 129.551C214.54 98.4714 262.23 65.3714 308.56 68.3514C310.23 69.4614 311.87 70.5814 313.48 71.7014Z" fill="url(#paint6_linear_26486_108183)"/>
<path d="M253.17 269.981C257.25 275.161 261.53 280.181 266.01 285.021C283.52 303.941 304.1 320.131 327.16 331.731C329.55 332.931 332.26 334.121 334.83 333.361C337.74 332.501 339.39 329.491 340.68 326.741C343.25 321.311 345.69 315.821 348.03 310.281C348.3 309.641 348.58 308.991 348.84 308.341C351.03 303.061 353.12 297.741 355.11 292.371C356.48 288.681 356.01 286.571 354.55 285.361C351.87 283.171 345.87 283.941 341.58 283.441C330.45 282.151 319.37 280.331 308.4 278.011C289.23 273.931 270.79 267.871 252.25 261.591C244.43 258.941 251.72 268.131 253.17 269.971V269.981Z" fill="url(#paint7_linear_26486_108183)"/>
<path style="mix-blend-mode:multiply" d="M254.07 266.591C260.95 271.421 268.07 275.971 275.38 280.121C288.09 287.361 301.32 293.761 314.88 299.221C321.71 301.981 328.641 304.481 335.671 306.661C339.731 307.921 343.86 309.221 348.02 310.291C348.29 309.651 348.57 309.001 348.83 308.351C347.79 308.081 346.75 307.801 345.71 307.521C341.8 306.441 337.921 305.291 334.051 304.051C319.961 299.541 306.04 294.361 292.72 287.901C279.48 281.481 266.711 274.101 254.421 266.001C254.041 265.751 253.711 266.351 254.061 266.591H254.07Z" fill="url(#paint8_linear_26486_108183)"/>
<path d="M318.05 245.891C318.01 245.291 318.05 244.671 318.09 244.071C319.07 229.741 320.05 215.411 321.03 201.081C321.46 194.871 321.26 188.861 320.66 182.621C320.35 179.371 320.45 174.521 318.62 171.651C317.74 170.271 319.47 168.661 320.82 169.451C326.91 173.011 332.2 179.051 337.33 183.881C343.02 189.241 348.67 194.621 354.41 199.931C365.87 210.531 377.69 220.831 387.64 232.911C389.89 235.641 389.63 241.081 385.3 241.781C368.4 244.521 351.26 246.401 334.22 247.911C331.49 248.151 320.09 250.331 318.64 248.001C318.24 247.371 318.09 246.641 318.04 245.891H318.05Z" fill="url(#paint9_linear_26486_108183)"/>
<path d="M313.74 131.05C313.33 132.66 312.71 134.27 311.4 134.73C307.67 136.04 308.66 128.83 308.71 127.11C308.82 123.21 309.2 119.31 309.84 115.46C310.66 110.54 311.92 105.7 313.59 101C314.67 97.95 316.33 90.65 320.89 91.47C323.87 92.01 327.5 95.09 327 98.4C326.8 99.7 326.15 100.88 325.52 102.04C322.53 107.55 319.89 113.24 317.63 119.08C316.47 122.07 315.41 125.09 314.44 128.15C314.2 128.9 314.02 129.98 313.74 131.05Z" fill="url(#paint10_linear_26486_108183)"/>
<path d="M229.541 147.241C224.841 147.721 219.911 148.561 215.761 150.941C213.661 152.151 206.071 158.821 211.261 160.831C212.631 161.361 214.17 160.931 215.58 160.521C232.73 155.501 250.641 153.111 268.511 153.451C270.291 153.481 275.18 152.871 272.82 150.021C272.26 149.341 271.431 148.951 270.611 148.621C265.151 146.451 258.471 146.401 252.651 146.291C244.941 146.141 237.221 146.451 229.541 147.231V147.241Z" fill="url(#paint11_linear_26486_108183)"/>
<path d="M17.2104 579.49C16.9904 586.41 16.5604 593.3 15.9404 600.16C13.5004 627.28 8.11038 654.01 1.00038 680.44C-4.73962 701.82 -11.6096 723 -18.9496 744.03C-23.7896 757.92 -28.8496 771.74 -33.9196 785.51C-32.1796 785.61 -30.4196 785.7 -28.6796 785.79C-29.0596 786.87 -29.5496 787.9 -30.1296 788.89C-30.9796 790.36 -32.0296 791.7 -33.2396 792.88C-31.7196 793.53 -30.2096 794.2 -28.7096 794.9C-21.9796 797.98 -15.4196 801.43 -9.04961 805.21L-8.12962 820.21L-7.8596 824.52C-9.7596 826.96 -11.6596 829.38 -13.5696 831.82C-39.2896 864.71 -65.0096 897.6 -90.7396 930.49C-131.31 923.65 -168.39 916.06 -204.67 905.68C-207.67 879.47 -209.61 852.96 -210.23 826.37C-210.99 794.16 -209.83 761.83 -206.34 729.77C-203.72 705.72 -199.78 681.84 -194.36 658.28C-189.56 637.45 -183.6 616.87 -176.35 596.67C-173.52 588.78 -170.49 580.94 -167.13 573.25C-159.7 556.2 -150.68 539.88 -138.93 525.52C-130.78 515.57 -121.18 506.61 -110.48 499.46C-98.7696 491.63 -85.7496 485.97 -71.8896 483.58C-45.3496 479 -15.8496 487.9 0.580399 509.24C15.5504 528.7 18.0103 554.93 17.2204 579.47L17.2104 579.49Z" fill="url(#paint12_linear_26486_108183)"/>
<g style="mix-blend-mode:multiply">
<path d="M241.25 202.941L159.63 238.861L160.56 246.721L242.65 209.081L241.25 202.941Z" fill="#FFBD85"/>
<path d="M387.27 160.701C387.27 178.741 372.65 193.361 354.61 193.361C343.57 193.361 333.8 187.881 327.89 179.501C324.11 180.621 320.63 182.761 317.94 185.641C319.57 189.531 320.47 193.801 320.47 198.281C320.47 216.321 305.85 230.941 287.81 230.941C274.03 230.941 262.24 222.411 257.44 210.341C251.63 210.291 245.83 210.261 240.01 210.221C239.16 207.451 238.98 204.441 239.39 201.511C239.49 201.061 252.27 191.531 256.72 188.231C260.96 175.101 273.28 165.611 287.81 165.611C297.28 165.611 305.81 169.641 311.78 176.091C314.6 172.651 318.83 170.381 323.27 169.951C322.4 167.011 321.93 163.911 321.93 160.691C321.93 142.651 336.56 128.031 354.6 128.031C372.64 128.031 387.26 142.651 387.26 160.691L387.27 160.701Z" fill="#FFBD85"/>
</g>
<path d="M242.57 198.4L160.94 234.31L161.87 242.18L243.97 204.54L242.57 198.4Z" fill="url(#paint13_linear_26486_108183)"/>
<path d="M311.38 78.1308C302.92 91.0708 290.37 100.631 276.64 107.991C272.57 110.181 268.39 112.171 264.18 114.001C239.45 124.761 212.72 130.921 185.77 132.061C181.92 142.851 178.69 153.721 176.04 164.621C170.54 187.251 167.57 210.051 166.86 232.841C166.56 242.431 166.66 252.021 167.14 261.601C161.83 263.981 155.83 263.821 150.5 261.741C147.64 260.631 144.97 258.971 142.71 256.851C120.16 220.141 108.3 176.811 109.35 133.731C114.48 126.831 122.6 122.871 131.07 122.011C133.24 95.3708 149.16 71.3708 171.24 57.9208C171.7 57.6408 172.16 57.3608 172.63 57.0908C179.85 52.8708 187.7 49.7808 195.93 48.0908C216.17 43.9108 237.12 47.5008 257.79 46.9508C278.45 46.4108 301.1 40.2508 312.16 22.8008C324.85 37.9108 322.34 61.3608 311.38 78.1308Z" fill="url(#paint14_linear_26486_108183)"/>
<path style="mix-blend-mode:multiply" opacity="0.32" d="M276.63 107.991C272.56 110.181 268.38 112.171 264.17 114.001C239.44 124.761 212.71 130.921 185.76 132.061C181.91 142.851 178.68 153.721 176.03 164.621C173.94 163.511 171.83 162.461 169.68 161.491C164.87 159.301 159.37 157.401 154.41 159.231C147.07 161.941 144.79 171.081 143.97 178.871C141.08 206.591 143.32 234.831 150.49 261.761C147.63 260.651 144.96 258.991 142.7 256.871C120.15 220.161 108.29 176.831 109.34 133.751C114.47 126.851 122.59 122.891 131.06 122.031C133.23 95.3913 149.15 71.3913 171.23 57.9413C171.69 57.6613 172.15 57.3813 172.62 57.1113C168.32 65.3313 165.96 74.0513 168 82.9813C171.12 96.6013 183.88 105.991 197 110.791C217.72 118.371 240.79 117.471 262.21 112.201C267.07 111.001 271.87 109.591 276.61 108.011L276.63 107.991Z" fill="url(#paint15_linear_26486_108183)"/>
<path d="M181.11 293.96C142.88 292.54 125.27 258.04 135.79 248.84C159.82 227.83 187.48 262.59 192.73 277.65C194.6 283.01 196.02 294.51 181.11 293.96Z" fill="url(#paint16_linear_26486_108183)"/>
<path style="mix-blend-mode:multiply" opacity="0.71" d="M179.52 276.549C178.31 275.029 177.05 273.539 175.81 272.039C170.5 265.829 160.92 252.919 152.59 251.859C148.82 251.889 147.9 253.839 146.95 257.119C146.25 260.519 146.12 264.019 146.16 267.489C146.18 268.279 146.06 269.189 146.7 269.779C147.74 270.889 149.78 270.049 149.73 268.529C149.99 263.659 150.75 257.729 151.96 256.479C152.03 256.459 152.11 256.439 152.18 256.419C152.19 256.419 152.2 256.419 152.21 256.419C152.43 256.419 152.6 256.439 152.7 256.439C153.11 256.529 153.66 256.709 153.94 256.809C157.63 258.559 158.75 259.939 162.04 262.859C162.5 263.279 162.99 263.739 163.49 264.229C162.97 265.069 162.6 266.069 162.12 266.869C160.92 269.349 159.98 271.969 159.74 274.729C159.69 275.579 159.43 276.519 159.77 277.329C160.43 279.089 163.18 278.519 163.14 276.649C163.3 275.029 164.92 270.719 165.91 268.869C166.16 268.409 166.41 267.959 166.67 267.509C169.74 270.819 172.8 274.459 174.12 276.239C174.68 276.959 176.97 279.989 176.28 279.089C176.68 279.679 177.1 280.309 177.84 280.479C179.13 280.869 180.52 279.799 180.5 278.449C180.37 276.959 179.56 276.759 179.52 276.519V276.549Z" fill="url(#paint17_linear_26486_108183)"/>
<path d="M388.59 156.16C388.59 174.2 373.971 188.82 355.931 188.82C344.891 188.82 335.12 183.34 329.21 174.96C325.43 176.08 321.95 178.22 319.26 181.1C320.89 184.99 321.791 189.26 321.791 193.74C321.791 211.78 307.17 226.4 289.13 226.4C275.35 226.4 263.56 217.87 258.76 205.8C252.95 205.75 247.15 205.72 241.33 205.68C240.48 202.91 240.3 199.9 240.71 196.97C240.81 196.52 253.591 186.99 258.041 183.69C262.281 170.56 274.6 161.07 289.13 161.07C298.6 161.07 307.13 165.1 313.1 171.55C315.92 168.11 320.15 165.84 324.59 165.41C323.72 162.47 323.25 159.37 323.25 156.15C323.25 138.11 337.881 123.49 355.921 123.49C373.961 123.49 388.58 138.11 388.58 156.15L388.59 156.16Z" fill="url(#paint18_linear_26486_108183)"/>
<path d="M376.94 223.79C376.25 223.52 375.45 223.54 374.78 223.85L376.94 223.79Z" fill="url(#paint19_linear_26486_108183)"/>
<path d="M318.03 193.751C318.03 198.881 316.7 203.691 314.36 207.861C311.65 212.701 307.57 216.691 302.66 219.291C301.17 220.081 299.61 220.751 297.98 221.271C295.93 221.931 293.78 222.371 291.56 222.551C290.76 222.621 289.94 222.661 289.12 222.661C284.47 222.661 280.08 221.561 276.19 219.621C266.71 214.881 260.21 205.081 260.21 193.761C260.21 188.781 261.47 184.101 263.69 180.011C268.58 170.981 278.13 164.861 289.12 164.861C290.8 164.861 292.46 165.001 294.07 165.281C297.38 165.851 300.5 166.991 303.32 168.581C304.72 169.371 306.04 170.271 307.28 171.281C308.52 172.281 309.68 173.381 310.73 174.581C315.27 179.681 318.02 186.401 318.02 193.761L318.03 193.751Z" fill="url(#paint20_linear_26486_108183)"/>
<path style="mix-blend-mode:multiply" opacity="0.3" d="M314.36 207.862C311.65 212.702 307.57 216.692 302.66 219.292C301.17 220.082 299.61 220.752 297.98 221.272C295.93 221.932 293.78 222.372 291.56 222.552C290.76 222.622 289.94 222.662 289.12 222.662C284.47 222.662 280.08 221.562 276.19 219.622C266.71 214.882 260.21 205.082 260.21 193.762C260.21 188.782 261.47 184.102 263.69 180.012C268.8 188.532 276.15 195.732 284.81 200.592C293.76 205.612 304.09 208.122 314.35 207.872L314.36 207.862Z" fill="url(#paint21_linear_26486_108183)"/>
<path d="M384.83 156.162C384.83 161.912 383.15 167.272 380.26 171.772C379.16 173.482 377.88 175.072 376.46 176.512C374.94 178.042 373.251 179.402 371.421 180.572C370.051 181.442 368.62 182.192 367.11 182.832C363.67 184.272 359.891 185.072 355.931 185.072C354.171 185.072 352.441 184.912 350.771 184.612C337.271 182.172 327.021 170.372 327.021 156.162C327.021 151.092 328.33 146.322 330.63 142.182C335.55 133.282 345.041 127.262 355.931 127.262C360.501 127.262 364.821 128.322 368.661 130.212C371.881 131.802 374.771 133.972 377.181 136.582C377.881 137.332 378.531 138.132 379.151 138.962C380.371 140.612 381.421 142.382 382.271 144.272C383.911 147.902 384.83 151.922 384.83 156.172V156.162Z" fill="url(#paint22_linear_26486_108183)"/>
<path opacity="0.14" d="M303.33 168.571L291.57 222.551C290.77 222.621 289.95 222.661 289.13 222.661C284.48 222.661 280.09 221.561 276.2 219.621L294.08 165.281C297.39 165.851 300.51 166.991 303.33 168.581V168.571Z" fill="url(#paint23_linear_26486_108183)"/>
<path opacity="0.14" d="M310.74 174.562L302.67 219.292C301.18 220.082 299.62 220.752 297.99 221.272L307.3 171.262C308.54 172.262 309.7 173.362 310.75 174.562H310.74Z" fill="url(#paint24_linear_26486_108183)"/>
<path opacity="0.14" d="M377.19 136.581L367.11 182.831C363.67 184.271 359.891 185.071 355.931 185.071C354.171 185.071 352.441 184.911 350.771 184.611L368.671 130.211C371.891 131.801 374.78 133.971 377.19 136.581Z" fill="url(#paint25_linear_26486_108183)"/>
<path opacity="0.14" d="M382.27 144.261L376.45 176.511C374.93 178.041 373.24 179.401 371.41 180.571L379.15 138.951C380.37 140.601 381.42 142.371 382.27 144.261Z" fill="url(#paint26_linear_26486_108183)"/>
<path style="mix-blend-mode:multiply" opacity="0.3" d="M380.26 171.781C379.16 173.491 377.88 175.081 376.46 176.521C374.94 178.051 373.251 179.411 371.421 180.581C370.051 181.451 368.62 182.201 367.11 182.841C363.67 184.281 359.891 185.081 355.931 185.081C354.171 185.081 352.441 184.921 350.771 184.621C337.271 182.181 327.021 170.381 327.021 156.171C327.021 151.101 328.33 146.331 330.63 142.191C335.76 151.471 343.5 159.311 352.75 164.501C361.12 169.191 370.68 171.691 380.26 171.781Z" fill="url(#paint27_linear_26486_108183)"/>
<path style="mix-blend-mode:multiply" opacity="0.69" d="M175.71 132.961C175.07 132.351 174.11 132.541 173.3 132.401C166.22 131.571 156.31 128.991 148.46 126.011C143.95 124.231 141.68 123.321 136.93 120.861C135.34 119.961 133.93 122.321 135.51 123.281C144.33 128.161 154 131.441 163.84 133.521C166.41 134.071 168.99 134.571 171.59 134.961C172.7 135.061 174.19 135.641 175.23 135.301C176.17 134.981 176.41 133.621 175.7 132.951L175.71 132.961Z" fill="url(#paint28_linear_26486_108183)"/>
<path style="mix-blend-mode:multiply" opacity="0.43" d="M311.06 43.4716C310.57 42.1216 308.39 42.5516 308.44 44.0016C307.75 51.9016 303.76 60.5617 298.64 68.0717C294.7 73.8617 291.09 78.4416 285.69 83.4716C281.24 87.5816 277.91 90.2116 273.13 93.4416C271.54 94.4916 269.91 95.4816 268.25 96.4316C267.85 96.6316 267.47 96.9216 267.36 97.3716C267.08 98.9516 268.71 99.4416 269.85 98.5216C271.99 97.3316 274.07 96.0416 276.09 94.6616C285.25 88.3916 293.38 80.5916 299.67 71.4216C303.79 65.6416 307.33 59.3717 309.47 52.5717C310.11 50.5817 310.54 48.5316 310.87 46.4716C310.94 45.4916 311.37 44.4216 311.07 43.4716H311.06Z" fill="url(#paint29_linear_26486_108183)"/>
<path style="mix-blend-mode:multiply" opacity="0.66" d="M194.45 305.472C191.02 299.222 188.2 292.642 186.04 285.852C186.45 290.572 185.92 295.382 184.5 299.902C187.61 302.162 190.39 304.862 194.46 305.462L194.45 305.472Z" fill="url(#paint30_linear_26486_108183)"/>
<path style="mix-blend-mode:multiply" opacity="0.43" d="M282.24 58.8908C279.7 61.0308 276.38 62.2408 272.52 63.4008C267.29 65.0308 261.95 66.3008 256.56 67.3008C247.46 68.9908 238.63 70.2208 230.17 71.3308C220.42 72.6008 210.65 73.9608 201.23 76.8708C193.74 79.0208 186.27 81.6808 179.85 86.1908C177.49 87.8508 175.27 89.7008 173.28 91.7808C172.63 92.5608 171.36 93.3508 171.87 94.5008C172.1 95.1408 172.85 95.4708 173.5 95.3008C174.54 94.8308 175.13 93.6508 176.01 92.9208C177.99 90.9808 179.41 89.8108 181.19 88.5508C187.61 84.0808 193.52 81.9608 200.87 79.7008C216.08 74.7808 230.15 74.1208 245.23 71.6508C255.5 70.0308 265.82 68.3608 275.71 65.0808C277.93 64.3608 280.13 63.4908 282.11 62.2408C282.88 61.6508 283.9 61.1908 284.39 60.3308C284.97 59.0508 283.25 57.8608 282.25 58.8908H282.24Z" fill="url(#paint31_linear_26486_108183)"/>
<path style="mix-blend-mode:multiply" opacity="0.43" d="M143.36 219.351C143.03 218.181 142.7 217.011 142.39 215.841C138.6 201.281 135.74 186.961 134.32 172.821C133.44 163.601 132.74 154.311 133.13 145.041C133.06 143.981 133.67 142.681 132.9 141.801C132.14 140.991 130.64 141.591 130.67 142.721C129.87 153.861 130.8 165.061 132 176.141C132.98 185.061 134.5 193.911 136.47 202.671C137.87 208.631 139.06 214.731 141.04 220.501C141.54 221.251 142.79 221.151 143.22 220.371C143.38 220.051 143.46 219.701 143.35 219.351H143.36Z" fill="url(#paint32_linear_26486_108183)"/>
<path d="M180.75 510.811C170.32 507.611 137.78 481.701 129.57 469.881C109.05 488.371 91.9498 510.641 79.3198 535.211C69.4898 467.321 73.7097 394.621 88.3597 324.091C102.7 314.371 119.5 304.481 137.23 295.111C143.57 291.761 150.05 288.471 156.56 285.291C145.16 356.471 157.4 448.651 180.75 510.801V510.811Z" fill="url(#paint33_linear_26486_108183)"/>
<path d="M317.47 486.511C328.75 504.391 338.19 523.431 345.59 543.231C350.57 509.141 352.28 474.561 350.68 440.141C340.22 455.761 329.75 471.391 317.47 486.501V486.511Z" fill="url(#paint34_linear_26486_108183)"/>
<path style="mix-blend-mode:multiply" opacity="0.28" d="M129.57 469.881C128.12 471.191 126.68 472.521 125.26 473.861C106.65 491.531 91.0598 512.371 79.3198 535.211C69.4898 467.321 73.7097 394.621 88.3597 324.091C92.0697 321.581 95.9398 319.051 99.9498 316.541C111.45 309.291 124.09 302.061 137.23 295.121C138.24 295.381 139.24 295.671 140.23 296.001C126.94 352.821 123.34 412.381 129.57 469.891V469.881Z" fill="url(#paint35_linear_26486_108183)"/>
<path style="mix-blend-mode:multiply" opacity="0.28" d="M125.27 473.871C106.66 491.541 91.0705 512.381 79.3305 535.221C69.5005 467.331 73.7205 394.631 88.3705 324.101C92.0805 321.591 95.9505 319.061 99.9605 316.551C95.4605 356.211 91.5505 395.961 90.8905 435.861C90.7005 447.181 91.3005 459.821 99.3905 467.741C105.99 474.201 116.19 475.721 125.27 473.881V473.871Z" fill="url(#paint36_linear_26486_108183)"/>
<path style="mix-blend-mode:multiply" opacity="0.43" d="M158.14 227.24C157.02 217.34 156.6 207.36 156.46 197.4C156.46 193.99 156.59 189.45 156.97 187.06C157.37 185.6 155.14 184.98 154.73 186.44C153.62 192.59 153.98 198.9 154.1 205.12C154.38 213 154.65 220.95 155.77 228.75C156.06 229.59 157.28 229.81 157.88 229.17C158.43 228.64 158.22 227.91 158.14 227.25V227.24Z" fill="url(#paint37_linear_26486_108183)"/>
<path d="M413.04 301.102C411.33 306.462 409.13 311.902 406.85 318.822C402.08 334.612 397.04 350.631 391.54 366.561C388.89 374.231 386.14 381.881 383.27 389.491C355.41 463.241 315.98 532.691 248.03 570.001C198.54 497.151 168.11 403.541 129.08 321.091C126.8 312.991 127.27 304.151 130.73 296.561C130.09 292.651 129.96 288.672 130.29 284.702C131.61 283.482 132.94 282.271 134.85 280.751C133.29 277.761 131 272.862 130.5 267.702C130.16 264.172 130.66 260.531 132.8 257.271C132.94 262.771 136.57 267.071 139.99 271.061C161.03 284.501 183.32 295.961 206.47 305.301C246.39 321.401 288.87 331.201 331.9 334.021C335.31 334.251 338.73 334.001 342.04 333.191C355.38 329.941 368.16 324.852 379.14 318.602C380.79 317.672 382.36 316.621 383.83 315.431C394.93 306.451 403.76 293.932 410.2 280.142C411.17 284.972 412.31 290.611 413.33 295.691C413.69 297.491 413.6 299.341 413.04 301.091V301.102Z" fill="url(#paint38_linear_26486_108183)"/>
<path style="mix-blend-mode:multiply" opacity="0.35" d="M383.27 389.482C355.41 463.232 315.98 532.682 248.03 569.992C198.54 497.142 168.11 403.532 129.08 321.082C126.8 312.982 127.27 304.142 130.73 296.552C130.09 292.642 129.96 288.662 130.29 284.692C131.61 283.472 132.94 282.262 134.85 280.742C133.29 277.752 131 272.852 130.5 267.692C130.16 264.162 130.66 260.522 132.8 257.262C132.94 262.762 136.57 267.062 139.99 271.052C161.03 284.492 183.32 295.952 206.47 305.292C233.55 334.752 263.9 361.222 296.78 384.042C310.42 393.502 325.3 402.612 341.87 403.582C356.74 404.442 371.26 398.482 383.27 389.492V389.482Z" fill="url(#paint39_linear_26486_108183)"/>
<g style="mix-blend-mode:multiply">
<path d="M402.21 318.922C397.35 326.422 392.93 332.082 386.94 338.812C380.82 345.732 374.3 352.322 367.09 358.112C366.56 358.602 365.72 358.962 365.74 359.792C365.71 360.872 367.14 361.472 367.89 360.682C375.52 354.682 382.43 347.822 388.85 340.552C394.53 334.002 400.24 327.242 404.57 319.742C404.82 318.412 402.85 317.732 402.21 318.922Z" fill="#2E2E2E"/>
</g>
<g style="mix-blend-mode:multiply">
<path d="M354.47 368.511C319.62 366.641 284.97 357.3 251.31 345.37C248.39 344.31 245.48 343.21 242.59 342.07C241.5 341.77 240.13 340.601 239.22 341.761C238.21 343.461 240.05 343.88 241.19 344.34C243.81 345.39 246.45 346.411 249.1 347.391C277.35 357.491 306.36 366.16 336.22 369.74C340.46 370.22 344.72 370.56 348.98 370.82C350.95 370.82 353.06 371.281 354.98 371.031C356.27 370.561 355.87 368.461 354.47 368.511Z" fill="#2E2E2E"/>
</g>
<g style="mix-blend-mode:multiply">
<path d="M196.39 326.981C195.53 326.061 194.25 325.551 193.23 324.801C181.7 317.571 170.42 309.931 159.69 301.551C155.61 298.331 148.18 292.631 143.43 288.071C143.04 287.651 142.66 287.131 142.03 287.161C140.92 287.131 140.3 288.601 141.12 289.371C144.1 292.471 147.55 295.081 150.86 297.811C157.26 302.961 163.78 307.951 170.47 312.711C176.18 316.801 182.07 320.651 188.02 324.391C190.22 325.781 192.41 327.161 194.63 328.521C194.93 328.741 195.32 328.821 195.68 328.721C196.41 328.531 196.79 327.621 196.39 326.971V326.981Z" fill="#2E2E2E"/>
</g>
<g style="mix-blend-mode:multiply">
<path d="M170.56 341.73C163.12 334.46 155.65 327.2 148.86 319.32C144.67 314.62 140.92 309.56 136.72 304.87C135.61 303.77 133.89 305.45 135.01 306.58C139.98 312.28 144.47 318.39 149.6 323.96C156.2 331.06 162.98 338.12 170.2 344.57C170.93 344.94 171.88 344.29 171.85 343.48C171.84 342.68 171.04 342.27 170.56 341.73Z" fill="#2E2E2E"/>
</g>
<g style="mix-blend-mode:multiply">
<path d="M272.84 387.54C272.17 386.66 270.85 386.67 269.9 386.22C247.95 379.28 227.67 367.53 208.13 354.22C202.1 350.14 196.19 345.86 190.31 341.57C189.3 340.84 187.53 339.53 187.3 339.34C186.89 339.03 186.52 338.58 185.96 338.6C184.9 338.57 184.29 339.99 185.08 340.73C211.27 360.23 238.79 379.28 270.27 389.05C270.82 389.17 271.36 389.51 271.93 389.43C272.79 389.37 273.31 388.28 272.85 387.55L272.84 387.54Z" fill="#2E2E2E"/>
</g>
<g style="mix-blend-mode:multiply">
<path d="M376.32 381.21C373.3 384.04 368.98 386.6 364.56 388.94C358.86 391.97 352.65 393.72 345.54 395C341.8 395.66 338.73 396.11 335.7 396.48C334.67 396.72 333.18 396.46 332.37 397.13C331.77 397.7 331.91 398.76 332.63 399.17C333.17 399.5 333.81 399.26 334.4 399.23C335.59 399.1 336.77 398.96 337.95 398.81C346.4 397.65 354.99 396.34 362.81 392.78C368.26 390.17 373.72 387.22 378.13 383.03C379.29 381.83 377.54 380.05 376.32 381.22V381.21Z" fill="#2E2E2E"/>
</g>
</g>
<defs>
<linearGradient id="paint0_linear_26486_108183" x1="390.1" y1="396.19" x2="-405.61" y2="1104.7" gradientUnits="userSpaceOnUse">
<stop stop-color="#B8B8B8"/>
<stop offset="1" stop-color="#8C898C"/>
</linearGradient>
<linearGradient id="paint1_linear_26486_108183" x1="2.93029" y1="485.041" x2="405.32" y2="365.611" gradientUnits="userSpaceOnUse">
<stop stop-color="#454347"/>
<stop offset="1" stop-color="#626163"/>
</linearGradient>
<linearGradient id="paint2_linear_26486_108183" x1="-202.88" y1="646.75" x2="497.41" y2="438.89" gradientUnits="userSpaceOnUse">
<stop stop-color="#454347"/>
<stop offset="1" stop-color="#626163"/>
</linearGradient>
<linearGradient id="paint3_linear_26486_108183" x1="128.43" y1="591.431" x2="299.55" y2="142.391" gradientUnits="userSpaceOnUse">
<stop stop-color="#FFC493"/>
<stop offset="1" stop-color="#FFB073"/>
</linearGradient>
<linearGradient id="paint4_linear_26486_108183" x1="164.62" y1="547.22" x2="275.47" y2="256.33" gradientUnits="userSpaceOnUse">
<stop stop-color="#FFC493"/>
<stop offset="1" stop-color="#FFB073"/>
</linearGradient>
<linearGradient id="paint5_linear_26486_108183" x1="357.37" y1="116.852" x2="207.72" y2="375.192" gradientUnits="userSpaceOnUse">
<stop stop-color="#FFC493"/>
<stop offset="1" stop-color="#FFB073"/>
</linearGradient>
<linearGradient id="paint6_linear_26486_108183" x1="128.76" y1="296.211" x2="295.7" y2="184.911" gradientUnits="userSpaceOnUse">
<stop stop-color="#FFC493"/>
<stop offset="1" stop-color="#FFB073"/>
</linearGradient>
<linearGradient id="paint7_linear_26486_108183" x1="328.85" y1="329.821" x2="295.36" y2="260.941" gradientUnits="userSpaceOnUse">
<stop stop-color="#FFF4EF"/>
<stop offset="1" stop-color="#F6DFD7"/>
</linearGradient>
<linearGradient id="paint8_linear_26486_108183" x1="297.3" y1="339.631" x2="301.48" y2="285.971" gradientUnits="userSpaceOnUse">
<stop stop-color="#FFF4EF"/>
<stop offset="1" stop-color="#F6DFD7"/>
</linearGradient>
<linearGradient id="paint9_linear_26486_108183" x1="373.33" y1="239.751" x2="288.28" y2="190.661" gradientUnits="userSpaceOnUse">
<stop stop-color="#FF9762"/>
<stop offset="1" stop-color="#FFB073"/>
</linearGradient>
<linearGradient id="paint10_linear_26486_108183" x1="315.95" y1="113.09" x2="382.88" y2="160.98" gradientUnits="userSpaceOnUse">
<stop stop-color="#9F5A10"/>
<stop offset="1" stop-color="#F0891E"/>
</linearGradient>
<linearGradient id="paint11_linear_26486_108183" x1="240.631" y1="154.501" x2="322.32" y2="204.491" gradientUnits="userSpaceOnUse">
<stop stop-color="#9F5A10"/>
<stop offset="1" stop-color="#F0891E"/>
</linearGradient>
<linearGradient id="paint12_linear_26486_108183" x1="69.3803" y1="569.49" x2="-276.36" y2="864.3" gradientUnits="userSpaceOnUse">
<stop stop-color="#B8B8B8"/>
<stop offset="1" stop-color="#8C898C"/>
</linearGradient>
<linearGradient id="paint13_linear_26486_108183" x1="198.21" y1="213.21" x2="205.61" y2="226.27" gradientUnits="userSpaceOnUse">
<stop stop-color="#363636"/>
<stop offset="1" stop-color="#131313"/>
</linearGradient>
<linearGradient id="paint14_linear_26486_108183" x1="95.2103" y1="201.001" x2="552.66" y2="-54.2493" gradientUnits="userSpaceOnUse">
<stop stop-color="#9F5A10"/>
<stop offset="1" stop-color="#F0891E"/>
</linearGradient>
<linearGradient id="paint15_linear_26486_108183" x1="96.6896" y1="195.611" x2="426.82" y2="11.4114" gradientUnits="userSpaceOnUse">
<stop stop-color="#9F5A10"/>
<stop offset="1" stop-color="#F0891E"/>
</linearGradient>
<linearGradient id="paint16_linear_26486_108183" x1="35.5099" y1="281.51" x2="195.06" y2="265.28" gradientUnits="userSpaceOnUse">
<stop stop-color="#FFC493"/>
<stop offset="1" stop-color="#FFA45E"/>
</linearGradient>
<linearGradient id="paint17_linear_26486_108183" x1="146.15" y1="266.229" x2="180.5" y2="266.229" gradientUnits="userSpaceOnUse">
<stop stop-color="#FFC493"/>
<stop offset="1" stop-color="#FFB073"/>
</linearGradient>
<linearGradient id="paint18_linear_26486_108183" x1="299.93" y1="150.08" x2="332.24" y2="207.12" gradientUnits="userSpaceOnUse">
<stop stop-color="#363636"/>
<stop offset="1" stop-color="#131313"/>
</linearGradient>
<linearGradient id="paint19_linear_26486_108183" x1="375.91" y1="223.51" x2="375.8" y2="224.26" gradientUnits="userSpaceOnUse">
<stop stop-color="#B8B8B8"/>
<stop offset="1" stop-color="#8C898C"/>
</linearGradient>
<linearGradient id="paint20_linear_26486_108183" x1="303.52" y1="133.341" x2="280.15" y2="231.421" gradientUnits="userSpaceOnUse">
<stop stop-color="#363636"/>
<stop offset="1" stop-color="#131313"/>
</linearGradient>
<linearGradient id="paint21_linear_26486_108183" x1="295.17" y1="166.022" x2="280.46" y2="227.752" gradientUnits="userSpaceOnUse">
<stop stop-color="#363636"/>
<stop offset="1" stop-color="#131313"/>
</linearGradient>
<linearGradient id="paint22_linear_26486_108183" x1="370.31" y1="95.7517" x2="346.95" y2="193.842" gradientUnits="userSpaceOnUse">
<stop stop-color="#363636"/>
<stop offset="1" stop-color="#131313"/>
</linearGradient>
<linearGradient id="paint23_linear_26486_108183" x1="283.61" y1="222.171" x2="297.46" y2="166.031" gradientUnits="userSpaceOnUse">
<stop stop-color="#FFFAF4"/>
<stop offset="1" stop-color="#FAECDD"/>
</linearGradient>
<linearGradient id="paint24_linear_26486_108183" x1="298.54" y1="221.412" x2="310.69" y2="172.102" gradientUnits="userSpaceOnUse">
<stop stop-color="#FFFAF4"/>
<stop offset="1" stop-color="#FAECDD"/>
</linearGradient>
<linearGradient id="paint25_linear_26486_108183" x1="358.26" y1="186.461" x2="371.931" y2="131.011" gradientUnits="userSpaceOnUse">
<stop stop-color="#FFFAF4"/>
<stop offset="1" stop-color="#FAECDD"/>
</linearGradient>
<linearGradient id="paint26_linear_26486_108183" x1="372.13" y1="180.751" x2="382.25" y2="139.721" gradientUnits="userSpaceOnUse">
<stop stop-color="#FFFAF4"/>
<stop offset="1" stop-color="#FAECDD"/>
</linearGradient>
<linearGradient id="paint27_linear_26486_108183" x1="361.801" y1="127.981" x2="346.991" y2="190.151" gradientUnits="userSpaceOnUse">
<stop stop-color="#363636"/>
<stop offset="1" stop-color="#131313"/>
</linearGradient>
<linearGradient id="paint28_linear_26486_108183" x1="134.82" y1="128.041" x2="176.12" y2="128.041" gradientUnits="userSpaceOnUse">
<stop stop-color="#454347"/>
<stop offset="1" stop-color="#626163"/>
</linearGradient>
<linearGradient id="paint29_linear_26486_108183" x1="267.33" y1="70.8216" x2="311.17" y2="70.8216" gradientUnits="userSpaceOnUse">
<stop stop-color="#454347"/>
<stop offset="1" stop-color="#626163"/>
</linearGradient>
<linearGradient id="paint30_linear_26486_108183" x1="182.237" y1="297.627" x2="189.209" y2="295.993" gradientUnits="userSpaceOnUse">
<stop stop-color="#FFC493"/>
<stop offset="1" stop-color="#FFB073"/>
</linearGradient>
<linearGradient id="paint31_linear_26486_108183" x1="171.75" y1="76.9208" x2="284.5" y2="76.9208" gradientUnits="userSpaceOnUse">
<stop stop-color="#454347"/>
<stop offset="1" stop-color="#626163"/>
</linearGradient>
<linearGradient id="paint32_linear_26486_108183" x1="130.38" y1="181.231" x2="143.4" y2="181.231" gradientUnits="userSpaceOnUse">
<stop stop-color="#454347"/>
<stop offset="1" stop-color="#626163"/>
</linearGradient>
<linearGradient id="paint33_linear_26486_108183" x1="331.18" y1="305.631" x2="92.3597" y2="440.431" gradientUnits="userSpaceOnUse">
<stop stop-color="#B8B8B8"/>
<stop offset="1" stop-color="#8C898C"/>
</linearGradient>
<linearGradient id="paint34_linear_26486_108183" x1="362.53" y1="487.991" x2="306.21" y2="502.441" gradientUnits="userSpaceOnUse">
<stop stop-color="#B8B8B8"/>
<stop offset="1" stop-color="#8C898C"/>
</linearGradient>
<linearGradient id="paint35_linear_26486_108183" x1="165.85" y1="400.401" x2="13.1698" y2="439.561" gradientUnits="userSpaceOnUse">
<stop stop-color="#B8B8B8"/>
<stop offset="1" stop-color="#8C898C"/>
</linearGradient>
<linearGradient id="paint36_linear_26486_108183" x1="124.95" y1="416.821" x2="29.1405" y2="441.401" gradientUnits="userSpaceOnUse">
<stop stop-color="#B8B8B8"/>
<stop offset="1" stop-color="#8C898C"/>
</linearGradient>
<linearGradient id="paint37_linear_26486_108183" x1="153.94" y1="207.57" x2="158.25" y2="207.57" gradientUnits="userSpaceOnUse">
<stop stop-color="#454347"/>
<stop offset="1" stop-color="#626163"/>
</linearGradient>
<linearGradient id="paint38_linear_26486_108183" x1="314.28" y1="258.071" x2="90.1398" y2="576.531" gradientUnits="userSpaceOnUse">
<stop stop-color="#363636"/>
<stop offset="1" stop-color="#131313"/>
</linearGradient>
<linearGradient id="paint39_linear_26486_108183" x1="260.69" y1="334.222" x2="107.73" y2="551.542" gradientUnits="userSpaceOnUse">
<stop stop-color="#363636"/>
<stop offset="1" stop-color="#131313"/>
</linearGradient>
<clipPath id="clip0_26486_108183">
<rect width="480" height="480" rx="8" fill="white"/>
</clipPath>
</defs>
</svg>
