<svg width="124" height="73" viewBox="0 0 124 73" fill="none" xmlns="http://www.w3.org/2000/svg">
<path d="M-8.46289 147.811C3.85591 156.915 19.0039 162.458 34.3119 163.156H34.315C37.1768 163.288 40.0448 163.249 42.9004 163.033C46.5251 160.035 49.9198 156.811 53.1373 153.418C53.852 152.664 54.5574 151.903 55.255 151.134C56.6548 149.591 58.022 148.016 59.3612 146.412C62.4297 142.743 65.3458 138.931 68.1719 135.037C69.407 133.335 70.622 131.619 71.823 129.891C73.2461 127.851 74.649 125.794 76.0395 123.729C76.2275 123.451 76.4155 123.174 76.6004 122.896C79.1732 119.07 81.7134 115.22 84.2676 111.396C84.9279 110.407 85.5913 109.417 86.2563 108.432C88.7172 104.779 91.2683 101.004 92.9322 96.9631C93.8846 94.645 94.5465 92.2415 94.7314 89.7231C94.9442 86.8224 94.5061 83.9404 93.8675 81.0895C93.549 79.6695 93.1824 78.2541 92.8188 76.8496C92.1073 74.095 91.4159 71.3296 90.7758 68.5532C88.8664 60.2754 87.423 51.8951 87.3485 43.4184C81.21 39.7301 74.8603 36.062 68.5479 32.6797C67.0176 34.3436 67.0067 35.6658 64.7446 35.6735C60.4767 40.1822 55.6496 44.158 50.4169 47.4998C45.5789 50.5931 40.3928 53.1458 34.9862 55.0832C33.4947 55.6176 31.9861 56.1055 30.4635 56.5451C27.2273 57.4789 23.8435 58.237 20.8698 59.7472C19.9842 60.1946 19.136 60.712 18.3374 61.3195C14.1814 64.4796 12.0731 69.5848 10.2569 74.4803C10.2383 74.5285 10.2212 74.5798 10.201 74.6279C8.59296 78.9719 7.06573 83.3547 5.61774 87.7702C4.30025 91.7987 3.04957 95.8553 1.87191 99.9352C0.60414 104.315 -0.578174 108.723 -1.6766 113.149C-2.0215 114.536 -2.35709 115.925 -2.68491 117.316C-3.34054 120.098 -3.962 122.887 -4.55083 125.684C-5.7984 131.62 -6.89216 137.58 -7.82435 143.552C-8.04652 144.972 -8.25781 146.392 -8.46134 147.811H-8.46289Z" fill="url(#paint0_linear_28963_357996)"/>
<path d="M50.4156 47.4998C50.8025 48.0996 51.2033 48.6899 51.6197 49.271C56.0211 55.4374 61.9592 60.5085 68.7594 63.8566C75.5597 67.2047 83.199 68.8236 90.773 68.5532C89.3529 62.3915 88.1892 56.1723 87.6563 49.9002C87.4715 47.7453 87.3643 45.5842 87.3456 43.4184C81.2072 39.7301 74.8575 36.062 68.545 32.6797C67.0147 34.3436 67.0038 35.6658 64.7417 35.6735C60.4739 40.1822 55.6467 44.158 50.4141 47.4998H50.4156Z" fill="url(#paint1_linear_28963_357996)"/>
<path style="mix-blend-mode:multiply" opacity="0.46" d="M50.4152 47.4998C50.8021 48.0996 51.2029 48.6899 51.6193 49.271C57.5231 46.6764 64.0173 45.4242 70.4665 45.6495C76.4076 45.8577 82.299 47.3212 87.6544 49.9002C87.4695 47.7453 87.3623 45.5842 87.3437 43.4184C81.2052 39.7301 74.8555 36.062 68.5431 32.6797C67.0127 34.3436 67.0019 35.6658 64.7398 35.6735C60.4719 40.1822 55.6448 44.158 50.4121 47.4998H50.4152Z" fill="url(#paint2_linear_28963_357996)"/>
<path d="M65.748 33.8285C65.877 33.9714 66.0075 34.1144 66.1411 34.2558C66.2141 34.335 66.2856 34.4111 66.3586 34.4857C66.6492 34.7964 66.9459 35.104 67.2458 35.4055C68.4467 36.6126 69.7161 37.753 71.0429 38.8219C73.7975 41.0421 76.8022 42.9499 79.9825 44.5036C84.1105 46.5233 88.529 47.9464 93.0672 48.6829C95.362 49.0542 97.9177 49.1987 99.8038 47.8423C101.452 46.6569 102.203 44.5999 102.704 42.6314C104.698 34.843 104.128 26.4643 101.308 18.9447C100.518 16.8333 99.549 14.7887 98.4118 12.8451C97.478 11.2495 96.4278 9.72225 95.2687 8.27736C88.0707 7.81438 79.7603 9.91801 74.4034 14.7483C69.048 19.577 66.0308 26.6227 65.748 33.8285Z" fill="url(#paint3_linear_28963_357996)"/>
<path d="M79.53 33.2974C80.1639 34.1022 80.8288 34.8821 81.5249 35.6341C84.2453 38.5736 87.4427 41.0889 91.0254 42.8911C91.3967 43.0776 91.8177 43.2625 92.217 43.1444C92.6691 43.0108 92.9254 42.5431 93.1259 42.1159C93.5252 41.2722 93.9043 40.4193 94.2678 39.5586C94.3098 39.4591 94.3532 39.3582 94.3936 39.2572C94.7339 38.4369 95.0586 37.6103 95.3678 36.776C95.5806 36.2027 95.5076 35.8749 95.2808 35.6869C94.8644 35.3467 93.9322 35.4663 93.2657 35.3886C91.5365 35.1882 89.8151 34.9054 88.1107 34.545C85.1324 33.9111 82.2675 32.9696 79.387 31.9939C78.1721 31.5822 79.3047 33.01 79.53 33.2959V33.2974Z" fill="url(#paint4_linear_28963_357996)"/>
<path style="mix-blend-mode:multiply" d="M79.6691 32.7709C80.738 33.5213 81.8442 34.2282 82.98 34.8729C84.9546 35.9978 87.0101 36.9921 89.1168 37.8404C90.178 38.2692 91.2546 38.6576 92.3468 38.9963C92.9776 39.1921 93.6193 39.394 94.2656 39.5603C94.3075 39.4608 94.351 39.3599 94.3914 39.2589C94.2299 39.2169 94.0683 39.1734 93.9067 39.1299C93.2992 38.9621 92.6964 38.7835 92.0951 38.5908C89.9061 37.8901 87.7434 37.0853 85.674 36.0817C83.6169 35.0842 81.6329 33.9377 79.7235 32.6792C79.6645 32.6404 79.6132 32.7336 79.6676 32.7709H79.6691Z" fill="url(#paint5_linear_28963_357996)"/>
<path d="M89.608 29.5549C89.6018 29.4617 89.608 29.3654 89.6143 29.2722C89.7665 27.0458 89.9188 24.8194 90.071 22.5931C90.1378 21.6283 90.1068 20.6945 90.0136 19.7251C89.9654 19.2201 89.9809 18.4666 89.6966 18.0207C89.5599 17.8063 89.8287 17.5562 90.0384 17.6789C90.9846 18.232 91.8064 19.1704 92.6035 19.9208C93.4875 20.7536 94.3653 21.5894 95.2571 22.4144C97.0376 24.0613 98.874 25.6615 100.42 27.5383C100.769 27.9625 100.729 28.8076 100.056 28.9164C97.4306 29.3421 94.7677 29.6342 92.1203 29.8688C91.6961 29.9061 89.925 30.2447 89.6997 29.8827C89.6376 29.7849 89.6143 29.6715 89.6065 29.5549H89.608Z" fill="url(#paint6_linear_28963_357996)"/>
<path style="mix-blend-mode:multiply" opacity="0.46" d="M66.1406 34.2554C66.2136 34.3347 66.2851 34.4108 66.3581 34.4854C66.672 34.8132 66.9703 35.1099 67.2453 35.4051C68.4462 36.6123 69.7156 37.7527 71.0424 38.8216C73.797 41.0417 76.8017 42.9496 79.982 44.5032C79.3062 43.3442 78.6894 42.1557 78.3041 40.8755C77.7774 39.1245 77.7277 37.1576 78.5589 35.531C79.2984 34.0892 80.6392 33.0638 81.9722 32.1456C85.2644 29.8866 88.7802 27.9865 92.1594 25.8673C95.4158 23.8243 98.3957 21.4348 101.307 18.9443C100.518 16.8329 99.5485 14.7883 98.4113 12.8447C95.0476 12.969 91.858 14.6563 89.0925 16.6372C86.0645 18.8076 83.3052 21.3944 79.9975 23.1096C78.0757 24.1055 76.0093 24.7875 74.0114 25.6234C72.0134 26.4593 70.0449 27.4753 68.5208 29.015C67.1381 30.4148 66.1562 32.3056 66.1406 34.257V34.2554Z" fill="url(#paint7_linear_28963_357996)"/>
<path d="M61.2692 26.9399C67.1295 26.7923 73.0365 25.3801 78.5115 22.9517C80.1086 22.2433 81.6716 21.4493 83.1833 20.5731C88.5915 17.4441 93.3829 13.2834 97.0184 8.36616C96.3752 7.53185 95.6636 6.75348 94.8961 6.03414C91.0509 2.42815 85.7887 0.32918 80.5095 0.408416C78.1541 0.442596 75.8128 0.913349 73.6129 1.75387C73.3534 1.85175 73.0939 1.95584 72.8391 2.06615C69.4398 3.5188 66.4195 5.8648 64.2475 8.85866C63.5857 9.7722 63.0046 10.7401 62.5121 11.75C60.2189 16.4171 59.7264 21.9698 61.2692 26.9415V26.9399Z" fill="url(#paint8_linear_28963_357996)"/>
<path style="mix-blend-mode:multiply" d="M66.9266 20.6943C66.9949 21.423 66.9452 22.6053 67.4812 23.1491C67.6723 23.3417 67.9427 23.2252 68.0328 23.003C68.199 22.596 68.0514 22.2324 67.983 21.8098C67.8991 21.3158 67.837 20.8202 67.7873 20.3214C67.7003 19.4095 67.6661 18.4944 67.6832 17.5793C67.7189 15.6994 67.9846 13.8288 68.4538 12.0095C68.937 10.1404 69.6221 8.33201 70.5217 6.62612C70.9489 5.81667 71.4228 5.03209 71.9386 4.27702C72.2618 3.80782 72.6284 3.36658 72.9827 2.91914C73.0122 4.05951 73.3524 5.28999 73.5575 6.32626C73.8589 7.85038 74.2178 9.36363 74.6342 10.8613C75.063 12.4025 75.5539 13.9298 76.1039 15.4337C76.6228 16.8522 77.1246 18.3949 77.9186 19.6891C78.1625 20.0868 78.8321 19.8274 78.6845 19.366C78.2169 17.8962 77.4835 16.4979 76.9367 15.0531C76.3882 13.5988 75.8926 12.1244 75.456 10.633C75.0179 9.14301 74.6373 7.63598 74.3157 6.11808C74.1541 5.35835 74.0127 4.59551 73.8698 3.83423C73.7999 3.46291 73.7455 3.08537 73.6585 2.71716C78.495 6 82.5469 10.1902 85.5112 15.2659C85.7567 15.6885 86.4139 15.3047 86.1653 14.8822C83.2942 10.0099 79.3199 5.69704 74.5984 2.54626C77.5519 3.09159 80.4199 4.02533 83.1295 5.33349C86.2787 6.85295 88.9742 8.90841 91.7273 11.0322C91.8298 11.1115 91.9371 10.9483 91.8594 10.8613C89.5211 8.29628 86.3626 6.34802 83.2584 4.85342C80.2009 3.38057 76.9491 2.34274 73.6103 1.75391C73.3509 1.85179 73.0914 1.95588 72.8366 2.06619C72.8413 2.08794 72.849 2.11124 72.8599 2.13455C71.617 3.33706 70.632 5.03985 69.835 6.51736C68.9106 8.22637 68.1788 10.0488 67.6785 11.9271C67.1752 13.8117 66.8924 15.7553 66.8302 17.7051C66.7992 18.7026 66.8287 19.7031 66.9235 20.6959L66.9266 20.6943Z" fill="url(#paint9_linear_28963_357996)"/>
<path style="mix-blend-mode:multiply" opacity="0.33" d="M61.2692 26.9399C67.1295 26.7924 73.0365 25.3801 78.5115 22.9518C80.0542 22.1376 81.6203 21.3562 83.1833 20.5731C88.5915 17.4441 93.3829 13.2835 97.0184 8.36619C96.3752 7.53189 95.6636 6.75351 94.8961 6.03418C87.3657 10.7433 79.4716 15.1276 70.8101 17.0526C69.2378 17.4006 67.5428 17.6585 66.0591 17.0324C64.7416 16.4762 63.7752 15.2814 63.1988 13.9702C62.885 13.257 62.6721 12.5097 62.5121 11.7485C60.2189 16.4156 59.7264 21.9683 61.2692 26.9399Z" fill="url(#paint10_linear_28963_357996)"/>
<path d="M58.4884 27.064C58.5132 27.6466 58.6515 28.237 58.7976 28.7621C59.3771 30.83 60.2424 32.8187 61.3548 34.6551C61.793 35.376 62.2668 36.406 63.0421 36.768C63.9339 37.1813 64.9919 36.7836 65.8433 36.4558C71.0837 34.4376 76.1812 31.9813 81.187 29.4442C87.7185 26.1365 94.1988 22.5678 100.137 18.2673C101.091 17.5759 102.809 16.6733 102.992 15.3744C103.011 15.2362 103.013 15.0932 102.995 14.9472C102.913 14.2605 102.525 13.6514 102.144 13.0704C101.212 11.6472 100.283 10.221 99.3506 8.79632C98.9265 8.1469 98.4697 7.46951 97.7737 7.12305C96.885 6.68337 96.2201 7.17898 95.4619 7.58448C94.3759 8.16554 93.2744 8.7233 92.1822 9.29503C89.875 10.5038 87.5694 11.7141 85.2607 12.9228C81.8349 14.7188 78.3657 16.1808 74.8855 17.8634C71.9227 19.2943 68.9366 20.6817 65.9334 22.0271C64.4326 22.6983 59.2202 24.5922 58.7416 25.5958C58.7199 25.6409 58.6997 25.689 58.6795 25.7356C58.5132 26.1505 58.4666 26.6026 58.4868 27.0609L58.4884 27.064Z" fill="url(#paint11_linear_28963_357996)"/>
<path d="M93.25 7.89587C93.7006 8.10406 93.9709 8.53287 94.2863 8.90885C94.6452 9.33921 94.9994 9.77422 95.3428 10.217C96.0217 11.0917 96.6494 12.0099 97.2522 12.9374C97.8644 13.8789 98.4454 14.8422 98.9907 15.8225C99.4693 16.6833 100.1 17.6294 100.231 18.6206C100.252 18.7915 100.01 18.8646 99.9027 18.7558C99.1896 18.0303 98.7934 16.9443 98.2963 16.0649C97.7665 15.1281 97.2056 14.2083 96.6152 13.3072C96.0249 12.4061 95.3956 11.5329 94.7602 10.6645C94.3904 10.1595 94.0175 9.65926 93.6307 9.16675C93.3588 8.82184 93.0698 8.54685 92.9533 8.12115C92.9036 7.93782 93.0962 7.82285 93.25 7.89277V7.89587Z" fill="url(#paint12_linear_28963_357996)"/>
<path d="M87.9161 11.2388C88.724 11.8649 89.2724 13.0674 89.8177 13.925C90.4206 14.8712 90.9985 15.8329 91.5563 16.807C92.114 17.7811 92.6547 18.7646 93.1627 19.7651C93.5667 20.559 94.345 21.6435 94.2829 22.5617C94.2767 22.6425 94.1835 22.7202 94.1042 22.6642C93.3476 22.1251 92.9949 20.9164 92.5708 20.1116C92.0472 19.1188 91.5112 18.1338 90.9503 17.1628C90.3895 16.1918 89.8069 15.2316 89.2087 14.2823C88.6587 13.4092 87.7856 12.4755 87.4857 11.4904C87.4034 11.2201 87.7297 11.0974 87.9145 11.2419L87.9161 11.2388Z" fill="url(#paint13_linear_28963_357996)"/>
<path d="M81.5594 14.5313C82.605 16.551 83.6785 18.5568 84.7987 20.5377C85.3456 21.5056 85.9033 22.4689 86.472 23.4243C86.9924 24.3006 87.7864 25.2654 87.9557 26.2861C87.9728 26.3918 87.8609 26.5192 87.7537 26.4415C86.966 25.8806 86.4984 24.8568 86.0105 24.0458C85.4108 23.0499 84.822 22.0478 84.2441 21.038C83.0881 19.0198 81.9835 16.9736 80.9317 14.8995C80.7204 14.4832 81.345 14.1134 81.5609 14.5313H81.5594Z" fill="url(#paint14_linear_28963_357996)"/>
<path d="M73.387 18.3544C74.4481 20.3835 75.5978 22.3659 76.8407 24.2878C77.4622 25.2479 78.1054 26.1956 78.7595 27.134C79.3934 28.0429 80.2277 28.9502 80.6611 29.9741C80.6984 30.0642 80.6099 30.2056 80.5058 30.1295C79.6932 29.5251 79.0951 28.5914 78.4954 27.7835C77.7838 26.8249 77.1033 25.8461 76.4508 24.8471C75.1473 22.8491 73.9479 20.7874 72.8417 18.6729C72.6537 18.314 73.1975 17.994 73.387 18.3544Z" fill="url(#paint15_linear_28963_357996)"/>
<path d="M67.0984 20.9724C67.7555 21.872 68.1129 23.0962 68.5805 24.1076C69.0668 25.161 69.5779 26.2004 70.1108 27.2305C70.6453 28.259 71.2031 29.2735 71.7872 30.2756C72.3652 31.2684 73.0503 32.2363 73.5537 33.2679C73.6625 33.4932 73.3657 33.7744 73.1824 33.5538C71.7189 31.7904 70.636 29.5656 69.5531 27.5552C69.0047 26.536 68.478 25.5044 67.9731 24.4619C67.4821 23.4504 66.783 22.2977 66.595 21.1837C66.5421 20.8714 66.9104 20.7129 67.0999 20.9708L67.0984 20.9724Z" fill="url(#paint16_linear_28963_357996)"/>
<path d="M61.5609 23.7668C62.3906 25.9589 63.3119 28.1138 64.3917 30.1942C64.9152 31.204 65.4714 32.1968 66.037 33.1834C66.5512 34.0845 67.2255 34.9607 67.6124 35.924C67.6667 36.0576 67.4725 36.1477 67.3824 36.0576C66.6118 35.3041 66.0649 34.2445 65.501 33.3325C64.878 32.3257 64.3078 31.2864 63.764 30.233C62.7091 28.1869 61.7505 26.0941 60.9364 23.9392C60.7888 23.5477 61.4164 23.3783 61.564 23.7668H61.5609Z" fill="url(#paint17_linear_28963_357996)"/>
<path d="M91.37 15.02C91.878 15.6384 92.5011 16.162 93.1971 16.555C93.6539 16.8129 94.2427 17.0102 94.6808 16.7228C95.0412 16.4851 95.1329 16.0221 95.0941 15.5747C95.0847 15.4442 95.0614 15.3121 95.0304 15.1878C94.7771 14.1624 94.078 13.0702 93.225 12.4301C92.4156 11.8211 91.0872 11.8553 90.7346 12.9521C90.7315 12.9584 90.7283 12.9661 90.7268 12.9723C90.5077 13.6855 90.8961 14.4421 91.37 15.0185V15.02Z" fill="url(#paint18_linear_28963_357996)"/>
<path d="M82.7555 18.9671C82.7555 19.0417 82.7601 19.1131 82.7695 19.1846C82.8425 19.7175 83.1408 20.1914 83.4872 20.6046C83.9129 21.1142 84.4163 21.5554 84.9756 21.9112C85.3361 22.1412 85.7478 22.34 86.1719 22.2903C86.6225 22.2359 86.9969 21.891 87.1709 21.4684C87.2113 21.369 87.2439 21.2665 87.261 21.1608C87.5205 19.6553 85.0269 16.8355 83.366 17.7863C82.9637 18.0194 82.7555 18.4963 82.7539 18.9655L82.7555 18.9671Z" fill="url(#paint19_linear_28963_357996)"/>
<path style="mix-blend-mode:lighten" opacity="0.73" d="M88.9404 11.7129C88.8767 11.9631 88.7804 12.2132 88.5768 12.2847C87.9973 12.4882 88.1511 11.368 88.1589 11.1008C88.176 10.4949 88.235 9.88895 88.3345 9.2908C88.4619 8.52641 88.6576 7.77445 88.9171 7.04424C89.0849 6.57038 89.3428 5.43622 90.0513 5.56362C90.5142 5.64752 91.0782 6.12604 91.0005 6.64029C90.9694 6.84227 90.8685 7.0256 90.7706 7.20582C90.306 8.06187 89.8959 8.94589 89.5448 9.85322C89.3645 10.3178 89.1998 10.787 89.0491 11.2624C89.0119 11.3789 88.9839 11.5467 88.9404 11.7129Z" fill="url(#paint20_linear_28963_357996)"/>
<path style="mix-blend-mode:lighten" opacity="0.73" d="M75.8591 14.2275C75.1289 14.3021 74.3629 14.4326 73.7182 14.8024C73.3919 14.9903 72.2127 16.0266 73.0191 16.3389C73.2319 16.4212 73.4712 16.3544 73.6902 16.2907C76.3547 15.5108 79.1373 15.1395 81.9136 15.1923C82.1902 15.197 82.9499 15.1022 82.5832 14.6594C82.4962 14.5538 82.3673 14.4932 82.2399 14.4419C81.3916 14.1048 80.3538 14.097 79.4496 14.0799C78.2517 14.0566 77.0523 14.1048 75.8591 14.2259V14.2275Z" fill="url(#paint21_linear_28963_357996)"/>
<path d="M50.8048 46.8759C57.2741 57.4345 68.2988 64.6092 80.3131 67.1789C82.106 67.5626 83.9175 67.8345 85.7446 67.9899C87.6245 68.1483 89.5059 68.0707 91.3827 68.1934C91.796 68.2198 91.9529 68.8941 91.4868 68.9671C88.2615 69.4798 84.7378 69.0588 81.5327 68.5678C78.1768 68.0536 74.9064 67.154 71.7587 65.8769C65.9606 63.5263 60.7201 59.9482 56.342 55.4815C53.9198 53.0128 51.8162 50.2815 49.9518 47.3715C49.61 46.8371 50.4708 46.3322 50.8032 46.8744L50.8048 46.8759Z" fill="url(#paint22_linear_28963_357996)"/>
<path style="mix-blend-mode:multiply" opacity="0.32" d="M20.8672 59.747C30.6256 69.9824 41.5617 79.1722 53.9566 85.9538C65.9445 92.5133 79.3197 96.5419 92.9296 96.9613C93.882 94.6433 94.5439 92.2398 94.7288 89.7214C94.9416 86.8207 94.5035 83.9387 93.8649 81.0878C82.6958 82.0495 71.289 80.165 61.0396 75.6283C50.8183 71.1057 41.7761 63.9574 34.9851 55.083C33.4936 55.6175 31.985 56.1053 30.4625 56.545C27.2262 57.4787 23.8424 58.2369 20.8687 59.747H20.8672Z" fill="url(#paint23_linear_28963_357996)"/>
<path d="M5.26523 131.198C9.05766 131.706 12.8579 132.252 16.6674 132.801C23.1414 133.735 29.6372 134.685 36.1407 135.491H36.1422C40.5344 136.033 44.9312 136.513 49.3249 136.878C54.0324 137.271 58.7384 137.532 63.4397 137.605C63.5966 137.144 63.7504 136.679 63.898 136.213C65.1471 132.297 66.0622 128.248 66.8375 124.216C62.2962 122.969 57.7378 121.713 53.1748 120.458C49.7117 119.504 46.2471 118.55 42.7856 117.598C40.9088 117.08 39.0336 116.564 37.1599 116.049C35.3825 115.559 33.6083 115.073 31.8356 114.584C31.7051 114.549 31.5745 114.512 31.4425 114.476C31.357 114.453 31.2731 114.431 31.1892 114.406C31.2017 114.349 31.2125 114.293 31.2265 114.236C31.5528 112.719 31.9692 111.228 32.4446 109.753C33.7077 105.824 35.3748 102.011 36.8181 98.132C37.0045 97.6333 37.1847 97.1362 37.3619 96.6343C38.4774 93.4649 39.3971 90.1417 39.7638 86.8076C40.0838 83.91 39.986 81.0032 39.2418 78.1833C37.64 72.1133 32.2939 66.6755 26.0156 66.7548C20.6447 66.8231 15.9558 70.8331 13.5011 75.6136C13.0738 76.4479 12.6994 77.3024 12.3747 78.174C12.2473 78.5096 12.1292 78.8483 12.0158 79.1916C10.7387 83.0322 10.2555 87.1556 9.79719 91.2028C9.7599 91.5306 9.72262 91.8585 9.68533 92.1863C9.18817 96.5753 8.691 100.964 8.19383 105.355C7.63608 110.283 7.07832 115.211 6.51746 120.139C6.09953 123.826 5.6816 127.511 5.26367 131.198H5.26523Z" fill="url(#paint24_linear_28963_357996)"/>
<path style="mix-blend-mode:multiply" opacity="0.33" d="M58.4883 27.0646C58.5131 27.6472 58.6514 28.2376 58.7975 28.7627C59.377 30.8306 60.2423 32.8193 61.3547 34.6557C61.7929 35.3766 62.2667 36.4066 63.042 36.7686C63.9338 37.1819 64.9918 36.7841 65.8432 36.4563C71.0836 34.4382 76.1811 31.9818 81.1869 29.4448C87.7184 26.1371 94.1987 22.5683 100.137 18.2679C101.091 17.5765 102.809 16.6738 102.992 15.375C102.95 15.4014 102.905 15.4325 102.862 15.4636C100.659 17.0374 98.6421 18.8054 96.3505 20.2721C91.7361 23.2224 86.7754 25.5855 81.7432 27.7264C78.9047 28.9336 76.0382 30.0693 73.1702 31.2035C70.6875 32.1838 68.0556 33.1828 65.4175 32.7727C62.3304 32.291 59.8726 29.914 58.4883 27.0646Z" fill="url(#paint25_linear_28963_357996)"/>
<path d="M94.7105 15.351C94.6965 15.3634 94.681 15.3743 94.6639 15.3852C94.5178 15.4784 94.3252 15.4551 94.1621 15.3945C93.7317 15.2314 93.1273 14.5447 93.3604 14.0537C93.5623 13.6265 94.1776 13.7259 94.4666 14.0009C94.7555 14.2759 95.1144 15.0278 94.7105 15.3526V15.351Z" fill="url(#paint26_linear_28963_357996)"/>
<path d="M86.8277 20.7114C86.8137 20.7238 86.7982 20.7347 86.7811 20.7455C86.635 20.8388 86.4424 20.8154 86.2792 20.7549C85.8489 20.5917 85.2445 19.905 85.4776 19.4141C85.6795 18.9868 86.2948 19.0862 86.5838 19.3612C86.8727 19.6362 87.2316 20.3882 86.8277 20.7129V20.7114Z" fill="url(#paint27_linear_28963_357996)"/>
<path style="mix-blend-mode:multiply" d="M90.734 12.9521C91.1193 12.7191 91.6087 12.6414 92.0577 12.7206C92.7117 12.8356 93.2881 13.2318 93.7651 13.6932C94.3198 14.2308 94.7719 14.8724 95.0919 15.5747C95.0826 15.4442 95.0593 15.3121 95.0282 15.1878C94.775 14.1624 94.0758 13.0702 93.2229 12.4301C92.4134 11.8211 91.0851 11.8553 90.7324 12.9521H90.734Z" fill="url(#paint28_linear_28963_357996)"/>
<path style="mix-blend-mode:multiply" d="M82.7559 18.9671C83.0277 18.6237 83.4426 18.3938 83.8822 18.3643C84.4074 18.3316 84.9154 18.5694 85.3442 18.8723C86.2251 19.4953 86.8761 20.4322 87.1729 21.4684C87.2133 21.369 87.2459 21.2665 87.263 21.1608C87.5224 19.6553 85.0288 16.8355 83.368 17.7863C82.9656 18.0194 82.7574 18.4963 82.7559 18.9655V18.9671Z" fill="url(#paint29_linear_28963_357996)"/>
<defs>
<linearGradient id="paint0_linear_28963_357996" x1="50.9327" y1="160.856" x2="34.4362" y2="67.2031" gradientUnits="userSpaceOnUse">
<stop stop-color="#454347"/>
<stop offset="1" stop-color="#626163"/>
</linearGradient>
<linearGradient id="paint1_linear_28963_357996" x1="78.5474" y1="70.8293" x2="58.726" y2="18.815" gradientUnits="userSpaceOnUse">
<stop stop-color="#FFC493"/>
<stop offset="1" stop-color="#FFB073"/>
</linearGradient>
<linearGradient id="paint2_linear_28963_357996" x1="87.6559" y1="41.2884" x2="50.4152" y2="41.2884" gradientUnits="userSpaceOnUse">
<stop stop-color="#FFC493"/>
<stop offset="1" stop-color="#FFB073"/>
</linearGradient>
<linearGradient id="paint3_linear_28963_357996" x1="112.191" y1="43.023" x2="83.4564" y2="23.8666" gradientUnits="userSpaceOnUse">
<stop stop-color="#FFC493"/>
<stop offset="1" stop-color="#FFB073"/>
</linearGradient>
<linearGradient id="paint4_linear_28963_357996" x1="91.2879" y1="42.5944" x2="86.0848" y2="31.8929" gradientUnits="userSpaceOnUse">
<stop stop-color="#FFF4EF"/>
<stop offset="1" stop-color="#F6DFD7"/>
</linearGradient>
<linearGradient id="paint5_linear_28963_357996" x1="86.384" y1="44.1187" x2="87.0349" y2="35.7818" gradientUnits="userSpaceOnUse">
<stop stop-color="#FFF4EF"/>
<stop offset="1" stop-color="#F6DFD7"/>
</linearGradient>
<linearGradient id="paint6_linear_28963_357996" x1="98.1981" y1="28.601" x2="84.9844" y2="20.9742" gradientUnits="userSpaceOnUse">
<stop stop-color="#FF9762"/>
<stop offset="1" stop-color="#FFB073"/>
</linearGradient>
<linearGradient id="paint7_linear_28963_357996" x1="101.307" y1="28.6748" x2="66.1391" y2="28.6748" gradientUnits="userSpaceOnUse">
<stop stop-color="#FFC493"/>
<stop offset="1" stop-color="#FFB073"/>
</linearGradient>
<linearGradient id="paint8_linear_28963_357996" x1="73.5492" y1="2.01022" x2="78.7818" y2="16.6424" gradientUnits="userSpaceOnUse">
<stop stop-color="#363636"/>
<stop offset="1" stop-color="#131313"/>
</linearGradient>
<linearGradient id="paint9_linear_28963_357996" x1="77.9729" y1="3.51263" x2="79.8342" y2="19.7419" gradientUnits="userSpaceOnUse">
<stop stop-color="#363636"/>
<stop offset="1" stop-color="#131313"/>
</linearGradient>
<linearGradient id="paint10_linear_28963_357996" x1="97.0169" y1="16.4855" x2="60.3774" y2="16.4855" gradientUnits="userSpaceOnUse">
<stop stop-color="#363636"/>
<stop offset="1" stop-color="#131313"/>
</linearGradient>
<linearGradient id="paint11_linear_28963_357996" x1="76.8042" y1="15.1119" x2="84.1374" y2="28.0583" gradientUnits="userSpaceOnUse">
<stop stop-color="#363636"/>
<stop offset="1" stop-color="#131313"/>
</linearGradient>
<linearGradient id="paint12_linear_28963_357996" x1="92.3862" y1="4.48097" x2="101.52" y2="23.3701" gradientUnits="userSpaceOnUse">
<stop stop-color="#161616"/>
<stop offset="1"/>
</linearGradient>
<linearGradient id="paint13_linear_28963_357996" x1="86.3624" y1="7.39195" x2="95.4978" y2="26.2826" gradientUnits="userSpaceOnUse">
<stop stop-color="#161616"/>
<stop offset="1"/>
</linearGradient>
<linearGradient id="paint14_linear_28963_357996" x1="79.6903" y1="10.6193" x2="88.8242" y2="29.51" gradientUnits="userSpaceOnUse">
<stop stop-color="#161616"/>
<stop offset="1"/>
</linearGradient>
<linearGradient id="paint15_linear_28963_357996" x1="71.939" y1="14.3662" x2="81.0744" y2="33.2569" gradientUnits="userSpaceOnUse">
<stop stop-color="#161616"/>
<stop offset="1"/>
</linearGradient>
<linearGradient id="paint16_linear_28963_357996" x1="65.2915" y1="17.5824" x2="74.4253" y2="36.4715" gradientUnits="userSpaceOnUse">
<stop stop-color="#161616"/>
<stop offset="1"/>
</linearGradient>
<linearGradient id="paint17_linear_28963_357996" x1="59.5334" y1="20.3658" x2="68.6688" y2="39.255" gradientUnits="userSpaceOnUse">
<stop stop-color="#161616"/>
<stop offset="1"/>
</linearGradient>
<linearGradient id="paint18_linear_28963_357996" x1="95.4234" y1="15.4286" x2="90.6072" y2="13.3483" gradientUnits="userSpaceOnUse">
<stop stop-color="#FFF4EF"/>
<stop offset="1" stop-color="#F6DFD7"/>
</linearGradient>
<linearGradient id="paint19_linear_28963_357996" x1="87.5609" y1="21.1779" x2="83.2371" y2="18.9888" gradientUnits="userSpaceOnUse">
<stop stop-color="#FFF4EF"/>
<stop offset="1" stop-color="#F6DFD7"/>
</linearGradient>
<linearGradient id="paint20_linear_28963_357996" x1="89.9316" y1="9.09194" x2="88.336" y2="8.73615" gradientUnits="userSpaceOnUse">
<stop stop-color="#FFF4EF"/>
<stop offset="1" stop-color="#F6DFD7"/>
</linearGradient>
<linearGradient id="paint21_linear_28963_357996" x1="77.753" y1="15.9132" x2="77.6349" y2="14.6113" gradientUnits="userSpaceOnUse">
<stop stop-color="#FFF4EF"/>
<stop offset="1" stop-color="#F6DFD7"/>
</linearGradient>
<linearGradient id="paint22_linear_28963_357996" x1="73.9229" y1="50.1914" x2="65.0532" y2="72.1863" gradientUnits="userSpaceOnUse">
<stop stop-color="#363636"/>
<stop offset="1" stop-color="#131313"/>
</linearGradient>
<linearGradient id="paint23_linear_28963_357996" x1="94.7816" y1="76.023" x2="20.8656" y2="76.023" gradientUnits="userSpaceOnUse">
<stop stop-color="#454347"/>
<stop offset="1" stop-color="#626163"/>
</linearGradient>
<linearGradient id="paint24_linear_28963_357996" x1="49.6278" y1="153.957" x2="13.7093" y2="84.516" gradientUnits="userSpaceOnUse">
<stop stop-color="#454347"/>
<stop offset="1" stop-color="#626163"/>
</linearGradient>
<linearGradient id="paint25_linear_28963_357996" x1="102.992" y1="26.1604" x2="58.4883" y2="26.1604" gradientUnits="userSpaceOnUse">
<stop stop-color="#363636"/>
<stop offset="1" stop-color="#131313"/>
</linearGradient>
<linearGradient id="paint26_linear_28963_357996" x1="95.6458" y1="15.1009" x2="93.3821" y2="14.3458" gradientUnits="userSpaceOnUse">
<stop stop-color="#363636"/>
<stop offset="1" stop-color="#131313"/>
</linearGradient>
<linearGradient id="paint27_linear_28963_357996" x1="87.763" y1="20.4612" x2="85.4993" y2="19.7061" gradientUnits="userSpaceOnUse">
<stop stop-color="#363636"/>
<stop offset="1" stop-color="#131313"/>
</linearGradient>
<linearGradient id="paint28_linear_28963_357996" x1="92.7832" y1="14.4747" x2="93.6253" y2="12.9226" gradientUnits="userSpaceOnUse">
<stop stop-color="#FFF4EF"/>
<stop offset="1" stop-color="#D7C2BB"/>
</linearGradient>
<linearGradient id="paint29_linear_28963_357996" x1="87.2801" y1="19.5326" x2="82.7543" y2="19.5326" gradientUnits="userSpaceOnUse">
<stop stop-color="#FFF4EF"/>
<stop offset="1" stop-color="#D7C2BB"/>
</linearGradient>
</defs>
</svg>
