<svg width="2000" height="2000" viewBox="0 0 2000 2000" fill="none" xmlns="http://www.w3.org/2000/svg">
<path d="M830.321 1705.57C833.611 1711.9 839.471 1716.84 846.271 1719.03C850.481 1720.37 854.971 1720.68 859.191 1721.97C868.321 1724.76 873.811 1735.58 877.301 1743.84C879.751 1749.62 881.331 1755.8 884.581 1761.17C894.051 1776.85 917.611 1778.35 933.861 1778.42C945.521 1778.47 958.361 1778.18 970.271 1775.4C978.101 1773.56 985.531 1770.65 991.971 1766.05C993.451 1764.98 994.951 1763.74 995.541 1762C996.511 1759.17 994.641 1756.02 992.111 1754.41C989.581 1752.8 986.541 1752.28 983.651 1751.48C977.501 1749.78 971.371 1745.06 965.541 1742.25C958.901 1739.06 952.201 1735.88 946.501 1731.14C932.601 1719.58 926.871 1701.03 923.211 1683.33C920.481 1670.16 918.381 1656.52 913.451 1644.14C911.761 1639.88 909.731 1635.76 907.211 1631.87C889.211 1630.99 869.951 1630.93 852.771 1625.48C844.511 1634.13 836.971 1643.67 832.161 1654.61C826.651 1667.16 823.821 1693.05 830.331 1705.58L830.321 1705.57Z" fill="url(#paint0_linear_26486_105961)"/>
<path d="M629.33 1725.15C632.9 1731.12 638.61 1735.64 644.96 1738.46C648.66 1740.1 652.71 1741.21 656.74 1740.83C658.72 1740.65 660.66 1740.12 662.64 1740.12C669.59 1740.12 676.3 1755.78 679.75 1761.09C685.15 1769.38 690.95 1777.62 699.67 1782.73C714.01 1791.12 733.15 1794.86 751.24 1793.23C762.47 1792.24 773.3 1789.17 782.32 1783.87C787.15 1781.04 791.5 1777.11 793.91 1772.05C794.99 1769.79 795.57 1766.86 793.96 1764.95C793.02 1763.81 791.53 1763.32 790.12 1762.87C775.02 1758.09 759.08 1755.12 747.05 1744.22C736.7 1734.84 729.7 1721.99 725.9 1708.64C721.97 1694.83 721.09 1680.46 721.13 1666.05C721.14 1659.85 721.33 1653.65 721.52 1647.48C697.71 1645.2 671.16 1638.29 648.96 1629.38C638.6 1646.41 631.17 1665.22 627.11 1684.75C624.66 1696.52 622.88 1714.36 629.32 1725.16L629.33 1725.15Z" fill="url(#paint1_linear_26486_105961)"/>
<path style="mix-blend-mode:multiply" opacity="0.32" d="M830.319 1705.57C833.609 1711.9 839.469 1716.84 846.269 1719.03C850.479 1720.37 854.969 1720.68 859.189 1721.97C868.319 1724.76 873.809 1735.58 877.299 1743.84C879.749 1749.62 881.329 1755.8 884.579 1761.17C894.049 1776.85 917.609 1778.35 933.859 1778.42C945.519 1778.47 958.359 1778.18 970.269 1775.4C959.329 1773.5 948.199 1772.37 937.319 1770.13C920.279 1766.65 902.859 1759.77 892.539 1745.77C885.509 1736.23 882.319 1724.1 874.329 1715.34C865.479 1705.63 850.489 1699.17 849.529 1686.06C848.709 1674.93 858.999 1666.34 868.789 1660.96C878.769 1655.49 889.299 1651.28 900.199 1648.05C904.209 1646.86 909.129 1645.94 913.439 1644.12C911.749 1639.86 909.719 1635.74 907.199 1631.85C889.199 1630.97 869.939 1630.91 852.759 1625.46C844.499 1634.11 836.959 1643.65 832.149 1654.59C826.639 1667.14 823.809 1693.03 830.319 1705.56V1705.57Z" fill="url(#paint2_linear_26486_105961)"/>
<path style="mix-blend-mode:multiply" opacity="0.43" d="M629.33 1725.15C632.9 1731.12 638.61 1735.64 644.96 1738.46C648.66 1740.1 652.71 1741.21 656.74 1740.83C658.72 1740.65 660.66 1740.12 662.64 1740.12C669.59 1740.12 676.3 1755.78 679.75 1761.09C685.15 1769.38 690.95 1777.62 699.67 1782.73C714.01 1791.12 733.15 1794.86 751.24 1793.23C747.46 1792.18 743.74 1791 740.08 1789.61C722.08 1782.81 705.28 1770.87 696.49 1753.75C691.89 1744.8 689.12 1734.1 680.82 1728.41C674.12 1723.81 665.15 1723.56 658.47 1718.92C647.23 1711.11 647.34 1693.08 655.89 1682.39C664.44 1671.69 678.65 1667.19 692.28 1665.78C699.4 1665.04 711.47 1666.77 721.13 1666.05C721.14 1659.85 721.33 1653.65 721.52 1647.48C697.71 1645.2 671.16 1638.29 648.96 1629.38C638.6 1646.41 631.17 1665.22 627.11 1684.75C624.66 1696.52 622.88 1714.36 629.32 1725.16L629.33 1725.15Z" fill="url(#paint3_linear_26486_105961)"/>
<path d="M740.748 1278.48C746.398 1307.92 751.018 1340.73 771.348 1362.76C800.158 1394 831.768 1423.78 866.028 1448.92C866.218 1449.06 866.408 1449.19 866.598 1449.34C866.318 1451.12 866.028 1452.88 865.758 1454.66C856.198 1514.86 847.538 1576.02 837.928 1636.16C861.688 1643.45 889.198 1643.13 913.398 1637.47C915.848 1633.03 918.268 1628.58 920.658 1624.13C953.438 1563.25 981.418 1501.76 1007.5 1437.44C987.408 1379.33 964.998 1322.02 940.348 1265.69C933.318 1249.6 926.088 1233.59 918.688 1217.67C906.018 1190.4 870.948 1175.03 841.398 1169.48C811.858 1163.93 778.588 1171.14 758.568 1193.58C738.608 1215.94 735.098 1249.06 740.748 1278.5V1278.48Z" fill="url(#paint4_linear_26486_105961)"/>
<path style="mix-blend-mode:multiply" opacity="0.51" d="M740.75 1278.48C746.4 1307.92 751.02 1340.73 771.35 1362.76C800.32 1394.17 832.12 1424.11 866.6 1449.33C856.71 1511.24 847.83 1574.24 837.93 1636.15C861.69 1643.44 889.2 1643.12 913.4 1637.46C915.85 1633.02 918.27 1628.57 920.66 1624.12C903.3 1620.87 886.15 1614.95 877.39 1600.24C870.09 1587.99 870.76 1572.67 873.02 1558.59C878.92 1521.82 892.87 1486.83 907.79 1452.71C880.32 1425.52 870.5 1382.87 880.18 1345.45C888.73 1312.41 911.43 1283.91 940.36 1265.67C933.33 1249.58 926.1 1233.57 918.7 1217.65C906.03 1190.38 870.96 1175.01 841.41 1169.46C811.87 1163.91 778.6 1171.12 758.58 1193.56C738.62 1215.92 735.11 1249.04 740.76 1278.48H740.75Z" fill="url(#paint5_linear_26486_105961)"/>
<path d="M668.26 1484.98C661.15 1537.82 651.55 1590.4 638.89 1642.19C666.23 1653.33 699.02 1657.7 728.3 1654.02C730.16 1649.88 732.01 1645.74 733.87 1641.61C757.6 1589.01 782.04 1537.35 805.64 1484.59C794.87 1397.81 784.11 1311.04 773.34 1224.26C760.2 1218.49 747.11 1212.79 734.05 1207.13C685.69 1186.19 637.73 1165.82 589.07 1144.46C578.75 1189.73 571.63 1237.12 565.84 1283.19C600.01 1347.47 633.91 1412.24 668.07 1476.53C668.42 1477.19 668.77 1477.84 669.12 1478.5C668.84 1480.66 668.55 1482.82 668.26 1484.97V1484.98Z" fill="url(#paint6_linear_26486_105961)"/>
<path style="mix-blend-mode:multiply" opacity="0.51" d="M669.12 1478.51C661.93 1533.53 652.06 1588.28 638.89 1642.2C666.23 1653.34 699.02 1657.71 728.3 1654.03C730.16 1649.89 732.01 1645.75 733.87 1641.62C723.68 1641.21 713.53 1639.98 703.93 1636.64C691.51 1632.33 679.98 1624.09 674.17 1612.29C666.85 1597.47 669.51 1579.83 673.25 1563.72C680.87 1530.85 689.7 1498.4 701.02 1466.61C675.47 1422.39 649.83 1377.99 630.65 1330.66C622.88 1311.45 616.08 1290.62 620.23 1270.32C624.79 1247.94 642.75 1229.6 664.09 1221.5C676.25 1216.9 689.4 1215.36 702.33 1216.22C713.63 1216.97 727.72 1224.43 733.15 1210.09C733.52 1209.13 733.82 1208.14 734.05 1207.14C685.69 1186.2 637.73 1165.83 589.07 1144.47C578.75 1189.74 571.63 1237.13 565.84 1283.2C600.35 1348.14 634.6 1413.57 669.12 1478.51Z" fill="url(#paint7_linear_26486_105961)"/>
<path d="M1372.69 900.42C1388.91 894.04 1406.39 890.85 1423.82 891.08C1425.94 891.11 1428.11 891.2 1430.07 892C1432.03 892.8 1433.77 894.46 1434.09 896.56C1434.65 900.18 1431.08 902.98 1427.9 904.8C1416.08 911.56 1403.49 916.98 1390.45 920.92C1396.62 920.46 1402.64 920.65 1408.58 922.35C1412.09 923.35 1415.94 926.07 1415.38 929.68C1414.93 932.63 1411.81 934.28 1409.06 935.42C1396.53 940.62 1383.64 944.95 1370.52 948.38C1377.37 948.21 1384.32 949.45 1390.94 951.23C1392.65 951.69 1394.49 952.33 1395.4 953.84C1396.58 955.79 1395.63 958.46 1393.89 959.94C1392.16 961.42 1389.85 962 1387.63 962.53C1371.16 966.5 1354.69 970.47 1338.21 974.45C1334.39 960.39 1334.85 945.07 1340.78 931.76C1346.72 918.45 1359.1 905.76 1372.66 900.43L1372.69 900.42Z" fill="url(#paint8_linear_26486_105961)"/>
<path d="M1284.01 950C1287.07 972.56 1290.65 996.27 1293.71 1018.83C1298.55 1018.01 1303.43 1017.42 1308.32 1017.06C1326.65 1015.72 1345.2 1017.65 1362.84 1022.76C1366.26 1023.75 1369.77 1024.88 1373.32 1024.52C1376.19 1024.22 1379.11 1022.63 1380.44 1020.17C1380.75 1019.59 1380.98 1018.96 1381.09 1018.29C1381.64 1015.05 1379.56 1012.01 1377.59 1009.38C1369.63 998.79 1361.48 988.33 1353.16 978.02C1348.37 972.1 1343.3 965.6 1343.15 957.98C1343.02 951.02 1347.1 944.731 1351.2 939.091C1369.81 913.511 1392.24 890.6 1408.02 863.18C1409.38 860.83 1410.7 858.38 1411.09 855.69C1411.5 853.01 1410.81 850.001 1408.71 848.281C1406.39 846.371 1403.02 846.49 1400.06 847.04C1384.57 849.93 1372.45 861.6 1361.29 872.73C1347.73 886.27 1334.18 899.82 1320.64 913.35C1310.34 923.65 1300.03 933.94 1289.73 944.24C1287.82 946.16 1285.9 948.07 1284 949.97L1284.01 950Z" fill="url(#paint9_linear_26486_105961)"/>
<path style="mix-blend-mode:multiply" opacity="0.51" d="M1284.01 950.001C1287.07 972.561 1290.65 996.271 1293.71 1018.83C1298.55 1018.01 1303.43 1017.42 1308.32 1017.06C1326.65 1015.72 1345.2 1017.65 1362.84 1022.76C1366.26 1023.75 1369.77 1024.88 1373.32 1024.52C1376.19 1024.22 1379.11 1022.63 1380.44 1020.17C1378.21 1019.93 1375.87 1019.9 1373.73 1019.31C1363.4 1016.47 1353.25 1012.42 1344.14 1006.74C1330.83 998.431 1319.58 986.001 1315.22 970.921C1311.55 958.251 1312.92 944.641 1315.82 931.761C1317.21 925.581 1318.96 919.491 1320.65 913.381C1310.35 923.681 1300.04 933.971 1289.74 944.271C1287.83 946.191 1285.91 948.101 1284.01 950.001Z" fill="url(#paint10_linear_26486_105961)"/>
<path d="M1284.01 950C1287.08 972.56 1290.65 996.27 1293.72 1018.84C1298.56 1018.01 1303.44 1017.43 1308.33 1017.07C1302.13 992.8 1295.94 968.54 1289.74 944.26C1287.83 946.18 1285.91 948.08 1284.01 949.99V950Z" fill="url(#paint11_linear_26486_105961)"/>
<path d="M1050.29 1074.31C1053.21 1074.35 1056.14 1074.38 1059.06 1074.39C1122.69 1074.65 1185.96 1067.14 1248.04 1053.46C1267.05 1049.29 1285.93 1044.53 1304.69 1039.24C1303.85 1035.98 1303.02 1032.74 1302.21 1029.48C1294.95 1000.63 1288.7 971.911 1284.35 942.381C1270.78 947.791 1257.05 951.311 1242.98 953.901C1236.86 955.041 1230.68 955.991 1224.41 956.841C1223.68 956.941 1222.94 957.041 1222.2 957.141C1222.38 955.721 1222.58 954.291 1222.76 952.871C1222.79 952.671 1222.81 952.461 1222.84 952.261C1223.31 948.681 1223.76 945.111 1224.23 941.531C1225 935.641 1225.76 929.751 1226.53 923.861C1229.08 904.291 1231.61 884.721 1234.17 865.151C1234.66 861.441 1235.13 857.721 1235.62 854.011C1238.6 831.061 1241.59 808.101 1244.58 785.151C1244.58 785.121 1244.59 785.091 1244.59 785.061C1244.56 785.071 1244.53 785.071 1244.5 785.081C1213.05 792.781 1178.23 810.991 1156.11 834.621C1133.96 858.271 1117.23 886.491 1102.95 915.571C1088.76 944.481 1076.9 974.541 1067.41 1005.34C1064.76 1013.92 1062.31 1022.55 1060.03 1031.23C1056.77 1043.59 1053.9 1056.05 1051.39 1068.59C1051.01 1070.5 1050.65 1072.4 1050.28 1074.3L1050.29 1074.31Z" fill="url(#paint12_linear_26486_105961)"/>
<path style="mix-blend-mode:multiply" opacity="0.32" d="M1147.05 918.819C1173.68 923.479 1199.9 925.389 1226.52 923.869C1229.07 904.299 1231.6 884.729 1234.16 865.159C1218.77 864.019 1203.41 862.339 1188.14 860.109C1171.32 877.619 1155.27 895.969 1147.05 918.819Z" fill="url(#paint13_linear_26486_105961)"/>
<path style="mix-blend-mode:multiply" opacity="0.32" d="M1051.39 1068.59C1051.64 1068.74 1051.89 1068.87 1052.14 1068.99C1119.63 1049.89 1180.48 1008.18 1222.82 952.271C1223.29 948.691 1223.74 945.121 1224.21 941.541C1181.87 958.751 1137.66 971.231 1092.22 976.271C1083.7 985.821 1075.36 995.441 1067.4 1005.35C1060.99 1026.15 1055.65 1047.27 1051.39 1068.59Z" fill="url(#paint14_linear_26486_105961)"/>
<path style="mix-blend-mode:multiply" opacity="0.32" d="M1242.97 953.901C1244.65 987.081 1246.34 1020.28 1248.03 1053.46C1267.04 1049.29 1285.92 1044.53 1304.68 1039.24C1296.38 1007.09 1289.18 975.241 1284.34 942.381C1270.77 947.791 1257.04 951.311 1242.97 953.901Z" fill="url(#paint15_linear_26486_105961)"/>
<path style="mix-blend-mode:multiply" opacity="0.43" d="M1059.05 1074.39C1122.68 1074.65 1185.95 1067.14 1248.03 1053.46C1267.04 1049.29 1285.92 1044.53 1304.68 1039.24C1303.84 1035.98 1303.01 1032.74 1302.2 1029.48C1259.9 1031.66 1217.41 1030.08 1175.39 1024.75C1168.78 1023.92 1161.43 1022.54 1157.62 1017.07C1152.54 1009.77 1156.66 999.85 1160.85 992C1181.82 952.74 1202.78 913.47 1223.75 874.21C1226.67 868.73 1231.09 861.76 1235.61 854.02C1238.59 831.07 1241.58 808.11 1244.57 785.16C1244.55 785.14 1244.52 785.12 1244.49 785.09C1213.04 792.79 1178.22 811 1156.1 834.63C1133.95 858.28 1117.22 886.5 1102.94 915.58C1088.75 944.49 1076.89 974.55 1067.4 1005.35C1064.75 1013.93 1062.3 1022.56 1060.02 1031.24C1058.27 1045.45 1057.72 1060.09 1059.05 1074.39Z" fill="url(#paint16_linear_26486_105961)"/>
<path d="M583.199 1155.17C662.489 1213.77 759.989 1249.45 858.519 1253.94H858.539C876.959 1254.79 895.419 1254.54 913.799 1253.15C937.129 1233.85 958.979 1213.1 979.689 1191.26C984.289 1186.41 988.829 1181.51 993.319 1176.56C1002.33 1166.63 1011.13 1156.49 1019.75 1146.17C1039.5 1122.55 1058.27 1098.02 1076.46 1072.95C1084.41 1062 1092.23 1050.95 1099.96 1039.83C1109.12 1026.7 1118.15 1013.46 1127.1 1000.17C1128.31 998.381 1129.52 996.601 1130.71 994.811C1147.27 970.181 1163.62 945.401 1180.06 920.791C1184.31 914.421 1188.58 908.051 1192.86 901.711C1208.7 878.201 1225.12 853.901 1235.83 827.891C1241.96 812.971 1246.22 797.501 1247.41 781.291C1248.78 762.621 1245.96 744.071 1241.85 725.721C1239.8 716.581 1237.44 707.471 1235.1 698.431C1230.52 680.701 1226.07 662.901 1221.95 645.031C1209.66 591.751 1200.37 537.811 1199.89 483.251C1160.38 459.511 1119.51 435.901 1078.88 414.131C1069.03 424.841 1068.96 433.351 1054.4 433.401C1026.93 462.421 995.859 488.011 962.179 509.521C931.039 529.431 897.659 545.861 862.859 558.331C853.259 561.771 843.549 564.911 833.749 567.741C812.919 573.751 791.139 578.631 771.999 588.351C766.299 591.231 760.839 594.561 755.699 598.471C728.949 618.811 715.379 651.671 703.689 683.181C703.569 683.491 703.459 683.821 703.329 684.131C692.979 712.091 683.149 740.301 673.829 768.721C665.349 794.651 657.299 820.761 649.719 847.021C641.559 875.211 633.949 903.581 626.879 932.071C624.659 941.001 622.499 949.941 620.389 958.891C616.169 976.801 612.169 994.751 608.379 1012.75C600.349 1050.96 593.309 1089.32 587.309 1127.76C585.879 1136.9 584.519 1146.04 583.209 1155.17H583.199Z" fill="url(#paint17_linear_26486_105961)"/>
<path d="M962.17 509.521C964.66 513.381 967.24 517.181 969.92 520.921C998.25 560.611 1036.47 593.251 1080.24 614.801C1124.01 636.351 1173.18 646.771 1221.93 645.031C1212.79 605.371 1205.3 565.341 1201.87 524.971C1200.68 511.101 1199.99 497.191 1199.87 483.251C1160.36 459.511 1119.49 435.901 1078.86 414.131C1069.01 424.841 1068.94 433.351 1054.38 433.401C1026.91 462.421 995.84 488.011 962.16 509.521H962.17Z" fill="url(#paint18_linear_26486_105961)"/>
<path style="mix-blend-mode:multiply" opacity="0.46" d="M962.169 509.521C964.659 513.381 967.239 517.181 969.919 520.921C1007.92 504.221 1049.72 496.161 1091.23 497.611C1129.47 498.951 1167.39 508.371 1201.86 524.971C1200.67 511.101 1199.98 497.191 1199.86 483.251C1160.35 459.511 1119.48 435.901 1078.85 414.131C1069 424.841 1068.93 433.351 1054.37 433.401C1026.9 462.421 995.829 488.011 962.149 509.521H962.169Z" fill="url(#paint19_linear_26486_105961)"/>
<path d="M1060.85 421.53C1061.68 422.45 1062.52 423.37 1063.38 424.28C1063.85 424.79 1064.31 425.28 1064.78 425.76C1066.65 427.76 1068.56 429.74 1070.49 431.68C1078.22 439.45 1086.39 446.79 1094.93 453.67C1112.66 467.96 1132 480.24 1152.47 490.24C1179.04 503.24 1207.48 512.4 1236.69 517.14C1251.46 519.53 1267.91 520.46 1280.05 511.73C1290.66 504.1 1295.49 490.86 1298.72 478.19C1311.55 428.06 1307.88 374.13 1289.73 325.73C1284.65 312.14 1278.41 298.98 1271.09 286.47C1265.08 276.2 1258.32 266.37 1250.86 257.07C1204.53 254.09 1151.04 267.63 1116.56 298.72C1082.09 329.8 1062.67 375.15 1060.85 421.53Z" fill="url(#paint20_linear_26486_105961)"/>
<path d="M1149.57 418.11C1153.65 423.29 1157.93 428.31 1162.41 433.15C1179.92 452.07 1200.5 468.26 1223.56 479.86C1225.95 481.06 1228.66 482.25 1231.23 481.49C1234.14 480.63 1235.79 477.62 1237.08 474.87C1239.65 469.44 1242.09 463.95 1244.43 458.41C1244.7 457.77 1244.98 457.12 1245.24 456.47C1247.43 451.19 1249.52 445.87 1251.51 440.5C1252.88 436.81 1252.41 434.7 1250.95 433.49C1248.27 431.3 1242.27 432.07 1237.98 431.57C1226.85 430.28 1215.77 428.46 1204.8 426.14C1185.63 422.06 1167.19 416 1148.65 409.72C1140.83 407.07 1148.12 416.26 1149.57 418.1V418.11Z" fill="url(#paint21_linear_26486_105961)"/>
<path style="mix-blend-mode:multiply" d="M1150.47 414.72C1157.35 419.55 1164.47 424.1 1171.78 428.25C1184.49 435.49 1197.72 441.89 1211.28 447.35C1218.11 450.11 1225.04 452.61 1232.07 454.79C1236.13 456.05 1240.26 457.35 1244.42 458.42C1244.69 457.78 1244.97 457.13 1245.23 456.48C1244.19 456.21 1243.15 455.93 1242.11 455.65C1238.2 454.57 1234.32 453.42 1230.45 452.18C1216.36 447.67 1202.44 442.49 1189.12 436.03C1175.88 429.61 1163.11 422.23 1150.82 414.13C1150.44 413.88 1150.11 414.48 1150.46 414.72H1150.47Z" fill="url(#paint22_linear_26486_105961)"/>
<path d="M1214.44 394.02C1214.4 393.42 1214.44 392.8 1214.48 392.2C1215.46 377.87 1216.44 363.54 1217.42 349.21C1217.85 343 1217.65 336.99 1217.05 330.75C1216.74 327.5 1216.84 322.65 1215.01 319.78C1214.13 318.4 1215.86 316.79 1217.21 317.58C1223.3 321.14 1228.59 327.18 1233.72 332.01C1239.41 337.37 1245.06 342.75 1250.8 348.06C1262.26 358.66 1274.08 368.96 1284.03 381.04C1286.28 383.77 1286.02 389.21 1281.69 389.91C1264.79 392.65 1247.65 394.53 1230.61 396.04C1227.88 396.28 1216.48 398.46 1215.03 396.13C1214.63 395.5 1214.48 394.77 1214.43 394.02H1214.44Z" fill="url(#paint23_linear_26486_105961)"/>
<path style="mix-blend-mode:multiply" opacity="0.46" d="M1063.38 424.28C1063.85 424.79 1064.31 425.28 1064.78 425.76C1066.8 427.87 1068.72 429.78 1070.49 431.68C1078.22 439.45 1086.39 446.79 1094.93 453.67C1112.66 467.96 1132 480.24 1152.47 490.24C1148.12 482.78 1144.15 475.13 1141.67 466.89C1138.28 455.62 1137.96 442.96 1143.31 432.49C1148.07 423.21 1156.7 416.61 1165.28 410.7C1186.47 396.16 1209.1 383.93 1230.85 370.29C1251.81 357.14 1270.99 341.76 1289.73 325.73C1284.65 312.14 1278.41 298.98 1271.09 286.47C1249.44 287.27 1228.91 298.13 1211.11 310.88C1191.62 324.85 1173.86 341.5 1152.57 352.54C1140.2 358.95 1126.9 363.34 1114.04 368.72C1101.18 374.1 1088.51 380.64 1078.7 390.55C1069.8 399.56 1063.48 411.73 1063.38 424.29V424.28Z" fill="url(#paint24_linear_26486_105961)"/>
<path d="M1032.04 377.19C1069.76 376.24 1107.78 367.15 1143.02 351.52C1153.3 346.96 1163.36 341.85 1173.09 336.21C1207.9 316.07 1238.74 289.29 1262.14 257.64C1258 252.27 1253.42 247.26 1248.48 242.63C1223.73 219.42 1189.86 205.91 1155.88 206.42C1140.72 206.64 1125.65 209.67 1111.49 215.08C1109.82 215.71 1108.15 216.38 1106.51 217.09C1084.63 226.44 1065.19 241.54 1051.21 260.81C1046.95 266.69 1043.21 272.92 1040.04 279.42C1025.28 309.46 1022.11 345.2 1032.04 377.2V377.19Z" fill="url(#paint25_linear_26486_105961)"/>
<path style="mix-blend-mode:multiply" d="M1068.44 336.99C1068.88 341.68 1068.56 349.29 1072.01 352.79C1073.24 354.03 1074.98 353.28 1075.56 351.85C1076.63 349.23 1075.68 346.89 1075.24 344.17C1074.7 340.99 1074.3 337.8 1073.98 334.59C1073.42 328.72 1073.2 322.83 1073.31 316.94C1073.54 304.84 1075.25 292.8 1078.27 281.09C1081.38 269.06 1085.79 257.42 1091.58 246.44C1094.33 241.23 1097.38 236.18 1100.7 231.32C1102.78 228.3 1105.14 225.46 1107.42 222.58C1107.61 229.92 1109.8 237.84 1111.12 244.51C1113.06 254.32 1115.37 264.06 1118.05 273.7C1120.81 283.62 1123.97 293.45 1127.51 303.13C1130.85 312.26 1134.08 322.19 1139.19 330.52C1140.76 333.08 1145.07 331.41 1144.12 328.44C1141.11 318.98 1136.39 309.98 1132.87 300.68C1129.34 291.32 1126.15 281.83 1123.34 272.23C1120.52 262.64 1118.07 252.94 1116 243.17C1114.96 238.28 1114.05 233.37 1113.13 228.47C1112.68 226.08 1112.33 223.65 1111.77 221.28C1142.9 242.41 1168.98 269.38 1188.06 302.05C1189.64 304.77 1193.87 302.3 1192.27 299.58C1173.79 268.22 1148.21 240.46 1117.82 220.18C1136.83 223.69 1155.29 229.7 1172.73 238.12C1193 247.9 1210.35 261.13 1228.07 274.8C1228.73 275.31 1229.42 274.26 1228.92 273.7C1213.87 257.19 1193.54 244.65 1173.56 235.03C1153.88 225.55 1132.95 218.87 1111.46 215.08C1109.79 215.71 1108.12 216.38 1106.48 217.09C1106.51 217.23 1106.56 217.38 1106.63 217.53C1098.63 225.27 1092.29 236.23 1087.16 245.74C1081.21 256.74 1076.5 268.47 1073.28 280.56C1070.04 292.69 1068.22 305.2 1067.82 317.75C1067.62 324.17 1067.81 330.61 1068.42 337L1068.44 336.99Z" fill="url(#paint26_linear_26486_105961)"/>
<path style="mix-blend-mode:multiply" opacity="0.33" d="M1032.04 377.19C1069.76 376.24 1107.78 367.15 1143.02 351.52C1152.95 346.28 1163.03 341.25 1173.09 336.21C1207.9 316.07 1238.74 289.29 1262.14 257.64C1258 252.27 1253.42 247.26 1248.48 242.63C1200.01 272.94 1149.2 301.16 1093.45 313.55C1083.33 315.79 1072.42 317.45 1062.87 313.42C1054.39 309.84 1048.17 302.15 1044.46 293.71C1042.44 289.12 1041.07 284.31 1040.04 279.41C1025.28 309.45 1022.11 345.19 1032.04 377.19Z" fill="url(#paint27_linear_26486_105961)"/>
<path d="M1014.13 377.99C1014.29 381.74 1015.18 385.54 1016.12 388.92C1019.85 402.23 1025.42 415.03 1032.58 426.85C1035.4 431.49 1038.45 438.12 1043.44 440.45C1049.18 443.11 1055.99 440.55 1061.47 438.44C1095.2 425.45 1128.01 409.64 1160.23 393.31C1202.27 372.02 1243.98 349.05 1282.2 321.37C1288.34 316.92 1299.4 311.11 1300.58 302.75C1300.7 301.86 1300.71 300.94 1300.6 300C1300.07 295.58 1297.57 291.66 1295.12 287.92C1289.12 278.76 1283.14 269.58 1277.14 260.41C1274.41 256.23 1271.47 251.87 1266.99 249.64C1261.27 246.81 1256.99 250 1252.11 252.61C1245.12 256.35 1238.03 259.94 1231 263.62C1216.15 271.4 1201.31 279.19 1186.45 286.97C1164.4 298.53 1142.07 307.94 1119.67 318.77C1100.6 327.98 1081.38 336.91 1062.05 345.57C1052.39 349.89 1018.84 362.08 1015.76 368.54C1015.62 368.83 1015.49 369.14 1015.36 369.44C1014.29 372.11 1013.99 375.02 1014.12 377.97L1014.13 377.99Z" fill="url(#paint28_linear_26486_105961)"/>
<path d="M1237.87 254.61C1240.77 255.95 1242.51 258.71 1244.54 261.13C1246.85 263.9 1249.13 266.7 1251.34 269.55C1255.71 275.18 1259.75 281.09 1263.63 287.06C1267.57 293.12 1271.31 299.32 1274.82 305.63C1277.9 311.17 1281.96 317.26 1282.8 323.64C1282.94 324.74 1281.38 325.21 1280.69 324.51C1276.1 319.84 1273.55 312.85 1270.35 307.19C1266.94 301.16 1263.33 295.24 1259.53 289.44C1255.73 283.64 1251.68 278.02 1247.59 272.43C1245.21 269.18 1242.81 265.96 1240.32 262.79C1238.57 260.57 1236.71 258.8 1235.96 256.06C1235.64 254.88 1236.88 254.14 1237.87 254.59V254.61Z" fill="url(#paint29_linear_26486_105961)"/>
<path d="M1203.54 276.13C1208.74 280.16 1212.27 287.9 1215.78 293.42C1219.66 299.51 1223.38 305.7 1226.97 311.97C1230.56 318.24 1234.04 324.57 1237.31 331.01C1239.91 336.12 1244.92 343.1 1244.52 349.01C1244.48 349.53 1243.88 350.03 1243.37 349.67C1238.5 346.2 1236.23 338.42 1233.5 333.24C1230.13 326.85 1226.68 320.51 1223.07 314.26C1219.46 308.01 1215.71 301.83 1211.86 295.72C1208.32 290.1 1202.7 284.09 1200.77 277.75C1200.24 276.01 1202.34 275.22 1203.53 276.15L1203.54 276.13Z" fill="url(#paint30_linear_26486_105961)"/>
<path d="M1162.63 297.32C1169.36 310.32 1176.27 323.23 1183.48 335.98C1187 342.21 1190.59 348.41 1194.25 354.56C1197.6 360.2 1202.71 366.41 1203.8 372.98C1203.91 373.66 1203.19 374.48 1202.5 373.98C1197.43 370.37 1194.42 363.78 1191.28 358.56C1187.42 352.15 1183.63 345.7 1179.91 339.2C1172.47 326.21 1165.36 313.04 1158.59 299.69C1157.23 297.01 1161.25 294.63 1162.64 297.32H1162.63Z" fill="url(#paint31_linear_26486_105961)"/>
<path d="M1110.03 321.93C1116.86 334.99 1124.26 347.75 1132.26 360.12C1136.26 366.3 1140.4 372.4 1144.61 378.44C1148.69 384.29 1154.06 390.13 1156.85 396.72C1157.09 397.3 1156.52 398.21 1155.85 397.72C1150.62 393.83 1146.77 387.82 1142.91 382.62C1138.33 376.45 1133.95 370.15 1129.75 363.72C1121.36 350.86 1113.64 337.59 1106.52 323.98C1105.31 321.67 1108.81 319.61 1110.03 321.93Z" fill="url(#paint32_linear_26486_105961)"/>
<path d="M1069.55 338.78C1073.78 344.57 1076.08 352.45 1079.09 358.96C1082.22 365.74 1085.51 372.43 1088.94 379.06C1092.38 385.68 1095.97 392.21 1099.73 398.66C1103.45 405.05 1107.86 411.28 1111.1 417.92C1111.8 419.37 1109.89 421.18 1108.71 419.76C1099.29 408.41 1092.32 394.09 1085.35 381.15C1081.82 374.59 1078.43 367.95 1075.18 361.24C1072.02 354.73 1067.52 347.31 1066.31 340.14C1065.97 338.13 1068.34 337.11 1069.56 338.77L1069.55 338.78Z" fill="url(#paint33_linear_26486_105961)"/>
<path d="M1033.91 356.771C1039.25 370.881 1045.18 384.751 1052.13 398.141C1055.5 404.641 1059.08 411.031 1062.72 417.381C1066.03 423.181 1070.37 428.821 1072.86 435.021C1073.21 435.881 1071.96 436.461 1071.38 435.881C1066.42 431.031 1062.9 424.211 1059.27 418.341C1055.26 411.861 1051.59 405.171 1048.09 398.391C1041.3 385.221 1035.13 371.751 1029.89 357.881C1028.94 355.361 1032.98 354.271 1033.93 356.771H1033.91Z" fill="url(#paint34_linear_26486_105961)"/>
<path d="M1225.77 300.47C1229.04 304.45 1233.05 307.82 1237.53 310.35C1240.47 312.01 1244.26 313.28 1247.08 311.43C1249.4 309.9 1249.99 306.92 1249.74 304.04C1249.68 303.2 1249.53 302.35 1249.33 301.55C1247.7 294.95 1243.2 287.92 1237.71 283.8C1232.5 279.88 1223.95 280.1 1221.68 287.16C1221.66 287.2 1221.64 287.25 1221.63 287.29C1220.22 291.88 1222.72 296.75 1225.77 300.46V300.47Z" fill="url(#paint35_linear_26486_105961)"/>
<path d="M1170.33 325.87C1170.33 326.35 1170.36 326.81 1170.42 327.27C1170.89 330.7 1172.81 333.75 1175.04 336.41C1177.78 339.69 1181.02 342.53 1184.62 344.82C1186.94 346.3 1189.59 347.58 1192.32 347.26C1195.22 346.91 1197.63 344.69 1198.75 341.97C1199.01 341.33 1199.22 340.67 1199.33 339.99C1201 330.3 1184.95 312.15 1174.26 318.27C1171.67 319.77 1170.33 322.84 1170.32 325.86L1170.33 325.87Z" fill="url(#paint36_linear_26486_105961)"/>
<path style="mix-blend-mode:lighten" opacity="0.73" d="M1210.13 279.18C1209.72 280.79 1209.1 282.4 1207.79 282.86C1204.06 284.17 1205.05 276.96 1205.1 275.24C1205.21 271.34 1205.59 267.44 1206.23 263.59C1207.05 258.67 1208.31 253.83 1209.98 249.13C1211.06 246.08 1212.72 238.78 1217.28 239.6C1220.26 240.14 1223.89 243.22 1223.39 246.53C1223.19 247.83 1222.54 249.01 1221.91 250.17C1218.92 255.68 1216.28 261.37 1214.02 267.21C1212.86 270.2 1211.8 273.22 1210.83 276.28C1210.59 277.03 1210.41 278.11 1210.13 279.18Z" fill="url(#paint37_linear_26486_105961)"/>
<path style="mix-blend-mode:lighten" opacity="0.73" d="M1125.94 295.37C1121.24 295.85 1116.31 296.69 1112.16 299.07C1110.06 300.28 1102.47 306.95 1107.66 308.96C1109.03 309.49 1110.57 309.06 1111.98 308.65C1129.13 303.63 1147.04 301.24 1164.91 301.58C1166.69 301.61 1171.58 301 1169.22 298.15C1168.66 297.47 1167.83 297.08 1167.01 296.75C1161.55 294.58 1154.87 294.53 1149.05 294.42C1141.34 294.27 1133.62 294.58 1125.94 295.36V295.37Z" fill="url(#paint38_linear_26486_105961)"/>
<path d="M964.681 505.51C1006.32 573.47 1077.28 619.65 1154.61 636.19C1166.15 638.66 1177.81 640.41 1189.57 641.41C1201.67 642.43 1213.78 641.93 1225.86 642.72C1228.52 642.89 1229.53 647.23 1226.53 647.7C1205.77 651 1183.09 648.29 1162.46 645.13C1140.86 641.82 1119.81 636.03 1099.55 627.81C1062.23 612.68 1028.5 589.65 1000.32 560.9C984.731 545.01 971.191 527.43 959.191 508.7C956.991 505.26 962.531 502.01 964.671 505.5L964.681 505.51Z" fill="url(#paint39_linear_26486_105961)"/>
<path style="mix-blend-mode:multiply" opacity="0.43" d="M834.181 969.409C850.921 992.029 875.811 1008.5 903.181 1015.08C942.571 1024.54 984.281 1013.82 1024.31 1020.11C1046.46 1023.6 1067.46 1032.2 1089.22 1037.62C1092.72 1038.49 1096.32 1039.26 1099.96 1039.82C1109.12 1026.69 1118.15 1013.45 1127.1 1000.16C1051.8 989.309 977.501 970.069 907.101 941.079C898.941 937.719 890.831 934.229 882.791 930.599C871.321 925.429 869.701 926.229 869.701 914.409C869.701 894.299 874.971 872.949 877.061 852.889C879.191 832.359 881.011 811.789 882.511 791.209C883.841 772.899 888.991 749.319 885.131 731.449C872.231 749.879 859.571 769.779 848.561 789.499C830.941 821.059 812.911 853.999 810.711 890.079C808.991 918.179 817.471 946.789 834.211 969.419L834.181 969.409Z" fill="url(#paint40_linear_26486_105961)"/>
<path d="M1091.13 1011.45C1119.04 1006.76 1146.95 1002.07 1174.86 997.38C1178 996.85 1181.27 996.33 1184.31 997.26C1187.35 998.19 1190.07 1001.03 1189.72 1004.19C1189.41 1007.03 1186.9 1009.05 1184.53 1010.63C1176.18 1016.21 1166.97 1020.5 1157.32 1023.28C1134.87 1029.77 1111.68 1022.57 1091.13 1011.44V1011.45Z" fill="url(#paint41_linear_26486_105961)"/>
<path d="M1039.79 1069.89C1039.95 1069.94 1040.1 1070 1040.27 1070.05C1049.13 1073.03 1058.04 1075.91 1066.98 1078.66C1107.37 1091.14 1148.47 1101.31 1190.03 1109.1C1193.71 1109.8 1198.59 1109.86 1200.08 1106.49C1200.11 1106.43 1200.13 1106.36 1200.16 1106.3C1201.38 1103.16 1198.61 1100 1195.98 1097.9C1189.09 1092.39 1182.07 1085.94 1173.92 1082.55C1190.61 1087.32 1207.99 1089.71 1225.35 1089.65C1228.07 1089.64 1231.5 1089.03 1232.15 1086.38C1232.75 1083.9 1230.32 1081.81 1228.16 1080.46C1216.22 1073.02 1203.93 1066 1191.01 1060.39C1203.71 1060.42 1216.4 1060.46 1229.09 1060.49C1231.35 1060.5 1233.68 1060.49 1235.79 1059.68C1237.9 1058.87 1239.78 1057.06 1239.99 1054.81C1240.17 1052.85 1239.06 1050.94 1237.54 1049.69C1236.02 1048.43 1234.15 1047.7 1232.3 1047.01C1222.47 1043.32 1212.54 1038.53 1202.42 1035.68C1210.71 1035.42 1218.96 1034.04 1226.88 1031.58C1230.06 1030.59 1233.71 1028.78 1233.99 1025.46C1234.18 1023.24 1232.63 1021.15 1230.68 1020.04C1228.74 1018.93 1226.46 1018.61 1224.25 1018.29C1182.91 1012.41 1141.15 1009.38 1099.38 1009.56C1095.43 1009.57 1091.49 1009.62 1087.55 1009.69C1083.59 1009.77 1079.63 1009.87 1075.68 1010C1073.38 1010.08 1071.06 1010.16 1068.76 1010.26C1067.02 1010.34 1063.13 1009.74 1060.06 1009.52C1059.61 1009.49 1059.19 1009.46 1058.78 1009.45C1057.68 1009.41 1056.8 1009.46 1056.29 1009.65C1056.2 1009.68 1056.12 1009.72 1056.04 1009.76C1054.71 1010.34 1053.89 1011.27 1053.3 1012.46C1052.49 1014.1 1052.12 1016.21 1051.47 1018.46C1051.4 1018.73 1051.32 1019.01 1051.25 1019.28C1050.61 1021.7 1049.11 1027.71 1047.39 1034.8C1043.74 1049.83 1039.13 1069.65 1039.8 1069.87L1039.79 1069.89Z" fill="url(#paint42_linear_26486_105961)"/>
<path style="mix-blend-mode:multiply" opacity="0.51" d="M1040.27 1070.06C1049.13 1073.04 1058.04 1075.92 1066.98 1078.67C1107.37 1091.15 1148.47 1101.32 1190.03 1109.11C1193.71 1109.81 1198.59 1109.87 1200.08 1106.5C1173.6 1103.51 1147.63 1094.19 1126.88 1077.57C1105.95 1060.81 1090.82 1036.22 1087.55 1009.71C1083.59 1009.79 1079.63 1009.89 1075.68 1010.02C1073.38 1010.1 1071.06 1010.18 1068.76 1010.28C1067.02 1010.36 1063.13 1009.76 1060.06 1009.54C1060.15 1011.05 1060.33 1012.58 1060.46 1014.07C1061.22 1023.26 1059.34 1032.67 1055.11 1040.87C1050.06 1050.63 1041.58 1059.23 1040.28 1070.06H1040.27Z" fill="url(#paint43_linear_26486_105961)"/>
<path style="mix-blend-mode:multiply" opacity="0.32" d="M771.989 588.35C834.799 654.23 905.189 713.38 984.969 757.03C1062.13 799.25 1148.22 825.18 1235.82 827.88C1241.95 812.96 1246.21 797.49 1247.4 781.28C1248.77 762.61 1245.95 744.06 1241.84 725.71C1169.95 731.9 1096.53 719.77 1030.56 690.57C964.769 661.46 906.569 615.45 862.859 558.33C853.259 561.77 843.549 564.91 833.749 567.74C812.919 573.75 791.139 578.63 771.999 588.35H771.989Z" fill="url(#paint44_linear_26486_105961)"/>
<path style="mix-blend-mode:multiply" opacity="0.32" d="M673.821 768.721C807.471 876.181 964.281 953.501 1130.7 994.801C1147.26 970.171 1163.61 945.391 1180.05 920.781C1005.62 880.461 840.871 798.731 703.321 684.131C692.971 712.091 683.141 740.301 673.821 768.721Z" fill="url(#paint45_linear_26486_105961)"/>
<path style="mix-blend-mode:multiply" opacity="0.32" d="M626.871 932.07C745.391 1024.29 877.011 1101.1 1019.74 1146.15C1039.49 1122.53 1058.26 1098 1076.45 1072.93C919.341 1031.89 771.951 953.93 649.711 847.01C641.551 875.2 633.941 903.57 626.871 932.06V932.07Z" fill="url(#paint46_linear_26486_105961)"/>
<path style="mix-blend-mode:multiply" opacity="0.32" d="M587.301 1127.76C668.671 1186.45 761.271 1229.49 858.521 1253.94H858.541C876.961 1254.79 895.421 1254.54 913.801 1253.15C937.131 1233.85 958.981 1213.1 979.691 1191.26C844.831 1159.96 717.011 1098.58 608.371 1012.76C600.341 1050.97 593.301 1089.33 587.301 1127.77V1127.76Z" fill="url(#paint47_linear_26486_105961)"/>
<path d="M673.821 768.721C673.821 768.721 673.801 768.741 673.801 768.761C673.801 768.741 673.821 768.711 673.821 768.711V768.731V768.721Z" fill="#F24336"/>
<path style="mix-blend-mode:multiply" opacity="0.69" d="M1175.41 988.181C1181.93 986.341 1188.19 982.021 1193.92 978.511C1199.8 974.911 1205.53 971.021 1211 966.811C1211.32 966.561 1211.65 966.301 1211.96 966.051C1210.44 967.971 1208.93 969.891 1207.42 971.821C1204.32 975.821 1200.65 979.851 1198.41 984.391C1197.64 985.951 1199.55 987.541 1200.86 986.271C1204.9 982.361 1207.98 977.241 1211.43 972.811C1214.57 968.801 1217.77 964.851 1221.01 960.931C1222.14 959.561 1223.26 958.201 1224.39 956.841C1223.66 956.941 1222.92 957.041 1222.18 957.141C1222.36 955.721 1222.56 954.291 1222.74 952.871C1218.34 956.731 1213.81 960.431 1209.06 963.911C1203.54 967.951 1197.92 971.811 1192.07 975.351C1186.31 978.851 1179.67 981.481 1174.26 985.451C1172.96 986.401 1173.68 988.671 1175.41 988.181Z" fill="url(#paint48_linear_26486_105961)"/>
<path d="M1039.79 1069.89C1048.81 1072.93 1057.87 1075.86 1066.98 1078.66C1068.35 1055.61 1071.25 1032.68 1075.67 1010.02C1073.37 1010.1 1071.05 1010.18 1068.75 1010.28C1066.76 1010.37 1061.93 1009.57 1058.77 1009.47C1057.86 1009.58 1056.94 1009.68 1056.03 1009.78C1055.39 1009.86 1054.76 1009.93 1054.12 1010C1053.84 1010.81 1053.56 1011.63 1053.29 1012.48C1052.66 1014.42 1052.05 1016.43 1051.46 1018.48C1051.39 1018.75 1051.31 1019.03 1051.24 1019.3C1049.84 1024.28 1048.58 1029.51 1047.38 1034.82C1044.69 1046.83 1042.38 1059.21 1039.79 1069.89Z" fill="url(#paint49_linear_26486_105961)"/>
<path d="M671.561 1048.25C695.971 1051.52 720.431 1055.03 744.951 1058.57C786.621 1064.58 828.431 1070.69 870.291 1075.88H870.301C898.571 1079.37 926.871 1082.46 955.151 1084.81C985.451 1087.34 1015.74 1089.02 1046 1089.49C1047.01 1086.52 1048 1083.53 1048.95 1080.53C1056.99 1055.32 1062.88 1029.26 1067.87 1003.31C1038.64 995.281 1009.3 987.201 979.931 979.121C957.641 972.981 935.341 966.841 913.061 960.711C900.981 957.381 888.911 954.061 876.851 950.741C865.411 947.591 853.991 944.461 842.581 941.311C841.741 941.091 840.901 940.851 840.051 940.621C839.501 940.471 838.961 940.331 838.421 940.171C838.501 939.801 838.571 939.441 838.661 939.071C840.761 929.311 843.441 919.711 846.501 910.221C854.631 884.931 865.361 860.391 874.651 835.421C875.851 832.211 877.011 829.011 878.151 825.781C885.331 805.381 891.251 783.991 893.611 762.531C895.671 743.881 895.041 725.171 890.251 707.021C879.941 667.951 845.531 632.951 805.121 633.461C770.551 633.901 740.371 659.711 724.571 690.481C721.821 695.851 719.411 701.351 717.321 706.961C716.501 709.121 715.741 711.301 715.011 713.511C706.791 738.231 703.681 764.771 700.731 790.821C700.491 792.931 700.251 795.041 700.011 797.151C696.811 825.401 693.611 853.651 690.411 881.911C686.821 913.631 683.231 945.351 679.621 977.071C676.931 1000.8 674.241 1024.52 671.551 1048.25H671.561Z" fill="url(#paint50_linear_26486_105961)"/>
<path style="mix-blend-mode:multiply" opacity="0.32" d="M700.02 797.15C755.34 820.77 814.57 833.27 874.66 835.43C875.86 832.22 877.02 829.02 878.16 825.79C885.34 805.39 891.26 784 893.62 762.54C831.65 758.15 770.55 741.38 715.02 713.51C706.8 738.23 703.69 764.77 700.74 790.82C700.5 792.93 700.26 795.04 700.02 797.15Z" fill="url(#paint51_linear_26486_105961)"/>
<path style="mix-blend-mode:multiply" opacity="0.32" d="M840.049 940.63C839.499 940.48 838.959 940.34 838.419 940.18C840.559 930.04 843.329 920.08 846.509 910.23C793.289 911.1 739.919 901.43 690.419 881.91C686.829 913.63 683.239 945.35 679.629 977.07C734.359 972.36 787.489 956.99 840.049 940.63Z" fill="url(#paint52_linear_26486_105961)"/>
<path style="mix-blend-mode:multiply" opacity="0.32" d="M744.949 1058.57C786.619 1064.58 828.429 1070.69 870.289 1075.88H870.299C891.699 1040.77 906.169 1001.25 913.049 960.71C900.969 957.38 888.899 954.06 876.839 950.74C838.579 993 793.949 1029.47 744.949 1058.56V1058.57Z" fill="url(#paint53_linear_26486_105961)"/>
<path style="mix-blend-mode:multiply" opacity="0.32" d="M955.149 1084.81C985.449 1087.34 1015.74 1089.02 1046 1089.49C1055.57 1061.52 1062.3 1032.35 1067.87 1003.31C1038.64 995.281 1009.3 987.201 979.929 979.121C973.679 1014.78 965.409 1050.09 955.159 1084.81H955.149Z" fill="url(#paint54_linear_26486_105961)"/>
<path style="mix-blend-mode:multiply" opacity="0.69" d="M770.85 966.29C785.78 964.34 800.47 958.64 814.46 953.22C817.61 952 820.73 950.73 823.84 949.42C819.73 952 815.62 954.57 811.41 956.93C800.69 962.94 789.4 968.03 779.01 974.57C778.2 975.08 778.72 976.42 779.67 976.13C791.55 972.64 802.7 966.46 813.41 960.36C823.33 954.71 833.71 948.96 842.36 941.41C842.43 941.38 842.51 941.35 842.58 941.31C841.74 941.09 840.9 940.85 840.05 940.62C839.5 940.47 838.96 940.33 838.42 940.17C838.5 939.8 838.57 939.44 838.66 939.07C837.24 939.81 835.85 940.52 834.5 941.14C827.33 944.42 820.06 947.46 812.7 950.3C798.86 955.64 784.38 959.23 770.65 964.77C769.93 965.06 769.93 966.38 770.85 966.27V966.29Z" fill="url(#paint55_linear_26486_105961)"/>
<path style="mix-blend-mode:multiply" opacity="0.33" d="M1014.13 377.99C1014.29 381.74 1015.18 385.54 1016.12 388.92C1019.85 402.23 1025.42 415.03 1032.58 426.85C1035.4 431.49 1038.45 438.12 1043.44 440.45C1049.18 443.11 1055.99 440.55 1061.47 438.44C1095.2 425.45 1128.01 409.64 1160.23 393.31C1202.27 372.02 1243.98 349.05 1282.2 321.37C1288.34 316.92 1299.4 311.11 1300.58 302.75C1300.31 302.92 1300.02 303.12 1299.74 303.32C1285.56 313.45 1272.58 324.83 1257.83 334.27C1228.13 353.26 1196.2 368.47 1163.81 382.25C1145.54 390.02 1127.09 397.33 1108.63 404.63C1092.65 410.94 1075.71 417.37 1058.73 414.73C1038.86 411.63 1023.04 396.33 1014.13 377.99Z" fill="url(#paint56_linear_26486_105961)"/>
<path style="mix-blend-mode:multiply" opacity="0.43" d="M671.559 1048.25C695.969 1051.52 720.429 1055.03 744.949 1058.57C786.619 1064.58 828.429 1070.69 870.289 1075.88H870.299C898.569 1079.37 926.869 1082.46 955.149 1084.81C985.449 1087.34 1015.74 1089.02 1046 1089.49C1047.01 1086.52 1048 1083.53 1048.95 1080.53C938.859 1063.01 829.879 1038.69 722.799 1007.74C708.389 909.181 707.629 806.811 717.329 706.971C716.509 709.131 715.749 711.311 715.019 713.521C706.799 738.241 703.689 764.781 700.739 790.831C700.499 792.941 700.259 795.051 700.019 797.161C696.819 825.411 693.619 853.661 690.419 881.921C686.829 913.641 683.239 945.361 679.629 977.081C676.939 1000.81 674.249 1024.53 671.559 1048.26V1048.25Z" fill="url(#paint57_linear_26486_105961)"/>
<path style="mix-blend-mode:multiply" opacity="0.43" d="M583.199 1155.17C662.489 1213.77 759.989 1249.45 858.519 1253.94H858.539C876.959 1254.79 895.419 1254.54 913.799 1253.15C937.129 1233.85 958.979 1213.1 979.689 1191.26C984.289 1186.41 988.829 1181.51 993.319 1176.56C975.039 1188.09 955.169 1197.06 934.549 1203.46C888.259 1217.81 838.719 1219.54 790.599 1213.76C750.249 1208.91 708.949 1198.05 678.139 1171.55C635.129 1134.58 620.409 1074.06 619.019 1017.36C618.539 997.89 619.339 978.39 620.379 958.9C616.159 976.81 612.159 994.76 608.369 1012.76C600.339 1050.97 593.299 1089.33 587.299 1127.77C585.869 1136.91 584.509 1146.05 583.199 1155.18V1155.17Z" fill="url(#paint58_linear_26486_105961)"/>
<path d="M1247.28 302.601C1247.19 302.681 1247.09 302.751 1246.98 302.821C1246.04 303.421 1244.8 303.271 1243.75 302.881C1240.98 301.831 1237.09 297.411 1238.59 294.251C1239.89 291.501 1243.85 292.141 1245.71 293.911C1247.57 295.681 1249.88 300.521 1247.28 302.611V302.601Z" fill="url(#paint59_linear_26486_105961)"/>
<path d="M1196.54 337.101C1196.45 337.181 1196.35 337.251 1196.24 337.321C1195.3 337.921 1194.06 337.771 1193.01 337.381C1190.24 336.331 1186.35 331.911 1187.85 328.751C1189.15 326.001 1193.11 326.641 1194.97 328.411C1196.83 330.181 1199.14 335.021 1196.54 337.111V337.101Z" fill="url(#paint60_linear_26486_105961)"/>
<path style="mix-blend-mode:multiply" d="M1221.68 287.16C1224.16 285.66 1227.31 285.16 1230.2 285.67C1234.41 286.41 1238.12 288.96 1241.19 291.93C1244.76 295.39 1247.67 299.52 1249.73 304.04C1249.67 303.2 1249.52 302.35 1249.32 301.55C1247.69 294.95 1243.19 287.92 1237.7 283.8C1232.49 279.88 1223.94 280.1 1221.67 287.16H1221.68Z" fill="url(#paint61_linear_26486_105961)"/>
<path style="mix-blend-mode:multiply" d="M1170.33 325.87C1172.08 323.66 1174.75 322.18 1177.58 321.99C1180.96 321.78 1184.23 323.31 1186.99 325.26C1192.66 329.27 1196.85 335.3 1198.76 341.97C1199.02 341.33 1199.23 340.67 1199.34 339.99C1201.01 330.3 1184.96 312.15 1174.27 318.27C1171.68 319.77 1170.34 322.84 1170.33 325.86V325.87Z" fill="url(#paint62_linear_26486_105961)"/>
<path style="mix-blend-mode:multiply" d="M669.118 1478.51C668.838 1480.67 668.548 1482.83 668.258 1484.98C671.978 1484.17 675.688 1483.32 679.378 1482.63C688.888 1480.87 698.698 1480.13 708.078 1477.81C709.348 1477.5 708.988 1475.69 707.788 1475.63C698.318 1475.14 688.568 1476.93 679.228 1478.44C676.708 1478.85 674.148 1479.24 671.578 1479.68C673.168 1478.91 674.758 1478.15 676.318 1477.46C685.428 1473.39 695.998 1469.98 704.178 1464.24C705.378 1463.4 704.648 1461.53 703.178 1461.87C693.908 1463.96 684.708 1469.22 676.038 1473.04C673.378 1474.21 670.728 1475.37 668.078 1476.55C668.428 1477.21 668.778 1477.86 669.128 1478.52L669.118 1478.51Z" fill="url(#paint63_linear_26486_105961)"/>
<path style="mix-blend-mode:multiply" d="M865.75 1454.65C866.99 1454 868.2 1453.33 869.38 1452.67C876 1451.37 882.61 1451.18 889.31 1450.53C890.45 1450.42 890.86 1448.68 889.59 1448.41C886.08 1447.64 882.25 1447.32 878.33 1447.4C882.2 1444.93 885.9 1442.23 889.35 1439.19C890.43 1438.25 889.04 1436.52 887.86 1437.24C882.02 1440.84 876.29 1444.59 870.23 1447.8C869.95 1447.95 869.64 1448.09 869.35 1448.25C868.23 1448.44 867.12 1448.66 866.02 1448.92C866.21 1449.06 866.4 1449.19 866.59 1449.34C866.31 1451.12 866.02 1452.88 865.75 1454.66V1454.65Z" fill="url(#paint64_linear_26486_105961)"/>
<defs>
<linearGradient id="paint0_linear_26486_105961" x1="906.021" y1="1627.03" x2="914.601" y2="1788.26" gradientUnits="userSpaceOnUse">
<stop stop-color="#454347"/>
<stop offset="1" stop-color="#626163"/>
</linearGradient>
<linearGradient id="paint1_linear_26486_105961" x1="709.92" y1="1612.9" x2="709.92" y2="1793.26" gradientUnits="userSpaceOnUse">
<stop stop-color="#454347"/>
<stop offset="1" stop-color="#626163"/>
</linearGradient>
<linearGradient id="paint2_linear_26486_105961" x1="970.269" y1="1701.95" x2="826.549" y2="1701.95" gradientUnits="userSpaceOnUse">
<stop stop-color="#454347"/>
<stop offset="1" stop-color="#626163"/>
</linearGradient>
<linearGradient id="paint3_linear_26486_105961" x1="751.24" y1="1711.48" x2="624.89" y2="1711.48" gradientUnits="userSpaceOnUse">
<stop stop-color="#454347"/>
<stop offset="1" stop-color="#626163"/>
</linearGradient>
<linearGradient id="paint4_linear_26486_105961" x1="1081.85" y1="1611.93" x2="744.488" y2="1300.26" gradientUnits="userSpaceOnUse">
<stop stop-color="#363636"/>
<stop offset="1" stop-color="#131313"/>
</linearGradient>
<linearGradient id="paint5_linear_26486_105961" x1="940.34" y1="1404.67" x2="738.31" y2="1404.67" gradientUnits="userSpaceOnUse">
<stop stop-color="#363636"/>
<stop offset="1" stop-color="#131313"/>
</linearGradient>
<linearGradient id="paint6_linear_26486_105961" x1="817.05" y1="1663.63" x2="616.69" y2="1247.5" gradientUnits="userSpaceOnUse">
<stop stop-color="#363636"/>
<stop offset="1" stop-color="#131313"/>
</linearGradient>
<linearGradient id="paint7_linear_26486_105961" x1="775.22" y1="1443.27" x2="552.59" y2="1374.77" gradientUnits="userSpaceOnUse">
<stop stop-color="#363636"/>
<stop offset="1" stop-color="#131313"/>
</linearGradient>
<linearGradient id="paint8_linear_26486_105961" x1="1398.53" y1="943.2" x2="1366.95" y2="921.04" gradientUnits="userSpaceOnUse">
<stop stop-color="#363636"/>
<stop offset="1" stop-color="#131313"/>
</linearGradient>
<linearGradient id="paint9_linear_26486_105961" x1="1411.21" y1="935.66" x2="1284" y2="935.66" gradientUnits="userSpaceOnUse">
<stop stop-color="#363636"/>
<stop offset="1" stop-color="#131313"/>
</linearGradient>
<linearGradient id="paint10_linear_26486_105961" x1="1380.44" y1="968.991" x2="1284" y2="968.991" gradientUnits="userSpaceOnUse">
<stop stop-color="#363636"/>
<stop offset="1" stop-color="#131313"/>
</linearGradient>
<linearGradient id="paint11_linear_26486_105961" x1="1308.32" y1="981.55" x2="1284" y2="981.55" gradientUnits="userSpaceOnUse">
<stop stop-color="#FFC493"/>
<stop offset="1" stop-color="#FFB073"/>
</linearGradient>
<linearGradient id="paint12_linear_26486_105961" x1="1066.95" y1="1027.27" x2="1279.3" y2="905.111" gradientUnits="userSpaceOnUse">
<stop stop-color="#454347"/>
<stop offset="1" stop-color="#626163"/>
</linearGradient>
<linearGradient id="paint13_linear_26486_105961" x1="1045.64" y1="1041.13" x2="1178.08" y2="918.969" gradientUnits="userSpaceOnUse">
<stop stop-color="#454347"/>
<stop offset="1" stop-color="#626163"/>
</linearGradient>
<linearGradient id="paint14_linear_26486_105961" x1="1060.48" y1="1057.22" x2="1192.91" y2="935.061" gradientUnits="userSpaceOnUse">
<stop stop-color="#454347"/>
<stop offset="1" stop-color="#626163"/>
</linearGradient>
<linearGradient id="paint15_linear_26486_105961" x1="1128.33" y1="1130.77" x2="1260.76" y2="1008.62" gradientUnits="userSpaceOnUse">
<stop stop-color="#454347"/>
<stop offset="1" stop-color="#626163"/>
</linearGradient>
<linearGradient id="paint16_linear_26486_105961" x1="1304.68" y1="929.74" x2="1058.31" y2="929.74" gradientUnits="userSpaceOnUse">
<stop stop-color="#454347"/>
<stop offset="1" stop-color="#626163"/>
</linearGradient>
<linearGradient id="paint17_linear_26486_105961" x1="965.5" y1="1239.14" x2="859.32" y2="636.341" gradientUnits="userSpaceOnUse">
<stop stop-color="#454347"/>
<stop offset="1" stop-color="#626163"/>
</linearGradient>
<linearGradient id="paint18_linear_26486_105961" x1="1143.24" y1="659.681" x2="1015.66" y2="324.891" gradientUnits="userSpaceOnUse">
<stop stop-color="#FFC493"/>
<stop offset="1" stop-color="#FFB073"/>
</linearGradient>
<linearGradient id="paint19_linear_26486_105961" x1="1201.87" y1="469.541" x2="962.169" y2="469.541" gradientUnits="userSpaceOnUse">
<stop stop-color="#FFC493"/>
<stop offset="1" stop-color="#FFB073"/>
</linearGradient>
<linearGradient id="paint20_linear_26486_105961" x1="1359.78" y1="480.71" x2="1174.83" y2="357.41" gradientUnits="userSpaceOnUse">
<stop stop-color="#FFC493"/>
<stop offset="1" stop-color="#FFB073"/>
</linearGradient>
<linearGradient id="paint21_linear_26486_105961" x1="1225.25" y1="477.95" x2="1191.76" y2="409.07" gradientUnits="userSpaceOnUse">
<stop stop-color="#FFF4EF"/>
<stop offset="1" stop-color="#F6DFD7"/>
</linearGradient>
<linearGradient id="paint22_linear_26486_105961" x1="1193.69" y1="487.76" x2="1197.88" y2="434.1" gradientUnits="userSpaceOnUse">
<stop stop-color="#FFF4EF"/>
<stop offset="1" stop-color="#F6DFD7"/>
</linearGradient>
<linearGradient id="paint23_linear_26486_105961" x1="1269.73" y1="387.88" x2="1184.68" y2="338.79" gradientUnits="userSpaceOnUse">
<stop stop-color="#FF9762"/>
<stop offset="1" stop-color="#FFB073"/>
</linearGradient>
<linearGradient id="paint24_linear_26486_105961" x1="1289.73" y1="388.36" x2="1063.37" y2="388.36" gradientUnits="userSpaceOnUse">
<stop stop-color="#FFC493"/>
<stop offset="1" stop-color="#FFB073"/>
</linearGradient>
<linearGradient id="paint25_linear_26486_105961" x1="1111.08" y1="216.73" x2="1144.76" y2="310.91" gradientUnits="userSpaceOnUse">
<stop stop-color="#363636"/>
<stop offset="1" stop-color="#131313"/>
</linearGradient>
<linearGradient id="paint26_linear_26486_105961" x1="1139.54" y1="226.4" x2="1151.52" y2="330.86" gradientUnits="userSpaceOnUse">
<stop stop-color="#363636"/>
<stop offset="1" stop-color="#131313"/>
</linearGradient>
<linearGradient id="paint27_linear_26486_105961" x1="1262.13" y1="309.9" x2="1026.3" y2="309.9" gradientUnits="userSpaceOnUse">
<stop stop-color="#363636"/>
<stop offset="1" stop-color="#131313"/>
</linearGradient>
<linearGradient id="paint28_linear_26486_105961" x1="1132.02" y1="301.06" x2="1179.22" y2="384.39" gradientUnits="userSpaceOnUse">
<stop stop-color="#363636"/>
<stop offset="1" stop-color="#131313"/>
</linearGradient>
<linearGradient id="paint29_linear_26486_105961" x1="1232.31" y1="232.63" x2="1291.1" y2="354.21" gradientUnits="userSpaceOnUse">
<stop stop-color="#161616"/>
<stop offset="1"/>
</linearGradient>
<linearGradient id="paint30_linear_26486_105961" x1="1193.54" y1="251.37" x2="1252.34" y2="372.96" gradientUnits="userSpaceOnUse">
<stop stop-color="#161616"/>
<stop offset="1"/>
</linearGradient>
<linearGradient id="paint31_linear_26486_105961" x1="1150.6" y1="272.14" x2="1209.39" y2="393.73" gradientUnits="userSpaceOnUse">
<stop stop-color="#161616"/>
<stop offset="1"/>
</linearGradient>
<linearGradient id="paint32_linear_26486_105961" x1="1100.71" y1="296.26" x2="1159.51" y2="417.85" gradientUnits="userSpaceOnUse">
<stop stop-color="#161616"/>
<stop offset="1"/>
</linearGradient>
<linearGradient id="paint33_linear_26486_105961" x1="1057.92" y1="316.96" x2="1116.71" y2="438.54" gradientUnits="userSpaceOnUse">
<stop stop-color="#161616"/>
<stop offset="1"/>
</linearGradient>
<linearGradient id="paint34_linear_26486_105961" x1="1020.86" y1="334.881" x2="1079.66" y2="456.461" gradientUnits="userSpaceOnUse">
<stop stop-color="#161616"/>
<stop offset="1"/>
</linearGradient>
<linearGradient id="paint35_linear_26486_105961" x1="1251.86" y1="303.1" x2="1220.86" y2="289.71" gradientUnits="userSpaceOnUse">
<stop stop-color="#FFF4EF"/>
<stop offset="1" stop-color="#F6DFD7"/>
</linearGradient>
<linearGradient id="paint36_linear_26486_105961" x1="1201.26" y1="340.1" x2="1173.43" y2="326.01" gradientUnits="userSpaceOnUse">
<stop stop-color="#FFF4EF"/>
<stop offset="1" stop-color="#F6DFD7"/>
</linearGradient>
<linearGradient id="paint37_linear_26486_105961" x1="1216.51" y1="262.31" x2="1206.24" y2="260.02" gradientUnits="userSpaceOnUse">
<stop stop-color="#FFF4EF"/>
<stop offset="1" stop-color="#F6DFD7"/>
</linearGradient>
<linearGradient id="paint38_linear_26486_105961" x1="1138.13" y1="306.22" x2="1137.37" y2="297.84" gradientUnits="userSpaceOnUse">
<stop stop-color="#FFF4EF"/>
<stop offset="1" stop-color="#F6DFD7"/>
</linearGradient>
<linearGradient id="paint39_linear_26486_105961" x1="1113.48" y1="526.85" x2="1056.39" y2="668.42" gradientUnits="userSpaceOnUse">
<stop stop-color="#363636"/>
<stop offset="1" stop-color="#131313"/>
</linearGradient>
<linearGradient id="paint40_linear_26486_105961" x1="1127.08" y1="885.629" x2="810.461" y2="885.629" gradientUnits="userSpaceOnUse">
<stop stop-color="#454347"/>
<stop offset="1" stop-color="#626163"/>
</linearGradient>
<linearGradient id="paint41_linear_26486_105961" x1="1131.6" y1="992.89" x2="1151.01" y2="1023.34" gradientUnits="userSpaceOnUse">
<stop stop-color="#363636"/>
<stop offset="1" stop-color="#131313"/>
</linearGradient>
<linearGradient id="paint42_linear_26486_105961" x1="1126.94" y1="982.56" x2="1145.77" y2="1098.16" gradientUnits="userSpaceOnUse">
<stop stop-color="#363636"/>
<stop offset="1" stop-color="#131313"/>
</linearGradient>
<linearGradient id="paint43_linear_26486_105961" x1="1139" y1="1118.23" x2="1082.49" y2="1028.33" gradientUnits="userSpaceOnUse">
<stop stop-color="#363636"/>
<stop offset="1" stop-color="#131313"/>
</linearGradient>
<linearGradient id="paint44_linear_26486_105961" x1="1247.74" y1="693.11" x2="771.979" y2="693.11" gradientUnits="userSpaceOnUse">
<stop stop-color="#454347"/>
<stop offset="1" stop-color="#626163"/>
</linearGradient>
<linearGradient id="paint45_linear_26486_105961" x1="1180.05" y1="839.461" x2="673.821" y2="839.461" gradientUnits="userSpaceOnUse">
<stop stop-color="#454347"/>
<stop offset="1" stop-color="#626163"/>
</linearGradient>
<linearGradient id="paint46_linear_26486_105961" x1="1076.45" y1="996.59" x2="626.861" y2="996.59" gradientUnits="userSpaceOnUse">
<stop stop-color="#454347"/>
<stop offset="1" stop-color="#626163"/>
</linearGradient>
<linearGradient id="paint47_linear_26486_105961" x1="979.681" y1="1133.59" x2="587.301" y2="1133.59" gradientUnits="userSpaceOnUse">
<stop stop-color="#454347"/>
<stop offset="1" stop-color="#626163"/>
</linearGradient>
<linearGradient id="paint48_linear_26486_105961" x1="1224.39" y1="970.561" x2="1173.6" y2="970.561" gradientUnits="userSpaceOnUse">
<stop stop-color="#454347"/>
<stop offset="1" stop-color="#626163"/>
</linearGradient>
<linearGradient id="paint49_linear_26486_105961" x1="1075.66" y1="1044.07" x2="1039.79" y2="1044.07" gradientUnits="userSpaceOnUse">
<stop stop-color="#FFC493"/>
<stop offset="1" stop-color="#FFB073"/>
</linearGradient>
<linearGradient id="paint50_linear_26486_105961" x1="957.101" y1="1194.74" x2="725.911" y2="747.781" gradientUnits="userSpaceOnUse">
<stop stop-color="#454347"/>
<stop offset="1" stop-color="#626163"/>
</linearGradient>
<linearGradient id="paint51_linear_26486_105961" x1="927.67" y1="737.16" x2="622.85" y2="822.78" gradientUnits="userSpaceOnUse">
<stop stop-color="#454347"/>
<stop offset="1" stop-color="#626163"/>
</linearGradient>
<linearGradient id="paint52_linear_26486_105961" x1="961.229" y1="856.64" x2="656.409" y2="942.27" gradientUnits="userSpaceOnUse">
<stop stop-color="#454347"/>
<stop offset="1" stop-color="#626163"/>
</linearGradient>
<linearGradient id="paint53_linear_26486_105961" x1="995.609" y1="979.03" x2="690.789" y2="1064.66" gradientUnits="userSpaceOnUse">
<stop stop-color="#454347"/>
<stop offset="1" stop-color="#626163"/>
</linearGradient>
<linearGradient id="paint54_linear_26486_105961" x1="1011.27" y1="1034.78" x2="706.449" y2="1120.4" gradientUnits="userSpaceOnUse">
<stop stop-color="#454347"/>
<stop offset="1" stop-color="#626163"/>
</linearGradient>
<linearGradient id="paint55_linear_26486_105961" x1="842.57" y1="957.63" x2="770.13" y2="957.63" gradientUnits="userSpaceOnUse">
<stop stop-color="#454347"/>
<stop offset="1" stop-color="#626163"/>
</linearGradient>
<linearGradient id="paint56_linear_26486_105961" x1="1300.58" y1="372.17" x2="1014.13" y2="372.17" gradientUnits="userSpaceOnUse">
<stop stop-color="#363636"/>
<stop offset="1" stop-color="#131313"/>
</linearGradient>
<linearGradient id="paint57_linear_26486_105961" x1="1048.94" y1="898.231" x2="671.559" y2="898.231" gradientUnits="userSpaceOnUse">
<stop stop-color="#454347"/>
<stop offset="1" stop-color="#626163"/>
</linearGradient>
<linearGradient id="paint58_linear_26486_105961" x1="993.309" y1="1106.66" x2="583.199" y2="1106.66" gradientUnits="userSpaceOnUse">
<stop stop-color="#454347"/>
<stop offset="1" stop-color="#626163"/>
</linearGradient>
<linearGradient id="paint59_linear_26486_105961" x1="1253.3" y1="300.991" x2="1238.73" y2="296.131" gradientUnits="userSpaceOnUse">
<stop stop-color="#363636"/>
<stop offset="1" stop-color="#131313"/>
</linearGradient>
<linearGradient id="paint60_linear_26486_105961" x1="1202.56" y1="335.491" x2="1187.99" y2="330.631" gradientUnits="userSpaceOnUse">
<stop stop-color="#363636"/>
<stop offset="1" stop-color="#131313"/>
</linearGradient>
<linearGradient id="paint61_linear_26486_105961" x1="1234.87" y1="296.96" x2="1240.29" y2="286.97" gradientUnits="userSpaceOnUse">
<stop stop-color="#FFF4EF"/>
<stop offset="1" stop-color="#D7C2BB"/>
</linearGradient>
<linearGradient id="paint62_linear_26486_105961" x1="1199.45" y1="329.51" x2="1170.32" y2="329.51" gradientUnits="userSpaceOnUse">
<stop stop-color="#FFF4EF"/>
<stop offset="1" stop-color="#D7C2BB"/>
</linearGradient>
<linearGradient id="paint63_linear_26486_105961" x1="708.878" y1="1473.4" x2="668.078" y2="1473.4" gradientUnits="userSpaceOnUse">
<stop stop-color="#363636"/>
<stop offset="1"/>
</linearGradient>
<linearGradient id="paint64_linear_26486_105961" x1="890.38" y1="1445.86" x2="865.75" y2="1445.86" gradientUnits="userSpaceOnUse">
<stop stop-color="#363636"/>
<stop offset="1"/>
</linearGradient>
</defs>
</svg>
