<svg width="480" height="480" viewBox="0 0 480 480" fill="none" xmlns="http://www.w3.org/2000/svg">
<g clip-path="url(#clip0_26486_106032)">
<rect width="480" height="480" rx="8" fill="white"/>
<path d="M-309.8 990.17C-230.51 1048.77 -133.01 1084.45 -34.4798 1088.94H-34.4598C-16.0398 1089.79 2.42017 1089.54 20.8002 1088.15C44.1302 1068.85 65.9802 1048.1 86.6902 1026.26C91.2902 1021.41 95.8302 1016.51 100.32 1011.56C109.33 1001.63 118.13 991.49 126.75 981.17C146.5 957.55 165.27 933.02 183.46 907.95C191.41 897 199.23 885.95 206.96 874.83C216.12 861.7 225.15 848.46 234.1 835.17C235.31 833.38 236.52 831.6 237.71 829.81C254.27 805.18 270.62 780.4 287.06 755.79C291.31 749.42 295.58 743.05 299.86 736.71C315.7 713.2 332.12 688.9 342.83 662.89C348.96 647.97 353.22 632.5 354.41 616.29C355.78 597.62 352.96 579.07 348.85 560.72C346.8 551.58 344.44 542.47 342.1 533.43C337.52 515.7 333.07 497.9 328.95 480.03C316.66 426.75 307.37 372.81 306.89 318.25C267.38 294.51 226.51 270.9 185.88 249.13C176.03 259.84 175.96 268.35 161.4 268.4C133.93 297.42 102.86 323.01 69.1802 344.52C38.0402 364.43 4.66016 380.86 -30.1398 393.33C-39.7398 396.77 -49.4498 399.91 -59.2498 402.74C-80.0798 408.75 -101.86 413.63 -121 423.35C-126.7 426.23 -132.16 429.56 -137.3 433.47C-164.05 453.81 -177.62 486.67 -189.31 518.18C-189.43 518.49 -189.54 518.82 -189.67 519.13C-200.02 547.09 -209.85 575.3 -219.17 603.72C-227.65 629.65 -235.7 655.76 -243.28 682.02C-251.44 710.21 -259.05 738.58 -266.12 767.07C-268.34 776 -270.5 784.94 -272.61 793.89C-276.83 811.8 -280.83 829.75 -284.62 847.75C-292.65 885.96 -299.69 924.32 -305.69 962.76C-307.12 971.9 -308.48 981.04 -309.79 990.17H-309.8Z" fill="url(#paint0_linear_26486_106032)"/>
<path d="M69.1702 344.52C71.6602 348.38 74.2402 352.18 76.9202 355.92C105.25 395.61 143.47 428.25 187.24 449.8C231.01 471.35 280.18 481.77 328.93 480.03C319.79 440.37 312.3 400.34 308.87 359.97C307.68 346.1 306.99 332.19 306.87 318.25C267.36 294.51 226.49 270.9 185.86 249.13C176.01 259.84 175.94 268.35 161.38 268.4C133.91 297.42 102.84 323.01 69.1602 344.52H69.1702Z" fill="url(#paint1_linear_26486_106032)"/>
<path style="mix-blend-mode:multiply" opacity="0.46" d="M69.1694 344.52C71.6594 348.38 74.2394 352.18 76.9194 355.92C114.919 339.22 156.719 331.16 198.229 332.61C236.469 333.95 274.389 343.37 308.859 359.97C307.669 346.1 306.979 332.19 306.859 318.25C267.349 294.51 226.479 270.9 185.849 249.13C175.999 259.84 175.929 268.35 161.369 268.4C133.899 297.42 102.829 323.01 69.1494 344.52H69.1694Z" fill="url(#paint2_linear_26486_106032)"/>
<path d="M167.85 256.53C168.68 257.45 169.52 258.37 170.38 259.28C170.85 259.79 171.31 260.28 171.78 260.76C173.65 262.76 175.56 264.74 177.49 266.68C185.22 274.45 193.39 281.79 201.93 288.67C219.66 302.96 239 315.24 259.47 325.24C286.04 338.24 314.48 347.4 343.69 352.14C358.46 354.53 374.91 355.46 387.05 346.73C397.66 339.1 402.49 325.86 405.72 313.19C418.55 263.06 414.88 209.13 396.73 160.73C391.65 147.14 385.41 133.98 378.09 121.47C372.08 111.2 365.32 101.37 357.86 92.0704C311.53 89.0904 258.04 102.63 223.56 133.72C189.09 164.8 169.67 210.15 167.85 256.53Z" fill="url(#paint3_linear_26486_106032)"/>
<path d="M256.57 253.11C260.65 258.29 264.93 263.31 269.41 268.15C286.92 287.07 307.5 303.26 330.56 314.86C332.95 316.06 335.66 317.25 338.23 316.49C341.14 315.63 342.79 312.62 344.08 309.87C346.65 304.44 349.09 298.95 351.43 293.41C351.7 292.77 351.98 292.12 352.24 291.47C354.43 286.19 356.52 280.87 358.51 275.5C359.88 271.81 359.41 269.7 357.95 268.49C355.27 266.3 349.27 267.07 344.98 266.57C333.85 265.28 322.77 263.46 311.8 261.14C292.63 257.06 274.19 251 255.65 244.72C247.83 242.07 255.12 251.26 256.57 253.1V253.11Z" fill="url(#paint4_linear_26486_106032)"/>
<path style="mix-blend-mode:multiply" d="M257.47 249.72C264.35 254.55 271.47 259.1 278.78 263.25C291.49 270.49 304.72 276.89 318.28 282.35C325.11 285.11 332.04 287.61 339.07 289.79C343.13 291.05 347.26 292.35 351.42 293.42C351.69 292.78 351.97 292.13 352.23 291.48C351.19 291.21 350.15 290.93 349.11 290.65C345.2 289.57 341.32 288.42 337.45 287.18C323.36 282.67 309.44 277.49 296.12 271.03C282.88 264.61 270.11 257.23 257.82 249.13C257.44 248.88 257.11 249.48 257.46 249.72H257.47Z" fill="url(#paint5_linear_26486_106032)"/>
<path d="M321.439 229.02C321.399 228.42 321.439 227.8 321.479 227.2C322.459 212.87 323.44 198.54 324.42 184.21C324.85 178 324.65 171.99 324.05 165.75C323.74 162.5 323.839 157.65 322.009 154.78C321.129 153.4 322.859 151.79 324.209 152.58C330.299 156.14 335.589 162.18 340.719 167.01C346.409 172.37 352.06 177.75 357.8 183.06C369.26 193.66 381.08 203.96 391.03 216.04C393.28 218.77 393.019 224.21 388.689 224.91C371.789 227.65 354.649 229.53 337.609 231.04C334.879 231.28 323.479 233.46 322.029 231.13C321.629 230.5 321.48 229.77 321.43 229.02H321.439Z" fill="url(#paint6_linear_26486_106032)"/>
<path style="mix-blend-mode:multiply" opacity="0.46" d="M170.38 259.28C170.85 259.79 171.31 260.28 171.78 260.76C173.8 262.87 175.72 264.78 177.49 266.68C185.22 274.45 193.39 281.79 201.93 288.67C219.66 302.96 239 315.24 259.47 325.24C255.12 317.78 251.15 310.13 248.67 301.89C245.28 290.62 244.96 277.96 250.31 267.49C255.07 258.21 263.7 251.61 272.28 245.7C293.47 231.16 316.1 218.93 337.85 205.29C358.81 192.14 377.99 176.76 396.73 160.73C391.65 147.14 385.41 133.98 378.09 121.47C356.44 122.27 335.91 133.13 318.11 145.88C298.62 159.85 280.86 176.5 259.57 187.54C247.2 193.95 233.9 198.34 221.04 203.72C208.18 209.1 195.51 215.64 185.7 225.55C176.8 234.56 170.48 246.73 170.38 259.29V259.28Z" fill="url(#paint7_linear_26486_106032)"/>
<path d="M139.04 212.19C176.76 211.24 214.78 202.15 250.02 186.52C260.3 181.96 270.36 176.85 280.09 171.21C314.9 151.07 345.74 124.29 369.14 92.6402C365 87.2702 360.42 82.2602 355.48 77.6302C330.73 54.4202 296.86 40.9102 262.88 41.4202C247.72 41.6402 232.65 44.6702 218.49 50.0802C216.82 50.7102 215.15 51.3802 213.51 52.0902C191.63 61.4402 172.19 76.5402 158.21 95.8102C153.95 101.69 150.21 107.92 147.04 114.42C132.28 144.46 129.11 180.2 139.04 212.2V212.19Z" fill="url(#paint8_linear_26486_106032)"/>
<path style="mix-blend-mode:multiply" d="M175.44 171.99C175.88 176.68 175.56 184.29 179.01 187.79C180.24 189.03 181.98 188.28 182.56 186.85C183.63 184.23 182.68 181.89 182.24 179.17C181.7 175.99 181.3 172.8 180.98 169.59C180.42 163.72 180.2 157.83 180.31 151.94C180.54 139.84 182.25 127.8 185.27 116.09C188.38 104.06 192.79 92.4201 198.58 81.4401C201.33 76.2301 204.38 71.1801 207.7 66.3201C209.78 63.3001 212.14 60.4601 214.42 57.5801C214.61 64.9201 216.8 72.8401 218.12 79.5101C220.06 89.3201 222.37 99.0601 225.05 108.7C227.81 118.62 230.97 128.45 234.51 138.13C237.85 147.26 241.08 157.19 246.19 165.52C247.76 168.08 252.07 166.41 251.12 163.44C248.11 153.98 243.39 144.98 239.87 135.68C236.34 126.32 233.15 116.83 230.34 107.23C227.52 97.6401 225.07 87.9401 223 78.1701C221.96 73.2801 221.05 68.3701 220.13 63.4701C219.68 61.0801 219.33 58.6501 218.77 56.2801C249.9 77.4101 275.98 104.38 295.06 137.05C296.64 139.77 300.87 137.3 299.27 134.58C280.79 103.22 255.21 75.4601 224.82 55.1801C243.83 58.6901 262.29 64.7001 279.73 73.1201C300 82.9001 317.35 96.1301 335.07 109.8C335.73 110.31 336.42 109.26 335.92 108.7C320.87 92.1901 300.54 79.6501 280.56 70.0301C260.88 60.5501 239.95 53.8701 218.46 50.0801C216.79 50.7101 215.12 51.3801 213.48 52.0901C213.51 52.2301 213.56 52.3801 213.63 52.5301C205.63 60.2701 199.29 71.2301 194.16 80.7401C188.21 91.7401 183.5 103.47 180.28 115.56C177.04 127.69 175.22 140.2 174.82 152.75C174.62 159.17 174.81 165.61 175.42 172L175.44 171.99Z" fill="url(#paint9_linear_26486_106032)"/>
<path style="mix-blend-mode:multiply" opacity="0.33" d="M139.04 212.19C176.76 211.24 214.78 202.15 250.02 186.52C259.95 181.28 270.03 176.25 280.09 171.21C314.9 151.07 345.74 124.29 369.14 92.6399C365 87.2699 360.42 82.2599 355.48 77.6299C307.01 107.94 256.2 136.16 200.45 148.55C190.33 150.79 179.42 152.45 169.87 148.42C161.39 144.84 155.17 137.15 151.46 128.71C149.44 124.12 148.07 119.31 147.04 114.41C132.28 144.45 129.11 180.19 139.04 212.19Z" fill="url(#paint10_linear_26486_106032)"/>
<path d="M121.13 212.99C121.29 216.74 122.18 220.54 123.12 223.92C126.85 237.23 132.42 250.03 139.58 261.85C142.4 266.49 145.45 273.12 150.44 275.45C156.18 278.11 162.99 275.55 168.47 273.44C202.2 260.45 235.01 244.64 267.23 228.31C309.27 207.02 350.98 184.05 389.2 156.37C395.34 151.92 406.4 146.11 407.58 137.75C407.7 136.86 407.71 135.94 407.6 135C407.07 130.58 404.57 126.66 402.12 122.92C396.12 113.76 390.14 104.58 384.14 95.4105C381.41 91.2305 378.47 86.8705 373.99 84.6405C368.27 81.8105 363.99 85.0005 359.11 87.6105C352.12 91.3505 345.03 94.9405 338 98.6205C323.15 106.4 308.31 114.19 293.45 121.97C271.4 133.53 249.07 142.94 226.67 153.77C207.6 162.98 188.38 171.91 169.05 180.57C159.39 184.89 125.84 197.08 122.76 203.54C122.62 203.83 122.49 204.14 122.36 204.44C121.29 207.11 120.99 210.02 121.12 212.97L121.13 212.99Z" fill="url(#paint11_linear_26486_106032)"/>
<path d="M344.87 89.6102C347.77 90.9502 349.51 93.7103 351.54 96.1303C353.85 98.9003 356.13 101.7 358.34 104.55C362.71 110.18 366.75 116.09 370.63 122.06C374.57 128.12 378.31 134.32 381.82 140.63C384.9 146.17 388.96 152.26 389.8 158.64C389.94 159.74 388.38 160.21 387.69 159.51C383.1 154.84 380.55 147.85 377.35 142.19C373.94 136.16 370.33 130.24 366.53 124.44C362.73 118.64 358.68 113.02 354.59 107.43C352.21 104.18 349.81 100.96 347.32 97.7903C345.57 95.5703 343.71 93.8002 342.96 91.0602C342.64 89.8802 343.88 89.1402 344.87 89.5902V89.6102Z" fill="url(#paint12_linear_26486_106032)"/>
<path d="M310.54 111.13C315.74 115.16 319.27 122.9 322.78 128.42C326.66 134.51 330.38 140.7 333.97 146.97C337.56 153.24 341.04 159.57 344.31 166.01C346.91 171.12 351.92 178.1 351.52 184.01C351.48 184.53 350.88 185.03 350.37 184.67C345.5 181.2 343.23 173.42 340.5 168.24C337.13 161.85 333.68 155.51 330.07 149.26C326.46 143.01 322.71 136.83 318.86 130.72C315.32 125.1 309.7 119.09 307.77 112.75C307.24 111.01 309.34 110.22 310.53 111.15L310.54 111.13Z" fill="url(#paint13_linear_26486_106032)"/>
<path d="M269.629 132.32C276.359 145.32 283.269 158.23 290.479 170.98C293.999 177.21 297.589 183.41 301.249 189.56C304.599 195.2 309.709 201.41 310.799 207.98C310.909 208.66 310.189 209.48 309.499 208.98C304.429 205.37 301.419 198.78 298.279 193.56C294.419 187.15 290.629 180.7 286.909 174.2C279.469 161.21 272.359 148.04 265.589 134.69C264.229 132.01 268.249 129.63 269.639 132.32H269.629Z" fill="url(#paint14_linear_26486_106032)"/>
<path d="M217.03 156.93C223.86 169.99 231.26 182.75 239.26 195.12C243.26 201.3 247.4 207.4 251.61 213.44C255.69 219.29 261.06 225.13 263.85 231.72C264.09 232.3 263.52 233.21 262.85 232.72C257.62 228.83 253.77 222.82 249.91 217.62C245.33 211.45 240.95 205.15 236.75 198.72C228.36 185.86 220.64 172.59 213.52 158.98C212.31 156.67 215.81 154.61 217.03 156.93Z" fill="url(#paint15_linear_26486_106032)"/>
<path d="M176.549 173.78C180.779 179.57 183.079 187.45 186.089 193.96C189.219 200.74 192.509 207.43 195.939 214.06C199.379 220.68 202.969 227.21 206.729 233.66C210.449 240.05 214.859 246.28 218.099 252.92C218.799 254.37 216.889 256.18 215.709 254.76C206.289 243.41 199.319 229.09 192.349 216.15C188.819 209.59 185.429 202.95 182.179 196.24C179.019 189.73 174.519 182.31 173.309 175.14C172.969 173.13 175.339 172.11 176.559 173.77L176.549 173.78Z" fill="url(#paint16_linear_26486_106032)"/>
<path d="M140.91 191.771C146.25 205.881 152.18 219.751 159.13 233.141C162.5 239.641 166.08 246.031 169.72 252.381C173.03 258.181 177.37 263.821 179.86 270.021C180.21 270.881 178.96 271.461 178.38 270.881C173.42 266.031 169.9 259.211 166.27 253.341C162.26 246.861 158.59 240.171 155.09 233.391C148.3 220.221 142.13 206.751 136.89 192.881C135.94 190.361 139.98 189.271 140.93 191.771H140.91Z" fill="url(#paint17_linear_26486_106032)"/>
<path d="M332.769 135.47C336.039 139.45 340.049 142.82 344.529 145.35C347.469 147.01 351.259 148.28 354.079 146.43C356.399 144.9 356.989 141.92 356.739 139.04C356.679 138.2 356.529 137.35 356.329 136.55C354.699 129.95 350.199 122.92 344.709 118.8C339.499 114.88 330.949 115.1 328.679 122.16C328.659 122.2 328.639 122.25 328.629 122.29C327.219 126.88 329.719 131.75 332.769 135.46V135.47Z" fill="url(#paint18_linear_26486_106032)"/>
<path d="M277.329 160.87C277.329 161.35 277.359 161.81 277.419 162.27C277.889 165.7 279.809 168.75 282.039 171.41C284.779 174.69 288.019 177.53 291.619 179.82C293.939 181.3 296.589 182.58 299.319 182.26C302.219 181.91 304.629 179.69 305.749 176.97C306.009 176.33 306.219 175.67 306.329 174.99C307.999 165.3 291.949 147.15 281.259 153.27C278.669 154.77 277.329 157.84 277.319 160.86L277.329 160.87Z" fill="url(#paint19_linear_26486_106032)"/>
<path style="mix-blend-mode:lighten" opacity="0.73" d="M317.13 114.18C316.72 115.79 316.1 117.4 314.79 117.86C311.06 119.17 312.05 111.96 312.1 110.24C312.21 106.34 312.59 102.44 313.23 98.5899C314.05 93.6699 315.31 88.8299 316.98 84.1299C318.06 81.0799 319.72 73.7799 324.28 74.5999C327.26 75.1399 330.89 78.2199 330.39 81.5299C330.19 82.8299 329.54 84.0099 328.91 85.1699C325.92 90.6799 323.28 96.3699 321.02 102.21C319.86 105.2 318.8 108.22 317.83 111.28C317.59 112.03 317.41 113.11 317.13 114.18Z" fill="url(#paint20_linear_26486_106032)"/>
<path style="mix-blend-mode:lighten" opacity="0.73" d="M232.94 130.37C228.24 130.85 223.31 131.69 219.16 134.07C217.06 135.28 209.47 141.95 214.66 143.96C216.03 144.49 217.57 144.06 218.98 143.65C236.13 138.63 254.04 136.24 271.91 136.58C273.69 136.61 278.58 136 276.22 133.15C275.66 132.47 274.83 132.08 274.01 131.75C268.55 129.58 261.87 129.53 256.05 129.42C248.34 129.27 240.62 129.58 232.94 130.36V130.37Z" fill="url(#paint21_linear_26486_106032)"/>
<path d="M71.6798 340.51C113.32 408.47 184.28 454.65 261.61 471.19C273.15 473.66 284.81 475.41 296.57 476.41C308.67 477.43 320.78 476.93 332.86 477.72C335.52 477.89 336.53 482.23 333.53 482.7C312.77 486 290.09 483.29 269.46 480.13C247.86 476.82 226.81 471.03 206.55 462.81C169.23 447.68 135.5 424.65 107.32 395.9C91.7298 380.01 78.1898 362.43 66.1898 343.7C63.9898 340.26 69.5298 337.01 71.6698 340.5L71.6798 340.51Z" fill="url(#paint22_linear_26486_106032)"/>
<path style="mix-blend-mode:multiply" opacity="0.32" d="M-121.01 423.35C-58.1998 489.23 12.1902 548.38 91.9702 592.03C169.13 634.25 255.22 660.18 342.82 662.88C348.95 647.96 353.21 632.49 354.4 616.28C355.77 597.61 352.95 579.06 348.84 560.71C276.95 566.9 203.53 554.77 137.56 525.57C71.7703 496.46 13.5702 450.45 -30.1398 393.33C-39.7398 396.77 -49.4498 399.91 -59.2498 402.74C-80.0798 408.75 -101.86 413.63 -121 423.35H-121.01Z" fill="url(#paint23_linear_26486_106032)"/>
<path d="M-221.44 883.251C-197.03 886.521 -172.57 890.03 -148.05 893.57C-106.38 899.581 -64.5702 905.691 -22.7102 910.881H-22.7002C5.56981 914.371 33.8698 917.461 62.1498 919.811C92.4498 922.341 122.74 924.021 153 924.491C154.01 921.521 155 918.531 155.95 915.531C163.99 890.321 169.88 864.261 174.87 838.311C145.64 830.281 116.3 822.201 86.9298 814.121C64.6398 807.981 42.3398 801.841 20.0598 795.711C7.97981 792.381 -4.09021 789.061 -16.1502 785.741C-27.5902 782.591 -39.0102 779.461 -50.4202 776.311C-51.2602 776.091 -52.1002 775.851 -52.9502 775.621C-53.5002 775.471 -54.0402 775.331 -54.5802 775.171C-54.5002 774.801 -54.4302 774.441 -54.3402 774.071C-52.2402 764.311 -49.5602 754.711 -46.5002 745.221C-38.3702 719.931 -27.6402 695.391 -18.3502 670.421C-17.1502 667.211 -15.9902 664.011 -14.8502 660.781C-7.67017 640.381 -1.7502 618.991 0.609802 597.531C2.6698 578.881 2.03981 560.171 -2.75018 542.021C-13.0602 502.951 -47.4702 467.951 -87.8802 468.461C-122.45 468.901 -152.63 494.711 -168.43 525.481C-171.18 530.851 -173.59 536.351 -175.68 541.961C-176.5 544.121 -177.26 546.301 -177.99 548.511C-186.21 573.231 -189.32 599.771 -192.27 625.821C-192.51 627.931 -192.75 630.041 -192.99 632.151C-196.19 660.401 -199.39 688.651 -202.59 716.911C-206.18 748.631 -209.77 780.351 -213.38 812.071C-216.07 835.801 -218.76 859.521 -221.45 883.251H-221.44Z" fill="url(#paint24_linear_26486_106032)"/>
<path style="mix-blend-mode:multiply" opacity="0.33" d="M121.13 212.99C121.29 216.74 122.18 220.54 123.12 223.92C126.85 237.23 132.42 250.03 139.58 261.85C142.4 266.49 145.45 273.12 150.44 275.45C156.18 278.11 162.99 275.55 168.47 273.44C202.2 260.45 235.01 244.64 267.23 228.31C309.27 207.02 350.98 184.05 389.2 156.37C395.34 151.92 406.4 146.11 407.58 137.75C407.31 137.92 407.02 138.12 406.74 138.32C392.56 148.45 379.58 159.83 364.83 169.27C335.13 188.26 303.2 203.47 270.81 217.25C252.54 225.02 234.09 232.33 215.63 239.63C199.65 245.94 182.71 252.37 165.73 249.73C145.86 246.63 130.04 231.33 121.13 212.99Z" fill="url(#paint25_linear_26486_106032)"/>
<path d="M354.28 137.601C354.19 137.681 354.09 137.751 353.98 137.821C353.04 138.421 351.8 138.271 350.75 137.881C347.98 136.831 344.09 132.411 345.59 129.251C346.89 126.501 350.85 127.141 352.71 128.911C354.57 130.681 356.88 135.521 354.28 137.611V137.601Z" fill="url(#paint26_linear_26486_106032)"/>
<path d="M303.54 172.101C303.45 172.181 303.35 172.251 303.24 172.321C302.3 172.921 301.06 172.771 300.01 172.381C297.24 171.331 293.35 166.911 294.85 163.751C296.15 161.001 300.11 161.641 301.97 163.411C303.83 165.181 306.14 170.021 303.54 172.111V172.101Z" fill="url(#paint27_linear_26486_106032)"/>
<path style="mix-blend-mode:multiply" d="M328.68 122.16C331.16 120.66 334.31 120.16 337.2 120.67C341.41 121.41 345.12 123.96 348.19 126.93C351.76 130.39 354.67 134.52 356.73 139.04C356.67 138.2 356.52 137.35 356.32 136.55C354.69 129.95 350.19 122.92 344.7 118.8C339.49 114.88 330.94 115.1 328.67 122.16H328.68Z" fill="url(#paint28_linear_26486_106032)"/>
<path style="mix-blend-mode:multiply" d="M277.33 160.87C279.08 158.66 281.75 157.18 284.58 156.99C287.96 156.78 291.23 158.31 293.99 160.26C299.66 164.27 303.85 170.3 305.76 176.97C306.02 176.33 306.23 175.67 306.34 174.99C308.01 165.3 291.96 147.15 281.27 153.27C278.68 154.77 277.34 157.84 277.33 160.86V160.87Z" fill="url(#paint29_linear_26486_106032)"/>
</g>
<defs>
<linearGradient id="paint0_linear_26486_106032" x1="72.5002" y1="1074.14" x2="-33.6798" y2="471.34" gradientUnits="userSpaceOnUse">
<stop stop-color="#454347"/>
<stop offset="1" stop-color="#626163"/>
</linearGradient>
<linearGradient id="paint1_linear_26486_106032" x1="250.24" y1="494.68" x2="122.66" y2="159.89" gradientUnits="userSpaceOnUse">
<stop stop-color="#FFC493"/>
<stop offset="1" stop-color="#FFB073"/>
</linearGradient>
<linearGradient id="paint2_linear_26486_106032" x1="308.869" y1="304.54" x2="69.1694" y2="304.54" gradientUnits="userSpaceOnUse">
<stop stop-color="#FFC493"/>
<stop offset="1" stop-color="#FFB073"/>
</linearGradient>
<linearGradient id="paint3_linear_26486_106032" x1="466.78" y1="315.71" x2="281.83" y2="192.41" gradientUnits="userSpaceOnUse">
<stop stop-color="#FFC493"/>
<stop offset="1" stop-color="#FFB073"/>
</linearGradient>
<linearGradient id="paint4_linear_26486_106032" x1="332.25" y1="312.95" x2="298.76" y2="244.07" gradientUnits="userSpaceOnUse">
<stop stop-color="#FFF4EF"/>
<stop offset="1" stop-color="#F6DFD7"/>
</linearGradient>
<linearGradient id="paint5_linear_26486_106032" x1="300.69" y1="322.76" x2="304.88" y2="269.1" gradientUnits="userSpaceOnUse">
<stop stop-color="#FFF4EF"/>
<stop offset="1" stop-color="#F6DFD7"/>
</linearGradient>
<linearGradient id="paint6_linear_26486_106032" x1="376.729" y1="222.88" x2="291.679" y2="173.79" gradientUnits="userSpaceOnUse">
<stop stop-color="#FF9762"/>
<stop offset="1" stop-color="#FFB073"/>
</linearGradient>
<linearGradient id="paint7_linear_26486_106032" x1="396.73" y1="223.36" x2="170.37" y2="223.36" gradientUnits="userSpaceOnUse">
<stop stop-color="#FFC493"/>
<stop offset="1" stop-color="#FFB073"/>
</linearGradient>
<linearGradient id="paint8_linear_26486_106032" x1="218.08" y1="51.7302" x2="251.76" y2="145.91" gradientUnits="userSpaceOnUse">
<stop stop-color="#363636"/>
<stop offset="1" stop-color="#131313"/>
</linearGradient>
<linearGradient id="paint9_linear_26486_106032" x1="246.54" y1="61.4001" x2="258.52" y2="165.86" gradientUnits="userSpaceOnUse">
<stop stop-color="#363636"/>
<stop offset="1" stop-color="#131313"/>
</linearGradient>
<linearGradient id="paint10_linear_26486_106032" x1="369.13" y1="144.9" x2="133.3" y2="144.9" gradientUnits="userSpaceOnUse">
<stop stop-color="#363636"/>
<stop offset="1" stop-color="#131313"/>
</linearGradient>
<linearGradient id="paint11_linear_26486_106032" x1="239.02" y1="136.06" x2="286.22" y2="219.39" gradientUnits="userSpaceOnUse">
<stop stop-color="#363636"/>
<stop offset="1" stop-color="#131313"/>
</linearGradient>
<linearGradient id="paint12_linear_26486_106032" x1="339.31" y1="67.6302" x2="398.1" y2="189.21" gradientUnits="userSpaceOnUse">
<stop stop-color="#161616"/>
<stop offset="1"/>
</linearGradient>
<linearGradient id="paint13_linear_26486_106032" x1="300.54" y1="86.3698" x2="359.34" y2="207.96" gradientUnits="userSpaceOnUse">
<stop stop-color="#161616"/>
<stop offset="1"/>
</linearGradient>
<linearGradient id="paint14_linear_26486_106032" x1="257.599" y1="107.14" x2="316.389" y2="228.73" gradientUnits="userSpaceOnUse">
<stop stop-color="#161616"/>
<stop offset="1"/>
</linearGradient>
<linearGradient id="paint15_linear_26486_106032" x1="207.71" y1="131.26" x2="266.51" y2="252.85" gradientUnits="userSpaceOnUse">
<stop stop-color="#161616"/>
<stop offset="1"/>
</linearGradient>
<linearGradient id="paint16_linear_26486_106032" x1="164.919" y1="151.96" x2="223.709" y2="273.54" gradientUnits="userSpaceOnUse">
<stop stop-color="#161616"/>
<stop offset="1"/>
</linearGradient>
<linearGradient id="paint17_linear_26486_106032" x1="127.86" y1="169.881" x2="186.66" y2="291.461" gradientUnits="userSpaceOnUse">
<stop stop-color="#161616"/>
<stop offset="1"/>
</linearGradient>
<linearGradient id="paint18_linear_26486_106032" x1="358.859" y1="138.1" x2="327.859" y2="124.71" gradientUnits="userSpaceOnUse">
<stop stop-color="#FFF4EF"/>
<stop offset="1" stop-color="#F6DFD7"/>
</linearGradient>
<linearGradient id="paint19_linear_26486_106032" x1="308.259" y1="175.1" x2="280.429" y2="161.01" gradientUnits="userSpaceOnUse">
<stop stop-color="#FFF4EF"/>
<stop offset="1" stop-color="#F6DFD7"/>
</linearGradient>
<linearGradient id="paint20_linear_26486_106032" x1="323.51" y1="97.3099" x2="313.24" y2="95.0199" gradientUnits="userSpaceOnUse">
<stop stop-color="#FFF4EF"/>
<stop offset="1" stop-color="#F6DFD7"/>
</linearGradient>
<linearGradient id="paint21_linear_26486_106032" x1="245.13" y1="141.22" x2="244.37" y2="132.84" gradientUnits="userSpaceOnUse">
<stop stop-color="#FFF4EF"/>
<stop offset="1" stop-color="#F6DFD7"/>
</linearGradient>
<linearGradient id="paint22_linear_26486_106032" x1="220.48" y1="361.85" x2="163.39" y2="503.42" gradientUnits="userSpaceOnUse">
<stop stop-color="#363636"/>
<stop offset="1" stop-color="#131313"/>
</linearGradient>
<linearGradient id="paint23_linear_26486_106032" x1="354.74" y1="528.11" x2="-121.02" y2="528.11" gradientUnits="userSpaceOnUse">
<stop stop-color="#454347"/>
<stop offset="1" stop-color="#626163"/>
</linearGradient>
<linearGradient id="paint24_linear_26486_106032" x1="64.0998" y1="1029.74" x2="-167.09" y2="582.781" gradientUnits="userSpaceOnUse">
<stop stop-color="#454347"/>
<stop offset="1" stop-color="#626163"/>
</linearGradient>
<linearGradient id="paint25_linear_26486_106032" x1="407.58" y1="207.17" x2="121.13" y2="207.17" gradientUnits="userSpaceOnUse">
<stop stop-color="#363636"/>
<stop offset="1" stop-color="#131313"/>
</linearGradient>
<linearGradient id="paint26_linear_26486_106032" x1="360.3" y1="135.991" x2="345.73" y2="131.131" gradientUnits="userSpaceOnUse">
<stop stop-color="#363636"/>
<stop offset="1" stop-color="#131313"/>
</linearGradient>
<linearGradient id="paint27_linear_26486_106032" x1="309.56" y1="170.491" x2="294.99" y2="165.631" gradientUnits="userSpaceOnUse">
<stop stop-color="#363636"/>
<stop offset="1" stop-color="#131313"/>
</linearGradient>
<linearGradient id="paint28_linear_26486_106032" x1="341.87" y1="131.96" x2="347.29" y2="121.97" gradientUnits="userSpaceOnUse">
<stop stop-color="#FFF4EF"/>
<stop offset="1" stop-color="#D7C2BB"/>
</linearGradient>
<linearGradient id="paint29_linear_26486_106032" x1="306.45" y1="164.51" x2="277.32" y2="164.51" gradientUnits="userSpaceOnUse">
<stop stop-color="#FFF4EF"/>
<stop offset="1" stop-color="#D7C2BB"/>
</linearGradient>
<clipPath id="clip0_26486_106032">
<rect width="480" height="480" rx="8" fill="white"/>
</clipPath>
</defs>
</svg>
