<svg width="124" height="73" viewBox="0 0 124 73" fill="none" xmlns="http://www.w3.org/2000/svg">
<path d="M62.6561 34.3473C63.0436 35.5317 62.813 36.8494 62.2874 37.9789C61.7619 39.1084 60.965 40.0872 60.1728 41.0253C57.3193 42.9188 54.7686 45.2656 52.6445 47.9512C52.6869 44.511 53.876 41.0928 56.011 38.3946C57.6268 35.9207 60.3187 34.1779 62.6561 34.3473Z" fill="url(#paint0_linear_28963_361434)"/>
<path style="mix-blend-mode:multiply" d="M51.1703 46.7204C52.6715 44.9729 54.7611 43.8481 56.8522 42.8818C58.9433 41.9154 61.1112 41.0511 62.9607 39.6784C64.062 38.8611 65.0675 37.8195 65.4691 36.5081C65.8707 35.1982 65.5224 33.5887 64.3804 32.831C63.3121 32.1219 61.8438 32.3196 60.73 32.9565C59.6178 33.5934 58.7707 34.5958 57.9063 35.5433C57.042 36.4908 56.096 37.4289 54.8913 37.8681C54.2826 38.0893 53.6222 38.1788 53.059 38.4972C52.3013 38.9239 51.8181 39.7114 51.4809 40.513C50.7185 42.3264 50.5585 44.3877 51.1687 46.7204H51.1703Z" fill="url(#paint1_linear_28963_361434)"/>
<path d="M57.1962 41.4146C56.1326 41.9903 54.9356 42.2617 53.7936 42.6633C51.9472 43.3128 50.2248 44.3136 48.7424 45.5968C48.4914 45.8133 48.2466 46.0392 48.0098 46.2729C48.4067 44.4156 48.8098 42.5441 49.5753 40.806C50.3409 39.0678 51.5049 37.4505 53.1269 36.4669C53.8438 36.0324 54.6313 35.7296 55.4141 35.43C56.0808 35.1743 56.7491 34.9186 57.4158 34.6644C58.3586 34.3021 59.303 33.9428 60.2442 33.582C61.3533 36.5281 59.9932 39.9024 57.193 41.4162L57.1962 41.4146Z" fill="url(#paint2_linear_28963_361434)"/>
<path style="mix-blend-mode:multiply" opacity="0.3" d="M57.198 41.4146C56.1344 41.9903 54.9374 42.2617 53.7954 42.6633C51.949 43.3128 50.2266 44.3136 48.7441 45.5968C49.345 44.2854 50.1952 43.0869 51.2447 42.0955C52.702 40.715 54.517 39.733 55.8598 38.2411C56.5297 37.4975 57.0772 36.6191 57.3062 35.6449C57.3815 35.3249 57.4191 34.9954 57.4176 34.6644C58.3604 34.3021 59.3047 33.9428 60.246 33.582C61.3551 36.5281 59.995 39.9024 57.1948 41.4162L57.198 41.4146Z" fill="url(#paint3_linear_28963_361434)"/>
<path d="M96.4214 92.1968C96.2348 94.7381 95.5665 97.1665 94.6049 99.507C92.9264 103.586 90.3505 107.398 87.8657 111.086C87.1943 112.08 86.5244 113.078 85.8577 114.079C83.2787 117.939 80.7155 121.827 78.1177 125.69C77.9294 125.97 77.7396 126.25 77.5498 126.53C76.9254 127.458 76.298 128.384 75.6658 129.308C74.8798 130.459 74.0892 131.609 73.2923 132.751C72.0797 134.497 70.8529 136.231 69.6058 137.947C66.7539 141.88 63.8078 145.728 60.7096 149.433C59.359 151.052 57.9785 152.643 56.5651 154.2C55.8607 154.977 55.147 155.747 54.4269 156.508C53.0951 157.912 51.7334 159.288 50.3388 160.63C49.327 161.603 48.2979 162.56 47.2485 163.497C46.2147 164.42 45.1621 165.327 44.0891 166.215C41.2074 166.433 38.3115 166.474 35.4219 166.339H35.4188C19.9622 165.633 4.66725 160.037 -7.76953 150.845C-7.56403 149.413 -7.35069 147.979 -7.12636 146.547C-6.18513 140.515 -5.08075 134.497 -3.82108 128.505C-3.2281 125.681 -2.60061 122.865 -1.93705 120.057C-1.9292 120.026 -1.92136 119.993 -1.91508 119.96C-1.59193 118.587 -1.25936 117.218 -0.918951 115.848C0.190131 111.377 1.38393 106.929 2.664 102.506C3.85466 98.3854 5.1159 94.2895 6.44774 90.2218V90.2186C6.63128 89.6617 6.81482 89.1049 6.99992 88.5495C7.55525 86.8804 8.12313 85.2176 8.70042 83.5594C9.47223 81.3491 10.2644 79.1451 11.0755 76.952C11.0943 76.9018 11.1115 76.8516 11.1319 76.803C12.9658 71.86 15.0945 66.7052 19.2892 63.5144C20.094 62.901 20.9505 62.3786 21.8463 61.9269C24.8488 60.4021 28.2654 59.635 31.5331 58.6937C33.0704 58.2498 34.5936 57.7572 36.0996 57.2191C41.5587 55.2629 46.7935 52.6855 51.6801 49.5622C56.962 46.1879 61.8375 42.1736 66.1452 37.6196C68.4277 37.6118 68.4387 36.2768 69.9854 34.5967C76.3576 38.0118 82.7705 41.7155 88.9685 45.4381C89.0422 53.997 90.5011 62.4586 92.4291 70.8183C93.0754 73.6216 93.7734 76.4139 94.4919 79.1953C94.859 80.6134 95.2292 82.0425 95.5508 83.4763C96.1955 86.3549 96.6379 89.2649 96.423 92.1952L96.4214 92.1968Z" fill="url(#paint4_linear_28963_361434)"/>
<path style="mix-blend-mode:multiply" opacity="0.32" d="M21.8438 61.93C31.6969 72.2647 42.7391 81.5436 55.2543 88.3911C67.3585 95.0142 80.8636 99.0819 94.6055 99.5054C95.5671 97.1649 96.2354 94.7381 96.4221 92.1952C96.637 89.2664 96.1946 86.3565 95.5499 83.4779C84.2724 84.4489 72.7549 82.5461 62.4061 77.9654C52.0855 73.3989 42.9555 66.1812 36.0987 57.2207C34.5927 57.7603 33.0695 58.2529 31.5321 58.6969C28.2645 59.6397 24.8478 60.4052 21.8453 61.93H21.8438Z" fill="url(#paint5_linear_28963_361434)"/>
<path style="mix-blend-mode:multiply" opacity="0.49" d="M91.5512 83.7022C91.1747 86.1101 90.5033 88.4585 89.686 90.7206C88.6867 93.4831 87.4804 96.1562 86.1972 98.7979C84.3163 102.673 82.2738 106.481 80.4839 110.4C80.167 111.095 79.8564 111.796 79.5584 112.502C77.8375 116.56 76.4555 120.807 75.9127 125.13C75.7385 126.516 75.6507 127.912 75.6648 129.309C74.8789 130.461 74.0882 131.611 73.2913 132.753C72.0787 134.499 70.852 136.232 69.6049 137.948C66.7529 141.881 63.8069 145.729 60.7087 149.435C59.358 151.053 57.9775 152.644 56.5641 154.202C55.8598 154.978 55.146 155.749 54.426 156.509C53.0941 157.913 51.7325 159.289 50.3379 160.632C51.1975 159.14 52.0462 157.644 52.8839 156.141C54.3413 153.532 55.7688 150.909 57.1665 148.267C59.2843 144.269 61.3346 140.234 63.3159 136.166C65.3944 131.906 67.3945 127.607 69.3209 123.275C71.1187 119.23 72.849 115.158 74.5118 111.057C76.3158 106.613 78.0414 102.136 79.6854 97.6308C81.3922 92.9592 83.0111 88.2546 84.5422 83.5218C86.136 78.5991 87.6326 73.6467 89.035 68.666C91.8744 73.7612 92.3105 78.8501 91.5512 83.699V83.7022Z" fill="url(#paint6_linear_28963_361434)"/>
<path d="M51.6793 49.5646C52.0699 50.1701 52.4746 50.7662 52.895 51.3529C57.3392 57.5791 63.3349 62.6994 70.2011 66.08C77.0674 69.4606 84.7808 71.0952 92.4283 70.8222C90.9945 64.6007 89.8195 58.3211 89.2814 51.9882C89.0947 49.8124 88.9865 47.6303 88.9677 45.4436C82.7697 41.7194 76.3583 38.0157 69.9846 34.6006C68.4395 36.2807 68.4285 37.6157 66.1444 37.6235C61.8352 42.1759 56.9612 46.1903 51.6777 49.5646H51.6793Z" fill="url(#paint7_linear_28963_361434)"/>
<path d="M60.5224 69.1518C57.8258 83.8209 53.7659 98.4837 48.9029 112.877C43.061 130.165 35.6222 147.675 22.776 160.442C21.5539 161.656 20.2833 162.828 18.9593 163.952C8.62144 159.356 -0.897527 152.471 -8.81641 144.072C-4.84285 125.684 0.257046 107.421 6.41739 89.5044C7.68335 85.8163 8.99636 82.1408 10.3533 78.4826C12.4428 72.8509 14.8383 66.9823 19.5648 63.277C22.9626 60.6133 27.2186 59.3536 31.338 58.0657C40.4883 55.2044 49.612 51.8756 57.5889 46.5576C57.567 54.7102 58.2133 62.204 60.5193 69.1518H60.5224Z" fill="url(#paint8_linear_28963_361434)"/>
<path style="mix-blend-mode:multiply" opacity="0.47" d="M41.4296 57.2236C37.0827 58.8771 30.3105 61.7604 25.2891 62.7691C26.2789 65.3512 28.4312 67.9631 30.8047 69.1255C35.1673 66.6469 39.2632 63.6993 43.0187 60.3015C42.5324 60.0144 42.2202 59.5093 41.9488 59.0151C41.6759 58.521 41.8186 57.6942 41.4296 57.2252V57.2236Z" fill="url(#paint9_linear_28963_361434)"/>
<path style="mix-blend-mode:multiply" opacity="0.32" d="M52.0771 48.9434C48.877 53.1052 46.2274 57.6905 43.8759 62.8783C45.9293 67.677 49.5044 71.8105 54.0553 74.4334C50.5523 76.501 47.2565 78.9184 44.5787 81.7938C45.1999 96.5539 44.5912 111.367 42.7637 126.027C48.5162 108.228 54.2686 90.4312 60.0211 72.6325C56.697 65.4745 54.6796 57.7125 52.0787 48.9434H52.0771Z" fill="url(#paint10_linear_28963_361434)"/>
<path style="mix-blend-mode:multiply" opacity="0.53" d="M28.1196 71.3712C31.2617 70.8708 34.4493 72.6341 36.3757 75.166C38.3021 77.6979 39.1586 80.8808 39.6512 84.0245C40.9124 92.0642 40.0355 100.43 36.9718 108.038C37.5475 108.944 37.4911 110.14 37.0895 111.135C36.6879 112.13 35.9851 112.969 35.2462 113.587C36.0683 113.985 36.4228 115.129 35.7216 115.913C41.2607 117.75 46.6869 120.008 51.6566 123.065C44.0734 122.544 36.5059 121.79 28.9698 120.806C32.0037 108.354 33.8407 95.131 30.2499 82.8276C29.2616 79.4407 27.8686 75.8311 28.1196 71.3712Z" fill="url(#paint11_linear_28963_361434)"/>
<path style="mix-blend-mode:multiply" opacity="0.46" d="M51.677 49.5646C52.0676 50.1701 52.4723 50.7662 52.8927 51.3529C58.8538 48.7331 65.4111 47.4688 71.9228 47.6962C77.9216 47.9064 83.8701 49.3842 89.2775 51.9882C89.0908 49.8124 88.9826 47.6303 88.9638 45.4436C82.7658 41.7194 76.3544 38.0157 69.9807 34.6006C68.4356 36.2807 68.4246 37.6157 66.1405 37.6235C61.8313 42.1759 56.9573 46.1903 51.6738 49.5646H51.677Z" fill="url(#paint12_linear_28963_361434)"/>
<path d="M52.8963 49.5247C59.4284 60.1857 69.7333 66.8402 81.8657 69.4348C83.676 69.8223 85.5052 70.0968 87.35 70.2537C89.2481 70.4137 91.1478 70.3353 93.0428 70.4592C93.4601 70.4859 93.6186 71.1667 93.1479 71.2404C89.8913 71.7581 86.3334 71.333 83.0972 70.8373C79.7087 70.318 76.4066 69.4097 73.2284 68.1202C67.3739 65.7468 62.0827 62.134 57.662 57.624C55.2164 55.1313 53.9191 52.9617 52.0366 50.0251C51.6915 49.4855 52.5605 48.9756 52.8963 49.5231V49.5247Z" fill="url(#paint13_linear_28963_361434)"/>
<path d="M91.3947 46.582C96.504 55.1127 99.1677 65.0897 99.1928 74.535C97.2241 76.4912 94.8412 78.0269 92.2967 78.9242C95.02 82.8649 96.8005 87.4534 97.7433 92.3289C89.1562 107.291 78.3383 120.972 65.7148 132.088C72.2203 118.806 78.7462 105.47 83.3645 91.4191C87.9828 77.3681 90.2856 62.2472 88.7828 47.5703C89.644 47.6142 90.8802 47.895 91.3947 46.5836V46.582Z" fill="url(#paint14_linear_28963_361434)"/>
<path d="M104.475 44.6527C103.966 46.6387 103.21 48.7157 101.546 49.9126C99.6398 51.2821 97.0592 51.1362 94.7438 50.7613C94.0551 50.6499 93.3696 50.5213 92.6888 50.3785C88.8281 49.5706 85.0726 48.2717 81.532 46.5399C78.3209 44.9696 75.287 43.0432 72.5057 40.8031C71.1676 39.7222 69.8859 38.5724 68.6717 37.3519C68.0333 36.7087 65.1264 33.6168 64.2307 32.6567C64.0958 32.5124 64.0048 32.4152 63.9766 32.3822C64.3185 30.4213 65.026 28.6581 65.9924 27.0219C68.2999 23.1158 72.0868 19.9329 75.8988 16.4943C81.3077 11.6187 89.7004 9.49308 96.9666 9.96055C97.1188 10.1504 97.2694 10.3418 97.4184 10.5331C97.7573 10.9724 98.0851 11.4179 98.4036 11.8712C99.0201 12.7466 99.5989 13.6486 100.14 14.571C100.959 15.9687 101.69 17.4182 102.33 18.9054C102.591 19.5062 102.835 20.1149 103.064 20.7298C105.911 28.3224 106.487 36.7825 104.475 44.648V44.6527Z" fill="url(#paint15_linear_28963_361434)"/>
<path d="M81.0758 35.2258C81.7158 36.0384 82.3872 36.8259 83.09 37.5852C85.8368 40.5532 89.0653 43.0929 92.6827 44.9126C93.0577 45.1009 93.4828 45.2876 93.8859 45.1683C94.3424 45.0334 94.6013 44.5613 94.8036 44.1299C95.2068 43.278 95.5896 42.4168 95.9566 41.5477C95.999 41.4474 96.0429 41.3454 96.0837 41.2434C96.4272 40.4151 96.7551 39.5806 97.0673 38.7382C97.2822 38.1593 97.2085 37.8283 96.9794 37.6385C96.559 37.295 95.6178 37.4158 94.9448 37.3373C93.1988 37.135 91.4607 36.8494 89.7398 36.4855C86.7326 35.8455 83.8399 34.8948 80.9315 33.9097C79.7047 33.494 80.8483 34.9356 81.0758 35.2243V35.2258Z" fill="url(#paint16_linear_28963_361434)"/>
<path style="mix-blend-mode:multiply" d="M81.2182 34.6937C82.2975 35.4514 83.4144 36.1652 84.5612 36.8162C86.555 37.9519 88.6304 38.9559 90.7576 39.8124C91.829 40.2454 92.9161 40.6376 94.0189 40.9796C94.6558 41.1772 95.3037 41.3812 95.9563 41.549C95.9987 41.4486 96.0426 41.3466 96.0834 41.2447C95.9202 41.2023 95.7571 41.1584 95.5939 41.1145C94.9806 40.9451 94.3719 40.7647 93.7648 40.5701C91.5545 39.8626 89.3708 39.0501 87.2813 38.0367C85.2043 37.0295 83.2011 35.8718 81.2731 34.6012C81.2135 34.562 81.1617 34.6561 81.2166 34.6937H81.2182Z" fill="url(#paint17_linear_28963_361434)"/>
<path d="M60.9922 27.9189C60.2675 28.5449 59.6384 29.2822 59.2039 30.0069C58.7019 31.9647 58.7944 34.0699 59.6321 35.8943C61.2448 36.5061 63.1617 36.2347 64.5391 35.1962C63.7469 34.0103 63.3014 32.5937 63.2715 31.1678C63.2606 30.6799 63.2935 30.1669 63.0707 29.7324C62.7648 29.1347 62.073 28.8617 60.9922 27.9189Z" fill="url(#paint18_linear_28963_361434)"/>
<path d="M91.2526 31.4469C91.2463 31.3527 91.2526 31.2555 91.2589 31.1614C91.4126 28.9134 91.5663 26.6654 91.7201 24.4174C91.7875 23.4433 91.7562 22.5005 91.662 21.5216C91.6134 21.0118 91.6291 20.2509 91.342 19.8007C91.204 19.5842 91.4753 19.3317 91.6871 19.4556C92.6425 20.0141 93.4723 20.9616 94.2771 21.7193C95.1697 22.5601 96.056 23.4041 96.9565 24.237C98.7542 25.8999 100.608 27.5157 102.169 29.4107C102.522 29.8389 102.481 30.6923 101.802 30.8021C99.1511 31.2319 96.4623 31.5269 93.7892 31.7637C93.3609 31.8014 91.5726 32.1434 91.3452 31.7779C91.2824 31.679 91.2589 31.5645 91.251 31.4469H91.2526Z" fill="url(#paint19_linear_28963_361434)"/>
<path d="M102.55 18.6646C102.478 18.7477 102.406 18.8293 102.329 18.9093C101.013 20.318 99.1414 21.3565 97.1381 21.7409C95.9867 21.962 94.7788 21.9793 93.7042 22.4499C92.1543 23.1292 91.1566 24.6226 90.0616 25.9105C87.0121 29.495 82.5836 31.8434 77.9276 32.4819H77.9245C77.3331 32.5619 76.7401 32.6152 76.1456 32.6403C75.3596 32.6732 74.5706 32.6576 73.7846 32.587C73.3313 32.5462 72.8764 32.4913 72.4214 32.4269C72.2285 32.4003 72.0371 32.3705 71.8441 32.3407C71.5414 32.2952 71.2386 32.245 70.9359 32.1963C69.604 31.9783 68.2737 31.7571 66.9592 31.7195C66.8525 31.7163 66.7443 31.7132 66.6376 31.7132C66.1717 31.71 65.7089 31.732 65.2477 31.7869C65.0595 31.8089 64.661 32.2058 64.2343 32.656C63.6805 33.2395 63.0813 33.9157 62.8397 33.9815C62.0836 33.2756 61.4843 32.5352 60.998 31.7508C62.2436 30.4253 63.9316 28.7938 65.996 27.0212C73.0536 20.9534 84.4849 13.24 97.4221 10.5339C97.7342 10.4681 98.048 10.4053 98.3633 10.3457C98.699 10.7473 99.0206 11.1865 99.3249 11.6493C99.4943 11.905 99.6575 12.1685 99.8144 12.4352C101.443 15.1836 102.484 18.343 102.555 18.663L102.55 18.6646Z" fill="url(#paint20_linear_28963_361434)"/>
<path style="mix-blend-mode:lighten" opacity="0.73" d="M80.0768 16.3481C79.3395 16.4234 78.5662 16.5552 77.9152 16.9286C77.5857 17.1184 76.3951 18.1647 77.2092 18.48C77.4242 18.5632 77.6657 18.4957 77.8869 18.4314C80.5773 17.6439 83.3868 17.269 86.1901 17.3223C86.4694 17.327 87.2365 17.2313 86.8662 16.7842C86.7784 16.6776 86.6482 16.6164 86.5196 16.5646C85.663 16.2242 84.6151 16.2164 83.7022 16.1991C82.4927 16.1756 81.2816 16.2242 80.0768 16.3466V16.3481Z" fill="url(#paint21_linear_28963_361434)"/>
<path style="mix-blend-mode:multiply" opacity="0.33" d="M72.4195 32.4269C72.2265 32.4003 72.0351 32.3705 71.8422 32.3407C71.5394 32.2952 71.2367 32.245 70.9339 32.1963C69.6021 31.9783 68.2718 31.7571 66.9572 31.7195C66.8506 31.7163 66.7423 31.7132 66.6356 31.7132C66.1697 31.71 65.707 31.732 65.2457 31.7869C65.0575 31.8089 64.659 32.2058 64.2323 32.656C63.6786 33.2395 63.0794 33.9157 62.8378 33.9815C62.0817 33.2756 61.4824 32.5352 60.9961 31.7508C62.2417 30.4253 63.9296 28.7938 65.994 27.0212C73.0517 20.9534 84.4829 13.24 97.4201 10.5339C97.7323 10.4681 98.046 10.4053 98.3613 10.3457C98.697 10.7473 99.0186 11.1865 99.323 11.6493C99.4924 11.905 99.6555 12.1685 99.8124 12.4352C88.1223 15.5617 71.2759 23.992 72.4226 32.4254L72.4195 32.4269Z" fill="url(#paint22_linear_28963_361434)"/>
<path style="mix-blend-mode:lighten" opacity="0.73" d="M90.6142 15.0286C90.5499 15.2811 90.4527 15.5337 90.2472 15.6058C89.662 15.8113 89.8173 14.6803 89.8252 14.4105C89.8424 13.7987 89.902 13.1869 90.0024 12.5829C90.1311 11.8111 90.3287 11.0519 90.5907 10.3146C90.7601 9.83611 91.0205 8.69094 91.7359 8.81958C92.2033 8.90429 92.7728 9.38745 92.6943 9.9067C92.663 10.1106 92.561 10.2957 92.4622 10.4777C91.9931 11.3421 91.579 12.2347 91.2245 13.1508C91.0425 13.6198 90.8762 14.0936 90.7241 14.5736C90.6864 14.6913 90.6582 14.8607 90.6142 15.0286Z" fill="url(#paint23_linear_28963_361434)"/>
<path d="M98.811 10.9249C98.0141 10.7994 96.8423 10.9782 95.3959 11.4002C93.8366 11.8551 91.9965 12.6065 89.9807 13.5729C80.6453 18.0515 67.592 27.1721 61.7156 33.05C60.4654 32.1825 59.5649 29.3369 59.7092 28.2278C59.0566 27.194 59.1727 25.8214 59.9085 24.899C59.259 24.6213 58.9374 24.0142 58.87 23.415C58.7554 22.3514 60.114 15.5275 62.8325 10.0134C63.0302 9.61185 63.2765 9.23693 63.573 8.90436C63.5934 8.88083 63.6138 8.8573 63.6357 8.83534C63.7659 8.69415 63.904 8.55924 64.0514 8.43375C68.2776 4.83825 73.8151 2.03809 79.2539 0.232498C79.6633 0.0975887 80.09 0.0175851 80.5198 0.012879C88.1202 -0.070263 96.6713 4.32214 98.8126 10.9233L98.811 10.9249Z" fill="url(#paint24_linear_28963_361434)"/>
<path d="M62.878 82.1864C60.8512 92.2011 57.7875 102.006 53.7198 111.379C51.7762 115.856 49.6035 120.234 47.205 124.492C44.8095 128.743 42.1882 132.873 39.3457 136.858C40.5975 132.265 41.6972 127.631 42.64 122.962C45.4464 109.066 46.8693 94.8773 46.8504 80.6271C50.1102 77.3673 53.5191 75.1915 56.4008 73.6887C52.7159 70.0148 49.1831 66.3847 46.3924 60.9413C47.6725 55.068 50.6577 49.7924 55.1458 45.6338C57.6385 43.323 60.594 41.3574 63.9777 39.8232C63.4365 41.0108 62.5737 42.1606 62.1611 43.8156C61.7328 56.7764 62.1141 69.4579 62.8796 82.1864H62.878Z" fill="url(#paint25_linear_28963_361434)"/>
<path style="mix-blend-mode:multiply" opacity="0.21" d="M89.9807 13.5748C80.6453 18.0534 67.592 27.174 61.7156 33.0519C60.4654 32.1844 59.5649 29.3388 59.7092 28.2297C59.0566 27.1959 59.1727 25.8233 59.9085 24.9009C59.259 24.6232 58.9374 24.0161 58.87 23.4169C58.7554 22.3533 60.114 15.5294 62.8325 10.0153C63.0302 9.61374 63.2765 9.23882 63.573 8.90625C63.4177 9.56197 63.2624 10.2177 63.1243 10.8766C62.6851 12.9928 62.4404 15.2219 63.0443 17.2989C63.6498 19.3759 65.264 21.2724 67.3897 21.6678C69.2423 22.0129 71.095 21.2066 72.808 20.4206C78.3942 17.8589 84.098 15.2831 89.9807 13.5732V13.5748Z" fill="url(#paint26_linear_28963_361434)"/>
<path d="M68.7795 38.988C62.7823 38.7653 60.0198 33.3532 61.6701 31.91C65.4397 28.6141 69.7788 34.067 70.6024 36.4294C70.8957 37.2703 71.1185 39.0743 68.7795 38.988Z" fill="url(#paint27_linear_28963_361434)"/>
<path style="mix-blend-mode:multiply" opacity="0.71" d="M68.5292 36.2569C68.3394 36.0185 68.1417 35.7848 67.9472 35.5495C67.1142 34.5753 65.6114 32.5501 64.3046 32.3838C63.7132 32.3885 63.5689 32.6944 63.4199 33.2089C63.3101 33.7423 63.2897 34.2913 63.2959 34.8357C63.2991 34.9596 63.2803 35.1024 63.3807 35.1949C63.5438 35.3691 63.8638 35.2373 63.856 34.9988C63.8968 34.2349 64.016 33.3046 64.2058 33.1085C64.2168 33.1054 64.2293 33.1023 64.2403 33.0991C64.2419 33.0991 64.2435 33.0991 64.245 33.0991C64.2795 33.0991 64.3062 33.1023 64.3219 33.1023C64.3862 33.1164 64.4725 33.1446 64.5164 33.1603C65.0953 33.4348 65.271 33.6513 65.7871 34.1094C65.8592 34.1753 65.9361 34.2474 66.0145 34.3243C65.933 34.4561 65.8749 34.6129 65.7996 34.7384C65.6114 35.1275 65.4639 35.5385 65.4263 35.9714C65.4184 36.1048 65.3776 36.2522 65.431 36.3793C65.5345 36.6554 65.9659 36.566 65.9596 36.2726C65.9847 36.0185 66.2389 35.3424 66.3942 35.0522C66.4334 34.98 66.4726 34.9094 66.5134 34.8388C66.995 35.3581 67.475 35.9291 67.6821 36.2083C67.7699 36.3213 68.1292 36.7966 68.0209 36.6554C68.0837 36.748 68.1496 36.8468 68.2656 36.8735C68.468 36.9346 68.6861 36.7668 68.6829 36.555C68.6625 36.3213 68.5355 36.2899 68.5292 36.2522V36.2569Z" fill="url(#paint28_linear_28963_361434)"/>
<path d="M62.9351 125.592C61.8731 130.369 60.8126 135.145 59.7506 139.92C59.6486 140.379 59.5467 140.838 59.4447 141.296C42.1935 140.75 25.082 137.956 8.60419 133.038C7.70374 131.92 7.39941 130.637 7.66139 129.468C7.56726 128.809 7.36177 128.249 7.1845 127.694C7.00567 127.137 6.85036 126.553 6.93664 125.976C7.02292 125.399 7.40883 124.829 7.97827 124.699C5.84325 110.92 8.8489 97.4553 12.7566 84.6499C14.0649 80.3657 15.6697 75.8384 19.0989 73.0241C19.2887 72.8672 19.4848 72.7166 19.6856 72.5707C22.0638 70.8577 25.1149 70.1188 28.0186 70.511C30.9239 70.9032 33.6566 72.4107 35.5704 74.632C38.0866 77.5499 39.111 81.4889 39.3965 85.3307C39.9785 93.2245 37.7666 101.027 35.539 108.733C36.0834 108.929 36.3297 109.605 36.2261 110.174C36.1242 110.744 35.7602 111.229 35.3994 111.682C34.6041 112.684 33.7664 113.654 32.9083 114.777C33.2315 114.695 33.5907 114.619 33.8825 114.777C34.2543 114.981 34.3452 115.503 34.1962 115.9C34.0472 116.297 33.7209 116.598 33.2817 116.975C43.4156 119.058 53.3942 121.886 62.9351 125.589V125.592Z" fill="url(#paint29_linear_28963_361434)"/>
<path d="M93.0292 16.7707C93.5422 17.395 94.1712 17.9237 94.874 18.3206C95.3352 18.581 95.9297 18.7802 96.3721 18.49C96.7361 18.25 96.8286 17.7825 96.7894 17.3307C96.78 17.1989 96.7565 17.0656 96.7251 16.9401C96.4694 15.9048 95.7635 14.8019 94.9022 14.1556C94.0849 13.5407 92.7437 13.5752 92.3876 14.6827C92.3845 14.689 92.3813 14.6968 92.3797 14.7031C92.1586 15.4232 92.5507 16.1871 93.0292 16.7691V16.7707Z" fill="url(#paint30_linear_28963_361434)"/>
<path d="M96.4038 17.1037C96.3897 17.1163 96.374 17.1272 96.3567 17.1382C96.2093 17.2323 96.0147 17.2088 95.85 17.1476C95.4155 16.9829 94.8053 16.2895 95.0406 15.7938C95.2445 15.3624 95.8657 15.4628 96.1575 15.7405C96.4493 16.0182 96.8117 16.7774 96.4038 17.1053V17.1037Z" fill="url(#paint31_linear_28963_361434)"/>
<path style="mix-blend-mode:multiply" d="M92.3883 14.6837C92.7773 14.4484 93.2715 14.37 93.7248 14.45C94.3852 14.566 94.9673 14.9661 95.4489 15.432C96.0089 15.9748 96.4654 16.6226 96.7885 17.3317C96.7791 17.1999 96.7556 17.0666 96.7242 16.9411C96.4685 15.9057 95.7626 14.8029 94.9014 14.1566C94.0841 13.5417 92.7428 13.5762 92.3867 14.6837H92.3883Z" fill="url(#paint32_linear_28963_361434)"/>
<path d="M84.3336 20.7548C84.3336 20.8301 84.3383 20.9023 84.3477 20.9744C84.4214 21.5125 84.7226 21.991 85.0725 22.4082C85.5023 22.9228 86.0105 23.3683 86.5753 23.7275C86.9392 23.9597 87.3549 24.1605 87.7832 24.1103C88.2381 24.0554 88.6162 23.7071 88.7919 23.2804C88.8327 23.18 88.8656 23.0765 88.8829 22.9698C89.1448 21.4498 86.6271 18.6025 84.9501 19.5626C84.5438 19.7979 84.3336 20.2795 84.332 20.7532L84.3336 20.7548Z" fill="url(#paint33_linear_28963_361434)"/>
<path d="M88.4448 22.5178C88.4307 22.5303 88.415 22.5413 88.3977 22.5523C88.2503 22.6464 88.0558 22.6229 87.891 22.5617C87.4565 22.397 86.8463 21.7036 87.0816 21.2079C87.2855 20.7765 87.9067 20.8769 88.1985 21.1546C88.4903 21.4322 88.8527 22.1915 88.4448 22.5193V22.5178Z" fill="url(#paint34_linear_28963_361434)"/>
<path style="mix-blend-mode:multiply" d="M84.332 20.7548C84.6066 20.4081 85.0254 20.176 85.4694 20.1461C85.9996 20.1132 86.5126 20.3532 86.9455 20.6591C87.835 21.2882 88.4923 22.2341 88.7919 23.2804C88.8327 23.18 88.8656 23.0765 88.8829 22.9698C89.1449 21.4498 86.6271 18.6025 84.9501 19.5626C84.5438 19.7979 84.3336 20.2795 84.332 20.7532V20.7548Z" fill="url(#paint35_linear_28963_361434)"/>
<path style="mix-blend-mode:multiply" opacity="0.69" d="M68.0314 13.8303C66.4689 15.2876 65.0085 16.8548 63.7378 18.5756C62.4389 20.3593 61.162 22.1774 60.1266 24.1273C60.0827 24.2262 60.0011 24.3234 60.0356 24.4364C60.0811 24.6183 60.3478 24.656 60.4388 24.4897C61.0945 23.1657 61.9401 21.9484 62.7668 20.7279C64.3276 18.4501 66.083 16.37 68.1788 14.3966C68.2981 14.2554 68.5224 14.1613 68.5302 13.9573C68.5192 13.6828 68.1898 13.6169 68.033 13.8318L68.0314 13.8303Z" fill="url(#paint36_linear_28963_361434)"/>
<path style="mix-blend-mode:multiply" opacity="0.69" d="M88.3908 9.58248C88.2199 9.56365 88.0489 9.66091 87.881 9.69072C87.6096 9.76445 87.3382 9.83975 87.0684 9.91505C82.7199 11.1277 78.3856 12.5191 74.4214 14.7137C73.6826 15.1326 72.9374 15.5436 72.2378 16.0268C72.0354 16.146 72.2111 16.466 72.4245 16.3452C76.7463 13.5341 81.4399 11.9308 86.3986 10.5253C86.9382 10.3715 87.4779 10.2194 88.0191 10.0735C88.1963 9.99819 88.5007 10.0327 88.5383 9.80524C88.5571 9.70798 88.4881 9.60914 88.3924 9.58248H88.3908Z" fill="url(#paint37_linear_28963_361434)"/>
<path style="mix-blend-mode:multiply" opacity="0.69" d="M68.3183 20.1391C66.1393 21.6184 64.0827 23.286 62.1783 25.1057C61.5618 25.7049 60.9814 26.3418 60.4622 27.0289C60.4512 27.0477 60.4386 27.0572 60.3618 27.1591C60.2865 27.2501 60.2237 27.3552 60.1563 27.454C60.0998 27.5372 60.0355 27.6313 60.0668 27.7364C60.1468 27.9764 60.4025 27.9247 60.5469 27.7741C61.2998 27.1481 61.8332 26.7293 62.616 26.1646C63.8145 25.3143 65.0585 24.5284 66.3386 23.8083C66.5017 23.7158 66.6711 23.6311 66.839 23.5464C66.9143 23.4993 67.0115 23.4773 67.0633 23.4005C67.1292 23.3268 67.1323 23.2091 67.0821 23.126C66.8766 22.8859 66.759 23.046 66.5598 23.1291C66.2994 23.2781 66.0405 23.4287 65.7832 23.5825C64.6836 24.2445 63.5902 24.9159 62.5423 25.6563C62.263 25.8508 61.9399 26.0908 61.6167 26.3371C62.6819 25.1669 64.0482 23.9825 65.2718 22.9691C66.1566 22.2538 66.8217 21.7282 67.719 21.0756C67.9857 20.8827 68.254 20.6882 68.5285 20.5062C68.5771 20.478 68.6116 20.4325 68.6257 20.3791C68.6791 20.205 68.4704 20.0403 68.3136 20.1391H68.3183Z" fill="url(#paint38_linear_28963_361434)"/>
<path style="mix-blend-mode:multiply" opacity="0.49" d="M51.3306 60.4625C51.3306 60.6696 51.2866 60.8657 51.2082 61.0445C50.9854 61.5512 50.4788 61.9058 49.8889 61.9058C49.092 61.9058 48.4473 61.261 48.4473 60.4641C48.4473 60.006 48.6606 59.5966 48.9947 59.3346C49.2395 59.1385 49.5501 59.0225 49.8889 59.0225C50.6843 59.0225 51.3306 59.6688 51.3306 60.4641V60.4625Z" fill="url(#paint39_linear_28963_361434)"/>
<path d="M51.3911 60.3053C51.3911 60.5124 51.3472 60.7085 51.2687 60.8873C51.046 61.394 50.5393 61.7485 49.9495 61.7485C49.1526 61.7485 48.5078 61.1038 48.5078 60.3069C48.5078 59.8488 48.7212 59.4394 49.0553 59.1774C49.3 58.9813 49.6106 58.8652 49.9495 58.8652C50.7448 58.8652 51.3911 59.5115 51.3911 60.3069V60.3053Z" fill="url(#paint40_linear_28963_361434)"/>
<path style="mix-blend-mode:multiply" opacity="0.12" d="M51.2687 60.8867C51.046 61.3934 50.5393 61.7479 49.9495 61.7479C49.1526 61.7479 48.5078 61.1031 48.5078 60.3062C48.5078 59.8482 48.7212 59.4387 49.0553 59.1768C48.9925 59.3556 48.9533 59.5407 48.9423 59.7305C48.9172 60.1572 49.0553 60.6059 49.3675 60.8992C49.7455 61.2585 50.3432 61.3384 50.8279 61.1486C50.9895 61.0859 51.137 60.9965 51.2703 60.8882L51.2687 60.8867Z" fill="url(#paint41_linear_28963_361434)"/>
<path style="mix-blend-mode:multiply" opacity="0.49" d="M96.6724 73.0748C96.6724 73.2819 96.6284 73.478 96.55 73.6568C96.3272 74.1635 95.8206 74.5181 95.2307 74.5181C94.4338 74.5181 93.7891 73.8733 93.7891 73.0764C93.7891 72.6184 94.0024 72.2089 94.3365 71.9469C94.5813 71.7508 94.8919 71.6348 95.2307 71.6348C96.0261 71.6348 96.6724 72.2811 96.6724 73.0764V73.0748Z" fill="url(#paint42_linear_28963_361434)"/>
<path d="M96.7329 72.9186C96.7329 73.1257 96.689 73.3217 96.6105 73.5006C96.3878 74.0073 95.8811 74.3618 95.2913 74.3618C94.4944 74.3618 93.8496 73.7171 93.8496 72.9202C93.8496 72.4621 94.063 72.0527 94.3971 71.7907C94.6418 71.5946 94.9524 71.4785 95.2913 71.4785C96.0866 71.4785 96.7329 72.1248 96.7329 72.9202V72.9186Z" fill="url(#paint43_linear_28963_361434)"/>
<path style="mix-blend-mode:multiply" opacity="0.12" d="M96.6105 73.499C96.3878 74.0057 95.8811 74.3602 95.2913 74.3602C94.4944 74.3602 93.8496 73.7154 93.8496 72.9185C93.8496 72.4605 94.063 72.051 94.3971 71.7891C94.3343 71.9679 94.2951 72.153 94.2841 72.3428C94.259 72.7695 94.3971 73.2182 94.7093 73.5115C95.0873 73.8707 95.685 73.9508 96.1697 73.7609C96.3313 73.6982 96.4788 73.6088 96.6121 73.5005L96.6105 73.499Z" fill="url(#paint44_linear_28963_361434)"/>
<path d="M43.1168 60.3049C39.2154 63.2823 35.1054 65.9836 30.8259 68.3838C28.4493 66.7899 26.9245 64.9592 26.1621 62.843C26.7865 62.6234 27.4092 62.4022 28.0352 62.1795C32.5468 60.5747 37.0914 58.8946 41.6124 57.1533C41.6124 57.1533 42.9756 59.8641 43.1074 60.2641C43.1137 60.2829 43.1168 60.2955 43.1168 60.3049Z" fill="url(#paint45_linear_28963_361434)"/>
<path style="mix-blend-mode:multiply" opacity="0.04" d="M43.1168 60.3054C39.2154 63.2829 35.1054 65.9842 30.8259 68.3843C28.4493 66.7905 26.9245 64.9598 26.1621 62.8436C26.7865 62.624 27.4092 62.4028 28.0352 62.1801C28.4493 63.4209 29.7278 64.3229 31.0487 64.5551C32.5672 64.8233 34.1186 64.3951 35.5713 63.8774C38.2004 62.9393 40.712 61.7 43.1074 60.2646C43.1137 60.2835 43.1168 60.296 43.1168 60.3054Z" fill="url(#paint46_linear_28963_361434)"/>
<path style="mix-blend-mode:multiply" opacity="0.49" d="M41.7694 59.6714C41.7694 59.8252 41.738 59.9711 41.6784 60.1013C41.5121 60.4777 41.1372 60.7382 40.7011 60.7382C40.1113 60.7382 39.6328 60.2597 39.6328 59.6699C39.6328 59.331 39.7913 59.0282 40.0391 58.8322C40.2211 58.6878 40.4517 58.6016 40.7011 58.6016C41.2909 58.6016 41.7694 59.08 41.7694 59.6699V59.6714Z" fill="url(#paint47_linear_28963_361434)"/>
<path d="M41.8124 59.5572C41.8124 59.7109 41.781 59.8568 41.7214 59.987C41.5551 60.3635 41.1802 60.6239 40.7441 60.6239C40.1542 60.6239 39.6758 60.1454 39.6758 59.5556C39.6758 59.2168 39.8342 58.914 40.0821 58.7179C40.2641 58.5736 40.4947 58.4873 40.7441 58.4873C41.3339 58.4873 41.8124 58.9658 41.8124 59.5556V59.5572Z" fill="url(#paint48_linear_28963_361434)"/>
<path style="mix-blend-mode:multiply" opacity="0.12" d="M41.7214 59.9869C41.5551 60.3634 41.1802 60.6238 40.7441 60.6238C40.1542 60.6238 39.6758 60.1453 39.6758 59.5555C39.6758 59.2166 39.8342 58.9139 40.0821 58.7178C40.0366 58.8495 40.0052 58.9876 39.9974 59.1272C39.9801 59.4441 40.0821 59.7751 40.3111 59.9931C40.5919 60.2583 41.0327 60.3179 41.3935 60.1782C41.5127 60.1328 41.6226 60.0669 41.7214 59.9853V59.9869Z" fill="url(#paint49_linear_28963_361434)"/>
<g opacity="0.2">
<path d="M55.752 103.821C58.6117 96.7841 60.6605 89.419 61.848 81.9158C61.7241 77.343 61.5578 72.8879 61.106 68.7559C61.4025 80.4883 59.4965 92.2709 55.7535 103.821H55.752Z" fill="url(#paint50_linear_28963_361434)"/>
<path d="M51.0454 51.5391C52.3255 56.446 54.5625 61.1004 57.4003 64.983C55.2276 62.6644 53.3295 60.0901 51.7733 57.3261C51.2321 55.5785 50.9795 53.7415 51.0454 51.5391Z" fill="url(#paint51_linear_28963_361434)"/>
<path d="M98.2947 70.8038C97.6327 64.1305 95.9166 57.5623 93.1133 51.3564C94.7275 57.5748 96.3433 63.7932 98.2947 70.8038Z" fill="url(#paint52_linear_28963_361434)"/>
</g>
<defs>
<linearGradient id="paint0_linear_28963_361434" x1="51.2939" y1="74.941" x2="59.994" y2="29.6631" gradientUnits="userSpaceOnUse">
<stop stop-color="#363636"/>
<stop offset="1" stop-color="#131313"/>
</linearGradient>
<linearGradient id="paint1_linear_28963_361434" x1="51.2032" y1="75.9142" x2="60.523" y2="27.4127" gradientUnits="userSpaceOnUse">
<stop stop-color="#363636"/>
<stop offset="1" stop-color="#131313"/>
</linearGradient>
<linearGradient id="paint2_linear_28963_361434" x1="53.4877" y1="39.8192" x2="82.7615" y2="44.7074" gradientUnits="userSpaceOnUse">
<stop stop-color="#363636"/>
<stop offset="1" stop-color="#131313"/>
</linearGradient>
<linearGradient id="paint3_linear_28963_361434" x1="53.9146" y1="39.4914" x2="81.5319" y2="44.1018" gradientUnits="userSpaceOnUse">
<stop stop-color="#363636"/>
<stop offset="1" stop-color="#131313"/>
</linearGradient>
<linearGradient id="paint4_linear_28963_361434" x1="36.4008" y1="166.305" x2="54.5509" y2="63.2587" gradientUnits="userSpaceOnUse">
<stop stop-color="#454347"/>
<stop offset="1" stop-color="#626163"/>
</linearGradient>
<linearGradient id="paint5_linear_28963_361434" x1="96.4754" y1="78.3639" x2="21.8422" y2="78.3639" gradientUnits="userSpaceOnUse">
<stop stop-color="#454347"/>
<stop offset="1" stop-color="#626163"/>
</linearGradient>
<linearGradient id="paint6_linear_28963_361434" x1="63.8571" y1="162.416" x2="76.8068" y2="88.8993" gradientUnits="userSpaceOnUse">
<stop stop-color="#454347"/>
<stop offset="1" stop-color="#626163"/>
</linearGradient>
<linearGradient id="paint7_linear_28963_361434" x1="80.084" y1="73.1204" x2="60.0704" y2="20.6014" gradientUnits="userSpaceOnUse">
<stop stop-color="#FFC493"/>
<stop offset="1" stop-color="#FFB073"/>
</linearGradient>
<linearGradient id="paint8_linear_28963_361434" x1="5.56715" y1="61.1435" x2="52.3541" y2="146.08" gradientUnits="userSpaceOnUse">
<stop stop-color="#363636"/>
<stop offset="1" stop-color="#131313"/>
</linearGradient>
<linearGradient id="paint9_linear_28963_361434" x1="32.2338" y1="58.0488" x2="36.6026" y2="65.9786" gradientUnits="userSpaceOnUse">
<stop stop-color="#363636"/>
<stop offset="1" stop-color="#131313"/>
</linearGradient>
<linearGradient id="paint10_linear_28963_361434" x1="29.3229" y1="54.6331" x2="62.7821" y2="115.374" gradientUnits="userSpaceOnUse">
<stop stop-color="#363636"/>
<stop offset="1" stop-color="#131313"/>
</linearGradient>
<linearGradient id="paint11_linear_28963_361434" x1="17.8272" y1="70.8896" x2="47.8948" y2="125.475" gradientUnits="userSpaceOnUse">
<stop stop-color="#363636"/>
<stop offset="1" stop-color="#131313"/>
</linearGradient>
<linearGradient id="paint12_linear_28963_361434" x1="89.2791" y1="43.2944" x2="51.677" y2="43.2944" gradientUnits="userSpaceOnUse">
<stop stop-color="#FFC493"/>
<stop offset="1" stop-color="#FFB073"/>
</linearGradient>
<linearGradient id="paint13_linear_28963_361434" x1="75.7321" y1="52.8111" x2="66.9912" y2="74.4892" gradientUnits="userSpaceOnUse">
<stop stop-color="#363636"/>
<stop offset="1" stop-color="#131313"/>
</linearGradient>
<linearGradient id="paint14_linear_28963_361434" x1="93.8356" y1="71.065" x2="30.5646" y2="148.315" gradientUnits="userSpaceOnUse">
<stop stop-color="#363636"/>
<stop offset="1" stop-color="#131313"/>
</linearGradient>
<linearGradient id="paint15_linear_28963_361434" x1="65.9296" y1="48.2702" x2="94.2638" y2="29.3813" gradientUnits="userSpaceOnUse">
<stop stop-color="#FFC493"/>
<stop offset="1" stop-color="#FFB073"/>
</linearGradient>
<linearGradient id="paint16_linear_28963_361434" x1="92.9478" y1="44.6114" x2="87.6942" y2="33.8061" gradientUnits="userSpaceOnUse">
<stop stop-color="#FFF4EF"/>
<stop offset="1" stop-color="#F6DFD7"/>
</linearGradient>
<linearGradient id="paint17_linear_28963_361434" x1="87.9982" y1="46.1501" x2="88.6555" y2="37.7339" gradientUnits="userSpaceOnUse">
<stop stop-color="#FFF4EF"/>
<stop offset="1" stop-color="#F6DFD7"/>
</linearGradient>
<linearGradient id="paint18_linear_28963_361434" x1="53.7337" y1="26.4538" x2="67.3643" y2="37.6826" gradientUnits="userSpaceOnUse">
<stop stop-color="#363636"/>
<stop offset="1" stop-color="#131313"/>
</linearGradient>
<linearGradient id="paint19_linear_28963_361434" x1="99.926" y1="30.4821" x2="86.5841" y2="22.7813" gradientUnits="userSpaceOnUse">
<stop stop-color="#FF9762"/>
<stop offset="1" stop-color="#FFB073"/>
</linearGradient>
<linearGradient id="paint20_linear_28963_361434" x1="75.0459" y1="21.2985" x2="114.701" y2="27.498" gradientUnits="userSpaceOnUse">
<stop stop-color="#454347"/>
<stop offset="1" stop-color="#626163"/>
</linearGradient>
<linearGradient id="paint21_linear_28963_361434" x1="81.9891" y1="18.0486" x2="81.8699" y2="16.7356" gradientUnits="userSpaceOnUse">
<stop stop-color="#FFF4EF"/>
<stop offset="1" stop-color="#F6DFD7"/>
</linearGradient>
<linearGradient id="paint22_linear_28963_361434" x1="99.8093" y1="22.166" x2="60.993" y2="22.166" gradientUnits="userSpaceOnUse">
<stop stop-color="#454347"/>
<stop offset="1" stop-color="#626163"/>
</linearGradient>
<linearGradient id="paint23_linear_28963_361434" x1="91.6151" y1="12.3821" x2="90.004" y2="12.0229" gradientUnits="userSpaceOnUse">
<stop stop-color="#FFF4EF"/>
<stop offset="1" stop-color="#F6DFD7"/>
</linearGradient>
<linearGradient id="paint24_linear_28963_361434" x1="81.9254" y1="4.73628" x2="73.6473" y2="36.018" gradientUnits="userSpaceOnUse">
<stop stop-color="#363636"/>
<stop offset="1" stop-color="#131313"/>
</linearGradient>
<linearGradient id="paint25_linear_28963_361434" x1="59.0096" y1="67.7323" x2="16.5837" y2="151.357" gradientUnits="userSpaceOnUse">
<stop stop-color="#363636"/>
<stop offset="1" stop-color="#131313"/>
</linearGradient>
<linearGradient id="paint26_linear_28963_361434" x1="75.5862" y1="13.3316" x2="69.8337" y2="35.0677" gradientUnits="userSpaceOnUse">
<stop stop-color="#363636"/>
<stop offset="1" stop-color="#131313"/>
</linearGradient>
<linearGradient id="paint27_linear_28963_361434" x1="101.842" y1="58.4793" x2="70.9977" y2="38.2632" gradientUnits="userSpaceOnUse">
<stop stop-color="#FFC493"/>
<stop offset="1" stop-color="#FFB073"/>
</linearGradient>
<linearGradient id="paint28_linear_28963_361434" x1="63.2959" y1="34.6365" x2="68.6829" y2="34.6365" gradientUnits="userSpaceOnUse">
<stop stop-color="#FFC493"/>
<stop offset="1" stop-color="#FFB073"/>
</linearGradient>
<linearGradient id="paint29_linear_28963_361434" x1="4.71691" y1="72.0954" x2="46.9028" y2="148.679" gradientUnits="userSpaceOnUse">
<stop stop-color="#363636"/>
<stop offset="1" stop-color="#131313"/>
</linearGradient>
<linearGradient id="paint30_linear_28963_361434" x1="97.122" y1="17.1848" x2="92.259" y2="15.0843" gradientUnits="userSpaceOnUse">
<stop stop-color="#FFF4EF"/>
<stop offset="1" stop-color="#F6DFD7"/>
</linearGradient>
<linearGradient id="paint31_linear_28963_361434" x1="97.3482" y1="16.8511" x2="95.0625" y2="16.0887" gradientUnits="userSpaceOnUse">
<stop stop-color="#363636"/>
<stop offset="1" stop-color="#131313"/>
</linearGradient>
<linearGradient id="paint32_linear_28963_361434" x1="94.4574" y1="16.221" x2="95.3077" y2="14.6539" gradientUnits="userSpaceOnUse">
<stop stop-color="#FFF4EF"/>
<stop offset="1" stop-color="#D7C2BB"/>
</linearGradient>
<linearGradient id="paint33_linear_28963_361434" x1="89.1856" y1="22.9887" x2="84.8199" y2="20.7768" gradientUnits="userSpaceOnUse">
<stop stop-color="#FFF4EF"/>
<stop offset="1" stop-color="#F6DFD7"/>
</linearGradient>
<linearGradient id="paint34_linear_28963_361434" x1="89.3892" y1="22.2636" x2="87.1035" y2="21.5012" gradientUnits="userSpaceOnUse">
<stop stop-color="#363636"/>
<stop offset="1" stop-color="#131313"/>
</linearGradient>
<linearGradient id="paint35_linear_28963_361434" x1="88.9001" y1="21.3258" x2="84.332" y2="21.3258" gradientUnits="userSpaceOnUse">
<stop stop-color="#FFF4EF"/>
<stop offset="1" stop-color="#D7C2BB"/>
</linearGradient>
<linearGradient id="paint36_linear_28963_361434" x1="60.0262" y1="19.1482" x2="68.5287" y2="19.1482" gradientUnits="userSpaceOnUse">
<stop stop-color="#454347"/>
<stop offset="1" stop-color="#626163"/>
</linearGradient>
<linearGradient id="paint37_linear_28963_361434" x1="72.1468" y1="12.9772" x2="88.5383" y2="12.9772" gradientUnits="userSpaceOnUse">
<stop stop-color="#454347"/>
<stop offset="1" stop-color="#626163"/>
</linearGradient>
<linearGradient id="paint38_linear_28963_361434" x1="60.059" y1="24.0044" x2="68.6399" y2="24.0044" gradientUnits="userSpaceOnUse">
<stop stop-color="#454347"/>
<stop offset="1" stop-color="#626163"/>
</linearGradient>
<linearGradient id="paint39_linear_28963_361434" x1="49.6411" y1="61.865" x2="50.0254" y2="59.686" gradientUnits="userSpaceOnUse">
<stop stop-color="#454347"/>
<stop offset="1" stop-color="#626163"/>
</linearGradient>
<linearGradient id="paint40_linear_28963_361434" x1="49.7016" y1="61.7093" x2="50.0859" y2="59.5288" gradientUnits="userSpaceOnUse">
<stop stop-color="#454347"/>
<stop offset="1" stop-color="#626163"/>
</linearGradient>
<linearGradient id="paint41_linear_28963_361434" x1="49.6796" y1="61.7071" x2="49.9997" y2="59.8937" gradientUnits="userSpaceOnUse">
<stop stop-color="#454347"/>
<stop offset="1" stop-color="#626163"/>
</linearGradient>
<linearGradient id="paint42_linear_28963_361434" x1="94.9829" y1="74.4788" x2="95.3672" y2="72.2983" gradientUnits="userSpaceOnUse">
<stop stop-color="#454347"/>
<stop offset="1" stop-color="#626163"/>
</linearGradient>
<linearGradient id="paint43_linear_28963_361434" x1="95.0434" y1="74.321" x2="95.4277" y2="72.1421" gradientUnits="userSpaceOnUse">
<stop stop-color="#454347"/>
<stop offset="1" stop-color="#626163"/>
</linearGradient>
<linearGradient id="paint44_linear_28963_361434" x1="95.023" y1="74.321" x2="95.343" y2="72.5075" gradientUnits="userSpaceOnUse">
<stop stop-color="#454347"/>
<stop offset="1" stop-color="#626163"/>
</linearGradient>
<linearGradient id="paint45_linear_28963_361434" x1="27.4939" y1="53.1107" x2="43.5043" y2="71.5808" gradientUnits="userSpaceOnUse">
<stop stop-color="#363636"/>
<stop offset="1" stop-color="#131313"/>
</linearGradient>
<linearGradient id="paint46_linear_28963_361434" x1="36.9188" y1="54.5828" x2="22.3862" y2="99.1641" gradientUnits="userSpaceOnUse">
<stop stop-color="#363636"/>
<stop offset="1" stop-color="#131313"/>
</linearGradient>
<linearGradient id="paint47_linear_28963_361434" x1="40.5191" y1="60.7115" x2="40.8031" y2="59.0957" gradientUnits="userSpaceOnUse">
<stop stop-color="#454347"/>
<stop offset="1" stop-color="#626163"/>
</linearGradient>
<linearGradient id="paint48_linear_28963_361434" x1="40.5621" y1="60.5957" x2="40.846" y2="58.9814" gradientUnits="userSpaceOnUse">
<stop stop-color="#454347"/>
<stop offset="1" stop-color="#626163"/>
</linearGradient>
<linearGradient id="paint49_linear_28963_361434" x1="40.5464" y1="60.5955" x2="40.7833" y2="59.2511" gradientUnits="userSpaceOnUse">
<stop stop-color="#454347"/>
<stop offset="1" stop-color="#626163"/>
</linearGradient>
<linearGradient id="paint50_linear_28963_361434" x1="54.7009" y1="103.561" x2="63.1594" y2="69.261" gradientUnits="userSpaceOnUse">
<stop stop-color="#FFFAF4"/>
<stop offset="1" stop-color="#FAECDD"/>
</linearGradient>
<linearGradient id="paint51_linear_28963_361434" x1="52.8416" y1="63.8598" x2="55.6025" y2="52.6638" gradientUnits="userSpaceOnUse">
<stop stop-color="#FFFAF4"/>
<stop offset="1" stop-color="#FAECDD"/>
</linearGradient>
<linearGradient id="paint52_linear_28963_361434" x1="93.5917" y1="69.6445" x2="97.8147" y2="52.5157" gradientUnits="userSpaceOnUse">
<stop stop-color="#FFFAF4"/>
<stop offset="1" stop-color="#FAECDD"/>
</linearGradient>
</defs>
</svg>
