<svg width="480" height="480" viewBox="0 0 480 480" fill="none" xmlns="http://www.w3.org/2000/svg">
<g clip-path="url(#clip0_26486_106946)">
<rect width="480" height="480" rx="8" fill="white"/>
<path d="M139.639 253.889C142.109 261.439 140.639 269.839 137.289 277.039C133.939 284.239 128.859 290.479 123.809 296.459C105.619 308.529 89.3593 323.489 75.8193 340.609C76.0893 318.679 83.6694 296.889 97.2794 279.689C107.579 263.919 124.739 252.809 139.639 253.889Z" fill="url(#paint0_linear_26486_106946)"/>
<path style="mix-blend-mode:multiply" d="M66.42 332.759C75.99 321.619 89.31 314.449 102.64 308.289C115.97 302.129 129.79 296.619 141.58 287.869C148.6 282.659 155.01 276.019 157.57 267.659C160.13 259.309 157.91 249.049 150.63 244.219C143.82 239.699 134.46 240.959 127.36 245.019C120.27 249.079 114.87 255.469 109.36 261.509C103.85 267.549 97.82 273.529 90.14 276.329C86.26 277.739 82.05 278.309 78.46 280.339C73.63 283.059 70.55 288.079 68.4 293.189C63.54 304.749 62.52 317.889 66.41 332.759H66.42Z" fill="url(#paint1_linear_26486_106946)"/>
<path d="M104.839 298.94C98.0593 302.61 90.4293 304.34 83.1493 306.9C71.3793 311.04 60.3993 317.42 50.9493 325.6C49.3493 326.98 47.7893 328.42 46.2793 329.91C48.8093 318.07 51.3793 306.14 56.2593 295.06C61.1393 283.98 68.5593 273.67 78.8993 267.4C83.4693 264.63 88.4893 262.7 93.4792 260.79C97.7292 259.16 101.989 257.53 106.239 255.91C112.249 253.6 118.269 251.31 124.269 249.01C131.339 267.79 122.669 289.3 104.819 298.95L104.839 298.94Z" fill="url(#paint2_linear_26486_106946)"/>
<path style="mix-blend-mode:multiply" opacity="0.3" d="M104.839 298.94C98.0592 302.61 90.4292 304.34 83.1492 306.9C71.3792 311.04 60.3992 317.42 50.9492 325.6C54.7792 317.24 60.1992 309.6 66.8892 303.28C76.1792 294.48 87.7492 288.22 96.3092 278.71C100.579 273.97 104.069 268.37 105.529 262.16C106.009 260.12 106.249 258.02 106.239 255.91C112.249 253.6 118.269 251.31 124.269 249.01C131.339 267.79 122.669 289.3 104.819 298.95L104.839 298.94Z" fill="url(#paint3_linear_26486_106946)"/>
<path d="M354.879 622.658C353.689 638.858 349.429 654.339 343.299 669.259C332.599 695.259 316.179 719.559 300.339 743.069C296.059 749.409 291.789 755.769 287.539 762.149C271.099 786.759 254.759 811.538 238.199 836.168C236.999 837.948 235.789 839.739 234.579 841.519C230.599 847.439 226.599 853.339 222.569 859.229C217.559 866.569 212.519 873.899 207.439 881.179C199.709 892.309 191.889 903.359 183.939 914.299C165.759 939.369 146.979 963.899 127.229 987.519C118.619 997.839 109.819 1007.98 100.809 1017.91C96.3192 1022.86 91.7692 1027.77 87.1792 1032.62C78.6892 1041.57 70.0092 1050.34 61.1192 1058.9C54.6692 1065.1 48.1092 1071.2 41.4192 1077.17C34.8292 1083.06 28.1192 1088.84 21.2792 1094.5C2.90924 1095.89 -15.5508 1096.15 -33.9708 1095.29H-33.9908C-132.521 1090.79 -230.021 1055.12 -309.301 996.519C-307.991 987.389 -306.631 978.249 -305.201 969.119C-299.201 930.669 -292.161 892.309 -284.131 854.109C-280.351 836.109 -276.351 818.159 -272.121 800.259C-272.071 800.059 -272.021 799.849 -271.981 799.639C-269.921 790.889 -267.801 782.158 -265.631 773.428C-258.561 744.928 -250.951 716.569 -242.791 688.379C-235.201 662.109 -227.161 635.999 -218.671 610.069V610.048C-217.501 606.499 -216.331 602.948 -215.151 599.408C-211.611 588.768 -207.991 578.168 -204.311 567.598C-199.391 553.508 -194.341 539.458 -189.171 525.478C-189.051 525.158 -188.941 524.839 -188.811 524.529C-177.121 493.019 -163.551 460.159 -136.811 439.819C-131.681 435.909 -126.221 432.579 -120.511 429.699C-101.371 419.979 -79.5908 415.089 -58.7608 409.089C-48.9608 406.259 -39.2508 403.118 -29.6508 399.689C5.14917 387.219 38.5192 370.789 69.6692 350.879C103.339 329.369 134.419 303.779 161.879 274.749C176.429 274.699 176.499 266.189 186.359 255.479C226.979 277.249 267.859 300.859 307.369 324.589C307.839 379.148 317.139 433.089 329.429 486.379C333.549 504.249 337.999 522.049 342.579 539.779C344.919 548.819 347.279 557.928 349.329 567.069C353.439 585.419 356.259 603.969 354.889 622.649L354.879 622.658Z" fill="url(#paint4_linear_26486_106946)"/>
<path style="mix-blend-mode:multiply" opacity="0.32" d="M-120.521 429.719C-57.7105 495.599 12.6795 554.749 92.4595 598.399C169.62 640.619 255.71 666.549 343.31 669.249C349.44 654.329 353.7 638.859 354.89 622.649C356.26 603.979 353.439 585.429 349.329 567.079C277.439 573.269 204.02 561.139 138.05 531.939C72.2596 502.829 14.0595 456.819 -29.6505 399.699C-39.2505 403.139 -48.9605 406.279 -58.7605 409.109C-79.5905 415.119 -101.37 419.999 -120.51 429.719H-120.521Z" fill="url(#paint5_linear_26486_106946)"/>
<path style="mix-blend-mode:multiply" opacity="0.49" d="M323.839 568.508C321.439 583.858 317.159 598.828 311.949 613.248C305.579 630.858 297.889 647.898 289.709 664.738C277.719 689.438 264.699 713.718 253.289 738.698C251.269 743.128 249.289 747.598 247.389 752.098C236.419 777.968 227.609 805.038 224.149 832.598C223.039 841.428 222.479 850.328 222.569 859.238C217.559 866.578 212.519 873.908 207.439 881.188C199.709 892.318 191.889 903.368 183.939 914.308C165.759 939.378 146.979 963.908 127.229 987.528C118.619 997.848 109.819 1007.99 100.809 1017.92C96.3191 1022.87 91.7691 1027.78 87.1791 1032.63C78.6891 1041.58 70.0091 1050.35 61.1191 1058.91C66.5991 1049.4 72.0091 1039.86 77.3491 1030.28C86.6391 1013.65 95.7392 996.928 104.649 980.088C118.149 954.598 131.219 928.878 143.849 902.948C157.099 875.788 169.849 848.388 182.129 820.768C193.589 794.988 204.619 769.028 215.219 742.888C226.719 714.558 237.719 686.018 248.199 657.298C259.079 627.518 269.399 597.528 279.159 567.358C289.319 535.978 298.859 504.408 307.799 472.658C325.899 505.138 328.679 537.578 323.839 568.488V568.508Z" fill="url(#paint6_linear_26486_106946)"/>
<path d="M69.6594 350.89C72.1494 354.75 74.7294 358.55 77.4094 362.29C105.739 401.98 143.959 434.62 187.729 456.17C231.499 477.72 280.669 488.14 329.419 486.4C320.279 446.74 312.789 406.71 309.359 366.34C308.169 352.47 307.479 338.56 307.359 324.62C267.849 300.88 226.979 277.27 186.349 255.5C176.499 266.21 176.429 274.72 161.869 274.77C134.399 303.79 103.329 329.38 69.6494 350.89H69.6594Z" fill="url(#paint7_linear_26486_106946)"/>
<path d="M126.039 475.759C108.849 569.269 82.9692 662.738 51.9692 754.488C14.7292 864.698 -32.6907 976.318 -114.581 1057.7C-122.371 1065.44 -130.471 1072.91 -138.911 1080.08C-204.811 1050.78 -265.491 1006.89 -315.971 953.349C-290.641 836.129 -258.131 719.708 -218.861 605.499C-210.791 581.989 -202.421 558.559 -193.771 535.238C-180.451 499.339 -165.181 461.928 -135.051 438.309C-113.391 421.329 -86.2607 413.299 -60.0007 405.089C-1.67072 386.849 56.4893 365.629 107.339 331.729C107.199 383.699 111.319 431.469 126.019 475.759H126.039Z" fill="url(#paint8_linear_26486_106946)"/>
<path style="mix-blend-mode:multiply" opacity="0.47" d="M4.32947 399.719C-23.3805 410.259 -66.5505 428.639 -98.5605 435.069C-92.2505 451.529 -78.5306 468.179 -63.4006 475.589C-35.5906 459.789 -9.48053 440.999 14.4595 419.339C11.3595 417.509 9.36947 414.289 7.63947 411.139C5.89947 407.989 6.80947 402.719 4.32947 399.729V399.719Z" fill="url(#paint9_linear_26486_106946)"/>
<path style="mix-blend-mode:multiply" opacity="0.32" d="M72.2001 346.93C51.8001 373.46 34.91 402.69 19.92 435.76C33.01 466.35 55.8001 492.7 84.8101 509.42C62.4801 522.6 41.4701 538.01 24.4001 556.34C28.3601 650.43 24.4801 744.86 12.8301 838.31C49.5001 724.85 86.1701 611.4 122.84 497.94C101.65 452.31 88.7901 402.83 72.2101 346.93H72.2001Z" fill="url(#paint10_linear_26486_106946)"/>
<path style="mix-blend-mode:multiply" opacity="0.46" d="M69.6596 350.89C72.1496 354.75 74.7296 358.55 77.4096 362.29C115.41 345.59 157.21 337.53 198.72 338.98C236.96 340.32 274.88 349.74 309.35 366.34C308.16 352.47 307.47 338.56 307.35 324.62C267.84 300.88 226.97 277.27 186.34 255.5C176.49 266.21 176.42 274.72 161.86 274.77C134.39 303.79 103.32 329.38 69.6396 350.89H69.6596Z" fill="url(#paint11_linear_26486_106946)"/>
<path d="M77.4296 350.639C119.07 418.599 184.76 461.019 262.1 477.559C273.64 480.029 285.3 481.779 297.06 482.779C309.16 483.799 321.27 483.299 333.35 484.089C336.01 484.259 337.02 488.599 334.02 489.069C313.26 492.369 290.58 489.659 269.95 486.499C248.35 483.189 227.3 477.399 207.04 469.179C169.72 454.049 135.99 431.019 107.81 402.269C92.2196 386.379 83.9496 372.549 71.9496 353.829C69.7496 350.389 75.2896 347.139 77.4296 350.629V350.639Z" fill="url(#paint12_linear_26486_106946)"/>
<path d="M322.84 331.879C355.41 386.259 372.39 449.859 372.55 510.069C360 522.539 344.81 532.329 328.59 538.049C345.95 563.169 357.3 592.419 363.31 623.499C308.57 718.879 239.61 806.089 159.14 876.949C200.61 792.279 242.21 707.269 271.65 617.699C301.09 528.129 315.77 431.739 306.19 338.179C311.68 338.459 319.56 340.249 322.84 331.889V331.879Z" fill="url(#paint13_linear_26486_106946)"/>
<path d="M406.21 319.58C402.97 332.24 398.15 345.48 387.54 353.11C375.39 361.84 358.94 360.91 344.18 358.52C339.79 357.81 335.42 356.99 331.08 356.08C306.47 350.93 282.53 342.65 259.96 331.61C239.49 321.6 220.15 309.32 202.42 295.04C193.89 288.15 185.72 280.82 177.98 273.04C173.91 268.94 155.38 249.23 149.67 243.11C148.81 242.19 148.23 241.57 148.05 241.36C150.23 228.86 154.74 217.62 160.9 207.19C175.61 182.29 199.75 162 224.05 140.08C258.53 109 312.03 95.4495 358.35 98.4295C359.32 99.6395 360.28 100.86 361.23 102.08C363.39 104.88 365.48 107.72 367.51 110.61C371.44 116.19 375.13 121.94 378.58 127.82C383.8 136.73 388.46 145.97 392.54 155.45C394.2 159.28 395.76 163.16 397.22 167.08C415.37 215.48 419.04 269.41 406.21 319.55V319.58Z" fill="url(#paint14_linear_26486_106946)"/>
<path d="M257.06 259.489C261.14 264.669 265.42 269.689 269.9 274.529C287.41 293.449 307.99 309.639 331.05 321.239C333.44 322.439 336.15 323.629 338.72 322.869C341.63 322.009 343.28 318.999 344.57 316.249C347.14 310.819 349.58 305.329 351.92 299.789C352.19 299.149 352.47 298.499 352.73 297.849C354.92 292.569 357.01 287.249 359 281.879C360.37 278.189 359.9 276.079 358.44 274.869C355.76 272.679 349.76 273.449 345.47 272.949C334.34 271.659 323.26 269.839 312.29 267.519C293.12 263.439 274.68 257.379 256.14 251.099C248.32 248.449 255.61 257.639 257.06 259.479V259.489Z" fill="url(#paint15_linear_26486_106946)"/>
<path style="mix-blend-mode:multiply" d="M257.959 256.099C264.839 260.929 271.959 265.479 279.269 269.629C291.979 276.869 305.209 283.269 318.769 288.729C325.599 291.489 332.529 293.989 339.559 296.169C343.619 297.429 347.749 298.729 351.909 299.799C352.179 299.159 352.459 298.509 352.719 297.859C351.679 297.589 350.639 297.309 349.599 297.029C345.689 295.949 341.809 294.799 337.939 293.559C323.849 289.049 309.929 283.869 296.609 277.409C283.369 270.989 270.599 263.609 258.309 255.509C257.929 255.259 257.599 255.859 257.949 256.099H257.959Z" fill="url(#paint16_linear_26486_106946)"/>
<path d="M129.029 212.908C124.409 216.898 120.399 221.598 117.629 226.218C114.429 238.698 115.019 252.118 120.359 263.748C130.639 267.648 142.859 265.918 151.639 259.298C146.589 251.738 143.749 242.708 143.559 233.618C143.489 230.508 143.699 227.238 142.279 224.468C140.329 220.658 135.919 218.918 129.029 212.908Z" fill="url(#paint17_linear_26486_106946)"/>
<path d="M321.93 235.399C321.89 234.799 321.93 234.179 321.97 233.579C322.95 219.249 323.93 204.919 324.91 190.589C325.34 184.379 325.14 178.369 324.54 172.129C324.23 168.879 324.33 164.029 322.5 161.159C321.62 159.779 323.35 158.169 324.7 158.959C330.79 162.519 336.08 168.559 341.21 173.389C346.9 178.749 352.55 184.129 358.29 189.439C369.75 200.039 381.57 210.339 391.52 222.419C393.77 225.149 393.51 230.589 389.18 231.289C372.28 234.029 355.14 235.909 338.1 237.419C335.37 237.659 323.97 239.839 322.52 237.509C322.12 236.879 321.97 236.149 321.92 235.399H321.93Z" fill="url(#paint18_linear_26486_106946)"/>
<path d="M393.949 153.919C393.489 154.449 393.029 154.969 392.539 155.479C384.149 164.459 372.219 171.079 359.449 173.529C352.109 174.939 344.409 175.049 337.559 178.049C327.679 182.379 321.319 191.899 314.339 200.109C294.899 222.959 266.669 237.929 236.989 241.999H236.969C233.199 242.509 229.419 242.849 225.629 243.009C220.619 243.219 215.589 243.119 210.579 242.669C207.689 242.409 204.789 242.059 201.889 241.649C200.659 241.479 199.439 241.289 198.209 241.099C196.279 240.809 194.349 240.489 192.419 240.179C183.929 238.789 175.449 237.379 167.069 237.139C166.389 237.119 165.699 237.099 165.019 237.099C162.049 237.079 159.099 237.219 156.159 237.569C154.959 237.709 152.419 240.239 149.699 243.109C146.169 246.829 142.349 251.139 140.809 251.559C135.989 247.059 132.169 242.339 129.069 237.339C137.009 228.889 147.769 218.489 160.929 207.189C205.919 168.509 278.789 119.339 361.259 102.089C363.249 101.669 365.249 101.269 367.259 100.889C369.399 103.449 371.449 106.249 373.389 109.199C374.469 110.829 375.509 112.509 376.509 114.209C386.889 131.729 393.529 151.869 393.979 153.909L393.949 153.919Z" fill="url(#paint19_linear_26486_106946)"/>
<path style="mix-blend-mode:lighten" opacity="0.73" d="M250.69 139.149C245.99 139.629 241.06 140.469 236.91 142.849C234.81 144.059 227.22 150.729 232.41 152.739C233.78 153.269 235.32 152.839 236.73 152.429C253.88 147.409 271.79 145.019 289.66 145.359C291.44 145.389 296.33 144.779 293.97 141.929C293.41 141.249 292.58 140.859 291.76 140.529C286.3 138.359 279.62 138.309 273.8 138.199C266.09 138.049 258.37 138.359 250.69 139.139V139.149Z" fill="url(#paint20_linear_26486_106946)"/>
<path style="mix-blend-mode:multiply" opacity="0.33" d="M201.88 241.649C200.65 241.479 199.43 241.289 198.2 241.099C196.27 240.809 194.34 240.489 192.41 240.179C183.92 238.789 175.44 237.379 167.06 237.139C166.38 237.119 165.69 237.099 165.01 237.099C162.04 237.079 159.09 237.219 156.15 237.569C154.95 237.709 152.41 240.239 149.69 243.109C146.16 246.829 142.34 251.139 140.8 251.559C135.98 247.059 132.16 242.339 129.06 237.339C137 228.889 147.76 218.489 160.92 207.189C205.91 168.509 278.78 119.339 361.25 102.089C363.24 101.669 365.24 101.269 367.25 100.889C369.39 103.449 371.44 106.249 373.38 109.199C374.46 110.829 375.5 112.509 376.5 114.209C301.98 134.139 194.59 187.879 201.9 241.639L201.88 241.649Z" fill="url(#paint21_linear_26486_106946)"/>
<path style="mix-blend-mode:lighten" opacity="0.73" d="M317.859 130.739C317.449 132.349 316.829 133.96 315.519 134.42C311.789 135.73 312.779 128.519 312.829 126.799C312.939 122.899 313.319 118.999 313.959 115.149C314.779 110.229 316.039 105.389 317.709 100.689C318.789 97.6395 320.449 90.3395 325.009 91.1595C327.989 91.6995 331.619 94.7795 331.119 98.0895C330.919 99.3895 330.269 100.57 329.639 101.73C326.649 107.24 324.009 112.929 321.749 118.769C320.589 121.759 319.529 124.779 318.559 127.839C318.319 128.589 318.139 129.669 317.859 130.739Z" fill="url(#paint22_linear_26486_106946)"/>
<path d="M370.119 104.579C365.039 103.779 357.569 104.919 348.349 107.609C338.409 110.509 326.679 115.299 313.829 121.459C254.319 150.009 171.109 208.149 133.649 245.619C125.679 240.089 119.939 221.949 120.859 214.879C116.699 208.289 117.439 199.539 122.129 193.659C117.989 191.889 115.939 188.019 115.509 184.199C114.779 177.419 123.439 133.919 140.769 98.7691C142.029 96.2091 143.599 93.8191 145.489 91.6991C145.619 91.5491 145.749 91.3991 145.889 91.2591C146.719 90.3591 147.599 89.4991 148.539 88.6991C175.479 65.7791 210.779 47.9291 245.449 36.4191C248.059 35.5591 250.779 35.0491 253.519 35.0191C301.969 34.4891 356.479 62.4891 370.129 104.569L370.119 104.579Z" fill="url(#paint23_linear_26486_106946)"/>
<path d="M141.05 558.849C128.13 622.689 108.6 685.189 82.67 744.939C70.28 773.479 56.4301 801.389 41.1401 828.529C25.8701 855.629 9.16004 881.959 -8.95996 907.359C-0.979961 878.079 6.03004 848.539 12.04 818.779C29.93 730.199 39.0001 639.749 38.8801 548.909C59.6601 528.129 81.3901 514.259 99.7601 504.679C76.2701 481.259 53.7501 458.119 35.9601 423.419C44.1201 385.979 63.1501 352.349 91.7601 325.839C107.65 311.109 126.49 298.579 148.06 288.799C144.61 296.369 139.11 303.699 136.48 314.249C133.75 396.869 136.18 477.709 141.06 558.849H141.05Z" fill="url(#paint24_linear_26486_106946)"/>
<path style="mix-blend-mode:multiply" opacity="0.21" d="M313.829 121.469C254.319 150.019 171.109 208.159 133.649 245.629C125.679 240.099 119.939 221.959 120.859 214.889C116.699 208.299 117.439 199.549 122.129 193.669C117.989 191.899 115.939 188.029 115.509 184.209C114.779 177.429 123.439 133.929 140.769 98.779C142.029 96.219 143.599 93.829 145.489 91.709C144.499 95.889 143.509 100.069 142.629 104.269C139.829 117.759 138.269 131.969 142.119 145.209C145.979 158.449 156.269 170.539 169.819 173.059C181.629 175.259 193.439 170.119 204.359 165.109C239.969 148.779 276.329 132.359 313.829 121.459V121.469Z" fill="url(#paint25_linear_26486_106946)"/>
<path d="M178.669 283.47C140.439 282.05 122.829 247.55 133.349 238.35C157.379 217.34 185.039 252.1 190.289 267.16C192.159 272.52 193.579 284.02 178.669 283.47Z" fill="url(#paint26_linear_26486_106946)"/>
<path style="mix-blend-mode:multiply" opacity="0.71" d="M177.07 266.059C175.86 264.539 174.6 263.049 173.36 261.549C168.05 255.339 158.47 242.429 150.14 241.369C146.37 241.399 145.45 243.349 144.5 246.629C143.8 250.029 143.67 253.529 143.71 256.999C143.73 257.789 143.61 258.699 144.25 259.289C145.29 260.399 147.33 259.559 147.28 258.039C147.54 253.169 148.3 247.239 149.51 245.989C149.58 245.969 149.66 245.949 149.73 245.929C149.74 245.929 149.75 245.929 149.76 245.929C149.98 245.929 150.15 245.949 150.25 245.949C150.66 246.039 151.21 246.219 151.49 246.319C155.18 248.069 156.3 249.449 159.59 252.369C160.05 252.789 160.54 253.249 161.04 253.739C160.52 254.579 160.15 255.579 159.67 256.379C158.47 258.859 157.53 261.479 157.29 264.239C157.24 265.089 156.98 266.029 157.32 266.839C157.98 268.599 160.73 268.029 160.69 266.159C160.85 264.539 162.47 260.229 163.46 258.379C163.71 257.919 163.96 257.469 164.22 257.019C167.29 260.329 170.35 263.969 171.67 265.749C172.23 266.469 174.52 269.499 173.83 268.599C174.23 269.189 174.65 269.819 175.39 269.989C176.68 270.379 178.07 269.309 178.05 267.959C177.92 266.469 177.11 266.269 177.07 266.029V266.059Z" fill="url(#paint27_linear_26486_106946)"/>
<path d="M333.26 141.84C336.53 145.82 340.54 149.19 345.02 151.72C347.96 153.38 351.75 154.65 354.57 152.8C356.89 151.27 357.48 148.29 357.23 145.41C357.17 144.57 357.02 143.72 356.82 142.92C355.19 136.32 350.69 129.29 345.2 125.17C339.99 121.25 331.44 121.47 329.17 128.53C329.15 128.57 329.13 128.62 329.12 128.66C327.71 133.25 330.21 138.12 333.26 141.83V141.84Z" fill="url(#paint28_linear_26486_106946)"/>
<path d="M354.769 143.969C354.679 144.049 354.579 144.119 354.469 144.189C353.529 144.789 352.289 144.639 351.239 144.249C348.469 143.199 344.579 138.779 346.079 135.619C347.379 132.869 351.339 133.509 353.199 135.279C355.059 137.049 357.369 141.889 354.769 143.979V143.969Z" fill="url(#paint29_linear_26486_106946)"/>
<path style="mix-blend-mode:multiply" d="M329.17 128.539C331.65 127.039 334.8 126.539 337.69 127.049C341.9 127.789 345.61 130.339 348.68 133.309C352.25 136.769 355.16 140.899 357.22 145.419C357.16 144.579 357.01 143.729 356.81 142.929C355.18 136.329 350.68 129.299 345.19 125.179C339.98 121.259 331.43 121.479 329.16 128.539H329.17Z" fill="url(#paint30_linear_26486_106946)"/>
<path d="M277.819 167.239C277.819 167.719 277.85 168.179 277.91 168.639C278.38 172.069 280.3 175.119 282.53 177.779C285.27 181.059 288.509 183.899 292.109 186.189C294.429 187.669 297.08 188.949 299.81 188.629C302.71 188.279 305.12 186.059 306.24 183.339C306.5 182.699 306.709 182.039 306.819 181.359C308.489 171.669 292.44 153.519 281.75 159.639C279.16 161.139 277.82 164.209 277.81 167.229L277.819 167.239Z" fill="url(#paint31_linear_26486_106946)"/>
<path d="M304.029 178.479C303.939 178.559 303.839 178.629 303.729 178.699C302.789 179.299 301.549 179.149 300.499 178.759C297.729 177.709 293.839 173.289 295.339 170.129C296.639 167.379 300.599 168.019 302.459 169.789C304.319 171.559 306.629 176.399 304.029 178.489V178.479Z" fill="url(#paint32_linear_26486_106946)"/>
<path style="mix-blend-mode:multiply" d="M277.819 167.239C279.569 165.029 282.239 163.549 285.069 163.359C288.449 163.149 291.719 164.679 294.479 166.629C300.149 170.639 304.339 176.669 306.249 183.339C306.509 182.699 306.719 182.039 306.829 181.359C308.499 171.669 292.449 153.519 281.759 159.639C279.169 161.139 277.829 164.209 277.819 167.229V167.239Z" fill="url(#paint33_linear_26486_106946)"/>
<path style="mix-blend-mode:multiply" opacity="0.69" d="M173.9 123.099C163.94 132.389 154.63 142.379 146.53 153.349C138.25 164.719 130.11 176.309 123.51 188.739C123.23 189.369 122.71 189.989 122.93 190.709C123.22 191.869 124.92 192.109 125.5 191.049C129.68 182.609 135.07 174.849 140.34 167.069C150.29 152.549 161.48 139.289 174.84 126.709C175.6 125.809 177.03 125.209 177.08 123.909C177.01 122.159 174.91 121.739 173.91 123.109L173.9 123.099Z" fill="url(#paint34_linear_26486_106946)"/>
<path style="mix-blend-mode:multiply" opacity="0.69" d="M303.69 96.0192C302.6 95.8992 301.51 96.5192 300.44 96.7092C298.71 97.1792 296.98 97.6592 295.26 98.1392C267.54 105.869 239.91 114.739 214.64 128.729C209.93 131.399 205.18 134.019 200.72 137.099C199.43 137.859 200.55 139.899 201.91 139.129C229.46 121.209 259.38 110.989 290.99 102.029C294.43 101.049 297.87 100.079 301.32 99.1492C302.45 98.6692 304.39 98.8892 304.63 97.4392C304.75 96.8192 304.31 96.1892 303.7 96.0192H303.69Z" fill="url(#paint35_linear_26486_106946)"/>
<path style="mix-blend-mode:multiply" opacity="0.69" d="M175.73 163.319C161.84 172.749 148.73 183.379 136.59 194.979C132.66 198.799 128.96 202.859 125.65 207.239C125.58 207.359 125.5 207.419 125.01 208.069C124.53 208.649 124.13 209.319 123.7 209.949C123.34 210.479 122.93 211.079 123.13 211.749C123.64 213.279 125.27 212.949 126.19 211.989C130.99 207.999 134.39 205.329 139.38 201.729C147.02 196.309 154.95 191.299 163.11 186.709C164.15 186.119 165.23 185.579 166.3 185.039C166.78 184.739 167.4 184.599 167.73 184.109C168.15 183.639 168.17 182.889 167.85 182.359C166.54 180.829 165.79 181.849 164.52 182.379C162.86 183.329 161.21 184.289 159.57 185.269C152.56 189.489 145.59 193.769 138.91 198.489C137.13 199.729 135.07 201.259 133.01 202.829C139.8 195.369 148.51 187.819 156.31 181.359C161.95 176.799 166.19 173.449 171.91 169.289C173.61 168.059 175.32 166.819 177.07 165.659C177.38 165.479 177.6 165.189 177.69 164.849C178.03 163.739 176.7 162.689 175.7 163.319H175.73Z" fill="url(#paint36_linear_26486_106946)"/>
<path style="mix-blend-mode:multiply" opacity="0.49" d="M67.4396 420.36C67.4396 421.68 67.1595 422.93 66.6595 424.07C65.2395 427.3 62.0096 429.56 58.2496 429.56C53.1696 429.56 49.0596 425.45 49.0596 420.37C49.0596 417.45 50.4196 414.84 52.5496 413.17C54.1096 411.92 56.0896 411.18 58.2496 411.18C63.3196 411.18 67.4396 415.3 67.4396 420.37V420.36Z" fill="url(#paint37_linear_26486_106946)"/>
<path d="M67.8292 419.36C67.8292 420.68 67.5492 421.93 67.0492 423.07C65.6292 426.3 62.3992 428.56 58.6392 428.56C53.5592 428.56 49.4492 424.45 49.4492 419.37C49.4492 416.45 50.8092 413.84 52.9392 412.17C54.4992 410.92 56.4792 410.18 58.6392 410.18C63.7092 410.18 67.8292 414.3 67.8292 419.37V419.36Z" fill="url(#paint38_linear_26486_106946)"/>
<path style="mix-blend-mode:multiply" opacity="0.12" d="M67.0492 423.07C65.6292 426.3 62.3992 428.56 58.6392 428.56C53.5592 428.56 49.4492 424.45 49.4492 419.37C49.4492 416.45 50.8092 413.84 52.9392 412.17C52.5392 413.31 52.2892 414.49 52.2192 415.7C52.0592 418.42 52.9392 421.28 54.9292 423.15C57.3392 425.44 61.1492 425.95 64.2392 424.74C65.2692 424.34 66.2092 423.77 67.0592 423.08L67.0492 423.07Z" fill="url(#paint39_linear_26486_106946)"/>
<path d="M15.08 419.359C-9.78999 438.339 -35.99 455.559 -63.27 470.859C-78.42 460.699 -88.14 449.029 -93 435.539C-89.02 434.139 -85.05 432.73 -81.06 431.31C-52.3 421.08 -23.33 410.37 5.48999 399.27C5.48999 399.27 14.18 416.549 15.02 419.099C15.06 419.219 15.08 419.299 15.08 419.359Z" fill="url(#paint40_linear_26486_106946)"/>
<path style="mix-blend-mode:multiply" opacity="0.04" d="M15.08 419.36C-9.78999 438.34 -35.99 455.56 -63.27 470.86C-78.42 460.7 -88.14 449.03 -93 435.54C-89.02 434.14 -85.05 432.73 -81.06 431.31C-78.42 439.22 -70.27 444.97 -61.85 446.45C-52.17 448.16 -42.28 445.43 -33.02 442.13C-16.26 436.15 -0.249985 428.25 15.02 419.1C15.06 419.22 15.08 419.3 15.08 419.36Z" fill="url(#paint41_linear_26486_106946)"/>
<path style="mix-blend-mode:multiply" opacity="0.49" d="M6.48914 415.32C6.48914 416.3 6.28912 417.23 5.90912 418.06C4.84912 420.46 2.45914 422.12 -0.320862 422.12C-4.08086 422.12 -7.13086 419.07 -7.13086 415.31C-7.13086 413.15 -6.12083 411.22 -4.54083 409.97C-3.38083 409.05 -1.91086 408.5 -0.320862 408.5C3.43914 408.5 6.48914 411.55 6.48914 415.31V415.32Z" fill="url(#paint42_linear_26486_106946)"/>
<path d="M6.77924 414.59C6.77924 415.57 6.57922 416.5 6.19922 417.33C5.13922 419.73 2.74918 421.39 -0.0308228 421.39C-3.79082 421.39 -6.84082 418.34 -6.84082 414.58C-6.84082 412.42 -5.83079 410.49 -4.25079 409.24C-3.09079 408.32 -1.62082 407.77 -0.0308228 407.77C3.72918 407.77 6.77924 410.82 6.77924 414.58V414.59Z" fill="url(#paint43_linear_26486_106946)"/>
<path style="mix-blend-mode:multiply" opacity="0.12" d="M6.19922 417.33C5.13922 419.73 2.74918 421.39 -0.0308228 421.39C-3.79082 421.39 -6.84082 418.34 -6.84082 414.58C-6.84082 412.42 -5.83079 410.49 -4.25079 409.24C-4.54079 410.08 -4.74077 410.96 -4.79077 411.85C-4.90077 413.87 -4.25077 415.98 -2.79077 417.37C-1.00077 419.06 1.80919 419.44 4.10919 418.55C4.86919 418.26 5.56922 417.84 6.19922 417.32V417.33Z" fill="url(#paint44_linear_26486_106946)"/>
<g opacity="0.2">
<path d="M95.6289 696.759C113.859 651.899 126.919 604.949 134.489 557.119C133.699 527.969 132.639 499.569 129.759 473.229C131.649 548.019 119.499 623.129 95.6389 696.759H95.6289Z" fill="url(#paint45_linear_26486_106946)"/>
<path d="M65.6289 363.479C73.7889 394.759 88.0489 424.429 106.139 449.179C92.2889 434.399 80.1889 417.989 70.2689 400.369C66.8189 389.229 65.2089 377.519 65.6289 363.479Z" fill="url(#paint46_linear_26486_106946)"/>
<path d="M366.829 486.288C362.609 443.748 351.669 401.878 333.799 362.318C344.089 401.958 354.389 441.598 366.829 486.288Z" fill="url(#paint47_linear_26486_106946)"/>
</g>
</g>
<defs>
<linearGradient id="paint0_linear_26486_106946" x1="67.2093" y1="512.659" x2="122.669" y2="224.029" gradientUnits="userSpaceOnUse">
<stop stop-color="#363636"/>
<stop offset="1" stop-color="#131313"/>
</linearGradient>
<linearGradient id="paint1_linear_26486_106946" x1="66.63" y1="518.859" x2="126.04" y2="209.679" gradientUnits="userSpaceOnUse">
<stop stop-color="#363636"/>
<stop offset="1" stop-color="#131313"/>
</linearGradient>
<linearGradient id="paint2_linear_26486_106946" x1="81.1993" y1="288.77" x2="267.809" y2="319.93" gradientUnits="userSpaceOnUse">
<stop stop-color="#363636"/>
<stop offset="1" stop-color="#131313"/>
</linearGradient>
<linearGradient id="paint3_linear_26486_106946" x1="83.9092" y1="286.68" x2="259.959" y2="316.07" gradientUnits="userSpaceOnUse">
<stop stop-color="#363636"/>
<stop offset="1" stop-color="#131313"/>
</linearGradient>
<linearGradient id="paint4_linear_26486_106946" x1="-27.7308" y1="1095.07" x2="87.9692" y2="438.189" gradientUnits="userSpaceOnUse">
<stop stop-color="#454347"/>
<stop offset="1" stop-color="#626163"/>
</linearGradient>
<linearGradient id="paint5_linear_26486_106946" x1="355.23" y1="534.479" x2="-120.531" y2="534.479" gradientUnits="userSpaceOnUse">
<stop stop-color="#454347"/>
<stop offset="1" stop-color="#626163"/>
</linearGradient>
<linearGradient id="paint6_linear_26486_106946" x1="147.299" y1="1070.28" x2="229.849" y2="601.638" gradientUnits="userSpaceOnUse">
<stop stop-color="#454347"/>
<stop offset="1" stop-color="#626163"/>
</linearGradient>
<linearGradient id="paint7_linear_26486_106946" x1="250.729" y1="501.05" x2="123.149" y2="166.26" gradientUnits="userSpaceOnUse">
<stop stop-color="#FFC493"/>
<stop offset="1" stop-color="#FFB073"/>
</linearGradient>
<linearGradient id="paint8_linear_26486_106946" x1="-224.281" y1="424.709" x2="73.9693" y2="966.148" gradientUnits="userSpaceOnUse">
<stop stop-color="#363636"/>
<stop offset="1" stop-color="#131313"/>
</linearGradient>
<linearGradient id="paint9_linear_26486_106946" x1="-54.2905" y1="404.979" x2="-26.4405" y2="455.529" gradientUnits="userSpaceOnUse">
<stop stop-color="#363636"/>
<stop offset="1" stop-color="#131313"/>
</linearGradient>
<linearGradient id="paint10_linear_26486_106946" x1="-72.8499" y1="383.2" x2="140.44" y2="770.4" gradientUnits="userSpaceOnUse">
<stop stop-color="#363636"/>
<stop offset="1" stop-color="#131313"/>
</linearGradient>
<linearGradient id="paint11_linear_26486_106946" x1="309.36" y1="310.92" x2="69.6597" y2="310.92" gradientUnits="userSpaceOnUse">
<stop stop-color="#FFC493"/>
<stop offset="1" stop-color="#FFB073"/>
</linearGradient>
<linearGradient id="paint12_linear_26486_106946" x1="223" y1="371.589" x2="167.28" y2="509.779" gradientUnits="userSpaceOnUse">
<stop stop-color="#363636"/>
<stop offset="1" stop-color="#131313"/>
</linearGradient>
<linearGradient id="paint13_linear_26486_106946" x1="338.4" y1="487.949" x2="-64.9303" y2="980.389" gradientUnits="userSpaceOnUse">
<stop stop-color="#363636"/>
<stop offset="1" stop-color="#131313"/>
</linearGradient>
<linearGradient id="paint14_linear_26486_106946" x1="160.5" y1="342.64" x2="341.12" y2="222.23" gradientUnits="userSpaceOnUse">
<stop stop-color="#FFC493"/>
<stop offset="1" stop-color="#FFB073"/>
</linearGradient>
<linearGradient id="paint15_linear_26486_106946" x1="332.74" y1="319.319" x2="299.25" y2="250.439" gradientUnits="userSpaceOnUse">
<stop stop-color="#FFF4EF"/>
<stop offset="1" stop-color="#F6DFD7"/>
</linearGradient>
<linearGradient id="paint16_linear_26486_106946" x1="301.179" y1="329.129" x2="305.369" y2="275.479" gradientUnits="userSpaceOnUse">
<stop stop-color="#FFF4EF"/>
<stop offset="1" stop-color="#F6DFD7"/>
</linearGradient>
<linearGradient id="paint17_linear_26486_106946" x1="82.7593" y1="203.568" x2="169.649" y2="275.148" gradientUnits="userSpaceOnUse">
<stop stop-color="#363636"/>
<stop offset="1" stop-color="#131313"/>
</linearGradient>
<linearGradient id="paint18_linear_26486_106946" x1="377.22" y1="229.249" x2="292.17" y2="180.159" gradientUnits="userSpaceOnUse">
<stop stop-color="#FF9762"/>
<stop offset="1" stop-color="#FFB073"/>
</linearGradient>
<linearGradient id="paint19_linear_26486_106946" x1="218.619" y1="170.709" x2="471.409" y2="210.229" gradientUnits="userSpaceOnUse">
<stop stop-color="#454347"/>
<stop offset="1" stop-color="#626163"/>
</linearGradient>
<linearGradient id="paint20_linear_26486_106946" x1="262.88" y1="149.989" x2="262.12" y2="141.619" gradientUnits="userSpaceOnUse">
<stop stop-color="#FFF4EF"/>
<stop offset="1" stop-color="#F6DFD7"/>
</linearGradient>
<linearGradient id="paint21_linear_26486_106946" x1="376.48" y1="176.239" x2="129.04" y2="176.239" gradientUnits="userSpaceOnUse">
<stop stop-color="#454347"/>
<stop offset="1" stop-color="#626163"/>
</linearGradient>
<linearGradient id="paint22_linear_26486_106946" x1="324.239" y1="113.87" x2="313.969" y2="111.58" gradientUnits="userSpaceOnUse">
<stop stop-color="#FFF4EF"/>
<stop offset="1" stop-color="#F6DFD7"/>
</linearGradient>
<linearGradient id="paint23_linear_26486_106946" x1="262.479" y1="65.1291" x2="209.709" y2="264.539" gradientUnits="userSpaceOnUse">
<stop stop-color="#363636"/>
<stop offset="1" stop-color="#131313"/>
</linearGradient>
<linearGradient id="paint24_linear_26486_106946" x1="116.39" y1="466.709" x2="-154.06" y2="999.789" gradientUnits="userSpaceOnUse">
<stop stop-color="#363636"/>
<stop offset="1" stop-color="#131313"/>
</linearGradient>
<linearGradient id="paint25_linear_26486_106946" x1="222.069" y1="119.919" x2="185.399" y2="258.479" gradientUnits="userSpaceOnUse">
<stop stop-color="#363636"/>
<stop offset="1" stop-color="#131313"/>
</linearGradient>
<linearGradient id="paint26_linear_26486_106946" x1="389.43" y1="407.72" x2="192.81" y2="278.85" gradientUnits="userSpaceOnUse">
<stop stop-color="#FFC493"/>
<stop offset="1" stop-color="#FFB073"/>
</linearGradient>
<linearGradient id="paint27_linear_26486_106946" x1="143.71" y1="255.729" x2="178.05" y2="255.729" gradientUnits="userSpaceOnUse">
<stop stop-color="#FFC493"/>
<stop offset="1" stop-color="#FFB073"/>
</linearGradient>
<linearGradient id="paint28_linear_26486_106946" x1="359.35" y1="144.48" x2="328.35" y2="131.09" gradientUnits="userSpaceOnUse">
<stop stop-color="#FFF4EF"/>
<stop offset="1" stop-color="#F6DFD7"/>
</linearGradient>
<linearGradient id="paint29_linear_26486_106946" x1="360.789" y1="142.359" x2="346.219" y2="137.499" gradientUnits="userSpaceOnUse">
<stop stop-color="#363636"/>
<stop offset="1" stop-color="#131313"/>
</linearGradient>
<linearGradient id="paint30_linear_26486_106946" x1="342.36" y1="138.339" x2="347.78" y2="128.349" gradientUnits="userSpaceOnUse">
<stop stop-color="#FFF4EF"/>
<stop offset="1" stop-color="#D7C2BB"/>
</linearGradient>
<linearGradient id="paint31_linear_26486_106946" x1="308.749" y1="181.479" x2="280.92" y2="167.38" gradientUnits="userSpaceOnUse">
<stop stop-color="#FFF4EF"/>
<stop offset="1" stop-color="#F6DFD7"/>
</linearGradient>
<linearGradient id="paint32_linear_26486_106946" x1="310.049" y1="176.859" x2="295.479" y2="171.999" gradientUnits="userSpaceOnUse">
<stop stop-color="#363636"/>
<stop offset="1" stop-color="#131313"/>
</linearGradient>
<linearGradient id="paint33_linear_26486_106946" x1="306.939" y1="170.879" x2="277.819" y2="170.879" gradientUnits="userSpaceOnUse">
<stop stop-color="#FFF4EF"/>
<stop offset="1" stop-color="#D7C2BB"/>
</linearGradient>
<linearGradient id="paint34_linear_26486_106946" x1="122.87" y1="156.999" x2="177.07" y2="156.999" gradientUnits="userSpaceOnUse">
<stop stop-color="#454347"/>
<stop offset="1" stop-color="#626163"/>
</linearGradient>
<linearGradient id="paint35_linear_26486_106946" x1="200.14" y1="117.659" x2="304.63" y2="117.659" gradientUnits="userSpaceOnUse">
<stop stop-color="#454347"/>
<stop offset="1" stop-color="#626163"/>
</linearGradient>
<linearGradient id="paint36_linear_26486_106946" x1="123.08" y1="187.959" x2="177.78" y2="187.959" gradientUnits="userSpaceOnUse">
<stop stop-color="#454347"/>
<stop offset="1" stop-color="#626163"/>
</linearGradient>
<linearGradient id="paint37_linear_26486_106946" x1="56.6696" y1="429.3" x2="59.1196" y2="415.41" gradientUnits="userSpaceOnUse">
<stop stop-color="#454347"/>
<stop offset="1" stop-color="#626163"/>
</linearGradient>
<linearGradient id="paint38_linear_26486_106946" x1="57.0592" y1="428.31" x2="59.5092" y2="414.41" gradientUnits="userSpaceOnUse">
<stop stop-color="#454347"/>
<stop offset="1" stop-color="#626163"/>
</linearGradient>
<linearGradient id="paint39_linear_26486_106946" x1="56.9192" y1="428.3" x2="58.9592" y2="416.74" gradientUnits="userSpaceOnUse">
<stop stop-color="#454347"/>
<stop offset="1" stop-color="#626163"/>
</linearGradient>
<linearGradient id="paint40_linear_26486_106946" x1="-84.51" y1="373.5" x2="17.5499" y2="491.24" gradientUnits="userSpaceOnUse">
<stop stop-color="#363636"/>
<stop offset="1" stop-color="#131313"/>
</linearGradient>
<linearGradient id="paint41_linear_26486_106946" x1="-24.43" y1="382.88" x2="-117.07" y2="667.07" gradientUnits="userSpaceOnUse">
<stop stop-color="#363636"/>
<stop offset="1" stop-color="#131313"/>
</linearGradient>
<linearGradient id="paint42_linear_26486_106946" x1="-1.48086" y1="421.95" x2="0.329138" y2="411.65" gradientUnits="userSpaceOnUse">
<stop stop-color="#454347"/>
<stop offset="1" stop-color="#626163"/>
</linearGradient>
<linearGradient id="paint43_linear_26486_106946" x1="-1.1908" y1="421.21" x2="0.619195" y2="410.92" gradientUnits="userSpaceOnUse">
<stop stop-color="#454347"/>
<stop offset="1" stop-color="#626163"/>
</linearGradient>
<linearGradient id="paint44_linear_26486_106946" x1="-1.2908" y1="421.21" x2="0.219198" y2="412.64" gradientUnits="userSpaceOnUse">
<stop stop-color="#454347"/>
<stop offset="1" stop-color="#626163"/>
</linearGradient>
<linearGradient id="paint45_linear_26486_106946" x1="88.9289" y1="695.099" x2="142.849" y2="476.449" gradientUnits="userSpaceOnUse">
<stop stop-color="#FFFAF4"/>
<stop offset="1" stop-color="#FAECDD"/>
</linearGradient>
<linearGradient id="paint46_linear_26486_106946" x1="77.0789" y1="442.019" x2="94.6789" y2="370.649" gradientUnits="userSpaceOnUse">
<stop stop-color="#FFFAF4"/>
<stop offset="1" stop-color="#FAECDD"/>
</linearGradient>
<linearGradient id="paint47_linear_26486_106946" x1="336.849" y1="478.898" x2="363.769" y2="369.708" gradientUnits="userSpaceOnUse">
<stop stop-color="#FFFAF4"/>
<stop offset="1" stop-color="#FAECDD"/>
</linearGradient>
<clipPath id="clip0_26486_106946">
<rect width="480" height="480" rx="8" fill="white"/>
</clipPath>
</defs>
</svg>
