<svg width="124" height="74" viewBox="0 0 124 74" fill="none" xmlns="http://www.w3.org/2000/svg">
<path d="M92.85 103.913C92.6489 106.639 91.9335 109.239 90.903 111.749C89.1035 116.121 86.3439 120.206 83.6797 124.16C82.9626 125.226 82.2438 126.296 81.5284 127.367C78.7654 131.504 76.0158 135.671 73.231 139.813C73.03 140.113 72.8272 140.413 72.6228 140.713C71.1182 142.946 69.6018 145.173 68.0603 147.38C66.7601 149.25 65.4448 151.108 64.1094 152.949C61.7351 156.218 56.7387 164.021 49.3277 173.51C48.0778 175.108 46.7625 176.754 45.3768 178.436C43.8135 180.336 42.1631 182.278 40.4272 184.245C37.3844 184.476 30.7744 183.553 27.616 183.387C27.616 183.387 27.6093 183.387 27.606 183.387C27.5624 183.384 27.5172 183.384 27.4753 183.381H27.4719C27.2725 183.372 27.0731 183.362 26.8754 183.35C26.7715 183.345 26.666 183.34 26.5621 183.334C25.8969 183.295 25.2334 183.25 24.5716 183.195C24.4492 183.186 24.3269 183.175 24.2046 183.164C24.0253 183.149 23.8477 183.133 23.6718 183.116C23.3618 183.087 23.0535 183.057 22.7452 183.024C22.5525 183.004 22.3598 182.982 22.1671 182.96C22.1286 182.957 22.0901 182.952 22.0532 182.947C21.827 182.923 21.6008 182.895 21.3763 182.868C21.321 182.861 21.2657 182.855 21.2121 182.848C20.9876 182.819 20.763 182.791 20.5385 182.761C20.2855 182.727 20.0325 182.692 19.7795 182.657C19.632 182.635 19.4846 182.613 19.3388 182.593C19.0221 182.545 18.7055 182.498 18.3905 182.446C18.2849 182.429 18.1777 182.412 18.0721 182.394C17.9481 182.374 17.8225 182.354 17.6985 182.33C17.5393 182.303 17.3768 182.276 17.2176 182.246C17.0132 182.211 16.8088 182.174 16.606 182.137C16.3848 182.095 16.1637 182.054 15.9442 182.013C15.5588 181.94 15.1751 181.863 14.7914 181.782C2.90173 179.316 -8.31772 174.2 -18.1951 166.9C-17.9873 165.449 -18.3241 163.884 -18.1565 162.421C-18.1515 162.378 -18.1465 162.337 -18.1398 162.294C-18.1347 162.252 -18.128 162.21 -18.1213 162.168V162.165C-18.0577 161.761 -17.994 161.357 -17.9303 160.953C-17.8868 160.675 -17.8415 160.397 -17.7963 160.119C-17.7477 159.811 -17.6974 159.501 -17.6455 159.191C-17.5835 158.81 -17.5198 158.43 -17.4545 158.048C-17.4042 157.743 -17.3523 157.438 -17.3003 157.133C-17.2718 156.964 -17.2417 156.791 -17.2132 156.622C-17.1847 156.453 -17.1545 156.282 -17.1244 156.111C-17.0557 155.707 -16.9853 155.305 -16.9133 154.901C-16.8345 154.459 -16.7558 154.017 -16.677 153.573C-16.5966 153.129 -16.5162 152.688 -16.4357 152.244C-16.3486 151.773 -16.2615 151.301 -16.1727 150.83C-16.109 150.496 -16.0487 150.163 -15.9833 149.828C-15.7923 148.826 -15.598 147.827 -15.3969 146.827C-15.3315 146.495 -15.2645 146.16 -15.1958 145.828C-15.1288 145.495 -15.0618 145.161 -14.9931 144.828C-14.9244 144.496 -14.8574 144.161 -14.787 143.829C-14.7183 143.498 -14.6496 143.163 -14.5792 142.829C-13.9425 139.803 -13.2706 136.787 -12.5602 133.776C-12.205 132.271 -11.8431 130.769 -11.4677 129.267C-10.2781 124.475 -8.99966 119.707 -7.62739 114.968C-6.3523 110.553 -5.00014 106.163 -3.57425 101.803C-2.00761 97.0247 -0.35553 92.2813 1.38536 87.5814C1.40547 87.5277 1.4239 87.4724 1.44568 87.4205C3.41109 82.1224 5.69151 76.5982 10.1903 73.18C11.0533 72.5232 11.9715 71.9636 12.9299 71.4777C16.1486 69.8424 19.8097 69.023 23.3132 68.0127C24.9603 67.5368 26.5939 67.0107 28.2075 66.431C34.0585 64.3348 39.6699 61.5736 44.906 58.2241C50.5676 54.6066 55.7903 50.3055 60.4098 45.4263C62.8578 45.4179 62.8678 43.987 64.5266 42.1875C71.3561 45.8469 78.2275 49.8163 84.8694 53.8074C84.9498 62.9793 86.5131 72.0491 88.579 81.0065C89.271 84.0125 90.0217 87.005 90.7907 89.9841C91.1828 91.5038 91.5799 93.0353 91.9251 94.5734C92.6154 97.6581 93.0896 100.776 92.86 103.916L92.85 103.913Z" fill="url(#paint0_linear_28963_365119)"/>
<path style="mix-blend-mode:multiply" opacity="0.44" d="M12.9219 71.4748C23.4812 82.5518 35.3172 92.4961 48.7299 99.835C61.702 106.933 76.1771 111.294 90.9051 111.748C91.9355 109.24 92.6527 106.638 92.8521 103.913C93.0816 100.773 92.6075 97.6551 91.9171 94.5705C79.8314 95.611 67.486 93.5718 56.3939 88.6625C45.3336 83.7682 35.5484 76.0339 28.1995 66.4297C26.586 67.0078 24.9523 67.5355 23.3052 68.0114C19.8017 69.0218 16.1406 69.8428 12.9236 71.4764L12.9219 71.4748Z" fill="url(#paint1_linear_28963_365119)"/>
<path d="M88.5676 81.0029C86.8183 81.0666 85.0657 81.0347 83.3198 80.9124C82.4586 80.8521 81.5973 80.77 80.7395 80.6661C75.6425 80.0445 70.6376 78.6437 65.9695 76.5024C65.6646 76.3633 65.3613 76.2209 65.058 76.0734C64.9542 76.0232 64.8486 75.9729 64.7464 75.921C64.6877 75.8925 64.6308 75.864 64.5738 75.8355C64.0661 75.5842 63.5651 75.3228 63.0675 75.053C56.4089 71.4473 50.5947 66.2983 46.1981 60.1373C45.7491 59.5107 45.3134 58.8706 44.8945 58.2222C50.5562 54.6047 55.7789 50.3036 60.3983 45.4244C61.774 45.4194 62.3788 44.9653 62.9402 44.2498C63.3791 43.6919 63.788 42.9747 64.5152 42.1855C71.3447 45.8449 78.2161 49.8143 84.8579 53.8055C84.8764 55.7558 84.9585 57.7011 85.1026 59.6431C85.1311 60.0351 85.1612 60.4272 85.1947 60.8193C85.7711 67.6069 87.0311 74.3376 88.5676 81.0046V81.0029Z" fill="url(#paint2_linear_28963_365119)"/>
<path d="M45.3178 57.5474C52.3182 68.9746 64.2481 76.7374 77.2503 79.5188C79.1889 79.9343 81.151 80.2292 83.1281 80.3951C85.1623 80.5677 87.1997 80.4822 89.2305 80.6146C89.6778 80.6431 89.8487 81.3719 89.3444 81.4523C85.8542 82.007 82.0407 81.5512 78.5723 81.0201C74.9398 80.4638 71.401 79.4886 67.9963 78.108C61.7214 75.5628 56.0513 71.6906 51.3129 66.86C48.6923 64.1875 46.4153 61.2319 44.3979 58.0835C44.0276 57.5055 44.9592 56.9592 45.3195 57.5457L45.3178 57.5474Z" fill="url(#paint3_linear_28963_365119)"/>
<path style="mix-blend-mode:multiply" opacity="0.35" d="M44.8962 58.2212C45.3134 58.8696 45.7491 59.5097 46.1998 60.138C52.5886 57.3298 59.6175 55.9743 66.5945 56.2189C73.0236 56.4435 79.399 58.0268 85.1947 60.8183C84.9953 58.4859 84.8797 56.1486 84.8579 53.8045C78.2161 49.8133 71.343 45.844 64.5135 42.1846C62.8564 43.9841 62.8446 45.4167 60.3983 45.4251C55.7805 50.3043 50.5562 54.6054 44.8945 58.2229L44.8962 58.2212Z" fill="url(#paint4_linear_28963_365119)"/>
<path style="mix-blend-mode:multiply" d="M65.0607 76.0744C65.3623 76.2202 65.6673 76.3626 65.9722 76.5033C65.9672 76.4966 65.9622 76.4916 65.9572 76.4866L65.9454 76.4749C66.0543 75.9085 65.8097 75.183 65.421 74.7625C65.4914 74.2481 65.3288 73.6365 65.0322 73.2377C65.0038 73.1992 64.9736 73.164 64.9434 73.1288C65.0473 72.5993 64.8831 71.9392 64.5698 71.5186C64.5262 71.4616 64.4827 71.4097 64.4358 71.3611C64.5346 70.8316 64.3704 70.1782 64.0588 69.7609C64.032 69.7241 64.0035 69.6906 63.975 69.6571C64.0738 69.1276 63.908 68.4758 63.598 68.0586C63.5712 68.0234 63.5444 67.9899 63.5159 67.9581C63.6248 67.4236 63.4623 66.755 63.1456 66.3294C63.1221 66.2993 63.1004 66.2708 63.0752 66.2423C63.1892 65.7044 63.0249 65.0275 62.7066 64.5986C62.6848 64.5701 62.663 64.5416 62.6396 64.5148C62.7636 63.9803 62.6027 63.295 62.286 62.8594C62.4368 62.3132 62.2726 61.5893 61.9375 61.1369C61.9107 61.1001 61.8839 61.0665 61.8537 61.0347C61.9811 60.4952 61.8152 59.7998 61.4918 59.3642C61.4734 59.3391 61.4533 59.3139 61.4332 59.2905C61.6125 58.7375 61.4483 57.9785 61.1014 57.5127C61.0763 57.4792 61.0511 57.449 61.0243 57.4189C61.1534 56.8794 60.9875 56.184 60.6624 55.7467C60.6541 55.7366 60.6474 55.7266 60.639 55.7182C60.7814 55.2155 60.6541 54.5604 60.3726 54.1063C60.6809 53.5517 60.5217 52.6486 60.1313 52.1208C60.0911 52.0672 60.0492 52.0169 60.0073 51.9717C60.1112 51.4405 59.9487 50.7787 59.6336 50.3565C59.3823 50.0197 59.0522 49.8438 58.702 49.8438C58.5445 49.8438 58.3837 49.8773 58.2228 49.9493C57.7235 50.1705 57.4437 50.6933 57.4705 51.3417C57.4889 51.8058 57.6733 52.3303 58 52.6721C57.9715 52.8078 57.9614 52.9536 57.9681 53.106C57.9816 53.4579 58.0921 53.8449 58.2865 54.1599C58.1726 54.3912 58.1173 54.666 58.1307 54.9726C58.1491 55.3864 58.2949 55.8472 58.5596 56.1823C58.5127 56.3499 58.4926 56.5342 58.501 56.7319C58.5194 57.1709 58.6853 57.6669 58.9819 58.0087C58.945 58.1612 58.9299 58.3254 58.9383 58.5013C58.9567 58.9319 59.1159 59.4145 59.4024 59.7546C59.3438 59.9339 59.3203 60.1383 59.3287 60.3528C59.3471 60.7968 59.5147 61.2961 59.8163 61.6379C59.7811 61.7887 59.766 61.9529 59.7727 62.1255C59.7895 62.5209 59.9269 62.9616 60.1681 63.295C60.1246 63.4609 60.1045 63.6419 60.1129 63.8345C60.1313 64.2685 60.2938 64.7578 60.5853 65.0996C60.5502 65.2504 60.5351 65.4129 60.5418 65.5855C60.5602 66.0228 60.7244 66.5137 61.0177 66.8556C60.9858 66.9997 60.9741 67.1538 60.9808 67.3163C60.9992 67.7603 61.1668 68.258 61.4667 68.5998C61.4382 68.7389 61.4265 68.888 61.4332 69.0455C61.4516 69.4895 61.6209 69.9888 61.9224 70.3306C61.8973 70.4613 61.8873 70.6021 61.894 70.7478C61.9141 71.2153 62.1 71.7448 62.4335 72.0866C62.4083 72.219 62.3983 72.358 62.405 72.5055C62.4234 72.9495 62.5927 73.4522 62.8959 73.794C62.8691 73.928 62.8591 74.0721 62.8658 74.2229C62.8775 74.4944 62.9445 74.7893 63.0668 75.0523C63.5645 75.3221 64.0655 75.5818 64.5732 75.8348C64.7457 75.7627 64.9334 75.6354 65.1244 75.4226C65.2484 75.6388 65.3205 75.8884 65.3355 76.1029C65.2534 76.0811 65.1713 76.0711 65.0859 76.0711C65.0758 76.0711 65.0674 76.0711 65.0574 76.0711L65.0607 76.0744ZM58.3033 52.027C58.1893 51.8276 58.1123 51.5729 58.1022 51.3182C58.1022 51.3015 58.1022 51.2847 58.1022 51.2646C58.1022 51.0585 58.1508 50.6765 58.4826 50.5274C58.5228 50.5089 58.6015 50.4738 58.702 50.4738C58.8244 50.4738 58.9785 50.5274 59.131 50.7335C59.3203 50.9881 59.4125 51.34 59.4125 51.6299C59.3438 51.6148 59.2734 51.6064 59.2014 51.6064C59.0455 51.6064 58.8847 51.6416 58.7221 51.7137C58.5579 51.7874 58.4155 51.8929 58.3033 52.0253V52.027ZM59.1444 52.2415C59.0271 52.3437 58.9165 52.399 58.8126 52.404C58.8579 52.3587 58.9132 52.3202 58.9785 52.29C59.012 52.2766 59.0707 52.2498 59.1444 52.2415ZM58.5982 53.0809C58.5982 53.0641 58.5982 53.0474 58.5982 53.0273V53.0172C58.6551 53.029 58.7188 53.0357 58.7892 53.0357C59.0371 53.0357 59.3555 52.9418 59.6889 52.5916C59.8833 52.91 59.9453 53.3306 59.89 53.6171C59.7258 53.5232 59.5482 53.4747 59.3656 53.4747C59.2097 53.4747 59.0489 53.5098 58.8864 53.5819C58.8344 53.6053 58.7842 53.6305 58.7372 53.6623C58.6585 53.4881 58.6099 53.2853 58.5998 53.0809H58.5982ZM59.4745 54.1214C59.3689 54.175 59.2684 54.1851 59.1729 54.1516C59.1695 54.1516 59.1662 54.1482 59.1645 54.1482C59.2081 54.1298 59.2768 54.1047 59.3605 54.1047C59.3957 54.1047 59.4342 54.1097 59.4745 54.1214ZM58.9165 55.5674C58.8294 55.3848 58.7724 55.167 58.7624 54.9475C58.7624 54.929 58.7624 54.9089 58.7624 54.8871C58.7624 54.8235 58.7674 54.7447 58.7825 54.6609C58.8411 54.6945 58.9031 54.7246 58.9685 54.7464C59.0522 54.7749 59.1595 54.8 59.2868 54.8C59.4678 54.8 59.6873 54.7497 59.9218 54.5855C60.0274 54.8117 60.076 55.0714 60.071 55.2926C59.9621 55.2541 59.8498 55.2357 59.7342 55.2357C59.5784 55.2357 59.4175 55.2692 59.255 55.3412C59.1276 55.3982 59.0137 55.4753 58.9182 55.5674H58.9165ZM59.8046 55.8707C59.6437 56.0131 59.4929 56.0634 59.3538 56.0198C59.3974 55.9779 59.4493 55.9427 59.5113 55.9159C59.5516 55.8975 59.6303 55.8623 59.7291 55.8623C59.7526 55.8623 59.7777 55.8657 59.8046 55.8707ZM59.3119 57.3787C59.2081 57.1877 59.1427 56.9497 59.1327 56.7085C59.1327 56.6917 59.1327 56.6749 59.1327 56.6548C59.1327 56.6414 59.1327 56.6264 59.1327 56.6129C59.2148 56.6414 59.322 56.6666 59.4493 56.6666C59.6755 56.6666 59.9637 56.5878 60.2687 56.3013C60.3877 56.5342 60.4446 56.8073 60.4429 57.0402C60.3558 57.0168 60.2653 57.0034 60.1732 57.0034C60.0157 57.0034 59.8548 57.0385 59.694 57.1106C59.5482 57.1759 59.4208 57.2664 59.3136 57.3787H59.3119ZM60.1748 57.6317C60.0391 57.7506 59.9084 57.8059 59.7878 57.7942C59.8314 57.7506 59.885 57.7155 59.947 57.6853C59.9889 57.6669 60.0659 57.6317 60.1665 57.6317H60.1748ZM59.7627 59.1715C59.6538 58.9755 59.58 58.7275 59.57 58.4762C59.57 58.4594 59.57 58.4426 59.57 58.4225C59.57 58.4142 59.57 58.4041 59.57 58.3941C59.6404 58.4125 59.7241 58.4259 59.818 58.4259C60.0559 58.4259 60.3575 58.3388 60.6792 58.0221C60.8333 58.2969 60.897 58.6387 60.8736 58.9051C60.773 58.8716 60.6675 58.8565 60.5619 58.8565C60.4044 58.8565 60.2435 58.8917 60.0827 58.9637C59.9637 59.0174 59.8565 59.0877 59.7627 59.1732V59.1715ZM60.4865 59.4899C60.4178 59.5334 60.3525 59.5569 60.2905 59.5619C60.3056 59.5519 60.3223 59.5435 60.339 59.5368C60.3709 59.5234 60.4228 59.4999 60.4882 59.4899H60.4865ZM60.143 61.0046C60.0391 60.8119 59.9687 60.5706 59.9587 60.3276C59.9553 60.2807 59.9553 60.2187 59.9637 60.1467C60.0425 60.1735 60.1413 60.1936 60.2553 60.1936C60.4781 60.1936 60.7579 60.1165 61.0545 59.8467C61.2003 60.0947 61.2707 60.403 61.2673 60.6611C61.1819 60.6376 61.093 60.6276 61.0042 60.6276C60.8467 60.6276 60.6859 60.6611 60.525 60.7331C60.3759 60.7985 60.2486 60.8923 60.1413 61.0046H60.143ZM60.9975 61.2559C60.8669 61.3698 60.7412 61.4234 60.6239 61.4151C60.6675 61.3715 60.7194 61.3363 60.7831 61.3078C60.8233 61.2894 60.9004 61.2559 60.9975 61.2542V61.2559ZM60.5351 62.665C60.4614 62.4958 60.4145 62.2981 60.4061 62.0987C60.4061 62.0802 60.4061 62.0601 60.4061 62.0384C60.4061 62.03 60.4061 62.0233 60.4061 62.0149C60.4748 62.0333 60.5552 62.0467 60.6473 62.0467C60.8869 62.0467 61.1919 61.9579 61.5119 61.6379C61.646 61.8725 61.713 62.1573 61.7147 62.4036C61.5974 62.3601 61.4734 62.3366 61.3477 62.3366C61.1902 62.3366 61.0294 62.3718 60.8685 62.4438C60.7445 62.4991 60.6323 62.5729 60.5368 62.665H60.5351ZM61.4851 62.9901C61.3042 63.1627 61.1333 63.223 60.9808 63.1694C60.9674 63.1643 60.9523 63.1593 60.9389 63.1509C60.9875 63.0973 61.0478 63.0521 61.1249 63.0169C61.1835 62.9901 61.3209 62.9298 61.4868 62.9884L61.4851 62.9901ZM60.9171 64.4629C60.8183 64.2752 60.7563 64.044 60.7462 63.8094C60.7462 63.7927 60.7462 63.7742 60.7462 63.7541C60.7546 63.7575 60.7646 63.7625 60.7747 63.7659C60.8568 63.7943 60.9657 63.8195 61.093 63.8195C61.3192 63.8195 61.6058 63.7407 61.909 63.4575C62.0079 63.672 62.0548 63.915 62.0548 64.1261C61.9643 64.101 61.8705 64.0876 61.7767 64.0876C61.6209 64.0876 61.46 64.1211 61.2975 64.1931C61.1517 64.2585 61.0227 64.3489 60.9171 64.4629ZM61.8051 64.7176C61.651 64.8566 61.5086 64.9153 61.3762 64.8935C61.4231 64.8432 61.4801 64.7997 61.5521 64.7695C61.594 64.7511 61.6728 64.7159 61.7716 64.7159C61.7834 64.7159 61.7951 64.7159 61.8051 64.7159V64.7176ZM61.3427 66.2071C61.2472 66.0195 61.1835 65.7916 61.1735 65.5604C61.1735 65.5436 61.1735 65.5268 61.1735 65.5067V65.4933C61.2455 65.5134 61.3326 65.5285 61.4315 65.5285C61.6694 65.5285 61.9727 65.4397 62.2927 65.1214C62.4167 65.3476 62.4787 65.619 62.4821 65.8536C62.3966 65.8301 62.3078 65.8184 62.2157 65.8184C62.0582 65.8184 61.8973 65.8536 61.7364 65.9256C61.584 65.9943 61.4516 66.0898 61.3427 66.2071ZM62.2559 66.4484C62.0934 66.6042 61.9392 66.6696 61.7985 66.6411C61.8487 66.5841 61.9124 66.5338 61.9928 66.4987C62.0347 66.4802 62.1118 66.445 62.2123 66.445C62.2257 66.445 62.2408 66.445 62.2559 66.4484ZM61.785 67.948C61.6879 67.7587 61.6242 67.5258 61.6125 67.2912C61.6125 67.2778 61.6125 67.2627 61.6125 67.2476C61.6828 67.2661 61.7666 67.2795 61.8621 67.2795C62.1034 67.2795 62.4117 67.1907 62.7368 66.8606C62.8574 67.0851 62.9177 67.3498 62.9227 67.5794C62.839 67.5576 62.7552 67.5476 62.6681 67.5476C62.5106 67.5476 62.3497 67.5811 62.1889 67.6531C62.0314 67.7218 61.8973 67.8223 61.785 67.948ZM62.2341 69.6654C62.1386 69.4778 62.0766 69.2482 62.0665 69.0187C62.0665 69.0053 62.0665 68.9935 62.0665 68.9785C62.1336 68.9969 62.2123 69.0086 62.3011 69.0086C62.5458 69.0086 62.8591 68.9165 63.1858 68.5797C63.3048 68.7958 63.3651 69.0505 63.3735 69.2767C63.2947 69.2583 63.2143 69.2482 63.1305 69.2482C62.973 69.2482 62.8122 69.2834 62.6513 69.3555C62.4871 69.4292 62.348 69.5331 62.2358 69.6654H62.2341ZM63.1758 69.8799C63.0015 70.0558 62.839 70.1312 62.6898 70.1011C62.7435 70.0324 62.8138 69.9721 62.906 69.9302C62.9546 69.9084 63.0534 69.8665 63.1758 69.8799ZM62.7317 71.4365C62.6161 71.2371 62.539 70.9824 62.5273 70.7227V70.7127C62.5927 70.7277 62.6681 70.7395 62.7535 70.7395C63.0015 70.7395 63.3198 70.6456 63.6533 70.2954C63.7756 70.5233 63.8342 70.7931 63.8376 71.026C63.7722 71.0126 63.7069 71.0075 63.6399 71.0075C63.4841 71.0075 63.3232 71.0427 63.1607 71.1148C62.9914 71.1902 62.8473 71.3008 62.7317 71.4365ZM63.5745 71.6392C63.4572 71.7431 63.3483 71.8001 63.2428 71.8085C63.2897 71.7599 63.3466 71.7197 63.4153 71.6895C63.4489 71.6744 63.5042 71.6493 63.5745 71.6409V71.6392ZM63.2093 73.1355C63.1121 72.9445 63.0484 72.7133 63.0367 72.4787C63.0367 72.4619 63.0367 72.4435 63.0367 72.4234C63.0903 72.4334 63.1506 72.4401 63.216 72.4401C63.4673 72.4401 63.7873 72.343 64.1258 71.9861C64.2682 72.2173 64.3419 72.5055 64.347 72.7552C64.2682 72.735 64.1861 72.725 64.1023 72.725C63.9448 72.725 63.784 72.7602 63.6231 72.8322C63.4623 72.9043 63.3232 73.0065 63.2109 73.1355H63.2093ZM64.1308 73.355C63.9666 73.5175 63.8125 73.5862 63.67 73.5628C63.7236 73.4991 63.789 73.4455 63.8761 73.4069C63.918 73.3885 63.9951 73.3533 64.0956 73.3533C64.1074 73.3533 64.1191 73.3533 64.1308 73.3533V73.355ZM64.0755 75.2701C64.1224 75.1864 64.1895 75.111 64.2866 75.054C64.3302 75.0272 64.4223 74.9736 64.543 74.9736C64.5815 74.9736 64.6251 74.9803 64.6686 74.9937C64.4542 75.2366 64.2548 75.3288 64.0755 75.2701ZM64.548 74.3452C64.3537 74.3452 64.1576 74.3989 63.9666 74.5111C63.8393 74.5848 63.7304 74.6803 63.6399 74.7926C63.5578 74.6167 63.5058 74.4089 63.4958 74.1978C63.4958 74.1894 63.4958 74.1794 63.4958 74.1693C63.5611 74.1861 63.6382 74.1978 63.722 74.1978C63.9683 74.1978 64.285 74.104 64.6167 73.7588C64.7206 73.9498 64.7809 74.171 64.801 74.3754C64.7172 74.3536 64.6335 74.3436 64.548 74.3436V74.3452ZM85.6867 74.7139C85.6331 74.4156 85.5057 74.1743 85.3197 74.0034C85.1338 73.8342 84.8908 73.7353 84.6043 73.7219C84.0597 73.7002 83.5772 74.042 83.3124 74.6368C83.1918 74.9082 83.1197 75.2333 83.1214 75.5483C82.8902 75.7041 82.6942 75.9454 82.5568 76.2537C82.4277 76.5435 82.3557 76.8937 82.3674 77.2305C82.1664 77.3847 81.9988 77.6058 81.8765 77.8823C81.7525 78.1621 81.6805 78.4989 81.6855 78.824C81.4693 78.9798 81.2867 79.211 81.156 79.5026C81.027 79.7891 80.9549 80.1359 80.965 80.4694C80.8862 80.5263 80.8109 80.5933 80.7405 80.6671C81.5984 80.771 82.4579 80.8531 83.3208 80.9134C83.48 80.595 83.5655 80.213 83.5588 79.8628C84.0313 79.5579 84.2977 78.829 84.2759 78.2107C84.7115 77.9041 84.9629 77.2305 84.9578 76.6407C85.5208 76.3107 85.8073 75.3858 85.6867 74.7122V74.7139ZM82.6992 80.7358C82.5501 80.4895 82.3071 80.3152 81.9921 80.2415C81.8631 80.2113 81.7324 80.2029 81.6051 80.2163C81.6235 80.0622 81.6637 79.9047 81.7307 79.7572C81.7559 79.702 81.7961 79.6199 81.8547 79.5378C81.9033 79.6299 81.9653 79.7137 82.039 79.7891C82.1664 79.9181 82.4009 80.0857 82.7679 80.0857C82.8165 80.0857 82.8667 80.0823 82.9204 80.0773C82.8919 80.3236 82.8064 80.5615 82.6992 80.7358ZM82.3993 79.2177H82.4211C82.4998 79.2211 82.7059 79.2311 82.8299 79.454C82.6858 79.4691 82.5702 79.4339 82.4881 79.3501C82.4529 79.3132 82.4227 79.2697 82.3993 79.2177ZM83.3862 79.1624C83.3275 79.0485 83.2521 78.9513 83.1617 78.8692C82.9757 78.7 82.7327 78.6011 82.4462 78.5894C82.4043 78.5894 82.3641 78.5894 82.3239 78.5894C82.3423 78.4386 82.3842 78.2828 82.4479 78.1353C82.4713 78.0867 82.5048 78.0164 82.5534 77.9426C82.5987 78.0214 82.654 78.0968 82.7176 78.1621C82.845 78.2911 83.0795 78.4587 83.4465 78.4587C83.5068 78.4587 83.5705 78.4537 83.6375 78.4436C83.609 78.7167 83.5085 78.9831 83.3828 79.1608L83.3862 79.1624ZM83.0846 77.5958C83.0946 77.5958 83.1064 77.5958 83.1164 77.5958C83.1248 77.5958 83.1332 77.5958 83.1399 77.5958C83.2186 77.5991 83.4197 77.6075 83.5437 77.822C83.3828 77.8455 83.2571 77.8103 83.17 77.7215C83.1365 77.6863 83.1063 77.6444 83.0846 77.5958ZM84.0865 77.5053C84.0312 77.4065 83.9626 77.3193 83.8804 77.2473C83.6945 77.0781 83.4515 76.9792 83.165 76.9658C83.1114 76.9624 83.0561 76.9658 83.0041 76.9708C83.0226 76.8167 83.0645 76.6575 83.1298 76.5084C83.1583 76.4464 83.2035 76.3542 83.2739 76.2621C83.3258 76.3659 83.3929 76.4631 83.475 76.5452C83.6023 76.6742 83.8369 76.8401 84.2038 76.8401C84.2407 76.8401 84.2775 76.8401 84.3178 76.8351C84.2893 77.0864 84.1988 77.3311 84.0849 77.5036L84.0865 77.5053ZM83.8352 75.9705C83.924 75.9739 84.1167 75.994 84.2357 76.2118C84.1066 76.2185 84.0011 76.1833 83.9257 76.1062C83.8888 76.0694 83.8587 76.0225 83.8352 75.9705ZM84.8054 75.942C84.7417 75.8164 84.6613 75.7075 84.5641 75.6203C84.3781 75.4511 84.1351 75.3522 83.8486 75.3388C83.8201 75.3388 83.7917 75.3388 83.7648 75.3388C83.7833 75.1897 83.8252 75.0356 83.8888 74.8915C83.9626 74.7273 84.1703 74.3519 84.5557 74.3519H84.5792C84.6797 74.3553 84.988 74.3704 85.0684 74.8261C85.1405 75.2215 84.9997 75.6873 84.807 75.9437L84.8054 75.942Z" fill="url(#paint5_linear_28963_365119)"/>
<path d="M60.1654 51.8499C60.1269 52.0543 60.0481 52.2386 59.9241 52.3827C59.8973 52.4129 59.8722 52.4414 59.8454 52.4682C59.512 52.8184 59.1936 52.9122 58.9456 52.9122C58.8769 52.9122 58.8116 52.9038 58.7546 52.8938C58.7546 52.7279 58.7881 52.4564 58.9691 52.2805C59.073 52.2755 59.1852 52.2202 59.3008 52.118C59.3494 52.0778 59.3963 52.0292 59.4449 51.9722C59.5254 51.8784 59.5672 51.7058 59.5672 51.5081C59.5672 51.2165 59.4734 50.8664 59.2857 50.6117C59.1333 50.4056 58.9791 50.352 58.8568 50.352C58.758 50.352 58.6775 50.3871 58.6373 50.4056C58.3056 50.5547 58.257 50.935 58.257 51.1428C58.257 51.1629 58.257 51.1814 58.257 51.1964C58.2687 51.4528 58.3458 51.7058 58.458 51.9052C58.3089 52.0794 58.205 52.2989 58.1564 52.5519C57.8297 52.2101 57.6471 51.6857 57.627 51.2216C57.5985 50.5715 57.88 50.0504 58.3793 49.8292C58.5385 49.7571 58.701 49.7236 58.8585 49.7236C59.2104 49.7236 59.5404 49.8996 59.7901 50.2363C60.1034 50.6586 60.2676 51.3187 60.1637 51.8516L60.1654 51.8499Z" fill="url(#paint6_linear_28963_365119)"/>
<path d="M60.5309 53.9833C60.5008 54.0419 60.4622 54.0955 60.4204 54.1458C60.3047 54.2815 60.1891 54.3854 60.0769 54.4625C59.8423 54.6267 59.6228 54.677 59.4418 54.677C59.3145 54.677 59.2056 54.6518 59.1235 54.6233C59.0598 54.5999 58.9961 54.5714 58.9375 54.5379C58.9744 54.3469 59.0665 54.1341 59.2961 54.0335C59.3028 54.0302 59.3112 54.0268 59.3195 54.0235C59.3229 54.0235 59.3262 54.0268 59.3279 54.0268C59.4217 54.0604 59.5239 54.0503 59.6295 53.9967C59.7284 53.9481 59.8339 53.861 59.9411 53.7353C59.9897 53.6783 60.0249 53.5962 60.0434 53.494C60.1003 53.2075 60.0367 52.7869 59.8423 52.4669C59.8691 52.4401 59.8942 52.4116 59.921 52.3815C60.045 52.2374 60.1238 52.053 60.1623 51.8486C60.2059 51.8939 60.2461 51.9425 60.2863 51.9978C60.6784 52.5256 60.8359 53.4287 60.5276 53.9833H60.5309Z" fill="url(#paint7_linear_28963_365119)"/>
<path d="M59.568 51.5069C59.568 51.7062 59.5261 51.8771 59.4457 51.971C59.3971 52.0279 59.3485 52.0765 59.3016 52.1168C59.2278 52.1251 59.1692 52.1519 59.1357 52.1653C59.0703 52.1938 59.015 52.234 58.9698 52.2793C58.7888 52.4552 58.757 52.7266 58.7553 52.8925V52.9026C58.7553 52.9227 58.7553 52.9411 58.7553 52.9562C58.7654 53.1606 58.814 53.3617 58.8927 53.5376C58.7 53.6566 58.5476 53.8275 58.4454 54.0369C58.2493 53.7219 58.1404 53.3349 58.127 52.983C58.1203 52.8305 58.1303 52.6864 58.1588 52.549C58.2074 52.296 58.3096 52.0749 58.4604 51.9023C58.5744 51.7682 58.7151 51.6627 58.8793 51.5906C59.0402 51.5186 59.201 51.4834 59.3585 51.4834C59.4289 51.4834 59.4993 51.4918 59.5696 51.5069H59.568Z" fill="url(#paint8_linear_28963_365119)"/>
<path d="M60.7985 55.5969C60.7549 55.7545 60.6845 55.8969 60.5823 56.0142C60.5287 56.0762 60.4768 56.1314 60.4231 56.1784C60.1182 56.4649 59.8317 56.5436 59.6038 56.5436C59.4748 56.5436 59.3675 56.5185 59.2871 56.49C59.2921 56.3191 59.3324 56.0661 59.5083 55.8985C59.6474 55.9421 59.7982 55.8902 59.959 55.7494C60.0059 55.7092 60.0545 55.6606 60.1031 55.602C60.1802 55.5132 60.2221 55.3557 60.2238 55.1697C60.2288 54.9485 60.1802 54.6905 60.0746 54.4626C60.1869 54.3855 60.3025 54.2833 60.4181 54.1459C60.4617 54.0957 60.4985 54.042 60.5287 53.9834C60.8102 54.4375 60.9375 55.0926 60.7951 55.5953L60.7985 55.5969Z" fill="url(#paint9_linear_28963_365119)"/>
<path d="M60.045 53.494C60.0266 53.5962 59.9914 53.68 59.9428 53.7353C59.8339 53.8609 59.7301 53.9481 59.6312 53.9966C59.591 53.9849 59.5524 53.9799 59.5172 53.9799C59.4335 53.9799 59.3665 54.0033 59.3212 54.0235C59.3128 54.0268 59.3028 54.0318 59.2978 54.0335C59.0682 54.134 58.9761 54.3468 58.9392 54.5378C58.9241 54.6216 58.9191 54.7021 58.9191 54.764C58.9191 54.7875 58.9191 54.8076 58.9191 54.8244C58.9275 55.0439 58.9861 55.2617 59.0732 55.4443C58.9057 55.6035 58.7834 55.8163 58.718 56.0609C58.455 55.7241 58.3075 55.2634 58.2891 54.8512C58.2757 54.5445 58.331 54.2698 58.4449 54.0385C58.5471 53.8274 58.6996 53.6565 58.8923 53.5392C58.9392 53.5074 58.9895 53.4806 59.0414 53.4588C59.2023 53.3867 59.3631 53.3516 59.5206 53.3516C59.7049 53.3516 59.8825 53.4002 60.045 53.494Z" fill="url(#paint10_linear_28963_365119)"/>
<path d="M61.1826 57.2978C61.1407 57.4787 61.0653 57.6413 60.9531 57.772C60.9145 57.8172 60.8743 57.8608 60.8358 57.8976C60.5141 58.2143 60.2125 58.3014 59.9746 58.3014C59.8807 58.3014 59.7969 58.288 59.7266 58.2696C59.7299 58.1004 59.7668 57.839 59.9444 57.6681C60.065 57.6815 60.1957 57.6245 60.3315 57.5055C60.38 57.4653 60.427 57.4167 60.4755 57.3598C60.5543 57.2693 60.5962 57.1051 60.5979 56.9141C60.5979 56.6828 60.5442 56.4097 60.4236 56.1752C60.4772 56.1266 60.5292 56.0713 60.5828 56.011C60.6833 55.8937 60.7537 55.7513 60.7989 55.5938C60.8073 55.6021 60.814 55.6122 60.8224 55.6222C61.1474 56.0595 61.3116 56.7549 61.1843 57.2944L61.1826 57.2978Z" fill="url(#paint11_linear_28963_365119)"/>
<path d="M60.227 55.1696C60.2236 55.3555 60.1834 55.5114 60.1063 55.6018C60.0577 55.6605 60.0075 55.7091 59.9622 55.7493C59.9354 55.7443 59.9103 55.7409 59.8868 55.7409C59.788 55.7409 59.7092 55.7761 59.669 55.7945C59.607 55.823 59.5551 55.8582 59.5115 55.8984C59.3356 56.0643 59.2954 56.3173 59.2903 56.4899C59.2903 56.5033 59.2903 56.5184 59.2903 56.5318C59.2903 56.5519 59.2903 56.5703 59.2903 56.5854C59.3004 56.8267 59.3674 57.0646 59.4696 57.2556C59.3105 57.4232 59.1982 57.6393 59.1429 57.8873C58.8463 57.5455 58.6788 57.0512 58.662 56.6122C58.6536 56.4162 58.6737 56.2302 58.7206 56.0626C58.786 55.8163 58.9083 55.6052 59.0759 55.446C59.1731 55.3522 59.287 55.2768 59.4127 55.2198C59.5735 55.1478 59.7344 55.1143 59.8919 55.1143C60.0075 55.1143 60.1214 55.1327 60.2286 55.1712L60.227 55.1696Z" fill="url(#paint12_linear_28963_365119)"/>
<path d="M61.5905 59.1707C61.547 59.3098 61.4816 59.4354 61.3895 59.541C61.3308 59.6097 61.2705 59.6717 61.2119 59.7253C60.9153 59.9951 60.6355 60.0721 60.4126 60.0721C60.2987 60.0721 60.1982 60.052 60.1211 60.0252C60.1395 59.8292 60.2116 59.5711 60.4461 59.4388C60.5098 59.4338 60.5752 59.4103 60.6422 59.3667H60.6455C60.731 59.3165 60.8215 59.2377 60.9119 59.1305C60.9756 59.0551 61.0158 58.9311 61.0275 58.7836C61.051 58.5172 60.989 58.1754 60.8332 57.9006C60.8717 57.8621 60.9119 57.8202 60.9505 57.775C61.0627 57.6443 61.1381 57.4817 61.18 57.3008C61.2068 57.3309 61.232 57.3628 61.2571 57.3946C61.6039 57.8604 61.7665 58.6194 61.5889 59.1724L61.5905 59.1707Z" fill="url(#paint13_linear_28963_365119)"/>
<path d="M60.5993 56.916C60.5993 57.1071 60.5557 57.2713 60.4769 57.3617C60.4284 57.4187 60.3798 57.4673 60.3329 57.5075H60.3245C60.2256 57.5075 60.1468 57.5427 60.105 57.5611C60.0413 57.5896 59.9894 57.6265 59.9458 57.67C59.7682 57.8393 59.7296 58.1023 59.728 58.2716C59.728 58.2816 59.728 58.29 59.728 58.3001C59.728 58.3202 59.728 58.3386 59.728 58.3537C59.738 58.605 59.8117 58.853 59.9207 59.049C59.7548 59.1998 59.6325 59.3992 59.5621 59.6338C59.2756 59.2937 59.1181 58.8111 59.098 58.3805C59.0896 58.2062 59.1047 58.0403 59.1415 57.8879C59.1985 57.6382 59.3108 57.4237 59.4683 57.2562C59.5755 57.1439 59.7028 57.0534 59.8486 56.9881C60.0095 56.916 60.1703 56.8809 60.3278 56.8809C60.42 56.8809 60.5105 56.8943 60.5976 56.9177L60.5993 56.916Z" fill="url(#paint14_linear_28963_365119)"/>
<path d="M61.0314 58.7821C61.018 58.9313 60.9795 59.0536 60.9158 59.129C60.8237 59.2362 60.7348 59.315 60.6494 59.3652H60.6461C60.5807 59.3753 60.5288 59.3987 60.4969 59.4121C60.4802 59.4205 60.4634 59.4272 60.4483 59.4373C60.2138 59.5696 60.1417 59.826 60.1233 60.0237C60.1149 60.0941 60.1149 60.1578 60.1183 60.203C60.1283 60.4476 60.197 60.6872 60.3026 60.8799C60.1451 61.0491 60.0328 61.2636 59.9775 61.5133C59.6759 61.1715 59.5084 60.6721 59.4899 60.2281C59.4815 60.012 59.505 59.8092 59.5636 59.63C59.634 59.3954 59.7563 59.196 59.9222 59.0452C60.016 58.9597 60.1233 58.8894 60.2422 58.8358C60.4031 58.7637 60.5639 58.7285 60.7214 58.7285C60.827 58.7285 60.9326 58.7453 61.0331 58.7771L61.0314 58.7821Z" fill="url(#paint15_linear_28963_365119)"/>
<path d="M62.0135 60.9132C61.9716 61.0975 61.8962 61.26 61.7823 61.3924C61.7437 61.436 61.7069 61.4762 61.6684 61.5147C61.3467 61.8347 61.0417 61.9235 60.8038 61.9235C60.7133 61.9235 60.6329 61.9101 60.5625 61.8917C60.5659 61.7225 60.601 61.4628 60.7803 61.2919C60.8976 61.3002 61.0216 61.2466 61.154 61.1327C61.2025 61.0908 61.2528 61.0405 61.3031 60.9819C61.3818 60.8914 61.422 60.7289 61.4254 60.5379C61.4287 60.2815 61.3584 59.9715 61.2126 59.7236C61.2713 59.6699 61.3316 59.6096 61.3902 59.5392C61.4807 59.4337 61.546 59.308 61.5913 59.1689C61.6114 59.1924 61.6315 59.2175 61.6499 59.2427C61.9733 59.6783 62.1392 60.372 62.0118 60.9115L62.0135 60.9132Z" fill="url(#paint16_linear_28963_365119)"/>
<path d="M62.4439 62.7397C62.4003 62.9006 62.3282 63.0463 62.226 63.1653C62.1724 63.229 62.1171 63.2843 62.0652 63.3345C61.7619 63.616 61.4737 63.6964 61.2492 63.6964C61.1202 63.6964 61.0129 63.6713 60.9308 63.6428C60.9208 63.6395 60.9107 63.6345 60.9023 63.6311C60.9023 63.4719 60.9308 63.2089 61.0967 63.0296C61.1101 63.038 61.1252 63.043 61.1386 63.048C61.2928 63.1016 61.462 63.0413 61.6429 62.8687C61.6781 62.8352 61.715 62.7983 61.7519 62.7548C61.834 62.6593 61.8758 62.4834 61.8725 62.2806C61.8691 62.0343 61.8038 61.7495 61.6698 61.5149C61.7083 61.4763 61.7451 61.4361 61.7837 61.3926C61.8976 61.2619 61.973 61.0977 62.0149 60.915C62.0434 60.9469 62.0719 60.9804 62.0987 61.0172C62.4338 61.468 62.598 62.1918 62.4472 62.7397H62.4439Z" fill="url(#paint17_linear_28963_365119)"/>
<path d="M61.4267 60.5377C61.425 60.7287 61.3831 60.8896 61.3044 60.9817C61.2541 61.0404 61.2038 61.0906 61.1552 61.1325C61.058 61.1325 60.981 61.1677 60.9408 61.1861C60.8771 61.2146 60.8251 61.2498 60.7816 61.2934C60.6023 61.4626 60.5654 61.724 60.5638 61.8932C60.5638 61.9016 60.5638 61.91 60.5638 61.9167C60.5638 61.9401 60.5638 61.9602 60.5638 61.977C60.5721 62.1764 60.6191 62.3724 60.6928 62.5433C60.5185 62.7059 60.3962 62.922 60.3292 63.1733C60.0879 62.8416 59.9505 62.3992 59.9338 62.0038C59.9254 61.8312 59.9421 61.667 59.9773 61.5162C60.0326 61.2666 60.1449 61.0521 60.3024 60.8845C60.4096 60.7706 60.5386 60.6768 60.6861 60.6114C60.8453 60.5394 61.0078 60.5059 61.1653 60.5059C61.2541 60.5059 61.3429 60.5176 61.4283 60.5394L61.4267 60.5377Z" fill="url(#paint18_linear_28963_365119)"/>
<path d="M62.7981 64.3937C62.7562 64.5764 62.6792 64.7406 62.5669 64.8729C62.5284 64.9182 62.4898 64.9601 62.4513 64.9969C62.1313 65.3153 61.828 65.4041 61.5901 65.4041C61.4912 65.4041 61.4041 65.389 61.332 65.3689C61.332 65.2064 61.3655 64.945 61.5348 64.769C61.6671 64.7908 61.8112 64.7322 61.9637 64.5931C62.0056 64.5562 62.0475 64.5127 62.0911 64.4624C62.1715 64.3686 62.2117 64.1994 62.2117 64.0016C62.2117 63.7905 62.1631 63.5476 62.0659 63.3331C62.1195 63.2828 62.1731 63.2275 62.2268 63.1639C62.329 63.0449 62.401 62.8991 62.4446 62.7383C62.7613 63.1739 62.9238 63.8575 62.7981 64.3937Z" fill="url(#paint19_linear_28963_365119)"/>
<path d="M61.8693 62.2812C61.871 62.4839 61.8308 62.6598 61.7487 62.7553C61.7118 62.7989 61.6749 62.8358 61.6398 62.8693C61.4755 62.8106 61.3381 62.8693 61.2778 62.8978C61.2024 62.9313 61.1421 62.9765 61.0918 63.0318C60.926 63.2111 60.8958 63.4758 60.8975 63.6333C60.8975 63.6534 60.8975 63.6719 60.8975 63.6886C60.9075 63.9232 60.9712 64.1544 61.0684 64.3421C60.9092 64.5113 60.797 64.7291 60.74 64.9788C60.4484 64.637 60.2859 64.1494 60.2675 63.7138C60.2591 63.5211 60.2792 63.3401 60.3228 63.1742C60.3898 62.9229 60.5121 62.7068 60.6864 62.5442C60.7819 62.4521 60.8941 62.3784 61.0181 62.3231C61.179 62.251 61.3398 62.2158 61.4973 62.2158C61.623 62.2158 61.747 62.2393 61.8643 62.2828L61.8693 62.2812Z" fill="url(#paint20_linear_28963_365119)"/>
<path d="M63.232 66.1194C63.1918 66.3121 63.113 66.488 62.9957 66.6237C62.9622 66.6639 62.927 66.7008 62.8919 66.736C62.5668 67.0644 62.2585 67.1548 62.0172 67.1548C61.9234 67.1548 61.838 67.1414 61.7676 67.123V67.113C61.7676 66.9571 61.7961 66.6991 61.9536 66.5181C62.0943 66.5466 62.2485 66.4813 62.411 66.3255C62.4462 66.2919 62.4814 66.2551 62.5182 66.2132C62.602 66.116 62.6422 65.9367 62.6372 65.729C62.6338 65.4944 62.5735 65.2246 62.4478 64.9967C62.4864 64.9582 62.5249 64.918 62.5635 64.8728C62.6774 64.7404 62.7545 64.5762 62.7947 64.3936C62.8181 64.4204 62.8399 64.4472 62.8617 64.4773C63.1801 64.9063 63.3459 65.5832 63.2303 66.1194H63.232Z" fill="url(#paint21_linear_28963_365119)"/>
<path d="M62.2107 64.0037C62.2107 64.2014 62.1705 64.3723 62.0901 64.4644C62.0465 64.5147 62.0046 64.5583 61.9627 64.5951C61.951 64.5951 61.9393 64.5951 61.9292 64.5951C61.8304 64.5951 61.7516 64.6303 61.7097 64.6487C61.6377 64.6806 61.5807 64.7225 61.5338 64.7727C61.3646 64.947 61.3327 65.2101 61.3311 65.3726V65.386C61.3311 65.4061 61.3311 65.4245 61.3311 65.4396C61.3411 65.6708 61.4048 65.8987 61.5003 66.0864C61.3411 66.2606 61.2305 66.4801 61.1786 66.7348C60.8854 66.393 60.7212 65.9021 60.7027 65.4647C60.696 65.2922 60.7111 65.1296 60.7463 64.9788C60.8033 64.7275 60.9155 64.5097 61.0747 64.3421C61.1802 64.2282 61.3093 64.1377 61.455 64.0724C61.6159 64.0003 61.7767 63.9668 61.9342 63.9668C62.0281 63.9668 62.1219 63.9802 62.2124 64.0053L62.2107 64.0037Z" fill="url(#paint22_linear_28963_365119)"/>
<path d="M63.6734 67.8376C63.6332 68.0353 63.5561 68.2162 63.4338 68.357C63.402 68.3938 63.3718 68.4273 63.34 68.4592C63.0132 68.796 62.6982 68.8881 62.4553 68.8881C62.3665 68.8881 62.2877 68.8747 62.2207 68.858C62.2207 68.7038 62.2442 68.4391 62.4034 68.2531C62.4536 68.1944 62.5173 68.1442 62.5994 68.1073C62.6463 68.0872 62.7368 68.0453 62.8507 68.0537C62.8842 68.0235 62.9194 67.9867 62.9546 67.9448C63.0384 67.8459 63.0803 67.6667 63.0752 67.4555C63.0719 67.2243 63.0116 66.9612 62.8892 66.7367C62.9228 66.7015 62.9579 66.6647 62.9931 66.6245C63.1121 66.4871 63.1892 66.3128 63.2294 66.1201C63.2545 66.1486 63.278 66.1771 63.2998 66.2072C63.6164 66.6328 63.779 67.3014 63.6701 67.8359L63.6734 67.8376Z" fill="url(#paint23_linear_28963_365119)"/>
<path d="M62.639 65.7305C62.6441 65.9383 62.6022 66.1175 62.5201 66.2147C62.4832 66.2566 62.448 66.2935 62.4128 66.327C62.3978 66.327 62.3827 66.3236 62.3693 66.3236C62.2704 66.3236 62.1917 66.3588 62.1498 66.3773C62.0694 66.4124 62.0057 66.4627 61.9554 66.5197C61.7962 66.699 61.7694 66.9587 61.7694 67.1145V67.1245C61.7694 67.1413 61.7694 67.1547 61.7694 67.1681C61.7812 67.4044 61.8448 67.6373 61.942 67.8249C61.7862 67.9992 61.679 68.222 61.627 68.4767C61.3271 68.1349 61.1579 67.6373 61.1411 67.1932C61.1327 67.0307 61.1461 66.8766 61.178 66.7325C61.2316 66.4778 61.3405 66.2583 61.4997 66.0857C61.6086 65.9667 61.741 65.8696 61.8934 65.8025C62.0543 65.7305 62.2151 65.6953 62.3726 65.6953C62.4631 65.6953 62.5536 65.707 62.639 65.7305Z" fill="url(#paint24_linear_28963_365119)"/>
<path d="M64.1318 69.5359C64.095 69.747 64.0162 69.9364 63.8872 70.0855C63.8604 70.1157 63.8336 70.1441 63.8085 70.1726C63.475 70.5211 63.1567 70.6166 62.9087 70.6166C62.8249 70.6166 62.7495 70.6049 62.6825 70.5898C62.6774 70.4508 62.6909 70.176 62.8433 69.9799C62.9925 70.0084 63.155 69.9347 63.3292 69.7588C63.356 69.7336 63.3812 69.7052 63.408 69.675C63.4968 69.5728 63.537 69.3784 63.527 69.1556C63.5186 68.9294 63.4583 68.673 63.3393 68.4585C63.3711 68.4267 63.4013 68.3932 63.4331 68.3563C63.5554 68.2156 63.6325 68.0346 63.6727 67.8369C63.7012 67.8687 63.728 67.9023 63.7548 67.9375C64.0648 68.3547 64.229 69.0064 64.1318 69.5359Z" fill="url(#paint25_linear_28963_365119)"/>
<path d="M63.0784 67.4562C63.0835 67.6673 63.0416 67.8466 62.9578 67.9455C62.9226 67.9874 62.8874 68.0242 62.8539 68.0544C62.74 68.046 62.6478 68.0879 62.6026 68.108C62.5205 68.1449 62.4568 68.1951 62.4065 68.2538C62.2474 68.4398 62.2222 68.7045 62.2239 68.8587C62.2239 68.8737 62.2239 68.8871 62.2239 68.8989C62.234 69.1284 62.296 69.358 62.3915 69.5456C62.2356 69.7249 62.1301 69.9511 62.0849 70.2108C61.7833 69.869 61.614 69.3697 61.5956 68.9257C61.5889 68.7682 61.6006 68.6191 61.6291 68.48C61.6811 68.2236 61.7883 68.0008 61.9441 67.8282C62.0547 67.7042 62.1904 67.602 62.3479 67.5333C62.5071 67.4612 62.6696 67.4277 62.8271 67.4277C62.9142 67.4277 62.998 67.4378 63.0818 67.4596L63.0784 67.4562Z" fill="url(#paint26_linear_28963_365119)"/>
<path d="M64.5938 71.2399C64.5553 71.4493 64.4766 71.6387 64.3492 71.7861C64.3258 71.8129 64.3023 71.8397 64.2805 71.8632C63.9437 72.2201 63.622 72.3173 63.3707 72.3173C63.307 72.3173 63.2467 72.3106 63.1914 72.3005C63.1914 72.1363 63.2216 71.8649 63.3992 71.6839C63.5047 71.6755 63.6153 71.6202 63.7309 71.5147C63.7309 71.5147 63.7309 71.5147 63.7343 71.5147C63.7795 71.4761 63.8248 71.4292 63.8717 71.3756C63.9538 71.2801 63.9957 71.1042 63.9923 70.9014C63.989 70.6685 63.9303 70.3988 63.808 70.1709C63.8348 70.1424 63.8616 70.1139 63.8868 70.0838C64.0158 69.9346 64.0945 69.7453 64.1314 69.5342C64.1599 69.5677 64.19 69.6012 64.2152 69.6381C64.5268 70.0569 64.6893 70.7104 64.5922 71.2382L64.5938 71.2399Z" fill="url(#paint27_linear_28963_365119)"/>
<path d="M63.4122 69.6749C63.3854 69.705 63.3603 69.7335 63.3335 69.7586C63.2112 69.7452 63.1123 69.7871 63.0637 69.8089C62.9699 69.8508 62.8995 69.9111 62.8476 69.9798C62.6951 70.1758 62.6817 70.449 62.6867 70.5897V70.5998C62.6984 70.8595 62.7755 71.1141 62.8911 71.3135C62.742 71.4895 62.6415 71.7123 62.5962 71.9653C62.2645 71.6235 62.0768 71.094 62.0567 70.6266C62.05 70.4808 62.0601 70.3401 62.0852 70.2094C62.1321 69.9496 62.236 69.7234 62.3918 69.5442C62.5041 69.4118 62.6431 69.3079 62.8074 69.2342C62.9682 69.1621 63.1291 69.127 63.2866 69.127C63.3703 69.127 63.4508 69.137 63.5295 69.1554C63.5396 69.3766 63.4994 69.5727 63.4106 69.6749H63.4122Z" fill="url(#paint28_linear_28963_365119)"/>
<path d="M65.1003 73.0079C65.0618 73.214 64.9847 73.4 64.859 73.5458C64.8305 73.5793 64.8037 73.6095 64.7752 73.6379C64.4435 73.9831 64.1285 74.0769 63.8805 74.0769C63.7967 74.0769 63.7196 74.0652 63.6543 74.0484V74.0216C63.6543 73.8692 63.6811 73.6195 63.8286 73.4402C63.971 73.4637 64.1251 73.395 64.2893 73.2325C64.3195 73.204 64.3513 73.1705 64.3832 73.1336C64.4686 73.0347 64.5105 72.8471 64.5038 72.6326C64.4971 72.383 64.425 72.0948 64.2826 71.8635C64.3061 71.8401 64.3295 71.8133 64.3513 71.7865C64.4787 71.639 64.5574 71.4497 64.596 71.2402C64.6429 71.2888 64.6864 71.3408 64.73 71.3977C65.0417 71.8183 65.2059 72.4768 65.1036 73.0079H65.1003Z" fill="url(#paint29_linear_28963_365119)"/>
<path d="M63.9938 70.9029C63.9971 71.1057 63.9552 71.2816 63.8731 71.3771C63.8262 71.4307 63.781 71.4776 63.7357 71.5162C63.7357 71.5162 63.7357 71.5162 63.7324 71.5162C63.6603 71.5246 63.605 71.5497 63.5732 71.5648C63.5045 71.5966 63.4475 71.6368 63.4006 71.6837C63.223 71.863 63.1929 72.1361 63.1929 72.3003C63.1929 72.3204 63.1929 72.3389 63.1929 72.3556C63.2046 72.5902 63.2683 72.8214 63.3654 73.0124C63.2113 73.1884 63.1041 73.4129 63.0555 73.6709C62.7522 73.3291 62.5813 72.8264 62.5645 72.3824C62.5578 72.235 62.5679 72.0959 62.593 71.9635C62.6383 71.7105 62.7388 71.4894 62.8879 71.3118C63.0018 71.1744 63.1476 71.0654 63.3168 70.99C63.4777 70.918 63.6385 70.8828 63.796 70.8828C63.8631 70.8828 63.9284 70.8895 63.9938 70.9013V70.9029Z" fill="url(#paint30_linear_28963_365119)"/>
<path d="M65.5766 74.6402C65.5447 74.8798 65.4626 75.0993 65.3202 75.2635C65.3085 75.2769 65.2967 75.2903 65.285 75.302C64.9365 75.6908 64.5997 75.7947 64.3417 75.7947C64.2747 75.7947 64.2143 75.7863 64.1591 75.7762C64.1591 75.7762 64.1591 75.7645 64.1557 75.7578C64.1473 75.7075 64.1406 75.6388 64.1406 75.5584C64.1406 75.4294 64.1607 75.2769 64.2344 75.1445C64.4137 75.2032 64.6131 75.111 64.8276 74.8681C64.8326 74.8614 64.8393 74.8547 64.8443 74.8497C64.9432 74.7357 64.9834 74.5062 64.96 74.2515C64.9415 74.0454 64.8812 73.8242 64.7756 73.6349C64.8041 73.6064 64.8326 73.5762 64.8594 73.5427C64.9851 73.397 65.0638 73.211 65.1007 73.0049C65.1309 73.0384 65.1594 73.0752 65.1895 73.1138C65.4861 73.5126 65.6486 74.1241 65.5782 74.6385L65.5766 74.6402Z" fill="url(#paint31_linear_28963_365119)"/>
<path d="M64.3826 73.1355C64.3508 73.1724 64.319 73.2042 64.2888 73.2344C64.2754 73.2344 64.2653 73.2344 64.2536 73.2344C64.1548 73.2344 64.076 73.2695 64.0341 73.288C63.947 73.3265 63.88 73.3818 63.828 73.4438C63.6806 73.6231 63.6538 73.8727 63.6538 74.0252V74.052C63.6538 74.0621 63.6538 74.0705 63.6538 74.0805C63.6638 74.2916 63.7158 74.4994 63.7979 74.6753C63.6404 74.8714 63.5449 75.116 63.5164 75.3941C63.2131 75.0523 63.0439 74.5513 63.0254 74.1073C63.0187 73.9565 63.0288 73.8124 63.0556 73.6784C63.1042 73.4203 63.2098 73.1958 63.3656 73.0199C63.4778 72.8909 63.6169 72.7887 63.7778 72.7166C63.9386 72.6446 64.0995 72.6094 64.257 72.6094C64.3407 72.6094 64.4212 72.6194 64.5016 72.6395C64.5083 72.8557 64.4664 73.0417 64.381 73.1405L64.3826 73.1355Z" fill="url(#paint32_linear_28963_365119)"/>
<path d="M85.1171 76.5193C85.0819 76.5394 85.045 76.5578 85.0082 76.5729C84.8088 76.6567 84.6329 76.7002 84.4787 76.712C84.4385 76.717 84.4 76.7187 84.3648 76.7187C83.9978 76.7187 83.7633 76.5528 83.6359 76.4238C83.5538 76.34 83.4868 76.2445 83.4348 76.1406C83.5471 75.9915 83.7163 75.844 83.9559 75.844C83.9643 75.844 83.9727 75.844 83.9794 75.844C83.9827 75.844 83.9878 75.844 83.9928 75.844C84.0163 75.8976 84.0464 75.9429 84.0833 75.9797C84.1587 76.0568 84.2626 76.092 84.3933 76.0853C84.4988 76.0803 84.6228 76.0484 84.7636 75.9881C84.8322 75.9596 84.901 75.8993 84.963 75.8155C85.1573 75.5592 85.2964 75.0934 85.2243 74.6979C85.1422 74.2422 84.8356 74.2288 84.7351 74.2238H84.7116C84.3279 74.2238 84.1185 74.5991 84.0447 74.7633C83.9811 74.9074 83.9409 75.0599 83.9207 75.2107C83.6878 75.2174 83.47 75.2894 83.2773 75.4201C83.2773 75.1034 83.3477 74.78 83.4684 74.5086C83.7331 73.9138 84.2173 73.572 84.7602 73.5938C85.0467 73.6072 85.2897 73.7044 85.4757 73.8753C85.6616 74.0445 85.7907 74.2874 85.8426 74.5857C85.9649 75.2593 85.6784 76.1842 85.1137 76.5142L85.1171 76.5193Z" fill="url(#paint33_linear_28963_365119)"/>
<path opacity="0.98" d="M59.9257 51.0024C59.9123 50.9421 59.8905 50.8616 59.8704 50.8164C59.8788 50.9471 59.8788 51.0795 59.8704 51.2118C59.862 51.4481 59.8084 51.6626 59.733 51.9105C59.6593 52.13 59.5621 52.3629 59.3711 52.5405C59.8939 52.2406 60.0765 51.5637 59.924 51.0024H59.9257Z" fill="url(#paint34_linear_28963_365119)"/>
<path opacity="0.98" d="M60.3762 52.7702C60.3678 52.725 60.3075 52.5373 60.3193 52.6261C60.341 52.8707 60.336 53.179 60.3059 53.3751C60.2573 53.6549 60.197 54.1257 59.9121 54.3402C60.078 54.2765 60.1869 54.114 60.269 53.9632C60.4667 53.5979 60.4734 53.1673 60.3762 52.7719V52.7702Z" fill="url(#paint35_linear_28963_365119)"/>
<path opacity="0.98" d="M60.5523 54.6784C60.5456 54.6483 60.5037 54.5209 60.5104 54.5712C60.5289 54.8091 60.5087 55.0487 60.4819 55.285C60.4417 55.5765 60.3077 55.9786 60.0547 56.23C60.5791 55.9032 60.7182 55.2464 60.5523 54.6784Z" fill="url(#paint36_linear_28963_365119)"/>
<path opacity="0.98" d="M60.9951 56.3739C60.9884 56.3287 60.9633 56.2063 60.9549 56.208C60.96 56.3521 60.9466 56.4945 60.9298 56.637C60.8661 57.0525 60.7924 57.5736 60.4707 57.9003C60.9583 57.5769 61.0773 56.9168 60.9951 56.3722V56.3739Z" fill="url(#paint37_linear_28963_365119)"/>
<path opacity="0.98" d="M61.3194 58.3649C61.3161 58.3432 61.2993 58.2644 61.301 58.2845C61.3043 58.4118 61.296 58.5409 61.2809 58.6682C61.2273 59.062 61.0295 59.4993 60.7363 59.8176C61.1854 59.4943 61.4434 58.9128 61.3194 58.3649Z" fill="url(#paint38_linear_28963_365119)"/>
<path opacity="0.98" d="M61.677 59.665C61.7642 60.218 61.7156 60.7139 61.5195 61.225C61.9233 60.7575 61.9669 60.2046 61.677 59.665Z" fill="url(#paint39_linear_28963_365119)"/>
<path opacity="0.98" d="M62.1162 61.6025C62.1514 62.1454 62.1648 62.571 61.9336 63.0552C62.3307 62.6548 62.3474 62.0951 62.1162 61.6025Z" fill="url(#paint40_linear_28963_365119)"/>
<path opacity="0.98" d="M62.4509 63.1572C62.5163 63.5929 62.5431 64.052 62.4141 64.4725C62.7207 64.0939 62.7056 63.5594 62.4509 63.1572Z" fill="url(#paint41_linear_28963_365119)"/>
<path opacity="0.98" d="M62.913 65.0417C62.9733 65.5645 62.908 65.9029 62.7338 66.3989C62.7287 66.414 62.7103 66.4492 62.7287 66.4224C62.8695 66.2515 62.9817 66.0521 63.0253 65.8326C63.0772 65.5662 63.0286 65.283 62.9113 65.04L62.913 65.0417Z" fill="url(#paint42_linear_28963_365119)"/>
<path opacity="0.98" d="M63.4399 67.3559C63.4332 67.1683 63.3728 66.9789 63.2773 66.8164C63.3544 67.1599 63.3393 67.5285 63.2874 67.8821C63.3645 67.7162 63.4348 67.5402 63.4399 67.3542V67.3559Z" fill="url(#paint43_linear_28963_365119)"/>
<path opacity="0.98" d="M63.7934 68.5361C63.8403 69.022 63.8018 69.5013 63.6426 69.9352C64.0011 69.5599 64.0313 68.9835 63.7934 68.5361Z" fill="url(#paint44_linear_28963_365119)"/>
<path opacity="0.98" d="M64.2044 70.113C64.2932 70.3828 64.2764 70.7547 64.2412 70.9943C64.2412 70.9943 64.2412 70.9943 64.2412 70.996C64.2312 71.0681 64.2127 71.1368 64.196 71.2071C64.1658 71.3328 64.1156 71.4769 64.0703 71.5858C64.0854 71.569 64.1005 71.5523 64.1156 71.5355C64.4808 71.1066 64.5361 70.5788 64.2044 70.1113V70.113Z" fill="url(#paint45_linear_28963_365119)"/>
<path opacity="0.98" d="M64.7252 71.9316C64.8057 72.3271 64.7721 72.8012 64.7051 73.1766C64.7051 73.1933 64.68 73.2603 64.6934 73.2402C64.7721 73.1246 64.8325 72.9956 64.8727 72.8616C64.9632 72.5482 64.9012 72.2048 64.7252 71.9333V71.9316Z" fill="url(#paint46_linear_28963_365119)"/>
<path opacity="0.98" d="M65.1055 75.0063C65.4356 74.5941 65.4439 73.9725 65.1825 73.5234C65.2295 73.7664 65.1993 74.0161 65.1959 74.2607C65.201 74.5271 65.1842 74.755 65.1055 75.0063Z" fill="url(#paint47_linear_28963_365119)"/>
<path d="M94.6335 91.8993C88.9551 97.9631 75.3966 119.67 79.8988 112.457C80.0345 112.239 66.414 134.063 59.6699 144.867C70.3029 115.032 87.0131 97.8492 84.6942 56.6794C84.6825 56.4783 84.6724 56.2756 84.6624 56.0762C86.3312 56.5906 87.6348 57.3261 88.429 56.8754C89.6672 65.2448 90.8016 73.6309 91.8303 82.032C91.4986 82.022 90.9892 81.8461 90.4731 81.8259C91.7398 84.9257 93.3467 88.3555 94.6302 91.9027L94.6335 91.8993Z" fill="url(#paint48_linear_28963_365119)"/>
<path style="mix-blend-mode:multiply" opacity="0.69" d="M85.1036 59.6421C76.6722 56.291 71.2485 52.9818 65.3824 45.3296C65.8214 44.7716 63.789 42.9754 64.5161 42.1846C71.3457 45.844 78.2171 49.8133 84.8589 53.8045C84.8774 55.7548 84.9595 57.7001 85.1036 59.6421Z" fill="url(#paint49_linear_28963_365119)"/>
<path d="M101.479 52.9572C100.934 55.0851 100.125 57.3119 98.3403 58.5954C96.2978 60.0632 93.5416 59.8504 91.05 59.5052C88.2586 59.1165 85.6481 58.4429 83.2152 57.5566C76.188 55.0014 70.6503 50.7019 66.567 46.5667C64.9166 44.8962 63.5024 43.2524 62.3245 41.7629C62.1033 41.4831 61.8905 41.2083 61.6861 40.9402C60.9623 39.9918 60.3407 39.1206 59.8229 38.3632C59.7894 38.3163 59.7592 38.2694 59.7291 38.2241C58.6517 36.6441 58.0401 35.5919 57.886 35.426C57.7519 35.2819 61.9224 36.0459 63.5694 33.3047C63.5946 33.2612 63.618 33.221 63.6398 33.1807C63.6884 33.0936 63.7336 33.0031 63.7772 32.9093C63.7973 32.8657 63.8157 32.8239 63.8325 32.7836C63.8543 32.7334 63.876 32.6814 63.8978 32.6312C64.5195 31.1701 65.2567 29.761 66.1079 28.4222C66.2453 28.2061 66.3843 27.9916 66.5268 27.7805C67.7566 25.9541 69.2026 24.2719 70.853 22.7823C76.6504 17.5563 85.6447 15.2775 93.4327 15.7785C93.9521 16.427 94.4531 17.0905 94.9306 17.7674C95.0814 17.9819 95.2322 18.1963 95.378 18.4142C95.889 19.1682 96.3749 19.9389 96.834 20.7231C97.6735 22.1557 98.4258 23.6385 99.091 25.1599C99.225 25.4665 99.3557 25.7748 99.483 26.0848C99.6506 26.4953 99.8131 26.9092 99.9673 27.3247C103.02 35.4645 103.637 44.5309 101.479 52.9589V52.9572Z" fill="url(#paint50_linear_28963_365119)"/>
<path d="M76.4029 42.8542C77.0882 43.7238 77.8087 44.5683 78.561 45.3826C81.5049 48.5628 84.9649 51.2856 88.8421 53.2359C89.2443 53.437 89.7 53.638 90.1323 53.5107C90.6216 53.3649 90.898 52.8606 91.1158 52.3981C91.5481 51.485 91.9586 50.5617 92.3507 49.6301C92.396 49.5229 92.4429 49.414 92.4864 49.3051C92.8551 48.417 93.2069 47.5223 93.5404 46.6192C93.7699 45.9975 93.6928 45.644 93.4465 45.4396C92.9958 45.071 91.9871 45.2 91.2667 45.1179C89.3951 44.9017 87.5319 44.5951 85.6871 44.2047C82.4633 43.5194 79.3636 42.5007 76.2471 41.4434C74.9318 40.9977 76.1583 42.5426 76.4029 42.8525V42.8542Z" fill="url(#paint51_linear_28963_365119)"/>
<path style="mix-blend-mode:multiply" d="M76.5556 42.2849C77.7117 43.0976 78.9097 43.8616 80.1379 44.5586C82.2742 45.7751 84.4993 46.8525 86.7781 47.769C87.9258 48.2331 89.092 48.652 90.2733 49.0189C90.9552 49.2301 91.6506 49.4496 92.3493 49.6305C92.3945 49.5233 92.4414 49.4144 92.485 49.3055C92.3107 49.2602 92.1348 49.2133 91.9605 49.1664C91.3037 48.9854 90.6502 48.7911 90.0001 48.5833C87.6326 47.826 85.2919 46.9547 83.0517 45.8689C80.8249 44.7882 78.6785 43.5483 76.6125 42.1877C76.5489 42.1459 76.4936 42.2464 76.5522 42.2866L76.5556 42.2849Z" fill="url(#paint52_linear_28963_365119)"/>
<path d="M87.3094 38.8024C87.3027 38.7019 87.3094 38.598 87.3161 38.4975C87.482 36.088 87.6462 33.6786 87.8121 31.2692C87.8841 30.2253 87.8506 29.2149 87.7501 28.166C87.6981 27.6198 87.7149 26.8055 87.4066 26.3213C87.2592 26.0884 87.549 25.8186 87.7769 25.951C88.8007 26.5491 89.6904 27.5662 90.5533 28.3772C91.51 29.2769 92.46 30.1834 93.4252 31.0748C95.352 32.8576 97.3376 34.5884 99.0131 36.6208C99.3901 37.0783 99.3482 37.9948 98.6193 38.1121C95.7776 38.5729 92.8974 38.8895 90.0305 39.1425C89.5714 39.1827 87.6563 39.5497 87.41 39.1576C87.3429 39.0504 87.3178 38.9297 87.3094 38.8024Z" fill="url(#paint53_linear_28963_365119)"/>
<path d="M49.6435 53.4512C42.3449 59.5401 33.8247 63.6335 24.7399 66.4283C20.4388 67.7519 15.1642 69.3672 11.4093 71.8486C5.74595 75.5901 3.48061 82.0309 0.979023 88.341C-8.51461 112.288 -14.5734 137.48 -18.8008 162.876C-7.85612 172.279 3.40521 181.872 16.8112 186.308C35.77 170.676 47.8524 146.985 49.3771 122.46L53.3566 64.3724L49.6452 53.4512H49.6435Z" fill="url(#paint54_linear_28963_365119)"/>
<path d="M60.2447 45.5859C55.6386 63.9013 53.9932 83.9743 56.1128 103.133C54.2579 116.406 51.0241 129.487 46.083 141.977C46.9006 122.787 45.7881 104.667 43.7137 85.7957C44.7023 83.2337 46.6661 79.7453 48.3282 77.8837C46.2891 76.5433 43.8964 75.7441 41.7383 75.2582C42.8341 67.3278 44.2415 61.5572 47.467 53.5532C50.297 50.8136 55.8916 46.7856 60.243 45.5876L60.2447 45.5859Z" fill="url(#paint55_linear_28963_365119)"/>
<g opacity="0.72">
<g style="mix-blend-mode:multiply">
<path d="M99.8296 24.276C99.8296 27.2987 97.38 29.7484 94.3573 29.7484C92.5075 29.7484 90.8705 28.8302 89.8802 27.4261C89.2469 27.6137 88.6638 27.9723 88.213 28.4548C88.4862 29.1066 88.637 29.8221 88.637 30.5727C88.637 33.5954 86.1873 36.0451 83.1646 36.0451C80.8557 36.0451 78.8803 34.6158 78.076 32.5934C77.1092 32.5851 76.1441 32.58 75.1773 32.5733L61.8433 38.6891L61.6875 37.3704L75.0198 31.5043C75.0232 31.3753 75.0349 31.2446 75.0533 31.1156C75.0701 31.0402 77.2114 29.4434 77.957 28.8905C78.6675 26.6905 80.7317 25.1004 83.1663 25.1004C84.753 25.1004 86.1823 25.7757 87.1826 26.8564C87.6551 26.28 88.3639 25.8996 89.1078 25.8276C88.962 25.335 88.8833 24.8156 88.8833 24.276C88.8833 21.2534 91.3346 18.8037 94.3573 18.8037C97.38 18.8037 99.8296 21.2534 99.8296 24.276Z" fill="#FFB678"/>
</g>
</g>
<path d="M75.5076 30.8936L61.8301 36.9104L61.9859 38.2291L75.7421 31.9207L75.5076 30.8936Z" fill="url(#paint56_linear_28963_365119)"/>
<path d="M67.3347 28.5505C66.6276 29.8239 65.9875 31.1509 65.4212 32.5182C64.2316 35.3951 63.372 38.4513 62.9129 41.5678C62.7269 41.5996 62.5275 41.6666 62.3264 41.7638C61.8372 41.995 61.3295 42.4039 60.9525 42.9099C58.8648 39.8738 57.402 36.4138 56.6631 32.8047C56.4269 31.6519 56.2643 30.484 56.1789 29.3095C56.1672 29.1637 56.1588 29.0163 56.1504 28.8705C58.7475 28.3963 61.3479 28.2154 63.93 28.2958C64.6588 28.3176 65.3843 28.3611 66.1082 28.4248C66.517 28.4617 66.9275 28.5036 67.3347 28.5521V28.5505Z" fill="url(#paint57_linear_28963_365119)"/>
<path d="M66.5696 46.5652C66.4657 46.7344 66.3266 46.8835 66.1406 46.9991C65.7888 47.2169 65.2744 47.3108 64.5304 47.1834C60.36 46.4764 58.0427 43.5173 57.5669 41.2838C57.339 40.2148 57.5334 39.3134 58.1483 38.9029C58.6878 38.5443 59.2156 38.3265 59.73 38.2243C59.8087 38.2075 59.8858 38.1958 59.9646 38.1858C59.9679 38.1858 59.9696 38.1858 59.973 38.1858C63.5 37.725 66.3082 42.6058 66.7606 44.7924C66.8594 45.2716 66.903 46.024 66.5696 46.5685V46.5652Z" fill="url(#paint58_linear_28963_365119)"/>
<path style="mix-blend-mode:multiply" opacity="0.82" d="M64.6431 44.3295C64.4789 44.0563 64.3063 43.7899 64.1388 43.5185C63.4116 42.3976 62.1348 40.1021 60.8061 39.7519C60.1945 39.6765 60.0035 39.973 59.779 40.4841C59.593 41.0203 59.4958 41.5849 59.4305 42.1479C59.4171 42.2769 59.3769 42.421 59.469 42.5316C59.6148 42.7343 59.9616 42.6422 59.9867 42.3925C60.1325 41.6084 60.3838 40.6634 60.605 40.4874C60.6167 40.4858 60.6302 40.4841 60.6419 40.4824C60.6436 40.4824 60.6436 40.4824 60.6469 40.4824C60.6821 40.4874 60.7089 40.4941 60.7257 40.4975C60.791 40.5209 60.8748 40.5628 60.9184 40.5846C61.4797 40.9482 61.6321 41.1945 62.1013 41.7391C62.1666 41.8161 62.2353 41.9016 62.3074 41.9921C62.2052 42.1161 62.1231 42.2702 62.0276 42.3892C61.7796 42.7645 61.5718 43.17 61.473 43.6123C61.4461 43.7497 61.3842 43.8955 61.421 44.0346C61.4897 44.3345 61.9488 44.301 61.9823 43.996C62.0426 43.738 62.3978 43.0728 62.5972 42.7947C62.6475 42.726 62.6978 42.6573 62.7497 42.5902C63.177 43.1934 63.5942 43.8469 63.7718 44.1653C63.8472 44.2943 64.1521 44.8338 64.0617 44.6746C64.1136 44.7785 64.1689 44.8908 64.2845 44.9343C64.4856 45.0248 64.7336 44.8807 64.7587 44.6629C64.7687 44.4199 64.6414 44.368 64.6414 44.3295H64.6431Z" fill="url(#paint59_linear_28963_365119)"/>
<path style="mix-blend-mode:multiply" opacity="0.2" d="M83.2154 57.5552C76.1881 55 70.6505 50.7006 66.5672 46.5653C66.4633 46.7346 66.3242 46.8837 66.1382 46.9993C65.7863 47.2171 65.2719 47.3109 64.528 47.1836C60.3576 46.4765 58.0403 43.5175 57.5645 41.284C58.2715 40.3306 59.054 39.3353 59.8231 38.3635C59.87 38.3049 59.9169 38.2446 59.9621 38.1859C61.4701 36.2792 62.9027 34.483 63.5679 33.3067C63.5931 33.2632 63.6165 33.223 63.6383 33.1827C63.6869 33.0956 63.7321 33.0051 63.7757 32.9113C63.7958 32.8677 63.8142 32.8259 63.831 32.7856C66.7196 29.8467 69.9166 27.1407 73.4855 24.7363C70.2433 31.782 70.3773 40.2938 73.839 47.2322C75.9418 51.4462 79.2443 55.0268 83.212 57.5586L83.2154 57.5552Z" fill="url(#paint60_linear_28963_365119)"/>
<path d="M99.9741 23.8171C99.9741 24.1957 99.9356 24.5677 99.8619 24.9263C99.7781 25.3301 99.6508 25.7188 99.4832 26.0857C98.6237 27.9774 96.7152 29.2911 94.5018 29.2911C92.967 29.2911 91.5797 28.6594 90.5877 27.6423C90.3817 27.4329 90.194 27.2084 90.0264 26.9688C89.3931 27.1564 88.81 27.515 88.3593 27.9975C88.3911 28.0729 88.4213 28.1483 88.4481 28.2254C88.6642 28.8152 88.7832 29.4502 88.7832 30.1154C88.7832 33.1381 86.3335 35.5878 83.3108 35.5878C81.0019 35.5878 79.0265 34.1585 78.2222 32.1361C77.2487 32.1278 76.2769 32.1227 75.3018 32.116C75.2146 31.8329 75.1694 31.5329 75.1627 31.2313C75.1593 31.0403 75.1711 30.8476 75.1962 30.6566C75.2129 30.5812 77.3543 28.9844 78.0999 28.4315C78.8103 26.2315 80.8746 24.6414 83.3092 24.6414C84.8959 24.6414 86.3252 25.3167 87.3255 26.3974C87.798 25.821 88.5067 25.4407 89.2507 25.3686C89.1049 24.876 89.0261 24.3566 89.0261 23.8171C89.0261 22.2069 89.7232 20.7575 90.829 19.7572C91.6031 19.0568 92.5766 18.576 93.6557 18.4084C93.9321 18.3665 94.2119 18.3447 94.5001 18.3447C94.7883 18.3447 95.0916 18.3682 95.3764 18.4151C97.9819 18.834 99.9725 21.0926 99.9725 23.8171H99.9741Z" fill="url(#paint61_linear_28963_365119)"/>
<path d="M88.1509 30.1131C88.1509 30.9727 87.928 31.7786 87.536 32.4773C87.0819 33.2883 86.3983 33.9568 85.5756 34.3925C85.3259 34.5248 85.0645 34.6371 84.7914 34.7242C84.4479 34.8348 84.0877 34.9085 83.7157 34.9387C83.5817 34.9504 83.4443 34.9571 83.3069 34.9571C82.5278 34.9571 81.7922 34.7728 81.1404 34.4477C79.552 33.6535 78.4629 32.0115 78.4629 30.1148C78.4629 29.2804 78.674 28.4962 79.046 27.8109C79.8653 26.2979 81.4655 25.2725 83.3069 25.2725C83.5884 25.2725 83.8665 25.2959 84.1363 25.3428C84.6909 25.4383 85.2137 25.6294 85.6862 25.8958C85.9207 26.0281 86.1419 26.1789 86.3497 26.3482C86.5574 26.5157 86.7518 26.7 86.9277 26.9011C87.6884 27.7556 88.1492 28.8816 88.1492 30.1148L88.1509 30.1131Z" fill="url(#paint62_linear_28963_365119)"/>
<path style="mix-blend-mode:multiply" opacity="0.3" d="M87.536 32.4769C87.0819 33.2879 86.3983 33.9565 85.5756 34.3921C85.3259 34.5245 85.0645 34.6367 84.7914 34.7238C84.4479 34.8344 84.0877 34.9082 83.7157 34.9383C83.5817 34.95 83.4443 34.9567 83.3069 34.9567C82.5278 34.9567 81.7922 34.7724 81.1404 34.4474C79.552 33.6532 78.4629 32.0111 78.4629 30.1144C78.4629 29.28 78.674 28.4958 79.046 27.8105C79.9022 29.2381 81.1337 30.4445 82.5847 31.2588C84.0843 32.0999 85.8152 32.5205 87.5343 32.4786L87.536 32.4769Z" fill="url(#paint63_linear_28963_365119)"/>
<path d="M99.3445 23.816C99.3445 24.7794 99.063 25.6775 98.5788 26.4315C98.3945 26.718 98.18 26.9844 97.9421 27.2257C97.6874 27.482 97.4043 27.7099 97.0976 27.906C96.8681 28.0517 96.6285 28.1774 96.3755 28.2846C95.7991 28.5259 95.1657 28.66 94.5022 28.66C94.2073 28.66 93.9174 28.6332 93.6376 28.5829C91.3756 28.1741 89.6582 26.1969 89.6582 23.816C89.6582 22.9665 89.8777 22.1672 90.2631 21.4735C91.0874 19.9823 92.6775 18.9736 94.5022 18.9736C95.2679 18.9736 95.9918 19.1512 96.6352 19.4679C97.1747 19.7343 97.6589 20.0979 98.0627 20.5352C98.18 20.6609 98.2889 20.795 98.3928 20.934C98.5972 21.2105 98.7732 21.5071 98.9156 21.8237C99.1904 22.432 99.3445 23.1055 99.3445 23.8176V23.816Z" fill="url(#paint64_linear_28963_365119)"/>
<path opacity="0.14" d="M85.6883 25.894L83.7179 34.9386C83.5838 34.9503 83.4464 34.9571 83.309 34.9571C82.5299 34.9571 81.7944 34.7727 81.1426 34.4477L84.1385 25.3428C84.6931 25.4383 85.2158 25.6293 85.6883 25.8957V25.894Z" fill="url(#paint65_linear_28963_365119)"/>
<path opacity="0.14" d="M86.9293 26.8996L85.5771 34.3943C85.3275 34.5267 85.0661 34.639 84.793 34.7261L86.3529 26.3467C86.5607 26.5142 86.755 26.6985 86.931 26.8996H86.9293Z" fill="url(#paint66_linear_28963_365119)"/>
<path opacity="0.14" d="M98.0635 20.5361L96.3746 28.2855C95.7982 28.5267 95.1648 28.6608 94.5013 28.6608C94.2064 28.6608 93.9165 28.634 93.6367 28.5837L96.6359 19.4688C97.1755 19.7352 97.6597 20.0988 98.0635 20.5361Z" fill="url(#paint67_linear_28963_365119)"/>
<path opacity="0.14" d="M98.9134 21.8233L97.9382 27.2269C97.6835 27.4833 97.4004 27.7112 97.0938 27.9072L98.3906 20.9336C98.595 21.2101 98.771 21.5066 98.9134 21.8233Z" fill="url(#paint68_linear_28963_365119)"/>
<path style="mix-blend-mode:multiply" opacity="0.3" d="M98.5788 26.4325C98.3945 26.7191 98.18 26.9855 97.9421 27.2268C97.6874 27.4831 97.4043 27.711 97.0976 27.907C96.8681 28.0528 96.6285 28.1785 96.3755 28.2857C95.7991 28.527 95.1657 28.661 94.5022 28.661C94.2073 28.661 93.9174 28.6342 93.6376 28.5839C91.3756 28.1751 89.6582 26.198 89.6582 23.817C89.6582 22.9675 89.8777 22.1683 90.2631 21.4746C91.1226 23.0295 92.4195 24.3431 93.9694 25.2127C95.3718 25.9986 96.9736 26.4175 98.5788 26.4325Z" fill="url(#paint69_linear_28963_365119)"/>
<path style="mix-blend-mode:multiply" opacity="0.36" d="M99.9728 23.8173C99.9728 24.1959 99.9343 24.5679 99.8606 24.9265C99.6042 25.0052 99.3462 25.0823 99.0898 25.1611C96.2632 26.0156 93.4298 26.8534 90.5848 27.6425C89.8727 27.8403 89.1589 28.0363 88.4451 28.2256C85.2465 29.0802 82.0328 29.866 78.7889 30.5345C77.5842 30.7842 76.3728 31.0171 75.1597 31.2316C71.9343 31.8029 68.6821 32.2469 65.4198 32.5184C64.9121 32.5603 64.4044 32.5988 63.8967 32.6323C61.4856 32.7932 59.0745 32.8568 56.66 32.8049C56.4238 31.6521 56.2612 30.4843 56.1758 29.3097C57.2096 29.3281 58.2669 29.2008 59.2889 29.055C60.8388 28.8338 62.387 28.5808 63.9269 28.296C64.7965 28.1351 65.6594 27.9642 66.5256 27.7816C74.8933 26.029 83.0616 23.3297 90.8294 19.7574C91.7777 19.3201 92.7194 18.8711 93.656 18.4086C94.0816 18.1975 94.5055 17.9847 94.9295 17.7686C95.0803 17.983 95.231 18.1975 95.3768 18.4153C97.9823 18.8342 99.9728 21.0928 99.9728 23.8173Z" fill="url(#paint70_linear_28963_365119)"/>
<path d="M108.223 15.4693C107.97 16.4311 107.094 17.304 106.246 17.9374C101.327 21.6035 95.4019 23.6309 89.5325 25.422C76.5939 29.3696 63.0086 32.461 49.611 30.5861C48.0091 30.3615 46.0823 29.755 45.7857 28.1649C45.5964 27.1495 46.228 26.1224 47.0775 25.5376C47.2367 25.4287 47.4043 25.3299 47.5768 25.2411C48.3174 24.8641 49.1535 24.6747 49.9712 24.4921C51.4658 24.1603 53.3642 23.7297 55.5474 23.2287C55.5541 23.1936 55.5608 23.16 55.5675 23.1249C56.3332 18.9896 57.4542 14.8912 58.9538 10.7794C59.314 9.79422 60.1954 9.09385 61.2376 8.97823C69.0925 8.10192 76.7296 5.40932 83.2324 1.25732C83.8993 0.831733 84.7019 0.727848 85.4291 0.928913C85.8295 1.0395 86.2082 1.24224 86.5299 1.53546C90.2362 4.89325 93.2388 9.02347 95.2947 13.5826C96.4592 13.271 97.5098 12.9811 98.4246 12.7214C102.307 11.6155 107.419 11.9021 108.2 14.3282C108.324 14.717 108.319 15.099 108.222 15.471L108.223 15.4693Z" fill="url(#paint71_linear_28963_365119)"/>
<path style="mix-blend-mode:multiply" opacity="0.34" d="M90.7749 16.7896C82.8043 21.2164 73.862 23.8789 64.7688 24.5306C62.1248 24.7217 59.3886 24.73 56.9205 23.7616C56.453 23.5789 56.004 23.3645 55.5684 23.1249C56.3341 18.9896 57.455 14.8912 58.9546 10.7794C59.3149 9.79422 60.1962 9.09385 61.2384 8.97823C69.0934 8.10192 76.7305 5.40932 83.2333 1.25732C83.9001 0.831733 84.7027 0.727848 85.4299 0.928913C83.7745 5.26857 80.4703 8.98326 76.3066 11.0576C71.357 13.524 65.2915 13.6279 60.2616 11.329C59.0887 13.3514 59.841 16.0792 61.4914 17.7363C63.1401 19.3951 65.4792 20.1692 67.7764 20.6048C75.5425 22.0726 83.6505 20.2128 90.7749 16.7879V16.7896Z" fill="url(#paint72_linear_28963_365119)"/>
<path style="mix-blend-mode:multiply" opacity="0.19" d="M108.223 15.4697C107.97 16.4315 107.094 17.3044 106.246 17.9378C101.327 21.6039 95.4019 23.6313 89.5325 25.4225C76.5939 29.37 63.0086 32.4614 49.611 30.5865C48.0091 30.362 46.0823 29.7554 45.7857 28.1653C45.5964 27.1499 46.228 26.1228 47.0775 25.5381C47.2367 25.4292 47.4043 25.3303 47.5768 25.2415C44.018 34.638 94.0782 27.7464 108.222 15.4697H108.223Z" fill="url(#paint73_linear_28963_365119)"/>
<path d="M55.2323 23.9293C55.038 24.8425 54.8587 25.7691 54.6895 26.6822C54.7012 26.8682 54.9374 26.9771 55.0916 26.8799C55.2374 26.7978 55.229 26.6186 55.2608 26.4728C55.42 25.6367 55.606 24.7972 55.7517 23.9628C55.7266 23.6797 55.301 23.6528 55.2323 23.9276V23.9293Z" fill="black"/>
<path d="M97.3524 16.5857C97.3524 16.5857 97.339 16.5672 97.3239 16.5471C97.1714 16.331 97.0207 16.1148 96.8766 15.8937C96.5783 15.4296 96.2817 14.9604 96.0019 14.4845C95.8813 14.3069 95.8143 14.0807 95.6601 13.9316C95.4222 13.7305 95.0703 14.0405 95.2328 14.3069C95.6685 15.1229 96.198 15.8819 96.6537 16.6862C96.7425 16.8169 96.7894 16.9895 96.9151 17.0883C97.1162 17.2659 97.4563 17.0917 97.4496 16.827C97.4529 16.7348 97.406 16.656 97.3524 16.584V16.5857Z" fill="black"/>
<path d="M79.3515 8.98849C79.0583 8.84774 78.9024 9.13928 78.6511 9.29679C78.3411 9.53639 78.0948 9.73745 77.5553 10.1145C75.3922 11.5353 72.284 12.3144 69.9064 12.6177C68.2141 12.8322 66.7095 12.6345 65.2132 12.3999C64.3855 12.2876 63.9549 12.1888 63.0853 12.0447C62.7653 12.0732 62.7251 12.5624 63.0451 12.6428C63.8728 12.8791 64.7273 12.9981 65.5768 13.1254C66.9692 13.3365 68.3884 13.4371 69.7925 13.2678C71.4882 13.0668 73.1654 12.6713 74.7722 12.0916C75.6519 11.7749 76.9538 11.2605 77.9289 10.5903C78.3763 10.2803 78.8002 9.93684 79.2275 9.60006C79.3129 9.52298 79.4302 9.46434 79.4721 9.35375C79.5375 9.22474 79.4738 9.06053 79.3532 8.98849H79.3515Z" fill="black"/>
<path d="M87.4337 18.2859C86.6228 18.6831 85.8419 18.9612 84.9589 19.3382C82.2915 20.4759 79.4447 21.5382 76.5041 22.3676C71.8193 23.6175 67.3305 24.1219 62.4463 24.023C61.6169 24.0012 60.7892 23.9543 59.9665 23.8538C59.7386 23.8286 59.5108 23.7951 59.2829 23.7717C59.1304 23.7398 58.9578 23.8203 58.9059 23.9711C58.8338 24.1185 58.9025 24.3079 59.0433 24.39C59.2142 24.4704 59.4186 24.4385 59.6012 24.4754C60.2379 24.5491 60.878 24.5944 61.5181 24.6296C63.3344 24.7452 65.1557 24.6664 66.9703 24.5491C69.5456 24.3866 72.1025 24.0012 74.6175 23.4181C77.5044 22.7664 80.2959 21.7476 83.0371 20.6418C84.158 20.1693 85.3879 19.6431 86.4719 19.1991C86.8724 19.0332 87.2645 18.8523 87.6515 18.6562C87.7001 18.6278 87.7353 18.5825 87.7504 18.5289C87.8023 18.353 87.5962 18.1888 87.4371 18.2876L87.4337 18.2859Z" fill="black"/>
<defs>
<linearGradient id="paint0_linear_28963_365119" x1="92.9086" y1="113.232" x2="-18.2118" y2="113.232" gradientUnits="userSpaceOnUse">
<stop stop-color="#454347"/>
<stop offset="1" stop-color="#626163"/>
</linearGradient>
<linearGradient id="paint1_linear_28963_365119" x1="92.909" y1="89.0881" x2="12.9219" y2="89.0881" gradientUnits="userSpaceOnUse">
<stop stop-color="#454347"/>
<stop offset="1" stop-color="#626163"/>
</linearGradient>
<linearGradient id="paint2_linear_28963_365119" x1="64.9106" y1="74.3929" x2="80.0525" y2="34.654" gradientUnits="userSpaceOnUse">
<stop stop-color="#FFC493"/>
<stop offset="1" stop-color="#FFB073"/>
</linearGradient>
<linearGradient id="paint3_linear_28963_365119" x1="70.3354" y1="61.1364" x2="60.7378" y2="84.9375" gradientUnits="userSpaceOnUse">
<stop stop-color="#363636"/>
<stop offset="1" stop-color="#131313"/>
</linearGradient>
<linearGradient id="paint4_linear_28963_365119" x1="85.1947" y1="51.5006" x2="44.8945" y2="51.5006" gradientUnits="userSpaceOnUse">
<stop stop-color="#FFC493"/>
<stop offset="1" stop-color="#FFB073"/>
</linearGradient>
<linearGradient id="paint5_linear_28963_365119" x1="64.6653" y1="75.9605" x2="74.489" y2="58.6454" gradientUnits="userSpaceOnUse">
<stop stop-color="#FFAB18"/>
<stop offset="1" stop-color="#FFE068"/>
</linearGradient>
<linearGradient id="paint6_linear_28963_365119" x1="58.1933" y1="52.5754" x2="59.6477" y2="50.0135" gradientUnits="userSpaceOnUse">
<stop stop-color="#FFAB18"/>
<stop offset="1" stop-color="#FFE068"/>
</linearGradient>
<linearGradient id="paint7_linear_28963_365119" x1="59.3095" y1="54.749" x2="60.7622" y2="52.1888" gradientUnits="userSpaceOnUse">
<stop stop-color="#FFAB18"/>
<stop offset="1" stop-color="#FFE068"/>
</linearGradient>
<linearGradient id="paint8_linear_28963_365119" x1="58.0449" y1="53.8124" x2="59.4054" y2="51.4147" gradientUnits="userSpaceOnUse">
<stop stop-color="#FFAB18"/>
<stop offset="1" stop-color="#FFE068"/>
</linearGradient>
<linearGradient id="paint9_linear_28963_365119" x1="59.5468" y1="56.6358" x2="60.9241" y2="54.2079" gradientUnits="userSpaceOnUse">
<stop stop-color="#FFAB18"/>
<stop offset="1" stop-color="#FFE068"/>
</linearGradient>
<linearGradient id="paint10_linear_28963_365119" x1="58.1818" y1="55.7576" x2="59.6077" y2="53.2443" gradientUnits="userSpaceOnUse">
<stop stop-color="#FFAB18"/>
<stop offset="1" stop-color="#FFE068"/>
</linearGradient>
<linearGradient id="paint11_linear_28963_365119" x1="59.9058" y1="58.3735" x2="61.315" y2="55.8903" gradientUnits="userSpaceOnUse">
<stop stop-color="#FFAB18"/>
<stop offset="1" stop-color="#FFE068"/>
</linearGradient>
<linearGradient id="paint12_linear_28963_365119" x1="58.5699" y1="57.5622" x2="60.0008" y2="55.0405" gradientUnits="userSpaceOnUse">
<stop stop-color="#FFAB18"/>
<stop offset="1" stop-color="#FFE068"/>
</linearGradient>
<linearGradient id="paint13_linear_28963_365119" x1="60.3205" y1="60.1375" x2="61.7481" y2="57.6191" gradientUnits="userSpaceOnUse">
<stop stop-color="#FFAB18"/>
<stop offset="1" stop-color="#FFE068"/>
</linearGradient>
<linearGradient id="paint14_linear_28963_365119" x1="59.0108" y1="59.3205" x2="60.43" y2="56.8205" gradientUnits="userSpaceOnUse">
<stop stop-color="#FFAB18"/>
<stop offset="1" stop-color="#FFE068"/>
</linearGradient>
<linearGradient id="paint15_linear_28963_365119" x1="59.3994" y1="61.1899" x2="60.8304" y2="58.6682" gradientUnits="userSpaceOnUse">
<stop stop-color="#FFAB18"/>
<stop offset="1" stop-color="#FFE068"/>
</linearGradient>
<linearGradient id="paint16_linear_28963_365119" x1="60.7066" y1="61.9738" x2="62.1241" y2="59.4722" gradientUnits="userSpaceOnUse">
<stop stop-color="#FFAB18"/>
<stop offset="1" stop-color="#FFE068"/>
</linearGradient>
<linearGradient id="paint17_linear_28963_365119" x1="61.147" y1="63.7702" x2="62.5829" y2="61.2384" gradientUnits="userSpaceOnUse">
<stop stop-color="#FFAB18"/>
<stop offset="1" stop-color="#FFE068"/>
</linearGradient>
<linearGradient id="paint18_linear_28963_365119" x1="59.8148" y1="62.8801" x2="61.2122" y2="60.4171" gradientUnits="userSpaceOnUse">
<stop stop-color="#FFAB18"/>
<stop offset="1" stop-color="#FFE068"/>
</linearGradient>
<linearGradient id="paint19_linear_28963_365119" x1="61.5398" y1="65.4895" x2="62.9406" y2="63.0214" gradientUnits="userSpaceOnUse">
<stop stop-color="#FFAB18"/>
<stop offset="1" stop-color="#FFE068"/>
</linearGradient>
<linearGradient id="paint20_linear_28963_365119" x1="60.177" y1="64.6571" x2="61.6096" y2="62.1337" gradientUnits="userSpaceOnUse">
<stop stop-color="#FFAB18"/>
<stop offset="1" stop-color="#FFE068"/>
</linearGradient>
<linearGradient id="paint21_linear_28963_365119" x1="61.9335" y1="67.2185" x2="63.356" y2="64.7119" gradientUnits="userSpaceOnUse">
<stop stop-color="#FFAB18"/>
<stop offset="1" stop-color="#FFE068"/>
</linearGradient>
<linearGradient id="paint22_linear_28963_365119" x1="60.6106" y1="66.4114" x2="62.0331" y2="63.9014" gradientUnits="userSpaceOnUse">
<stop stop-color="#FFAB18"/>
<stop offset="1" stop-color="#FFE068"/>
</linearGradient>
<linearGradient id="paint23_linear_28963_365119" x1="62.3749" y1="68.9451" x2="63.7957" y2="66.4418" gradientUnits="userSpaceOnUse">
<stop stop-color="#FFAB18"/>
<stop offset="1" stop-color="#FFE068"/>
</linearGradient>
<linearGradient id="paint24_linear_28963_365119" x1="61.0523" y1="68.1517" x2="62.4765" y2="65.6383" gradientUnits="userSpaceOnUse">
<stop stop-color="#FFAB18"/>
<stop offset="1" stop-color="#FFE068"/>
</linearGradient>
<linearGradient id="paint25_linear_28963_365119" x1="62.8232" y1="70.6669" x2="64.2458" y2="68.1603" gradientUnits="userSpaceOnUse">
<stop stop-color="#FFAB18"/>
<stop offset="1" stop-color="#FFE068"/>
</linearGradient>
<linearGradient id="paint26_linear_28963_365119" x1="61.5068" y1="69.8807" x2="62.931" y2="67.3724" gradientUnits="userSpaceOnUse">
<stop stop-color="#FFAB18"/>
<stop offset="1" stop-color="#FFE068"/>
</linearGradient>
<linearGradient id="paint27_linear_28963_365119" x1="63.2886" y1="72.3575" x2="64.7044" y2="69.8609" gradientUnits="userSpaceOnUse">
<stop stop-color="#FFAB18"/>
<stop offset="1" stop-color="#FFE068"/>
</linearGradient>
<linearGradient id="paint28_linear_28963_365119" x1="61.988" y1="71.6202" x2="63.4206" y2="69.0934" gradientUnits="userSpaceOnUse">
<stop stop-color="#FFAB18"/>
<stop offset="1" stop-color="#FFE068"/>
</linearGradient>
<linearGradient id="paint29_linear_28963_365119" x1="63.7615" y1="74.1104" x2="65.1958" y2="71.582" gradientUnits="userSpaceOnUse">
<stop stop-color="#FFAB18"/>
<stop offset="1" stop-color="#FFE068"/>
</linearGradient>
<linearGradient id="paint30_linear_28963_365119" x1="62.4774" y1="73.3442" x2="63.8949" y2="70.8459" gradientUnits="userSpaceOnUse">
<stop stop-color="#FFAB18"/>
<stop offset="1" stop-color="#FFE068"/>
</linearGradient>
<linearGradient id="paint31_linear_28963_365119" x1="64.2562" y1="75.8349" x2="65.6754" y2="73.3333" gradientUnits="userSpaceOnUse">
<stop stop-color="#FFAB18"/>
<stop offset="1" stop-color="#FFE068"/>
</linearGradient>
<linearGradient id="paint32_linear_28963_365119" x1="62.94" y1="75.0607" x2="64.3625" y2="72.5541" gradientUnits="userSpaceOnUse">
<stop stop-color="#FFAB18"/>
<stop offset="1" stop-color="#FFE068"/>
</linearGradient>
<linearGradient id="paint33_linear_28963_365119" x1="83.7901" y1="76.5544" x2="85.3617" y2="73.7848" gradientUnits="userSpaceOnUse">
<stop stop-color="#FFAB18"/>
<stop offset="1" stop-color="#FFE068"/>
</linearGradient>
<linearGradient id="paint34_linear_28963_365119" x1="59.5454" y1="52.5824" x2="59.9743" y2="50.8432" gradientUnits="userSpaceOnUse">
<stop stop-color="#FFFAF4"/>
<stop offset="1" stop-color="#FAECDD"/>
</linearGradient>
<linearGradient id="paint35_linear_28963_365119" x1="60.0461" y1="54.3737" x2="60.4734" y2="52.6412" gradientUnits="userSpaceOnUse">
<stop stop-color="#FFFAF4"/>
<stop offset="1" stop-color="#FAECDD"/>
</linearGradient>
<linearGradient id="paint36_linear_28963_365119" x1="60.2139" y1="56.2685" x2="60.6277" y2="54.5879" gradientUnits="userSpaceOnUse">
<stop stop-color="#FFFAF4"/>
<stop offset="1" stop-color="#FAECDD"/>
</linearGradient>
<linearGradient id="paint37_linear_28963_365119" x1="60.6165" y1="57.9389" x2="61.0387" y2="56.2298" gradientUnits="userSpaceOnUse">
<stop stop-color="#FFFAF4"/>
<stop offset="1" stop-color="#FAECDD"/>
</linearGradient>
<linearGradient id="paint38_linear_28963_365119" x1="60.9072" y1="59.8595" x2="61.2976" y2="58.2795" gradientUnits="userSpaceOnUse">
<stop stop-color="#FFFAF4"/>
<stop offset="1" stop-color="#FAECDD"/>
</linearGradient>
<linearGradient id="paint39_linear_28963_365119" x1="61.4894" y1="61.2183" x2="61.8614" y2="59.7103" gradientUnits="userSpaceOnUse">
<stop stop-color="#FFFAF4"/>
<stop offset="1" stop-color="#FAECDD"/>
</linearGradient>
<linearGradient id="paint40_linear_28963_365119" x1="61.9302" y1="63.0536" x2="62.2788" y2="61.6428" gradientUnits="userSpaceOnUse">
<stop stop-color="#FFFAF4"/>
<stop offset="1" stop-color="#FAECDD"/>
</linearGradient>
<linearGradient id="paint41_linear_28963_365119" x1="62.3253" y1="64.4491" x2="62.6336" y2="63.2008" gradientUnits="userSpaceOnUse">
<stop stop-color="#FFFAF4"/>
<stop offset="1" stop-color="#FAECDD"/>
</linearGradient>
<linearGradient id="paint42_linear_28963_365119" x1="62.7237" y1="66.4324" x2="63.0588" y2="65.0786" gradientUnits="userSpaceOnUse">
<stop stop-color="#FFFAF4"/>
<stop offset="1" stop-color="#FAECDD"/>
</linearGradient>
<linearGradient id="paint43_linear_28963_365119" x1="63.1785" y1="67.8569" x2="63.4265" y2="66.8533" gradientUnits="userSpaceOnUse">
<stop stop-color="#FFFAF4"/>
<stop offset="1" stop-color="#FAECDD"/>
</linearGradient>
<linearGradient id="paint44_linear_28963_365119" x1="63.6208" y1="69.9302" x2="63.9542" y2="68.5763" gradientUnits="userSpaceOnUse">
<stop stop-color="#FFFAF4"/>
<stop offset="1" stop-color="#FAECDD"/>
</linearGradient>
<linearGradient id="paint45_linear_28963_365119" x1="64.0485" y1="71.5808" x2="64.3987" y2="70.1616" gradientUnits="userSpaceOnUse">
<stop stop-color="#FFFAF4"/>
<stop offset="1" stop-color="#FAECDD"/>
</linearGradient>
<linearGradient id="paint46_linear_28963_365119" x1="64.5962" y1="73.2201" x2="64.9028" y2="71.9769" gradientUnits="userSpaceOnUse">
<stop stop-color="#FFFAF4"/>
<stop offset="1" stop-color="#FAECDD"/>
</linearGradient>
<linearGradient id="paint47_linear_28963_365119" x1="65.0217" y1="74.9862" x2="65.3702" y2="73.5704" gradientUnits="userSpaceOnUse">
<stop stop-color="#FFFAF4"/>
<stop offset="1" stop-color="#FAECDD"/>
</linearGradient>
<linearGradient id="paint48_linear_28963_365119" x1="104.637" y1="61.2704" x2="58.2658" y2="117.255" gradientUnits="userSpaceOnUse">
<stop stop-color="#363636"/>
<stop offset="1" stop-color="#131313"/>
</linearGradient>
<linearGradient id="paint49_linear_28963_365119" x1="73.363" y1="54.6506" x2="77.6591" y2="43.3759" gradientUnits="userSpaceOnUse">
<stop stop-color="#FFC493"/>
<stop offset="1" stop-color="#FFB073"/>
</linearGradient>
<linearGradient id="paint50_linear_28963_365119" x1="107.388" y1="23.8144" x2="66.6357" y2="53.8704" gradientUnits="userSpaceOnUse">
<stop stop-color="#FFC493"/>
<stop offset="1" stop-color="#FFB073"/>
</linearGradient>
<linearGradient id="paint51_linear_28963_365119" x1="89.127" y1="52.9142" x2="83.4971" y2="41.3328" gradientUnits="userSpaceOnUse">
<stop stop-color="#FFF4EF"/>
<stop offset="1" stop-color="#F6DFD7"/>
</linearGradient>
<linearGradient id="paint52_linear_28963_365119" x1="83.8224" y1="54.5633" x2="84.5261" y2="45.5422" gradientUnits="userSpaceOnUse">
<stop stop-color="#FFF4EF"/>
<stop offset="1" stop-color="#F6DFD7"/>
</linearGradient>
<linearGradient id="paint53_linear_28963_365119" x1="96.6037" y1="37.7703" x2="82.3046" y2="29.5165" gradientUnits="userSpaceOnUse">
<stop stop-color="#FF9762"/>
<stop offset="1" stop-color="#FFB073"/>
</linearGradient>
<linearGradient id="paint54_linear_28963_365119" x1="40.0293" y1="96.7858" x2="-39.1821" y2="198.428" gradientUnits="userSpaceOnUse">
<stop stop-color="#363636"/>
<stop offset="1" stop-color="#131313"/>
</linearGradient>
<linearGradient id="paint55_linear_28963_365119" x1="92.757" y1="57.4974" x2="33.4142" y2="109.436" gradientUnits="userSpaceOnUse">
<stop stop-color="#363636"/>
<stop offset="1" stop-color="#131313"/>
</linearGradient>
<linearGradient id="paint56_linear_28963_365119" x1="62.2439" y1="63.9856" x2="69.3667" y2="31.7933" gradientUnits="userSpaceOnUse">
<stop stop-color="#FFAB18"/>
<stop offset="1" stop-color="#FFE068"/>
</linearGradient>
<linearGradient id="paint57_linear_28963_365119" x1="56.6966" y1="36.9232" x2="78.7836" y2="24.5979" gradientUnits="userSpaceOnUse">
<stop stop-color="#9F5A10"/>
<stop offset="1" stop-color="#F0891E"/>
</linearGradient>
<linearGradient id="paint58_linear_28963_365119" x1="99.2477" y1="66.8661" x2="67.3822" y2="45.9787" gradientUnits="userSpaceOnUse">
<stop stop-color="#FFC493"/>
<stop offset="1" stop-color="#FFB073"/>
</linearGradient>
<linearGradient id="paint59_linear_28963_365119" x1="59.4667" y1="41.9241" x2="65.0332" y2="42.658" gradientUnits="userSpaceOnUse">
<stop stop-color="#FFC493"/>
<stop offset="1" stop-color="#FFB073"/>
</linearGradient>
<linearGradient id="paint60_linear_28963_365119" x1="97.0604" y1="43.67" x2="62.6732" y2="39.0271" gradientUnits="userSpaceOnUse">
<stop stop-color="#FFC493"/>
<stop offset="1" stop-color="#FFB073"/>
</linearGradient>
<linearGradient id="paint61_linear_28963_365119" x1="90.9296" y1="57.8239" x2="87.369" y2="25.6333" gradientUnits="userSpaceOnUse">
<stop stop-color="#FFAB18"/>
<stop offset="1" stop-color="#FFE068"/>
</linearGradient>
<linearGradient id="paint62_linear_28963_365119" x1="85.7197" y1="19.9928" x2="81.8039" y2="36.4266" gradientUnits="userSpaceOnUse">
<stop stop-color="#363636"/>
<stop offset="1" stop-color="#131313"/>
</linearGradient>
<linearGradient id="paint63_linear_28963_365119" x1="84.3206" y1="25.4681" x2="81.8559" y2="35.8113" gradientUnits="userSpaceOnUse">
<stop stop-color="#363636"/>
<stop offset="1" stop-color="#131313"/>
</linearGradient>
<linearGradient id="paint64_linear_28963_365119" x1="96.9116" y1="13.694" x2="92.9976" y2="30.1277" gradientUnits="userSpaceOnUse">
<stop stop-color="#363636"/>
<stop offset="1" stop-color="#131313"/>
</linearGradient>
<linearGradient id="paint65_linear_28963_365119" x1="82.3842" y1="34.8749" x2="84.7031" y2="25.4684" gradientUnits="userSpaceOnUse">
<stop stop-color="#FFFAF4"/>
<stop offset="1" stop-color="#FAECDD"/>
</linearGradient>
<linearGradient id="paint66_linear_28963_365119" x1="84.8834" y1="34.7479" x2="86.9209" y2="26.4874" gradientUnits="userSpaceOnUse">
<stop stop-color="#FFFAF4"/>
<stop offset="1" stop-color="#FAECDD"/>
</linearGradient>
<linearGradient id="paint67_linear_28963_365119" x1="94.8934" y1="28.892" x2="97.1838" y2="19.6028" gradientUnits="userSpaceOnUse">
<stop stop-color="#FFFAF4"/>
<stop offset="1" stop-color="#FAECDD"/>
</linearGradient>
<linearGradient id="paint68_linear_28963_365119" x1="97.2144" y1="27.9357" x2="98.91" y2="21.0609" gradientUnits="userSpaceOnUse">
<stop stop-color="#FFFAF4"/>
<stop offset="1" stop-color="#FAECDD"/>
</linearGradient>
<linearGradient id="paint69_linear_28963_365119" x1="95.4857" y1="19.0953" x2="93.0043" y2="29.5122" gradientUnits="userSpaceOnUse">
<stop stop-color="#363636"/>
<stop offset="1" stop-color="#131313"/>
</linearGradient>
<linearGradient id="paint70_linear_28963_365119" x1="67.5142" y1="35.0066" x2="105.306" y2="6.6178" gradientUnits="userSpaceOnUse">
<stop stop-color="#454347"/>
<stop offset="1" stop-color="#626163"/>
</linearGradient>
<linearGradient id="paint71_linear_28963_365119" x1="60.497" y1="30.6816" x2="114.3" y2="-9.73592" gradientUnits="userSpaceOnUse">
<stop stop-color="#454347"/>
<stop offset="1" stop-color="#626163"/>
</linearGradient>
<linearGradient id="paint72_linear_28963_365119" x1="63.229" y1="22.2435" x2="97.4201" y2="-3.4409" gradientUnits="userSpaceOnUse">
<stop stop-color="#454347"/>
<stop offset="1" stop-color="#626163"/>
</linearGradient>
<linearGradient id="paint73_linear_28963_365119" x1="61.9212" y1="32.8083" x2="115.006" y2="-7.06803" gradientUnits="userSpaceOnUse">
<stop stop-color="#454347"/>
<stop offset="1" stop-color="#626163"/>
</linearGradient>
</defs>
</svg>
