<svg width="480" height="480" viewBox="0 0 480 480" fill="none" xmlns="http://www.w3.org/2000/svg">
<g clip-path="url(#clip0_26486_109513)">
<rect width="480" height="480" rx="8" fill="white"/>
<path d="M347.881 635.05C346.681 651.32 342.411 666.84 336.261 681.82C325.521 707.91 309.051 732.29 293.151 755.89C288.871 762.25 284.581 768.64 280.311 775.03C263.821 799.72 247.411 824.59 230.791 849.31C229.591 851.1 228.381 852.89 227.161 854.68C218.181 868.01 209.131 881.3 199.931 894.47C192.171 905.63 184.321 916.72 176.351 927.71C162.181 947.22 132.361 993.79 88.1309 1050.42C80.6709 1059.96 72.8209 1069.78 64.5509 1079.82C55.2209 1091.16 45.3709 1102.75 35.0109 1114.49C16.8509 1115.87 -22.5991 1110.36 -41.4491 1109.37C-41.4491 1109.37 -41.4891 1109.37 -41.5091 1109.37C-41.7691 1109.35 -42.0391 1109.35 -42.2891 1109.33H-42.3091C-43.4991 1109.28 -44.6891 1109.22 -45.8691 1109.15C-46.4891 1109.12 -47.1191 1109.09 -47.7391 1109.05C-51.7091 1108.82 -55.6691 1108.55 -59.6191 1108.22C-60.3491 1108.17 -61.0791 1108.1 -61.8091 1108.04C-62.8791 1107.95 -63.9391 1107.85 -64.9891 1107.75C-66.8391 1107.58 -68.6792 1107.4 -70.5191 1107.2C-71.6691 1107.08 -72.8191 1106.95 -73.9691 1106.82C-74.1991 1106.8 -74.4292 1106.77 -74.6492 1106.74C-75.9992 1106.6 -77.3491 1106.43 -78.6891 1106.27C-79.0191 1106.23 -79.3491 1106.19 -79.6691 1106.15C-81.0091 1105.98 -82.3491 1105.81 -83.6891 1105.63C-85.1991 1105.43 -86.7091 1105.22 -88.2191 1105.01C-89.0991 1104.88 -89.9791 1104.75 -90.8491 1104.63C-92.7391 1104.34 -94.6291 1104.06 -96.5091 1103.75C-97.1391 1103.65 -97.7791 1103.55 -98.4091 1103.44C-99.1491 1103.32 -99.8991 1103.2 -100.639 1103.06C-101.589 1102.9 -102.559 1102.74 -103.509 1102.56C-104.729 1102.35 -105.949 1102.13 -107.159 1101.91C-108.479 1101.66 -109.799 1101.41 -111.109 1101.17C-113.409 1100.73 -115.699 1100.27 -117.989 1099.79C-188.949 1085.07 -255.909 1054.54 -314.859 1010.97C-313.619 1002.31 -315.629 992.97 -314.629 984.24C-314.599 983.98 -314.569 983.74 -314.529 983.48C-314.499 983.23 -314.459 982.98 -314.419 982.73V982.71C-314.039 980.3 -313.659 977.89 -313.279 975.48C-313.019 973.82 -312.749 972.16 -312.479 970.5C-312.189 968.66 -311.889 966.81 -311.579 964.96C-311.209 962.69 -310.829 960.42 -310.439 958.14C-310.139 956.32 -309.829 954.5 -309.519 952.68C-309.349 951.67 -309.169 950.64 -308.999 949.63C-308.829 948.62 -308.649 947.6 -308.469 946.58C-308.059 944.17 -307.639 941.77 -307.209 939.36C-306.739 936.72 -306.269 934.08 -305.799 931.43C-305.319 928.78 -304.839 926.15 -304.359 923.5C-303.839 920.69 -303.319 917.87 -302.789 915.06C-302.409 913.07 -302.049 911.08 -301.659 909.08C-300.519 903.1 -299.359 897.14 -298.159 891.17C-297.769 889.19 -297.369 887.19 -296.959 885.21C-296.559 883.22 -296.159 881.23 -295.749 879.24C-295.339 877.26 -294.939 875.26 -294.519 873.28C-294.109 871.3 -293.699 869.3 -293.279 867.31C-289.479 849.25 -285.469 831.25 -281.229 813.28C-279.109 804.3 -276.949 795.33 -274.709 786.37C-267.609 757.77 -259.979 729.31 -251.789 701.03C-244.179 674.68 -236.109 648.48 -227.599 622.46C-218.249 593.94 -208.389 565.63 -197.999 537.58C-197.879 537.26 -197.769 536.93 -197.639 536.62C-185.909 505 -172.299 472.03 -145.449 451.63C-140.299 447.71 -134.819 444.37 -129.099 441.47C-109.889 431.71 -88.0391 426.82 -67.1291 420.79C-57.2991 417.95 -47.5491 414.81 -37.9191 411.35C-2.99908 398.84 30.4909 382.36 61.7409 362.37C95.5309 340.78 126.701 315.11 154.271 285.99C168.881 285.94 168.941 277.4 178.841 266.66C219.601 288.5 260.611 312.19 300.251 336.01C300.731 390.75 310.061 444.88 322.391 498.34C326.521 516.28 331.001 534.14 335.591 551.92C337.931 560.99 340.301 570.13 342.361 579.31C346.481 597.72 349.311 616.33 347.941 635.07L347.881 635.05Z" fill="url(#paint0_linear_26486_109513)"/>
<path style="mix-blend-mode:multiply" opacity="0.44" d="M-129.149 441.45C-66.1294 507.56 4.5106 566.91 84.5606 610.71C161.981 653.07 248.371 679.1 336.271 681.81C342.421 666.84 346.701 651.31 347.891 635.05C349.261 616.31 346.431 597.7 342.311 579.29C270.181 585.5 196.501 573.33 130.301 544.03C64.2906 514.82 5.89064 468.66 -37.9694 411.34C-47.5994 414.79 -57.3494 417.94 -67.1794 420.78C-88.0894 426.81 -109.939 431.71 -129.139 441.46L-129.149 441.45Z" fill="url(#paint1_linear_26486_109513)"/>
<path d="M322.331 498.32C311.891 498.7 301.431 498.51 291.011 497.78C285.871 497.42 280.731 496.93 275.611 496.31C245.191 492.6 215.321 484.24 187.461 471.46C185.641 470.63 183.831 469.78 182.021 468.9C181.401 468.6 180.771 468.3 180.161 467.99C179.811 467.82 179.471 467.65 179.131 467.48C176.101 465.98 173.111 464.42 170.141 462.81C130.401 441.29 95.7007 410.56 69.4607 373.79C66.7807 370.05 64.1807 366.23 61.6807 362.36C95.4707 340.77 126.641 315.1 154.211 285.98C162.421 285.95 166.031 283.24 169.381 278.97C172.001 275.64 174.441 271.36 178.781 266.65C219.541 288.49 260.551 312.18 300.191 336C300.301 347.64 300.791 359.25 301.651 370.84C301.821 373.18 302.001 375.52 302.201 377.86C305.641 418.37 313.161 458.54 322.331 498.33V498.32Z" fill="url(#paint2_linear_26486_109513)"/>
<path d="M64.2001 358.331C105.98 426.531 177.18 472.861 254.78 489.461C266.35 491.941 278.06 493.701 289.86 494.691C302 495.721 314.16 495.211 326.28 496.001C328.95 496.171 329.97 500.521 326.96 501.001C306.13 504.311 283.37 501.591 262.67 498.421C240.99 495.101 219.87 489.281 199.55 481.041C162.1 465.851 128.26 442.741 99.98 413.911C84.34 397.961 70.7501 380.321 58.7101 361.531C56.5001 358.081 62.0601 354.821 64.2101 358.321L64.2001 358.331Z" fill="url(#paint3_linear_26486_109513)"/>
<path style="mix-blend-mode:multiply" opacity="0.35" d="M61.6907 362.351C64.1807 366.221 66.7806 370.041 69.4706 373.791C107.601 357.031 149.551 348.941 191.191 350.401C229.561 351.741 267.611 361.191 302.201 377.851C301.011 363.931 300.321 349.981 300.191 335.991C260.551 312.171 219.531 288.481 178.771 266.641C168.881 277.381 168.811 285.931 154.211 285.981C126.651 315.101 95.4707 340.771 61.6807 362.361L61.6907 362.351Z" fill="url(#paint4_linear_26486_109513)"/>
<path style="mix-blend-mode:multiply" d="M182.03 468.902C183.83 469.772 185.65 470.622 187.47 471.462C187.44 471.422 187.41 471.392 187.38 471.362L187.31 471.292C187.96 467.912 186.5 463.582 184.18 461.072C184.6 458.002 183.63 454.352 181.86 451.972C181.69 451.742 181.51 451.532 181.33 451.322C181.95 448.162 180.97 444.222 179.1 441.712C178.84 441.372 178.58 441.062 178.3 440.772C178.89 437.612 177.91 433.712 176.05 431.222C175.89 431.002 175.72 430.802 175.55 430.602C176.14 427.442 175.15 423.552 173.3 421.062C173.14 420.852 172.98 420.652 172.81 420.462C173.46 417.272 172.49 413.282 170.6 410.742C170.46 410.562 170.33 410.392 170.18 410.222C170.86 407.012 169.88 402.972 167.98 400.412C167.85 400.242 167.72 400.072 167.58 399.912C168.32 396.722 167.36 392.632 165.47 390.032C166.37 386.772 165.39 382.452 163.39 379.752C163.23 379.532 163.07 379.332 162.89 379.142C163.65 375.922 162.66 371.772 160.73 369.172C160.62 369.022 160.5 368.872 160.38 368.732C161.45 365.432 160.47 360.902 158.4 358.122C158.25 357.922 158.1 357.742 157.94 357.562C158.71 354.342 157.72 350.192 155.78 347.582C155.73 347.522 155.69 347.462 155.64 347.412C156.49 344.412 155.73 340.502 154.05 337.792C155.89 334.482 154.94 329.092 152.61 325.942C152.37 325.622 152.12 325.322 151.87 325.052C152.49 321.882 151.52 317.932 149.64 315.412C148.14 313.402 146.17 312.352 144.08 312.352C143.14 312.352 142.18 312.552 141.22 312.982C138.24 314.302 136.57 317.422 136.73 321.292C136.84 324.062 137.94 327.192 139.89 329.232C139.72 330.042 139.66 330.912 139.7 331.822C139.78 333.922 140.44 336.232 141.6 338.112C140.92 339.492 140.59 341.132 140.67 342.962C140.78 345.432 141.65 348.182 143.23 350.182C142.95 351.182 142.83 352.282 142.88 353.462C142.99 356.082 143.98 359.042 145.75 361.082C145.53 361.992 145.44 362.972 145.49 364.022C145.6 366.592 146.55 369.472 148.26 371.502C147.91 372.572 147.77 373.792 147.82 375.072C147.93 377.722 148.93 380.702 150.73 382.742C150.52 383.642 150.43 384.622 150.47 385.652C150.57 388.012 151.39 390.642 152.83 392.632C152.57 393.622 152.45 394.702 152.5 395.852C152.61 398.442 153.58 401.362 155.32 403.402C155.11 404.302 155.02 405.272 155.06 406.302C155.17 408.912 156.15 411.842 157.9 413.882C157.71 414.742 157.64 415.662 157.68 416.632C157.79 419.282 158.79 422.252 160.58 424.292C160.41 425.122 160.34 426.012 160.38 426.952C160.49 429.602 161.5 432.582 163.3 434.622C163.15 435.402 163.09 436.242 163.13 437.112C163.25 439.902 164.36 443.062 166.35 445.102C166.2 445.892 166.14 446.722 166.18 447.602C166.29 450.252 167.3 453.252 169.11 455.292C168.95 456.092 168.89 456.952 168.93 457.852C169 459.472 169.4 461.232 170.13 462.802C173.1 464.412 176.09 465.962 179.12 467.472C180.15 467.042 181.27 466.282 182.41 465.012C183.15 466.302 183.58 467.792 183.67 469.072C183.18 468.942 182.69 468.882 182.18 468.882C182.12 468.882 182.07 468.882 182.01 468.882L182.03 468.902ZM141.7 325.382C141.02 324.192 140.56 322.672 140.5 321.152C140.5 321.052 140.5 320.952 140.5 320.832C140.5 319.602 140.79 317.322 142.77 316.432C143.01 316.322 143.48 316.112 144.08 316.112C144.81 316.112 145.73 316.432 146.64 317.662C147.77 319.182 148.32 321.282 148.32 323.012C147.91 322.922 147.49 322.872 147.06 322.872C146.13 322.872 145.17 323.082 144.2 323.512C143.22 323.952 142.37 324.582 141.7 325.372V325.382ZM146.72 326.662C146.02 327.272 145.36 327.602 144.74 327.632C145.01 327.362 145.34 327.132 145.73 326.952C145.93 326.872 146.28 326.712 146.72 326.662ZM143.46 331.672C143.46 331.572 143.46 331.472 143.46 331.352V331.292C143.8 331.362 144.18 331.402 144.6 331.402C146.08 331.402 147.98 330.842 149.97 328.752C151.13 330.652 151.5 333.162 151.17 334.872C150.19 334.312 149.13 334.022 148.04 334.022C147.11 334.022 146.15 334.232 145.18 334.662C144.87 334.802 144.57 334.952 144.29 335.142C143.82 334.102 143.53 332.892 143.47 331.672H143.46ZM148.69 337.882C148.06 338.202 147.46 338.262 146.89 338.062C146.87 338.062 146.85 338.042 146.84 338.042C147.1 337.932 147.51 337.782 148.01 337.782C148.22 337.782 148.45 337.812 148.69 337.882ZM145.36 346.512C144.84 345.422 144.5 344.122 144.44 342.812C144.44 342.702 144.44 342.582 144.44 342.452C144.44 342.072 144.47 341.602 144.56 341.102C144.91 341.302 145.28 341.482 145.67 341.612C146.17 341.782 146.81 341.932 147.57 341.932C148.65 341.932 149.96 341.632 151.36 340.652C151.99 342.002 152.28 343.552 152.25 344.872C151.6 344.642 150.93 344.532 150.24 344.532C149.31 344.532 148.35 344.732 147.38 345.162C146.62 345.502 145.94 345.962 145.37 346.512H145.36ZM150.66 348.322C149.7 349.172 148.8 349.472 147.97 349.212C148.23 348.962 148.54 348.752 148.91 348.592C149.15 348.482 149.62 348.272 150.21 348.272C150.35 348.272 150.5 348.292 150.66 348.322ZM147.72 357.322C147.1 356.182 146.71 354.762 146.65 353.322C146.65 353.222 146.65 353.122 146.65 353.002C146.65 352.922 146.65 352.832 146.65 352.752C147.14 352.922 147.78 353.072 148.54 353.072C149.89 353.072 151.61 352.602 153.43 350.892C154.14 352.282 154.48 353.912 154.47 355.302C153.95 355.162 153.41 355.082 152.86 355.082C151.92 355.082 150.96 355.292 150 355.722C149.13 356.112 148.37 356.652 147.73 357.322H147.72ZM152.87 358.832C152.06 359.542 151.28 359.872 150.56 359.802C150.82 359.542 151.14 359.332 151.51 359.152C151.76 359.042 152.22 358.832 152.82 358.832H152.87ZM150.41 368.022C149.76 366.852 149.32 365.372 149.26 363.872C149.26 363.772 149.26 363.672 149.26 363.552C149.26 363.502 149.26 363.442 149.26 363.382C149.68 363.492 150.18 363.572 150.74 363.572C152.16 363.572 153.96 363.052 155.88 361.162C156.8 362.802 157.18 364.842 157.04 366.432C156.44 366.232 155.81 366.142 155.18 366.142C154.24 366.142 153.28 366.352 152.32 366.782C151.61 367.102 150.97 367.522 150.41 368.032V368.022ZM154.73 369.922C154.32 370.182 153.93 370.322 153.56 370.352C153.65 370.292 153.75 370.242 153.85 370.202C154.04 370.122 154.35 369.982 154.74 369.922H154.73ZM152.68 378.962C152.06 377.812 151.64 376.372 151.58 374.922C151.56 374.642 151.56 374.272 151.61 373.842C152.08 374.002 152.67 374.122 153.35 374.122C154.68 374.122 156.35 373.662 158.12 372.052C158.99 373.532 159.41 375.372 159.39 376.912C158.88 376.772 158.35 376.712 157.82 376.712C156.88 376.712 155.92 376.912 154.96 377.342C154.07 377.732 153.31 378.292 152.67 378.962H152.68ZM157.78 380.462C157 381.142 156.25 381.462 155.55 381.412C155.81 381.152 156.12 380.942 156.5 380.772C156.74 380.662 157.2 380.462 157.78 380.452V380.462ZM155.02 388.872C154.58 387.862 154.3 386.682 154.25 385.492C154.25 385.382 154.25 385.262 154.25 385.132C154.25 385.082 154.25 385.042 154.25 384.992C154.66 385.102 155.14 385.182 155.69 385.182C157.12 385.182 158.94 384.652 160.85 382.742C161.65 384.142 162.05 385.842 162.06 387.312C161.36 387.052 160.62 386.912 159.87 386.912C158.93 386.912 157.97 387.122 157.01 387.552C156.27 387.882 155.6 388.322 155.03 388.872H155.02ZM160.69 390.812C159.61 391.842 158.59 392.202 157.68 391.882C157.6 391.852 157.51 391.822 157.43 391.772C157.72 391.452 158.08 391.182 158.54 390.972C158.89 390.812 159.71 390.452 160.7 390.802L160.69 390.812ZM157.3 399.602C156.71 398.482 156.34 397.102 156.28 395.702C156.28 395.602 156.28 395.492 156.28 395.372C156.33 395.392 156.39 395.422 156.45 395.442C156.94 395.612 157.59 395.762 158.35 395.762C159.7 395.762 161.41 395.292 163.22 393.602C163.81 394.882 164.09 396.332 164.09 397.592C163.55 397.442 162.99 397.362 162.43 397.362C161.5 397.362 160.54 397.562 159.57 397.992C158.7 398.382 157.93 398.922 157.3 399.602ZM162.6 401.122C161.68 401.952 160.83 402.302 160.04 402.172C160.32 401.872 160.66 401.612 161.09 401.432C161.34 401.322 161.81 401.112 162.4 401.112C162.47 401.112 162.54 401.112 162.6 401.112V401.122ZM159.84 410.012C159.27 408.892 158.89 407.532 158.83 406.152C158.83 406.052 158.83 405.952 158.83 405.832V405.752C159.26 405.872 159.78 405.962 160.37 405.962C161.79 405.962 163.6 405.432 165.51 403.532C166.25 404.882 166.62 406.502 166.64 407.902C166.13 407.762 165.6 407.692 165.05 407.692C164.11 407.692 163.15 407.902 162.19 408.332C161.28 408.742 160.49 409.312 159.84 410.012ZM165.29 411.452C164.32 412.382 163.4 412.772 162.56 412.602C162.86 412.262 163.24 411.962 163.72 411.752C163.97 411.642 164.43 411.432 165.03 411.432C165.11 411.432 165.2 411.432 165.29 411.452ZM162.48 420.402C161.9 419.272 161.52 417.882 161.45 416.482C161.45 416.402 161.45 416.312 161.45 416.222C161.87 416.332 162.37 416.412 162.94 416.412C164.38 416.412 166.22 415.882 168.16 413.912C168.88 415.252 169.24 416.832 169.27 418.202C168.77 418.072 168.27 418.012 167.75 418.012C166.81 418.012 165.85 418.212 164.89 418.642C163.95 419.052 163.15 419.652 162.48 420.402ZM165.16 430.652C164.59 429.532 164.22 428.162 164.16 426.792C164.16 426.712 164.16 426.642 164.16 426.552C164.56 426.662 165.03 426.732 165.56 426.732C167.02 426.732 168.89 426.182 170.84 424.172C171.55 425.462 171.91 426.982 171.96 428.332C171.49 428.222 171.01 428.162 170.51 428.162C169.57 428.162 168.61 428.372 167.65 428.802C166.67 429.242 165.84 429.862 165.17 430.652H165.16ZM170.78 431.932C169.74 432.982 168.77 433.432 167.88 433.252C168.2 432.842 168.62 432.482 169.17 432.232C169.46 432.102 170.05 431.852 170.78 431.932ZM168.13 441.222C167.44 440.032 166.98 438.512 166.91 436.962V436.902C167.3 436.992 167.75 437.062 168.26 437.062C169.74 437.062 171.64 436.502 173.63 434.412C174.36 435.772 174.71 437.382 174.73 438.772C174.34 438.692 173.95 438.662 173.55 438.662C172.62 438.662 171.66 438.872 170.69 439.302C169.68 439.752 168.82 440.412 168.13 441.222ZM173.16 442.432C172.46 443.052 171.81 443.392 171.18 443.442C171.46 443.152 171.8 442.912 172.21 442.732C172.41 442.642 172.74 442.492 173.16 442.442V442.432ZM170.98 451.362C170.4 450.222 170.02 448.842 169.95 447.442C169.95 447.342 169.95 447.232 169.95 447.112C170.27 447.172 170.63 447.212 171.02 447.212C172.52 447.212 174.43 446.632 176.45 444.502C177.3 445.882 177.74 447.602 177.77 449.092C177.3 448.972 176.81 448.912 176.31 448.912C175.37 448.912 174.41 449.122 173.45 449.552C172.49 449.982 171.66 450.592 170.99 451.362H170.98ZM176.48 452.672C175.5 453.642 174.58 454.052 173.73 453.912C174.05 453.532 174.44 453.212 174.96 452.982C175.21 452.872 175.67 452.662 176.27 452.662C176.34 452.662 176.41 452.662 176.48 452.662V452.672ZM176.15 464.102C176.43 463.602 176.83 463.152 177.41 462.812C177.67 462.652 178.22 462.332 178.94 462.332C179.17 462.332 179.43 462.372 179.69 462.452C178.41 463.902 177.22 464.452 176.15 464.102ZM178.97 458.582C177.81 458.582 176.64 458.902 175.5 459.572C174.74 460.012 174.09 460.582 173.55 461.252C173.06 460.202 172.75 458.962 172.69 457.702C172.69 457.652 172.69 457.592 172.69 457.532C173.08 457.632 173.54 457.702 174.04 457.702C175.51 457.702 177.4 457.142 179.38 455.082C180 456.222 180.36 457.542 180.48 458.762C179.98 458.632 179.48 458.572 178.97 458.572V458.582ZM305.13 460.782C304.81 459.002 304.05 457.562 302.94 456.542C301.83 455.532 300.38 454.942 298.67 454.862C295.42 454.732 292.54 456.772 290.96 460.322C290.24 461.942 289.81 463.882 289.82 465.762C288.44 466.692 287.27 468.132 286.45 469.972C285.68 471.702 285.25 473.792 285.32 475.802C284.12 476.722 283.12 478.042 282.39 479.692C281.65 481.362 281.22 483.372 281.25 485.312C279.96 486.242 278.87 487.622 278.09 489.362C277.32 491.072 276.89 493.142 276.95 495.132C276.48 495.472 276.03 495.872 275.61 496.312C280.73 496.932 285.86 497.422 291.01 497.782C291.96 495.882 292.47 493.602 292.43 491.512C295.25 489.692 296.84 485.342 296.71 481.652C299.31 479.822 300.81 475.802 300.78 472.282C304.14 470.312 305.85 464.792 305.13 460.772V460.782ZM287.3 496.722C286.41 495.252 284.96 494.212 283.08 493.772C282.31 493.592 281.53 493.542 280.77 493.622C280.88 492.702 281.12 491.762 281.52 490.882C281.67 490.552 281.91 490.062 282.26 489.572C282.55 490.122 282.92 490.622 283.36 491.072C284.12 491.842 285.52 492.842 287.71 492.842C288 492.842 288.3 492.822 288.62 492.792C288.45 494.262 287.94 495.682 287.3 496.722ZM285.51 487.662H285.64C286.11 487.682 287.34 487.742 288.08 489.072C287.22 489.162 286.53 488.952 286.04 488.452C285.83 488.232 285.65 487.972 285.51 487.662ZM291.4 487.332C291.05 486.652 290.6 486.072 290.06 485.582C288.95 484.572 287.5 483.982 285.79 483.912C285.54 483.912 285.3 483.912 285.06 483.912C285.17 483.012 285.42 482.082 285.8 481.202C285.94 480.912 286.14 480.492 286.43 480.052C286.7 480.522 287.03 480.972 287.41 481.362C288.17 482.132 289.57 483.132 291.76 483.132C292.12 483.132 292.5 483.102 292.9 483.042C292.73 484.672 292.13 486.262 291.38 487.322L291.4 487.332ZM289.6 477.982C289.66 477.982 289.73 477.982 289.79 477.982C289.84 477.982 289.89 477.982 289.93 477.982C290.4 478.002 291.6 478.052 292.34 479.332C291.38 479.472 290.63 479.262 290.11 478.732C289.91 478.522 289.73 478.272 289.6 477.982ZM295.58 477.442C295.25 476.852 294.84 476.332 294.35 475.902C293.24 474.892 291.79 474.302 290.08 474.222C289.76 474.202 289.43 474.222 289.12 474.252C289.23 473.332 289.48 472.382 289.87 471.492C290.04 471.122 290.31 470.572 290.73 470.022C291.04 470.642 291.44 471.222 291.93 471.712C292.69 472.482 294.09 473.472 296.28 473.472C296.5 473.472 296.72 473.472 296.96 473.442C296.79 474.942 296.25 476.402 295.57 477.432L295.58 477.442ZM294.08 468.282C294.61 468.302 295.76 468.422 296.47 469.722C295.7 469.762 295.07 469.552 294.62 469.092C294.4 468.872 294.22 468.592 294.08 468.282ZM299.87 468.112C299.49 467.362 299.01 466.712 298.43 466.192C297.32 465.182 295.87 464.592 294.16 464.512C293.99 464.512 293.82 464.512 293.66 464.512C293.77 463.622 294.02 462.702 294.4 461.842C294.84 460.862 296.08 458.622 298.38 458.622H298.52C299.12 458.642 300.96 458.732 301.44 461.452C301.87 463.812 301.03 466.592 299.88 468.122L299.87 468.112Z" fill="url(#paint5_linear_26486_109513)"/>
<path d="M152.82 324.331C152.59 325.551 152.12 326.651 151.38 327.511C151.22 327.691 151.07 327.861 150.91 328.021C148.92 330.111 147.02 330.671 145.54 330.671C145.13 330.671 144.74 330.621 144.4 330.561C144.4 329.571 144.6 327.951 145.68 326.901C146.3 326.871 146.97 326.541 147.66 325.931C147.95 325.691 148.23 325.401 148.52 325.061C149 324.501 149.25 323.471 149.25 322.291C149.25 320.551 148.69 318.461 147.57 316.941C146.66 315.711 145.74 315.391 145.01 315.391C144.42 315.391 143.94 315.601 143.7 315.711C141.72 316.601 141.43 318.871 141.43 320.111C141.43 320.231 141.43 320.341 141.43 320.431C141.5 321.961 141.96 323.471 142.63 324.661C141.74 325.701 141.12 327.011 140.83 328.521C138.88 326.481 137.79 323.351 137.67 320.581C137.5 316.701 139.18 313.591 142.16 312.271C143.11 311.841 144.08 311.641 145.02 311.641C147.12 311.641 149.09 312.691 150.58 314.701C152.45 317.221 153.43 321.161 152.81 324.341L152.82 324.331Z" fill="url(#paint6_linear_26486_109513)"/>
<path d="M155 337.06C154.82 337.41 154.59 337.73 154.34 338.03C153.65 338.84 152.96 339.46 152.29 339.92C150.89 340.9 149.58 341.2 148.5 341.2C147.74 341.2 147.09 341.05 146.6 340.88C146.22 340.74 145.84 340.57 145.49 340.37C145.71 339.23 146.26 337.96 147.63 337.36C147.67 337.34 147.72 337.32 147.77 337.3C147.79 337.3 147.81 337.32 147.82 337.32C148.38 337.52 148.99 337.46 149.62 337.14C150.21 336.85 150.84 336.33 151.48 335.58C151.77 335.24 151.98 334.75 152.09 334.14C152.43 332.43 152.05 329.92 150.89 328.01C151.05 327.85 151.2 327.68 151.36 327.5C152.1 326.64 152.57 325.54 152.8 324.32C153.06 324.59 153.3 324.88 153.54 325.21C155.88 328.36 156.82 333.75 154.98 337.06H155Z" fill="url(#paint7_linear_26486_109513)"/>
<path d="M149.25 322.281C149.25 323.471 149 324.491 148.52 325.051C148.23 325.391 147.94 325.681 147.66 325.921C147.22 325.971 146.87 326.131 146.67 326.211C146.28 326.381 145.95 326.621 145.68 326.891C144.6 327.941 144.41 329.561 144.4 330.551V330.611C144.4 330.731 144.4 330.841 144.4 330.931C144.46 332.151 144.75 333.351 145.22 334.401C144.07 335.111 143.16 336.131 142.55 337.381C141.38 335.501 140.73 333.191 140.65 331.091C140.61 330.181 140.67 329.321 140.84 328.501C141.13 326.991 141.74 325.671 142.64 324.641C143.32 323.841 144.16 323.211 145.14 322.781C146.1 322.351 147.06 322.141 148 322.141C148.42 322.141 148.84 322.191 149.26 322.281H149.25Z" fill="url(#paint8_linear_26486_109513)"/>
<path d="M156.6 346.691C156.34 347.631 155.92 348.481 155.31 349.181C154.99 349.551 154.68 349.881 154.36 350.161C152.54 351.871 150.83 352.341 149.47 352.341C148.7 352.341 148.06 352.191 147.58 352.021C147.61 351.001 147.85 349.491 148.9 348.491C149.73 348.751 150.63 348.441 151.59 347.601C151.87 347.361 152.16 347.071 152.45 346.721C152.91 346.191 153.16 345.251 153.17 344.141C153.2 342.821 152.91 341.281 152.28 339.921C152.95 339.461 153.64 338.851 154.33 338.031C154.59 337.731 154.81 337.411 154.99 337.061C156.67 339.771 157.43 343.681 156.58 346.681L156.6 346.691Z" fill="url(#paint9_linear_26486_109513)"/>
<path d="M152.1 334.141C151.99 334.751 151.78 335.251 151.49 335.581C150.84 336.331 150.22 336.851 149.63 337.141C149.39 337.071 149.16 337.041 148.95 337.041C148.45 337.041 148.05 337.181 147.78 337.301C147.73 337.321 147.67 337.351 147.64 337.361C146.27 337.961 145.72 339.231 145.5 340.371C145.41 340.871 145.38 341.351 145.38 341.721C145.38 341.861 145.38 341.981 145.38 342.081C145.43 343.391 145.78 344.691 146.3 345.781C145.3 346.731 144.57 348.001 144.18 349.461C142.61 347.451 141.73 344.701 141.62 342.241C141.54 340.411 141.87 338.771 142.55 337.391C143.16 336.131 144.07 335.111 145.22 334.411C145.5 334.221 145.8 334.061 146.11 333.931C147.07 333.501 148.03 333.291 148.97 333.291C150.07 333.291 151.13 333.581 152.1 334.141Z" fill="url(#paint10_linear_26486_109513)"/>
<path d="M158.89 356.84C158.64 357.92 158.19 358.89 157.52 359.67C157.29 359.94 157.05 360.2 156.82 360.42C154.9 362.31 153.1 362.83 151.68 362.83C151.12 362.83 150.62 362.75 150.2 362.64C150.22 361.63 150.44 360.07 151.5 359.05C152.22 359.13 153 358.79 153.81 358.08C154.1 357.84 154.38 357.55 154.67 357.21C155.14 356.67 155.39 355.69 155.4 354.55C155.4 353.17 155.08 351.54 154.36 350.14C154.68 349.85 154.99 349.52 155.31 349.16C155.91 348.46 156.33 347.61 156.6 346.67C156.65 346.72 156.69 346.78 156.74 346.84C158.68 349.45 159.66 353.6 158.9 356.82L158.89 356.84Z" fill="url(#paint11_linear_26486_109513)"/>
<path d="M153.18 344.141C153.16 345.251 152.92 346.181 152.46 346.721C152.17 347.071 151.87 347.361 151.6 347.601C151.44 347.571 151.29 347.551 151.15 347.551C150.56 347.551 150.09 347.761 149.85 347.871C149.48 348.041 149.17 348.251 148.91 348.491C147.86 349.481 147.62 350.991 147.59 352.021C147.59 352.101 147.59 352.191 147.59 352.271C147.59 352.391 147.59 352.501 147.59 352.591C147.65 354.031 148.05 355.451 148.66 356.591C147.71 357.591 147.04 358.881 146.71 360.361C144.94 358.321 143.94 355.371 143.84 352.751C143.79 351.581 143.91 350.471 144.19 349.471C144.58 348.001 145.31 346.741 146.31 345.791C146.89 345.231 147.57 344.781 148.32 344.441C149.28 344.011 150.24 343.811 151.18 343.811C151.87 343.811 152.55 343.921 153.19 344.151L153.18 344.141Z" fill="url(#paint12_linear_26486_109513)"/>
<path d="M161.32 368.021C161.06 368.851 160.67 369.601 160.12 370.231C159.77 370.641 159.41 371.011 159.06 371.331C157.29 372.941 155.62 373.401 154.29 373.401C153.61 373.401 153.01 373.281 152.55 373.121C152.66 371.951 153.09 370.411 154.49 369.621C154.87 369.591 155.26 369.451 155.66 369.191H155.68C156.19 368.891 156.73 368.421 157.27 367.781C157.65 367.331 157.89 366.591 157.96 365.711C158.1 364.121 157.73 362.081 156.8 360.441C157.03 360.211 157.27 359.961 157.5 359.691C158.17 358.911 158.62 357.941 158.87 356.861C159.03 357.041 159.18 357.231 159.33 357.421C161.4 360.201 162.37 364.731 161.31 368.031L161.32 368.021Z" fill="url(#paint13_linear_26486_109513)"/>
<path d="M155.4 354.562C155.4 355.702 155.14 356.682 154.67 357.222C154.38 357.562 154.09 357.852 153.81 358.092H153.76C153.17 358.092 152.7 358.302 152.45 358.412C152.07 358.582 151.76 358.802 151.5 359.062C150.44 360.072 150.21 361.642 150.2 362.652C150.2 362.712 150.2 362.762 150.2 362.822C150.2 362.942 150.2 363.052 150.2 363.142C150.26 364.642 150.7 366.122 151.35 367.292C150.36 368.192 149.63 369.382 149.21 370.782C147.5 368.752 146.56 365.872 146.44 363.302C146.39 362.262 146.48 361.272 146.7 360.362C147.04 358.872 147.71 357.592 148.65 356.592C149.29 355.922 150.05 355.382 150.92 354.992C151.88 354.562 152.84 354.352 153.78 354.352C154.33 354.352 154.87 354.432 155.39 354.572L155.4 354.562Z" fill="url(#paint14_linear_26486_109513)"/>
<path d="M157.98 365.701C157.9 366.591 157.67 367.321 157.29 367.771C156.74 368.411 156.21 368.881 155.7 369.181H155.68C155.29 369.241 154.98 369.381 154.79 369.461C154.69 369.511 154.59 369.551 154.5 369.611C153.1 370.401 152.67 371.931 152.56 373.111C152.51 373.531 152.51 373.911 152.53 374.181C152.59 375.641 153 377.071 153.63 378.221C152.69 379.231 152.02 380.511 151.69 382.001C149.89 379.961 148.89 376.981 148.78 374.331C148.73 373.041 148.87 371.831 149.22 370.761C149.64 369.361 150.37 368.171 151.36 367.271C151.92 366.761 152.56 366.341 153.27 366.021C154.23 365.591 155.19 365.381 156.13 365.381C156.76 365.381 157.39 365.481 157.99 365.671L157.98 365.701Z" fill="url(#paint15_linear_26486_109513)"/>
<path d="M163.84 378.42C163.59 379.52 163.14 380.49 162.46 381.28C162.23 381.54 162.01 381.78 161.78 382.01C159.86 383.92 158.04 384.45 156.62 384.45C156.08 384.45 155.6 384.37 155.18 384.26C155.2 383.25 155.41 381.7 156.48 380.68C157.18 380.73 157.92 380.41 158.71 379.73C159 379.48 159.3 379.18 159.6 378.83C160.07 378.29 160.31 377.32 160.33 376.18C160.35 374.65 159.93 372.8 159.06 371.32C159.41 371 159.77 370.64 160.12 370.22C160.66 369.59 161.05 368.84 161.32 368.01C161.44 368.15 161.56 368.3 161.67 368.45C163.6 371.05 164.59 375.19 163.83 378.41L163.84 378.42Z" fill="url(#paint16_linear_26486_109513)"/>
<path d="M166.41 389.32C166.15 390.28 165.72 391.15 165.11 391.86C164.79 392.24 164.46 392.57 164.15 392.87C162.34 394.55 160.62 395.03 159.28 395.03C158.51 395.03 157.87 394.88 157.38 394.71C157.32 394.69 157.26 394.66 157.21 394.64C157.21 393.69 157.38 392.12 158.37 391.05C158.45 391.1 158.54 391.13 158.62 391.16C159.54 391.48 160.55 391.12 161.63 390.09C161.84 389.89 162.06 389.67 162.28 389.41C162.77 388.84 163.02 387.79 163 386.58C162.98 385.11 162.59 383.41 161.79 382.01C162.02 381.78 162.24 381.54 162.47 381.28C163.15 380.5 163.6 379.52 163.85 378.43C164.02 378.62 164.19 378.82 164.35 379.04C166.35 381.73 167.33 386.05 166.43 389.32H166.41Z" fill="url(#paint17_linear_26486_109513)"/>
<path d="M160.34 376.18C160.33 377.32 160.08 378.28 159.61 378.83C159.31 379.18 159.01 379.48 158.72 379.73C158.14 379.73 157.68 379.94 157.44 380.05C157.06 380.22 156.75 380.43 156.49 380.69C155.42 381.7 155.2 383.26 155.19 384.27C155.19 384.32 155.19 384.37 155.19 384.41C155.19 384.55 155.19 384.67 155.19 384.77C155.24 385.96 155.52 387.13 155.96 388.15C154.92 389.12 154.19 390.41 153.79 391.91C152.35 389.93 151.53 387.29 151.43 384.93C151.38 383.9 151.48 382.92 151.69 382.02C152.02 380.53 152.69 379.25 153.63 378.25C154.27 377.57 155.04 377.01 155.92 376.62C156.87 376.19 157.84 375.99 158.78 375.99C159.31 375.99 159.84 376.06 160.35 376.19L160.34 376.18Z" fill="url(#paint18_linear_26486_109513)"/>
<path d="M168.53 399.191C168.28 400.281 167.82 401.261 167.15 402.051C166.92 402.321 166.69 402.571 166.46 402.791C164.55 404.691 162.74 405.221 161.32 405.221C160.73 405.221 160.21 405.131 159.78 405.011C159.78 404.041 159.98 402.481 160.99 401.431C161.78 401.561 162.64 401.211 163.55 400.381C163.8 400.161 164.05 399.901 164.31 399.601C164.79 399.041 165.03 398.031 165.03 396.851C165.03 395.591 164.74 394.141 164.16 392.861C164.48 392.561 164.8 392.231 165.12 391.851C165.73 391.141 166.16 390.271 166.42 389.311C168.31 391.911 169.28 395.991 168.53 399.191Z" fill="url(#paint19_linear_26486_109513)"/>
<path d="M162.99 386.581C163 387.791 162.76 388.841 162.27 389.411C162.05 389.671 161.83 389.891 161.62 390.091C160.64 389.741 159.82 390.091 159.46 390.261C159.01 390.461 158.65 390.731 158.35 391.061C157.36 392.131 157.18 393.711 157.19 394.651C157.19 394.771 157.19 394.881 157.19 394.981C157.25 396.381 157.63 397.761 158.21 398.881C157.26 399.891 156.59 401.191 156.25 402.681C154.51 400.641 153.54 397.731 153.43 395.131C153.38 393.981 153.5 392.901 153.76 391.911C154.16 390.411 154.89 389.121 155.93 388.151C156.5 387.601 157.17 387.161 157.91 386.831C158.87 386.401 159.83 386.191 160.77 386.191C161.52 386.191 162.26 386.331 162.96 386.591L162.99 386.581Z" fill="url(#paint20_linear_26486_109513)"/>
<path d="M171.13 409.491C170.89 410.641 170.42 411.691 169.72 412.501C169.52 412.741 169.31 412.961 169.1 413.171C167.16 415.131 165.32 415.671 163.88 415.671C163.32 415.671 162.81 415.591 162.39 415.481V415.421C162.39 414.491 162.56 412.951 163.5 411.871C164.34 412.041 165.26 411.651 166.23 410.721C166.44 410.521 166.65 410.301 166.87 410.051C167.37 409.471 167.61 408.401 167.58 407.161C167.56 405.761 167.2 404.151 166.45 402.791C166.68 402.561 166.91 402.321 167.14 402.051C167.82 401.261 168.28 400.281 168.52 399.191C168.66 399.351 168.79 399.511 168.92 399.691C170.82 402.251 171.81 406.291 171.12 409.491H171.13Z" fill="url(#paint21_linear_26486_109513)"/>
<path d="M165.02 396.861C165.02 398.041 164.78 399.061 164.3 399.611C164.04 399.911 163.79 400.171 163.54 400.391C163.47 400.391 163.4 400.391 163.34 400.391C162.75 400.391 162.28 400.601 162.03 400.711C161.6 400.901 161.26 401.151 160.98 401.451C159.97 402.491 159.78 404.061 159.77 405.031V405.111C159.77 405.231 159.77 405.341 159.77 405.431C159.83 406.811 160.21 408.171 160.78 409.291C159.83 410.331 159.17 411.641 158.86 413.161C157.11 411.121 156.13 408.191 156.02 405.581C155.98 404.551 156.07 403.581 156.28 402.681C156.62 401.181 157.29 399.881 158.24 398.881C158.87 398.201 159.64 397.661 160.51 397.271C161.47 396.841 162.43 396.641 163.37 396.641C163.93 396.641 164.49 396.721 165.03 396.871L165.02 396.861Z" fill="url(#paint22_linear_26486_109513)"/>
<path d="M173.76 419.74C173.52 420.92 173.06 422 172.33 422.84C172.14 423.06 171.96 423.26 171.77 423.45C169.82 425.46 167.94 426.01 166.49 426.01C165.96 426.01 165.49 425.93 165.09 425.83C165.09 424.91 165.23 423.33 166.18 422.22C166.48 421.87 166.86 421.57 167.35 421.35C167.63 421.23 168.17 420.98 168.85 421.03C169.05 420.85 169.26 420.63 169.47 420.38C169.97 419.79 170.22 418.72 170.19 417.46C170.17 416.08 169.81 414.51 169.08 413.17C169.28 412.96 169.49 412.74 169.7 412.5C170.41 411.68 170.87 410.64 171.11 409.49C171.26 409.66 171.4 409.83 171.53 410.01C173.42 412.55 174.39 416.54 173.74 419.73L173.76 419.74Z" fill="url(#paint23_linear_26486_109513)"/>
<path d="M167.58 407.171C167.61 408.411 167.36 409.481 166.87 410.061C166.65 410.311 166.44 410.531 166.23 410.731C166.14 410.731 166.05 410.711 165.97 410.711C165.38 410.711 164.91 410.921 164.66 411.031C164.18 411.241 163.8 411.541 163.5 411.881C162.55 412.951 162.39 414.501 162.39 415.431V415.491C162.39 415.591 162.39 415.671 162.39 415.751C162.46 417.161 162.84 418.551 163.42 419.671C162.49 420.711 161.85 422.041 161.54 423.561C159.75 421.521 158.74 418.551 158.64 415.901C158.59 414.931 158.67 414.011 158.86 413.151C159.18 411.631 159.83 410.321 160.78 409.291C161.43 408.581 162.22 408.001 163.13 407.601C164.09 407.171 165.05 406.961 165.99 406.961C166.53 406.961 167.07 407.031 167.58 407.171Z" fill="url(#paint24_linear_26486_109513)"/>
<path d="M176.49 429.88C176.27 431.14 175.8 432.27 175.03 433.16C174.87 433.34 174.71 433.51 174.56 433.68C172.57 435.76 170.67 436.33 169.19 436.33C168.69 436.33 168.24 436.26 167.84 436.17C167.81 435.34 167.89 433.7 168.8 432.53C169.69 432.7 170.66 432.26 171.7 431.21C171.86 431.06 172.01 430.89 172.17 430.71C172.7 430.1 172.94 428.94 172.88 427.61C172.83 426.26 172.47 424.73 171.76 423.45C171.95 423.26 172.13 423.06 172.32 422.84C173.05 422 173.51 420.92 173.75 419.74C173.92 419.93 174.08 420.13 174.24 420.34C176.09 422.83 177.07 426.72 176.49 429.88Z" fill="url(#paint25_linear_26486_109513)"/>
<path d="M170.2 417.471C170.23 418.731 169.98 419.801 169.48 420.391C169.27 420.641 169.06 420.861 168.86 421.041C168.18 420.991 167.63 421.241 167.36 421.361C166.87 421.581 166.49 421.881 166.19 422.231C165.24 423.341 165.09 424.921 165.1 425.841C165.1 425.931 165.1 426.011 165.1 426.081C165.16 427.451 165.53 428.821 166.1 429.941C165.17 431.011 164.54 432.361 164.27 433.911C162.47 431.871 161.46 428.891 161.35 426.241C161.31 425.301 161.38 424.411 161.55 423.581C161.86 422.051 162.5 420.721 163.43 419.691C164.09 418.951 164.9 418.341 165.84 417.931C166.79 417.501 167.76 417.301 168.7 417.301C169.22 417.301 169.72 417.361 170.22 417.491L170.2 417.471Z" fill="url(#paint26_linear_26486_109513)"/>
<path d="M179.25 440.051C179.02 441.301 178.55 442.431 177.79 443.311C177.65 443.471 177.51 443.631 177.38 443.771C175.37 445.901 173.45 446.481 171.95 446.481C171.57 446.481 171.21 446.441 170.88 446.381C170.88 445.401 171.06 443.781 172.12 442.701C172.75 442.651 173.41 442.321 174.1 441.691C174.1 441.691 174.1 441.691 174.12 441.691C174.39 441.461 174.66 441.181 174.94 440.861C175.43 440.291 175.68 439.241 175.66 438.031C175.64 436.641 175.29 435.031 174.56 433.671C174.72 433.501 174.88 433.331 175.03 433.151C175.8 432.261 176.27 431.131 176.49 429.871C176.66 430.071 176.84 430.271 176.99 430.491C178.85 432.991 179.82 436.891 179.24 440.041L179.25 440.051Z" fill="url(#paint27_linear_26486_109513)"/>
<path d="M172.19 430.711C172.03 430.891 171.88 431.061 171.72 431.211C170.99 431.131 170.4 431.381 170.11 431.511C169.55 431.761 169.13 432.121 168.82 432.531C167.91 433.701 167.83 435.331 167.86 436.171V436.231C167.93 437.781 168.39 439.301 169.08 440.491C168.19 441.541 167.59 442.871 167.32 444.381C165.34 442.341 164.22 439.181 164.1 436.391C164.06 435.521 164.12 434.681 164.27 433.901C164.55 432.351 165.17 431.001 166.1 429.931C166.77 429.141 167.6 428.521 168.58 428.081C169.54 427.651 170.5 427.441 171.44 427.441C171.94 427.441 172.42 427.501 172.89 427.611C172.95 428.931 172.71 430.101 172.18 430.711H172.19Z" fill="url(#paint28_linear_26486_109513)"/>
<path d="M182.27 450.601C182.04 451.831 181.58 452.941 180.83 453.811C180.66 454.011 180.5 454.191 180.33 454.361C178.35 456.421 176.47 456.981 174.99 456.981C174.49 456.981 174.03 456.911 173.64 456.811V456.651C173.64 455.741 173.8 454.251 174.68 453.181C175.53 453.321 176.45 452.911 177.43 451.941C177.61 451.771 177.8 451.571 177.99 451.351C178.5 450.761 178.75 449.641 178.71 448.361C178.67 446.871 178.24 445.151 177.39 443.771C177.53 443.631 177.67 443.471 177.8 443.311C178.56 442.431 179.03 441.301 179.26 440.051C179.54 440.341 179.8 440.651 180.06 440.991C181.92 443.501 182.9 447.431 182.29 450.601H182.27Z" fill="url(#paint29_linear_26486_109513)"/>
<path d="M175.66 438.04C175.68 439.25 175.43 440.3 174.94 440.87C174.66 441.19 174.39 441.47 174.12 441.7C174.12 441.7 174.12 441.7 174.1 441.7C173.67 441.75 173.34 441.9 173.15 441.99C172.74 442.18 172.4 442.42 172.12 442.7C171.06 443.77 170.88 445.4 170.88 446.38C170.88 446.5 170.88 446.61 170.88 446.71C170.95 448.11 171.33 449.49 171.91 450.63C170.99 451.68 170.35 453.02 170.06 454.56C168.25 452.52 167.23 449.52 167.13 446.87C167.09 445.99 167.15 445.16 167.3 444.37C167.57 442.86 168.17 441.54 169.06 440.48C169.74 439.66 170.61 439.01 171.62 438.56C172.58 438.13 173.54 437.92 174.48 437.92C174.88 437.92 175.27 437.96 175.66 438.03V438.04Z" fill="url(#paint30_linear_26486_109513)"/>
<path d="M185.11 460.34C184.92 461.77 184.43 463.08 183.58 464.06C183.51 464.14 183.44 464.22 183.37 464.29C181.29 466.61 179.28 467.23 177.74 467.23C177.34 467.23 176.98 467.18 176.65 467.12C176.65 467.12 176.65 467.05 176.63 467.01C176.58 466.71 176.54 466.3 176.54 465.82C176.54 465.05 176.66 464.14 177.1 463.35C178.17 463.7 179.36 463.15 180.64 461.7C180.67 461.66 180.71 461.62 180.74 461.59C181.33 460.91 181.57 459.54 181.43 458.02C181.32 456.79 180.96 455.47 180.33 454.34C180.5 454.17 180.67 453.99 180.83 453.79C181.58 452.92 182.05 451.81 182.27 450.58C182.45 450.78 182.62 451 182.8 451.23C184.57 453.61 185.54 457.26 185.12 460.33L185.11 460.34Z" fill="url(#paint31_linear_26486_109513)"/>
<path d="M177.98 451.361C177.79 451.581 177.6 451.771 177.42 451.951C177.34 451.951 177.28 451.951 177.21 451.951C176.62 451.951 176.15 452.161 175.9 452.271C175.38 452.501 174.98 452.831 174.67 453.201C173.79 454.271 173.63 455.761 173.63 456.671V456.831C173.63 456.891 173.63 456.941 173.63 457.001C173.69 458.261 174 459.501 174.49 460.551C173.55 461.721 172.98 463.181 172.81 464.841C171 462.801 169.99 459.811 169.88 457.161C169.84 456.261 169.9 455.401 170.06 454.601C170.35 453.061 170.98 451.721 171.91 450.671C172.58 449.901 173.41 449.291 174.37 448.861C175.33 448.431 176.29 448.221 177.23 448.221C177.73 448.221 178.21 448.281 178.69 448.401C178.73 449.691 178.48 450.801 177.97 451.391L177.98 451.361Z" fill="url(#paint32_linear_26486_109513)"/>
<path d="M188.24 470.562C188.07 471.442 187.77 472.252 187.29 472.962C186.97 473.422 186.66 473.822 186.34 474.192C184.5 476.282 182.62 476.802 181.2 476.802C180.71 476.802 180.28 476.742 179.92 476.662C179.88 476.662 179.83 476.642 179.78 476.622C179.78 476.482 179.76 476.322 179.76 476.152C179.76 475.152 179.96 473.922 180.81 473.012C181.64 473.172 182.47 472.812 183.3 471.942C183.6 471.642 183.89 471.272 184.18 470.852C184.56 470.302 184.7 469.402 184.62 468.362C184.53 467.082 184.1 465.592 183.36 464.302C183.44 464.222 183.5 464.152 183.57 464.072C184.42 463.092 184.92 461.782 185.1 460.352C187.42 462.872 188.89 467.202 188.23 470.572L188.24 470.562Z" fill="url(#paint33_linear_26486_109513)"/>
<path d="M180.73 461.611C180.73 461.611 180.66 461.691 180.63 461.721C180.37 461.641 180.11 461.601 179.88 461.601C179.16 461.601 178.61 461.921 178.35 462.081C177.77 462.421 177.37 462.871 177.09 463.371C176.65 464.161 176.53 465.071 176.53 465.841C176.53 466.311 176.58 466.731 176.62 467.031C176.62 467.071 176.62 467.101 176.64 467.141C176.84 468.401 177.32 469.611 177.93 470.601C177.02 471.631 176.41 472.931 176.15 474.401C174.41 472.581 173.27 470.001 172.9 467.611C172.75 466.631 172.72 465.701 172.81 464.821C172.98 463.161 173.55 461.691 174.49 460.531C175.02 459.871 175.68 459.301 176.44 458.851C177.58 458.181 178.75 457.861 179.91 457.861C180.42 457.861 180.92 457.921 181.42 458.051C181.56 459.571 181.32 460.941 180.73 461.621V461.611Z" fill="url(#paint34_linear_26486_109513)"/>
<path d="M191.51 480.691C191.35 481.641 191.03 482.521 190.52 483.281C190.24 483.691 189.96 484.051 189.68 484.391C187.8 486.581 185.88 487.121 184.43 487.121C183.93 487.121 183.51 487.061 183.14 486.981H183.12C183.1 486.791 183.1 486.591 183.1 486.371C183.1 485.411 183.29 484.231 184.05 483.331C184.91 483.491 185.78 483.091 186.64 482.141C186.9 481.861 187.15 481.541 187.41 481.161C187.8 480.591 187.94 479.631 187.84 478.531C187.71 477.141 187.19 475.521 186.32 474.191C186.64 473.831 186.96 473.421 187.27 472.961C187.75 472.251 188.06 471.441 188.22 470.561C188.24 470.581 188.27 470.611 188.29 470.631C190.6 473.101 192.06 477.331 191.49 480.691H191.51Z" fill="url(#paint35_linear_26486_109513)"/>
<path d="M184.19 470.84C183.9 471.26 183.61 471.63 183.31 471.93C183.25 471.93 183.18 471.93 183.12 471.93C182.4 471.93 181.85 472.25 181.58 472.4C181.28 472.57 181.03 472.78 180.82 473.01C179.97 473.92 179.77 475.15 179.77 476.15C179.77 476.32 179.77 476.47 179.79 476.62C179.81 476.91 179.84 477.15 179.87 477.35C180.07 478.64 180.55 479.88 181.19 480.91C180.3 481.97 179.71 483.29 179.47 484.8C177.7 482.98 176.52 480.36 176.15 477.93C175.95 476.68 175.97 475.49 176.17 474.4C176.43 472.93 177.04 471.63 177.95 470.6C178.45 470.04 179.02 469.56 179.69 469.17C180.82 468.51 182 468.18 183.16 468.18C183.66 468.18 184.16 468.24 184.65 468.37C184.73 469.41 184.58 470.31 184.21 470.86L184.19 470.84Z" fill="url(#paint36_linear_26486_109513)"/>
<path d="M187.429 481.161C187.169 481.541 186.919 481.861 186.659 482.141C186.589 482.141 186.529 482.141 186.459 482.141C185.729 482.141 185.179 482.461 184.919 482.621C184.569 482.821 184.289 483.061 184.059 483.331C183.289 484.221 183.109 485.401 183.109 486.371C183.109 486.591 183.109 486.791 183.129 486.981C183.149 487.201 183.169 487.391 183.189 487.561C183.419 488.981 183.969 490.361 184.709 491.421C183.959 492.611 183.539 494.051 183.479 495.641C181.329 493.831 179.899 490.861 179.479 488.141C179.299 486.971 179.299 485.841 179.459 484.801C179.699 483.301 180.289 481.971 181.179 480.911C181.689 480.301 182.309 479.781 183.009 479.371C184.139 478.711 185.319 478.381 186.469 478.381C186.939 478.381 187.389 478.431 187.849 478.541C187.949 479.641 187.809 480.601 187.419 481.171L187.429 481.161Z" fill="url(#paint37_linear_26486_109513)"/>
<path d="M296.52 476.71C296.09 477.37 295.6 477.85 295.11 478.06C294.43 478.35 293.82 478.53 293.28 478.6C292.54 477.31 291.33 477.26 290.87 477.25C290.82 477.25 290.77 477.25 290.73 477.25C290.67 477.25 290.6 477.25 290.54 477.25C289.05 477.33 288.02 478.37 287.39 479.32C287.1 479.76 286.89 480.18 286.76 480.47C286.38 481.34 286.13 482.27 286.02 483.18C284.64 483.26 283.34 483.74 282.19 484.57C282.15 482.62 282.58 480.62 283.33 478.95C284.06 477.3 285.07 475.99 286.26 475.06C287.39 474.18 288.69 473.65 290.08 473.52C290.4 473.49 290.72 473.47 291.04 473.49C292.75 473.57 294.2 474.15 295.31 475.17C295.79 475.61 296.2 476.12 296.54 476.71H296.52Z" fill="url(#paint38_linear_26486_109513)"/>
<path d="M300.81 467.381C300.44 467.881 300.03 468.241 299.62 468.411C298.78 468.771 298.04 468.961 297.41 468.991C296.7 467.681 295.55 467.571 295.02 467.551C294.99 467.551 294.96 467.551 294.94 467.551C294.9 467.551 294.84 467.551 294.8 467.551C293.37 467.551 292.36 468.421 291.69 469.321C291.27 469.861 290.99 470.421 290.83 470.791C290.44 471.681 290.19 472.621 290.08 473.551C288.69 473.681 287.39 474.211 286.26 475.091C286.19 473.081 286.63 470.991 287.39 469.261C288.21 467.421 289.37 465.981 290.76 465.051C291.91 464.281 293.21 463.841 294.6 463.801C294.77 463.801 294.94 463.801 295.1 463.801C296.81 463.881 298.26 464.461 299.37 465.481C299.95 466.011 300.44 466.651 300.81 467.401V467.381Z" fill="url(#paint39_linear_26486_109513)"/>
<path d="M301.73 471.561C301.75 475.081 300.26 479.091 297.66 480.931C297.32 481.181 296.96 481.381 296.58 481.541C295.59 481.961 294.69 482.211 293.87 482.321C293.46 482.381 293.09 482.411 292.73 482.411C290.54 482.411 289.14 481.421 288.38 480.641C288 480.251 287.67 479.811 287.4 479.331C288.03 478.381 289.06 477.341 290.55 477.261C290.69 477.551 290.86 477.801 291.06 478.011C291.59 478.541 292.33 478.751 293.29 478.611C293.83 478.531 294.44 478.351 295.12 478.071C295.62 477.861 296.1 477.381 296.53 476.721C297.21 475.691 297.75 474.231 297.92 472.731C298.84 472.651 299.9 472.391 301.08 471.891C301.3 471.801 301.52 471.691 301.73 471.571V471.561Z" fill="url(#paint40_linear_26486_109513)"/>
<path d="M301.73 471.56C301.52 471.68 301.3 471.79 301.08 471.88C299.89 472.38 298.84 472.64 297.92 472.71C297.68 472.74 297.45 472.75 297.24 472.75C295.05 472.75 293.65 471.76 292.89 470.99C292.4 470.49 292 469.92 291.69 469.3C292.36 468.41 293.37 467.53 294.8 467.53C294.85 467.53 294.9 467.53 294.94 467.53C294.96 467.53 294.99 467.53 295.02 467.53C295.16 467.85 295.34 468.12 295.56 468.34C296.01 468.8 296.63 469.01 297.41 468.97C298.04 468.94 298.78 468.75 299.62 468.39C300.03 468.22 300.44 467.86 300.81 467.36C301.97 465.83 302.8 463.05 302.37 460.69C301.88 457.97 300.05 457.89 299.45 457.86H299.31C297.02 457.86 295.77 460.1 295.33 461.08C294.95 461.94 294.71 462.85 294.59 463.75C293.2 463.79 291.9 464.22 290.75 465C290.75 463.11 291.17 461.18 291.89 459.56C293.47 456.01 296.36 453.97 299.6 454.1C301.31 454.18 302.76 454.76 303.87 455.78C304.98 456.79 305.75 458.24 306.06 460.02C306.79 464.04 305.08 469.56 301.71 471.53L301.73 471.56Z" fill="url(#paint41_linear_26486_109513)"/>
<path opacity="0.98" d="M151.38 319.27C151.3 318.91 151.17 318.43 151.05 318.16C151.1 318.94 151.1 319.73 151.05 320.52C151 321.93 150.68 323.21 150.23 324.69C149.79 326 149.21 327.39 148.07 328.45C151.19 326.66 152.28 322.62 151.37 319.27H151.38Z" fill="url(#paint42_linear_26486_109513)"/>
<path opacity="0.98" d="M154.08 329.821C154.03 329.551 153.67 328.431 153.74 328.961C153.87 330.421 153.841 332.261 153.661 333.431C153.371 335.101 153.011 337.911 151.311 339.191C152.301 338.811 152.95 337.841 153.44 336.941C154.62 334.761 154.66 332.191 154.08 329.831V329.821Z" fill="url(#paint43_linear_26486_109513)"/>
<path opacity="0.98" d="M155.13 341.211C155.09 341.031 154.84 340.271 154.88 340.571C154.99 341.991 154.87 343.421 154.71 344.831C154.47 346.571 153.67 348.971 152.16 350.471C155.29 348.521 156.12 344.601 155.13 341.211Z" fill="url(#paint44_linear_26486_109513)"/>
<path opacity="0.98" d="M157.76 351.33C157.72 351.06 157.57 350.33 157.52 350.34C157.55 351.2 157.47 352.05 157.37 352.9C156.99 355.38 156.55 358.49 154.63 360.44C157.54 358.51 158.25 354.57 157.76 351.32V351.33Z" fill="url(#paint45_linear_26486_109513)"/>
<path opacity="0.98" d="M159.701 363.21C159.681 363.08 159.581 362.61 159.591 362.73C159.611 363.49 159.561 364.26 159.471 365.02C159.151 367.37 157.971 369.98 156.221 371.88C158.901 369.95 160.441 366.48 159.701 363.21Z" fill="url(#paint46_linear_26486_109513)"/>
<path opacity="0.98" d="M161.84 370.971C162.36 374.271 162.07 377.231 160.9 380.281C163.31 377.491 163.57 374.191 161.84 370.971Z" fill="url(#paint47_linear_26486_109513)"/>
<path opacity="0.98" d="M164.46 382.531C164.67 385.771 164.75 388.311 163.37 391.201C165.74 388.811 165.84 385.471 164.46 382.531Z" fill="url(#paint48_linear_26486_109513)"/>
<path opacity="0.98" d="M166.45 391.811C166.84 394.411 167 397.151 166.23 399.661C168.06 397.401 167.97 394.211 166.45 391.811Z" fill="url(#paint49_linear_26486_109513)"/>
<path opacity="0.98" d="M169.21 403.061C169.57 406.181 169.18 408.201 168.14 411.161C168.11 411.251 168 411.461 168.11 411.301C168.95 410.281 169.62 409.091 169.88 407.781C170.19 406.191 169.9 404.501 169.2 403.051L169.21 403.061Z" fill="url(#paint50_linear_26486_109513)"/>
<path opacity="0.98" d="M172.35 416.87C172.31 415.75 171.95 414.62 171.38 413.65C171.84 415.7 171.75 417.9 171.44 420.01C171.9 419.02 172.32 417.97 172.35 416.86V416.87Z" fill="url(#paint51_linear_26486_109513)"/>
<path opacity="0.98" d="M174.47 423.91C174.75 426.81 174.52 429.67 173.57 432.26C175.71 430.02 175.89 426.58 174.47 423.91Z" fill="url(#paint52_linear_26486_109513)"/>
<path opacity="0.98" d="M176.92 433.321C177.45 434.931 177.35 437.151 177.14 438.581C177.14 438.581 177.14 438.581 177.14 438.591C177.08 439.021 176.97 439.431 176.87 439.851C176.69 440.601 176.39 441.461 176.12 442.111C176.21 442.011 176.3 441.911 176.39 441.811C178.57 439.251 178.9 436.101 176.92 433.311V433.321Z" fill="url(#paint53_linear_26486_109513)"/>
<path opacity="0.98" d="M180.03 444.18C180.51 446.54 180.31 449.37 179.91 451.61C179.91 451.71 179.76 452.11 179.84 451.99C180.31 451.3 180.67 450.53 180.91 449.73C181.45 447.86 181.08 445.81 180.03 444.19V444.18Z" fill="url(#paint54_linear_26486_109513)"/>
<path opacity="0.98" d="M182.301 462.53C184.271 460.07 184.321 456.36 182.761 453.68C183.041 455.13 182.861 456.62 182.841 458.08C182.871 459.67 182.771 461.03 182.301 462.53Z" fill="url(#paint55_linear_26486_109513)"/>
<path opacity="0.98" d="M186.14 464.531C186.64 466.631 186.55 468.891 186.07 471.021C186.01 471.281 185.94 471.541 185.87 471.811C186.53 470.861 187.05 469.791 187.23 468.641C187.47 467.191 186.93 465.741 186.14 464.541V464.531Z" fill="url(#paint56_linear_26486_109513)"/>
<path opacity="0.98" d="M188.53 474.48C189.56 476.71 189.48 479.161 188.95 481.391C188.92 481.521 188.89 481.641 188.85 481.771C189.46 480.961 189.94 480.04 190.09 479.04C190.36 477.41 189.77 475.6 188.53 474.49V474.48Z" fill="url(#paint57_linear_26486_109513)"/>
<path opacity="0.98" d="M290.68 476.201C288.06 475.411 285.03 476.731 284.51 479.561C285 478.541 285.86 477.941 286.8 477.431C287.52 477.071 287.6 477.031 288.26 476.791C289.09 476.491 290.06 476.351 290.87 476.241C290.81 476.221 290.75 476.211 290.69 476.191L290.68 476.201Z" fill="url(#paint58_linear_26486_109513)"/>
<path opacity="0.98" d="M290.69 466.931C289.39 467.731 288.45 469.141 288.2 470.641C289.41 468.521 291.16 467.571 293.23 466.361C293.42 466.231 293.88 466.031 293.92 465.961C292.8 466.091 291.67 466.371 290.69 466.931Z" fill="url(#paint59_linear_26486_109513)"/>
<path opacity="0.98" d="M292.51 462.17C293.11 460.42 294.6 458.55 295.38 457.16C293.73 458.27 292.4 460.12 292.51 462.17Z" fill="url(#paint60_linear_26486_109513)"/>
<path d="M358.521 563.351C324.631 599.541 243.711 729.091 270.581 686.041C271.391 684.741 190.101 814.991 149.851 879.471C213.311 701.411 313.041 598.861 299.201 353.151C299.131 351.951 299.071 350.741 299.011 349.551C308.971 352.621 316.751 357.011 321.491 354.321C328.881 404.271 335.651 454.321 341.791 504.461C339.811 504.401 336.771 503.351 333.691 503.231C341.251 521.731 350.841 542.201 358.501 563.371L358.521 563.351Z" fill="url(#paint61_linear_26486_109513)"/>
<path style="mix-blend-mode:multiply" opacity="0.69" d="M301.65 370.831C251.33 350.831 218.96 331.081 183.95 285.411C186.57 282.081 174.44 271.361 178.78 266.641C219.54 288.481 260.55 312.171 300.19 335.991C300.3 347.631 300.79 359.241 301.65 370.831Z" fill="url(#paint62_linear_26486_109513)"/>
<path d="M399.38 330.94C396.13 343.64 391.3 356.93 380.65 364.59C368.46 373.35 352.01 372.08 337.14 370.02C320.48 367.7 304.9 363.68 290.38 358.39C248.44 343.14 215.39 317.48 191.02 292.8C181.17 282.83 172.73 273.02 165.7 264.13C164.38 262.46 163.11 260.82 161.89 259.22C157.57 253.56 153.86 248.36 150.77 243.84C150.57 243.56 150.39 243.28 150.21 243.01C143.78 233.58 140.13 227.3 139.21 226.31C138.41 225.45 163.3 230.01 173.13 213.65C173.28 213.39 173.42 213.15 173.55 212.91C173.84 212.39 174.11 211.85 174.37 211.29C174.49 211.03 174.6 210.78 174.7 210.54C174.83 210.24 174.96 209.93 175.09 209.63C178.8 200.91 183.2 192.5 188.28 184.51C189.1 183.22 189.93 181.94 190.78 180.68C198.12 169.78 206.75 159.74 216.6 150.85C251.2 119.66 304.88 106.06 351.36 109.05C354.46 112.92 357.45 116.88 360.3 120.92C361.2 122.2 362.1 123.48 362.97 124.78C366.02 129.28 368.92 133.88 371.66 138.56C376.67 147.11 381.16 155.96 385.13 165.04C385.93 166.87 386.71 168.71 387.47 170.56C388.47 173.01 389.44 175.48 390.36 177.96C408.58 226.54 412.26 280.65 399.38 330.95V330.94Z" fill="url(#paint63_linear_26486_109513)"/>
<path d="M249.72 270.64C253.81 275.83 258.11 280.87 262.6 285.73C280.17 304.71 300.82 320.96 323.96 332.6C326.36 333.8 329.081 335 331.661 334.24C334.581 333.37 336.23 330.36 337.531 327.6C340.111 322.15 342.561 316.64 344.9 311.08C345.17 310.44 345.45 309.79 345.71 309.14C347.91 303.84 350.01 298.5 352 293.11C353.37 289.4 352.91 287.29 351.44 286.07C348.75 283.87 342.731 284.64 338.431 284.15C327.261 282.86 316.14 281.03 305.13 278.7C285.89 274.61 267.391 268.53 248.791 262.22C240.941 259.56 248.26 268.78 249.72 270.63V270.64Z" fill="url(#paint64_linear_26486_109513)"/>
<path style="mix-blend-mode:multiply" d="M250.63 267.239C257.53 272.089 264.68 276.649 272.01 280.809C284.76 288.069 298.04 294.499 311.64 299.969C318.49 302.739 325.45 305.239 332.5 307.429C336.57 308.689 340.72 309.999 344.89 311.079C345.16 310.439 345.44 309.789 345.7 309.139C344.66 308.869 343.61 308.589 342.57 308.309C338.65 307.229 334.75 306.069 330.87 304.829C316.74 300.309 302.77 295.109 289.4 288.629C276.11 282.179 263.3 274.779 250.97 266.659C250.59 266.409 250.26 267.009 250.61 267.249L250.63 267.239Z" fill="url(#paint65_linear_26486_109513)"/>
<path d="M314.82 246.459C314.78 245.859 314.82 245.239 314.86 244.639C315.85 230.259 316.83 215.879 317.82 201.499C318.25 195.269 318.05 189.239 317.45 182.979C317.14 179.719 317.24 174.859 315.4 171.969C314.52 170.579 316.25 168.969 317.61 169.759C323.72 173.329 329.03 179.399 334.18 184.239C339.89 189.609 345.56 195.019 351.32 200.339C362.82 210.979 374.67 221.309 384.67 233.439C386.92 236.169 386.67 241.639 382.32 242.339C365.36 245.089 348.17 246.979 331.06 248.489C328.32 248.729 316.89 250.919 315.42 248.579C315.02 247.939 314.87 247.219 314.82 246.459Z" fill="url(#paint66_linear_26486_109513)"/>
<path d="M90.0203 333.881C46.4603 370.221 -4.38974 394.651 -58.6097 411.331C-84.2797 419.231 -115.76 428.871 -138.17 443.681C-171.97 466.011 -185.49 504.451 -200.42 542.111C-257.08 685.031 -293.24 835.381 -318.47 986.951C-253.15 1043.07 -185.94 1100.32 -105.93 1126.8C7.22025 1033.5 79.3302 892.111 88.4302 745.741L112.18 399.061L90.0303 333.881H90.0203Z" fill="url(#paint67_linear_26486_109513)"/>
<path d="M153.291 286.939C125.801 396.249 115.981 516.049 128.631 630.389C117.561 709.609 98.2608 787.679 68.7708 862.219C73.6508 747.689 67.0108 639.549 54.6308 526.919C60.5308 511.629 72.2508 490.809 82.1708 479.699C70.0008 471.699 55.7208 466.929 42.8408 464.029C49.3808 416.699 57.7808 382.259 77.0308 334.489C93.9208 318.139 127.311 294.099 153.281 286.949L153.291 286.939Z" fill="url(#paint68_linear_26486_109513)"/>
<g opacity="0.72">
<g style="mix-blend-mode:multiply">
<path d="M389.54 159.76C389.54 177.8 374.92 192.42 356.88 192.42C345.84 192.42 336.07 186.94 330.16 178.56C326.38 179.68 322.9 181.82 320.21 184.7C321.84 188.59 322.74 192.86 322.74 197.34C322.74 215.38 308.12 230 290.08 230C276.3 230 264.51 221.47 259.71 209.4C253.94 209.35 248.18 209.32 242.41 209.28L162.83 245.78L161.9 237.91L241.47 202.9C241.49 202.13 241.56 201.35 241.67 200.58C241.77 200.13 254.55 190.6 259 187.3C263.24 174.17 275.56 164.68 290.09 164.68C299.56 164.68 308.09 168.71 314.06 175.16C316.88 171.72 321.11 169.45 325.55 169.02C324.68 166.08 324.21 162.98 324.21 159.76C324.21 141.72 338.84 127.1 356.88 127.1C374.92 127.1 389.54 141.72 389.54 159.76Z" fill="#FFB678"/>
</g>
</g>
<path d="M244.38 199.26L162.75 235.17L163.68 243.04L245.78 205.39L244.38 199.26Z" fill="url(#paint69_linear_26486_109513)"/>
<path d="M195.601 185.271C191.381 192.871 187.561 200.791 184.181 208.951C177.081 226.121 171.951 244.361 169.211 262.961C168.101 263.151 166.911 263.551 165.711 264.131C162.791 265.511 159.761 267.951 157.511 270.971C145.051 252.851 136.321 232.201 131.911 210.661C130.501 203.781 129.531 196.811 129.021 189.801C128.951 188.931 128.901 188.051 128.851 187.181C144.351 184.351 159.871 183.271 175.281 183.751C179.631 183.881 183.961 184.141 188.281 184.521C190.721 184.741 193.171 184.991 195.601 185.281V185.271Z" fill="url(#paint70_linear_26486_109513)"/>
<path d="M191.031 292.79C190.411 293.8 189.581 294.69 188.471 295.38C186.371 296.68 183.301 297.24 178.861 296.48C153.971 292.26 140.141 274.6 137.301 261.27C135.941 254.89 137.101 249.51 140.771 247.06C143.991 244.92 147.141 243.62 150.211 243.01C150.681 242.91 151.141 242.84 151.611 242.78C151.631 242.78 151.641 242.78 151.661 242.78C172.711 240.03 189.471 269.16 192.171 282.21C192.761 285.07 193.021 289.56 191.031 292.81V292.79Z" fill="url(#paint71_linear_26486_109513)"/>
<path style="mix-blend-mode:multiply" opacity="0.82" d="M179.541 279.44C178.561 277.81 177.531 276.22 176.531 274.6C172.191 267.91 164.571 254.21 156.641 252.12C152.991 251.67 151.851 253.44 150.511 256.49C149.401 259.69 148.821 263.06 148.431 266.42C148.351 267.19 148.111 268.05 148.661 268.71C149.531 269.92 151.601 269.37 151.751 267.88C152.621 263.2 154.121 257.56 155.441 256.51C155.511 256.5 155.591 256.49 155.661 256.48C155.671 256.48 155.671 256.48 155.691 256.48C155.901 256.51 156.061 256.55 156.161 256.57C156.551 256.71 157.051 256.96 157.311 257.09C160.661 259.26 161.571 260.73 164.371 263.98C164.761 264.44 165.171 264.95 165.601 265.49C164.991 266.23 164.501 267.15 163.931 267.86C162.451 270.1 161.211 272.52 160.621 275.16C160.461 275.98 160.091 276.85 160.311 277.68C160.721 279.47 163.461 279.27 163.661 277.45C164.021 275.91 166.141 271.94 167.331 270.28C167.631 269.87 167.931 269.46 168.241 269.06C170.791 272.66 173.281 276.56 174.341 278.46C174.791 279.23 176.611 282.45 176.071 281.5C176.381 282.12 176.711 282.79 177.401 283.05C178.601 283.59 180.081 282.73 180.231 281.43C180.291 279.98 179.531 279.67 179.531 279.44H179.541Z" fill="url(#paint72_linear_26486_109513)"/>
<path style="mix-blend-mode:multiply" opacity="0.2" d="M290.381 358.38C248.441 343.13 215.391 317.47 191.021 292.79C190.401 293.8 189.571 294.69 188.461 295.38C186.361 296.68 183.291 297.24 178.851 296.48C153.961 292.26 140.131 274.6 137.291 261.27C141.511 255.58 146.181 249.64 150.771 243.84C151.051 243.49 151.331 243.13 151.601 242.78C160.601 231.4 169.151 220.68 173.121 213.66C173.271 213.4 173.411 213.16 173.541 212.92C173.831 212.4 174.101 211.86 174.361 211.3C174.481 211.04 174.591 210.79 174.691 210.55C191.931 193.01 211.011 176.86 232.311 162.51C212.961 204.56 213.761 255.36 234.421 296.77C246.971 321.92 266.681 343.29 290.361 358.4L290.381 358.38Z" fill="url(#paint73_linear_26486_109513)"/>
<path d="M390.401 157.019C390.401 159.279 390.171 161.499 389.731 163.639C389.231 166.049 388.471 168.369 387.471 170.559C382.341 181.849 370.951 189.689 357.741 189.689C348.581 189.689 340.301 185.919 334.381 179.849C333.151 178.599 332.031 177.259 331.031 175.829C327.251 176.949 323.771 179.089 321.081 181.969C321.271 182.419 321.451 182.869 321.611 183.329C322.901 186.849 323.611 190.639 323.611 194.609C323.611 212.649 308.991 227.269 290.951 227.269C277.171 227.269 265.381 218.739 260.581 206.669C254.771 206.619 248.971 206.589 243.151 206.549C242.631 204.859 242.361 203.069 242.321 201.269C242.301 200.129 242.371 198.979 242.521 197.839C242.621 197.389 255.401 187.859 259.851 184.559C264.091 171.429 276.411 161.939 290.941 161.939C300.411 161.939 308.941 165.969 314.911 172.419C317.731 168.979 321.961 166.709 326.401 166.279C325.531 163.339 325.061 160.239 325.061 157.019C325.061 147.409 329.221 138.759 335.821 132.789C340.441 128.609 346.251 125.739 352.691 124.739C354.341 124.489 356.011 124.359 357.731 124.359C359.451 124.359 361.261 124.499 362.961 124.779C378.511 127.279 390.391 140.759 390.391 157.019H390.401Z" fill="url(#paint74_linear_26486_109513)"/>
<path d="M319.84 194.599C319.84 199.729 318.511 204.539 316.171 208.709C313.461 213.549 309.38 217.539 304.47 220.139C302.98 220.929 301.421 221.599 299.791 222.119C297.741 222.779 295.59 223.219 293.37 223.399C292.57 223.469 291.751 223.509 290.931 223.509C286.281 223.509 281.89 222.409 278 220.469C268.52 215.729 262.021 205.929 262.021 194.609C262.021 189.629 263.28 184.949 265.5 180.859C270.39 171.829 279.941 165.709 290.931 165.709C292.611 165.709 294.27 165.849 295.88 166.129C299.19 166.699 302.31 167.839 305.13 169.429C306.53 170.219 307.85 171.119 309.09 172.129C310.33 173.129 311.491 174.229 312.541 175.429C317.081 180.529 319.83 187.249 319.83 194.609L319.84 194.599Z" fill="url(#paint75_linear_26486_109513)"/>
<path style="mix-blend-mode:multiply" opacity="0.3" d="M316.171 208.709C313.461 213.549 309.38 217.539 304.47 220.139C302.98 220.929 301.421 221.599 299.791 222.119C297.741 222.779 295.59 223.219 293.37 223.399C292.57 223.469 291.751 223.509 290.931 223.509C286.281 223.509 281.89 222.409 278 220.469C268.52 215.729 262.021 205.929 262.021 194.609C262.021 189.629 263.28 184.949 265.5 180.859C270.61 189.379 277.96 196.579 286.62 201.439C295.57 206.459 305.901 208.969 316.161 208.719L316.171 208.709Z" fill="url(#paint76_linear_26486_109513)"/>
<path d="M386.64 157.019C386.64 162.769 384.96 168.129 382.07 172.629C380.97 174.339 379.69 175.929 378.27 177.369C376.75 178.899 375.06 180.259 373.23 181.429C371.86 182.299 370.43 183.049 368.92 183.689C365.48 185.129 361.7 185.929 357.74 185.929C355.98 185.929 354.25 185.769 352.58 185.469C339.08 183.029 328.83 171.229 328.83 157.019C328.83 151.949 330.14 147.179 332.44 143.039C337.36 134.139 346.85 128.119 357.74 128.119C362.31 128.119 366.63 129.179 370.47 131.069C373.69 132.659 376.58 134.829 378.99 137.439C379.69 138.189 380.34 138.989 380.96 139.819C382.18 141.469 383.23 143.239 384.08 145.129C385.72 148.759 386.64 152.779 386.64 157.029V157.019Z" fill="url(#paint77_linear_26486_109513)"/>
<path opacity="0.14" d="M305.141 169.421L293.381 223.401C292.581 223.471 291.761 223.511 290.941 223.511C286.291 223.511 281.901 222.411 278.011 220.471L295.891 166.131C299.201 166.701 302.321 167.841 305.141 169.431V169.421Z" fill="url(#paint78_linear_26486_109513)"/>
<path opacity="0.14" d="M312.551 175.419L304.481 220.149C302.991 220.939 301.431 221.609 299.801 222.129L309.111 172.119C310.351 173.119 311.511 174.219 312.561 175.419H312.551Z" fill="url(#paint79_linear_26486_109513)"/>
<path opacity="0.14" d="M378.99 137.44L368.91 183.69C365.47 185.13 361.69 185.93 357.73 185.93C355.97 185.93 354.24 185.77 352.57 185.47L370.47 131.07C373.69 132.66 376.58 134.83 378.99 137.44Z" fill="url(#paint80_linear_26486_109513)"/>
<path opacity="0.14" d="M384.081 145.121L378.261 177.371C376.741 178.901 375.051 180.261 373.221 181.431L380.961 139.811C382.181 141.461 383.231 143.231 384.081 145.121Z" fill="url(#paint81_linear_26486_109513)"/>
<path style="mix-blend-mode:multiply" opacity="0.3" d="M382.07 172.629C380.97 174.339 379.69 175.929 378.27 177.369C376.75 178.899 375.06 180.259 373.23 181.429C371.86 182.299 370.43 183.049 368.92 183.689C365.48 185.129 361.7 185.929 357.74 185.929C355.98 185.929 354.25 185.769 352.58 185.469C339.08 183.029 328.83 171.229 328.83 157.019C328.83 151.949 330.14 147.179 332.44 143.039C337.57 152.319 345.31 160.159 354.56 165.349C362.93 170.039 372.49 172.539 382.07 172.629Z" fill="url(#paint82_linear_26486_109513)"/>
<path style="mix-blend-mode:multiply" opacity="0.36" d="M390.401 157.02C390.401 159.28 390.171 161.5 389.731 163.64C388.201 164.11 386.661 164.57 385.131 165.04C368.261 170.14 351.351 175.14 334.371 179.85C330.121 181.03 325.861 182.2 321.601 183.33C302.511 188.43 283.331 193.12 263.971 197.11C256.781 198.6 249.551 199.99 242.311 201.27C223.061 204.68 203.651 207.33 184.181 208.95C181.151 209.2 178.121 209.43 175.091 209.63C160.701 210.59 146.311 210.97 131.901 210.66C130.491 203.78 129.521 196.81 129.011 189.8C135.181 189.91 141.491 189.15 147.591 188.28C156.841 186.96 166.081 185.45 175.271 183.75C180.461 182.79 185.611 181.77 190.781 180.68C240.721 170.22 289.471 154.11 335.831 132.79C341.491 130.18 347.111 127.5 352.701 124.74C355.241 123.48 357.771 122.21 360.301 120.92C361.201 122.2 362.101 123.48 362.971 124.78C378.521 127.28 390.401 140.76 390.401 157.02Z" fill="url(#paint83_linear_26486_109513)"/>
<path d="M439.63 107.2C438.12 112.94 432.89 118.15 427.83 121.93C398.47 143.81 363.11 155.91 328.08 166.6C250.86 190.16 169.78 208.61 89.8204 197.42C80.2604 196.08 68.7604 192.46 66.9904 182.97C65.8604 176.91 69.6304 170.78 74.7004 167.29C75.6504 166.64 76.6504 166.05 77.6804 165.52C82.1004 163.27 87.0904 162.14 91.9704 161.05C100.89 159.07 112.22 156.5 125.25 153.51C125.29 153.3 125.33 153.1 125.37 152.89C129.94 128.21 136.63 103.75 145.58 79.21C147.73 73.33 152.99 69.15 159.21 68.46C206.09 63.23 251.67 47.16 290.48 22.38C294.46 19.84 299.25 19.2199 303.59 20.4199C305.98 21.0799 308.24 22.2899 310.16 24.0399C332.28 44.0799 350.2 68.7299 362.47 95.9399C369.42 94.0799 375.69 92.35 381.15 90.7999C404.32 84.2 434.83 85.91 439.49 100.39C440.23 102.71 440.2 104.99 439.62 107.21L439.63 107.2Z" fill="url(#paint84_linear_26486_109513)"/>
<path style="mix-blend-mode:multiply" opacity="0.34" d="M335.501 115.08C287.931 141.5 234.561 157.39 180.291 161.28C164.511 162.42 148.181 162.47 133.451 156.69C130.661 155.6 127.981 154.32 125.381 152.89C129.951 128.21 136.641 103.75 145.591 79.21C147.741 73.33 153.001 69.15 159.221 68.46C206.101 63.23 251.681 47.16 290.491 22.38C294.471 19.84 299.261 19.2199 303.601 20.4199C293.721 46.3199 274.001 68.4899 249.151 80.8699C219.611 95.5899 183.411 96.21 153.391 82.49C146.391 94.56 150.881 110.84 160.731 120.73C170.571 130.63 184.531 135.25 198.241 137.85C244.591 146.61 292.981 135.51 335.501 115.07V115.08Z" fill="url(#paint85_linear_26486_109513)"/>
<path style="mix-blend-mode:multiply" opacity="0.19" d="M439.63 107.199C438.12 112.939 432.89 118.149 427.83 121.929C398.47 143.809 363.11 155.909 328.08 166.599C250.86 190.159 169.78 208.609 89.8204 197.419C80.2604 196.079 68.7604 192.459 66.9904 182.969C65.8604 176.909 69.6304 170.779 74.7004 167.289C75.6504 166.639 76.6504 166.049 77.6804 165.519C56.4404 221.599 355.21 180.469 439.62 107.199H439.63Z" fill="url(#paint86_linear_26486_109513)"/>
<path d="M123.381 157.691C122.221 163.141 121.151 168.671 120.141 174.121C120.211 175.231 121.621 175.881 122.541 175.301C123.411 174.811 123.361 173.741 123.551 172.871C124.501 167.881 125.611 162.871 126.481 157.891C126.331 156.201 123.791 156.041 123.381 157.681V157.691Z" fill="black"/>
<path d="M374.751 113.859C374.751 113.859 374.671 113.749 374.581 113.629C373.671 112.339 372.771 111.049 371.911 109.729C370.131 106.959 368.361 104.159 366.691 101.319C365.971 100.259 365.571 98.9093 364.651 98.0193C363.231 96.8193 361.131 98.6693 362.101 100.259C364.701 105.129 367.861 109.659 370.581 114.459C371.111 115.239 371.391 116.269 372.141 116.859C373.341 117.919 375.371 116.879 375.331 115.299C375.351 114.749 375.071 114.279 374.751 113.849V113.859Z" fill="black"/>
<path d="M267.321 68.5196C265.571 67.6796 264.641 69.4196 263.141 70.3596C261.291 71.7896 259.821 72.9896 256.601 75.2396C243.691 83.7196 225.141 88.3696 210.951 90.1796C200.851 91.4596 191.871 90.2796 182.941 88.8796C178.001 88.2096 175.431 87.6196 170.241 86.7596C168.331 86.9296 168.091 89.8496 170.001 90.3296C174.941 91.7396 180.041 92.4496 185.111 93.2096C193.421 94.4696 201.891 95.0696 210.271 94.0596C220.391 92.8596 230.401 90.4996 239.991 87.0396C245.241 85.1496 253.011 82.0796 258.831 78.0796C261.501 76.2296 264.031 74.1796 266.581 72.1696C267.091 71.7096 267.791 71.3596 268.041 70.6996C268.431 69.9296 268.051 68.9496 267.331 68.5196H267.321Z" fill="black"/>
<path d="M315.561 124.01C310.721 126.38 306.061 128.04 300.791 130.29C284.871 137.08 267.881 143.42 250.331 148.37C222.371 155.83 195.581 158.84 166.431 158.25C161.481 158.12 156.541 157.84 151.631 157.24C150.271 157.09 148.911 156.89 147.551 156.75C146.641 156.56 145.611 157.04 145.301 157.94C144.871 158.82 145.281 159.95 146.121 160.44C147.141 160.92 148.361 160.73 149.451 160.95C153.251 161.39 157.071 161.66 160.891 161.87C171.731 162.56 182.601 162.09 193.431 161.39C208.801 160.42 224.061 158.12 239.071 154.64C256.301 150.75 272.961 144.67 289.321 138.07C296.011 135.25 303.351 132.11 309.821 129.46C312.211 128.47 314.551 127.39 316.861 126.22C317.151 126.05 317.361 125.78 317.451 125.46C317.761 124.41 316.531 123.43 315.581 124.02L315.561 124.01Z" fill="black"/>
</g>
<defs>
<linearGradient id="paint0_linear_26486_109513" x1="348.231" y1="690.67" x2="-314.959" y2="690.67" gradientUnits="userSpaceOnUse">
<stop stop-color="#454347"/>
<stop offset="1" stop-color="#626163"/>
</linearGradient>
<linearGradient id="paint1_linear_26486_109513" x1="348.231" y1="546.57" x2="-129.149" y2="546.57" gradientUnits="userSpaceOnUse">
<stop stop-color="#454347"/>
<stop offset="1" stop-color="#626163"/>
</linearGradient>
<linearGradient id="paint2_linear_26486_109513" x1="181.141" y1="458.87" x2="271.511" y2="221.7" gradientUnits="userSpaceOnUse">
<stop stop-color="#FFC493"/>
<stop offset="1" stop-color="#FFB073"/>
</linearGradient>
<linearGradient id="paint3_linear_26486_109513" x1="213.51" y1="379.751" x2="156.23" y2="521.801" gradientUnits="userSpaceOnUse">
<stop stop-color="#363636"/>
<stop offset="1" stop-color="#131313"/>
</linearGradient>
<linearGradient id="paint4_linear_26486_109513" x1="302.201" y1="322.241" x2="61.6807" y2="322.241" gradientUnits="userSpaceOnUse">
<stop stop-color="#FFC493"/>
<stop offset="1" stop-color="#FFB073"/>
</linearGradient>
<linearGradient id="paint5_linear_26486_109513" x1="179.67" y1="468.222" x2="238.3" y2="364.882" gradientUnits="userSpaceOnUse">
<stop stop-color="#FFAB18"/>
<stop offset="1" stop-color="#FFE068"/>
</linearGradient>
<linearGradient id="paint6_linear_26486_109513" x1="141.05" y1="328.661" x2="149.73" y2="313.371" gradientUnits="userSpaceOnUse">
<stop stop-color="#FFAB18"/>
<stop offset="1" stop-color="#FFE068"/>
</linearGradient>
<linearGradient id="paint7_linear_26486_109513" x1="147.71" y1="341.63" x2="156.38" y2="326.35" gradientUnits="userSpaceOnUse">
<stop stop-color="#FFAB18"/>
<stop offset="1" stop-color="#FFE068"/>
</linearGradient>
<linearGradient id="paint8_linear_26486_109513" x1="140.16" y1="336.041" x2="148.28" y2="321.731" gradientUnits="userSpaceOnUse">
<stop stop-color="#FFAB18"/>
<stop offset="1" stop-color="#FFE068"/>
</linearGradient>
<linearGradient id="paint9_linear_26486_109513" x1="149.13" y1="352.891" x2="157.35" y2="338.401" gradientUnits="userSpaceOnUse">
<stop stop-color="#FFAB18"/>
<stop offset="1" stop-color="#FFE068"/>
</linearGradient>
<linearGradient id="paint10_linear_26486_109513" x1="140.98" y1="347.651" x2="149.49" y2="332.651" gradientUnits="userSpaceOnUse">
<stop stop-color="#FFAB18"/>
<stop offset="1" stop-color="#FFE068"/>
</linearGradient>
<linearGradient id="paint11_linear_26486_109513" x1="151.27" y1="363.26" x2="159.68" y2="348.44" gradientUnits="userSpaceOnUse">
<stop stop-color="#FFAB18"/>
<stop offset="1" stop-color="#FFE068"/>
</linearGradient>
<linearGradient id="paint12_linear_26486_109513" x1="143.29" y1="358.421" x2="151.83" y2="343.371" gradientUnits="userSpaceOnUse">
<stop stop-color="#FFAB18"/>
<stop offset="1" stop-color="#FFE068"/>
</linearGradient>
<linearGradient id="paint13_linear_26486_109513" x1="153.74" y1="373.791" x2="162.26" y2="358.761" gradientUnits="userSpaceOnUse">
<stop stop-color="#FFAB18"/>
<stop offset="1" stop-color="#FFE068"/>
</linearGradient>
<linearGradient id="paint14_linear_26486_109513" x1="145.92" y1="368.912" x2="154.39" y2="353.992" gradientUnits="userSpaceOnUse">
<stop stop-color="#FFAB18"/>
<stop offset="1" stop-color="#FFE068"/>
</linearGradient>
<linearGradient id="paint15_linear_26486_109513" x1="148.24" y1="380.071" x2="156.78" y2="365.021" gradientUnits="userSpaceOnUse">
<stop stop-color="#FFAB18"/>
<stop offset="1" stop-color="#FFE068"/>
</linearGradient>
<linearGradient id="paint16_linear_26486_109513" x1="156.04" y1="384.75" x2="164.5" y2="369.82" gradientUnits="userSpaceOnUse">
<stop stop-color="#FFAB18"/>
<stop offset="1" stop-color="#FFE068"/>
</linearGradient>
<linearGradient id="paint17_linear_26486_109513" x1="158.67" y1="395.47" x2="167.24" y2="380.36" gradientUnits="userSpaceOnUse">
<stop stop-color="#FFAB18"/>
<stop offset="1" stop-color="#FFE068"/>
</linearGradient>
<linearGradient id="paint18_linear_26486_109513" x1="150.72" y1="390.16" x2="159.06" y2="375.46" gradientUnits="userSpaceOnUse">
<stop stop-color="#FFAB18"/>
<stop offset="1" stop-color="#FFE068"/>
</linearGradient>
<linearGradient id="paint19_linear_26486_109513" x1="161.02" y1="405.731" x2="169.38" y2="391.001" gradientUnits="userSpaceOnUse">
<stop stop-color="#FFAB18"/>
<stop offset="1" stop-color="#FFE068"/>
</linearGradient>
<linearGradient id="paint20_linear_26486_109513" x1="152.89" y1="400.761" x2="161.44" y2="385.701" gradientUnits="userSpaceOnUse">
<stop stop-color="#FFAB18"/>
<stop offset="1" stop-color="#FFE068"/>
</linearGradient>
<linearGradient id="paint21_linear_26486_109513" x1="163.38" y1="416.051" x2="171.87" y2="401.091" gradientUnits="userSpaceOnUse">
<stop stop-color="#FFAB18"/>
<stop offset="1" stop-color="#FFE068"/>
</linearGradient>
<linearGradient id="paint22_linear_26486_109513" x1="155.47" y1="411.231" x2="163.96" y2="396.251" gradientUnits="userSpaceOnUse">
<stop stop-color="#FFAB18"/>
<stop offset="1" stop-color="#FFE068"/>
</linearGradient>
<linearGradient id="paint23_linear_26486_109513" x1="166.01" y1="426.35" x2="174.49" y2="411.41" gradientUnits="userSpaceOnUse">
<stop stop-color="#FFAB18"/>
<stop offset="1" stop-color="#FFE068"/>
</linearGradient>
<linearGradient id="paint24_linear_26486_109513" x1="158.11" y1="421.621" x2="166.61" y2="406.621" gradientUnits="userSpaceOnUse">
<stop stop-color="#FFAB18"/>
<stop offset="1" stop-color="#FFE068"/>
</linearGradient>
<linearGradient id="paint25_linear_26486_109513" x1="168.68" y1="436.63" x2="177.17" y2="421.67" gradientUnits="userSpaceOnUse">
<stop stop-color="#FFAB18"/>
<stop offset="1" stop-color="#FFE068"/>
</linearGradient>
<linearGradient id="paint26_linear_26486_109513" x1="160.82" y1="431.941" x2="169.32" y2="416.971" gradientUnits="userSpaceOnUse">
<stop stop-color="#FFAB18"/>
<stop offset="1" stop-color="#FFE068"/>
</linearGradient>
<linearGradient id="paint27_linear_26486_109513" x1="171.46" y1="446.721" x2="179.91" y2="431.821" gradientUnits="userSpaceOnUse">
<stop stop-color="#FFAB18"/>
<stop offset="1" stop-color="#FFE068"/>
</linearGradient>
<linearGradient id="paint28_linear_26486_109513" x1="163.69" y1="442.321" x2="172.24" y2="427.241" gradientUnits="userSpaceOnUse">
<stop stop-color="#FFAB18"/>
<stop offset="1" stop-color="#FFE068"/>
</linearGradient>
<linearGradient id="paint29_linear_26486_109513" x1="174.28" y1="457.181" x2="182.84" y2="442.091" gradientUnits="userSpaceOnUse">
<stop stop-color="#FFAB18"/>
<stop offset="1" stop-color="#FFE068"/>
</linearGradient>
<linearGradient id="paint30_linear_26486_109513" x1="166.61" y1="452.61" x2="175.07" y2="437.7" gradientUnits="userSpaceOnUse">
<stop stop-color="#FFAB18"/>
<stop offset="1" stop-color="#FFE068"/>
</linearGradient>
<linearGradient id="paint31_linear_26486_109513" x1="177.23" y1="467.47" x2="185.7" y2="452.54" gradientUnits="userSpaceOnUse">
<stop stop-color="#FFAB18"/>
<stop offset="1" stop-color="#FFE068"/>
</linearGradient>
<linearGradient id="paint32_linear_26486_109513" x1="169.37" y1="462.851" x2="177.86" y2="447.891" gradientUnits="userSpaceOnUse">
<stop stop-color="#FFAB18"/>
<stop offset="1" stop-color="#FFE068"/>
</linearGradient>
<linearGradient id="paint33_linear_26486_109513" x1="180.37" y1="476.952" x2="188.65" y2="462.352" gradientUnits="userSpaceOnUse">
<stop stop-color="#FFAB18"/>
<stop offset="1" stop-color="#FFE068"/>
</linearGradient>
<linearGradient id="paint34_linear_26486_109513" x1="172.51" y1="472.321" x2="180.81" y2="457.691" gradientUnits="userSpaceOnUse">
<stop stop-color="#FFAB18"/>
<stop offset="1" stop-color="#FFE068"/>
</linearGradient>
<linearGradient id="paint35_linear_26486_109513" x1="183.56" y1="487.211" x2="191.84" y2="472.601" gradientUnits="userSpaceOnUse">
<stop stop-color="#FFAB18"/>
<stop offset="1" stop-color="#FFE068"/>
</linearGradient>
<linearGradient id="paint36_linear_26486_109513" x1="175.77" y1="482.69" x2="184.08" y2="468.04" gradientUnits="userSpaceOnUse">
<stop stop-color="#FFAB18"/>
<stop offset="1" stop-color="#FFE068"/>
</linearGradient>
<linearGradient id="paint37_linear_26486_109513" x1="179.399" y1="493.311" x2="187.809" y2="478.501" gradientUnits="userSpaceOnUse">
<stop stop-color="#FFAB18"/>
<stop offset="1" stop-color="#FFE068"/>
</linearGradient>
<linearGradient id="paint38_linear_26486_109513" x1="285.12" y1="486.24" x2="292.42" y2="473.36" gradientUnits="userSpaceOnUse">
<stop stop-color="#FFAB18"/>
<stop offset="1" stop-color="#FFE068"/>
</linearGradient>
<linearGradient id="paint39_linear_26486_109513" x1="289.26" y1="476.781" x2="296.65" y2="463.741" gradientUnits="userSpaceOnUse">
<stop stop-color="#FFAB18"/>
<stop offset="1" stop-color="#FFE068"/>
</linearGradient>
<linearGradient id="paint40_linear_26486_109513" x1="291.49" y1="482.671" x2="298.75" y2="469.871" gradientUnits="userSpaceOnUse">
<stop stop-color="#FFAB18"/>
<stop offset="1" stop-color="#FFE068"/>
</linearGradient>
<linearGradient id="paint41_linear_26486_109513" x1="293.81" y1="471.77" x2="303.19" y2="455.24" gradientUnits="userSpaceOnUse">
<stop stop-color="#FFAB18"/>
<stop offset="1" stop-color="#FFE068"/>
</linearGradient>
<linearGradient id="paint42_linear_26486_109513" x1="149.11" y1="328.7" x2="151.67" y2="318.32" gradientUnits="userSpaceOnUse">
<stop stop-color="#FFFAF4"/>
<stop offset="1" stop-color="#FAECDD"/>
</linearGradient>
<linearGradient id="paint43_linear_26486_109513" x1="152.111" y1="339.391" x2="154.661" y2="329.051" gradientUnits="userSpaceOnUse">
<stop stop-color="#FFFAF4"/>
<stop offset="1" stop-color="#FAECDD"/>
</linearGradient>
<linearGradient id="paint44_linear_26486_109513" x1="153.11" y1="350.701" x2="155.58" y2="340.671" gradientUnits="userSpaceOnUse">
<stop stop-color="#FFFAF4"/>
<stop offset="1" stop-color="#FAECDD"/>
</linearGradient>
<linearGradient id="paint45_linear_26486_109513" x1="155.5" y1="360.67" x2="158.02" y2="350.47" gradientUnits="userSpaceOnUse">
<stop stop-color="#FFFAF4"/>
<stop offset="1" stop-color="#FAECDD"/>
</linearGradient>
<linearGradient id="paint46_linear_26486_109513" x1="157.241" y1="372.13" x2="159.571" y2="362.7" gradientUnits="userSpaceOnUse">
<stop stop-color="#FFFAF4"/>
<stop offset="1" stop-color="#FAECDD"/>
</linearGradient>
<linearGradient id="paint47_linear_26486_109513" x1="160.72" y1="380.241" x2="162.94" y2="371.241" gradientUnits="userSpaceOnUse">
<stop stop-color="#FFFAF4"/>
<stop offset="1" stop-color="#FAECDD"/>
</linearGradient>
<linearGradient id="paint48_linear_26486_109513" x1="163.35" y1="391.191" x2="165.43" y2="382.771" gradientUnits="userSpaceOnUse">
<stop stop-color="#FFFAF4"/>
<stop offset="1" stop-color="#FAECDD"/>
</linearGradient>
<linearGradient id="paint49_linear_26486_109513" x1="165.7" y1="399.521" x2="167.54" y2="392.071" gradientUnits="userSpaceOnUse">
<stop stop-color="#FFFAF4"/>
<stop offset="1" stop-color="#FAECDD"/>
</linearGradient>
<linearGradient id="paint50_linear_26486_109513" x1="168.08" y1="411.361" x2="170.08" y2="403.281" gradientUnits="userSpaceOnUse">
<stop stop-color="#FFFAF4"/>
<stop offset="1" stop-color="#FAECDD"/>
</linearGradient>
<linearGradient id="paint51_linear_26486_109513" x1="170.79" y1="419.86" x2="172.27" y2="413.87" gradientUnits="userSpaceOnUse">
<stop stop-color="#FFFAF4"/>
<stop offset="1" stop-color="#FAECDD"/>
</linearGradient>
<linearGradient id="paint52_linear_26486_109513" x1="173.44" y1="432.23" x2="175.43" y2="424.15" gradientUnits="userSpaceOnUse">
<stop stop-color="#FFFAF4"/>
<stop offset="1" stop-color="#FAECDD"/>
</linearGradient>
<linearGradient id="paint53_linear_26486_109513" x1="175.99" y1="442.081" x2="178.08" y2="433.611" gradientUnits="userSpaceOnUse">
<stop stop-color="#FFFAF4"/>
<stop offset="1" stop-color="#FAECDD"/>
</linearGradient>
<linearGradient id="paint54_linear_26486_109513" x1="179.26" y1="451.87" x2="181.09" y2="444.45" gradientUnits="userSpaceOnUse">
<stop stop-color="#FFFAF4"/>
<stop offset="1" stop-color="#FAECDD"/>
</linearGradient>
<linearGradient id="paint55_linear_26486_109513" x1="181.801" y1="462.41" x2="183.881" y2="453.96" gradientUnits="userSpaceOnUse">
<stop stop-color="#FFFAF4"/>
<stop offset="1" stop-color="#FAECDD"/>
</linearGradient>
<linearGradient id="paint56_linear_26486_109513" x1="185.44" y1="471.691" x2="187.14" y2="464.781" gradientUnits="userSpaceOnUse">
<stop stop-color="#FFFAF4"/>
<stop offset="1" stop-color="#FAECDD"/>
</linearGradient>
<linearGradient id="paint57_linear_26486_109513" x1="188.13" y1="481.581" x2="189.8" y2="474.791" gradientUnits="userSpaceOnUse">
<stop stop-color="#FFFAF4"/>
<stop offset="1" stop-color="#FAECDD"/>
</linearGradient>
<linearGradient id="paint58_linear_26486_109513" x1="287.11" y1="480.211" x2="288.25" y2="475.601" gradientUnits="userSpaceOnUse">
<stop stop-color="#FFFAF4"/>
<stop offset="1" stop-color="#FAECDD"/>
</linearGradient>
<linearGradient id="paint59_linear_26486_109513" x1="290.35" y1="471.171" x2="291.76" y2="465.421" gradientUnits="userSpaceOnUse">
<stop stop-color="#FFFAF4"/>
<stop offset="1" stop-color="#FAECDD"/>
</linearGradient>
<linearGradient id="paint60_linear_26486_109513" x1="293.18" y1="462.34" x2="294.51" y2="456.94" gradientUnits="userSpaceOnUse">
<stop stop-color="#FFFAF4"/>
<stop offset="1" stop-color="#FAECDD"/>
</linearGradient>
<linearGradient id="paint61_linear_26486_109513" x1="418.221" y1="380.551" x2="141.471" y2="714.681" gradientUnits="userSpaceOnUse">
<stop stop-color="#363636"/>
<stop offset="1" stop-color="#131313"/>
</linearGradient>
<linearGradient id="paint62_linear_26486_109513" x1="231.58" y1="341.041" x2="257.22" y2="273.751" gradientUnits="userSpaceOnUse">
<stop stop-color="#FFC493"/>
<stop offset="1" stop-color="#FFB073"/>
</linearGradient>
<linearGradient id="paint63_linear_26486_109513" x1="434.65" y1="157.01" x2="191.43" y2="336.39" gradientUnits="userSpaceOnUse">
<stop stop-color="#FFC493"/>
<stop offset="1" stop-color="#FFB073"/>
</linearGradient>
<linearGradient id="paint64_linear_26486_109513" x1="325.66" y1="330.68" x2="292.06" y2="261.56" gradientUnits="userSpaceOnUse">
<stop stop-color="#FFF4EF"/>
<stop offset="1" stop-color="#F6DFD7"/>
</linearGradient>
<linearGradient id="paint65_linear_26486_109513" x1="294" y1="340.519" x2="298.2" y2="286.679" gradientUnits="userSpaceOnUse">
<stop stop-color="#FFF4EF"/>
<stop offset="1" stop-color="#F6DFD7"/>
</linearGradient>
<linearGradient id="paint66_linear_26486_109513" x1="370.29" y1="240.299" x2="284.95" y2="191.039" gradientUnits="userSpaceOnUse">
<stop stop-color="#FF9762"/>
<stop offset="1" stop-color="#FFB073"/>
</linearGradient>
<linearGradient id="paint67_linear_26486_109513" x1="32.6403" y1="592.511" x2="-440.11" y2="1199.13" gradientUnits="userSpaceOnUse">
<stop stop-color="#363636"/>
<stop offset="1" stop-color="#131313"/>
</linearGradient>
<linearGradient id="paint68_linear_26486_109513" x1="347.331" y1="358.029" x2="-6.83912" y2="668.01" gradientUnits="userSpaceOnUse">
<stop stop-color="#363636"/>
<stop offset="1" stop-color="#131313"/>
</linearGradient>
<linearGradient id="paint69_linear_26486_109513" x1="165.22" y1="396.76" x2="207.73" y2="204.63" gradientUnits="userSpaceOnUse">
<stop stop-color="#FFAB18"/>
<stop offset="1" stop-color="#FFE068"/>
</linearGradient>
<linearGradient id="paint70_linear_26486_109513" x1="132.111" y1="235.241" x2="263.931" y2="161.681" gradientUnits="userSpaceOnUse">
<stop stop-color="#9F5A10"/>
<stop offset="1" stop-color="#F0891E"/>
</linearGradient>
<linearGradient id="paint71_linear_26486_109513" x1="386.061" y1="413.95" x2="195.881" y2="289.29" gradientUnits="userSpaceOnUse">
<stop stop-color="#FFC493"/>
<stop offset="1" stop-color="#FFB073"/>
</linearGradient>
<linearGradient id="paint72_linear_26486_109513" x1="148.647" y1="265.085" x2="181.869" y2="269.465" gradientUnits="userSpaceOnUse">
<stop stop-color="#FFC493"/>
<stop offset="1" stop-color="#FFB073"/>
</linearGradient>
<linearGradient id="paint73_linear_26486_109513" x1="373.011" y1="275.51" x2="167.781" y2="247.8" gradientUnits="userSpaceOnUse">
<stop stop-color="#FFC493"/>
<stop offset="1" stop-color="#FFB073"/>
</linearGradient>
<linearGradient id="paint74_linear_26486_109513" x1="336.421" y1="359.979" x2="315.171" y2="167.859" gradientUnits="userSpaceOnUse">
<stop stop-color="#FFAB18"/>
<stop offset="1" stop-color="#FFE068"/>
</linearGradient>
<linearGradient id="paint75_linear_26486_109513" x1="305.33" y1="134.199" x2="281.96" y2="232.279" gradientUnits="userSpaceOnUse">
<stop stop-color="#363636"/>
<stop offset="1" stop-color="#131313"/>
</linearGradient>
<linearGradient id="paint76_linear_26486_109513" x1="296.981" y1="166.879" x2="282.271" y2="228.609" gradientUnits="userSpaceOnUse">
<stop stop-color="#363636"/>
<stop offset="1" stop-color="#131313"/>
</linearGradient>
<linearGradient id="paint77_linear_26486_109513" x1="372.12" y1="96.6091" x2="348.76" y2="194.689" gradientUnits="userSpaceOnUse">
<stop stop-color="#363636"/>
<stop offset="1" stop-color="#131313"/>
</linearGradient>
<linearGradient id="paint78_linear_26486_109513" x1="285.421" y1="223.021" x2="299.261" y2="166.881" gradientUnits="userSpaceOnUse">
<stop stop-color="#FFFAF4"/>
<stop offset="1" stop-color="#FAECDD"/>
</linearGradient>
<linearGradient id="paint79_linear_26486_109513" x1="300.341" y1="222.259" x2="312.501" y2="172.959" gradientUnits="userSpaceOnUse">
<stop stop-color="#FFFAF4"/>
<stop offset="1" stop-color="#FAECDD"/>
</linearGradient>
<linearGradient id="paint80_linear_26486_109513" x1="360.07" y1="187.31" x2="373.74" y2="131.87" gradientUnits="userSpaceOnUse">
<stop stop-color="#FFFAF4"/>
<stop offset="1" stop-color="#FAECDD"/>
</linearGradient>
<linearGradient id="paint81_linear_26486_109513" x1="373.941" y1="181.601" x2="384.061" y2="140.571" gradientUnits="userSpaceOnUse">
<stop stop-color="#FFFAF4"/>
<stop offset="1" stop-color="#FAECDD"/>
</linearGradient>
<linearGradient id="paint82_linear_26486_109513" x1="363.61" y1="128.839" x2="348.8" y2="191.009" gradientUnits="userSpaceOnUse">
<stop stop-color="#363636"/>
<stop offset="1" stop-color="#131313"/>
</linearGradient>
<linearGradient id="paint83_linear_26486_109513" x1="196.681" y1="223.8" x2="422.231" y2="54.3699" gradientUnits="userSpaceOnUse">
<stop stop-color="#454347"/>
<stop offset="1" stop-color="#626163"/>
</linearGradient>
<linearGradient id="paint84_linear_26486_109513" x1="154.79" y1="197.99" x2="475.9" y2="-43.23" gradientUnits="userSpaceOnUse">
<stop stop-color="#454347"/>
<stop offset="1" stop-color="#626163"/>
</linearGradient>
<linearGradient id="paint85_linear_26486_109513" x1="171.101" y1="147.63" x2="375.161" y2="-5.66003" gradientUnits="userSpaceOnUse">
<stop stop-color="#454347"/>
<stop offset="1" stop-color="#626163"/>
</linearGradient>
<linearGradient id="paint86_linear_26486_109513" x1="163.29" y1="210.679" x2="480.11" y2="-27.3108" gradientUnits="userSpaceOnUse">
<stop stop-color="#454347"/>
<stop offset="1" stop-color="#626163"/>
</linearGradient>
<clipPath id="clip0_26486_109513">
<rect width="480" height="480" rx="8" fill="white"/>
</clipPath>
</defs>
</svg>
